<?xml version="1.0" encoding="UTF-8" standalone="no"?>
<svg
   version="1.2"
   width="71.120003mm"
   height="128.5mm"
   viewBox="0 0 7112.0004 12850"
   preserveAspectRatio="xMidYMid"
   fill-rule="evenodd"
   stroke-width="28.222"
   stroke-linejoin="round"
   xml:space="preserve"
   id="svg488"
   sodipodi:docname="bifurx.svg"
   inkscape:version="1.4.3 (0d15f75, 2025-12-25)"
   inkscape:label="Wave Art"
   xmlns:inkscape="http://www.inkscape.org/namespaces/inkscape"
   xmlns:sodipodi="http://sodipodi.sourceforge.net/DTD/sodipodi-0.dtd"
   xmlns:xlink="http://www.w3.org/1999/xlink"
   xmlns="http://www.w3.org/2000/svg"
   xmlns:svg="http://www.w3.org/2000/svg">
  <defs
   id="defs1"><linearGradient
   id="linearGradient22"
   inkscape:collect="always"><stop
     style="stop-color:#7a5cff;stop-opacity:1;"
     offset="0"
     id="stop22" /><stop
     style="stop-color:#1cccd9;stop-opacity:1;"
     offset="1"
     id="stop23" /></linearGradient><linearGradient
   id="linearGradient20"
   inkscape:collect="always"><stop
     style="stop-color:#795cff;stop-opacity:1;"
     offset="0"
     id="stop20" /><stop
     style="stop-color:#1cccd9;stop-opacity:1;"
     offset="1"
     id="stop21" /></linearGradient><linearGradient
   id="linearGradient16"
   x1="0"
   y1="0"
   x2="0"
   y2="1">
      <stop
   offset="0"
   stop-color="#1ccad8"
   stop-opacity="0.65"
   id="stop15"
   style="stop-color:#1ccad8;stop-opacity:1;" />
      <stop
   offset="1"
   stop-color="#7a5cff"
   stop-opacity="0.65"
   id="stop16"
   style="stop-color:#7a5cff;stop-opacity:1;" />
    </linearGradient><linearGradient
   id="linearGradient14"
   x1="0"
   y1="0"
   x2="0"
   y2="1">
      <stop
   offset="0"
   stop-color="#1ccad8"
   stop-opacity="0.65"
   id="stop13"
   style="stop-color:#1ccad8;stop-opacity:1;" />
      <stop
   offset="1"
   stop-color="#7a5cff"
   stop-opacity="0.65"
   id="stop14"
   style="stop-color:#7a5cff;stop-opacity:1;" />
    </linearGradient>
    <linearGradient
   id="linearGradient12"
   x1="0"
   y1="0"
   x2="0"
   y2="1">
      <stop
   offset="0"
   stop-color="#1ccad8"
   stop-opacity="0.65"
   id="stop11"
   style="stop-color:#6140bf;stop-opacity:1;" />
      <stop
   offset="1"
   stop-color="#7a5cff"
   stop-opacity="0.65"
   id="stop12" />
    </linearGradient>
    <linearGradient
   id="bgGrad"
   x1="1108.8855"
   y1="886.8808"
   x2="1108.8855"
   y2="12348.43"
   gradientTransform="matrix(0.62254167,0,0,1.1244228,295.85457,0)"
   gradientUnits="userSpaceOnUse">
      <stop
   offset="0%"
   stop-color="#0b0d10"
   id="stop1" />
      <stop
   offset="50%"
   stop-color="#10141a"
   id="stop2" />
      <stop
   offset="100%"
   stop-color="#07080a"
   id="stop3" />
    </linearGradient>
    <linearGradient
   id="panelSheen"
   x1="1258.4897"
   y1="999.76398"
   x2="1258.4897"
   y2="12199.481"
   gradientTransform="scale(0.88692179,1.1274951)"
   gradientUnits="userSpaceOnUse">
      <stop
   offset="0%"
   stop-color="#ffffff"
   stop-opacity="0.1"
   id="stop4" />
      <stop
   offset="15%"
   stop-color="#ffffff"
   stop-opacity="0.02"
   id="stop5" />
      <stop
   offset="50%"
   stop-color="#ffffff"
   stop-opacity="0.0"
   id="stop6" />
      <stop
   offset="85%"
   stop-color="#ffffff"
   stop-opacity="0.02"
   id="stop7" />
      <stop
   offset="100%"
   stop-color="#ffffff"
   stop-opacity="0.1"
   id="stop8" />
    </linearGradient>
    <linearGradient
   id="accentGrad"
   x1="0"
   y1="0"
   x2="0"
   y2="1">
      <stop
   offset="0%"
   stop-color="#1ccad8"
   stop-opacity="0.65"
   id="stop9" />
      <stop
   offset="100%"
   stop-color="#7a5cff"
   stop-opacity="0.65"
   id="stop10" />
    </linearGradient>
    <linearGradient
   id="oceanWaveGrad"
   x1="0"
   y1="0"
   x2="1"
   y2="1"
   gradientUnits="objectBoundingBox">
      <stop
   offset="0%"
   stop-color="#55dbff"
   id="stop_wave_1" />
      <stop
   offset="55%"
   stop-color="#1496df"
   id="stop_wave_2" />
      <stop
   offset="100%"
   stop-color="#182682"
   id="stop_wave_3" />
    </linearGradient>
    
    
    
    
    
    
    
    
    
    
  
    
    
    
    
    
    
  <linearGradient
   inkscape:collect="always"
   xlink:href="#oceanWaveGrad"
   id="linearGradient10"
   gradientUnits="userSpaceOnUse"
   x1="-323.57697"
   y1="-103.93273"
   x2="723.81177"
   y2="943.45605"
   gradientTransform="matrix(-1.435811,0,0,0.69647048,8750.0001,12953.568)" /><linearGradient
   inkscape:collect="always"
   xlink:href="#oceanWaveGrad"
   id="linearGradient11"
   gradientUnits="userSpaceOnUse"
   x1="-323.57697"
   y1="-103.93273"
   x2="723.81177"
   y2="943.45605"
   gradientTransform="matrix(1.435811,0,0,0.69647048,3420,12953.568)" /><linearGradient
   inkscape:collect="always"
   xlink:href="#linearGradient22"
   id="linearGradient500"
   gradientUnits="userSpaceOnUse"
   x1="5355.9189"
   y1="1516.2338"
   x2="6904.7725"
   y2="1512.3004"
   gradientTransform="matrix(0.99690805,0,0,0.99690805,-2554.7836,-888.26714)" /><linearGradient
   inkscape:collect="always"
   xlink:href="#linearGradient20"
   id="linearGradient300"
   gradientUnits="userSpaceOnUse"
   gradientTransform="matrix(1.3902179,0,0,1.3902178,-5190.496,-5277.5491)"
   x1="5486.8237"
   y1="12735.478"
   x2="7088.8071"
   y2="12738.298"
   spreadMethod="pad" /></defs>
  <sodipodi:namedview
   id="namedview488"
   pagecolor="#ffffff"
   bordercolor="#000000"
   borderopacity="0.25"
   inkscape:showpageshadow="2"
   inkscape:pageopacity="0.0"
   inkscape:pagecheckerboard="true"
   inkscape:deskcolor="#d1d1d1"
   inkscape:document-units="mm"
   inkscape:zoom="4"
   inkscape:cx="94.5"
   inkscape:cy="321.125"
   inkscape:window-width="2560"
   inkscape:window-height="1377"
   inkscape:window-x="-8"
   inkscape:window-y="-8"
   inkscape:window-maximized="1"
   inkscape:current-layer="panel_labels_reworked"
   showgrid="false"
   inkscape:pageshadow="2" />
  
  <g
   id="panel_art"
   style="display:inline">
    <g
   id="Background_Rect"
   style="display:inline"
   transform="matrix(0.99673566,0,0,0.99708035,-982.96277,-994.31744)">
      <rect
   x="986.18201"
   y="997.229"
   width="7135.2925"
   height="12887.627"
   rx="0"
   ry="0"
   fill="url(#bgGrad)"
   id="black_background"
   style="display:inline;fill:url(#bgGrad);stroke-width:23.6122"
   sodipodi:insensitive="true" />
      <g
   id="waves_layer"
   style="display:inline;opacity:0.5"
   transform="matrix(1.0032752,0,0,1.0029283,-542.80623,1109.6544)"><g
     id="branding_wave_left"
     transform="matrix(1.72,0,0,1.72,2416.9188,11996.75)"
     style="display:inline">
        <path
   style="fill:#4995ec"
   d="m 0,413.249 c 0,0 99.571,-7.286 135.999,-84.999 36.428,-77.713 30.357,-229.499 207.642,-229.499 38.871,0 81.438,18.386 104.731,34.602 116.875,81.362 61.625,248.326 -75.589,205.523 0,0 49.786,-2.125 49.786,-67.697 0,-65.572 -82.091,-75.285 -94.714,-20.643 -8.992,38.927 -3.643,156.643 167.571,162.713"
   id="path149" />
        <path
   style="fill:#7a5cff"
   d="m 372.784,338.875 c 42.5,0 125.678,-65.875 75.213,-144.378 C 412.71,139.6 316.321,128.5 247.714,197.107 179.179,265.642 219.7,398.411 0.644,413.201 9.193,412.412 101.283,402.321 136,328.25 172.429,250.536 166.357,98.751 343.642,98.751 c 38.869,0 81.43,18.384 104.731,34.607 116.874,81.357 61.625,248.321 -75.589,205.517 z"
   id="path151" />
        
        <path
   style="fill:#1cccd9"
   d="M 495.426,413.249 H 268.433 C 242.935,402.664 232.851,365.455 246.5,310.035 c 15.166,-61.576 44.686,-94.762 88.642,-101.999 26.411,-4.347 46.895,4.299 59.973,12.945 -25.087,-13.418 -59.464,-4.238 -67.259,29.556 -8.998,38.929 -3.644,156.641 167.57,162.712 z"
   id="path155" />
      </g><g
     id="branding_wave_right"
     transform="matrix(-1.72,0,0,1.72,7743.0744,11996.75)"
     style="display:inline">
        <path
   style="fill:#4995ec"
   d="m 0,413.249 c 0,0 99.571,-7.286 135.999,-84.999 36.428,-77.713 30.357,-229.499 207.642,-229.499 38.871,0 81.438,18.386 104.731,34.602 116.875,81.362 61.625,248.326 -75.589,205.523 0,0 49.786,-2.125 49.786,-67.697 0,-65.572 -82.091,-75.285 -94.714,-20.643 -8.992,38.927 -3.643,156.643 167.571,162.713"
   id="path158" />
        <path
   style="fill:#7a5cff"
   d="m 372.784,338.875 c 42.5,0 125.678,-65.875 75.213,-144.378 C 412.71,139.6 316.321,128.5 247.714,197.107 179.179,265.642 219.7,398.411 0.644,413.201 9.193,412.412 101.283,402.321 136,328.25 172.429,250.536 166.357,98.751 343.642,98.751 c 38.869,0 81.43,18.384 104.731,34.607 116.874,81.357 61.625,248.321 -75.589,205.517 z"
   id="path160" />
        
        <path
   style="fill:#1cccd9"
   d="M 495.426,413.249 H 268.433 C 242.935,402.664 232.851,365.455 246.5,310.035 c 15.166,-61.576 44.686,-94.762 88.642,-101.999 26.411,-4.347 46.895,4.299 59.973,12.945 -25.087,-13.418 -59.464,-4.238 -67.259,29.556 -8.998,38.929 -3.644,156.641 167.57,162.712 z"
   id="path164" />
      </g></g><rect
   x="1096.182"
   y="1107.229"
   width="9973.2734"
   height="12667.627"
   rx="210"
   ry="210"
   fill="none"
   stroke="#ffffff"
   stroke-opacity="0.1"
   stroke-width="60"
   id="gray_outline"
   style="display:none;stroke:#3c3f42;stroke-opacity:1" />
      
    <path
   d="M 1397.1228,1952.2443 H 7648.7534"
   stroke="url(#accentGrad)"
   stroke-width="40.8777"
   stroke-linecap="round"
   opacity="0.55"
   fill="none"
   id="top_horizontal_line"
   style="display:inline;opacity:1;stroke:#5740bf;stroke-opacity:1" /></g><path
   d="m 3543.4534,11454.444 0.078,-1134.188"
   stroke="url(#accentGrad)"
   stroke-width="40.7084"
   stroke-linecap="round"
   opacity="0.55"
   fill="none"
   id="top_horizontal_line-7"
   style="display:inline;opacity:1;stroke:#5740bf;stroke-opacity:1"
   sodipodi:nodetypes="cc" /><rect
   x="57.409203"
   y="7794.9995"
   width="6965.585"
   height="4340.8599"
   rx="177.94052"
   ry="168.91539"
   fill="#000000"
   opacity="0.1"
   stroke="#ffffff"
   stroke-opacity="0.06"
   stroke-width="43.3423"
   id="frame_left"
   style="display:inline;opacity:0.33;fill:#5740bf;fill-opacity:1"
   inkscape:label="inputs" /><path
   d="m 1650.7542,11431.042 0.078,-1134.188"
   stroke="url(#accentGrad)"
   stroke-width="40.7084"
   stroke-linecap="round"
   opacity="0.55"
   fill="none"
   id="top_horizontal_line-7-7"
   style="display:inline;stroke:#5740bf;stroke-opacity:1"
   sodipodi:nodetypes="cc" /><path
   d="m 5450.7542,11413.942 0.078,-1134.188"
   stroke="url(#accentGrad)"
   stroke-width="40.7084"
   stroke-linecap="round"
   opacity="0.55"
   fill="none"
   id="top_horizontal_line-7-6"
   style="display:inline;stroke:#5740bf;stroke-opacity:1"
   sodipodi:nodetypes="cc" /><rect
   x="5935.083"
   y="10782.184"
   width="1086.963"
   height="1377.5045"
   rx="191.11729"
   ry="176.88857"
   fill="#000000"
   opacity="0.1"
   stroke="#ffffff"
   stroke-opacity="0.06"
   stroke-width="45.9663"
   id="outputs"
   style="display:none;opacity:1;fill:#000000;fill-opacity:0.5"
   inkscape:label="Out_Under_Black" /><rect
   x="4042.1721"
   y="10894.673"
   width="944.95349"
   height="1233.3535"
   rx="162.82544"
   ry="158.37775"
   fill="#000000"
   opacity="0.1"
   stroke="#ffffff"
   stroke-opacity="0.06"
   stroke-width="40.1465"
   id="outputs-3"
   style="display:inline;opacity:1;fill:#0c292d;fill-opacity:1;stroke:#0c292d;stroke-opacity:0.33"
   inkscape:label="outputs" />
    
    
    
    
    
    
  </g>
  <g
   id="panel_labels_reworked"
   inkscape:groupmode="layer"
   inkscape:label="Labels Reworked"
   style="display:inline"><text
   id="reworked_module_title_text"
   x="3541.4487"
   y="447.27814"
   style="font-style:normal;font-variant:normal;font-weight:normal;font-stretch:normal;font-size:529.167px;font-family:Rubik;-inkscape-font-specification:'Rubik, @wght=600';font-variant-ligatures:normal;font-variant-caps:normal;font-variant-numeric:normal;font-variant-east-asian:normal;font-variation-settings:'wght' 600;dominant-baseline:middle;text-anchor:middle;display:inline;fill:url(#linearGradient500);stroke-width:28.1347"
   xml:space="preserve"><tspan
     sodipodi:role="line"
     id="tspan1"
     x="3541.4487"
     y="447.27814"
     style="fill:url(#linearGradient500)">Bifurx</tspan></text><text
   id="reworked_LEVIATHAN_LOGO"
   x="3554.0957"
   y="12482.232"
   style="font-style:normal;font-variant:normal;font-weight:normal;font-stretch:normal;font-size:635px;font-family:Ancient;-inkscape-font-specification:'Ancient, Normal';font-variant-ligatures:normal;font-variant-caps:normal;font-variant-numeric:normal;font-variant-east-asian:normal;dominant-baseline:middle;text-anchor:middle;display:inline;fill:url(#linearGradient300);fill-rule:evenodd;stroke-width:37.088"
   xml:space="preserve"
   inkscape:label="reworked_LEVIATHAN_LOGO">Leviathan</text>
        
        
        
        
        
        
        
        
        
        
        
        
        
        
        
        
        
        
        
        
        
        
        
        
        
        
        
        
        
        
        
        
        <text
   id="reworked_module_description"
   x="3555.2595"
   y="815.19421"
   style="font-style:normal;font-variant:normal;font-weight:normal;font-stretch:normal;font-size:211.667px;font-family:Rubik;-inkscape-font-specification:'Rubik, @wght=400';font-variant-ligatures:normal;font-variant-caps:normal;font-variant-numeric:normal;font-variant-east-asian:normal;font-variation-settings:'wght' 400;dominant-baseline:middle;text-anchor:middle;display:inline;fill:#ffffff"
   xml:space="preserve"><tspan
     sodipodi:role="line"
     id="tspan2"
     x="3555.2595"
     y="815.19421">filter</tspan></text>
        <text
   id="signal_in"
   x="2591.3838"
   y="11995.578"
   style="font-style:normal;font-variant:normal;font-weight:normal;font-stretch:normal;font-size:282.223px;font-family:Rubik;-inkscape-font-specification:'Rubik, @wght=400';font-variant-ligatures:normal;font-variant-caps:normal;font-variant-numeric:normal;font-variant-east-asian:normal;font-variation-settings:'wght' 400;dominant-baseline:middle;text-anchor:middle;display:inline;fill:#ffffff"
   xml:space="preserve"><tspan
     sodipodi:role="line"
     id="tspan3"
     x="2591.3838"
     y="11995.578">In</tspan></text><text
   id="reso_cv_label"
   x="1634.9987"
   y="11995.578"
   style="font-style:normal;font-variant:normal;font-weight:normal;font-stretch:normal;font-size:282.223px;font-family:Rubik;-inkscape-font-specification:'Rubik, @wght=400';font-variant-ligatures:normal;font-variant-caps:normal;font-variant-numeric:normal;font-variant-east-asian:normal;font-variation-settings:'wght' 400;dominant-baseline:middle;text-anchor:middle;display:inline;fill:#ffffff"
   xml:space="preserve"><tspan
     sodipodi:role="line"
     id="tspan_reso"
     x="1634.9987"
     y="11995.578">Res</tspan></text><text
   id="fm_cv_label"
   x="679.99829"
   y="11995.578"
   style="font-style:normal;font-variant:normal;font-weight:normal;font-stretch:normal;font-size:282.223px;font-family:Rubik;-inkscape-font-specification:'Rubik, @wght=400';font-variant-ligatures:normal;font-variant-caps:normal;font-variant-numeric:normal;font-variant-east-asian:normal;font-variation-settings:'wght' 400;dominant-baseline:middle;text-anchor:middle;display:inline;fill:#ffffff"
   xml:space="preserve"><tspan
     sodipodi:role="line"
     id="tspan_fm"
     x="679.99829"
     y="11995.578">FM</tspan></text><text
   id="voct_label"
   x="3544.9988"
   y="11995.578"
   style="font-style:normal;font-variant:normal;font-weight:normal;font-stretch:normal;font-size:282.223px;font-family:Rubik;-inkscape-font-specification:'Rubik, @wght=400';font-variant-ligatures:normal;font-variant-caps:normal;font-variant-numeric:normal;font-variant-east-asian:normal;font-variation-settings:'wght' 400;dominant-baseline:middle;text-anchor:middle;display:inline;fill:#ffffff"
   xml:space="preserve"><tspan
     sodipodi:role="line"
     id="tspan_voct"
     x="3544.9988"
     y="11995.578">V/Oct</tspan></text><text
   id="span_cv_label"
   x="6409.9985"
   y="11995.578"
   style="font-style:normal;font-variant:normal;font-weight:normal;font-stretch:normal;font-size:282.223px;font-family:Rubik;-inkscape-font-specification:'Rubik, @wght=400';font-variant-ligatures:normal;font-variant-caps:normal;font-variant-numeric:normal;font-variant-east-asian:normal;font-variation-settings:'wght' 400;dominant-baseline:middle;text-anchor:middle;display:inline;fill:#ffffff"
   xml:space="preserve"><tspan
     sodipodi:role="line"
     id="tspan_span"
     x="6409.9985"
     y="11995.578">Span</tspan></text><text
   id="balance_cv_label"
   x="5454.9985"
   y="11995.578"
   style="font-style:normal;font-variant:normal;font-weight:normal;font-stretch:normal;font-size:282.223px;font-family:Rubik;-inkscape-font-specification:'Rubik, @wght=400';font-variant-ligatures:normal;font-variant-caps:normal;font-variant-numeric:normal;font-variant-east-asian:normal;font-variation-settings:'wght' 400;dominant-baseline:middle;text-anchor:middle;display:inline;fill:#ffffff"
   xml:space="preserve"><tspan
     sodipodi:role="line"
     id="tspan_bal"
     x="5454.9985"
     y="11995.578">Bal</tspan></text><text
   id="signal_out"
   x="4509.9985"
   y="11995.578"
   style="font-style:normal;font-variant:normal;font-weight:normal;font-stretch:normal;font-size:282.223px;font-family:Rubik;-inkscape-font-specification:'Rubik, @wght=400';font-variant-ligatures:normal;font-variant-caps:normal;font-variant-numeric:normal;font-variant-east-asian:normal;font-variation-settings:'wght' 400;dominant-baseline:middle;text-anchor:middle;display:inline;fill:#ffffff"
   xml:space="preserve"><tspan
     sodipodi:role="line"
     id="tspan_out"
     x="4509.9985"
     y="11995.578">Out</tspan></text><text
   id="signal_out-9"
   x="2548.5605"
   y="8145.9375"
   style="font-style:normal;font-variant:normal;font-weight:normal;font-stretch:normal;font-size:282.223px;font-family:Rubik;-inkscape-font-specification:'Rubik, @wght=400';font-variant-ligatures:normal;font-variant-caps:normal;font-variant-numeric:normal;font-variant-east-asian:normal;font-variation-settings:'wght' 400;dominant-baseline:middle;text-anchor:middle;display:inline;fill:#ffffff"
   xml:space="preserve"><tspan
     sodipodi:role="line"
     id="tspan13"
     x="2548.5605"
     y="8145.9375">SVF</tspan></text><text
   id="signal_out-7"
   x="3683.7473"
   y="8169.3232"
   style="font-style:normal;font-variant:normal;font-weight:normal;font-stretch:normal;font-size:282.223px;font-family:Rubik;-inkscape-font-specification:'Rubik, @wght=400';font-variant-ligatures:normal;font-variant-caps:normal;font-variant-numeric:normal;font-variant-east-asian:normal;font-variation-settings:'wght' 400;dominant-baseline:middle;text-anchor:middle;display:inline;fill:#ffffff"
   xml:space="preserve"><tspan
     sodipodi:role="line"
     id="tspan16"
     x="3683.7473"
     y="8169.3232">DFM</tspan></text><text
   id="signal_out-5"
   x="2549.2942"
   y="9106.7383"
   style="font-style:normal;font-variant:normal;font-weight:normal;font-stretch:normal;font-size:282.223px;font-family:Rubik;-inkscape-font-specification:'Rubik, @wght=400';font-variant-ligatures:normal;font-variant-caps:normal;font-variant-numeric:normal;font-variant-east-asian:normal;font-variation-settings:'wght' 400;dominant-baseline:middle;text-anchor:middle;display:inline;fill:#ffffff"
   xml:space="preserve"><tspan
     sodipodi:role="line"
     id="tspan14"
     x="2549.2942"
     y="9106.7383">PRD</tspan></text><text
   id="signal_out-59"
   x="3735.9302"
   y="9113.7539"
   style="font-style:normal;font-variant:normal;font-weight:normal;font-stretch:normal;font-size:282.223px;font-family:Rubik;-inkscape-font-specification:'Rubik, @wght=400';font-variant-ligatures:normal;font-variant-caps:normal;font-variant-numeric:normal;font-variant-east-asian:normal;font-variation-settings:'wght' 400;dominant-baseline:middle;text-anchor:middle;display:inline;fill:#ffffff"
   xml:space="preserve"><tspan
     sodipodi:role="line"
     id="tspan15"
     x="3735.9302"
     y="9113.7539">MS2</tspan></text>
      </g><g
   id="g13"
   inkscape:groupmode="layer"
   inkscape:label="Labels Reworked copy"
   style="display:none"><path
   d="m 2790.0316,584.86156 q -5.8209,0 -9.525,-3.70417 -3.7042,-3.70417 -3.7042,-9.52501 V 227.67384 q 0,-5.82084 3.7042,-9.52501 3.7041,-3.70417 9.525,-3.70417 h 157.1626 q 43.9208,0 71.9667,12.70001 28.0458,12.70001 41.275,35.98336 13.7583,23.28334 13.7583,54.5042 0,19.57917 -7.4083,34.39585 -6.8792,14.81668 -17.4625,24.34168 -10.0542,9.52501 -19.5792,14.28751 20.6375,9.52501 35.9834,31.75002 15.875,21.69585 15.875,51.85837 0,33.33752 -14.8167,58.20836 -14.8167,24.87085 -43.9209,38.6292 -29.1041,13.75834 -70.9083,13.75834 z m 70.9084,-61.91254 h 80.9625 q 25.9292,0 39.1584,-14.28751 13.2291,-14.81668 13.2291,-34.92502 0,-20.63751 -13.7583,-34.39586 -13.2292,-14.2875 -38.6292,-14.2875 H 2860.94 Z m 0,-158.7501 h 76.2 q 24.8708,0 37.0417,-12.17084 12.7,-12.70001 12.7,-32.27919 0,-19.57917 -12.7,-31.22085 -12.1709,-12.17084 -37.0417,-12.17084 h -76.2 z m 290.5125,220.66264 q -5.2917,0 -8.9959,-3.70417 -3.7041,-3.70417 -3.7041,-9.52501 V 322.9239 q 0,-5.82084 3.7041,-9.52501 3.7042,-3.70417 8.9959,-3.70417 h 52.9167 q 5.8208,0 9.525,3.70417 3.7041,3.70417 3.7041,9.52501 v 248.70848 q 0,5.82084 -3.7041,9.52501 -3.7042,3.70417 -9.525,3.70417 z m -1.5875,-317.5002 q -5.2917,0 -8.9959,-3.70417 -3.7041,-3.70417 -3.7041,-9.525 v -42.33336 q 0,-5.82084 3.7041,-9.52501 3.7042,-4.23333 8.9959,-4.23333 h 55.5625 q 5.8208,0 9.525,4.23333 4.2333,3.70417 4.2333,9.52501 v 42.33336 q 0,5.82083 -4.2333,9.525 -3.7042,3.70417 -9.525,3.70417 z m 177.271,317.5002 q -5.8208,0 -9.525,-3.70417 -3.7042,-3.70417 -3.7042,-9.52501 V 372.13643 h -41.275 q -5.8208,0 -9.525,-3.70417 -3.7042,-3.70417 -3.7042,-9.52501 V 322.9239 q 0,-5.82084 3.7042,-9.52501 3.7042,-3.70417 9.525,-3.70417 h 41.275 v -19.05001 q 0,-33.86669 12.7,-55.56253 12.7001,-21.69585 37.0417,-31.75002 24.3417,-10.05418 59.7959,-10.05418 h 38.6292 q 5.8208,0 9.525,3.70417 3.7042,3.70417 3.7042,9.52501 v 35.98335 q 0,5.82084 -3.7042,9.52501 -3.7042,3.70417 -9.525,3.70417 h -35.4542 q -19.5792,0 -27.5167,9.525 -7.4083,9.52501 -7.4083,28.04585 v 16.40418 h 65.0875 q 5.8209,0 9.525,3.70417 3.7042,3.70417 3.7042,9.52501 v 35.98335 q 0,5.82084 -3.7042,9.52501 -3.7041,3.70417 -9.525,3.70417 h -65.0875 v 199.49595 q 0,5.82084 -3.7042,9.52501 -3.7042,3.70417 -8.9958,3.70417 z m 284.1624,5.29167 q -30.6917,0 -54.5042,-13.75834 -23.2833,-14.28751 -36.5125,-40.74586 -12.7,-26.98752 -12.7,-65.08754 V 322.9239 q 0,-5.82084 3.7042,-9.52501 3.7041,-3.70417 8.9958,-3.70417 h 56.0917 q 5.8208,0 9.525,3.70417 3.7042,3.70417 3.7042,9.52501 v 144.46258 q 0,59.26671 51.8583,59.26671 24.8709,0 39.1584,-15.34584 14.8167,-15.87501 14.8167,-43.92087 V 322.9239 q 0,-5.82084 3.7041,-9.52501 3.7042,-3.70417 9.5251,-3.70417 h 56.0917 q 5.2916,0 8.9958,3.70417 3.7042,3.70417 3.7042,9.52501 v 248.70848 q 0,5.82084 -3.7042,9.52501 -3.7042,3.70417 -8.9958,3.70417 h -51.8584 q -5.8208,0 -9.525,-3.70417 -3.7042,-3.70417 -3.7042,-9.52501 v -20.63751 q -13.7583,19.05001 -35.4542,29.10418 -21.6958,10.05418 -52.9167,10.05418 z m 245.5338,-5.29167 q -5.2917,0 -8.9958,-3.70417 -3.7042,-3.70417 -3.7042,-9.52501 V 322.9239 q 0,-5.29167 3.7042,-8.99584 3.7041,-4.23334 8.9958,-4.23334 h 51.8584 q 5.2916,0 8.9958,4.23334 4.2333,3.70417 4.2333,8.99584 v 21.16668 q 13.2292,-16.40418 32.2792,-25.40002 19.5792,-8.99584 44.9792,-8.99584 h 22.7542 q 5.2917,0 8.9958,3.70417 3.7042,3.70417 3.7042,9.52501 v 45.50836 q 0,5.82083 -3.7042,9.525 -3.7041,3.70417 -8.9958,3.70417 h -46.5667 q -23.2833,0 -36.5125,13.22918 -13.2292,12.7 -13.2292,36.51252 v 140.22925 q 0,5.82084 -3.7042,9.52501 -3.7041,3.70417 -9.525,3.70417 z m 205.8456,0 q -4.7625,0 -8.4667,-3.175 -3.175,-3.70417 -3.175,-8.46668 0,-1.5875 0.5292,-3.70417 1.0583,-2.64583 2.6458,-4.7625 l 89.4292,-121.17924 -82.0209,-113.7709 q -1.5875,-2.11667 -2.6458,-4.23334 -0.5292,-2.11667 -0.5292,-4.23334 0,-4.7625 3.175,-7.9375 3.7042,-3.70417 8.4667,-3.70417 h 55.0334 q 6.35,0 9.525,3.175 3.7042,3.175 5.2917,5.82084 l 54.5042,74.08338 54.5042,-73.55421 q 2.1166,-2.64584 5.2916,-5.82084 3.175,-3.70417 10.0542,-3.70417 h 52.3875 q 4.7625,0 7.9375,3.70417 3.7042,3.175 3.7042,7.9375 0,2.11667 -0.5292,4.23334 -0.5291,2.11667 -2.6458,4.23334 l -83.6084,114.30007 90.4876,120.65007 q 1.5875,2.11667 2.1166,4.23334 1.0584,2.11667 1.0584,4.23333 0,4.76251 -3.7042,8.46668 -3.175,3.175 -7.9375,3.175 h -57.6792 q -5.8208,0 -8.9958,-2.64584 -3.175,-3.175 -5.2917,-5.82083 l -58.7375,-78.31672 -59.7959,78.31672 q -1.5875,2.11666 -4.7625,5.29167 -3.175,3.175 -9.525,3.175 z"
   id="text4"
   style="font-size:529.167px;font-family:Rubik;-inkscape-font-specification:'Rubik, @wght=600';font-variation-settings:'wght' 600;dominant-baseline:middle;text-anchor:middle;fill:url(#linearGradient500);stroke-width:28.1347"
   aria-label="Bifurx" /><path
   d="m 2758.4406,12319.99 -16.51,-15.24 10.795,-12.7 q -1.27,-1.27 -2.54,-1.905 -0.635,-0.635 -1.27,-1.905 l -3.81,-3.81 q -1.905,-1.27 -5.08,-2.54 -2.54,-1.905 -7.62,-6.35 -3.81,-1.905 -8.255,-4.445 -4.445,-3.175 -9.525,-6.985 h -1.905 l -1.27,-0.635 h -3.81 l -0.635,-0.635 q -21.59,0 -28.575,12.065 -6.35,8.255 -6.35,12.7 v 193.04 q 0,8.89 -4.445,19.05 -3.81,9.525 -10.795,18.415 -6.35,8.255 -14.605,15.24 -8.255,6.985 -17.145,10.795 v -0.635 q -3.175,2.54 -7.62,3.81 -4.445,0.635 -12.7,3.81 h 0.635 q -1.27,0.635 -2.54,0.635 -0.635,0 -1.27,0.635 -1.27,0 -2.54,0.635 -1.27,0 -2.54,0 -1.905,0.635 -5.08,0.635 h -9.525 q 8.89,-8.89 13.97,-18.415 5.08,-9.525 6.35,-20.955 v -3.175 q 0,-2.54 0.635,-5.715 0,-1.27 0,-1.905 0.635,-0.635 0.635,-1.905 v -176.53 q 0,-34.29 55.245,-69.85 50.8,-33.02 86.995,-33.02 h 2.54 q 10.795,0 41.275,12.065 19.05,9.525 26.035,21.59 z m 4.445,323.215 q -70.485,-29.845 -143.51,-29.845 -62.865,0 -110.49,21.59 -4.445,1.27 -10.795,4.445 -5.715,3.81 -12.7,6.985 13.97,-26.67 36.195,-45.72 22.225,-19.05 54.61,-31.75 55.245,-22.225 113.03,-22.225 38.1,0 66.675,9.525 v -117.475 q -10.795,-3.81 -10.795,-19.05 0,-8.89 6.985,-15.875 6.985,-7.62 15.875,-7.62 8.89,0 15.24,7.62 6.985,6.985 6.985,15.875 0,15.24 -11.43,20.32 v 122.555 q 1.27,1.27 6.985,2.54 l 2.54,1.905 h -1.27 q 2.54,1.27 3.175,1.905 v -0.635 l 1.27,0.635 0.635,0.635 2.54,1.27 8.89,-10.795 17.78,13.97 z m -175.26,-338.455 4.445,1.27 q -7.62,22.86 -7.62,24.765 l -1.27,178.435 v 1.27 q 0,9.525 -10.16,25.4 -27.305,43.815 -73.025,48.26 15.24,-24.765 15.24,-48.26 v -64.77 q -1.27,-1.27 -4.445,-1.905 -2.54,-1.27 -5.715,-3.81 h -1.905 q -6.985,0 -12.7,4.445 -5.715,4.445 -6.35,11.43 l 0.635,0.635 v 4.445 h -3.175 l -0.635,0.635 h -2.54 q -10.795,0 -19.685,-9.525 -8.255,-10.16 -8.89,-20.955 -0.635,-1.27 -0.635,-6.985 0,-34.925 38.1,-49.53 6.35,-1.27 12.7,-1.905 6.985,-1.27 15.24,-2.54 v -23.495 q 0,-8.89 0.635,-12.065 2.54,-17.78 29.21,-36.195 25.4,-19.685 43.815,-19.685 z m 55.245,-62.23 q -3.175,26.67 -30.48,43.815 -24.13,17.145 -50.8,17.145 -15.875,0 -34.925,-7.62 -4.445,0 -5.08,-1.27 -2.54,-1.27 -4.445,-1.905 -2.54,0 -3.81,-0.635 -3.81,-1.27 -9.525,-1.905 -5.715,-1.27 -7.62,-1.27 l -0.635,0.635 q -6.985,0 -9.525,1.905 -3.81,0 -8.255,4.445 -2.54,0.635 -7.62,4.445 -4.445,3.175 -11.43,8.89 v -6.35 q 0,-35.56 19.685,-57.15 19.685,-22.225 53.975,-22.225 10.795,0 22.86,3.175 12.7,2.54 27.305,7.62 29.21,10.795 41.91,10.795 1.905,0 4.445,-0.635 2.54,-0.635 6.35,-1.905 1.27,-1.27 4.445,-2.54 z m 391.1606,209.55 q -7.62,3.81 -30.48,17.145 -22.225,12.7 -60.96,35.56 -5.715,3.175 -12.7,8.255 v 47.625 q 19.685,3.175 36.195,8.255 17.145,5.08 31.75,12.065 l 15.24,-15.875 15.875,14.605 -57.785,63.5 -6.35,-3.175 q -13.335,-6.985 -26.035,-13.335 -12.7,-5.715 -29.21,-8.89 -27.94,-5.715 -48.26,-5.715 -7.62,0 -15.24,1.27 -7.62,0.635 -15.24,1.905 1.27,-3.175 2.54,-5.08 1.27,-2.54 2.54,-3.81 v 0.635 q 4.445,-6.985 6.985,-11.43 3.175,-4.445 3.81,-5.08 4.445,-5.715 17.145,-15.24 v -153.67 q 0,-9.525 -10.16,-31.75 v -8.89 l 5.715,5.715 h 3.81 l 0.635,0.635 h 1.905 l 1.905,0.635 h 2.54 q 50.165,0 113.03,-41.91 3.175,11.43 8.255,24.765 5.08,13.335 13.97,29.845 8.255,14.605 15.24,27.305 7.62,12.065 13.97,20.955 z m -99.06,-50.165 -5.08,1.27 v 81.28 l 34.29,-22.225 q -2.54,-3.81 -6.35,-9.525 -3.175,-6.35 -7.62,-15.875 -4.445,-8.255 -8.255,-17.145 -3.81,-8.89 -6.985,-17.78 z m 366.3946,-8.255 v 3.81 l -0.635,1.27 q 0,7.62 -6.35,15.24 -5.715,6.985 -16.51,15.24 v 155.575 q 0,5.715 1.905,8.255 l 8.255,20.32 -1.27,-0.635 v 3.81 q -15.24,0 -17.78,-0.635 h -3.81 q -13.335,0 -32.385,3.81 -19.05,4.445 -45.085,12.7 -36.195,11.43 -52.705,11.43 -17.78,0 -27.305,-3.81 -25.4,-9.525 -25.4,-48.26 v -161.29 q 0,-5.08 -7.62,-11.43 -7.62,-6.985 -13.335,-6.985 h -1.27 l -1.905,-0.635 h -4.445 l -1.27,-0.635 h -3.81 v -4.445 l 66.675,-53.34 q 20.32,4.445 31.75,27.305 3.175,5.715 3.175,13.97 v 175.895 q 0,13.97 10.795,22.225 10.795,7.62 26.67,7.62 22.225,0 22.225,-13.97 v -153.035 q -12.7,-3.81 -19.685,-14.605 l -8.89,5.715 -10.16,-15.875 68.58,-52.07 q 25.4,33.655 46.99,33.655 6.35,0 15.24,-5.715 v 8.255 z m 104.7747,248.92 q -10.16,-0.635 -20.32,-4.445 -10.16,-3.175 -19.05,-10.795 -19.05,-15.24 -19.05,-34.925 v -160.02 q -9.525,-0.635 -14.605,-11.43 l -8.89,5.08 -8.89,-12.7 1.905,-3.175 0.635,0.635 1.27,-1.27 1.27,-0.635 q 6.35,-5.715 13.97,-12.7 7.62,-7.62 20.32,-18.415 6.985,-4.445 17.145,-13.97 l 2.54,-1.905 q 1.905,-1.905 3.81,-3.81 v -7.62 q 26.035,36.83 45.72,36.83 4.445,0 20.32,-8.89 v 7.62 q -1.27,3.81 -1.27,8.89 -5.08,14.605 -13.335,24.13 -8.255,8.89 -17.145,12.7 v 135.255 q 0,3.81 3.175,10.16 5.715,12.065 26.035,12.065 6.985,0 16.51,-3.81 l 2.54,4.445 z m -17.145,-297.815 h -5.08 v -0.635 h -6.35 l -1.27,-0.635 q -24.13,0 -29.845,-19.685 l -10.16,5.08 -8.255,-13.97 q 5.08,-5.08 10.795,-7.62 5.715,-3.175 10.795,-5.715 l -1.27,1.27 q 1.905,-1.27 5.08,-3.81 3.81,-3.175 6.985,-5.715 4.445,-3.175 10.16,-7.62 6.35,-4.445 13.335,-9.525 16.51,24.13 34.29,24.13 3.175,-1.27 5.08,-1.27 2.54,-0.635 5.715,-1.905 h -0.635 l 1.27,-1.27 h 0.635 l 0.635,-0.635 h 0.635 l 0.635,-0.635 h 4.445 v 5.715 q 0,8.89 -4.445,17.145 -3.81,7.62 -10.795,13.97 -6.35,5.715 -15.24,9.525 -8.255,3.81 -17.145,3.81 z m 79.3745,247.015 q -1.27,1.905 -1.27,2.54 0.635,0 1.905,-1.905 z m 211.455,-26.67 v -189.23 q -53.34,-17.145 -105.41,-35.56 -49.53,29.21 -102.235,45.72 v 1.27 q 0,6.985 9.525,19.685 v 167.64 l -6.985,10.16 q -1.905,2.54 -3.81,4.445 l -1.905,3.175 q 52.705,6.35 111.125,63.5 l 42.545,-45.085 48.26,45.085 56.515,-64.135 -23.495,-3.175 q -17.145,-2.54 -24.13,-23.495 z m -74.295,18.415 q -22.225,-17.145 -53.34,-32.385 v -161.29 l -2.54,-1.905 v -0.635 q 3.81,0 55.88,22.86 z m 210.8199,46.99 q -33.02,-31.115 -64.135,-31.115 -14.605,0 -21.59,10.795 v -8.89 q 0,-1.905 5.08,-14.605 8.89,-19.05 24.13,-27.305 v -153.67 h -10.795 q -4.445,2.54 -10.16,3.81 -0.635,0.635 -5.715,1.905 l -0.635,1.27 h -1.27 l -6.985,3.81 v -4.445 q 0,-2.54 0.635,-3.81 v -1.905 l 0.635,-1.27 q 0,-2.54 0.635,-3.81 v -4.445 q 0,-1.905 0,-3.81 0.635,-1.905 1.27,-4.445 v -3.81 l -0.635,-1.905 v -5.715 q -2.54,-6.985 -2.54,-22.86 8.255,4.445 13.335,6.35 5.715,1.905 8.89,2.54 1.27,-0.635 8.255,-0.635 h 5.08 v -28.575 l -0.635,-1.27 v -6.985 q -0.635,-0.635 -1.27,-1.905 -0.635,-1.27 -1.27,-2.54 0,-1.905 -0.635,-3.175 v -0.635 q -1.27,-1.27 -1.27,-5.08 l 4.445,-1.27 0.635,1.27 h 3.175 v 0.635 q 35.56,0 67.31,-39.37 v 8.255 l -0.635,0.635 q -0.635,1.27 -1.27,3.81 0,2.54 -1.27,6.35 v 0.635 q 0,1.905 -0.635,3.175 -2.54,10.16 -2.54,15.24 v 50.8 h 19.685 l 1.27,0.635 q 10.16,0 22.225,-8.89 v 6.985 q -0.635,1.27 -0.635,3.81 -1.905,3.175 -1.905,15.875 h 0.635 q 0,13.335 3.175,35.56 l -6.985,-3.81 -0.635,-0.635 h -0.635 q -6.985,-2.54 -15.875,-3.81 -8.89,-1.905 -20.32,-2.54 v 146.05 q 4.445,4.445 10.16,4.445 l 1.905,0.635 q 1.905,0.635 2.54,1.27 1.905,1.905 3.81,1.905 0.635,0.635 1.27,1.27 1.27,0 1.905,0.635 h -0.635 q 1.905,1.27 4.445,3.81 3.175,1.905 6.985,3.81 l 6.35,-6.35 12.7,14.605 z m 327.025,-250.19 q 0,1.905 -0.635,5.08 -6.985,24.13 -22.225,33.02 l 0.635,165.1 v -0.635 q 5.08,14.605 13.97,26.035 v -0.635 l 1.27,1.27 v 0.635 l 1.27,1.27 -3.175,4.445 q -12.065,-6.35 -33.02,-6.35 -33.02,0 -34.925,10.795 l 4.445,4.445 h -3.81 q 1.27,1.905 4.445,5.08 3.81,3.175 8.89,7.62 31.115,25.4 31.115,51.435 0,24.13 -22.86,38.1 -8.89,5.715 -12.7,5.715 l -1.27,0.635 h -3.81 l -0.635,0.635 h -2.54 q -19.05,0 -26.67,-18.415 20.32,-7.62 20.32,-21.59 0,-11.43 -6.985,-19.685 -1.905,-0.635 -2.54,-6.35 l 0.635,0.635 q -12.065,-17.78 -12.065,-38.735 0,-14.605 7.62,-19.05 v -0.635 q 6.985,-6.985 6.985,-15.24 v -164.465 q -6.35,0 -17.78,-7.62 -12.7,-8.255 -15.24,-10.795 l -0.635,-0.635 -27.94,20.955 v 131.445 q 2.54,0.635 5.715,1.905 3.175,1.27 7.62,2.54 10.16,5.08 17.145,10.795 7.62,5.715 12.7,12.065 l -58.42,53.34 q -35.56,-34.29 -64.77,-34.29 h -3.175 q -1.27,0 -3.81,0.635 -2.54,0.635 -7.62,3.175 -3.175,1.27 -6.985,1.905 -3.81,0.635 -5.08,0.635 8.89,-34.925 40.005,-48.26 v -266.065 q 0,-12.065 -12.065,-38.1 18.415,0 36.83,-7.62 18.415,-7.62 38.735,-22.225 1.27,-0.635 13.97,-11.43 l -0.635,0.635 5.08,0.635 q -1.27,3.81 -3.175,8.255 -1.27,4.445 -1.905,6.35 l -1.905,3.81 q -2.54,5.08 -5.08,19.05 -0.635,0.635 -0.635,1.27 v 0.635 q -1.27,6.985 -1.905,11.43 -0.635,4.445 -0.635,6.35 v 119.38 l 80.01,-60.96 q 17.145,34.925 36.195,34.925 0.635,0.635 3.81,0.635 8.255,0 31.75,-14.605 v 8.89 q 0,1.905 -0.635,3.175 0,1.27 -0.635,3.175 -0.635,1.905 -0.635,4.445 z m 10.1604,211.455 q -1.27,1.905 -1.27,2.54 0.635,0 1.905,-1.905 z m 211.455,-26.67 v -189.23 q -53.34,-17.145 -105.41,-35.56 -49.53,29.21 -102.235,45.72 v 1.27 q 0,6.985 9.525,19.685 v 167.64 l -6.985,10.16 q -1.905,2.54 -3.81,4.445 l -1.905,3.175 q 52.705,6.35 111.125,63.5 l 42.545,-45.085 48.26,45.085 56.515,-64.135 -23.495,-3.175 q -17.145,-2.54 -24.13,-23.495 z m -74.295,18.415 q -22.225,-17.145 -53.34,-32.385 v -161.29 l -2.54,-1.905 v -0.635 q 3.81,0 55.88,22.86 z m 353.06,-194.945 q 1.905,0.635 1.905,3.81 0,5.08 -7.62,19.05 v 184.15 h 24.765 q -6.35,0 -57.785,59.055 -2.54,-10.795 -57.15,-62.865 h 14.605 v -176.53 l -24.765,-20.955 -32.385,24.765 v 173.99 h 27.305 q -41.91,24.765 -56.515,46.99 -11.43,16.51 -12.7,16.51 -0.635,0 -0.635,-0.635 l 0.635,-1.27 q -5.715,-25.4 -59.055,-56.515 l -1.27,-3.81 h 24.765 v -165.1 q -8.89,-34.925 -29.845,-36.195 l 55.88,-41.91 q 40.64,23.495 46.99,33.655 14.605,-1.27 65.405,-34.925 l 8.255,-6.35 q 43.18,34.29 69.215,45.085 z"
   id="text5"
   style="font-size:635px;font-family:Ancient;-inkscape-font-specification:'Ancient, Normal';dominant-baseline:middle;text-anchor:middle;fill:url(#linearGradient300);stroke-width:37.088"
   inkscape:label="reworked_LEVIATHAN_LOGO"
   aria-label="Leviathan" />
        
        
        
        
        
        
        
        
        
        
        
        
        
        
        
        
        
        
        
        
        
        
        
        
        
        
        
        
        
        
        
        
        <path
   d="m 3362.1135,870.22763 q -2.1167,0 -3.5984,-1.27 -1.27,-1.48167 -1.27,-3.59834 v -88.26514 h -17.9917 q -2.1166,0 -3.5983,-1.27 -1.27,-1.48167 -1.27,-3.59834 v -7.19668 q 0,-2.11667 1.27,-3.38667 1.4817,-1.48167 3.5983,-1.48167 h 17.9917 v -10.58335 q 0,-10.79502 3.5984,-18.83836 3.5983,-8.25502 11.43,-12.70002 8.0433,-4.44501 21.3783,-4.44501 h 32.5968 q 2.1166,0 3.3866,1.48167 1.4817,1.27 1.4817,3.38667 v 7.19668 q 0,2.11667 -1.4817,3.59834 -1.27,1.27 -3.3866,1.27 h -32.1734 q -9.9484,0 -13.5467,5.29167 -3.5983,5.08001 -3.5983,14.8167 v 9.52501 h 49.3184 q 2.1166,0 3.3866,1.48167 1.4817,1.27 1.4817,3.38667 v 100.33016 q 0,2.11667 -1.4817,3.59834 -1.27,1.27 -3.3866,1.27 h -9.7367 q -2.3284,0 -3.5984,-1.27 -1.27,-1.48167 -1.27,-3.59834 v -88.26514 h -34.7133 v 88.26514 q 0,2.11667 -1.4817,3.59834 -1.27,1.27 -3.3867,1.27 z m 105.4101,0 q -2.1167,0 -3.5984,-1.27 -1.27,-1.48167 -1.27,-3.59834 V 724.8124 q 0,-2.11667 1.27,-3.38667 1.4817,-1.48167 3.5984,-1.48167 h 9.9483 q 2.3284,0 3.5984,1.48167 1.27,1.27 1.27,3.38667 v 140.54689 q 0,2.11667 -1.27,3.59834 -1.27,1.27 -3.5984,1.27 z m 89.3235,0 q -11.8534,0 -19.2617,-4.445 -7.4084,-4.65668 -10.795,-12.91169 -3.3867,-8.46668 -3.3867,-19.8967 v -55.88009 h -16.51 q -2.1167,0 -3.5984,-1.27 -1.27,-1.48167 -1.27,-3.59834 v -7.19668 q 0,-2.11667 1.27,-3.38667 1.4817,-1.48167 3.5984,-1.48167 h 16.51 V 724.8124 q 0,-2.11667 1.27,-3.38667 1.4817,-1.48167 3.5983,-1.48167 h 9.9484 q 2.1166,0 3.3866,1.48167 1.4817,1.27 1.4817,3.38667 v 35.34839 h 26.2467 q 2.1167,0 3.3867,1.48167 1.4817,1.27 1.4817,3.38667 v 7.19668 q 0,2.11667 -1.4817,3.59834 -1.27,1.27 -3.3867,1.27 h -26.2467 v 54.39842 q 0,9.94835 3.3867,15.66336 3.3867,5.71501 12.065,5.71501 h 12.9117 q 2.1167,0 3.3867,1.48167 1.4816,1.27 1.4816,3.38667 v 7.62001 q 0,2.11667 -1.4816,3.59834 -1.27,1.27 -3.3867,1.27 z m 83.6086,2.11667 q -21.8017,0 -34.7134,-13.33502 -12.9117,-13.54669 -14.1817,-36.83006 -0.2116,-2.75167 -0.2116,-6.98501 0,-4.445 0.2116,-7.19668 0.8467,-15.02835 6.985,-26.2467 6.1384,-11.43002 16.7217,-17.56837 10.795,-6.13834 25.1884,-6.13834 16.0867,0 26.8817,6.77334 11.0067,6.77335 16.7217,19.2617 5.715,12.48836 5.715,29.21005 v 3.59834 q 0,2.32834 -1.4817,3.59834 -1.27,1.27 -3.3866,1.27 h -73.2368 q 0,0.21167 0,0.84667 0,0.635 0,1.05833 0.4233,8.67835 3.81,16.29836 3.3867,7.40835 9.7367,12.06502 6.35,4.65668 15.24,4.65668 7.62,0 12.7,-2.32834 5.08,-2.32834 8.255,-5.08001 3.175,-2.96334 4.2334,-4.44501 1.905,-2.75167 2.9633,-3.175 1.0583,-0.635 3.3867,-0.635 h 10.16 q 2.1167,0 3.3867,1.27 1.4816,1.05833 1.27,3.175 -0.2117,3.17501 -3.3867,7.83168 -3.175,4.44501 -9.1017,8.89002 -5.9267,4.44501 -14.3933,7.40834 -8.4667,2.75167 -19.4734,2.75167 z m -28.7867,-65.19343 h 57.9967 v -0.635 q 0,-9.52502 -3.5983,-16.93337 -3.3867,-7.40834 -9.9483,-11.64168 -6.5617,-4.44501 -15.6634,-4.44501 -9.1017,0 -15.6634,4.44501 -6.35,4.23334 -9.7366,11.64168 -3.3867,7.40835 -3.3867,16.93337 z m 108.3734,63.07676 q -2.1167,0 -3.5984,-1.27 -1.27,-1.48167 -1.27,-3.59834 V 765.2408 q 0,-2.11667 1.27,-3.59834 1.4817,-1.48167 3.5984,-1.48167 h 9.7367 q 2.1166,0 3.5983,1.48167 1.4817,1.48167 1.4817,3.59834 v 9.31335 q 4.2333,-7.19668 11.6417,-10.79502 7.4083,-3.59834 17.78,-3.59834 h 8.4667 q 2.1166,0 3.3866,1.48167 1.27,1.27 1.27,3.38667 v 8.67835 q 0,2.11667 -1.27,3.38667 -1.27,1.27 -3.3866,1.27 h -12.7 q -11.4301,0 -17.9917,6.77335 -6.5617,6.56167 -6.5617,17.99169 v 62.2301 q 0,2.11667 -1.4817,3.59834 -1.4817,1.27 -3.5983,1.27 z"
   id="text6"
   style="font-size:211.667px;font-family:Rubik;-inkscape-font-specification:'Rubik, @wght=400';font-variation-settings:'wght' 400;dominant-baseline:middle;text-anchor:middle;fill:#ffffff"
   aria-label="filter" />
        <path
   d="m 2498.3911,12068.956 q -3.1045,0 -4.7978,-1.693 -1.6933,-1.976 -1.6933,-4.798 v -184.574 q 0,-2.822 1.6933,-4.515 1.6933,-1.976 4.7978,-1.976 h 14.9578 q 2.8222,0 4.5156,1.976 1.9755,1.693 1.9755,4.515 v 184.574 q 0,2.822 -1.9755,4.798 -1.6934,1.693 -4.5156,1.693 z m 73.3782,0 q -2.8223,0 -4.7978,-1.693 -1.6934,-1.976 -1.6934,-4.798 v -133.774 q 0,-2.822 1.6934,-4.515 1.9755,-1.976 4.7978,-1.976 h 13.2644 q 2.8223,0 4.5156,1.976 1.9756,1.693 1.9756,4.515 v 12.418 q 7.3378,-9.595 18.3445,-15.522 11.2889,-6.209 28.7867,-6.209 18.3445,0 31.0445,8.184 12.9823,7.903 19.4734,22.296 6.4912,14.111 6.4912,33.02 v 79.587 q 0,2.822 -1.6934,4.798 -1.6933,1.693 -4.5155,1.693 h -14.1112 q -2.8222,0 -4.7978,-1.693 -1.6933,-1.976 -1.6933,-4.798 v -78.176 q 0,-19.755 -9.5956,-30.762 -9.5956,-11.289 -28.2223,-11.289 -17.4978,0 -28.2223,11.289 -10.4423,11.007 -10.4423,30.762 v 78.176 q 0,2.822 -1.9755,4.798 -1.6934,1.693 -4.5156,1.693 z"
   id="text7"
   style="font-size:282.223px;font-family:Rubik;-inkscape-font-specification:'Rubik, @wght=400';font-variation-settings:'wght' 400;dominant-baseline:middle;text-anchor:middle;fill:#ffffff"
   aria-label="In" /><path
   d="m 1423.4989,12068.956 q -3.1044,0 -4.7978,-1.693 -1.6933,-1.976 -1.6933,-4.798 v -184.292 q 0,-3.104 1.6933,-4.797 1.6934,-1.976 4.7978,-1.976 h 68.8624 q 31.8912,0 50.5179,14.958 18.6268,14.958 18.6268,44.309 0,21.731 -11.0067,35.56 -10.7245,13.547 -29.3512,18.909 l 43.4623,75.071 q 0.8467,1.694 0.8467,3.105 0,2.257 -1.9756,3.951 -1.6933,1.693 -3.9511,1.693 h -13.5467 q -4.7978,0 -7.0556,-2.54 -2.2578,-2.54 -3.9511,-5.08 l -40.9223,-71.685 h -49.3891 v 72.814 q 0,2.822 -1.9755,4.798 -1.6934,1.693 -4.7978,1.693 z m 21.1667,-103.294 h 46.5668 q 21.1668,0 31.609,-8.748 10.4423,-9.032 10.4423,-26.529 0,-17.216 -10.4423,-26.247 -10.16,-9.031 -31.609,-9.031 h -46.5668 z m 210.2035,106.116 q -29.069,0 -46.2846,-17.78 -17.2156,-18.062 -18.9089,-49.107 -0.2823,-3.668 -0.2823,-9.313 0,-5.927 0.2823,-9.595 1.1288,-20.038 9.3133,-34.996 8.1845,-15.24 22.2956,-23.425 14.3934,-8.184 33.5846,-8.184 21.4489,0 35.8423,9.031 14.6756,9.031 22.2956,25.682 7.62,16.651 7.62,38.947 v 4.798 q 0,3.104 -1.9755,4.798 -1.6934,1.693 -4.5156,1.693 h -97.6492 q 0,0.282 0,1.129 0,0.847 0,1.411 0.5645,11.571 5.0801,21.731 4.5155,9.878 12.9822,16.087 8.4667,6.209 20.3201,6.209 10.16,0 16.9333,-3.105 6.7734,-3.104 11.0067,-6.773 4.2334,-3.951 5.6445,-5.927 2.54,-3.669 3.9511,-4.233 1.4111,-0.847 4.5156,-0.847 h 13.5467 q 2.8222,0 4.5156,1.694 1.9755,1.411 1.6933,4.233 -0.2822,4.233 -4.5156,10.442 -4.2333,5.927 -12.1356,11.854 -7.9022,5.926 -19.1911,9.877 -11.2889,3.669 -25.9645,3.669 z m -38.3824,-86.924 h 77.3291 v -0.847 q 0,-12.7 -4.7977,-22.578 -4.5156,-9.878 -13.2645,-15.522 -8.7489,-5.927 -20.8845,-5.927 -12.1356,0 -20.8845,5.927 -8.4667,5.644 -12.9823,15.522 -4.5156,9.878 -4.5156,22.578 z m 188.8071,86.924 q -15.8045,0 -27.0935,-3.951 -11.2889,-3.951 -18.3444,-9.595 -7.0556,-5.645 -10.7245,-11.289 -3.3867,-5.645 -3.6689,-9.031 -0.2822,-3.105 1.9755,-4.798 2.2578,-1.694 4.5156,-1.694 h 12.4178 q 1.6934,0 2.54,0.565 1.1289,0.282 2.8223,2.258 3.6689,3.951 8.1844,7.902 4.5156,3.951 11.0067,6.491 6.7734,2.54 16.6512,2.54 14.3934,0 23.7067,-5.362 9.3134,-5.645 9.3134,-16.369 0,-7.056 -3.9512,-11.289 -3.6689,-4.233 -13.5467,-7.62 -9.5955,-3.387 -26.5289,-7.056 -16.9334,-3.951 -26.8112,-9.595 -9.8778,-5.927 -14.1112,-13.829 -4.2333,-8.185 -4.2333,-18.345 0,-10.442 6.2089,-20.037 6.2089,-9.878 18.0623,-16.087 12.1356,-6.209 30.1978,-6.209 14.6756,0 25.1179,3.669 10.4422,3.669 17.2156,9.313 6.7733,5.362 10.16,10.725 3.3867,5.362 3.6689,9.031 0.2822,2.822 -1.6933,4.798 -1.9756,1.693 -4.5156,1.693 h -11.8534 q -1.9755,0 -3.3866,-0.847 -1.1289,-0.846 -2.2578,-1.975 -2.8222,-3.669 -6.7734,-7.338 -3.6689,-3.669 -9.8778,-5.927 -5.9267,-2.54 -15.8045,-2.54 -14.1111,0 -21.1667,5.927 -7.0556,5.927 -7.0556,14.958 0,5.362 3.1045,9.595 3.1044,4.234 11.8534,7.62 8.7489,3.387 25.9645,7.338 18.6267,3.669 29.3512,9.878 10.7244,6.209 15.24,14.393 4.5156,8.185 4.5156,18.909 0,11.854 -7.0556,21.731 -6.7734,9.878 -20.3201,15.805 -13.2644,5.644 -33.02,5.644 z"
   id="text8"
   style="font-size:282.223px;font-family:Rubik;-inkscape-font-specification:'Rubik, @wght=400';font-variation-settings:'wght' 400;dominant-baseline:middle;text-anchor:middle;fill:#ffffff"
   aria-label="Res" /><path
   d="m 516.59114,12068.956 q -3.10445,0 -4.79779,-1.693 -1.69334,-1.976 -1.69334,-4.798 v -184.292 q 0,-3.104 1.69334,-4.797 1.69334,-1.976 4.79779,-1.976 h 115.14698 q 3.10446,0 4.79779,1.976 1.69334,1.693 1.69334,4.797 v 11.289 q 0,3.105 -1.69334,4.798 -1.69333,1.693 -4.79779,1.693 h -94.26248 v 65.758 h 88.61802 q 3.10446,0 4.79779,1.976 1.69334,1.693 1.69334,4.798 v 11.289 q 0,2.822 -1.69334,4.797 -1.69333,1.694 -4.79779,1.694 h -88.61802 v 76.2 q 0,2.822 -1.97556,4.798 -1.69334,1.693 -4.79779,1.693 z m 164.81813,0 q -2.82223,0 -4.79779,-1.693 -1.69334,-1.976 -1.69334,-4.798 v -184.292 q 0,-3.104 1.69334,-4.797 1.97556,-1.976 4.79779,-1.976 h 14.11115 q 3.38668,0 5.08002,1.693 1.69333,1.694 1.97556,2.823 l 59.83127,114.018 60.1135,-114.018 q 0.56444,-1.129 1.97556,-2.823 1.69334,-1.693 5.08001,-1.693 h 13.82893 q 3.10445,0 4.79779,1.976 1.97556,1.693 1.97556,4.797 v 184.292 q 0,2.822 -1.97556,4.798 -1.69334,1.693 -4.79779,1.693 h -13.82893 q -2.82223,0 -4.79779,-1.693 -1.69334,-1.976 -1.69334,-4.798 v -138.854 l -47.13124,92.005 q -1.12889,2.822 -3.38667,4.516 -2.25778,1.411 -5.64446,1.411 h -8.74891 q -3.6689,0 -5.92669,-1.411 -1.97556,-1.694 -3.38667,-4.516 l -47.13124,-92.005 v 138.854 q 0,2.822 -1.97556,4.798 -1.69334,1.693 -4.51557,1.693 z"
   id="text9"
   style="font-size:282.223px;font-family:Rubik;-inkscape-font-specification:'Rubik, @wght=400';font-variation-settings:'wght' 400;dominant-baseline:middle;text-anchor:middle;fill:#ffffff"
   aria-label="FM" /><path
   d="m 3252.104,12068.956 q -4.2333,0 -6.7733,-1.975 -2.2578,-1.976 -3.6689,-5.363 l -62.9358,-181.469 q -0.5644,-1.693 -0.5644,-3.105 0,-2.257 1.6933,-3.951 1.6934,-1.693 3.9512,-1.693 h 14.6755 q 3.3867,0 5.0801,1.976 1.9755,1.693 2.2577,3.104 l 55.3158,160.02 55.3157,-160.02 q 0.5644,-1.411 2.2577,-3.104 1.6934,-1.976 5.0801,-1.976 h 14.6756 q 2.2577,0 3.9511,1.693 1.9755,1.694 1.9755,3.951 0,1.412 -0.5644,3.105 l -63.218,181.469 q -1.1289,3.387 -3.6689,5.363 -2.2577,1.975 -6.4911,1.975 z m 94.5624,23.707 q -2.2578,0 -3.9511,-1.694 -1.6934,-1.693 -1.6934,-3.951 0,-1.411 0.8467,-3.386 l 96.5203,-231.423 q 0.8466,-1.693 2.2577,-3.387 1.6934,-1.693 5.0801,-1.693 h 11.0066 q 2.2578,0 3.9512,1.693 1.6933,1.694 1.6933,3.951 0,1.129 -0.5644,3.387 l -96.8025,231.423 q -0.5645,1.411 -2.54,3.104 -1.6934,1.976 -4.7978,1.976 z m 212.6728,-20.885 q -23.9889,0 -41.2045,-8.184 -17.2156,-8.467 -26.529,-25.682 -9.3134,-17.498 -10.4423,-43.745 -0.2822,-12.418 -0.2822,-23.707 0,-11.571 0.2822,-23.989 1.1289,-25.964 10.7245,-43.18 9.8778,-17.498 27.0934,-25.964 17.4979,-8.749 40.3579,-8.749 23.1423,0 40.3579,8.749 17.4978,8.466 27.3756,25.964 9.8778,17.216 10.7245,43.18 0.5645,12.418 0.5645,23.989 0,11.289 -0.5645,23.707 -0.8467,26.247 -10.4422,43.745 -9.3134,17.215 -26.529,25.682 -17.2156,8.184 -41.4868,8.184 z m 0,-23.989 q 21.7312,0 35.2779,-12.982 13.8289,-12.982 14.9578,-42.051 0.5645,-12.7 0.5645,-22.578 0,-10.16 -0.5645,-22.578 -0.5644,-19.473 -7.3378,-31.609 -6.4911,-12.135 -17.4978,-17.78 -11.0067,-5.644 -25.4001,-5.644 -13.8289,0 -24.8356,5.644 -11.0067,5.645 -17.7801,17.78 -6.4911,12.136 -7.3378,31.609 -0.2822,12.418 -0.2822,22.578 0,9.878 0.2822,22.578 1.1289,29.069 14.9579,42.051 13.8289,12.982 34.9956,12.982 z m 175.8249,23.989 q -20.0378,0 -34.7134,-7.62 -14.3934,-7.902 -22.2956,-22.295 -7.9022,-14.676 -8.4667,-34.996 -0.2822,-4.233 -0.2822,-11.289 0,-7.055 0.2822,-11.289 0.5645,-20.32 8.4667,-34.713 7.9022,-14.676 22.2956,-22.296 14.6756,-7.902 34.7134,-7.902 16.369,0 27.9401,4.515 11.8534,4.516 19.4734,11.572 7.62,7.055 11.2889,15.24 3.9511,8.184 4.2334,15.522 0.2822,2.822 -1.6934,4.515 -1.9755,1.694 -4.7978,1.694 h -13.5467 q -2.8222,0 -4.2333,-1.129 -1.4111,-1.411 -2.8222,-4.516 -5.0801,-13.829 -13.829,-19.473 -8.7489,-5.644 -21.7311,-5.644 -16.9334,0 -27.6579,10.442 -10.4422,10.442 -11.2889,33.584 -0.2822,10.16 0,19.756 0.8467,23.424 11.2889,33.867 10.7245,10.16 27.6579,10.16 12.9822,0 21.7311,-5.645 8.7489,-5.644 13.829,-19.473 1.4111,-3.105 2.8222,-4.233 1.4111,-1.412 4.2333,-1.412 h 13.5467 q 2.8223,0 4.7978,1.694 1.9756,1.693 1.6934,4.515 -0.2823,5.927 -2.54,12.136 -2.2578,6.209 -7.3378,12.7 -4.7978,6.209 -12.1356,11.289 -7.3378,4.798 -17.7801,7.902 -10.16,2.822 -23.1423,2.822 z m 153.8116,-2.822 q -15.8045,0 -25.6823,-5.927 -9.8778,-6.208 -14.3934,-17.215 -4.5156,-11.289 -4.5156,-26.529 v -74.507 h -22.0134 q -2.8222,0 -4.7978,-1.693 -1.6933,-1.976 -1.6933,-4.798 v -9.596 q 0,-2.822 1.6933,-4.515 1.9756,-1.976 4.7978,-1.976 h 22.0134 v -47.131 q 0,-2.822 1.6934,-4.516 1.9755,-1.975 4.7978,-1.975 h 13.2644 q 2.8223,0 4.5156,1.975 1.9756,1.694 1.9756,4.516 v 47.131 h 34.9956 q 2.8222,0 4.5156,1.976 1.9755,1.693 1.9755,4.515 v 9.596 q 0,2.822 -1.9755,4.798 -1.6934,1.693 -4.5156,1.693 h -34.9956 v 72.531 q 0,13.265 4.5155,20.885 4.5156,7.62 16.0867,7.62 h 17.2156 q 2.8223,0 4.5156,1.975 1.9756,1.694 1.9756,4.516 v 10.16 q 0,2.822 -1.9756,4.798 -1.6933,1.693 -4.5156,1.693 z"
   id="text10"
   style="font-size:282.223px;font-family:Rubik;-inkscape-font-specification:'Rubik, @wght=400';font-variation-settings:'wght' 400;dominant-baseline:middle;text-anchor:middle;fill:#ffffff"
   aria-label="V/Oct" /><path
   d="m 6162.771,12071.778 q -24.5534,0 -41.2046,-7.337 -16.6511,-7.62 -25.6822,-19.474 -8.749,-12.135 -9.3134,-25.682 0,-2.258 1.6933,-3.951 1.9756,-1.976 4.5156,-1.976 h 14.3934 q 3.3866,0 5.08,1.694 1.6933,1.693 2.2578,3.951 1.4111,6.773 6.7733,13.546 5.6445,6.491 15.5223,11.007 10.16,4.233 25.9645,4.233 24.2712,0 35.5601,-8.466 11.5711,-8.749 11.5711,-23.143 0,-9.877 -6.2089,-15.804 -5.9266,-6.209 -18.3445,-11.007 -12.4178,-4.798 -32.1734,-10.442 -20.6023,-5.927 -34.149,-12.982 -13.5467,-7.056 -20.32,-17.498 -6.4911,-10.442 -6.4911,-26.529 0,-15.24 8.1844,-27.093 8.1845,-12.136 23.4245,-19.192 15.5223,-7.055 37.5357,-7.055 17.4978,0 30.4801,4.798 13.2645,4.515 22.0134,12.417 8.7489,7.62 13.2644,16.652 4.5156,8.748 4.7978,17.215 0,1.976 -1.4111,3.951 -1.4111,1.694 -4.5155,1.694 h -14.9579 q -1.9755,0 -4.2333,-1.129 -1.9756,-1.129 -3.1045,-4.234 -1.6933,-11.571 -12.9822,-19.473 -11.2889,-7.902 -29.3512,-7.902 -18.3445,0 -29.9156,7.055 -11.289,7.056 -11.289,22.014 0,9.595 5.3623,16.086 5.3622,6.209 16.9333,11.007 11.5712,4.798 30.1979,10.16 22.5778,6.209 36.9712,13.265 14.3934,6.773 21.1667,17.215 7.0556,10.16 7.0556,26.247 0,17.78 -9.3133,30.48 -9.3134,12.418 -26.2468,19.191 -16.6511,6.491 -39.5112,6.491 z m 115.1469,50.8 q -2.8222,0 -4.7978,-1.975 -1.6933,-1.693 -1.6933,-4.516 v -187.396 q 0,-2.822 1.6933,-4.515 1.9756,-1.976 4.7978,-1.976 h 12.9823 q 2.8222,0 4.5155,1.976 1.9756,1.693 1.9756,4.515 v 12.418 q 6.7734,-9.313 18.0623,-15.522 11.2889,-6.209 28.2223,-6.209 15.8045,0 26.8112,5.362 11.2889,5.362 18.3445,14.676 7.3377,9.313 11.0066,21.166 3.6689,11.854 3.9512,25.401 0.2822,4.515 0.2822,9.595 0,5.08 -0.2822,9.596 -0.2823,13.264 -3.9512,25.4 -3.6689,11.853 -11.0066,21.166 -7.0556,9.032 -18.3445,14.676 -11.0067,5.362 -26.8112,5.362 -16.369,0 -27.6579,-5.926 -11.0067,-6.209 -18.0623,-15.24 v 65.475 q 0,2.823 -1.6933,4.516 -1.6933,1.975 -4.7978,1.975 z m 59.8313,-73.66 q 14.6756,0 22.8601,-6.209 8.4666,-6.491 12.1355,-16.651 3.6689,-10.442 4.2334,-22.295 0.2822,-8.185 0,-16.369 -0.5645,-11.854 -4.2334,-22.014 -3.6689,-10.442 -12.1355,-16.651 -8.1845,-6.491 -22.8601,-6.491 -13.8289,0 -22.5778,6.491 -8.4667,6.491 -12.7001,16.651 -3.9511,9.878 -4.5156,20.32 -0.2822,4.516 -0.2822,10.725 0,6.209 0.2822,11.006 0.2823,9.878 4.5156,19.474 4.5156,9.595 13.2645,15.804 8.7489,6.209 22.0134,6.209 z m 142.5228,22.86 q -14.1111,0 -25.6823,-5.644 -11.5711,-5.645 -18.6267,-15.24 -7.0556,-9.596 -7.0556,-21.731 0,-19.474 15.8045,-31.045 15.8045,-11.571 41.2046,-15.24 l 42.0512,-5.927 v -8.184 q 0,-13.547 -7.9023,-21.167 -7.62,-7.62 -25.1178,-7.62 -12.7,0 -20.6023,5.08 -7.62,5.08 -10.7245,12.982 -1.6933,4.234 -5.9266,4.234 h -12.7001 q -3.1044,0 -4.7978,-1.694 -1.4111,-1.975 -1.4111,-4.515 0,-4.233 3.1045,-10.442 3.3867,-6.209 10.16,-12.136 6.7734,-5.927 17.2156,-9.878 10.7245,-4.233 25.9645,-4.233 16.9334,0 28.5045,4.515 11.5712,4.234 18.0623,11.572 6.7734,7.337 9.5956,16.651 3.1045,9.313 3.1045,18.909 v 91.44 q 0,2.822 -1.9756,4.798 -1.6933,1.693 -4.5156,1.693 h -12.9822 q -3.1045,0 -4.7978,-1.693 -1.6934,-1.976 -1.6934,-4.798 v -12.136 q -3.6689,5.08 -9.8778,10.16 -6.2089,4.798 -15.5222,8.185 -9.3134,3.104 -22.8601,3.104 z m 5.9267,-21.166 q 11.5711,0 21.1667,-4.798 9.5956,-5.08 14.9578,-15.522 5.6445,-10.443 5.6445,-26.247 v -7.902 l -32.7379,4.797 q -20.0378,2.823 -30.1978,9.596 -10.1601,6.491 -10.1601,16.651 0,7.902 4.5156,13.265 4.7978,5.08 11.8534,7.62 7.3378,2.54 14.9578,2.54 z m 115.4292,18.344 q -2.8222,0 -4.7978,-1.693 -1.6933,-1.976 -1.6933,-4.798 v -133.774 q 0,-2.822 1.6933,-4.515 1.9756,-1.976 4.7978,-1.976 h 13.2645 q 2.8222,0 4.5156,1.976 1.9755,1.693 1.9755,4.515 v 12.418 q 7.3378,-9.595 18.3445,-15.522 11.2889,-6.209 28.7868,-6.209 18.3445,0 31.0445,8.184 12.9822,7.903 19.4734,22.296 6.4911,14.111 6.4911,33.02 v 79.587 q 0,2.822 -1.6933,4.798 -1.6934,1.693 -4.5156,1.693 h -14.1112 q -2.8222,0 -4.7977,-1.693 -1.6934,-1.976 -1.6934,-4.798 v -78.176 q 0,-19.755 -9.5956,-30.762 -9.5955,-11.289 -28.2223,-11.289 -17.4978,0 -28.2223,11.289 -10.4422,11.007 -10.4422,30.762 v 78.176 q 0,2.822 -1.9756,4.798 -1.6933,1.693 -4.5155,1.693 z"
   id="text11"
   style="font-size:282.223px;font-family:Rubik;-inkscape-font-specification:'Rubik, @wght=400';font-variation-settings:'wght' 400;dominant-baseline:middle;text-anchor:middle;fill:#ffffff"
   aria-label="Span" /><path
   d="m 5279.597,12068.956 q -3.1044,0 -4.7978,-1.693 -1.6933,-1.976 -1.6933,-4.798 v -184.292 q 0,-3.104 1.6933,-4.797 1.6934,-1.976 4.7978,-1.976 h 77.3291 q 21.1668,0 34.4312,7.056 13.5467,6.773 19.7557,18.626 6.4911,11.854 6.4911,26.529 0,11.571 -3.9511,20.038 -3.6689,8.185 -9.3134,13.547 -5.6445,5.08 -11.0067,7.902 11.0067,5.362 19.4734,17.498 8.7489,12.135 8.7489,29.351 0,15.522 -7.0556,28.505 -7.0555,12.982 -21.1667,20.884 -13.8289,7.62 -34.4312,7.62 z m 21.1668,-22.86 h 54.469 q 18.3445,0 28.2223,-9.878 9.8778,-9.878 9.8778,-24.271 0,-14.958 -9.8778,-24.553 -9.8778,-9.878 -28.2223,-9.878 h -54.469 z m 0,-91.158 h 51.929 q 18.0623,0 27.3756,-8.184 9.3134,-8.467 9.3134,-22.861 0,-14.393 -9.3134,-22.013 -9.3133,-7.62 -27.3756,-7.62 h -51.929 z m 198.1203,116.84 q -14.1112,0 -25.6823,-5.644 -11.5711,-5.645 -18.6267,-15.24 -7.0556,-9.596 -7.0556,-21.731 0,-19.474 15.8045,-31.045 15.8045,-11.571 41.2046,-15.24 l 42.0512,-5.927 v -8.184 q 0,-13.547 -7.9023,-21.167 -7.62,-7.62 -25.1178,-7.62 -12.7,0 -20.6023,5.08 -7.62,5.08 -10.7245,12.982 -1.6933,4.234 -5.9266,4.234 h -12.7001 q -3.1044,0 -4.7978,-1.694 -1.4111,-1.975 -1.4111,-4.515 0,-4.233 3.1045,-10.442 3.3866,-6.209 10.16,-12.136 6.7733,-5.927 17.2156,-9.878 10.7245,-4.233 25.9645,-4.233 16.9334,0 28.5045,4.515 11.5712,4.234 18.0623,11.572 6.7734,7.337 9.5956,16.651 3.1044,9.313 3.1044,18.909 v 91.44 q 0,2.822 -1.9755,4.798 -1.6934,1.693 -4.5156,1.693 h -12.9822 q -3.1045,0 -4.7978,-1.693 -1.6934,-1.976 -1.6934,-4.798 v -12.136 q -3.6689,5.08 -9.8778,10.16 -6.2089,4.798 -15.5222,8.185 -9.3134,3.104 -22.8601,3.104 z m 5.9267,-21.166 q 11.5711,0 21.1667,-4.798 9.5956,-5.08 14.9578,-15.522 5.6445,-10.443 5.6445,-26.247 v -7.902 l -32.7379,4.797 q -20.0378,2.823 -30.1978,9.596 -10.1601,6.491 -10.1601,16.651 0,7.902 4.5156,13.265 4.7978,5.08 11.8534,7.62 7.3378,2.54 14.9578,2.54 z m 115.7114,18.344 q -2.8222,0 -4.7978,-1.693 -1.6933,-1.976 -1.6933,-4.798 v -187.396 q 0,-2.822 1.6933,-4.516 1.9756,-1.975 4.7978,-1.975 h 13.2645 q 3.1045,0 4.7978,1.975 1.6933,1.694 1.6933,4.516 v 187.396 q 0,2.822 -1.6933,4.798 -1.6933,1.693 -4.7978,1.693 z"
   id="text12"
   style="font-size:282.223px;font-family:Rubik;-inkscape-font-specification:'Rubik, @wght=400';font-variation-settings:'wght' 400;dominant-baseline:middle;text-anchor:middle;fill:#ffffff"
   aria-label="Bal" /><path
   d="m 4369.7337,12071.778 q -23.989,0 -41.2046,-8.184 -17.2156,-8.467 -26.5289,-25.682 -9.3134,-17.498 -10.4423,-43.745 -0.2822,-12.418 -0.2822,-23.707 0,-11.571 0.2822,-23.989 1.1289,-25.964 10.7245,-43.18 9.8778,-17.498 27.0934,-25.964 17.4978,-8.749 40.3579,-8.749 23.1423,0 40.3579,8.749 17.4978,8.466 27.3756,25.964 9.8778,17.216 10.7245,43.18 0.5644,12.418 0.5644,23.989 0,11.289 -0.5644,23.707 -0.8467,26.247 -10.4423,43.745 -9.3133,17.215 -26.5289,25.682 -17.2156,8.184 -41.4868,8.184 z m 0,-23.989 q 21.7312,0 35.2779,-12.982 13.8289,-12.982 14.9578,-42.051 0.5644,-12.7 0.5644,-22.578 0,-10.16 -0.5644,-22.578 -0.5645,-19.473 -7.3378,-31.609 -6.4911,-12.135 -17.4978,-17.78 -11.0067,-5.644 -25.4001,-5.644 -13.8289,0 -24.8356,5.644 -11.0067,5.645 -17.7801,17.78 -6.4911,12.136 -7.3378,31.609 -0.2822,12.418 -0.2822,22.578 0,9.878 0.2822,22.578 1.1289,29.069 14.9578,42.051 13.829,12.982 34.9957,12.982 z m 171.3094,23.989 q -18.0623,0 -30.7623,-7.902 -12.4179,-8.184 -18.909,-22.578 -6.4911,-14.393 -6.4911,-33.02 v -79.587 q 0,-2.822 1.6933,-4.515 1.9756,-1.976 4.7978,-1.976 h 14.1112 q 2.8222,0 4.5155,1.976 1.9756,1.693 1.9756,4.515 v 78.176 q 0,42.051 36.689,42.051 17.4978,0 27.9401,-11.006 10.7244,-11.289 10.7244,-31.045 v -78.176 q 0,-2.822 1.6934,-4.515 1.9755,-1.976 4.7978,-1.976 h 13.8289 q 3.1044,0 4.7978,1.976 1.6933,1.693 1.6933,4.515 v 133.774 q 0,2.822 -1.6933,4.798 -1.6934,1.693 -4.7978,1.693 h -12.9823 q -2.8222,0 -4.7978,-1.693 -1.6933,-1.976 -1.6933,-4.798 v -12.418 q -7.62,9.878 -18.6267,15.805 -10.7245,5.926 -28.5045,5.926 z m 172.438,-2.822 q -15.8045,0 -25.6823,-5.927 -9.8778,-6.208 -14.3934,-17.215 -4.5155,-11.289 -4.5155,-26.529 v -74.507 h -22.0134 q -2.8222,0 -4.7978,-1.693 -1.6933,-1.976 -1.6933,-4.798 v -9.596 q 0,-2.822 1.6933,-4.515 1.9756,-1.976 4.7978,-1.976 h 22.0134 v -47.131 q 0,-2.822 1.6933,-4.516 1.9756,-1.975 4.7978,-1.975 h 13.2645 q 2.8222,0 4.5156,1.975 1.9755,1.694 1.9755,4.516 v 47.131 h 34.9957 q 2.8222,0 4.5155,1.976 1.9756,1.693 1.9756,4.515 v 9.596 q 0,2.822 -1.9756,4.798 -1.6933,1.693 -4.5155,1.693 h -34.9957 v 72.531 q 0,13.265 4.5156,20.885 4.5155,7.62 16.0867,7.62 h 17.2156 q 2.8222,0 4.5156,1.975 1.9755,1.694 1.9755,4.516 v 10.16 q 0,2.822 -1.9755,4.798 -1.6934,1.693 -4.5156,1.693 z"
   id="text13"
   style="font-size:282.223px;font-family:Rubik;-inkscape-font-specification:'Rubik, @wght=400';font-variation-settings:'wght' 400;dominant-baseline:middle;text-anchor:middle;fill:#ffffff"
   aria-label="Out" />
      </g><g
   id="components"
   style="display:inline"><ellipse
     style="display:inline;fill:#ff0000;fill-opacity:1;fill-rule:evenodd;stroke-width:30.9013"
     id="MODE_PARAM"
     cx="1340"
     cy="7600.0098"
     rx="294.84427"
     ry="295.80988" /><ellipse
     style="display:inline;fill:#ff0000;fill-opacity:1;fill-rule:evenodd;stroke-width:30.9013"
     id="LEVEL_PARAM"
     cx="1651.4443"
     cy="8900.0098"
     rx="294.84427"
     ry="295.80988" /><ellipse
     style="display:inline;fill:#ff0000;fill-opacity:1;fill-rule:evenodd;stroke-width:30.9013"
     id="RESO_PARAM"
     cx="1651.4443"
     cy="10295.81"
     rx="294.84427"
     ry="295.80988" /><circle
     style="display:inline;fill:#ff0000;fill-opacity:1;fill-rule:evenodd;stroke-width:46"
     id="FREQ_PARAM"
     cx="3546"
     cy="10160"
     r="520" /><ellipse
     style="display:inline;fill:#ff0000;fill-opacity:1;fill-rule:evenodd;stroke-width:30.9013"
     id="TITO_PARAM"
     cx="4564.8442"
     cy="8631.3096"
     rx="294.84427"
     ry="295.80988" /><ellipse
     style="display:inline;fill:#ff0000;fill-opacity:1;fill-rule:evenodd;stroke-width:30.9013"
     id="SPAN_PARAM"
     cx="5451.3442"
     cy="8832.9082"
     rx="294.84427"
     ry="295.80988" /><ellipse
     style="display:inline;fill:#ff0000;fill-opacity:1;fill-rule:evenodd;stroke-width:30.9013"
     id="BALANCE_PARAM"
     cx="5451.3232"
     cy="10295.81"
     rx="294.84427"
     ry="295.80988" /><rect
     style="display:inline;fill:#ff0000;fill-opacity:1;fill-rule:evenodd;stroke-width:26.5304"
     id="FM_AMT_PARAM"
     width="260"
     height="2800"
     x="550"
     y="8130"
     rx="90"
     ry="86.896591" /><rect
     style="display:inline;fill:#ff0000;fill-opacity:1;fill-rule:evenodd;stroke-width:26.5304"
     id="SPAN_CV_ATTEN_PARAM"
     width="260"
     height="2800"
     x="6272"
     y="8130"
     rx="90"
     ry="86.896591" /><ellipse
     style="display:inline;fill:#ff00ff;fill-opacity:1;fill-rule:evenodd;stroke-width:3.60597"
     id="FM_AMT_LIGHT"
     cx="680"
     cy="7980.0312"
     rx="114.98675"
     ry="120.83137" /><ellipse
     style="display:inline;fill:#ff00ff;fill-opacity:1;fill-rule:evenodd;stroke-width:3.60597"
     id="SPAN_CV_ATTEN_LIGHT"
     cx="6402"
     cy="7980.0312"
     rx="114.98675"
     ry="120.83137" /><ellipse
     style="display:inline;fill:#ff0000;fill-opacity:1;fill-rule:evenodd;stroke-width:13.0826"
     id="FILTER_CIRCUIT_PARAM"
     cx="3142.4592"
     cy="8588.8848"
     rx="124.78679"
     ry="130.6122" /><ellipse
     style="display:inline;fill:#00ff00;fill-opacity:1;fill-rule:evenodd;stroke-width:38.3021"
     id="IN_INPUT"
     cx="2589.9988"
     cy="11389.972"
     rx="398.39865"
     ry="405.17142" /><ellipse
     style="display:inline;fill:#00ff00;fill-opacity:1;fill-rule:evenodd;stroke-width:38.3021"
     id="VOCT_INPUT"
     cx="3544.9988"
     cy="11389.972"
     rx="398.39865"
     ry="405.17142" /><ellipse
     style="display:inline;fill:#00ff00;fill-opacity:1;fill-rule:evenodd;stroke-width:38.3021"
     id="FM_INPUT"
     cx="679.99866"
     cy="11389.972"
     rx="398.39865"
     ry="405.17142" /><ellipse
     style="display:inline;fill:#00ff00;fill-opacity:1;fill-rule:evenodd;stroke-width:38.3021"
     id="RESO_CV_INPUT"
     cx="1634.9987"
     cy="11389.972"
     rx="398.39865"
     ry="405.17142" /><ellipse
     style="display:inline;fill:#00ff00;fill-opacity:1;fill-rule:evenodd;stroke-width:38.3021"
     id="BALANCE_CV_INPUT"
     cx="5454.9985"
     cy="11389.972"
     rx="398.39865"
     ry="405.17142" /><ellipse
     style="display:inline;fill:#00ff00;fill-opacity:1;fill-rule:evenodd;stroke-width:38.3021"
     id="SPAN_CV_INPUT"
     cx="6409.9985"
     cy="11389.972"
     rx="398.39865"
     ry="405.17142" /><ellipse
     style="display:inline;fill:#0000ff;fill-opacity:1;fill-rule:evenodd;stroke-width:38.302"
     id="OUT_OUTPUT"
     cx="4509.9985"
     cy="11389.972"
     rx="398.39865"
     ry="405.17139" /></g>
<rect
   style="display:inline;opacity:1;fill:#000000;fill-opacity:1;fill-rule:nonzero;stroke:#1ccad8;stroke-width:29.6712;stroke-linecap:round;stroke-linejoin:round;stroke-dasharray:none;stroke-opacity:1"
   id="SPECTRUM"
   width="6950.0298"
   height="6227.6289"
   x="78.833763"
   y="1055.0354"
   ry="0" /></svg>
