<?xml version="1.0" encoding="UTF-8" standalone="no"?>
<svg
   version="1.2"
   width="71.120003mm"
   height="128.5mm"
   viewBox="0 0 7112.0004 12850"
   preserveAspectRatio="xMidYMid"
   fill-rule="evenodd"
   stroke-width="28.222"
   stroke-linejoin="round"
   xml:space="preserve"
   id="svg488"
   sodipodi:docname="bifurx.svg"
   inkscape:version="1.4.3 (1:1.4.3+202512261034+0d15f75042)"
   inkscape:label="Wave Art"
   xmlns:inkscape="http://www.inkscape.org/namespaces/inkscape"
   xmlns:sodipodi="http://sodipodi.sourceforge.net/DTD/sodipodi-0.dtd"
   xmlns:xlink="http://www.w3.org/1999/xlink"
   xmlns="http://www.w3.org/2000/svg"
   xmlns:svg="http://www.w3.org/2000/svg">
  <defs
   id="defs1"><linearGradient
   id="linearGradient22"
   inkscape:collect="always"><stop
     style="stop-color:#7a5cff;stop-opacity:1;"
     offset="0"
     id="stop22" /><stop
     style="stop-color:#1cccd9;stop-opacity:1;"
     offset="1"
     id="stop23" /></linearGradient><linearGradient
   id="linearGradient20"
   inkscape:collect="always"><stop
     style="stop-color:#795cff;stop-opacity:1;"
     offset="0"
     id="stop20" /><stop
     style="stop-color:#1cccd9;stop-opacity:1;"
     offset="1"
     id="stop21" /></linearGradient><linearGradient
   id="linearGradient16"
   x1="0"
   y1="0"
   x2="0"
   y2="1">
      <stop
   offset="0"
   stop-color="#1ccad8"
   stop-opacity="0.65"
   id="stop15"
   style="stop-color:#1ccad8;stop-opacity:1;" />
      <stop
   offset="1"
   stop-color="#7a5cff"
   stop-opacity="0.65"
   id="stop16"
   style="stop-color:#7a5cff;stop-opacity:1;" />
    </linearGradient><linearGradient
   id="linearGradient14"
   x1="0"
   y1="0"
   x2="0"
   y2="1">
      <stop
   offset="0"
   stop-color="#1ccad8"
   stop-opacity="0.65"
   id="stop13"
   style="stop-color:#1ccad8;stop-opacity:1;" />
      <stop
   offset="1"
   stop-color="#7a5cff"
   stop-opacity="0.65"
   id="stop14"
   style="stop-color:#7a5cff;stop-opacity:1;" />
    </linearGradient>
    <linearGradient
   id="linearGradient12"
   x1="0"
   y1="0"
   x2="0"
   y2="1">
      <stop
   offset="0"
   stop-color="#1ccad8"
   stop-opacity="0.65"
   id="stop11"
   style="stop-color:#6140bf;stop-opacity:1;" />
      <stop
   offset="1"
   stop-color="#7a5cff"
   stop-opacity="0.65"
   id="stop12" />
    </linearGradient>
    <linearGradient
   id="bgGrad"
   x1="1108.8855"
   y1="886.8808"
   x2="1108.8855"
   y2="12348.43"
   gradientTransform="matrix(0.62254167,0,0,1.1244228,295.85457,0)"
   gradientUnits="userSpaceOnUse">
      <stop
   offset="0%"
   stop-color="#0b0d10"
   id="stop1" />
      <stop
   offset="50%"
   stop-color="#10141a"
   id="stop2" />
      <stop
   offset="100%"
   stop-color="#07080a"
   id="stop3" />
    </linearGradient>
    <linearGradient
   id="panelSheen"
   x1="1258.4897"
   y1="999.76398"
   x2="1258.4897"
   y2="12199.481"
   gradientTransform="scale(0.88692179,1.1274951)"
   gradientUnits="userSpaceOnUse">
      <stop
   offset="0%"
   stop-color="#ffffff"
   stop-opacity="0.1"
   id="stop4" />
      <stop
   offset="15%"
   stop-color="#ffffff"
   stop-opacity="0.02"
   id="stop5" />
      <stop
   offset="50%"
   stop-color="#ffffff"
   stop-opacity="0.0"
   id="stop6" />
      <stop
   offset="85%"
   stop-color="#ffffff"
   stop-opacity="0.02"
   id="stop7" />
      <stop
   offset="100%"
   stop-color="#ffffff"
   stop-opacity="0.1"
   id="stop8" />
    </linearGradient>
    <linearGradient
   id="accentGrad"
   x1="0"
   y1="0"
   x2="0"
   y2="1">
      <stop
   offset="0%"
   stop-color="#1ccad8"
   stop-opacity="0.65"
   id="stop9" />
      <stop
   offset="100%"
   stop-color="#7a5cff"
   stop-opacity="0.65"
   id="stop10" />
    </linearGradient>
    <linearGradient
   id="oceanWaveGrad"
   x1="0"
   y1="0"
   x2="1"
   y2="1"
   gradientUnits="objectBoundingBox">
      <stop
   offset="0%"
   stop-color="#55dbff"
   id="stop_wave_1" />
      <stop
   offset="55%"
   stop-color="#1496df"
   id="stop_wave_2" />
      <stop
   offset="100%"
   stop-color="#182682"
   id="stop_wave_3" />
    </linearGradient>
    
    
    
    
    
    
    
    
    
    
  
    
    
    
    
    
    
  <linearGradient
   inkscape:collect="always"
   xlink:href="#oceanWaveGrad"
   id="linearGradient10"
   gradientUnits="userSpaceOnUse"
   x1="-323.57697"
   y1="-103.93273"
   x2="723.81177"
   y2="943.45605"
   gradientTransform="matrix(-1.435811,0,0,0.69647048,8750.0001,12953.568)" /><linearGradient
   inkscape:collect="always"
   xlink:href="#oceanWaveGrad"
   id="linearGradient11"
   gradientUnits="userSpaceOnUse"
   x1="-323.57697"
   y1="-103.93273"
   x2="723.81177"
   y2="943.45605"
   gradientTransform="matrix(1.435811,0,0,0.69647048,3420,12953.568)" /><linearGradient
   inkscape:collect="always"
   xlink:href="#linearGradient22"
   id="linearGradient500"
   gradientUnits="userSpaceOnUse"
   x1="5355.9189"
   y1="1516.2338"
   x2="6904.7725"
   y2="1512.3004"
   gradientTransform="matrix(0.99690805,0,0,0.99690805,-2554.7836,-888.26714)" /><linearGradient
   inkscape:collect="always"
   xlink:href="#linearGradient20"
   id="linearGradient300"
   gradientUnits="userSpaceOnUse"
   gradientTransform="matrix(1.3902179,0,0,1.3902178,-5190.496,-5277.5491)"
   x1="5486.8237"
   y1="12735.478"
   x2="7088.8071"
   y2="12738.298"
   spreadMethod="pad" /><linearGradient
   inkscape:collect="always"
   xlink:href="#linearGradient22"
   id="linearGradient5"
   gradientUnits="userSpaceOnUse"
   gradientTransform="matrix(0.99690805,0,0,0.99690805,-2554.7836,-888.26714)"
   x1="5332.3184"
   y1="1500.5"
   x2="7746.5298"
   y2="1598.8362" /></defs>
  <sodipodi:namedview
   id="namedview488"
   pagecolor="#ffffff"
   bordercolor="#000000"
   borderopacity="0.25"
   inkscape:showpageshadow="2"
   inkscape:pageopacity="0.0"
   inkscape:pagecheckerboard="true"
   inkscape:deskcolor="#d1d1d1"
   inkscape:document-units="mm"
   inkscape:zoom="1.6868414"
   inkscape:cx="134.86745"
   inkscape:cy="265.88154"
   inkscape:window-width="1862"
   inkscape:window-height="1016"
   inkscape:window-x="1978"
   inkscape:window-y="27"
   inkscape:window-maximized="1"
   inkscape:current-layer="svg488"
   showgrid="false"
   inkscape:pageshadow="2" />
  
  <g
   id="panel_art"
   style="display:inline">
    <g
   id="Background_Rect"
   style="display:inline"
   transform="matrix(0.99673566,0,0,0.99708035,-982.96277,-994.31744)">
      <rect
   x="986.18201"
   y="997.229"
   width="7135.2925"
   height="12887.627"
   rx="0"
   ry="0"
   fill="url(#bgGrad)"
   id="black_background"
   style="display:inline;fill:url(#bgGrad);stroke-width:23.6122"
   sodipodi:insensitive="true" />
      <g
   id="waves_layer"
   style="display:inline;opacity:0.5"
   transform="matrix(1.0032752,0,0,1.0029283,-542.80623,1109.6544)"><g
     id="branding_wave_left"
     transform="matrix(1.72,0,0,1.72,2416.9188,11996.75)"
     style="display:inline">
        <path
   style="fill:#4995ec"
   d="m 0,413.249 c 0,0 99.571,-7.286 135.999,-84.999 36.428,-77.713 30.357,-229.499 207.642,-229.499 38.871,0 81.438,18.386 104.731,34.602 116.875,81.362 61.625,248.326 -75.589,205.523 0,0 49.786,-2.125 49.786,-67.697 0,-65.572 -82.091,-75.285 -94.714,-20.643 -8.992,38.927 -3.643,156.643 167.571,162.713"
   id="path149" />
        <path
   style="fill:#7a5cff"
   d="m 372.784,338.875 c 42.5,0 125.678,-65.875 75.213,-144.378 C 412.71,139.6 316.321,128.5 247.714,197.107 179.179,265.642 219.7,398.411 0.644,413.201 9.193,412.412 101.283,402.321 136,328.25 172.429,250.536 166.357,98.751 343.642,98.751 c 38.869,0 81.43,18.384 104.731,34.607 116.874,81.357 61.625,248.321 -75.589,205.517 z"
   id="path151" />
        
        <path
   style="fill:#1cccd9"
   d="M 495.426,413.249 H 268.433 C 242.935,402.664 232.851,365.455 246.5,310.035 c 15.166,-61.576 44.686,-94.762 88.642,-101.999 26.411,-4.347 46.895,4.299 59.973,12.945 -25.087,-13.418 -59.464,-4.238 -67.259,29.556 -8.998,38.929 -3.644,156.641 167.57,162.712 z"
   id="path155" />
      </g><g
     id="branding_wave_right"
     transform="matrix(-1.72,0,0,1.72,7743.0744,11996.75)"
     style="display:inline">
        <path
   style="fill:#4995ec"
   d="m 0,413.249 c 0,0 99.571,-7.286 135.999,-84.999 36.428,-77.713 30.357,-229.499 207.642,-229.499 38.871,0 81.438,18.386 104.731,34.602 116.875,81.362 61.625,248.326 -75.589,205.523 0,0 49.786,-2.125 49.786,-67.697 0,-65.572 -82.091,-75.285 -94.714,-20.643 -8.992,38.927 -3.643,156.643 167.571,162.713"
   id="path158" />
        <path
   style="fill:#7a5cff"
   d="m 372.784,338.875 c 42.5,0 125.678,-65.875 75.213,-144.378 C 412.71,139.6 316.321,128.5 247.714,197.107 179.179,265.642 219.7,398.411 0.644,413.201 9.193,412.412 101.283,402.321 136,328.25 172.429,250.536 166.357,98.751 343.642,98.751 c 38.869,0 81.43,18.384 104.731,34.607 116.874,81.357 61.625,248.321 -75.589,205.517 z"
   id="path160" />
        
        <path
   style="fill:#1cccd9"
   d="M 495.426,413.249 H 268.433 C 242.935,402.664 232.851,365.455 246.5,310.035 c 15.166,-61.576 44.686,-94.762 88.642,-101.999 26.411,-4.347 46.895,4.299 59.973,12.945 -25.087,-13.418 -59.464,-4.238 -67.259,29.556 -8.998,38.929 -3.644,156.641 167.57,162.712 z"
   id="path164" />
      </g></g><rect
   x="1096.182"
   y="1107.229"
   width="9973.2734"
   height="12667.627"
   rx="210"
   ry="210"
   fill="none"
   stroke="#ffffff"
   stroke-opacity="0.1"
   stroke-width="60"
   id="gray_outline"
   style="display:none;stroke:#3c3f42;stroke-opacity:1" />
      
    <path
   d="M 1397.1228,1952.2443 H 7648.7534"
   stroke="url(#accentGrad)"
   stroke-width="40.8777"
   stroke-linecap="round"
   opacity="0.55"
   fill="none"
   id="top_horizontal_line"
   style="display:inline;opacity:1;stroke:#5740bf;stroke-opacity:1" /></g><path
   d="m 3543.4757,11534.378 0.036,-2584.1258"
   stroke="url(#accentGrad)"
   stroke-width="40.7513"
   stroke-linecap="round"
   opacity="0.55"
   fill="none"
   id="top_horizontal_line-7"
   style="display:inline;opacity:1;stroke:#5740bf;stroke-opacity:1"
   sodipodi:nodetypes="cc" />
    
    
    
    
    
    
  </g>
  <g
   id="panel_labels_reworked"
   inkscape:groupmode="layer"
   inkscape:label="Labels Reworked"
   style="display:inline"><text
   id="reworked_module_title_text"
   x="3541.4487"
   y="447.27814"
   style="font-style:normal;font-variant:normal;font-weight:normal;font-stretch:normal;font-size:529.167px;font-family:Rubik;-inkscape-font-specification:'Rubik, @wght=600';font-variant-ligatures:normal;font-variant-caps:normal;font-variant-numeric:normal;font-variant-east-asian:normal;font-variation-settings:'wght' 600;dominant-baseline:middle;text-anchor:middle;display:inline;fill:url(#linearGradient500);stroke-width:28.1347"
   xml:space="preserve"><tspan
     sodipodi:role="line"
     id="tspan1"
     x="3541.4487"
     y="447.27814"
     style="fill:url(#linearGradient500)">Bifurx</tspan></text><text
   id="reworked_LEVIATHAN_LOGO"
   x="3554.0957"
   y="12482.232"
   style="font-style:normal;font-variant:normal;font-weight:normal;font-stretch:normal;font-size:635px;font-family:Ancient;-inkscape-font-specification:'Ancient, Normal';font-variant-ligatures:normal;font-variant-caps:normal;font-variant-numeric:normal;font-variant-east-asian:normal;dominant-baseline:middle;text-anchor:middle;display:inline;fill:url(#linearGradient300);fill-rule:evenodd;stroke-width:37.088"
   xml:space="preserve"
   inkscape:label="reworked_LEVIATHAN_LOGO">Leviathan</text>
        
        
        
        
        
        
        
        
        
        
        
        
        
        
        
        
        
        
        
        
        
        
        
        
        
        
        
        
        
        
        
        
        <text
   id="reworked_module_description"
   x="3555.2595"
   y="815.19421"
   style="font-style:normal;font-variant:normal;font-weight:normal;font-stretch:normal;font-size:211.667px;font-family:Rubik;-inkscape-font-specification:'Rubik, @wght=400';font-variant-ligatures:normal;font-variant-caps:normal;font-variant-numeric:normal;font-variant-east-asian:normal;font-variation-settings:'wght' 400;dominant-baseline:middle;text-anchor:middle;display:inline;fill:#ffffff"
   xml:space="preserve"><tspan
     sodipodi:role="line"
     id="tspan2"
     x="3555.2595"
     y="815.19421">filter</tspan></text>
        
      </g><g
   id="g5"
   inkscape:groupmode="layer"
   inkscape:label="Labels Reworked copy"
   style="display:none"><path
   d="m 2790.0331,584.86156 q -5.8208,0 -9.525,-3.70417 -3.7042,-3.70417 -3.7042,-9.52501 V 227.67384 q 0,-5.82084 3.7042,-9.52501 3.7042,-3.70417 9.525,-3.70417 h 157.1626 q 43.9208,0 71.9667,12.70001 28.0458,12.70001 41.275,35.98336 13.7584,23.28334 13.7584,54.5042 0,19.57917 -7.4084,34.39585 -6.8791,14.81668 -17.4625,24.34168 -10.0542,9.52501 -19.5792,14.28751 20.6375,9.52501 35.9834,31.75002 15.875,21.69585 15.875,51.85837 0,33.33752 -14.8167,58.20836 -14.8167,24.87085 -43.9208,38.6292 -29.1042,13.75834 -70.9084,13.75834 z m 70.9084,-61.91254 h 80.9625 q 25.9292,0 39.1584,-14.28751 13.2291,-14.81668 13.2291,-34.92502 0,-20.63751 -13.7583,-34.39586 -13.2292,-14.2875 -38.6292,-14.2875 h -80.9625 z m 0,-158.7501 h 76.2 q 24.8709,0 37.0417,-12.17084 12.7,-12.70001 12.7,-32.27919 0,-19.57917 -12.7,-31.22085 -12.1708,-12.17084 -37.0417,-12.17084 h -76.2 z m 290.5125,220.66264 q -5.2917,0 -8.9959,-3.70417 -3.7041,-3.70417 -3.7041,-9.52501 V 322.9239 q 0,-5.82084 3.7041,-9.52501 3.7042,-3.70417 8.9959,-3.70417 h 52.9167 q 5.8208,0 9.525,3.70417 3.7042,3.70417 3.7042,9.52501 v 248.70848 q 0,5.82084 -3.7042,9.52501 -3.7042,3.70417 -9.525,3.70417 z m -1.5875,-317.5002 q -5.2917,0 -8.9959,-3.70417 -3.7041,-3.70417 -3.7041,-9.525 v -42.33336 q 0,-5.82084 3.7041,-9.52501 3.7042,-4.23333 8.9959,-4.23333 h 55.5625 q 5.8209,0 9.525,4.23333 4.2334,3.70417 4.2334,9.52501 v 42.33336 q 0,5.82083 -4.2334,9.525 -3.7041,3.70417 -9.525,3.70417 z m 177.27,317.5002 q -5.8208,0 -9.525,-3.70417 -3.7042,-3.70417 -3.7042,-9.52501 V 372.13643 h -41.275 q -5.8208,0 -9.525,-3.70417 -3.7042,-3.70417 -3.7042,-9.52501 V 322.9239 q 0,-5.82084 3.7042,-9.52501 3.7042,-3.70417 9.525,-3.70417 h 41.275 v -19.05001 q 0,-33.86669 12.7,-55.56253 12.7,-21.69585 37.0417,-31.75002 24.3417,-10.05418 59.7959,-10.05418 h 38.6292 q 5.8208,0 9.525,3.70417 3.7041,3.70417 3.7041,9.52501 v 35.98335 q 0,5.82084 -3.7041,9.52501 -3.7042,3.70417 -9.525,3.70417 h -35.4542 q -19.5792,0 -27.5167,9.525 -7.4083,9.52501 -7.4083,28.04585 v 16.40418 h 65.0875 q 5.8208,0 9.525,3.70417 3.7042,3.70417 3.7042,9.52501 v 35.98335 q 0,5.82084 -3.7042,9.52501 -3.7042,3.70417 -9.525,3.70417 h -65.0875 v 199.49595 q 0,5.82084 -3.7042,9.52501 -3.7042,3.70417 -8.9958,3.70417 z m 284.1624,5.29167 q -30.6917,0 -54.5042,-13.75834 -23.2833,-14.28751 -36.5125,-40.74586 -12.7,-26.98752 -12.7,-65.08754 V 322.9239 q 0,-5.82084 3.7041,-9.52501 3.7042,-3.70417 8.9959,-3.70417 h 56.0917 q 5.8208,0 9.525,3.70417 3.7042,3.70417 3.7042,9.52501 v 144.46258 q 0,59.26671 51.8583,59.26671 24.8709,0 39.1584,-15.34584 14.8167,-15.87501 14.8167,-43.92087 V 322.9239 q 0,-5.82084 3.7041,-9.52501 3.7042,-3.70417 9.525,-3.70417 h 56.0917 q 5.2917,0 8.9959,3.70417 3.7041,3.70417 3.7041,9.52501 v 248.70848 q 0,5.82084 -3.7041,9.52501 -3.7042,3.70417 -8.9959,3.70417 h -51.8583 q -5.8209,0 -9.525,-3.70417 -3.7042,-3.70417 -3.7042,-9.52501 v -20.63751 q -13.7583,19.05001 -35.4542,29.10418 -21.6958,10.05418 -52.9167,10.05418 z m 245.5327,-5.29167 q -5.2916,0 -8.9958,-3.70417 -3.7042,-3.70417 -3.7042,-9.52501 V 322.9239 q 0,-5.29167 3.7042,-8.99584 3.7042,-4.23334 8.9958,-4.23334 h 51.8584 q 5.2917,0 8.9958,4.23334 4.2334,3.70417 4.2334,8.99584 v 21.16668 q 13.2292,-16.40418 32.2792,-25.40002 19.5791,-8.99584 44.9792,-8.99584 h 22.7541 q 5.2917,0 8.9959,3.70417 3.7042,3.70417 3.7042,9.52501 v 45.50836 q 0,5.82083 -3.7042,9.525 -3.7042,3.70417 -8.9959,3.70417 h -46.5667 q -23.2833,0 -36.5125,13.22918 -13.2291,12.7 -13.2291,36.51252 v 140.22925 q 0,5.82084 -3.7042,9.52501 -3.7042,3.70417 -9.525,3.70417 z m 205.8457,0 q -4.7625,0 -8.4666,-3.175 -3.175,-3.70417 -3.175,-8.46668 0,-1.5875 0.5291,-3.70417 1.0584,-2.64583 2.6459,-4.7625 l 89.4292,-121.17924 -82.0209,-113.7709 q -1.5875,-2.11667 -2.6458,-4.23334 -0.5292,-2.11667 -0.5292,-4.23334 0,-4.7625 3.175,-7.9375 3.7042,-3.70417 8.4667,-3.70417 h 55.0333 q 6.35,0 9.5251,3.175 3.7041,3.175 5.2916,5.82084 l 54.5042,74.08338 54.5042,-73.55421 q 2.1167,-2.64584 5.2917,-5.82084 3.175,-3.70417 10.0542,-3.70417 h 52.3875 q 4.7625,0 7.9375,3.70417 3.7042,3.175 3.7042,7.9375 0,2.11667 -0.5292,4.23334 -0.5292,2.11667 -2.6458,4.23334 l -83.6084,114.30007 90.4875,120.65007 q 1.5875,2.11667 2.1167,4.23334 1.0583,2.11667 1.0583,4.23333 0,4.76251 -3.7041,8.46668 -3.175,3.175 -7.9375,3.175 h -57.6792 q -5.8209,0 -8.9959,-2.64584 -3.175,-3.175 -5.2916,-5.82083 l -58.7376,-78.31672 -59.7959,78.31672 q -1.5875,2.11666 -4.7625,5.29167 -3.175,3.175 -9.525,3.175 z"
   id="text3"
   style="font-size:529.167px;font-family:Rubik;-inkscape-font-specification:'Rubik, @wght=600';font-variation-settings:'wght' 600;dominant-baseline:middle;text-anchor:middle;fill:url(#linearGradient5);stroke-width:28.1347"
   aria-label="Bifurx" /><path
   d="m 2758.4424,12319.99 -16.51,-15.24 10.795,-12.7 q -1.27,-1.27 -2.54,-1.905 -0.635,-0.635 -1.27,-1.905 l -3.81,-3.81 q -1.905,-1.27 -5.08,-2.54 -2.54,-1.905 -7.62,-6.35 -3.81,-1.905 -8.255,-4.445 -4.445,-3.175 -9.525,-6.985 h -1.905 l -1.27,-0.635 h -3.81 l -0.635,-0.635 q -21.59,0 -28.575,12.065 -6.35,8.255 -6.35,12.7 v 193.04 q 0,8.89 -4.445,19.05 -3.81,9.525 -10.795,18.415 -6.35,8.255 -14.605,15.24 -8.255,6.985 -17.145,10.795 v -0.635 q -3.175,2.54 -7.62,3.81 -4.445,0.635 -12.7,3.81 h 0.635 q -1.27,0.635 -2.54,0.635 -0.635,0 -1.27,0.635 -1.27,0 -2.54,0.635 -1.27,0 -2.54,0 -1.905,0.635 -5.08,0.635 h -9.525 q 8.89,-8.89 13.97,-18.415 5.08,-9.525 6.35,-20.955 v -3.175 q 0,-2.54 0.635,-5.715 0,-1.27 0,-1.905 0.635,-0.635 0.635,-1.905 v -176.53 q 0,-34.29 55.245,-69.85 50.8,-33.02 86.995,-33.02 h 2.54 q 10.795,0 41.275,12.065 19.05,9.525 26.035,21.59 z m 4.445,323.215 q -70.485,-29.845 -143.51,-29.845 -62.865,0 -110.49,21.59 -4.445,1.27 -10.795,4.445 -5.715,3.81 -12.7,6.985 13.97,-26.67 36.195,-45.72 22.225,-19.05 54.61,-31.75 55.245,-22.225 113.03,-22.225 38.1,0 66.675,9.525 v -117.475 q -10.795,-3.81 -10.795,-19.05 0,-8.89 6.985,-15.875 6.985,-7.62 15.875,-7.62 8.89,0 15.24,7.62 6.985,6.985 6.985,15.875 0,15.24 -11.43,20.32 v 122.555 q 1.27,1.27 6.985,2.54 l 2.54,1.905 h -1.27 q 2.54,1.27 3.175,1.905 v -0.635 l 1.27,0.635 0.635,0.635 2.54,1.27 8.89,-10.795 17.78,13.97 z m -175.26,-338.455 4.445,1.27 q -7.62,22.86 -7.62,24.765 l -1.27,178.435 v 1.27 q 0,9.525 -10.16,25.4 -27.305,43.815 -73.025,48.26 15.24,-24.765 15.24,-48.26 v -64.77 q -1.27,-1.27 -4.445,-1.905 -2.54,-1.27 -5.715,-3.81 h -1.905 q -6.985,0 -12.7,4.445 -5.715,4.445 -6.35,11.43 l 0.635,0.635 v 4.445 h -3.175 l -0.635,0.635 h -2.54 q -10.795,0 -19.685,-9.525 -8.255,-10.16 -8.89,-20.955 -0.635,-1.27 -0.635,-6.985 0,-34.925 38.1,-49.53 6.35,-1.27 12.7,-1.905 6.985,-1.27 15.24,-2.54 v -23.495 q 0,-8.89 0.635,-12.065 2.54,-17.78 29.21,-36.195 25.4,-19.685 43.815,-19.685 z m 55.245,-62.23 q -3.175,26.67 -30.48,43.815 -24.13,17.145 -50.8,17.145 -15.875,0 -34.925,-7.62 -4.445,0 -5.08,-1.27 -2.54,-1.27 -4.445,-1.905 -2.54,0 -3.81,-0.635 -3.81,-1.27 -9.525,-1.905 -5.715,-1.27 -7.62,-1.27 l -0.635,0.635 q -6.985,0 -9.525,1.905 -3.81,0 -8.255,4.445 -2.54,0.635 -7.62,4.445 -4.445,3.175 -11.43,8.89 v -6.35 q 0,-35.56 19.685,-57.15 19.685,-22.225 53.975,-22.225 10.795,0 22.86,3.175 12.7,2.54 27.305,7.62 29.21,10.795 41.91,10.795 1.905,0 4.445,-0.635 2.54,-0.635 6.35,-1.905 1.27,-1.27 4.445,-2.54 z m 391.1594,209.55 q -7.62,3.81 -30.48,17.145 -22.225,12.7 -60.96,35.56 -5.715,3.175 -12.7,8.255 v 47.625 q 19.685,3.175 36.195,8.255 17.145,5.08 31.75,12.065 l 15.24,-15.875 15.875,14.605 -57.785,63.5 -6.35,-3.175 q -13.335,-6.985 -26.035,-13.335 -12.7,-5.715 -29.21,-8.89 -27.94,-5.715 -48.26,-5.715 -7.62,0 -15.24,1.27 -7.62,0.635 -15.24,1.905 1.27,-3.175 2.54,-5.08 1.27,-2.54 2.54,-3.81 v 0.635 q 4.445,-6.985 6.985,-11.43 3.175,-4.445 3.81,-5.08 4.445,-5.715 17.145,-15.24 v -153.67 q 0,-9.525 -10.16,-31.75 v -8.89 l 5.715,5.715 h 3.81 l 0.635,0.635 h 1.905 l 1.905,0.635 h 2.54 q 50.165,0 113.03,-41.91 3.175,11.43 8.255,24.765 5.08,13.335 13.97,29.845 8.255,14.605 15.24,27.305 7.62,12.065 13.97,20.955 z m -99.06,-50.165 -5.08,1.27 v 81.28 l 34.29,-22.225 q -2.54,-3.81 -6.35,-9.525 -3.175,-6.35 -7.62,-15.875 -4.445,-8.255 -8.255,-17.145 -3.81,-8.89 -6.985,-17.78 z m 366.3946,-8.255 v 3.81 l -0.635,1.27 q 0,7.62 -6.35,15.24 -5.715,6.985 -16.51,15.24 v 155.575 q 0,5.715 1.905,8.255 l 8.255,20.32 -1.27,-0.635 v 3.81 q -15.24,0 -17.78,-0.635 h -3.81 q -13.335,0 -32.385,3.81 -19.05,4.445 -45.085,12.7 -36.195,11.43 -52.705,11.43 -17.78,0 -27.305,-3.81 -25.4,-9.525 -25.4,-48.26 v -161.29 q 0,-5.08 -7.62,-11.43 -7.62,-6.985 -13.335,-6.985 h -1.27 l -1.905,-0.635 h -4.445 l -1.27,-0.635 h -3.81 v -4.445 l 66.675,-53.34 q 20.32,4.445 31.75,27.305 3.175,5.715 3.175,13.97 v 175.895 q 0,13.97 10.795,22.225 10.795,7.62 26.67,7.62 22.225,0 22.225,-13.97 v -153.035 q -12.7,-3.81 -19.685,-14.605 l -8.89,5.715 -10.16,-15.875 68.58,-52.07 q 25.4,33.655 46.99,33.655 6.35,0 15.24,-5.715 v 8.255 z m 104.7747,248.92 q -10.16,-0.635 -20.32,-4.445 -10.16,-3.175 -19.05,-10.795 -19.05,-15.24 -19.05,-34.925 v -160.02 q -9.525,-0.635 -14.605,-11.43 l -8.89,5.08 -8.89,-12.7 1.905,-3.175 0.635,0.635 1.27,-1.27 1.27,-0.635 q 6.35,-5.715 13.97,-12.7 7.62,-7.62 20.32,-18.415 6.985,-4.445 17.145,-13.97 l 2.54,-1.905 q 1.905,-1.905 3.81,-3.81 v -7.62 q 26.035,36.83 45.72,36.83 4.445,0 20.32,-8.89 v 7.62 q -1.27,3.81 -1.27,8.89 -5.08,14.605 -13.335,24.13 -8.255,8.89 -17.145,12.7 v 135.255 q 0,3.81 3.175,10.16 5.715,12.065 26.035,12.065 6.985,0 16.51,-3.81 l 2.54,4.445 z m -17.145,-297.815 h -5.08 v -0.635 h -6.35 l -1.27,-0.635 q -24.13,0 -29.845,-19.685 l -10.16,5.08 -8.255,-13.97 q 5.08,-5.08 10.795,-7.62 5.715,-3.175 10.795,-5.715 l -1.27,1.27 q 1.905,-1.27 5.08,-3.81 3.81,-3.175 6.985,-5.715 4.445,-3.175 10.16,-7.62 6.35,-4.445 13.335,-9.525 16.51,24.13 34.29,24.13 3.175,-1.27 5.08,-1.27 2.54,-0.635 5.715,-1.905 h -0.635 l 1.27,-1.27 h 0.635 l 0.635,-0.635 h 0.635 l 0.635,-0.635 h 4.445 v 5.715 q 0,8.89 -4.445,17.145 -3.81,7.62 -10.795,13.97 -6.35,5.715 -15.24,9.525 -8.255,3.81 -17.145,3.81 z m 79.3745,247.015 q -1.27,1.905 -1.27,2.54 0.635,0 1.905,-1.905 z m 211.455,-26.67 v -189.23 q -53.34,-17.145 -105.41,-35.56 -49.53,29.21 -102.235,45.72 v 1.27 q 0,6.985 9.525,19.685 v 167.64 l -6.985,10.16 q -1.905,2.54 -3.81,4.445 l -1.905,3.175 q 52.705,6.35 111.125,63.5 l 42.545,-45.085 48.26,45.085 56.515,-64.135 -23.495,-3.175 q -17.145,-2.54 -24.13,-23.495 z m -74.295,18.415 q -22.225,-17.145 -53.34,-32.385 v -161.29 l -2.54,-1.905 v -0.635 q 3.81,0 55.88,22.86 z m 210.8199,46.99 q -33.02,-31.115 -64.135,-31.115 -14.605,0 -21.59,10.795 v -8.89 q 0,-1.905 5.08,-14.605 8.89,-19.05 24.13,-27.305 v -153.67 h -10.795 q -4.445,2.54 -10.16,3.81 -0.635,0.635 -5.715,1.905 l -0.635,1.27 h -1.27 l -6.985,3.81 v -4.445 q 0,-2.54 0.635,-3.81 v -1.905 l 0.635,-1.27 q 0,-2.54 0.635,-3.81 v -4.445 q 0,-1.905 0,-3.81 0.635,-1.905 1.27,-4.445 v -3.81 l -0.635,-1.905 v -5.715 q -2.54,-6.985 -2.54,-22.86 8.255,4.445 13.335,6.35 5.715,1.905 8.89,2.54 1.27,-0.635 8.255,-0.635 h 5.08 v -28.575 l -0.635,-1.27 v -6.985 q -0.635,-0.635 -1.27,-1.905 -0.635,-1.27 -1.27,-2.54 0,-1.905 -0.635,-3.175 v -0.635 q -1.27,-1.27 -1.27,-5.08 l 4.445,-1.27 0.635,1.27 h 3.175 v 0.635 q 35.56,0 67.31,-39.37 v 8.255 l -0.635,0.635 q -0.635,1.27 -1.27,3.81 0,2.54 -1.27,6.35 v 0.635 q 0,1.905 -0.635,3.175 -2.54,10.16 -2.54,15.24 v 50.8 h 19.685 l 1.27,0.635 q 10.16,0 22.225,-8.89 v 6.985 q -0.635,1.27 -0.635,3.81 -1.905,3.175 -1.905,15.875 h 0.635 q 0,13.335 3.175,35.56 l -6.985,-3.81 -0.635,-0.635 h -0.635 q -6.985,-2.54 -15.875,-3.81 -8.89,-1.905 -20.32,-2.54 v 146.05 q 4.445,4.445 10.16,4.445 l 1.905,0.635 q 1.905,0.635 2.54,1.27 1.905,1.905 3.81,1.905 0.635,0.635 1.27,1.27 1.27,0 1.905,0.635 h -0.635 q 1.905,1.27 4.445,3.81 3.175,1.905 6.985,3.81 l 6.35,-6.35 12.7,14.605 z m 327.025,-250.19 q 0,1.905 -0.635,5.08 -6.985,24.13 -22.225,33.02 l 0.635,165.1 v -0.635 q 5.08,14.605 13.97,26.035 v -0.635 l 1.27,1.27 v 0.635 l 1.27,1.27 -3.175,4.445 q -12.065,-6.35 -33.02,-6.35 -33.02,0 -34.925,10.795 l 4.445,4.445 h -3.81 q 1.27,1.905 4.445,5.08 3.81,3.175 8.89,7.62 31.115,25.4 31.115,51.435 0,24.13 -22.86,38.1 -8.89,5.715 -12.7,5.715 l -1.27,0.635 h -3.81 l -0.635,0.635 h -2.54 q -19.05,0 -26.67,-18.415 20.32,-7.62 20.32,-21.59 0,-11.43 -6.985,-19.685 -1.905,-0.635 -2.54,-6.35 l 0.635,0.635 q -12.065,-17.78 -12.065,-38.735 0,-14.605 7.62,-19.05 v -0.635 q 6.985,-6.985 6.985,-15.24 v -164.465 q -6.35,0 -17.78,-7.62 -12.7,-8.255 -15.24,-10.795 l -0.635,-0.635 -27.94,20.955 v 131.445 q 2.54,0.635 5.715,1.905 3.175,1.27 7.62,2.54 10.16,5.08 17.145,10.795 7.62,5.715 12.7,12.065 l -58.42,53.34 q -35.56,-34.29 -64.77,-34.29 h -3.175 q -1.27,0 -3.81,0.635 -2.54,0.635 -7.62,3.175 -3.175,1.27 -6.985,1.905 -3.81,0.635 -5.08,0.635 8.89,-34.925 40.005,-48.26 v -266.065 q 0,-12.065 -12.065,-38.1 18.415,0 36.83,-7.62 18.415,-7.62 38.735,-22.225 1.27,-0.635 13.97,-11.43 l -0.635,0.635 5.08,0.635 q -1.27,3.81 -3.175,8.255 -1.27,4.445 -1.905,6.35 l -1.905,3.81 q -2.54,5.08 -5.08,19.05 -0.635,0.635 -0.635,1.27 v 0.635 q -1.27,6.985 -1.905,11.43 -0.635,4.445 -0.635,6.35 v 119.38 l 80.01,-60.96 q 17.145,34.925 36.195,34.925 0.635,0.635 3.81,0.635 8.255,0 31.75,-14.605 v 8.89 q 0,1.905 -0.635,3.175 0,1.27 -0.635,3.175 -0.635,1.905 -0.635,4.445 z m 10.1592,211.455 q -1.27,1.905 -1.27,2.54 0.635,0 1.905,-1.905 z m 211.455,-26.67 v -189.23 q -53.34,-17.145 -105.41,-35.56 -49.53,29.21 -102.235,45.72 v 1.27 q 0,6.985 9.525,19.685 v 167.64 l -6.985,10.16 q -1.905,2.54 -3.81,4.445 l -1.905,3.175 q 52.705,6.35 111.125,63.5 l 42.545,-45.085 48.26,45.085 56.515,-64.135 -23.495,-3.175 q -17.145,-2.54 -24.13,-23.495 z m -74.295,18.415 q -22.225,-17.145 -53.34,-32.385 v -161.29 l -2.54,-1.905 v -0.635 q 3.81,0 55.88,22.86 z m 353.0599,-194.945 q 1.905,0.635 1.905,3.81 0,5.08 -7.62,19.05 v 184.15 h 24.765 q -6.35,0 -57.785,59.055 -2.54,-10.795 -57.15,-62.865 h 14.605 v -176.53 l -24.765,-20.955 -32.385,24.765 v 173.99 h 27.305 q -41.91,24.765 -56.515,46.99 -11.43,16.51 -12.7,16.51 -0.635,0 -0.635,-0.635 l 0.635,-1.27 q -5.715,-25.4 -59.055,-56.515 l -1.27,-3.81 h 24.765 v -165.1 q -8.89,-34.925 -29.845,-36.195 l 55.88,-41.91 q 40.64,23.495 46.99,33.655 14.605,-1.27 65.405,-34.925 l 8.255,-6.35 q 43.18,34.29 69.215,45.085 z"
   id="text4"
   style="font-size:635px;font-family:Ancient;-inkscape-font-specification:'Ancient, Normal';dominant-baseline:middle;text-anchor:middle;fill:url(#linearGradient300);stroke-width:37.088"
   inkscape:label="reworked_LEVIATHAN_LOGO"
   aria-label="Leviathan" />
        
        
        
        
        
        
        
        
        
        
        
        
        
        
        
        
        
        
        
        
        
        
        
        
        
        
        
        
        
        
        
        
        <path
   d="m 3362.1139,870.22763 q -2.1167,0 -3.5984,-1.27 -1.27,-1.48167 -1.27,-3.59834 v -88.26514 h -17.9917 q -2.1166,0 -3.5983,-1.27 -1.27,-1.48167 -1.27,-3.59834 v -7.19668 q 0,-2.11667 1.27,-3.38667 1.4817,-1.48167 3.5983,-1.48167 h 17.9917 v -10.58335 q 0,-10.79502 3.5984,-18.83836 3.5983,-8.25502 11.43,-12.70002 8.0433,-4.44501 21.3784,-4.44501 h 32.5967 q 2.1166,0 3.3866,1.48167 1.4817,1.27 1.4817,3.38667 v 7.19668 q 0,2.11667 -1.4817,3.59834 -1.27,1.27 -3.3866,1.27 h -32.1734 q -9.9484,0 -13.5467,5.29167 -3.5983,5.08001 -3.5983,14.8167 v 9.52501 h 49.3184 q 2.1166,0 3.3866,1.48167 1.4817,1.27 1.4817,3.38667 v 100.33016 q 0,2.11667 -1.4817,3.59834 -1.27,1.27 -3.3866,1.27 h -9.7367 q -2.3283,0 -3.5984,-1.27 -1.27,-1.48167 -1.27,-3.59834 v -88.26514 h -34.7133 v 88.26514 q 0,2.11667 -1.4817,3.59834 -1.27,1.27 -3.3867,1.27 z m 105.4101,0 q -2.1167,0 -3.5984,-1.27 -1.27,-1.48167 -1.27,-3.59834 V 724.8124 q 0,-2.11667 1.27,-3.38667 1.4817,-1.48167 3.5984,-1.48167 h 9.9483 q 2.3284,0 3.5984,1.48167 1.27,1.27 1.27,3.38667 v 140.54689 q 0,2.11667 -1.27,3.59834 -1.27,1.27 -3.5984,1.27 z m 89.3231,0 q -11.8534,0 -19.2617,-4.445 -7.4084,-4.65668 -10.795,-12.91169 -3.3867,-8.46668 -3.3867,-19.8967 v -55.88009 h -16.51 q -2.1167,0 -3.5984,-1.27 -1.27,-1.48167 -1.27,-3.59834 v -7.19668 q 0,-2.11667 1.27,-3.38667 1.4817,-1.48167 3.5984,-1.48167 h 16.51 V 724.8124 q 0,-2.11667 1.27,-3.38667 1.4817,-1.48167 3.5983,-1.48167 h 9.9484 q 2.1166,0 3.3867,1.48167 1.4816,1.27 1.4816,3.38667 v 35.34839 h 26.2467 q 2.1167,0 3.3867,1.48167 1.4817,1.27 1.4817,3.38667 v 7.19668 q 0,2.11667 -1.4817,3.59834 -1.27,1.27 -3.3867,1.27 h -26.2467 v 54.39842 q 0,9.94835 3.3867,15.66336 3.3867,5.71501 12.065,5.71501 h 12.9117 q 2.1167,0 3.3867,1.48167 1.4816,1.27 1.4816,3.38667 v 7.62001 q 0,2.11667 -1.4816,3.59834 -1.27,1.27 -3.3867,1.27 z m 83.6082,2.11667 q -21.8017,0 -34.7134,-13.33502 -12.9117,-13.54669 -14.1817,-36.83006 -0.2117,-2.75167 -0.2117,-6.98501 0,-4.445 0.2117,-7.19668 0.8467,-15.02835 6.985,-26.2467 6.1384,-11.43002 16.7217,-17.56837 10.795,-6.13834 25.1884,-6.13834 16.0867,0 26.8817,6.77334 11.0067,6.77335 16.7217,19.2617 5.715,12.48836 5.715,29.21005 v 3.59834 q 0,2.32834 -1.4817,3.59834 -1.27,1.27 -3.3866,1.27 h -73.2368 q 0,0.21167 0,0.84667 0,0.635 0,1.05833 0.4233,8.67835 3.81,16.29836 3.3866,7.40835 9.7367,12.06502 6.35,4.65668 15.24,4.65668 7.62,0 12.7,-2.32834 5.08,-2.32834 8.255,-5.08001 3.175,-2.96334 4.2334,-4.44501 1.905,-2.75167 2.9633,-3.175 1.0583,-0.635 3.3867,-0.635 h 10.16 q 2.1166,0 3.3867,1.27 1.4816,1.05833 1.27,3.175 -0.2117,3.17501 -3.3867,7.83168 -3.175,4.44501 -9.1017,8.89002 -5.9267,4.44501 -14.3934,7.40834 -8.4666,2.75167 -19.4733,2.75167 z m -28.7867,-65.19343 h 57.9967 v -0.635 q 0,-9.52502 -3.5983,-16.93337 -3.3867,-7.40834 -9.9484,-11.64168 -6.5616,-4.44501 -15.6633,-4.44501 -9.1017,0 -15.6634,4.44501 -6.35,4.23334 -9.7367,11.64168 -3.3866,7.40835 -3.3866,16.93337 z m 108.3734,63.07676 q -2.1167,0 -3.5984,-1.27 -1.27,-1.48167 -1.27,-3.59834 V 765.2408 q 0,-2.11667 1.27,-3.59834 1.4817,-1.48167 3.5984,-1.48167 h 9.7366 q 2.1167,0 3.5984,1.48167 1.4817,1.48167 1.4817,3.59834 v 9.31335 q 4.2333,-7.19668 11.6416,-10.79502 7.4084,-3.59834 17.7801,-3.59834 h 8.4667 q 2.1166,0 3.3866,1.48167 1.27,1.27 1.27,3.38667 v 8.67835 q 0,2.11667 -1.27,3.38667 -1.27,1.27 -3.3866,1.27 h -12.7001 q -11.43,0 -17.9917,6.77335 -6.5616,6.56167 -6.5616,17.99169 v 62.2301 q 0,2.11667 -1.4817,3.59834 -1.4817,1.27 -3.5984,1.27 z"
   id="text5"
   style="font-size:211.667px;font-family:Rubik;-inkscape-font-specification:'Rubik, @wght=400';font-variation-settings:'wght' 400;dominant-baseline:middle;text-anchor:middle;fill:#ffffff"
   aria-label="filter" />
        
      </g><g
   id="components"
   style="display:inline"><ellipse
     style="display:inline;fill:#ff0000;fill-opacity:1;fill-rule:evenodd;stroke-width:30.9013"
     id="MODE_PARAM"
     cx="1340"
     cy="7320.0098"
     rx="294.84427"
     ry="295.80988" /><ellipse
     style="display:inline;fill:#ff0000;fill-opacity:1;fill-rule:evenodd;stroke-width:30.9013"
     id="LEVEL_PARAM"
     cx="1340"
     cy="8760.0098"
     rx="294.84427"
     ry="295.80988" /><ellipse
     style="display:inline;fill:#ff0000;fill-opacity:1;fill-rule:evenodd;stroke-width:30.9013"
     id="RESO_PARAM"
     cx="1651.4443"
     cy="10300.01"
     rx="294.84427"
     ry="295.80988" /><circle
     style="display:inline;fill:#ff0000;fill-opacity:1;fill-rule:evenodd;stroke-width:46"
     id="FREQ_PARAM"
     cx="3556"
     cy="8950.0098"
     r="520" /><ellipse
     style="display:inline;fill:#ff0000;fill-opacity:1;fill-rule:evenodd;stroke-width:30.9013"
     id="TITO_PARAM"
     cx="5770"
     cy="7380.0098"
     rx="294.84427"
     ry="295.80988" /><ellipse
     style="display:inline;fill:#ff0000;fill-opacity:1;fill-rule:evenodd;stroke-width:30.9013"
     id="SPAN_PARAM"
     cx="5770"
     cy="8730.0098"
     rx="294.84427"
     ry="295.80988" /><ellipse
     style="display:inline;fill:#ff0000;fill-opacity:1;fill-rule:evenodd;stroke-width:30.9013"
     id="BALANCE_PARAM"
     cx="5770"
     cy="10300.01"
     rx="294.84427"
     ry="295.80988" /><rect
     style="display:inline;fill:#ff0000;fill-opacity:1;fill-rule:evenodd;stroke-width:26.5304"
     id="FM_AMT_PARAM"
     width="260"
     height="2800"
     x="2480"
     y="8130"
     rx="90"
     ry="86.896591" /><rect
     style="display:inline;fill:#ff0000;fill-opacity:1;fill-rule:evenodd;stroke-width:26.5304"
     id="SPAN_CV_ATTEN_PARAM"
     width="260"
     height="2800"
     x="4362"
     y="8130"
     rx="90"
     ry="86.896591" /><ellipse
     style="display:inline;fill:#ff00ff;fill-opacity:1;fill-rule:evenodd;stroke-width:3.60597"
     id="FM_AMT_LIGHT"
     cx="2610"
     cy="7980.0312"
     rx="114.98675"
     ry="120.83137" /><ellipse
     style="display:inline;fill:#ff00ff;fill-opacity:1;fill-rule:evenodd;stroke-width:3.60597"
     id="SPAN_CV_ATTEN_LIGHT"
     cx="4492"
     cy="7980.0312"
     rx="114.98675"
     ry="120.83137" /><ellipse
     style="display:inline;fill:#00ff00;fill-opacity:1;fill-rule:evenodd;stroke-width:38.3021"
     id="IN_INPUT"
     cx="679.99866"
     cy="11499.972"
     rx="398.39865"
     ry="405.17142" /><ellipse
     style="display:inline;fill:#00ff00;fill-opacity:1;fill-rule:evenodd;stroke-width:38.3021"
     id="VOCT_INPUT"
     cx="3544.9988"
     cy="11499.972"
     rx="398.39865"
     ry="405.17142" /><ellipse
     style="display:inline;fill:#00ff00;fill-opacity:1;fill-rule:evenodd;stroke-width:38.3021"
     id="FM_INPUT"
     cx="2589.9985"
     cy="11499.972"
     rx="398.39865"
     ry="405.17142" /><ellipse
     style="display:inline;fill:#00ff00;fill-opacity:1;fill-rule:evenodd;stroke-width:38.3021"
     id="RESO_CV_INPUT"
     cx="1634.9987"
     cy="11499.972"
     rx="398.39865"
     ry="405.17142" /><ellipse
     style="display:inline;fill:#00ff00;fill-opacity:1;fill-rule:evenodd;stroke-width:38.3021"
     id="BALANCE_CV_INPUT"
     cx="5454.9985"
     cy="11499.972"
     rx="398.39865"
     ry="405.17142" /><ellipse
     style="display:inline;fill:#00ff00;fill-opacity:1;fill-rule:evenodd;stroke-width:38.3021"
     id="SPAN_CV_INPUT"
     cx="4499.9985"
     cy="11499.972"
     rx="398.39865"
     ry="405.17142" /><ellipse
     style="display:inline;fill:#0000ff;fill-opacity:1;fill-rule:evenodd;stroke-width:38.302"
     id="OUT_OUTPUT"
     cx="6409.9985"
     cy="11499.972"
     rx="398.39865"
     ry="405.17139" /></g>
<rect
   style="display:inline;opacity:1;fill:#000000;fill-opacity:1;fill-rule:nonzero;stroke:#1ccad8;stroke-width:28.411;stroke-linecap:round;stroke-linejoin:round;stroke-dasharray:none;stroke-opacity:1"
   id="SPECTRUM"
   width="6951.2896"
   height="5708.8892"
   x="78.203743"
   y="1054.4055"
   ry="0" /></svg>
