<svg xmlns="http://www.w3.org/2000/svg" version="1.0" width="600.000000pt" height="400.000000pt" viewBox="0 0 600.000000 400.000000" preserveAspectRatio="xMidYMid meet">
  <g id="chess-piece-atlas" transform="translate(0.000000,400.000000) scale(0.100000,-0.100000)" fill="#000000" stroke="none">
    <g id="pieces-black">
      <g id="piece-black-king">
        <path id="piece-black-king-part-1" d="M770 3456 c0 -30 -3 -35 -27 -38 -24 -3 -28 -8 -31 -40 -3 -34 -1 -37 25 -40 22 -2 29 -9 31 -30 3 -24 0 -28 -22 -28 -14 0 -48 -5 -77 -11 -112 -24 -117 -77 -24 -271 l37 -78 144 0 145 0 43 93 c53 113 71 179 55 208 -14 28 -66 48 -140 56 -57 6 -60 7 -57 32 2 20 9 27 31 29 24 3 27 7 27 43 0 37 -2 39 -30 39 -28 0 -30 3 -30 35 l0 35 -50 0 -50 0 0 -34z" />
        <path id="piece-black-king-part-2" d="M624 2886 c-3 -8 -4 -23 -2 -33 3 -17 18 -18 202 -18 175 0 200 2 209 17 8 12 7 21 -2 32 -19 23 -399 24 -407 2z" />
        <path id="piece-black-king-part-3" d="M697 2688 c-8 -146 -27 -234 -68 -305 l-29 -53 230 0 230 0 -26 40 c-44 65 -65 160 -71 308 l-6 132 -127 0 -127 0 -6 -122z" />
        <path id="piece-black-king-part-4" d="M566 2288 c-9 -12 -16 -33 -16 -45 0 -12 -21 -48 -47 -80 -34 -42 -47 -66 -47 -89 0 -66 -10 -64 374 -64 385 0 374 -2 374 65 0 24 -11 45 -42 80 -23 26 -47 66 -53 89 -6 23 -16 47 -21 54 -8 9 -72 12 -259 12 -245 0 -248 0 -263 -22z" />
      </g>
      <g id="piece-black-queen">
        <path id="piece-black-queen-part-1" d="M1692 3407 c-25 -26 -29 -74 -8 -102 11 -16 10 -23 -7 -53 l-21 -35 -21 27 -22 28 -22 -38 -22 -37 -29 28 c-22 21 -30 24 -30 13 0 -30 50 -187 81 -257 l32 -71 127 0 127 0 32 75 c38 90 86 254 77 262 -3 4 -19 -6 -34 -20 l-29 -27 -19 35 -19 36 -21 -26 -21 -27 -21 33 c-19 30 -19 36 -6 60 20 40 17 67 -11 94 -32 33 -83 34 -113 2z" />
        <path id="piece-black-queen-part-2" d="M1572 2878 c-16 -16 -15 -33 4 -52 13 -13 43 -16 174 -16 131 0 161 3 174 16 19 18 19 20 6 45 -10 18 -23 19 -178 19 -117 0 -172 -4 -180 -12z" />
        <path id="piece-black-queen-part-3" d="M1640 2718 c0 -120 -24 -248 -59 -325 -17 -36 -31 -67 -31 -69 0 -2 92 -4 205 -4 l205 0 -29 53 c-40 70 -59 157 -67 305 l-7 122 -109 0 -108 0 0 -82z" />
        <path id="piece-black-queen-part-4" d="M1517 2295 c-8 -7 -18 -30 -21 -49 -4 -19 -27 -60 -51 -92 -48 -62 -54 -87 -29 -122 15 -22 16 -22 333 -22 295 0 319 1 334 18 28 30 20 65 -28 126 -24 32 -47 73 -51 92 -12 64 -12 64 -254 64 -178 0 -221 -3 -233 -15z" />
      </g>
      <g id="piece-black-bishop">
        <path id="piece-black-bishop-part-1" d="M2529 3279 c-20 -20 -21 -41 -5 -80 4 -10 -9 -38 -36 -78 -102 -148 -111 -186 -58 -258 28 -37 29 -43 14 -51 -40 -22 -1 -32 126 -32 127 0 154 6 126 30 -12 10 -10 18 16 54 51 73 42 115 -54 246 -47 66 -50 72 -38 99 15 38 5 70 -27 82 -34 13 -40 12 -64 -12z" />
        <path id="piece-black-bishop-part-2" d="M2403 2764 c-19 -8 -16 -42 5 -52 9 -5 83 -9 164 -9 160 0 194 8 172 44 -10 16 -29 18 -170 20 -87 1 -165 -1 -171 -3z" />
        <path id="piece-black-bishop-part-3" d="M2477 2684 c-4 -4 -7 -39 -7 -78 0 -100 -17 -192 -45 -248 l-24 -48 171 0 170 0 -15 24 c-28 42 -50 139 -56 246 l-6 105 -90 3 c-50 1 -94 0 -98 -4z" />
        <path id="piece-black-bishop-part-4" d="M2362 2278 c-7 -7 -12 -20 -12 -30 0 -26 -23 -69 -53 -96 -39 -37 -52 -75 -35 -109 l13 -28 289 -3 c258 -2 291 -1 308 14 30 28 23 70 -22 123 -23 27 -46 66 -52 87 -5 22 -15 42 -22 46 -20 13 -401 9 -414 -4z" />
      </g>
      <g id="piece-black-knight">
        <path id="piece-black-knight-part-1" d="M3600 3246 c-9 -29 -16 -34 -53 -40 -23 -4 -78 -28 -122 -55 -44 -27 -105 -56 -135 -64 -74 -22 -100 -47 -100 -98 0 -40 1 -41 28 -35 l27 6 -27 -17 c-16 -10 -28 -23 -28 -30 0 -31 119 -29 167 3 21 14 42 18 86 15 44 -2 65 2 92 18 l35 20 0 -22 c0 -43 -48 -123 -129 -217 -96 -110 -150 -209 -158 -286 -6 -52 -5 -55 31 -89 l37 -35 195 0 194 0 55 38 56 37 -43 10 -43 9 45 6 c44 5 45 6 51 48 6 46 7 45 -61 55 -19 3 -16 5 10 6 19 1 40 5 45 9 6 4 10 34 10 67 1 33 4 72 9 88 8 25 6 27 -22 27 -17 0 -34 5 -37 10 -4 6 10 10 33 10 l40 0 4 63 c3 34 8 70 12 79 6 14 1 17 -36 20 l-43 3 41 13 42 12 -19 50 c-10 28 -19 62 -19 76 0 26 -2 26 -47 22 l-48 -5 39 17 39 18 -57 37 c-31 21 -56 42 -56 46 0 5 -15 9 -33 9 -28 0 -37 6 -56 40 -12 22 -26 40 -31 40 -5 0 -13 -15 -20 -34z m-110 -126 c-8 -5 -22 -10 -30 -10 -13 0 -13 1 0 10 8 5 22 10 30 10 13 0 13 -1 0 -10z m-263 -117 c-4 -3 -10 -3 -14 0 -3 4 0 7 7 7 7 0 10 -3 7 -7z" />
        <path id="piece-black-knight-part-2" d="M3354 2300 c-14 -5 -24 -21 -28 -44 -4 -21 -28 -62 -56 -98 -54 -66 -63 -103 -32 -132 17 -15 51 -16 333 -14 l314 3 13 28 c17 36 9 58 -43 118 -24 27 -49 67 -55 89 -6 22 -19 44 -30 50 -23 12 -386 12 -416 0z" />
      </g>
      <g id="piece-black-rook">
        <path id="piece-black-rook-part-1" d="M4240 3147 c0 -26 80 -212 97 -224 12 -9 64 -13 173 -13 109 0 161 4 173 13 16 12 97 198 97 224 0 9 -17 13 -59 13 -58 0 -60 -1 -63 -27 -3 -24 -8 -28 -40 -31 -36 -3 -38 -2 -38 27 l0 31 -70 0 -70 0 0 -30 c0 -28 -3 -30 -34 -30 -30 0 -35 3 -38 28 -3 26 -6 27 -65 30 -48 2 -63 0 -63 -11z" />
        <path id="piece-black-rook-part-2" d="M4342 2881 c-9 -6 -19 -82 -33 -267 -16 -224 -17 -260 -5 -273 20 -19 393 -18 413 1 10 11 9 64 -5 268 -10 140 -21 261 -26 268 -8 14 -322 17 -344 3z" />
        <path id="piece-black-rook-part-3" d="M4277 2295 c-8 -7 -18 -30 -21 -49 -4 -19 -27 -60 -51 -92 -48 -62 -54 -87 -29 -122 15 -22 16 -22 332 -22 174 0 322 4 329 8 40 26 30 95 -22 142 -32 29 -55 71 -55 99 0 48 -16 51 -250 51 -178 0 -221 -3 -233 -15z" />
      </g>
      <g id="piece-black-pawn">
        <path id="piece-black-pawn-part-1" d="M5260 2919 c-66 -26 -95 -91 -66 -148 31 -58 104 -77 162 -42 67 41 63 138 -8 181 -36 22 -51 24 -88 9z" />
        <path id="piece-black-pawn-part-2" d="M5154 2685 c-14 -36 13 -45 140 -45 128 0 150 6 144 36 -3 17 -15 19 -141 22 -116 2 -138 0 -143 -13z" />
        <path id="piece-black-pawn-part-3" d="M5197 2623 c-3 -5 -10 -35 -17 -68 -6 -33 -20 -93 -31 -133 -28 -103 -30 -102 146 -102 177 0 177 0 146 103 -11 39 -24 95 -27 122 -11 85 -12 85 -119 85 -51 0 -96 -3 -98 -7z" />
        <path id="piece-black-pawn-part-4" d="M5138 2303 c-10 -2 -21 -17 -24 -31 -13 -58 -18 -69 -55 -118 -43 -57 -50 -101 -21 -127 16 -15 50 -17 264 -17 225 0 246 2 261 18 32 35 19 77 -40 142 -21 23 -43 77 -43 107 0 26 -42 33 -182 32 -79 -1 -151 -3 -160 -6z" />
      </g>
    </g>

    <g id="pieces-white">
      <g id="piece-white-king">
        <path id="piece-white-king-base" fill="#ffffff" d="M778 1703 c-2 -18 -10 -29 -23 -32 -11 -2 -23 -8 -27 -15 -14 -21 -8 -65 9 -75 15 -8 14 -10 -12 -16 -139 -31 -152 -65 -85 -225 46 -108 45 -107 16 -114 -52 -13 -41 -91 15 -103 l29 -5 0 -82 c-1 -154 -33 -292 -84 -354 -13 -15 -26 -43 -30 -63 -3 -20 -24 -60 -46 -89 -48 -64 -54 -116 -18 -150 21 -19 34 -20 314 -20 280 0 292 1 318 21 38 30 36 84 -5 135 -39 49 -59 87 -59 113 0 11 -8 28 -18 38 -53 52 -91 200 -92 361 0 83 2 92 18 92 26 0 52 31 52 61 0 29 -17 49 -42 49 -16 0 -15 5 8 58 32 69 64 167 64 193 0 30 -43 67 -86 74 -63 11 -68 13 -54 29 6 8 10 30 8 48 -2 25 -8 34 -24 36 -15 2 -24 12 -28 33 -5 28 -8 29 -60 29 -52 0 -55 -1 -58 -27z" />
        <path id="piece-white-king-part-1" d="M778 1703 c-2 -18 -10 -29 -23 -32 -11 -2 -23 -8 -27 -15 -14 -21 -8 -65 9 -75 15 -8 14 -10 -12 -16 -139 -31 -152 -65 -85 -225 46 -108 45 -107 16 -114 -52 -13 -41 -91 15 -103 l29 -5 0 -82 c-1 -154 -33 -292 -84 -354 -13 -15 -26 -43 -30 -63 -3 -20 -24 -60 -46 -89 -48 -64 -54 -116 -18 -150 21 -19 34 -20 314 -20 280 0 292 1 318 21 38 30 36 84 -5 135 -39 49 -59 87 -59 113 0 11 -8 28 -18 38 -53 52 -91 200 -92 361 0 83 2 92 18 92 26 0 52 31 52 61 0 29 -17 49 -42 49 -16 0 -15 5 8 58 32 69 64 167 64 193 0 30 -43 67 -86 74 -63 11 -68 13 -54 29 6 8 10 30 8 48 -2 25 -8 34 -24 36 -15 2 -24 12 -28 33 -5 28 -8 29 -60 29 -52 0 -55 -1 -58 -27z m92 -23 c0 -25 4 -30 25 -30 20 0 25 -5 25 -25 0 -20 -5 -25 -25 -25 -21 0 -25 -5 -25 -30 0 -30 1 -30 53 -30 66 0 121 -26 125 -60 5 -33 -13 -90 -54 -177 l-35 -73 -120 0 -120 0 -40 85 c-22 47 -42 106 -46 132 -7 64 12 82 98 91 60 7 64 9 67 35 3 23 0 27 -22 27 -21 0 -26 5 -26 25 0 20 5 25 25 25 21 0 25 5 25 30 0 28 3 30 35 30 32 0 35 -2 35 -30z m150 -485 c7 -8 10 -22 6 -30 -8 -22 -364 -22 -372 0 -4 8 -4 22 0 30 8 22 348 22 366 0z m-70 -132 c0 -122 28 -276 65 -365 7 -17 -6 -18 -179 -18 l-186 0 21 41 c28 55 46 151 55 287 l7 112 108 0 109 0 0 -57z m120 -460 c9 -28 31 -67 47 -87 39 -43 46 -66 34 -100 -8 -19 -18 -26 -38 -26 -16 -1 -149 -1 -298 0 -240 0 -271 2 -282 17 -21 28 -15 57 20 99 43 49 57 76 57 106 0 46 11 49 234 46 l209 -3 17 -52z" />
      </g>
      <g id="piece-white-queen">
        <path id="piece-white-queen-base" fill="#ffffff" d="M1723 1663 c-12 -2 -34 -18 -49 -35 -26 -32 -28 -55 -9 -103 7 -16 6 -18 -6 -7 -19 17 -46 15 -58 -5 -9 -17 -11 -16 -30 1 -11 10 -27 16 -37 12 -22 -8 -13 -60 35 -203 28 -82 34 -113 25 -113 -21 0 -44 -43 -37 -68 4 -15 16 -25 34 -29 l29 -5 0 -92 c-1 -113 -21 -231 -51 -294 -12 -26 -26 -49 -29 -52 -13 -9 -30 -49 -30 -68 0 -10 -16 -40 -35 -65 -49 -64 -59 -94 -44 -130 7 -16 23 -33 36 -38 27 -10 524 -12 561 -3 30 9 54 56 46 91 -4 16 -24 50 -45 77 -22 27 -39 57 -39 68 0 20 -17 59 -30 68 -4 3 -17 25 -29 48 -31 60 -51 176 -51 288 0 91 1 95 24 104 38 14 51 46 31 76 -8 13 -22 24 -30 24 -19 0 -19 -3 9 77 37 104 68 222 61 233 -9 15 -26 12 -47 -7 -17 -15 -20 -15 -41 5 -21 20 -24 21 -40 5 -15 -16 -16 -14 -10 20 3 20 3 47 -1 61 -10 40 -65 68 -113 59z" />
        <path id="piece-white-queen-part-1" d="M1723 1663 c-12 -2 -34 -18 -49 -35 -26 -32 -28 -55 -9 -103 7 -16 6 -18 -6 -7 -19 17 -46 15 -58 -5 -9 -17 -11 -16 -30 1 -11 10 -27 16 -37 12 -22 -8 -13 -60 35 -203 28 -82 34 -113 25 -113 -21 0 -44 -43 -37 -68 4 -15 16 -25 34 -29 l29 -5 0 -92 c-1 -113 -21 -231 -51 -294 -12 -26 -26 -49 -29 -52 -13 -9 -30 -49 -30 -68 0 -10 -16 -40 -35 -65 -49 -64 -59 -94 -44 -130 7 -16 23 -33 36 -38 27 -10 524 -12 561 -3 30 9 54 56 46 91 -4 16 -24 50 -45 77 -22 27 -39 57 -39 68 0 20 -17 59 -30 68 -4 3 -17 25 -29 48 -31 60 -51 176 -51 288 0 91 1 95 24 104 38 14 51 46 31 76 -8 13 -22 24 -30 24 -19 0 -19 -3 9 77 37 104 68 222 61 233 -9 15 -26 12 -47 -7 -17 -15 -20 -15 -41 5 -21 20 -24 21 -40 5 -15 -16 -16 -14 -10 20 3 20 3 47 -1 61 -10 40 -65 68 -113 59z m72 -48 c30 -29 31 -44 7 -76 -19 -24 -19 -24 8 -46 25 -20 29 -21 41 -7 11 14 15 13 30 -8 l18 -23 27 25 c24 22 26 23 21 5 -3 -11 -11 -40 -17 -65 -7 -24 -25 -82 -42 -127 l-30 -83 -109 0 -110 0 -19 46 c-23 54 -70 211 -70 234 1 11 5 9 19 -7 19 -22 41 -31 41 -15 0 4 4 14 10 22 8 12 11 12 28 -3 18 -16 20 -16 41 7 19 20 20 24 6 36 -21 18 -19 66 5 90 27 27 66 25 95 -5z m120 -445 c3 -11 3 -24 0 -30 -4 -6 -69 -10 -166 -10 -133 0 -161 3 -165 15 -4 8 -4 22 0 30 4 12 32 15 165 15 151 0 160 -1 166 -20z m-65 -122 c0 -99 19 -235 40 -297 11 -31 21 -60 23 -65 2 -9 -310 -19 -324 -10 -3 2 5 34 17 72 25 72 44 207 44 305 l0 57 100 0 100 0 0 -62z m112 -443 c5 -24 25 -61 49 -90 31 -37 39 -55 37 -79 -5 -50 -24 -53 -317 -47 -227 5 -265 8 -274 22 -15 24 -2 62 38 108 19 23 37 59 41 79 4 20 9 40 11 45 2 4 95 6 206 5 l201 -3 8 -40z" />
      </g>
      <g id="piece-white-bishop">
        <path id="piece-white-bishop-base" fill="#ffffff" d="M2525 1598 c-24 -19 -27 -26 -22 -67 5 -42 1 -51 -39 -109 -80 -111 -89 -151 -49 -225 15 -29 20 -49 14 -53 -6 -3 -8 -12 -5 -19 3 -8 -3 -17 -14 -20 -41 -13 -36 -81 6 -91 22 -6 24 -11 24 -63 -1 -123 -34 -253 -77 -299 -7 -7 -13 -22 -13 -33 0 -25 -14 -52 -57 -108 -40 -53 -43 -92 -8 -126 l24 -25 264 0 c252 0 266 1 291 21 40 32 36 79 -14 144 -22 28 -43 67 -46 86 -4 19 -12 41 -19 49 -46 55 -75 164 -75 282 0 50 3 68 13 68 8 0 22 9 32 20 21 24 14 66 -14 75 -28 9 -32 52 -9 92 33 55 22 128 -29 195 -70 92 -76 104 -63 128 22 42 -21 100 -74 100 -7 0 -26 -10 -41 -22z" />
        <path id="piece-white-bishop-part-1" fill="#000000" fill-rule="evenodd" d="M2525 1598 c-24 -19 -27 -26 -22 -67 5 -42 1 -51 -39 -109 -80 -111 -89 -151 -49 -225 15 -29 20 -49 14 -53 -6 -3 -8 -12 -5 -19 3 -8 -3 -17 -14 -20 -41 -13 -36 -81 6 -91 22 -6 24 -11 24 -63 -1 -123 -34 -253 -77 -299 -7 -7 -13 -22 -13 -33 0 -25 -14 -52 -57 -108 -40 -53 -43 -92 -8 -126 l24 -25 264 0 c252 0 266 1 291 21 40 32 36 79 -14 144 -22 28 -43 67 -46 86 -4 19 -12 41 -19 49 -46 55 -75 164 -75 282 0 50 3 68 13 68 8 0 22 9 32 20 21 24 14 66 -14 75 -28 9 -32 52 -9 92 33 55 22 128 -29 195 -70 92 -76 104 -63 128 22 42 -21 100 -74 100 -7 0 -26 -10 -41 -22z m83 -20 c15 -15 16 -50 1 -65 -14 -14 -5 -31 64 -126 64 -86 69 -128 23 -197 -25 -38 -26 -44 -12 -52 35 -19 1 -28 -109 -28 -114 0 -138 7 -110 30 14 12 14 15 -3 34 -66 72 -59 119 42 260 36 51 38 57 27 85 -17 40 0 71 37 71 16 0 33 -5 40 -12z m127 -518 l0 -25 -158 -3 c-134 -2 -158 0 -163 13 -4 8 -4 22 0 30 5 13 29 15 163 13 l158 -3 0 -25z m-54 -52 c0 -2 4 -55 9 -119 6 -82 14 -131 29 -164 12 -26 21 -49 21 -51 0 -2 -74 -4 -165 -4 -91 0 -165 2 -165 5 0 4 6 18 14 33 17 33 33 120 42 225 l6 77 104 0 c57 0 104 -1 105 -2z m89 -377 c5 -11 10 -29 10 -39 0 -11 18 -43 40 -71 29 -37 40 -60 40 -85 0 -19 -4 -37 -9 -40 -5 -3 -126 -6 -270 -7 -191 0 -266 3 -276 11 -26 21 -17 65 20 110 19 23 40 60 46 83 6 23 13 45 16 50 2 4 87 7 188 7 172 0 185 -1 195 -19z" />
      </g>
      <g id="piece-white-knight">
        <path id="piece-white-knight-base" fill="#ffffff" d="M3528 1558 c-11 -35 -19 -43 -43 -48 -39 -8 -69 -25 -128 -72 -27 -21 -73 -45 -102 -53 -73 -22 -90 -43 -91 -119 -1 -77 1 -82 38 -95 45 -16 84 -13 126 8 20 10 65 21 99 24 l63 5 -14 -26 c-8 -15 -48 -71 -89 -125 -93 -122 -129 -195 -135 -267 -4 -49 -1 -60 23 -88 21 -25 24 -35 16 -51 -6 -11 -11 -28 -11 -38 0 -18 -15 -44 -65 -112 -32 -44 -32 -85 0 -116 l24 -25 270 0 c181 0 278 4 295 11 14 7 30 25 35 41 12 35 0 67 -54 142 -19 26 -35 58 -35 71 0 12 -7 29 -16 36 -14 12 -12 17 25 49 35 29 42 43 48 85 4 28 6 78 4 113 -1 35 4 80 11 100 6 20 11 60 9 89 -1 29 2 68 9 88 10 29 8 43 -8 87 -11 29 -23 71 -26 93 -6 35 -14 45 -62 75 -30 19 -57 43 -60 53 -3 11 -16 17 -35 17 -24 0 -34 8 -57 45 -15 25 -32 45 -38 45 -7 0 -18 -19 -26 -42z" />
        <path id="piece-white-knight-part-1" d="M3528 1558 c-11 -35 -19 -43 -43 -48 -39 -8 -69 -25 -128 -72 -27 -21 -73 -45 -102 -53 -73 -22 -90 -43 -91 -119 -1 -77 1 -82 38 -95 45 -16 84 -13 126 8 20 10 65 21 99 24 l63 5 -14 -26 c-8 -15 -48 -71 -89 -125 -93 -122 -129 -195 -135 -267 -4 -49 -1 -60 23 -88 21 -25 24 -35 16 -51 -6 -11 -11 -28 -11 -38 0 -18 -15 -44 -65 -112 -32 -44 -32 -85 0 -116 l24 -25 270 0 c181 0 278 4 295 11 14 7 30 25 35 41 12 35 0 67 -54 142 -19 26 -35 58 -35 71 0 12 -7 29 -16 36 -14 12 -12 17 25 49 35 29 42 43 48 85 4 28 6 78 4 113 -1 35 4 80 11 100 6 20 11 60 9 89 -1 29 2 68 9 88 10 29 8 43 -8 87 -11 29 -23 71 -26 93 -6 35 -14 45 -62 75 -30 19 -57 43 -60 53 -3 11 -16 17 -35 17 -24 0 -34 8 -57 45 -15 25 -32 45 -38 45 -7 0 -18 -19 -26 -42z m55 -38 c14 -23 25 -30 48 -30 16 0 29 -4 29 -10 0 -5 20 -23 45 -40 25 -17 45 -34 45 -39 0 -4 -12 -12 -27 -19 -26 -10 -25 -11 13 -6 l41 5 7 -41 c4 -23 13 -55 22 -71 12 -23 12 -30 2 -33 -7 -2 -29 -8 -48 -14 l-35 -10 47 -1 47 -1 -10 -32 c-5 -18 -8 -51 -7 -73 l3 -40 -50 -5 -50 -6 47 -8 c46 -8 47 -9 40 -35 -4 -14 -7 -46 -7 -71 0 -52 -7 -59 -55 -61 -34 -1 -34 -1 9 -10 24 -5 45 -10 46 -11 1 -2 0 -20 -3 -41 -4 -35 -7 -38 -46 -44 l-41 -7 34 -8 34 -9 -34 -35 -33 -34 -178 0 c-200 0 -218 5 -238 65 -21 64 19 156 131 301 73 95 105 148 113 192 7 38 4 39 -33 11 -17 -12 -50 -22 -87 -26 -32 -3 -68 -12 -79 -19 -23 -17 -104 -18 -125 -3 -10 7 -11 12 -4 15 6 3 20 12 30 20 18 15 18 15 -8 9 -27 -5 -28 -4 -28 33 0 47 19 67 84 86 26 8 71 33 100 55 55 43 113 71 145 71 13 0 21 9 26 30 4 17 10 30 14 30 4 0 15 -13 24 -30z m144 -912 c7 -24 30 -67 52 -97 44 -56 49 -76 28 -105 -12 -17 -35 -18 -292 -18 -218 1 -280 4 -286 14 -18 27 -8 65 30 116 22 28 43 67 46 84 4 18 9 36 12 41 2 4 93 7 202 7 l197 0 11 -42z" />
        <path id="piece-white-knight-part-2" d="M3418 1409 c-19 -10 -24 -29 -9 -29 5 0 19 9 32 20 26 21 9 28 -23 9z" />
        <path id="piece-white-knight-part-3" d="M3200 1280 c0 -5 5 -10 10 -10 6 0 10 5 10 10 0 6 -4 10 -10 10 -5 0 -10 -4 -10 -10z" />
      </g>
      <g id="piece-white-rook">
        <path id="piece-white-rook-base" fill="#ffffff" d="M4217 1507 c-5 -13 59 -191 83 -230 6 -9 8 -27 5 -40 -4 -20 -31 -367 -38 -494 -2 -28 -8 -57 -14 -65 -6 -7 -14 -30 -18 -51 -4 -21 -25 -62 -47 -90 -21 -29 -41 -62 -44 -75 -8 -28 13 -80 37 -92 10 -6 147 -10 324 -10 l306 0 24 25 c41 40 34 77 -31 162 -19 25 -37 62 -40 84 -4 22 -15 46 -25 53 -11 7 -16 15 -13 19 9 8 -26 507 -36 534 -5 12 -6 24 -1 27 15 10 94 225 87 241 -5 13 -19 15 -78 13 -67 -3 -73 -5 -76 -25 -2 -15 -10 -23 -22 -23 -12 0 -20 8 -22 23 -3 20 -9 22 -80 25 -76 3 -78 2 -84 -23 -8 -32 -32 -32 -40 0 -6 24 -10 25 -79 25 -52 0 -74 -4 -78 -13z" />
        <path id="piece-white-rook-part-1" d="M4217 1507 c-5 -13 59 -191 83 -230 6 -9 8 -27 5 -40 -4 -20 -31 -367 -38 -494 -2 -28 -8 -57 -14 -65 -6 -7 -14 -30 -18 -51 -4 -21 -25 -62 -47 -90 -21 -29 -41 -62 -44 -75 -8 -28 13 -80 37 -92 10 -6 147 -10 324 -10 l306 0 24 25 c41 40 34 77 -31 162 -19 25 -37 62 -40 84 -4 22 -15 46 -25 53 -11 7 -16 15 -13 19 9 8 -26 507 -36 534 -5 12 -6 24 -1 27 15 10 94 225 87 241 -5 13 -19 15 -78 13 -67 -3 -73 -5 -76 -25 -2 -15 -10 -23 -22 -23 -12 0 -20 8 -22 23 -3 20 -9 22 -80 25 -76 3 -78 2 -84 -23 -8 -32 -32 -32 -40 0 -6 24 -10 25 -79 25 -52 0 -74 -4 -78 -13z m135 -34 c3 -30 23 -39 64 -29 17 5 24 13 24 32 0 24 2 25 58 22 54 -3 57 -4 60 -31 3 -26 6 -28 45 -25 37 3 42 6 45 31 3 25 6 27 53 27 33 0 49 -4 49 -13 0 -18 -58 -168 -76 -194 -14 -22 -20 -23 -173 -23 -185 0 -172 -7 -221 120 -18 47 -35 91 -37 98 -4 9 10 12 50 12 53 0 56 -1 59 -27z m312 -238 c3 -8 12 -118 21 -243 9 -125 17 -236 20 -246 2 -11 0 -28 -6 -38 -9 -16 -25 -18 -198 -18 -150 0 -191 3 -200 14 -9 11 -8 62 3 218 19 251 25 308 32 319 3 5 76 9 164 9 131 0 159 -3 164 -15z m64 -577 c7 -7 12 -23 12 -36 0 -30 14 -57 57 -106 36 -43 44 -94 19 -115 -20 -17 -612 -17 -632 0 -25 21 -16 63 26 119 22 29 43 69 46 89 4 20 11 42 17 49 13 17 438 17 455 0z" />
      </g>
      <g id="piece-white-pawn">
        <path id="piece-white-pawn-base" fill="#ffffff" d="M5251 1383 c-68 -35 -94 -112 -57 -168 21 -32 21 -33 -11 -37 -40 -4 -55 -50 -26 -79 l20 -21 -24 -131 c-13 -73 -26 -158 -30 -189 -3 -32 -12 -63 -19 -69 -8 -6 -14 -22 -14 -36 0 -33 -22 -82 -59 -133 -39 -54 -41 -101 -6 -135 l24 -25 240 0 c159 0 249 4 265 11 15 7 30 26 36 45 13 38 0 74 -49 139 -18 23 -35 61 -40 90 -5 27 -14 51 -20 53 -6 2 -11 17 -11 33 0 16 -11 91 -25 165 -29 154 -31 190 -11 197 39 15 15 87 -29 87 l-25 0 20 33 c61 100 -46 223 -149 170z" transform="translate(0 40.555556) scale(1 0.888889)" />
        <path id="piece-white-pawn-part-1" fill="#000000" fill-rule="evenodd" d="M5251 1383 c-68 -35 -94 -112 -57 -168 21 -32 21 -33 -11 -37 -40 -4 -55 -50 -26 -79 l20 -21 -24 -131 c-13 -73 -26 -158 -30 -189 -3 -32 -12 -63 -19 -69 -8 -6 -14 -22 -14 -36 0 -33 -22 -82 -59 -133 -39 -54 -41 -101 -6 -135 l24 -25 240 0 c159 0 249 4 265 11 15 7 30 26 36 45 13 38 0 74 -49 139 -18 23 -35 61 -40 90 -5 27 -14 51 -20 53 -6 2 -11 17 -11 33 0 16 -11 91 -25 165 -29 154 -31 190 -11 197 39 15 15 87 -29 87 l-25 0 20 33 c61 100 -46 223 -149 170z m110 -42 c21 -22 29 -39 29 -66 0 -44 -45 -95 -84 -95 -56 0 -107 47 -106 97 1 28 25 64 51 79 40 22 78 17 110 -15z m58 -190 c8 -5 11 -16 8 -25 -5 -13 -26 -16 -126 -16 -120 0 -139 5 -127 35 4 12 29 15 118 15 62 0 119 -4 127 -9z m-24 -103 c17 -114 46 -284 50 -295 2 -7 2 -20 -1 -28 -9 -22 -289 -22 -297 -1 -3 8 7 83 24 167 16 84 29 163 29 176 0 22 2 23 94 23 l94 0 7 -42z m81 -416 c8 -30 32 -79 54 -109 42 -59 49 -88 28 -116 -12 -15 -40 -17 -256 -17 -171 -1 -248 3 -258 11 -25 21 -16 69 25 130 22 32 42 78 46 101 4 24 9 46 12 51 2 4 79 6 170 5 l166 -3 13 -53z" transform="translate(0 40.555556) scale(1 0.888889)" />
      </g>
    </g>
  </g>
</svg>
