<?xml version="1.0" encoding="UTF-8" standalone="no"?>
<svg
   version="1.0"
   width="600.000000pt"
   height="400.000000pt"
   viewBox="0 0 600.000000 400.000000"
   preserveAspectRatio="xMidYMid meet"
   id="svg1"
   sodipodi:docname="chess.svg"
   inkscape:version="1.4.3 (0d15f75, 2025-12-25)"
   xmlns:inkscape="http://www.inkscape.org/namespaces/inkscape"
   xmlns:sodipodi="http://sodipodi.sourceforge.net/DTD/sodipodi-0.dtd"
   xmlns="http://www.w3.org/2000/svg"
   xmlns:svg="http://www.w3.org/2000/svg">
  <defs
     id="defs1" />
  <sodipodi:namedview
     id="namedview1"
     pagecolor="#ffffff"
     bordercolor="#000000"
     borderopacity="0.25"
     inkscape:showpageshadow="2"
     inkscape:pageopacity="0.0"
     inkscape:pagecheckerboard="0"
     inkscape:deskcolor="#d1d1d1"
     inkscape:document-units="pt"
     showgrid="false"
     inkscape:zoom="1.3717872"
     inkscape:cx="505.18041"
     inkscape:cy="348.81505"
     inkscape:window-width="2560"
     inkscape:window-height="1377"
     inkscape:window-x="-8"
     inkscape:window-y="-8"
     inkscape:window-maximized="1"
     inkscape:current-layer="svg1" />
  <g
     id="chess-piece-atlas"
     transform="translate(0.000000,400.000000) scale(0.100000,-0.100000)"
     fill="#000000"
     stroke="none">
    <g
       id="pieces-black"
       stroke="none">
      <g
         id="piece-black-king">
        <g
           id="piece-black-king-silhouette"
           fill="#000000"
           stroke="#ffffff"
           stroke-width="44"
           stroke-linejoin="round"
           stroke-linecap="round">
          <path
             id="piece-black-king-silhouette-outline"
             d="M556.2 2301.9 L568.7 2313.3 L587.4 2320.2 L584.1 2328.5 L585.3 2336.3 L630.7 2421.2 L655.0 2490.9 L666.0 2543.0 L674.3 2603.4 L687.0 2810.8 L690.4 2819.9 L628.5 2826.0 L614.6 2833.8 L607.1 2846.5 L605.5 2875.7 L612.6 2897.3 L627.1 2905.8 L667.9 2912.5 L603.9 3049.1 L578.5 3114.0 L564.2 3176.8 L567.7 3217.3 L575.4 3234.7 L587.2 3249.6 L620.8 3271.1 L678.7 3287.2 L753.0 3296.2 L748.4 3319.0 L716.3 3325.7 L702.6 3334.5 L696.3 3346.9 L695.0 3363.2 L699.1 3400.7 L707.4 3419.2 L722.5 3429.8 L752.5 3436.3 L754.1 3491.6 L758.7 3501.3 L770.0 3506.0 L874.6 3505.3 L881.3 3501.3 L885.7 3493.1 L886.9 3436.6 L917.1 3435.2 L931.4 3430.3 L941.8 3418.0 L945.6 3398.8 L945.1 3357.9 L939.4 3339.2 L924.9 3326.7 L891.2 3318.8 L887.2 3299.3 L976.7 3285.9 L1032.6 3269.2 L1056.7 3256.4 L1071.9 3243.9 L1083.0 3228.8 L1088.7 3213.5 L1088.9 3172.7 L1072.6 3111.4 L1044.5 3041.3 L984.2 2911.0 L1025.5 2904.1 L1041.4 2896.2 L1053.2 2876.0 L1052.6 2855.9 L1043.2 2838.9 L1029.7 2829.2 L1009.0 2823.8 L969.0 2820.6 L973.0 2810.7 L986.3 2578.4 L999.8 2496.4 L1023.5 2422.6 L1038.7 2392.5 L1074.2 2337.4 L1075.9 2328.3 L1072.1 2319.6 L1091.7 2314.5 L1101.8 2306.2 L1139.1 2215.3 L1210.3 2115.4 L1219.8 2081.5 L1219.4 2049.2 L1216.2 2034.4 L1204.3 2017.3 L1182.3 2005.9 L1152.6 1999.9 L1092.5 1995.7 L587.6 1995.1 L507.8 1999.8 L470.4 2008.4 L451.7 2021.1 L443.2 2036.0 L440.0 2067.2 L443.3 2096.4 L460.8 2132.8 L525.7 2224.3 L533.5 2241.2 L541.1 2274.9 L556.2 2301.9 Z"
             style="fill:#ffffff;fill-opacity:1" />
        </g>
        <path
           id="piece-black-king-part-1"
           d="M770 3456 c0 -30 -3 -35 -27 -38 -24 -3 -28 -8 -31 -40 -3 -34 -1 -37 25 -40 22 -2 29 -9 31 -30 3 -24 0 -28 -22 -28 -14 0 -48 -5 -77 -11 -112 -24 -117 -77 -24 -271 l37 -78 144 0 145 0 43 93 c53 113 71 179 55 208 -14 28 -66 48 -140 56 -57 6 -60 7 -57 32 2 20 9 27 31 29 24 3 27 7 27 43 0 37 -2 39 -30 39 -28 0 -30 3 -30 35 l0 35 -50 0 -50 0 0 -34z"
           stroke="#ffffff"
           stroke-width="5"
           stroke-linejoin="round"
           stroke-linecap="round" />
        <path
           id="piece-black-king-part-2"
           d="M624 2886 c-3 -8 -4 -23 -2 -33 3 -17 18 -18 202 -18 175 0 200 2 209 17 8 12 7 21 -2 32 -19 23 -399 24 -407 2z"
           stroke="#ffffff"
           stroke-width="5"
           stroke-linejoin="round"
           stroke-linecap="round" />
        <path
           id="piece-black-king-part-3"
           d="M697 2688 c-8 -146 -27 -234 -68 -305 l-29 -53 230 0 230 0 -26 40 c-44 65 -65 160 -71 308 l-6 132 -127 0 -127 0 -6 -122z"
           stroke="#ffffff"
           stroke-width="5"
           stroke-linejoin="round"
           stroke-linecap="round" />
        <path
           id="piece-black-king-part-4"
           d="M566 2288 c-9 -12 -16 -33 -16 -45 0 -12 -21 -48 -47 -80 -34 -42 -47 -66 -47 -89 0 -66 -10 -64 374 -64 385 0 374 -2 374 65 0 24 -11 45 -42 80 -23 26 -47 66 -53 89 -6 23 -16 47 -21 54 -8 9 -72 12 -259 12 -245 0 -248 0 -263 -22z"
           stroke="#ffffff"
           stroke-width="5"
           stroke-linejoin="round"
           stroke-linecap="round" />
      </g>
      <g
         id="piece-black-queen">
        <g
           id="piece-black-queen-silhouette"
           fill="#000000"
           stroke="#ffffff"
           stroke-width="44"
           stroke-linejoin="round"
           stroke-linecap="round">
          <path
             id="piece-black-queen-silhouette-outline"
             d="M1510.8 2310.5 L1534.8 2319.0 L1535.9 2332.4 L1580.2 2434.2 L1600.8 2507.3 L1613.8 2578.7 L1620.9 2641.6 L1624.0 2796.6 L1592.8 2800.8 L1572.9 2808.3 L1556.4 2824.2 L1546.6 2842.7 L1546.7 2867.3 L1560.5 2889.1 L1576.5 2897.3 L1609.1 2902.1 L1569.3 2991.3 L1534.7 3085.8 L1500.7 3199.4 L1494.9 3227.8 L1494.9 3245.4 L1504.6 3258.0 L1520.0 3259.3 L1536.1 3249.9 L1565.6 3222.5 L1600.0 3281.3 L1613.4 3288.0 L1624.6 3283.1 L1654.3 3245.3 L1675.2 3286.4 L1659.9 3316.6 L1654.6 3343.5 L1657.9 3376.3 L1668.7 3402.5 L1688.1 3425.3 L1711.3 3439.4 L1737.9 3446.0 L1768.7 3443.7 L1789.8 3435.9 L1808.4 3423.6 L1828.4 3402.8 L1840.4 3381.4 L1844.7 3361.0 L1843.2 3339.6 L1822.9 3285.4 L1844.3 3245.7 L1873.6 3282.2 L1885.0 3287.0 L1898.3 3279.8 L1927.2 3225.8 L1955.2 3250.6 L1976.8 3262.8 L1993.2 3261.5 L2002.4 3249.0 L2002.4 3232.4 L1996.9 3203.6 L1965.7 3094.4 L1932.2 2999.6 L1891.7 2903.7 L1919.4 2899.0 L1934.2 2891.1 L1949.1 2868.6 L1955.1 2847.4 L1949.0 2829.5 L1928.1 2808.9 L1907.2 2800.8 L1873.2 2796.4 L1884.1 2619.6 L1898.9 2510.1 L1923.0 2426.7 L1974.7 2326.3 L1975.2 2315.1 L1992.8 2306.4 L2006.4 2292.1 L2014.1 2274.7 L2021.8 2242.1 L2032.3 2219.4 L2103.5 2109.3 L2114.8 2071.9 L2113.9 2052.8 L2109.3 2038.5 L2095.0 2017.4 L2079.7 2006.0 L2059.5 2000.3 L2021.8 1996.6 L1530.1 1994.7 L1459.3 1997.5 L1422.7 2004.9 L1406.8 2017.4 L1390.7 2044.4 L1385.6 2067.7 L1388.8 2091.0 L1406.2 2127.2 L1464.0 2212.7 L1477.3 2239.8 L1491.9 2285.7 L1500.9 2300.9 L1510.8 2310.5 Z"
             style="fill:#ffffff;fill-opacity:1" />
        </g>
        <path
           id="piece-black-queen-part-1"
           d="M1692 3407 c-25 -26 -29 -74 -8 -102 11 -16 10 -23 -7 -53 l-21 -35 -21 27 -22 28 -22 -38 -22 -37 -29 28 c-22 21 -30 24 -30 13 0 -30 50 -187 81 -257 l32 -71 127 0 127 0 32 75 c38 90 86 254 77 262 -3 4 -19 -6 -34 -20 l-29 -27 -19 35 -19 36 -21 -26 -21 -27 -21 33 c-19 30 -19 36 -6 60 20 40 17 67 -11 94 -32 33 -83 34 -113 2z"
           stroke="#ffffff"
           stroke-width="5"
           stroke-linejoin="round"
           stroke-linecap="round" />
        <path
           id="piece-black-queen-part-2"
           d="M1572 2878 c-16 -16 -15 -33 4 -52 13 -13 43 -16 174 -16 131 0 161 3 174 16 19 18 19 20 6 45 -10 18 -23 19 -178 19 -117 0 -172 -4 -180 -12z"
           stroke="#ffffff"
           stroke-width="5"
           stroke-linejoin="round"
           stroke-linecap="round" />
        <path
           id="piece-black-queen-part-3"
           d="M1640 2718 c0 -120 -24 -248 -59 -325 -17 -36 -31 -67 -31 -69 0 -2 92 -4 205 -4 l205 0 -29 53 c-40 70 -59 157 -67 305 l-7 122 -109 0 -108 0 0 -82z"
           stroke="#ffffff"
           stroke-width="5"
           stroke-linejoin="round"
           stroke-linecap="round" />
        <path
           id="piece-black-queen-part-4"
           d="M1517 2295 c-8 -7 -18 -30 -21 -49 -4 -19 -27 -60 -51 -92 -48 -62 -54 -87 -29 -122 15 -22 16 -22 333 -22 295 0 319 1 334 18 28 30 20 65 -28 126 -24 32 -47 73 -51 92 -12 64 -12 64 -254 64 -178 0 -221 -3 -233 -15z"
           stroke="#ffffff"
           stroke-width="5"
           stroke-linejoin="round"
           stroke-linecap="round" />
      </g>
      <g
         id="piece-black-bishop">
        <g
           id="piece-black-bishop-silhouette"
           fill="#000000"
           stroke="#ffffff"
           stroke-width="44"
           stroke-linejoin="round"
           stroke-linecap="round">
          <path
             id="piece-black-bishop-silhouette-outline"
             d="M2366.4 2296.2 L2389.2 2299.2 L2385.4 2306.6 L2386.1 2315.7 L2418.8 2383.2 L2435.0 2434.4 L2450.1 2524.5 L2455.5 2652.9 L2461.8 2689.7 L2401.6 2697.4 L2385.9 2709.5 L2376.3 2727.8 L2374.6 2746.8 L2380.3 2764.4 L2396.0 2778.4 L2420.6 2781.5 L2413.9 2791.7 L2414.3 2805.2 L2420.7 2814.9 L2436.2 2826.0 L2406.0 2869.5 L2389.7 2900.7 L2382.4 2933.2 L2385.2 2966.5 L2394.3 2995.1 L2414.4 3036.1 L2487.5 3149.6 L2506.1 3185.0 L2508.7 3194.2 L2500.6 3217.8 L2497.0 3240.3 L2498.6 3258.0 L2504.6 3273.3 L2517.5 3290.1 L2539.6 3308.9 L2554.9 3314.7 L2573.0 3314.1 L2611.1 3300.0 L2624.6 3289.3 L2634.6 3275.8 L2641.4 3257.0 L2642.8 3238.9 L2639.5 3217.2 L2630.4 3190.7 L2631.8 3179.9 L2721.8 3045.0 L2743.3 3005.1 L2753.7 2977.0 L2758.7 2942.4 L2753.8 2909.8 L2740.1 2878.5 L2705.2 2823.2 L2716.2 2812.0 L2721.7 2799.7 L2720.2 2787.4 L2712.5 2777.8 L2735.7 2772.8 L2751.1 2763.5 L2762.9 2745.2 L2765.7 2725.8 L2757.5 2709.7 L2742.6 2700.0 L2716.6 2693.2 L2680.4 2689.4 L2688.5 2558.5 L2697.2 2483.9 L2717.4 2394.9 L2732.5 2356.5 L2756.9 2315.7 L2755.8 2301.9 L2781.7 2297.0 L2794.5 2285.8 L2827.7 2209.3 L2880.3 2135.8 L2896.4 2107.7 L2906.1 2069.7 L2904.3 2050.1 L2899.1 2035.6 L2886.4 2017.7 L2870.1 2006.0 L2851.2 2000.5 L2817.9 1997.1 L2639.3 1995.5 L2268.5 2000.4 L2260.5 2008.3 L2241.1 2053.6 L2238.8 2077.2 L2243.4 2101.7 L2262.6 2137.5 L2302.7 2181.3 L2320.7 2208.1 L2330.7 2230.8 L2335.9 2262.2 L2343.7 2280.3 L2352.6 2290.9 L2366.4 2296.2 Z"
             style="fill:#ffffff;fill-opacity:1" />
        </g>
        <path
           id="piece-black-bishop-part-1"
           d="M2529 3279 c-20 -20 -21 -41 -5 -80 4 -10 -9 -38 -36 -78 -102 -148 -111 -186 -58 -258 28 -37 29 -43 14 -51 -40 -22 -1 -32 126 -32 127 0 154 6 126 30 -12 10 -10 18 16 54 51 73 42 115 -54 246 -47 66 -50 72 -38 99 15 38 5 70 -27 82 -34 13 -40 12 -64 -12z"
           stroke="#ffffff"
           stroke-width="5"
           stroke-linejoin="round"
           stroke-linecap="round" />
        <path
           id="piece-black-bishop-part-2"
           d="M2403 2764 c-19 -8 -16 -42 5 -52 9 -5 83 -9 164 -9 160 0 194 8 172 44 -10 16 -29 18 -170 20 -87 1 -165 -1 -171 -3z"
           stroke="#ffffff"
           stroke-width="5"
           stroke-linejoin="round"
           stroke-linecap="round" />
        <path
           id="piece-black-bishop-part-3"
           d="M2477 2684 c-4 -4 -7 -39 -7 -78 0 -100 -17 -192 -45 -248 l-24 -48 171 0 170 0 -15 24 c-28 42 -50 139 -56 246 l-6 105 -90 3 c-50 1 -94 0 -98 -4z"
           stroke="#ffffff"
           stroke-width="5"
           stroke-linejoin="round"
           stroke-linecap="round" />
        <path
           id="piece-black-bishop-part-4"
           d="M2362 2278 c-7 -7 -12 -20 -12 -30 0 -26 -23 -69 -53 -96 -39 -37 -52 -75 -35 -109 l13 -28 289 -3 c258 -2 291 -1 308 14 30 28 23 70 -22 123 -23 27 -46 66 -52 87 -5 22 -15 42 -22 46 -20 13 -401 9 -414 -4z"
           stroke="#ffffff"
           stroke-width="5"
           stroke-linejoin="round"
           stroke-linecap="round" />
      </g>
      <g
         id="piece-black-knight">
        <g
           id="piece-black-knight-silhouette"
           fill="#000000"
           stroke="#ffffff"
           stroke-width="44"
           stroke-linejoin="round"
           stroke-linecap="round">
          <path
             id="piece-black-knight-silhouette-outline"
             d="M3187.4 2939.0 L3180.0 2946.2 L3175.5 2958.2 L3175.1 3006.9 L3184.8 3038.7 L3205.6 3064.5 L3242.5 3086.9 L3307.3 3109.7 L3350.6 3128.8 L3487.3 3201.7 L3527.1 3217.3 L3572.7 3229.0 L3579.8 3237.4 L3598.8 3281.3 L3606.3 3290.5 L3614.9 3295.3 L3628.1 3294.2 L3639.0 3285.8 L3684.9 3220.3 L3695.7 3216.6 L3729.0 3214.1 L3744.8 3208.7 L3781.0 3175.4 L3866.1 3117.1 L3868.8 3105.3 L3862.4 3095.1 L3876.0 3089.1 L3883.4 3078.5 L3892.8 3021.4 L3924.0 2929.6 L3919.1 2918.5 L3904.7 2912.4 L3918.3 2902.6 L3922.0 2887.1 L3911.3 2833.5 L3903.8 2737.4 L3899.5 2728.9 L3890.2 2724.2 L3893.9 2707.6 L3884.6 2660.3 L3877.6 2555.4 L3872.6 2535.9 L3863.8 2524.6 L3872.7 2516.8 L3878.2 2505.5 L3878.1 2475.1 L3869.0 2430.4 L3861.3 2419.1 L3850.2 2411.6 L3858.9 2408.9 L3865.3 2402.2 L3866.9 2393.2 L3864.2 2386.0 L3764.9 2317.8 L3781.4 2311.7 L3796.4 2295.8 L3834.3 2215.8 L3899.0 2131.7 L3915.8 2102.7 L3921.6 2080.7 L3920.3 2058.1 L3912.5 2036.3 L3894.3 2002.0 L3885.2 1999.0 L3314.9 1996.3 L3248.9 2002.9 L3230.8 2011.3 L3216.8 2025.8 L3208.6 2040.5 L3204.4 2059.7 L3205.5 2077.0 L3212.3 2098.9 L3232.0 2134.1 L3291.0 2217.0 L3307.1 2248.8 L3319.2 2287.0 L3338.4 2309.9 L3281.2 2365.3 L3266.4 2391.5 L3264.3 2413.5 L3268.2 2454.9 L3286.0 2520.7 L3314.9 2582.2 L3355.9 2647.7 L3399.1 2705.0 L3468.5 2788.7 L3512.3 2850.0 L3541.1 2901.5 L3553.6 2941.2 L3524.7 2925.7 L3502.1 2918.3 L3472.6 2914.7 L3394.2 2914.1 L3322.7 2884.2 L3289.5 2877.5 L3255.5 2874.9 L3211.5 2878.8 L3183.5 2892.0 L3175.8 2903.3 L3174.1 2914.7 L3177.6 2926.0 L3187.4 2939.0 Z"
             style="fill:#ffffff;fill-opacity:1" />
        </g>
        <path
           id="piece-black-knight-part-1"
           d="M3600 3246 c-9 -29 -16 -34 -53 -40 -23 -4 -78 -28 -122 -55 -44 -27 -105 -56 -135 -64 -74 -22 -100 -47 -100 -98 0 -40 1 -41 28 -35 l27 6 -27 -17 c-16 -10 -28 -23 -28 -30 0 -31 119 -29 167 3 21 14 42 18 86 15 44 -2 65 2 92 18 l35 20 0 -22 c0 -43 -48 -123 -129 -217 -96 -110 -150 -209 -158 -286 -6 -52 -5 -55 31 -89 l37 -35 195 0 194 0 55 38 56 37 -43 10 -43 9 45 6 c44 5 45 6 51 48 6 46 7 45 -61 55 -19 3 -16 5 10 6 19 1 40 5 45 9 6 4 10 34 10 67 1 33 4 72 9 88 8 25 6 27 -22 27 -17 0 -34 5 -37 10 -4 6 10 10 33 10 l40 0 4 63 c3 34 8 70 12 79 6 14 1 17 -36 20 l-43 3 41 13 42 12 -19 50 c-10 28 -19 62 -19 76 0 26 -2 26 -47 22 l-48 -5 39 17 39 18 -57 37 c-31 21 -56 42 -56 46 0 5 -15 9 -33 9 -28 0 -37 6 -56 40 -12 22 -26 40 -31 40 -5 0 -13 -15 -20 -34z m-110 -126 c-8 -5 -22 -10 -30 -10 -13 0 -13 1 0 10 8 5 22 10 30 10 13 0 13 -1 0 -10z m-263 -117 c-4 -3 -10 -3 -14 0 -3 4 0 7 7 7 7 0 10 -3 7 -7z"
           stroke="#ffffff"
           stroke-width="5"
           stroke-linejoin="round"
           stroke-linecap="round" />
        <path
           id="piece-black-knight-part-2"
           d="M3354 2300 c-14 -5 -24 -21 -28 -44 -4 -21 -28 -62 -56 -98 -54 -66 -63 -103 -32 -132 17 -15 51 -16 333 -14 l314 3 13 28 c17 36 9 58 -43 118 -24 27 -49 67 -55 89 -6 22 -19 44 -30 50 -23 12 -386 12 -416 0z"
           stroke="#ffffff"
           stroke-width="5"
           stroke-linejoin="round"
           stroke-linecap="round" />
      </g>
      <g
         id="piece-black-rook">
        <g
           id="piece-black-rook-silhouette"
           fill="#000000"
           stroke="#ffffff"
           stroke-width="44"
           stroke-linejoin="round"
           stroke-linecap="round">
          <path
             id="piece-black-rook-silhouette-outline"
             d="M4224.5 3151.8 L4233.9 3166.7 L4253.3 3173.5 L4298.5 3174.2 L4350.1 3170.1 L4366.8 3164.2 L4376.9 3154.6 L4386.5 3117.5 L4419.0 3116.3 L4423.5 3117.5 L4424.7 3164.6 L4433.9 3174.8 L4581.6 3175.9 L4590.2 3172.4 L4595.3 3164.6 L4596.3 3117.4 L4599.1 3116.9 L4639.0 3122.3 L4648.7 3159.2 L4657.3 3168.1 L4671.6 3173.7 L4714.9 3176.0 L4761.5 3174.0 L4782.2 3168.2 L4793.3 3157.6 L4795.4 3140.5 L4782.1 3097.3 L4747.4 3012.4 L4715.0 2944.1 L4693.1 2910.6 L4680.6 2904.3 L4660.6 2900.0 L4690.5 2894.1 L4698.8 2887.6 L4702.5 2879.3 L4711.1 2815.2 L4723.6 2669.8 L4736.8 2470.4 L4739.2 2368.5 L4736.2 2345.9 L4730.7 2333.6 L4719.9 2325.3 L4704.9 2321.3 L4746.1 2312.2 L4766.7 2296.7 L4774.1 2280.0 L4778.4 2243.7 L4789.5 2217.6 L4808.1 2190.4 L4847.6 2148.1 L4866.6 2116.1 L4876.4 2083.1 L4875.9 2050.7 L4864.6 2023.0 L4845.0 2004.1 L4799.9 1998.7 L4648.3 1994.9 L4237.9 1996.2 L4204.5 1999.1 L4182.7 2004.9 L4169.4 2014.4 L4154.8 2035.7 L4145.6 2067.7 L4152.3 2101.0 L4166.4 2127.5 L4225.9 2216.0 L4237.3 2239.8 L4254.9 2291.5 L4263.6 2304.3 L4274.1 2312.5 L4311.2 2321.4 L4296.1 2327.1 L4288.3 2335.3 L4282.5 2350.4 L4280.2 2370.3 L4281.5 2439.3 L4293.0 2615.2 L4306.7 2774.0 L4319.4 2866.1 L4330.1 2891.7 L4340.5 2897.7 L4355.3 2900.6 L4327.1 2910.4 L4304.6 2944.1 L4245.1 3077.7 L4227.2 3129.1 L4224.5 3151.8 Z"
             style="fill:#ffffff;fill-opacity:1" />
        </g>
        <path
           id="piece-black-rook-part-1"
           d="M4240 3147 c0 -26 80 -212 97 -224 12 -9 64 -13 173 -13 109 0 161 4 173 13 16 12 97 198 97 224 0 9 -17 13 -59 13 -58 0 -60 -1 -63 -27 -3 -24 -8 -28 -40 -31 -36 -3 -38 -2 -38 27 l0 31 -70 0 -70 0 0 -30 c0 -28 -3 -30 -34 -30 -30 0 -35 3 -38 28 -3 26 -6 27 -65 30 -48 2 -63 0 -63 -11z"
           stroke="#ffffff"
           stroke-width="5"
           stroke-linejoin="round"
           stroke-linecap="round" />
        <path
           id="piece-black-rook-part-2"
           d="M4342 2881 c-9 -6 -19 -82 -33 -267 -16 -224 -17 -260 -5 -273 20 -19 393 -18 413 1 10 11 9 64 -5 268 -10 140 -21 261 -26 268 -8 14 -322 17 -344 3z"
           stroke="#ffffff"
           stroke-width="5"
           stroke-linejoin="round"
           stroke-linecap="round" />
        <path
           id="piece-black-rook-part-3"
           d="M4277 2295 c-8 -7 -18 -30 -21 -49 -4 -19 -27 -60 -51 -92 -48 -62 -54 -87 -29 -122 15 -22 16 -22 332 -22 174 0 322 4 329 8 40 26 30 95 -22 142 -32 29 -55 71 -55 99 0 48 -16 51 -250 51 -178 0 -221 -3 -233 -15z"
           stroke="#ffffff"
           stroke-width="5"
           stroke-linejoin="round"
           stroke-linecap="round" />
      </g>
      <g
         id="piece-black-pawn">
        <g
           id="piece-black-pawn-silhouette"
           fill="#000000"
           stroke="#ffffff"
           stroke-width="44"
           stroke-linejoin="round"
           stroke-linecap="round">
          <path
             id="piece-black-pawn-silhouette-outline"
             d="M5136.6 2319.1 L5126.0 2329.7 L5120.7 2341.7 L5120.2 2371.1 L5182.5 2629.8 L5160.3 2635.9 L5143.3 2647.4 L5135.7 2661.5 L5136.0 2680.8 L5143.7 2698.7 L5158.5 2708.5 L5182.6 2713.1 L5225.7 2714.6 L5197.5 2738.2 L5176.2 2771.2 L5167.2 2807.4 L5171.6 2849.2 L5179.7 2869.2 L5192.0 2888.5 L5225.6 2919.2 L5246.8 2930.8 L5280.6 2942.6 L5299.3 2944.7 L5319.9 2941.5 L5352.5 2926.0 L5379.9 2905.7 L5402.1 2878.0 L5415.8 2845.5 L5419.3 2802.9 L5410.7 2768.6 L5392.1 2738.8 L5358.9 2712.2 L5428.0 2705.5 L5442.8 2698.4 L5452.1 2685.1 L5454.6 2663.1 L5447.0 2645.8 L5430.6 2634.6 L5404.7 2628.3 L5414.5 2615.6 L5421.3 2598.0 L5439.1 2496.7 L5471.1 2372.2 L5472.4 2351.8 L5469.6 2338.2 L5461.9 2325.7 L5451.4 2317.5 L5475.6 2309.2 L5490.8 2295.6 L5501.4 2247.0 L5517.4 2207.3 L5531.1 2185.2 L5567.8 2140.3 L5585.6 2110.1 L5593.9 2086.8 L5596.0 2068.4 L5592.8 2047.3 L5585.1 2030.7 L5570.3 2012.9 L5552.9 2003.4 L5526.8 1998.3 L5485.4 1995.7 L5122.8 1995.6 L5061.9 2000.4 L5033.3 2010.4 L5016.5 2027.2 L5006.5 2049.3 L5004.6 2071.2 L5009.9 2098.3 L5029.0 2138.6 L5079.5 2213.3 L5105.9 2294.6 L5120.4 2311.7 L5136.6 2319.1 Z"
             style="fill:#ffffff;fill-opacity:1" />
        </g>
        <path
           id="piece-black-pawn-part-1"
           stroke="#ffffff"
           stroke-width="5"
           stroke-linejoin="round"
           stroke-linecap="round"
           d="M5260 2919 c-66 -26 -95 -91 -66 -148 31 -58 104 -77 162 -42 67 41 63 138 -8 181 -36 22 -51 24 -88 9z" />
        <path
           id="piece-black-pawn-part-2"
           stroke="#ffffff"
           stroke-width="5"
           stroke-linejoin="round"
           stroke-linecap="round"
           d="M5154 2685 c-14 -36 13 -45 140 -45 128 0 150 6 144 36 -3 17 -15 19 -141 22 -116 2 -138 0 -143 -13z" />
        <path
           id="piece-black-pawn-part-3"
           stroke="#ffffff"
           stroke-width="5"
           stroke-linejoin="round"
           stroke-linecap="round"
           d="M5197 2623 c-3 -5 -10 -35 -17 -68 -6 -33 -20 -93 -31 -133 -28 -103 -30 -102 146 -102 177 0 177 0 146 103 -11 39 -24 95 -27 122 -11 85 -12 85 -119 85 -51 0 -96 -3 -98 -7z" />
        <path
           id="piece-black-pawn-part-4"
           stroke="#ffffff"
           stroke-width="5"
           stroke-linejoin="round"
           stroke-linecap="round"
           d="M5138 2303 c-10 -2 -21 -17 -24 -31 -13 -58 -18 -69 -55 -118 -43 -57 -50 -101 -21 -127 16 -15 50 -17 264 -17 225 0 246 2 261 18 32 35 19 77 -40 142 -21 23 -43 77 -43 107 0 26 -42 33 -182 32 -79 -1 -151 -3 -160 -6z" />
      </g>
    </g>
    <g
       id="pieces-white"
       transform="translate(0,-1750)"
       fill="#ffffff"
       stroke="none">
      <g
         id="piece-white-king">
        <g
           id="piece-white-king-silhouette"
           fill="#ffffff"
           stroke="#000000"
           stroke-width="44"
           stroke-linejoin="round"
           stroke-linecap="round">
          <path
             id="piece-white-king-silhouette-outline"
             d="M556.2 2301.9 L568.7 2313.3 L587.4 2320.2 L584.1 2328.5 L585.3 2336.3 L630.7 2421.2 L655.0 2490.9 L666.0 2543.0 L674.3 2603.4 L687.0 2810.8 L690.4 2819.9 L628.5 2826.0 L614.6 2833.8 L607.1 2846.5 L605.5 2875.7 L612.6 2897.3 L627.1 2905.8 L667.9 2912.5 L603.9 3049.1 L578.5 3114.0 L564.2 3176.8 L567.7 3217.3 L575.4 3234.7 L587.2 3249.6 L620.8 3271.1 L678.7 3287.2 L753.0 3296.2 L748.4 3319.0 L716.3 3325.7 L702.6 3334.5 L696.3 3346.9 L695.0 3363.2 L699.1 3400.7 L707.4 3419.2 L722.5 3429.8 L752.5 3436.3 L754.1 3491.6 L758.7 3501.3 L770.0 3506.0 L874.6 3505.3 L881.3 3501.3 L885.7 3493.1 L886.9 3436.6 L917.1 3435.2 L931.4 3430.3 L941.8 3418.0 L945.6 3398.8 L945.1 3357.9 L939.4 3339.2 L924.9 3326.7 L891.2 3318.8 L887.2 3299.3 L976.7 3285.9 L1032.6 3269.2 L1056.7 3256.4 L1071.9 3243.9 L1083.0 3228.8 L1088.7 3213.5 L1088.9 3172.7 L1072.6 3111.4 L1044.5 3041.3 L984.2 2911.0 L1025.5 2904.1 L1041.4 2896.2 L1053.2 2876.0 L1052.6 2855.9 L1043.2 2838.9 L1029.7 2829.2 L1009.0 2823.8 L969.0 2820.6 L973.0 2810.7 L986.3 2578.4 L999.8 2496.4 L1023.5 2422.6 L1038.7 2392.5 L1074.2 2337.4 L1075.9 2328.3 L1072.1 2319.6 L1091.7 2314.5 L1101.8 2306.2 L1139.1 2215.3 L1210.3 2115.4 L1219.8 2081.5 L1219.4 2049.2 L1216.2 2034.4 L1204.3 2017.3 L1182.3 2005.9 L1152.6 1999.9 L1092.5 1995.7 L587.6 1995.1 L507.8 1999.8 L470.4 2008.4 L451.7 2021.1 L443.2 2036.0 L440.0 2067.2 L443.3 2096.4 L460.8 2132.8 L525.7 2224.3 L533.5 2241.2 L541.1 2274.9 L556.2 2301.9 Z"
             style="fill:#000000;fill-opacity:1" />
        </g>
        <path
           id="piece-white-king-part-1"
           d="M770 3456 c0 -30 -3 -35 -27 -38 -24 -3 -28 -8 -31 -40 -3 -34 -1 -37 25 -40 22 -2 29 -9 31 -30 3 -24 0 -28 -22 -28 -14 0 -48 -5 -77 -11 -112 -24 -117 -77 -24 -271 l37 -78 144 0 145 0 43 93 c53 113 71 179 55 208 -14 28 -66 48 -140 56 -57 6 -60 7 -57 32 2 20 9 27 31 29 24 3 27 7 27 43 0 37 -2 39 -30 39 -28 0 -30 3 -30 35 l0 35 -50 0 -50 0 0 -34z"
           stroke="#000000"
           stroke-width="5"
           stroke-linejoin="round"
           stroke-linecap="round" />
        <path
           id="piece-white-king-part-2"
           d="M624 2886 c-3 -8 -4 -23 -2 -33 3 -17 18 -18 202 -18 175 0 200 2 209 17 8 12 7 21 -2 32 -19 23 -399 24 -407 2z"
           stroke="#000000"
           stroke-width="5"
           stroke-linejoin="round"
           stroke-linecap="round" />
        <path
           id="piece-white-king-part-3"
           d="M697 2688 c-8 -146 -27 -234 -68 -305 l-29 -53 230 0 230 0 -26 40 c-44 65 -65 160 -71 308 l-6 132 -127 0 -127 0 -6 -122z"
           stroke="#000000"
           stroke-width="5"
           stroke-linejoin="round"
           stroke-linecap="round" />
        <path
           id="piece-white-king-part-4"
           d="M566 2288 c-9 -12 -16 -33 -16 -45 0 -12 -21 -48 -47 -80 -34 -42 -47 -66 -47 -89 0 -66 -10 -64 374 -64 385 0 374 -2 374 65 0 24 -11 45 -42 80 -23 26 -47 66 -53 89 -6 23 -16 47 -21 54 -8 9 -72 12 -259 12 -245 0 -248 0 -263 -22z"
           stroke="#000000"
           stroke-width="5"
           stroke-linejoin="round"
           stroke-linecap="round" />
      </g>
      <g
         id="piece-white-queen">
        <g
           id="piece-white-queen-silhouette"
           fill="#ffffff"
           stroke="#000000"
           stroke-width="44"
           stroke-linejoin="round"
           stroke-linecap="round">
          <path
             id="piece-white-queen-silhouette-outline"
             d="M1510.8 2310.5 L1534.8 2319.0 L1535.9 2332.4 L1580.2 2434.2 L1600.8 2507.3 L1613.8 2578.7 L1620.9 2641.6 L1624.0 2796.6 L1592.8 2800.8 L1572.9 2808.3 L1556.4 2824.2 L1546.6 2842.7 L1546.7 2867.3 L1560.5 2889.1 L1576.5 2897.3 L1609.1 2902.1 L1569.3 2991.3 L1534.7 3085.8 L1500.7 3199.4 L1494.9 3227.8 L1494.9 3245.4 L1504.6 3258.0 L1520.0 3259.3 L1536.1 3249.9 L1565.6 3222.5 L1600.0 3281.3 L1613.4 3288.0 L1624.6 3283.1 L1654.3 3245.3 L1675.2 3286.4 L1659.9 3316.6 L1654.6 3343.5 L1657.9 3376.3 L1668.7 3402.5 L1688.1 3425.3 L1711.3 3439.4 L1737.9 3446.0 L1768.7 3443.7 L1789.8 3435.9 L1808.4 3423.6 L1828.4 3402.8 L1840.4 3381.4 L1844.7 3361.0 L1843.2 3339.6 L1822.9 3285.4 L1844.3 3245.7 L1873.6 3282.2 L1885.0 3287.0 L1898.3 3279.8 L1927.2 3225.8 L1955.2 3250.6 L1976.8 3262.8 L1993.2 3261.5 L2002.4 3249.0 L2002.4 3232.4 L1996.9 3203.6 L1965.7 3094.4 L1932.2 2999.6 L1891.7 2903.7 L1919.4 2899.0 L1934.2 2891.1 L1949.1 2868.6 L1955.1 2847.4 L1949.0 2829.5 L1928.1 2808.9 L1907.2 2800.8 L1873.2 2796.4 L1884.1 2619.6 L1898.9 2510.1 L1923.0 2426.7 L1974.7 2326.3 L1975.2 2315.1 L1992.8 2306.4 L2006.4 2292.1 L2014.1 2274.7 L2021.8 2242.1 L2032.3 2219.4 L2103.5 2109.3 L2114.8 2071.9 L2113.9 2052.8 L2109.3 2038.5 L2095.0 2017.4 L2079.7 2006.0 L2059.5 2000.3 L2021.8 1996.6 L1530.1 1994.7 L1459.3 1997.5 L1422.7 2004.9 L1406.8 2017.4 L1390.7 2044.4 L1385.6 2067.7 L1388.8 2091.0 L1406.2 2127.2 L1464.0 2212.7 L1477.3 2239.8 L1491.9 2285.7 L1500.9 2300.9 L1510.8 2310.5 Z"
             style="fill:#000000;fill-opacity:1" />
        </g>
        <path
           id="piece-white-queen-part-1"
           d="M1692 3407 c-25 -26 -29 -74 -8 -102 11 -16 10 -23 -7 -53 l-21 -35 -21 27 -22 28 -22 -38 -22 -37 -29 28 c-22 21 -30 24 -30 13 0 -30 50 -187 81 -257 l32 -71 127 0 127 0 32 75 c38 90 86 254 77 262 -3 4 -19 -6 -34 -20 l-29 -27 -19 35 -19 36 -21 -26 -21 -27 -21 33 c-19 30 -19 36 -6 60 20 40 17 67 -11 94 -32 33 -83 34 -113 2z"
           stroke="#000000"
           stroke-width="5"
           stroke-linejoin="round"
           stroke-linecap="round" />
        <path
           id="piece-white-queen-part-2"
           d="M1572 2878 c-16 -16 -15 -33 4 -52 13 -13 43 -16 174 -16 131 0 161 3 174 16 19 18 19 20 6 45 -10 18 -23 19 -178 19 -117 0 -172 -4 -180 -12z"
           stroke="#000000"
           stroke-width="5"
           stroke-linejoin="round"
           stroke-linecap="round" />
        <path
           id="piece-white-queen-part-3"
           d="M1640 2718 c0 -120 -24 -248 -59 -325 -17 -36 -31 -67 -31 -69 0 -2 92 -4 205 -4 l205 0 -29 53 c-40 70 -59 157 -67 305 l-7 122 -109 0 -108 0 0 -82z"
           stroke="#000000"
           stroke-width="5"
           stroke-linejoin="round"
           stroke-linecap="round" />
        <path
           id="piece-white-queen-part-4"
           d="M1517 2295 c-8 -7 -18 -30 -21 -49 -4 -19 -27 -60 -51 -92 -48 -62 -54 -87 -29 -122 15 -22 16 -22 333 -22 295 0 319 1 334 18 28 30 20 65 -28 126 -24 32 -47 73 -51 92 -12 64 -12 64 -254 64 -178 0 -221 -3 -233 -15z"
           stroke="#000000"
           stroke-width="5"
           stroke-linejoin="round"
           stroke-linecap="round" />
      </g>
      <g
         id="piece-white-bishop">
        <g
           id="piece-white-bishop-silhouette"
           fill="#ffffff"
           stroke="#000000"
           stroke-width="44"
           stroke-linejoin="round"
           stroke-linecap="round">
          <path
             id="piece-white-bishop-silhouette-outline"
             d="M2366.4 2296.2 L2389.2 2299.2 L2385.4 2306.6 L2386.1 2315.7 L2418.8 2383.2 L2435.0 2434.4 L2450.1 2524.5 L2455.5 2652.9 L2461.8 2689.7 L2401.6 2697.4 L2385.9 2709.5 L2376.3 2727.8 L2374.6 2746.8 L2380.3 2764.4 L2396.0 2778.4 L2420.6 2781.5 L2413.9 2791.7 L2414.3 2805.2 L2420.7 2814.9 L2436.2 2826.0 L2406.0 2869.5 L2389.7 2900.7 L2382.4 2933.2 L2385.2 2966.5 L2394.3 2995.1 L2414.4 3036.1 L2487.5 3149.6 L2506.1 3185.0 L2508.7 3194.2 L2500.6 3217.8 L2497.0 3240.3 L2498.6 3258.0 L2504.6 3273.3 L2517.5 3290.1 L2539.6 3308.9 L2554.9 3314.7 L2573.0 3314.1 L2611.1 3300.0 L2624.6 3289.3 L2634.6 3275.8 L2641.4 3257.0 L2642.8 3238.9 L2639.5 3217.2 L2630.4 3190.7 L2631.8 3179.9 L2721.8 3045.0 L2743.3 3005.1 L2753.7 2977.0 L2758.7 2942.4 L2753.8 2909.8 L2740.1 2878.5 L2705.2 2823.2 L2716.2 2812.0 L2721.7 2799.7 L2720.2 2787.4 L2712.5 2777.8 L2735.7 2772.8 L2751.1 2763.5 L2762.9 2745.2 L2765.7 2725.8 L2757.5 2709.7 L2742.6 2700.0 L2716.6 2693.2 L2680.4 2689.4 L2688.5 2558.5 L2697.2 2483.9 L2717.4 2394.9 L2732.5 2356.5 L2756.9 2315.7 L2755.8 2301.9 L2781.7 2297.0 L2794.5 2285.8 L2827.7 2209.3 L2880.3 2135.8 L2896.4 2107.7 L2906.1 2069.7 L2904.3 2050.1 L2899.1 2035.6 L2886.4 2017.7 L2870.1 2006.0 L2851.2 2000.5 L2817.9 1997.1 L2639.3 1995.5 L2268.5 2000.4 L2260.5 2008.3 L2241.1 2053.6 L2238.8 2077.2 L2243.4 2101.7 L2262.6 2137.5 L2302.7 2181.3 L2320.7 2208.1 L2330.7 2230.8 L2335.9 2262.2 L2343.7 2280.3 L2352.6 2290.9 L2366.4 2296.2 Z"
             style="fill:#000000;fill-opacity:1" />
        </g>
        <path
           id="piece-white-bishop-part-1"
           d="M2529 3279 c-20 -20 -21 -41 -5 -80 4 -10 -9 -38 -36 -78 -102 -148 -111 -186 -58 -258 28 -37 29 -43 14 -51 -40 -22 -1 -32 126 -32 127 0 154 6 126 30 -12 10 -10 18 16 54 51 73 42 115 -54 246 -47 66 -50 72 -38 99 15 38 5 70 -27 82 -34 13 -40 12 -64 -12z"
           stroke="#000000"
           stroke-width="5"
           stroke-linejoin="round"
           stroke-linecap="round" />
        <path
           id="piece-white-bishop-part-2"
           d="M2403 2764 c-19 -8 -16 -42 5 -52 9 -5 83 -9 164 -9 160 0 194 8 172 44 -10 16 -29 18 -170 20 -87 1 -165 -1 -171 -3z"
           stroke="#000000"
           stroke-width="5"
           stroke-linejoin="round"
           stroke-linecap="round" />
        <path
           id="piece-white-bishop-part-3"
           d="M2477 2684 c-4 -4 -7 -39 -7 -78 0 -100 -17 -192 -45 -248 l-24 -48 171 0 170 0 -15 24 c-28 42 -50 139 -56 246 l-6 105 -90 3 c-50 1 -94 0 -98 -4z"
           stroke="#000000"
           stroke-width="5"
           stroke-linejoin="round"
           stroke-linecap="round" />
        <path
           id="piece-white-bishop-part-4"
           d="M2362 2278 c-7 -7 -12 -20 -12 -30 0 -26 -23 -69 -53 -96 -39 -37 -52 -75 -35 -109 l13 -28 289 -3 c258 -2 291 -1 308 14 30 28 23 70 -22 123 -23 27 -46 66 -52 87 -5 22 -15 42 -22 46 -20 13 -401 9 -414 -4z"
           stroke="#000000"
           stroke-width="5"
           stroke-linejoin="round"
           stroke-linecap="round" />
      </g>
      <g
         id="piece-white-knight">
        <g
           id="piece-white-knight-silhouette"
           fill="#ffffff"
           stroke="#000000"
           stroke-width="44"
           stroke-linejoin="round"
           stroke-linecap="round">
          <path
             id="piece-white-knight-silhouette-outline"
             d="M3187.4 2939.0 L3180.0 2946.2 L3175.5 2958.2 L3175.1 3006.9 L3184.8 3038.7 L3205.6 3064.5 L3242.5 3086.9 L3307.3 3109.7 L3350.6 3128.8 L3487.3 3201.7 L3527.1 3217.3 L3572.7 3229.0 L3579.8 3237.4 L3598.8 3281.3 L3606.3 3290.5 L3614.9 3295.3 L3628.1 3294.2 L3639.0 3285.8 L3684.9 3220.3 L3695.7 3216.6 L3729.0 3214.1 L3744.8 3208.7 L3781.0 3175.4 L3866.1 3117.1 L3868.8 3105.3 L3862.4 3095.1 L3876.0 3089.1 L3883.4 3078.5 L3892.8 3021.4 L3924.0 2929.6 L3919.1 2918.5 L3904.7 2912.4 L3918.3 2902.6 L3922.0 2887.1 L3911.3 2833.5 L3903.8 2737.4 L3899.5 2728.9 L3890.2 2724.2 L3893.9 2707.6 L3884.6 2660.3 L3877.6 2555.4 L3872.6 2535.9 L3863.8 2524.6 L3872.7 2516.8 L3878.2 2505.5 L3878.1 2475.1 L3869.0 2430.4 L3861.3 2419.1 L3850.2 2411.6 L3858.9 2408.9 L3865.3 2402.2 L3866.9 2393.2 L3864.2 2386.0 L3764.9 2317.8 L3781.4 2311.7 L3796.4 2295.8 L3834.3 2215.8 L3899.0 2131.7 L3915.8 2102.7 L3921.6 2080.7 L3920.3 2058.1 L3912.5 2036.3 L3894.3 2002.0 L3885.2 1999.0 L3314.9 1996.3 L3248.9 2002.9 L3230.8 2011.3 L3216.8 2025.8 L3208.6 2040.5 L3204.4 2059.7 L3205.5 2077.0 L3212.3 2098.9 L3232.0 2134.1 L3291.0 2217.0 L3307.1 2248.8 L3319.2 2287.0 L3338.4 2309.9 L3281.2 2365.3 L3266.4 2391.5 L3264.3 2413.5 L3268.2 2454.9 L3286.0 2520.7 L3314.9 2582.2 L3355.9 2647.7 L3399.1 2705.0 L3468.5 2788.7 L3512.3 2850.0 L3541.1 2901.5 L3553.6 2941.2 L3524.7 2925.7 L3502.1 2918.3 L3472.6 2914.7 L3394.2 2914.1 L3322.7 2884.2 L3289.5 2877.5 L3255.5 2874.9 L3211.5 2878.8 L3183.5 2892.0 L3175.8 2903.3 L3174.1 2914.7 L3177.6 2926.0 L3187.4 2939.0 Z"
             style="fill:#000000;fill-opacity:1" />
        </g>
        <path
           id="piece-white-knight-part-1"
           d="M3600 3246 c-9 -29 -16 -34 -53 -40 -23 -4 -78 -28 -122 -55 -44 -27 -105 -56 -135 -64 -74 -22 -100 -47 -100 -98 0 -40 1 -41 28 -35 l27 6 -27 -17 c-16 -10 -28 -23 -28 -30 0 -31 119 -29 167 3 21 14 42 18 86 15 44 -2 65 2 92 18 l35 20 0 -22 c0 -43 -48 -123 -129 -217 -96 -110 -150 -209 -158 -286 -6 -52 -5 -55 31 -89 l37 -35 195 0 194 0 55 38 56 37 -43 10 -43 9 45 6 c44 5 45 6 51 48 6 46 7 45 -61 55 -19 3 -16 5 10 6 19 1 40 5 45 9 6 4 10 34 10 67 1 33 4 72 9 88 8 25 6 27 -22 27 -17 0 -34 5 -37 10 -4 6 10 10 33 10 l40 0 4 63 c3 34 8 70 12 79 6 14 1 17 -36 20 l-43 3 41 13 42 12 -19 50 c-10 28 -19 62 -19 76 0 26 -2 26 -47 22 l-48 -5 39 17 39 18 -57 37 c-31 21 -56 42 -56 46 0 5 -15 9 -33 9 -28 0 -37 6 -56 40 -12 22 -26 40 -31 40 -5 0 -13 -15 -20 -34z m-110 -126 c-8 -5 -22 -10 -30 -10 -13 0 -13 1 0 10 8 5 22 10 30 10 13 0 13 -1 0 -10z m-263 -117 c-4 -3 -10 -3 -14 0 -3 4 0 7 7 7 7 0 10 -3 7 -7z"
           stroke="#000000"
           stroke-width="5"
           stroke-linejoin="round"
           stroke-linecap="round" />
        <path
           id="piece-white-knight-part-2"
           d="M3354 2300 c-14 -5 -24 -21 -28 -44 -4 -21 -28 -62 -56 -98 -54 -66 -63 -103 -32 -132 17 -15 51 -16 333 -14 l314 3 13 28 c17 36 9 58 -43 118 -24 27 -49 67 -55 89 -6 22 -19 44 -30 50 -23 12 -386 12 -416 0z"
           stroke="#000000"
           stroke-width="5"
           stroke-linejoin="round"
           stroke-linecap="round" />
      </g>
      <g
         id="piece-white-rook">
        <g
           id="piece-white-rook-silhouette"
           fill="#ffffff"
           stroke="#000000"
           stroke-width="44"
           stroke-linejoin="round"
           stroke-linecap="round">
          <path
             id="piece-white-rook-silhouette-outline"
             d="M4224.5 3151.8 L4233.9 3166.7 L4253.3 3173.5 L4298.5 3174.2 L4350.1 3170.1 L4366.8 3164.2 L4376.9 3154.6 L4386.5 3117.5 L4419.0 3116.3 L4423.5 3117.5 L4424.7 3164.6 L4433.9 3174.8 L4581.6 3175.9 L4590.2 3172.4 L4595.3 3164.6 L4596.3 3117.4 L4599.1 3116.9 L4639.0 3122.3 L4648.7 3159.2 L4657.3 3168.1 L4671.6 3173.7 L4714.9 3176.0 L4761.5 3174.0 L4782.2 3168.2 L4793.3 3157.6 L4795.4 3140.5 L4782.1 3097.3 L4747.4 3012.4 L4715.0 2944.1 L4693.1 2910.6 L4680.6 2904.3 L4660.6 2900.0 L4690.5 2894.1 L4698.8 2887.6 L4702.5 2879.3 L4711.1 2815.2 L4723.6 2669.8 L4736.8 2470.4 L4739.2 2368.5 L4736.2 2345.9 L4730.7 2333.6 L4719.9 2325.3 L4704.9 2321.3 L4746.1 2312.2 L4766.7 2296.7 L4774.1 2280.0 L4778.4 2243.7 L4789.5 2217.6 L4808.1 2190.4 L4847.6 2148.1 L4866.6 2116.1 L4876.4 2083.1 L4875.9 2050.7 L4864.6 2023.0 L4845.0 2004.1 L4799.9 1998.7 L4648.3 1994.9 L4237.9 1996.2 L4204.5 1999.1 L4182.7 2004.9 L4169.4 2014.4 L4154.8 2035.7 L4145.6 2067.7 L4152.3 2101.0 L4166.4 2127.5 L4225.9 2216.0 L4237.3 2239.8 L4254.9 2291.5 L4263.6 2304.3 L4274.1 2312.5 L4311.2 2321.4 L4296.1 2327.1 L4288.3 2335.3 L4282.5 2350.4 L4280.2 2370.3 L4281.5 2439.3 L4293.0 2615.2 L4306.7 2774.0 L4319.4 2866.1 L4330.1 2891.7 L4340.5 2897.7 L4355.3 2900.6 L4327.1 2910.4 L4304.6 2944.1 L4245.1 3077.7 L4227.2 3129.1 L4224.5 3151.8 Z"
             style="fill:#000000;fill-opacity:1" />
        </g>
        <path
           id="piece-white-rook-part-1"
           d="M4240 3147 c0 -26 80 -212 97 -224 12 -9 64 -13 173 -13 109 0 161 4 173 13 16 12 97 198 97 224 0 9 -17 13 -59 13 -58 0 -60 -1 -63 -27 -3 -24 -8 -28 -40 -31 -36 -3 -38 -2 -38 27 l0 31 -70 0 -70 0 0 -30 c0 -28 -3 -30 -34 -30 -30 0 -35 3 -38 28 -3 26 -6 27 -65 30 -48 2 -63 0 -63 -11z"
           stroke="#000000"
           stroke-width="5"
           stroke-linejoin="round"
           stroke-linecap="round" />
        <path
           id="piece-white-rook-part-2"
           d="M4342 2881 c-9 -6 -19 -82 -33 -267 -16 -224 -17 -260 -5 -273 20 -19 393 -18 413 1 10 11 9 64 -5 268 -10 140 -21 261 -26 268 -8 14 -322 17 -344 3z"
           stroke="#000000"
           stroke-width="5"
           stroke-linejoin="round"
           stroke-linecap="round" />
        <path
           id="piece-white-rook-part-3"
           d="M4277 2295 c-8 -7 -18 -30 -21 -49 -4 -19 -27 -60 -51 -92 -48 -62 -54 -87 -29 -122 15 -22 16 -22 332 -22 174 0 322 4 329 8 40 26 30 95 -22 142 -32 29 -55 71 -55 99 0 48 -16 51 -250 51 -178 0 -221 -3 -233 -15z"
           stroke="#000000"
           stroke-width="5"
           stroke-linejoin="round"
           stroke-linecap="round" />
      </g>
      <g
         id="piece-white-pawn">
        <g
           id="piece-white-pawn-silhouette"
           fill="#ffffff"
           stroke="#000000"
           stroke-width="44"
           stroke-linejoin="round"
           stroke-linecap="round">
          <path
             id="piece-white-pawn-silhouette-outline"
             d="M5136.6 2319.1 L5126.0 2329.7 L5120.7 2341.7 L5120.2 2371.1 L5182.5 2629.8 L5160.3 2635.9 L5143.3 2647.4 L5135.7 2661.5 L5136.0 2680.8 L5143.7 2698.7 L5158.5 2708.5 L5182.6 2713.1 L5225.7 2714.6 L5197.5 2738.2 L5176.2 2771.2 L5167.2 2807.4 L5171.6 2849.2 L5179.7 2869.2 L5192.0 2888.5 L5225.6 2919.2 L5246.8 2930.8 L5280.6 2942.6 L5299.3 2944.7 L5319.9 2941.5 L5352.5 2926.0 L5379.9 2905.7 L5402.1 2878.0 L5415.8 2845.5 L5419.3 2802.9 L5410.7 2768.6 L5392.1 2738.8 L5358.9 2712.2 L5428.0 2705.5 L5442.8 2698.4 L5452.1 2685.1 L5454.6 2663.1 L5447.0 2645.8 L5430.6 2634.6 L5404.7 2628.3 L5414.5 2615.6 L5421.3 2598.0 L5439.1 2496.7 L5471.1 2372.2 L5472.4 2351.8 L5469.6 2338.2 L5461.9 2325.7 L5451.4 2317.5 L5475.6 2309.2 L5490.8 2295.6 L5501.4 2247.0 L5517.4 2207.3 L5531.1 2185.2 L5567.8 2140.3 L5585.6 2110.1 L5593.9 2086.8 L5596.0 2068.4 L5592.8 2047.3 L5585.1 2030.7 L5570.3 2012.9 L5552.9 2003.4 L5526.8 1998.3 L5485.4 1995.7 L5122.8 1995.6 L5061.9 2000.4 L5033.3 2010.4 L5016.5 2027.2 L5006.5 2049.3 L5004.6 2071.2 L5009.9 2098.3 L5029.0 2138.6 L5079.5 2213.3 L5105.9 2294.6 L5120.4 2311.7 L5136.6 2319.1 Z"
             style="fill:#000000;fill-opacity:1" />
        </g>
        <path
           id="piece-white-pawn-part-1"
           stroke="#000000"
           stroke-width="5"
           stroke-linejoin="round"
           stroke-linecap="round"
           d="M5260 2919 c-66 -26 -95 -91 -66 -148 31 -58 104 -77 162 -42 67 41 63 138 -8 181 -36 22 -51 24 -88 9z" />
        <path
           id="piece-white-pawn-part-2"
           stroke="#000000"
           stroke-width="5"
           stroke-linejoin="round"
           stroke-linecap="round"
           d="M5154 2685 c-14 -36 13 -45 140 -45 128 0 150 6 144 36 -3 17 -15 19 -141 22 -116 2 -138 0 -143 -13z" />
        <path
           id="piece-white-pawn-part-3"
           stroke="#000000"
           stroke-width="5"
           stroke-linejoin="round"
           stroke-linecap="round"
           d="M5197 2623 c-3 -5 -10 -35 -17 -68 -6 -33 -20 -93 -31 -133 -28 -103 -30 -102 146 -102 177 0 177 0 146 103 -11 39 -24 95 -27 122 -11 85 -12 85 -119 85 -51 0 -96 -3 -98 -7z" />
        <path
           id="piece-white-pawn-part-4"
           stroke="#000000"
           stroke-width="5"
           stroke-linejoin="round"
           stroke-linecap="round"
           d="M5138 2303 c-10 -2 -21 -17 -24 -31 -13 -58 -18 -69 -55 -118 -43 -57 -50 -101 -21 -127 16 -15 50 -17 264 -17 225 0 246 2 261 18 32 35 19 77 -40 142 -21 23 -43 77 -43 107 0 26 -42 33 -182 32 -79 -1 -151 -3 -160 -6z" />
      </g>
    </g>
  </g>
</svg>
