<svg xmlns="http://www.w3.org/2000/svg" version="1.0" width="600.000000pt" height="400.000000pt" viewBox="0 0 600.000000 400.000000" preserveAspectRatio="xMidYMid meet">
  <g id="chess-piece-atlas" transform="translate(0.000000,400.000000) scale(0.100000,-0.100000)" fill="#000000" stroke="none">
    <g id="pieces-black" stroke="#ffffff" stroke-width="30" stroke-linejoin="round" stroke-linecap="round">
      <g id="piece-black-king">
        <path id="piece-black-king-part-1" d="M770 3456 c0 -30 -3 -35 -27 -38 -24 -3 -28 -8 -31 -40 -3 -34 -1 -37 25 -40 22 -2 29 -9 31 -30 3 -24 0 -28 -22 -28 -14 0 -48 -5 -77 -11 -112 -24 -117 -77 -24 -271 l37 -78 144 0 145 0 43 93 c53 113 71 179 55 208 -14 28 -66 48 -140 56 -57 6 -60 7 -57 32 2 20 9 27 31 29 24 3 27 7 27 43 0 37 -2 39 -30 39 -28 0 -30 3 -30 35 l0 35 -50 0 -50 0 0 -34z" />
        <path id="piece-black-king-part-2" d="M624 2886 c-3 -8 -4 -23 -2 -33 3 -17 18 -18 202 -18 175 0 200 2 209 17 8 12 7 21 -2 32 -19 23 -399 24 -407 2z" />
        <path id="piece-black-king-part-3" d="M697 2688 c-8 -146 -27 -234 -68 -305 l-29 -53 230 0 230 0 -26 40 c-44 65 -65 160 -71 308 l-6 132 -127 0 -127 0 -6 -122z" />
        <path id="piece-black-king-part-4" d="M566 2288 c-9 -12 -16 -33 -16 -45 0 -12 -21 -48 -47 -80 -34 -42 -47 -66 -47 -89 0 -66 -10 -64 374 -64 385 0 374 -2 374 65 0 24 -11 45 -42 80 -23 26 -47 66 -53 89 -6 23 -16 47 -21 54 -8 9 -72 12 -259 12 -245 0 -248 0 -263 -22z" />
      </g>
      <g id="piece-black-queen">
        <path id="piece-black-queen-part-1" d="M1692 3407 c-25 -26 -29 -74 -8 -102 11 -16 10 -23 -7 -53 l-21 -35 -21 27 -22 28 -22 -38 -22 -37 -29 28 c-22 21 -30 24 -30 13 0 -30 50 -187 81 -257 l32 -71 127 0 127 0 32 75 c38 90 86 254 77 262 -3 4 -19 -6 -34 -20 l-29 -27 -19 35 -19 36 -21 -26 -21 -27 -21 33 c-19 30 -19 36 -6 60 20 40 17 67 -11 94 -32 33 -83 34 -113 2z" />
        <path id="piece-black-queen-part-2" d="M1572 2878 c-16 -16 -15 -33 4 -52 13 -13 43 -16 174 -16 131 0 161 3 174 16 19 18 19 20 6 45 -10 18 -23 19 -178 19 -117 0 -172 -4 -180 -12z" />
        <path id="piece-black-queen-part-3" d="M1640 2718 c0 -120 -24 -248 -59 -325 -17 -36 -31 -67 -31 -69 0 -2 92 -4 205 -4 l205 0 -29 53 c-40 70 -59 157 -67 305 l-7 122 -109 0 -108 0 0 -82z" />
        <path id="piece-black-queen-part-4" d="M1517 2295 c-8 -7 -18 -30 -21 -49 -4 -19 -27 -60 -51 -92 -48 -62 -54 -87 -29 -122 15 -22 16 -22 333 -22 295 0 319 1 334 18 28 30 20 65 -28 126 -24 32 -47 73 -51 92 -12 64 -12 64 -254 64 -178 0 -221 -3 -233 -15z" />
      </g>
      <g id="piece-black-bishop">
        <path id="piece-black-bishop-part-1" d="M2529 3279 c-20 -20 -21 -41 -5 -80 4 -10 -9 -38 -36 -78 -102 -148 -111 -186 -58 -258 28 -37 29 -43 14 -51 -40 -22 -1 -32 126 -32 127 0 154 6 126 30 -12 10 -10 18 16 54 51 73 42 115 -54 246 -47 66 -50 72 -38 99 15 38 5 70 -27 82 -34 13 -40 12 -64 -12z" />
        <path id="piece-black-bishop-part-2" d="M2403 2764 c-19 -8 -16 -42 5 -52 9 -5 83 -9 164 -9 160 0 194 8 172 44 -10 16 -29 18 -170 20 -87 1 -165 -1 -171 -3z" />
        <path id="piece-black-bishop-part-3" d="M2477 2684 c-4 -4 -7 -39 -7 -78 0 -100 -17 -192 -45 -248 l-24 -48 171 0 170 0 -15 24 c-28 42 -50 139 -56 246 l-6 105 -90 3 c-50 1 -94 0 -98 -4z" />
        <path id="piece-black-bishop-part-4" d="M2362 2278 c-7 -7 -12 -20 -12 -30 0 -26 -23 -69 -53 -96 -39 -37 -52 -75 -35 -109 l13 -28 289 -3 c258 -2 291 -1 308 14 30 28 23 70 -22 123 -23 27 -46 66 -52 87 -5 22 -15 42 -22 46 -20 13 -401 9 -414 -4z" />
      </g>
      <g id="piece-black-knight">
        <path id="piece-black-knight-part-1" d="M3600 3246 c-9 -29 -16 -34 -53 -40 -23 -4 -78 -28 -122 -55 -44 -27 -105 -56 -135 -64 -74 -22 -100 -47 -100 -98 0 -40 1 -41 28 -35 l27 6 -27 -17 c-16 -10 -28 -23 -28 -30 0 -31 119 -29 167 3 21 14 42 18 86 15 44 -2 65 2 92 18 l35 20 0 -22 c0 -43 -48 -123 -129 -217 -96 -110 -150 -209 -158 -286 -6 -52 -5 -55 31 -89 l37 -35 195 0 194 0 55 38 56 37 -43 10 -43 9 45 6 c44 5 45 6 51 48 6 46 7 45 -61 55 -19 3 -16 5 10 6 19 1 40 5 45 9 6 4 10 34 10 67 1 33 4 72 9 88 8 25 6 27 -22 27 -17 0 -34 5 -37 10 -4 6 10 10 33 10 l40 0 4 63 c3 34 8 70 12 79 6 14 1 17 -36 20 l-43 3 41 13 42 12 -19 50 c-10 28 -19 62 -19 76 0 26 -2 26 -47 22 l-48 -5 39 17 39 18 -57 37 c-31 21 -56 42 -56 46 0 5 -15 9 -33 9 -28 0 -37 6 -56 40 -12 22 -26 40 -31 40 -5 0 -13 -15 -20 -34z m-110 -126 c-8 -5 -22 -10 -30 -10 -13 0 -13 1 0 10 8 5 22 10 30 10 13 0 13 -1 0 -10z m-263 -117 c-4 -3 -10 -3 -14 0 -3 4 0 7 7 7 7 0 10 -3 7 -7z" />
        <path id="piece-black-knight-part-2" d="M3354 2300 c-14 -5 -24 -21 -28 -44 -4 -21 -28 -62 -56 -98 -54 -66 -63 -103 -32 -132 17 -15 51 -16 333 -14 l314 3 13 28 c17 36 9 58 -43 118 -24 27 -49 67 -55 89 -6 22 -19 44 -30 50 -23 12 -386 12 -416 0z" />
      </g>
      <g id="piece-black-rook">
        <path id="piece-black-rook-part-1" d="M4240 3147 c0 -26 80 -212 97 -224 12 -9 64 -13 173 -13 109 0 161 4 173 13 16 12 97 198 97 224 0 9 -17 13 -59 13 -58 0 -60 -1 -63 -27 -3 -24 -8 -28 -40 -31 -36 -3 -38 -2 -38 27 l0 31 -70 0 -70 0 0 -30 c0 -28 -3 -30 -34 -30 -30 0 -35 3 -38 28 -3 26 -6 27 -65 30 -48 2 -63 0 -63 -11z" />
        <path id="piece-black-rook-part-2" d="M4342 2881 c-9 -6 -19 -82 -33 -267 -16 -224 -17 -260 -5 -273 20 -19 393 -18 413 1 10 11 9 64 -5 268 -10 140 -21 261 -26 268 -8 14 -322 17 -344 3z" />
        <path id="piece-black-rook-part-3" d="M4277 2295 c-8 -7 -18 -30 -21 -49 -4 -19 -27 -60 -51 -92 -48 -62 -54 -87 -29 -122 15 -22 16 -22 332 -22 174 0 322 4 329 8 40 26 30 95 -22 142 -32 29 -55 71 -55 99 0 48 -16 51 -250 51 -178 0 -221 -3 -233 -15z" />
      </g>
      <g id="piece-black-pawn">
        <path id="piece-black-pawn-part-1" d="M5260 2919 c-66 -26 -95 -91 -66 -148 31 -58 104 -77 162 -42 67 41 63 138 -8 181 -36 22 -51 24 -88 9z" />
        <path id="piece-black-pawn-part-2" stroke-width="26" d="M5154 2685 c-14 -36 13 -45 140 -45 128 0 150 6 144 36 -3 17 -15 19 -141 22 -116 2 -138 0 -143 -13z" />
        <path id="piece-black-pawn-part-3" d="M5197 2623 c-3 -5 -10 -35 -17 -68 -6 -33 -20 -93 -31 -133 -28 -103 -30 -102 146 -102 177 0 177 0 146 103 -11 39 -24 95 -27 122 -11 85 -12 85 -119 85 -51 0 -96 -3 -98 -7z" />
        <path id="piece-black-pawn-part-4" d="M5138 2303 c-10 -2 -21 -17 -24 -31 -13 -58 -18 -69 -55 -118 -43 -57 -50 -101 -21 -127 16 -15 50 -17 264 -17 225 0 246 2 261 18 32 35 19 77 -40 142 -21 23 -43 77 -43 107 0 26 -42 33 -182 32 -79 -1 -151 -3 -160 -6z" />
      </g>
    </g>

    <g id="pieces-white" transform="translate(0,-1750)" fill="#ffffff" stroke="#000000" stroke-width="30" stroke-linejoin="round" stroke-linecap="round">
      <g id="piece-white-king">
        <path id="piece-white-king-part-1" d="M770 3456 c0 -30 -3 -35 -27 -38 -24 -3 -28 -8 -31 -40 -3 -34 -1 -37 25 -40 22 -2 29 -9 31 -30 3 -24 0 -28 -22 -28 -14 0 -48 -5 -77 -11 -112 -24 -117 -77 -24 -271 l37 -78 144 0 145 0 43 93 c53 113 71 179 55 208 -14 28 -66 48 -140 56 -57 6 -60 7 -57 32 2 20 9 27 31 29 24 3 27 7 27 43 0 37 -2 39 -30 39 -28 0 -30 3 -30 35 l0 35 -50 0 -50 0 0 -34z" />
        <path id="piece-white-king-part-2" d="M624 2886 c-3 -8 -4 -23 -2 -33 3 -17 18 -18 202 -18 175 0 200 2 209 17 8 12 7 21 -2 32 -19 23 -399 24 -407 2z" />
        <path id="piece-white-king-part-3" d="M697 2688 c-8 -146 -27 -234 -68 -305 l-29 -53 230 0 230 0 -26 40 c-44 65 -65 160 -71 308 l-6 132 -127 0 -127 0 -6 -122z" />
        <path id="piece-white-king-part-4" d="M566 2288 c-9 -12 -16 -33 -16 -45 0 -12 -21 -48 -47 -80 -34 -42 -47 -66 -47 -89 0 -66 -10 -64 374 -64 385 0 374 -2 374 65 0 24 -11 45 -42 80 -23 26 -47 66 -53 89 -6 23 -16 47 -21 54 -8 9 -72 12 -259 12 -245 0 -248 0 -263 -22z" />
      </g>
      <g id="piece-white-queen">
        <path id="piece-white-queen-part-1" d="M1692 3407 c-25 -26 -29 -74 -8 -102 11 -16 10 -23 -7 -53 l-21 -35 -21 27 -22 28 -22 -38 -22 -37 -29 28 c-22 21 -30 24 -30 13 0 -30 50 -187 81 -257 l32 -71 127 0 127 0 32 75 c38 90 86 254 77 262 -3 4 -19 -6 -34 -20 l-29 -27 -19 35 -19 36 -21 -26 -21 -27 -21 33 c-19 30 -19 36 -6 60 20 40 17 67 -11 94 -32 33 -83 34 -113 2z" />
        <path id="piece-white-queen-part-2" d="M1572 2878 c-16 -16 -15 -33 4 -52 13 -13 43 -16 174 -16 131 0 161 3 174 16 19 18 19 20 6 45 -10 18 -23 19 -178 19 -117 0 -172 -4 -180 -12z" />
        <path id="piece-white-queen-part-3" d="M1640 2718 c0 -120 -24 -248 -59 -325 -17 -36 -31 -67 -31 -69 0 -2 92 -4 205 -4 l205 0 -29 53 c-40 70 -59 157 -67 305 l-7 122 -109 0 -108 0 0 -82z" />
        <path id="piece-white-queen-part-4" d="M1517 2295 c-8 -7 -18 -30 -21 -49 -4 -19 -27 -60 -51 -92 -48 -62 -54 -87 -29 -122 15 -22 16 -22 333 -22 295 0 319 1 334 18 28 30 20 65 -28 126 -24 32 -47 73 -51 92 -12 64 -12 64 -254 64 -178 0 -221 -3 -233 -15z" />
      </g>
      <g id="piece-white-bishop">
        <path id="piece-white-bishop-part-1" d="M2529 3279 c-20 -20 -21 -41 -5 -80 4 -10 -9 -38 -36 -78 -102 -148 -111 -186 -58 -258 28 -37 29 -43 14 -51 -40 -22 -1 -32 126 -32 127 0 154 6 126 30 -12 10 -10 18 16 54 51 73 42 115 -54 246 -47 66 -50 72 -38 99 15 38 5 70 -27 82 -34 13 -40 12 -64 -12z" />
        <path id="piece-white-bishop-part-2" d="M2403 2764 c-19 -8 -16 -42 5 -52 9 -5 83 -9 164 -9 160 0 194 8 172 44 -10 16 -29 18 -170 20 -87 1 -165 -1 -171 -3z" />
        <path id="piece-white-bishop-part-3" d="M2477 2684 c-4 -4 -7 -39 -7 -78 0 -100 -17 -192 -45 -248 l-24 -48 171 0 170 0 -15 24 c-28 42 -50 139 -56 246 l-6 105 -90 3 c-50 1 -94 0 -98 -4z" />
        <path id="piece-white-bishop-part-4" d="M2362 2278 c-7 -7 -12 -20 -12 -30 0 -26 -23 -69 -53 -96 -39 -37 -52 -75 -35 -109 l13 -28 289 -3 c258 -2 291 -1 308 14 30 28 23 70 -22 123 -23 27 -46 66 -52 87 -5 22 -15 42 -22 46 -20 13 -401 9 -414 -4z" />
      </g>
      <g id="piece-white-knight">
        <path id="piece-white-knight-part-1" d="M3600 3246 c-9 -29 -16 -34 -53 -40 -23 -4 -78 -28 -122 -55 -44 -27 -105 -56 -135 -64 -74 -22 -100 -47 -100 -98 0 -40 1 -41 28 -35 l27 6 -27 -17 c-16 -10 -28 -23 -28 -30 0 -31 119 -29 167 3 21 14 42 18 86 15 44 -2 65 2 92 18 l35 20 0 -22 c0 -43 -48 -123 -129 -217 -96 -110 -150 -209 -158 -286 -6 -52 -5 -55 31 -89 l37 -35 195 0 194 0 55 38 56 37 -43 10 -43 9 45 6 c44 5 45 6 51 48 6 46 7 45 -61 55 -19 3 -16 5 10 6 19 1 40 5 45 9 6 4 10 34 10 67 1 33 4 72 9 88 8 25 6 27 -22 27 -17 0 -34 5 -37 10 -4 6 10 10 33 10 l40 0 4 63 c3 34 8 70 12 79 6 14 1 17 -36 20 l-43 3 41 13 42 12 -19 50 c-10 28 -19 62 -19 76 0 26 -2 26 -47 22 l-48 -5 39 17 39 18 -57 37 c-31 21 -56 42 -56 46 0 5 -15 9 -33 9 -28 0 -37 6 -56 40 -12 22 -26 40 -31 40 -5 0 -13 -15 -20 -34z m-110 -126 c-8 -5 -22 -10 -30 -10 -13 0 -13 1 0 10 8 5 22 10 30 10 13 0 13 -1 0 -10z m-263 -117 c-4 -3 -10 -3 -14 0 -3 4 0 7 7 7 7 0 10 -3 7 -7z" />
        <path id="piece-white-knight-part-2" d="M3354 2300 c-14 -5 -24 -21 -28 -44 -4 -21 -28 -62 -56 -98 -54 -66 -63 -103 -32 -132 17 -15 51 -16 333 -14 l314 3 13 28 c17 36 9 58 -43 118 -24 27 -49 67 -55 89 -6 22 -19 44 -30 50 -23 12 -386 12 -416 0z" />
      </g>
      <g id="piece-white-rook">
        <path id="piece-white-rook-part-1" d="M4240 3147 c0 -26 80 -212 97 -224 12 -9 64 -13 173 -13 109 0 161 4 173 13 16 12 97 198 97 224 0 9 -17 13 -59 13 -58 0 -60 -1 -63 -27 -3 -24 -8 -28 -40 -31 -36 -3 -38 -2 -38 27 l0 31 -70 0 -70 0 0 -30 c0 -28 -3 -30 -34 -30 -30 0 -35 3 -38 28 -3 26 -6 27 -65 30 -48 2 -63 0 -63 -11z" />
        <path id="piece-white-rook-part-2" d="M4342 2881 c-9 -6 -19 -82 -33 -267 -16 -224 -17 -260 -5 -273 20 -19 393 -18 413 1 10 11 9 64 -5 268 -10 140 -21 261 -26 268 -8 14 -322 17 -344 3z" />
        <path id="piece-white-rook-part-3" d="M4277 2295 c-8 -7 -18 -30 -21 -49 -4 -19 -27 -60 -51 -92 -48 -62 -54 -87 -29 -122 15 -22 16 -22 332 -22 174 0 322 4 329 8 40 26 30 95 -22 142 -32 29 -55 71 -55 99 0 48 -16 51 -250 51 -178 0 -221 -3 -233 -15z" />
      </g>
      <g id="piece-white-pawn">
        <path id="piece-white-pawn-part-1" d="M5260 2919 c-66 -26 -95 -91 -66 -148 31 -58 104 -77 162 -42 67 41 63 138 -8 181 -36 22 -51 24 -88 9z" />
        <path id="piece-white-pawn-part-2" stroke-width="26" d="M5154 2685 c-14 -36 13 -45 140 -45 128 0 150 6 144 36 -3 17 -15 19 -141 22 -116 2 -138 0 -143 -13z" />
        <path id="piece-white-pawn-part-3" d="M5197 2623 c-3 -5 -10 -35 -17 -68 -6 -33 -20 -93 -31 -133 -28 -103 -30 -102 146 -102 177 0 177 0 146 103 -11 39 -24 95 -27 122 -11 85 -12 85 -119 85 -51 0 -96 -3 -98 -7z" />
        <path id="piece-white-pawn-part-4" d="M5138 2303 c-10 -2 -21 -17 -24 -31 -13 -58 -18 -69 -55 -118 -43 -57 -50 -101 -21 -127 16 -15 50 -17 264 -17 225 0 246 2 261 18 32 35 19 77 -40 142 -21 23 -43 77 -43 107 0 26 -42 33 -182 32 -79 -1 -151 -3 -160 -6z" />
      </g>
    </g>
  </g>
</svg>
