<?xml version="1.0" encoding="UTF-8" standalone="no"?>
<svg
   version="1.2"
   width="91.440002mm"
   height="128.5mm"
   viewBox="0 0 9144.0004 12850"
   preserveAspectRatio="xMidYMid"
   fill-rule="evenodd"
   stroke-width="28.222"
   stroke-linejoin="round"
   xml:space="preserve"
   id="svg488"
   sodipodi:docname="crownstep.svg"
   inkscape:version="1.4.3 (0d15f75, 2025-12-25)"
   inkscape:label="Wave Art"
   xmlns:inkscape="http://www.inkscape.org/namespaces/inkscape"
   xmlns:sodipodi="http://sodipodi.sourceforge.net/DTD/sodipodi-0.dtd"
   xmlns:xlink="http://www.w3.org/1999/xlink"
   xmlns="http://www.w3.org/2000/svg"
   xmlns:svg="http://www.w3.org/2000/svg">
  <defs
   id="defs1"><linearGradient
   id="linearGradient33"
   inkscape:collect="always"><stop
     style="stop-color:#7a5cff;stop-opacity:1;"
     offset="0"
     id="stop33" /><stop
     style="stop-color:#1cccd9;stop-opacity:1;"
     offset="1"
     id="stop34" /></linearGradient><linearGradient
   id="linearGradient22"
   inkscape:collect="always"><stop
     style="stop-color:#7a5cff;stop-opacity:1;"
     offset="0"
     id="stop22" /><stop
     style="stop-color:#1cccd9;stop-opacity:1;"
     offset="1"
     id="stop23" /></linearGradient><linearGradient
   id="linearGradient20"
   inkscape:collect="always"><stop
     style="stop-color:#795cff;stop-opacity:1;"
     offset="0"
     id="stop20" /><stop
     style="stop-color:#1cccd9;stop-opacity:1;"
     offset="1"
     id="stop21" /></linearGradient><linearGradient
   id="linearGradient16"
   x1="0"
   y1="0"
   x2="0"
   y2="1">
      <stop
   offset="0"
   stop-color="#1ccad8"
   stop-opacity="0.65"
   id="stop15"
   style="stop-color:#1ccad8;stop-opacity:1;" />
      <stop
   offset="1"
   stop-color="#7a5cff"
   stop-opacity="0.65"
   id="stop16"
   style="stop-color:#7a5cff;stop-opacity:1;" />
    </linearGradient><linearGradient
   id="linearGradient14"
   x1="0"
   y1="0"
   x2="0"
   y2="1">
      <stop
   offset="0"
   stop-color="#1ccad8"
   stop-opacity="0.65"
   id="stop13"
   style="stop-color:#1ccad8;stop-opacity:1;" />
      <stop
   offset="1"
   stop-color="#7a5cff"
   stop-opacity="0.65"
   id="stop14"
   style="stop-color:#7a5cff;stop-opacity:1;" />
    </linearGradient>
    <linearGradient
   id="linearGradient12"
   x1="0"
   y1="0"
   x2="0"
   y2="1">
      <stop
   offset="0"
   stop-color="#1ccad8"
   stop-opacity="0.65"
   id="stop11"
   style="stop-color:#6140bf;stop-opacity:1;" />
      <stop
   offset="1"
   stop-color="#7a5cff"
   stop-opacity="0.65"
   id="stop12" />
    </linearGradient>
    <linearGradient
   id="bgGrad"
   x1="1108.8855"
   y1="886.8808"
   x2="1108.8855"
   y2="12348.43"
   gradientTransform="matrix(0.00797815,0,0,1.1244228,977.33539,0)"
   gradientUnits="userSpaceOnUse">
      <stop
   offset="0%"
   stop-color="#0b0d10"
   id="stop1" />
      <stop
   offset="50%"
   stop-color="#10141a"
   id="stop2" />
      <stop
   offset="100%"
   stop-color="#07080a"
   id="stop3" />
    </linearGradient>
    <linearGradient
   id="panelSheen"
   x1="1258.4897"
   y1="999.76398"
   x2="1258.4897"
   y2="12199.481"
   gradientTransform="scale(0.88692179,1.1274951)"
   gradientUnits="userSpaceOnUse">
      <stop
   offset="0%"
   stop-color="#ffffff"
   stop-opacity="0.1"
   id="stop4" />
      <stop
   offset="15%"
   stop-color="#ffffff"
   stop-opacity="0.02"
   id="stop5" />
      <stop
   offset="50%"
   stop-color="#ffffff"
   stop-opacity="0.0"
   id="stop6" />
      <stop
   offset="85%"
   stop-color="#ffffff"
   stop-opacity="0.02"
   id="stop7" />
      <stop
   offset="100%"
   stop-color="#ffffff"
   stop-opacity="0.1"
   id="stop8" />
    </linearGradient>
    <linearGradient
   id="accentGrad"
   x1="0"
   y1="0"
   x2="0"
   y2="1">
      <stop
   offset="0%"
   stop-color="#1ccad8"
   stop-opacity="0.65"
   id="stop9" />
      <stop
   offset="100%"
   stop-color="#7a5cff"
   stop-opacity="0.65"
   id="stop10" />
    </linearGradient>
    <linearGradient
   id="oceanWaveGrad"
   x1="0"
   y1="0"
   x2="1"
   y2="1"
   gradientUnits="objectBoundingBox">
      <stop
   offset="0%"
   stop-color="#55dbff"
   id="stop_wave_1" />
      <stop
   offset="55%"
   stop-color="#1496df"
   id="stop_wave_2" />
      <stop
   offset="100%"
   stop-color="#182682"
   id="stop_wave_3" />
    </linearGradient>
    
    
    
    
    
    
    
    
    
    
  
    
    
    
    
    
    
  <linearGradient
   inkscape:collect="always"
   xlink:href="#oceanWaveGrad"
   id="linearGradient10"
   gradientUnits="userSpaceOnUse"
   x1="-323.57697"
   y1="-103.93273"
   x2="723.81177"
   y2="943.45605"
   gradientTransform="matrix(-1.435811,0,0,0.69647048,8750.0001,12953.568)" /><linearGradient
   inkscape:collect="always"
   xlink:href="#oceanWaveGrad"
   id="linearGradient11"
   gradientUnits="userSpaceOnUse"
   x1="-323.57697"
   y1="-103.93273"
   x2="723.81177"
   y2="943.45605"
   gradientTransform="matrix(1.435811,0,0,0.69647048,3420,12953.568)" /><linearGradient
   id="bgGrad-9"
   x1="1108.8855"
   y1="886.8808"
   x2="1108.8855"
   y2="12348.43"
   gradientTransform="matrix(0.80041062,0,0,1.1244228,98.618211,-1.5464805e-4)"
   gradientUnits="userSpaceOnUse">
      <stop
   offset="0"
   stop-color="#0b0d10"
   id="stop1-2"
   style="stop-color:#0b0d10;stop-opacity:1;" />
      <stop
   offset="50%"
   stop-color="#10141a"
   id="stop2-9" />
      <stop
   offset="100%"
   stop-color="#07080a"
   id="stop3-3" />
    </linearGradient><linearGradient
   inkscape:collect="always"
   xlink:href="#bgGrad-9"
   id="linearGradient1"
   gradientUnits="userSpaceOnUse"
   gradientTransform="matrix(0.80041062,0,0,1.1244228,98.618211,-1.5464805e-4)"
   x1="1108.8855"
   y1="886.8808"
   x2="1108.8855"
   y2="12348.43" /><linearGradient
   inkscape:collect="always"
   xlink:href="#linearGradient33"
   id="linearGradient34"
   x1="986.71983"
   y1="11396.22"
   x2="10164.704"
   y2="11396.22"
   gradientUnits="userSpaceOnUse"
   gradientTransform="matrix(0.99986712,0,0,1.0521843,0.74088648,-564.61563)" /><linearGradient
   inkscape:collect="always"
   xlink:href="#linearGradient20"
   id="linearGradient35"
   gradientUnits="userSpaceOnUse"
   gradientTransform="matrix(1.3902179,0,0,1.3902178,-4174.4961,-5187.5518)"
   x1="5486.8237"
   y1="12735.478"
   x2="7088.8071"
   y2="12738.298"
   spreadMethod="pad" /><linearGradient
   inkscape:collect="always"
   xlink:href="#linearGradient22"
   id="linearGradient36"
   gradientUnits="userSpaceOnUse"
   gradientTransform="matrix(0.99690805,0,0,0.99690805,-1526.0842,-978.22069)"
   x1="4506.2949"
   y1="1594.9027"
   x2="7746.5298"
   y2="1598.8362" /></defs>
  <sodipodi:namedview
   id="namedview488"
   pagecolor="#ffffff"
   bordercolor="#000000"
   borderopacity="0.25"
   inkscape:showpageshadow="2"
   inkscape:pageopacity="0.0"
   inkscape:pagecheckerboard="true"
   inkscape:deskcolor="#d1d1d1"
   inkscape:document-units="mm"
   inkscape:zoom="2.385554"
   inkscape:cx="80.48445"
   inkscape:cy="139.79981"
   inkscape:window-width="2560"
   inkscape:window-height="1377"
   inkscape:window-x="-8"
   inkscape:window-y="-8"
   inkscape:window-maximized="1"
   inkscape:current-layer="svg488"
   showgrid="false"
   inkscape:pageshadow="2" />
  
  <g
   id="panel_art"
   style="display:inline">
    <g
   id="Background_Rect"
   style="display:inline"
   transform="matrix(0.99673566,0,0,0.99708035,-982.96277,-994.31744)">
      
      <rect
   x="986.18201"
   y="997.229"
   width="9173.9473"
   height="12887.627"
   rx="0"
   ry="0"
   fill="url(#bgGrad)"
   id="black_background"
   style="display:inline;opacity:1;fill:url(#linearGradient1);stroke-width:26.7737"
   sodipodi:insensitive="true" /><g
   id="waves_layer"
   style="display:inline;opacity:0.5"
   transform="matrix(1.0032752,0,0,1.0029283,476.52107,1109.6544)"><g
     id="branding_wave_left"
     transform="matrix(1.72,0,0,1.72,2416.9188,11996.75)"
     style="display:inline">
        <path
   style="fill:#4995ec"
   d="m 0,413.249 c 0,0 99.571,-7.286 135.999,-84.999 36.428,-77.713 30.357,-229.499 207.642,-229.499 38.871,0 81.438,18.386 104.731,34.602 116.875,81.362 61.625,248.326 -75.589,205.523 0,0 49.786,-2.125 49.786,-67.697 0,-65.572 -82.091,-75.285 -94.714,-20.643 -8.992,38.927 -3.643,156.643 167.571,162.713"
   id="path149" />
        <path
   style="fill:#7a5cff"
   d="m 372.784,338.875 c 42.5,0 125.678,-65.875 75.213,-144.378 C 412.71,139.6 316.321,128.5 247.714,197.107 179.179,265.642 219.7,398.411 0.644,413.201 9.193,412.412 101.283,402.321 136,328.25 172.429,250.536 166.357,98.751 343.642,98.751 c 38.869,0 81.43,18.384 104.731,34.607 116.874,81.357 61.625,248.321 -75.589,205.517 z"
   id="path151" />
        
        <path
   style="fill:#1cccd9"
   d="M 495.426,413.249 H 268.433 C 242.935,402.664 232.851,365.455 246.5,310.035 c 15.166,-61.576 44.686,-94.762 88.642,-101.999 26.411,-4.347 46.895,4.299 59.973,12.945 -25.087,-13.418 -59.464,-4.238 -67.259,29.556 -8.998,38.929 -3.644,156.641 167.57,162.712 z"
   id="path155" />
      </g><g
     id="branding_wave_right"
     transform="matrix(-1.72,0,0,1.72,7743.0744,11996.75)"
     style="display:inline">
        <path
   style="fill:#4995ec"
   d="m 0,413.249 c 0,0 99.571,-7.286 135.999,-84.999 36.428,-77.713 30.357,-229.499 207.642,-229.499 38.871,0 81.438,18.386 104.731,34.602 116.875,81.362 61.625,248.326 -75.589,205.523 0,0 49.786,-2.125 49.786,-67.697 0,-65.572 -82.091,-75.285 -94.714,-20.643 -8.992,38.927 -3.643,156.643 167.571,162.713"
   id="path158" />
        <path
   style="fill:#7a5cff"
   d="m 372.784,338.875 c 42.5,0 125.678,-65.875 75.213,-144.378 C 412.71,139.6 316.321,128.5 247.714,197.107 179.179,265.642 219.7,398.411 0.644,413.201 9.193,412.412 101.283,402.321 136,328.25 172.429,250.536 166.357,98.751 343.642,98.751 c 38.869,0 81.43,18.384 104.731,34.607 116.874,81.357 61.625,248.321 -75.589,205.517 z"
   id="path160" />
        
        <path
   style="fill:#1cccd9"
   d="M 495.426,413.249 H 268.433 C 242.935,402.664 232.851,365.455 246.5,310.035 c 15.166,-61.576 44.686,-94.762 88.642,-101.999 26.411,-4.347 46.895,4.299 59.973,12.945 -25.087,-13.418 -59.464,-4.238 -67.259,29.556 -8.998,38.929 -3.644,156.641 167.57,162.712 z"
   id="path164" />
      </g></g><rect
   x="1096.182"
   y="1107.229"
   width="9973.2734"
   height="12667.627"
   rx="210"
   ry="210"
   fill="none"
   stroke="#ffffff"
   stroke-opacity="0.1"
   stroke-width="60"
   id="gray_outline"
   style="display:none;stroke:#3c3f42;stroke-opacity:1" />
      
    </g>
    
    
    
    <g
   id="panel_graphics"
   style="display:inline"
   transform="matrix(0.99673566,0,0,0.99708035,-982.96277,-994.31744)">
      <g
   id="grp_frame"
   inkscape:label="Frame"
   style="display:inline">
        <rect
   x="1026.0244"
   y="12044.202"
   width="4358.4023"
   height="1203.173"
   rx="178.52095"
   ry="170.11723"
   fill="#000000"
   opacity="0.1"
   stroke="#ffffff"
   stroke-opacity="0.06"
   stroke-width="43.5671"
   id="frame_left"
   style="opacity:0.33;fill:#5740bf;fill-opacity:1"
   inkscape:label="inputs" />
        
        <rect
   x="5769.2461"
   y="12037.65"
   width="4355.8472"
   height="1200.6312"
   rx="191.74321"
   ry="177.40651"
   fill="#000000"
   opacity="0.1"
   stroke="#ffffff"
   stroke-opacity="0.06"
   stroke-width="46.1089"
   id="outputs"
   style="opacity:0.33;fill:#1cccd9;fill-opacity:0.5" /><rect
   x="1010.9381"
   y="10831.871"
   width="9129.5479"
   height="1188.876"
   rx="47.203239"
   ry="49.655888"
   fill="#000000"
   opacity="0.1"
   stroke="#ffffff"
   stroke-opacity="0.06"
   stroke-width="48.4366"
   id="outputs-3"
   style="display:none;opacity:0.33;fill:url(#linearGradient34)"
   inkscape:label="under_widget_blend" />
        
      </g>
      
    </g>
    
    
  <path
   d="M 427.73558,952.18282 H 8716.2649"
   stroke="url(#accentGrad)"
   stroke-width="46.999"
   stroke-linecap="round"
   opacity="0.55"
   fill="none"
   id="top_horizontal_line"
   style="display:none;opacity:1;stroke:#5740bf;stroke-opacity:1" /></g>
  <g
   id="panel_labels_reworked"
   inkscape:groupmode="layer"
   inkscape:label="Labels Reworked"
   style="display:none"><text
   id="reworked_module_title_text"
   x="4570.1479"
   y="357.32468"
   style="font-style:normal;font-variant:normal;font-weight:normal;font-stretch:normal;font-size:529.167px;font-family:Rubik;-inkscape-font-specification:'Rubik, @wght=600';font-variant-ligatures:normal;font-variant-caps:normal;font-variant-numeric:normal;font-variant-east-asian:normal;font-variation-settings:'wght' 600;dominant-baseline:middle;text-anchor:middle;display:inline;fill:url(#linearGradient36);stroke-width:28.1347"
   xml:space="preserve"><tspan
     sodipodi:role="line"
     id="tspan1"
     style="fill:url(#linearGradient36)"
     x="4570.1479"
     y="357.32468">Crownstep</tspan></text><text
   id="reworked_LEVIATHAN_LOGO"
   x="4570.0957"
   y="12572.233"
   style="font-style:normal;font-variant:normal;font-weight:normal;font-stretch:normal;font-size:635px;font-family:Ancient;-inkscape-font-specification:'Ancient, Normal';font-variant-ligatures:normal;font-variant-caps:normal;font-variant-numeric:normal;font-variant-east-asian:normal;dominant-baseline:middle;text-anchor:middle;display:inline;fill:url(#linearGradient35);fill-rule:evenodd;stroke-width:37.088"
   xml:space="preserve"
   inkscape:label="reworked_LEVIATHAN_LOGO">Leviathan</text>
        
        
        
        
        
        
        
        
        
        
        
        
        
        
        
        
        
        
        
        
        
        <text
   id="clk_lbl"
   x="548.15698"
   y="12042.952"
   style="font-style:normal;font-variant:normal;font-weight:normal;font-stretch:normal;font-size:282.223px;font-family:Rubik;-inkscape-font-specification:'Rubik, @wght=400';font-variant-ligatures:normal;font-variant-caps:normal;font-variant-numeric:normal;font-variant-east-asian:normal;font-variation-settings:'wght' 400;dominant-baseline:middle;text-anchor:middle;fill:#ffffff"
   xml:space="preserve"><tspan
     sodipodi:role="line"
     id="tspan8"
     x="548.15698"
     y="12042.952">STEP</tspan></text><text
   id="clk_lbl-6"
   x="1633.2771"
   y="12042.941"
   style="font-style:normal;font-variant:normal;font-weight:normal;font-stretch:normal;font-size:282.223px;font-family:Rubik;-inkscape-font-specification:'Rubik, @wght=400';font-variant-ligatures:normal;font-variant-caps:normal;font-variant-numeric:normal;font-variant-east-asian:normal;font-variation-settings:'wght' 400;dominant-baseline:middle;text-anchor:middle;display:inline;fill:#ffffff"
   xml:space="preserve"><tspan
     sodipodi:role="line"
     id="tspan5"
     x="1633.2771"
     y="12042.941">RESET</tspan></text><text
   id="transpose_lbl"
   x="2807.0771"
   y="12048.708"
   style="font-style:normal;font-variant:normal;font-weight:normal;font-stretch:normal;font-size:282.223px;font-family:Rubik;-inkscape-font-specification:'Rubik, @wght=400';font-variant-ligatures:normal;font-variant-caps:normal;font-variant-numeric:normal;font-variant-east-asian:normal;font-variation-settings:'wght' 400;dominant-baseline:middle;text-anchor:middle;display:inline;fill:#ffffff"
   xml:space="preserve"><tspan
     sodipodi:role="line"
     id="tspan4"
     x="2807.0771"
     y="12048.708">TRANS</tspan></text><text
   id="transpose_lbl-1"
   x="3866.7202"
   y="12048.743"
   style="font-style:normal;font-variant:normal;font-weight:normal;font-stretch:normal;font-size:282.223px;font-family:Rubik;-inkscape-font-specification:'Rubik, @wght=400';font-variant-ligatures:normal;font-variant-caps:normal;font-variant-numeric:normal;font-variant-east-asian:normal;font-variation-settings:'wght' 400;dominant-baseline:middle;text-anchor:middle;display:inline;fill:#ffffff"
   xml:space="preserve"><tspan
     sodipodi:role="line"
     id="tspan3"
     x="3866.7202"
     y="12048.743">BIAS</tspan></text>
        
        
        
        
        
        
        <text
   id="acc_lbl"
   x="5366.4551"
   y="12040.399"
   style="font-style:normal;font-variant:normal;font-weight:normal;font-stretch:normal;font-size:282.223px;font-family:Rubik;-inkscape-font-specification:'Rubik, @wght=400';font-variant-ligatures:normal;font-variant-caps:normal;font-variant-numeric:normal;font-variant-east-asian:normal;font-variation-settings:'wght' 400;dominant-baseline:middle;text-anchor:middle;fill:#ffffff"
   xml:space="preserve"><tspan
     sodipodi:role="line"
     id="tspan9"
     x="5366.4551"
     y="12040.399">ACC</tspan></text><text
   id="pitch_lbl"
   x="7533.1587"
   y="12069.399"
   style="font-style:normal;font-variant:normal;font-weight:normal;font-stretch:normal;font-size:282.223px;font-family:Rubik;-inkscape-font-specification:'Rubik, @wght=400';font-variant-ligatures:normal;font-variant-caps:normal;font-variant-numeric:normal;font-variant-east-asian:normal;font-variation-settings:'wght' 400;dominant-baseline:middle;text-anchor:middle;display:inline;fill:#ffffff"
   xml:space="preserve"><tspan
     sodipodi:role="line"
     id="tspan10"
     x="7533.1587"
     y="12069.399">PITCH</tspan></text><text
   id="new_lbl"
   x="7379.6494"
   y="798.63428"
   style="font-style:normal;font-variant:normal;font-weight:normal;font-stretch:normal;font-size:211.667px;font-family:Rubik;-inkscape-font-specification:'Rubik, @wght=400';font-variant-ligatures:normal;font-variant-caps:normal;font-variant-numeric:normal;font-variant-east-asian:normal;font-variation-settings:'wght' 400;dominant-baseline:middle;text-anchor:middle;display:inline;fill:#ffffff"
   xml:space="preserve"><tspan
     sodipodi:role="line"
     id="tspan12"
     x="7379.6494"
     y="798.63428">NEW GAME</tspan></text><text
   id="mod_lbl"
   x="8629.3691"
   y="12042.941"
   style="font-style:normal;font-variant:normal;font-weight:normal;font-stretch:normal;font-size:282.223px;font-family:Rubik;-inkscape-font-specification:'Rubik, @wght=400';font-variant-ligatures:normal;font-variant-caps:normal;font-variant-numeric:normal;font-variant-east-asian:normal;font-variation-settings:'wght' 400;dominant-baseline:middle;text-anchor:middle;display:inline;fill:#ffffff"
   xml:space="preserve"><tspan
     sodipodi:role="line"
     id="tspan11"
     x="8629.3691"
     y="12042.941">MOD</tspan></text><text
   id="lbl_eoc"
   x="6462.7827"
   y="12048.742"
   style="font-style:normal;font-variant:normal;font-weight:normal;font-stretch:normal;font-size:282.223px;font-family:Rubik;-inkscape-font-specification:'Rubik, @wght=400';font-variant-ligatures:normal;font-variant-caps:normal;font-variant-numeric:normal;font-variant-east-asian:normal;font-variation-settings:'wght' 400;dominant-baseline:middle;text-anchor:middle;display:inline;fill:#ffffff"
   xml:space="preserve"><tspan
     sodipodi:role="line"
     id="tspan7"
     x="6462.7827"
     y="12048.742">EoC</tspan></text>
        
        
        
        <text
   id="reworked_module_description"
   x="4568.8252"
   y="725.24072"
   style="font-style:normal;font-variant:normal;font-weight:normal;font-stretch:normal;font-size:211.667px;font-family:Rubik;-inkscape-font-specification:'Rubik, @wght=400';font-variant-ligatures:normal;font-variant-caps:normal;font-variant-numeric:normal;font-variant-east-asian:normal;font-variation-settings:'wght' 400;dominant-baseline:middle;text-anchor:middle;display:inline;fill:#ffffff"
   xml:space="preserve"><tspan
     sodipodi:role="line"
     id="tspan2"
     x="4568.8252"
     y="725.24072">sequencer</tspan></text>
        
      </g><g
   id="components"
   style="display:none"><circle
     id="SEQ_LENGTH_PARAM"
     cx="330.28824"
     cy="12531.324"
     style="display:inline;fill:#ff0000;fill-opacity:1;fill-rule:evenodd;stroke-width:30.5"
     r="295" /><circle
     id="NEW_GAME_PARAM"
     cx="7390"
     cy="365.5"
     style="display:inline;fill:#ff0000;fill-opacity:1;fill-rule:evenodd;stroke-width:30.5"
     r="170" /><ellipse
     id="CLOCK_INPUT"
     cx="528.70001"
     cy="11465.241"
     rx="398.39999"
     ry="405.20001"
     style="display:inline;fill:#00ff00;fill-opacity:1;fill-rule:evenodd;stroke-width:38.302" /><ellipse
     id="RESET_INPUT"
     cx="1629.4414"
     cy="11465.241"
     rx="398.39999"
     ry="405.20001"
     style="display:inline;fill:#00ff00;fill-opacity:1;fill-rule:evenodd;stroke-width:38.302" /><ellipse
     id="TRANSPOSE_INPUT"
     cx="2788.1436"
     cy="11465.241"
     rx="398.39999"
     ry="405.20001"
     style="display:inline;fill:#00ff00;fill-opacity:1;fill-rule:evenodd;stroke-width:38.302" /><ellipse
     id="BIAS_INPUT"
     cx="3878.885"
     cy="11465.241"
     rx="398.39999"
     ry="405.20001"
     style="display:inline;fill:#00ff00;fill-opacity:1;fill-rule:evenodd;stroke-width:38.302" /><ellipse
     id="PITCH_OUTPUT"
     cx="7545.2002"
     cy="11465.241"
     rx="398.39999"
     ry="405.20001"
     style="display:inline;fill:#0000ff;fill-opacity:1;fill-rule:evenodd;stroke-width:38.302" /><ellipse
     id="ACCENT_OUTPUT"
     cx="5360.5"
     cy="11465.241"
     rx="398.39999"
     ry="405.20001"
     style="display:inline;fill:#0000ff;fill-opacity:1;fill-rule:evenodd;stroke-width:38.302" /><ellipse
     id="MOD_OUTPUT"
     cx="8615.083"
     cy="11465.241"
     rx="398.39999"
     ry="405.20001"
     style="display:inline;fill:#0000ff;fill-opacity:1;fill-rule:evenodd;stroke-width:38.302" /><ellipse
     id="EOC_OUTPUT"
     cx="6461.8003"
     cy="11465.241"
     rx="398.39999"
     ry="405.20001"
     style="display:inline;fill:#0000ff;fill-opacity:1;fill-rule:evenodd;stroke-width:38.302" /><ellipse
     id="HUMAN_TURN_LIGHT"
     cx="4570.2002"
     cy="11457.4"
     rx="115"
     ry="121"
     style="display:inline;fill:#ff00ff;fill-opacity:1;fill-rule:evenodd;stroke-width:3.606" /><ellipse
     id="AI_TURN_LIGHT"
     cx="4570.2002"
     cy="11751.306"
     rx="115"
     ry="121"
     style="display:inline;fill:#ff00ff;fill-opacity:1;fill-rule:evenodd;stroke-width:3.606" /><rect
     id="STEP_COUNTER"
     x="18.4"
     y="9780.5"
     width="9107.4004"
     height="1212.8"
     style="display:inline;fill:#ff00ff;fill-opacity:1;fill-rule:evenodd;stroke-width:5.09889" /></g><rect
   id="BOARD_AREA"
   x="142"
   y="890"
   width="8880"
   height="8880"
   style="display:inline;fill:#501e5c;fill-opacity:1;stroke:none;stroke-width:31.1342;stroke-opacity:1" />
<g
   id="g58"
   inkscape:groupmode="layer"
   inkscape:label="Labels Reworked"
   style="display:inline"
   inkscape:highlight-color="#3644a9"><path
   d="m 3336.9117,500.19977 q -49.7417,0 -84.6667,-16.40418 -34.3959,-16.93334 -53.4459,-48.68336 -19.05,-32.27919 -21.1666,-78.31672 -0.5292,-21.69585 -0.5292,-46.56669 0,-24.87085 0.5292,-47.62503 2.1166,-45.50836 21.1666,-77.25838 19.5792,-32.27919 54.5042,-49.21253 34.9251,-16.93335 83.6084,-16.93335 35.4542,0 64.5584,8.99584 29.1042,8.99584 50.2709,25.92918 21.1666,16.93335 32.8083,39.68753 11.6417,22.75418 12.7,50.80003 0,4.7625 -3.7042,7.9375 -3.175,3.17501 -7.9375,3.17501 h -60.325 q -6.35,0 -10.0542,-3.17501 -3.7041,-3.175 -5.8208,-10.58334 -7.9375,-31.22085 -26.4584,-42.86252 -18.5208,-11.64168 -46.0375,-11.64168 -32.8083,0 -51.8583,17.99168 -19.0501,17.99168 -20.6376,59.79587 -1.5875,43.3917 0,88.90006 1.5875,41.80419 20.6376,59.79587 19.05,17.99167 51.8583,17.99167 27.5167,0 46.0375,-11.64167 19.0501,-12.17084 26.4584,-42.86253 2.1167,-7.9375 5.8208,-10.58334 3.7042,-3.175 10.0542,-3.175 h 60.325 q 4.7625,0 7.9375,3.175 3.7042,3.17501 3.7042,7.93751 -1.0583,28.04585 -12.7,50.80003 -11.6417,22.75418 -32.8083,39.68752 -21.1667,16.93335 -50.2709,25.92919 -29.1042,8.99584 -64.5584,8.99584 z m 226.4839,-5.29167 q -5.2917,0 -8.9958,-3.70417 -3.7042,-3.70417 -3.7042,-9.52501 V 232.97044 q 0,-5.29167 3.7042,-8.99584 3.7041,-4.23334 8.9958,-4.23334 h 51.8584 q 5.2916,0 8.9958,4.23334 4.2333,3.70417 4.2333,8.99584 v 21.16667 q 13.2292,-16.40417 32.2792,-25.40001 19.5792,-8.99584 44.9792,-8.99584 h 22.7542 q 5.2917,0 8.9958,3.70417 3.7042,3.70417 3.7042,9.52501 v 45.50836 q 0,5.82083 -3.7042,9.525 -3.7041,3.70417 -8.9958,3.70417 h -46.5667 q -23.2833,0 -36.5125,13.22918 -13.2292,12.7 -13.2292,36.51252 v 140.22925 q 0,5.82084 -3.7042,9.52501 -3.7041,3.70417 -9.525,3.70417 z m 340.3335,5.29167 q -43.9208,0 -73.5542,-14.28751 -29.6333,-14.81668 -45.5083,-41.80419 -15.3459,-26.98752 -16.9334,-62.97088 -0.5292,-10.58334 -0.5292,-23.81251 0,-13.75834 0.5292,-23.81252 1.5875,-36.51252 17.9917,-62.97087 16.4042,-26.98751 46.0375,-41.27502 29.6334,-14.81668 71.9667,-14.81668 41.8042,0 71.4376,14.81668 29.6333,14.28751 46.0375,41.27502 16.4042,26.45835 17.9917,62.97087 1.0583,10.05418 1.0583,23.81252 0,13.22917 -1.0583,23.81251 -1.5875,35.98336 -17.4625,62.97088 -15.3459,26.98751 -44.9792,41.80419 -29.6334,14.28751 -73.0251,14.28751 z m 0,-58.20837 q 25.9292,0 39.1584,-15.87501 13.2292,-16.40418 14.2875,-47.62503 0.5292,-7.93751 0.5292,-21.16668 0,-13.22918 -0.5292,-21.16668 -1.0583,-30.69169 -14.2875,-47.09586 -13.2292,-16.40418 -39.1584,-16.40418 -25.9291,0 -39.6875,16.40418 -13.2292,16.40417 -14.2875,47.09586 -0.5292,7.9375 -0.5292,21.16668 0,13.22917 0.5292,21.16668 1.0583,31.22085 14.2875,47.62503 13.7584,15.87501 39.6875,15.87501 z m 259.794,52.9167 q -7.4083,0 -11.6416,-3.70417 -3.7042,-3.70417 -5.8209,-9.52501 L 4070.3898,236.6746 q -1.0584,-2.64583 -1.0584,-5.29167 0,-4.7625 3.175,-7.9375 3.7042,-3.70417 8.4667,-3.70417 h 46.5667 q 6.8792,0 10.5833,3.70417 3.7042,3.70417 4.7625,6.87917 l 48.1542,163.5126 51.3292,-162.45427 q 1.0584,-3.70416 4.7625,-7.40833 4.2334,-4.23334 11.6417,-4.23334 h 30.1625 q 7.4084,0 11.1125,4.23334 4.2334,3.70417 5.2917,7.40833 l 51.3292,162.45427 48.1542,-163.5126 q 0.5292,-3.175 4.2333,-6.87917 4.2334,-3.70417 10.5834,-3.70417 h 46.5667 q 4.7625,0 7.9375,3.70417 3.7041,3.175 3.7041,7.9375 0,2.64584 -0.5291,5.29167 l -76.2001,245.00432 q -1.5875,5.82084 -5.8208,9.52501 -3.7042,3.70417 -11.1125,3.70417 h -40.7459 q -7.4083,0 -11.6416,-3.70417 -4.2334,-3.70417 -6.3501,-9.52501 l -51.3291,-156.63343 -52.3876,156.63343 q -1.5875,5.82084 -5.8208,9.52501 -4.2334,3.70417 -11.6417,3.70417 z m 375.7088,0 q -5.2917,0 -8.9958,-3.70417 -3.7042,-3.70417 -3.7042,-9.52501 V 232.97044 q 0,-5.82084 3.7042,-9.52501 3.7041,-3.70417 8.9958,-3.70417 h 51.8584 q 5.8208,0 9.525,3.70417 3.7041,3.70417 3.7041,9.52501 v 20.63751 q 13.7584,-16.93335 35.4542,-28.04585 21.6959,-11.11251 52.9167,-11.11251 31.2209,0 54.5042,14.28751 23.8125,13.75834 37.0417,40.74586 13.7584,26.45835 13.7584,64.55837 v 147.63759 q 0,5.82084 -4.2334,9.52501 -3.7041,3.70417 -8.9958,3.70417 h -56.0917 q -5.8209,0 -9.525,-3.70417 -3.7042,-3.70417 -3.7042,-9.52501 V 337.21633 q 0,-28.04585 -13.7583,-43.39169 -13.2292,-15.87501 -39.1584,-15.87501 -24.8708,0 -39.6875,15.87501 -14.8167,15.34584 -14.8167,43.39169 v 144.46259 q 0,5.82084 -3.7042,9.52501 -3.7041,3.70417 -8.9958,3.70417 z m 430.7416,5.29167 q -32.8083,0 -56.6208,-7.40834 -23.2834,-7.93751 -38.1001,-19.05001 -14.2875,-11.11251 -21.6958,-22.22502 -6.8792,-11.64167 -7.4083,-19.57918 -0.5292,-5.82083 3.7041,-9.525 4.2334,-3.70417 8.4667,-3.70417 h 51.3292 q 1.5875,0 3.175,0.52917 1.5875,0.52916 3.175,2.64583 6.8792,4.7625 14.2875,11.11251 7.4083,5.82084 16.9334,10.05417 10.0541,4.23334 24.8708,4.23334 17.4625,0 29.6334,-6.87917 12.1708,-7.40834 12.1708,-20.63752 0,-9.525 -5.8208,-15.87501 -5.2917,-6.35 -20.6376,-11.64167 -15.3458,-5.29167 -45.5083,-11.64167 -28.575,-6.35001 -48.6834,-16.93335 -20.1083,-10.58334 -30.1625,-26.45835 -10.0542,-16.40417 -10.0542,-39.15835 0,-20.63752 12.7,-39.68753 13.2292,-19.05001 38.6292,-31.22085 25.4,-12.70001 63.5001,-12.70001 29.1041,0 50.8,7.40834 22.225,6.87917 37.0417,17.99168 14.8167,10.58334 22.225,22.22501 7.9375,11.11251 8.4667,19.57918 0.5291,5.29167 -3.175,8.99584 -3.7042,3.70417 -8.4667,3.70417 h -47.0959 q -2.6458,0 -4.7625,-0.52917 -2.1166,-1.05833 -3.7041,-2.64584 -6.35,-4.23333 -13.2292,-9.525 -6.35,-5.82084 -15.3459,-10.05417 -8.9958,-4.23334 -23.2833,-4.23334 -17.4625,0 -26.9875,7.9375 -8.9959,7.40834 -8.9959,19.05002 0,7.40833 4.7625,13.75834 4.7625,6.35 19.5792,11.64167 14.8167,5.29167 44.9792,11.11251 35.9834,6.35 57.1501,19.05001 21.1666,12.70001 30.1625,29.63335 9.525,16.40418 9.525,35.45419 0,24.87085 -14.8167,44.45003 -14.8167,19.05001 -43.3917,30.16252 -28.0458,10.58334 -69.3209,10.58334 z m 309.5361,-5.29167 q -32.8084,0 -56.0917,-10.58334 -23.2834,-11.11251 -35.4542,-33.86669 -11.6417,-22.75418 -11.6417,-57.15004 V 282.18297 h -41.275 q -5.8209,0 -9.525,-3.70417 -3.7042,-3.70417 -3.7042,-9.52501 v -35.98335 q 0,-5.82084 3.7042,-9.52501 3.7041,-3.70417 9.525,-3.70417 h 41.275 v -87.31255 q 0,-5.82084 3.7042,-9.52501 4.2333,-3.70417 9.525,-3.70417 h 51.8583 q 5.8209,0 9.525,3.70417 3.7042,3.70417 3.7042,9.52501 v 87.31255 h 66.1459 q 5.2917,0 8.9958,3.70417 3.7042,3.70417 3.7042,9.52501 v 35.98335 q 0,5.82084 -3.7042,9.52501 -3.7041,3.70417 -8.9958,3.70417 h -66.1459 v 104.77506 q 0,20.10835 6.8792,31.75002 7.4083,11.11251 25.4,11.11251 h 38.6292 q 5.2917,0 8.9958,3.70417 3.7042,3.70416 3.7042,8.99583 v 39.15836 q 0,5.82084 -3.7042,9.52501 -3.7041,3.70417 -8.9958,3.70417 z m 227.5416,5.29167 q -60.8542,0 -96.8376,-33.86669 -35.4541,-33.86669 -37.5708,-98.42506 0,-4.23334 0,-11.11251 0,-7.40834 0,-11.64167 2.1167,-40.74586 18.5208,-69.85005 16.4042,-29.63335 46.0376,-44.97919 29.6333,-15.87501 69.3208,-15.87501 44.4501,0 74.0834,18.52085 30.1625,17.99167 44.9792,49.74169 15.3459,31.22085 15.3459,71.96671 v 12.17084 q 0,5.29167 -4.2334,8.99584 -3.7042,3.70417 -8.9958,3.70417 h -173.0376 q 0,0.52917 0,2.11667 0,1.05833 0,2.11667 0.5291,16.93334 6.35,31.22085 6.35,13.75834 17.4625,22.22501 11.6417,8.46668 27.5167,8.46668 13.2291,0 21.6958,-3.70417 8.4667,-3.70417 13.7584,-8.99584 5.8208,-5.29167 8.4666,-8.99584 4.7625,-5.29167 7.4084,-6.35 3.175,-1.58751 9.525,-1.58751 h 55.0333 q 5.2917,0 8.4667,3.17501 3.7042,2.64583 3.175,7.9375 -0.5292,8.46667 -8.9958,21.16668 -7.9375,12.17084 -23.8125,24.34168 -15.8751,11.64168 -39.6876,19.57918 -23.2833,7.93751 -53.975,7.93751 z M 5454.6637,331.3955 h 103.7167 v -1.05834 q 0,-19.05001 -6.35,-32.80835 -5.8208,-14.28751 -17.4625,-22.22502 -11.6417,-7.9375 -28.0459,-7.9375 -16.4041,0 -28.0458,7.9375 -11.6417,7.93751 -17.9917,22.22502 -5.8208,13.75834 -5.8208,32.80835 z m 252.4122,264.05432 q -5.8208,0 -9.525,-3.70416 -3.7042,-3.70417 -3.7042,-9.52501 V 232.97044 q 0,-5.82084 3.7042,-9.52501 3.7042,-3.70417 9.525,-3.70417 h 50.2709 q 5.8208,0 9.525,3.70417 3.7041,3.70417 3.7041,9.52501 v 20.10834 q 12.7,-16.93334 32.8084,-27.51668 20.1083,-11.11251 50.2708,-11.11251 27.5167,0 47.6251,8.99584 20.6375,8.46667 34.3958,24.87085 14.2875,15.87501 21.6959,38.62919 7.9375,22.75418 8.9958,51.3292 0.5292,10.05417 0.5292,19.05001 0,8.99584 -0.5292,19.57918 -0.5292,26.98751 -8.4667,49.74169 -7.4083,22.75418 -21.6958,39.15836 -14.2875,16.40418 -34.925,25.40002 -20.1084,8.99584 -47.6251,8.99584 -26.9875,0 -47.0958,-9.52501 -19.5792,-10.05417 -32.2792,-26.98752 v 118.53341 q 0,5.82084 -3.7042,9.52501 -3.7041,3.70416 -8.9958,3.70416 z m 122.7667,-158.75009 q 20.1084,0 31.7501,-8.46667 11.6416,-8.99584 16.4041,-23.28335 5.2917,-14.28751 6.35,-31.22085 1.0584,-16.40418 0,-32.80836 -1.0583,-16.93334 -6.35,-31.22085 -4.7625,-14.28751 -16.4041,-22.75418 -11.6417,-8.99584 -31.7501,-8.99584 -19.5791,0 -31.75,8.99584 -12.1708,8.99584 -17.4625,22.75418 -5.2917,13.75834 -6.35,29.63335 -0.5292,9.52501 -0.5292,19.57918 0,10.05417 0.5292,20.10835 0.5292,14.81667 6.35,28.04585 6.35,12.7 17.9917,21.16668 12.1708,8.46667 31.2208,8.46667 z"
   id="text47"
   style="font-size:529.167px;font-family:Rubik;-inkscape-font-specification:'Rubik, @wght=600';font-variation-settings:'wght' 600;dominant-baseline:middle;text-anchor:middle;fill:url(#linearGradient36);stroke-width:28.1347"
   aria-label="Crownstep" /><path
   d="m 3774.4406,12409.991 -16.51,-15.24 10.795,-12.7 q -1.27,-1.27 -2.54,-1.905 -0.635,-0.635 -1.27,-1.905 l -3.81,-3.81 q -1.905,-1.27 -5.08,-2.54 -2.54,-1.905 -7.62,-6.35 -3.81,-1.905 -8.255,-4.445 -4.445,-3.175 -9.525,-6.985 h -1.905 l -1.27,-0.635 h -3.81 l -0.635,-0.635 q -21.59,0 -28.575,12.065 -6.35,8.255 -6.35,12.7 v 193.04 q 0,8.89 -4.445,19.05 -3.81,9.525 -10.795,18.415 -6.35,8.255 -14.605,15.24 -8.255,6.985 -17.145,10.795 v -0.635 q -3.175,2.54 -7.62,3.81 -4.445,0.635 -12.7,3.81 h 0.635 q -1.27,0.635 -2.54,0.635 -0.635,0 -1.27,0.635 -1.27,0 -2.54,0.635 -1.27,0 -2.54,0 -1.905,0.635 -5.08,0.635 h -9.525 q 8.89,-8.89 13.97,-18.415 5.08,-9.525 6.35,-20.955 v -3.175 q 0,-2.54 0.635,-5.715 0,-1.27 0,-1.905 0.635,-0.635 0.635,-1.905 v -176.53 q 0,-34.29 55.245,-69.85 50.8,-33.02 86.995,-33.02 h 2.54 q 10.795,0 41.275,12.065 19.05,9.525 26.035,21.59 z m 4.445,323.215 q -70.485,-29.845 -143.51,-29.845 -62.865,0 -110.49,21.59 -4.445,1.27 -10.795,4.445 -5.715,3.81 -12.7,6.985 13.97,-26.67 36.195,-45.72 22.225,-19.05 54.61,-31.75 55.245,-22.225 113.03,-22.225 38.1,0 66.675,9.525 v -117.475 q -10.795,-3.81 -10.795,-19.05 0,-8.89 6.985,-15.875 6.985,-7.62 15.875,-7.62 8.89,0 15.24,7.62 6.985,6.985 6.985,15.875 0,15.24 -11.43,20.32 v 122.555 q 1.27,1.27 6.985,2.54 l 2.54,1.905 h -1.27 q 2.54,1.27 3.175,1.905 v -0.635 l 1.27,0.635 0.635,0.635 2.54,1.27 8.89,-10.795 17.78,13.97 z m -175.26,-338.455 4.445,1.27 q -7.62,22.86 -7.62,24.765 l -1.27,178.435 v 1.27 q 0,9.525 -10.16,25.4 -27.305,43.815 -73.025,48.26 15.24,-24.765 15.24,-48.26 v -64.77 q -1.27,-1.27 -4.445,-1.905 -2.54,-1.27 -5.715,-3.81 h -1.905 q -6.985,0 -12.7,4.445 -5.715,4.445 -6.35,11.43 l 0.635,0.635 v 4.445 h -3.175 l -0.635,0.635 h -2.54 q -10.795,0 -19.685,-9.525 -8.255,-10.16 -8.89,-20.955 -0.635,-1.27 -0.635,-6.985 0,-34.925 38.1,-49.53 6.35,-1.27 12.7,-1.905 6.985,-1.27 15.24,-2.54 v -23.495 q 0,-8.89 0.635,-12.065 2.54,-17.78 29.21,-36.195 25.4,-19.685 43.815,-19.685 z m 55.245,-62.23 q -3.175,26.67 -30.48,43.815 -24.13,17.145 -50.8,17.145 -15.875,0 -34.925,-7.62 -4.445,0 -5.08,-1.27 -2.54,-1.27 -4.445,-1.905 -2.54,0 -3.81,-0.635 -3.81,-1.27 -9.525,-1.905 -5.715,-1.27 -7.62,-1.27 l -0.635,0.635 q -6.985,0 -9.525,1.905 -3.81,0 -8.255,4.445 -2.54,0.635 -7.62,4.445 -4.445,3.175 -11.43,8.89 v -6.35 q 0,-35.56 19.685,-57.15 19.685,-22.225 53.975,-22.225 10.795,0 22.86,3.175 12.7,2.54 27.305,7.62 29.21,10.795 41.91,10.795 1.905,0 4.445,-0.635 2.54,-0.635 6.35,-1.905 1.27,-1.27 4.445,-2.54 z m 391.1606,209.55 q -7.62,3.81 -30.48,17.145 -22.225,12.7 -60.96,35.56 -5.715,3.175 -12.7,8.255 v 47.625 q 19.685,3.175 36.195,8.255 17.145,5.08 31.75,12.065 l 15.24,-15.875 15.875,14.605 -57.785,63.5 -6.35,-3.175 q -13.335,-6.985 -26.035,-13.335 -12.7,-5.715 -29.21,-8.89 -27.94,-5.715 -48.26,-5.715 -7.62,0 -15.24,1.27 -7.62,0.635 -15.24,1.905 1.27,-3.175 2.54,-5.08 1.27,-2.54 2.54,-3.81 v 0.635 q 4.445,-6.985 6.985,-11.43 3.175,-4.445 3.81,-5.08 4.445,-5.715 17.145,-15.24 v -153.67 q 0,-9.525 -10.16,-31.75 v -8.89 l 5.715,5.715 h 3.81 l 0.635,0.635 h 1.905 l 1.905,0.635 h 2.54 q 50.165,0 113.03,-41.91 3.175,11.43 8.255,24.765 5.08,13.335 13.97,29.845 8.255,14.605 15.24,27.305 7.62,12.065 13.97,20.955 z m -99.06,-50.165 -5.08,1.27 v 81.28 l 34.29,-22.225 q -2.54,-3.81 -6.35,-9.525 -3.175,-6.35 -7.62,-15.875 -4.445,-8.255 -8.255,-17.145 -3.81,-8.89 -6.985,-17.78 z m 366.3946,-8.255 v 3.81 l -0.635,1.27 q 0,7.62 -6.35,15.24 -5.715,6.985 -16.51,15.24 v 155.575 q 0,5.715 1.905,8.255 l 8.255,20.32 -1.27,-0.635 v 3.81 q -15.24,0 -17.78,-0.635 h -3.81 q -13.335,0 -32.385,3.81 -19.05,4.445 -45.085,12.7 -36.195,11.43 -52.705,11.43 -17.78,0 -27.305,-3.81 -25.4,-9.525 -25.4,-48.26 v -161.29 q 0,-5.08 -7.62,-11.43 -7.62,-6.985 -13.335,-6.985 h -1.27 l -1.905,-0.635 h -4.445 l -1.27,-0.635 h -3.81 v -4.445 l 66.675,-53.34 q 20.32,4.445 31.75,27.305 3.175,5.715 3.175,13.97 v 175.895 q 0,13.97 10.795,22.225 10.795,7.62 26.67,7.62 22.225,0 22.225,-13.97 v -153.035 q -12.7,-3.81 -19.685,-14.605 l -8.89,5.715 -10.16,-15.875 68.58,-52.07 q 25.4,33.655 46.99,33.655 6.35,0 15.24,-5.715 v 8.255 z m 104.7747,248.92 q -10.16,-0.635 -20.32,-4.445 -10.16,-3.175 -19.05,-10.795 -19.05,-15.24 -19.05,-34.925 v -160.02 q -9.525,-0.635 -14.605,-11.43 l -8.89,5.08 -8.89,-12.7 1.905,-3.175 0.635,0.635 1.27,-1.27 1.27,-0.635 q 6.35,-5.715 13.97,-12.7 7.62,-7.62 20.32,-18.415 6.985,-4.445 17.145,-13.97 l 2.54,-1.905 q 1.905,-1.905 3.81,-3.81 v -7.62 q 26.035,36.83 45.72,36.83 4.445,0 20.32,-8.89 v 7.62 q -1.27,3.81 -1.27,8.89 -5.08,14.605 -13.335,24.13 -8.255,8.89 -17.145,12.7 v 135.255 q 0,3.81 3.175,10.16 5.715,12.065 26.035,12.065 6.985,0 16.51,-3.81 l 2.54,4.445 z m -17.145,-297.815 h -5.08 v -0.635 h -6.35 l -1.27,-0.635 q -24.13,0 -29.845,-19.685 l -10.16,5.08 -8.255,-13.97 q 5.08,-5.08 10.795,-7.62 5.715,-3.175 10.795,-5.715 l -1.27,1.27 q 1.905,-1.27 5.08,-3.81 3.81,-3.175 6.985,-5.715 4.445,-3.175 10.16,-7.62 6.35,-4.445 13.335,-9.525 16.51,24.13 34.29,24.13 3.175,-1.27 5.08,-1.27 2.54,-0.635 5.715,-1.905 h -0.635 l 1.27,-1.27 h 0.635 l 0.635,-0.635 h 0.635 l 0.635,-0.635 h 4.445 v 5.715 q 0,8.89 -4.445,17.145 -3.81,7.62 -10.795,13.97 -6.35,5.715 -15.24,9.525 -8.255,3.81 -17.145,3.81 z m 79.3745,247.015 q -1.27,1.905 -1.27,2.54 0.635,0 1.905,-1.905 z m 211.455,-26.67 v -189.23 q -53.34,-17.145 -105.41,-35.56 -49.53,29.21 -102.235,45.72 v 1.27 q 0,6.985 9.525,19.685 v 167.64 l -6.985,10.16 q -1.905,2.54 -3.81,4.445 l -1.905,3.175 q 52.705,6.35 111.125,63.5 l 42.545,-45.085 48.26,45.085 56.515,-64.135 -23.495,-3.175 q -17.145,-2.54 -24.13,-23.495 z m -74.295,18.415 q -22.225,-17.145 -53.34,-32.385 v -161.29 l -2.54,-1.905 v -0.635 q 3.81,0 55.88,22.86 z m 210.8199,46.99 q -33.02,-31.115 -64.135,-31.115 -14.605,0 -21.59,10.795 v -8.89 q 0,-1.905 5.08,-14.605 8.89,-19.05 24.13,-27.305 v -153.67 h -10.795 q -4.445,2.54 -10.16,3.81 -0.635,0.635 -5.715,1.905 l -0.635,1.27 h -1.27 l -6.985,3.81 v -4.445 q 0,-2.54 0.635,-3.81 v -1.905 l 0.635,-1.27 q 0,-2.54 0.635,-3.81 v -4.445 q 0,-1.905 0,-3.81 0.635,-1.905 1.27,-4.445 v -3.81 l -0.635,-1.905 v -5.715 q -2.54,-6.985 -2.54,-22.86 8.255,4.445 13.335,6.35 5.715,1.905 8.89,2.54 1.27,-0.635 8.255,-0.635 h 5.08 v -28.575 l -0.635,-1.27 v -6.985 q -0.635,-0.635 -1.27,-1.905 -0.635,-1.27 -1.27,-2.54 0,-1.905 -0.635,-3.175 v -0.635 q -1.27,-1.27 -1.27,-5.08 l 4.445,-1.27 0.635,1.27 h 3.175 v 0.635 q 35.56,0 67.31,-39.37 v 8.255 l -0.635,0.635 q -0.635,1.27 -1.27,3.81 0,2.54 -1.27,6.35 v 0.635 q 0,1.905 -0.635,3.175 -2.54,10.16 -2.54,15.24 v 50.8 h 19.685 l 1.27,0.635 q 10.16,0 22.225,-8.89 v 6.985 q -0.635,1.27 -0.635,3.81 -1.905,3.175 -1.905,15.875 h 0.635 q 0,13.335 3.175,35.56 l -6.985,-3.81 -0.635,-0.635 h -0.635 q -6.985,-2.54 -15.875,-3.81 -8.89,-1.905 -20.32,-2.54 v 146.05 q 4.445,4.445 10.16,4.445 l 1.905,0.635 q 1.905,0.635 2.54,1.27 1.905,1.905 3.81,1.905 0.635,0.635 1.27,1.27 1.27,0 1.905,0.635 h -0.635 q 1.905,1.27 4.445,3.81 3.175,1.905 6.985,3.81 l 6.35,-6.35 12.7,14.605 z m 327.025,-250.19 q 0,1.905 -0.635,5.08 -6.985,24.13 -22.225,33.02 l 0.635,165.1 v -0.635 q 5.08,14.605 13.97,26.035 v -0.635 l 1.27,1.27 v 0.635 l 1.27,1.27 -3.175,4.445 q -12.065,-6.35 -33.02,-6.35 -33.02,0 -34.925,10.795 l 4.445,4.445 h -3.81 q 1.27,1.905 4.445,5.08 3.81,3.175 8.89,7.62 31.115,25.4 31.115,51.435 0,24.13 -22.86,38.1 -8.89,5.715 -12.7,5.715 l -1.27,0.635 h -3.81 l -0.635,0.635 h -2.54 q -19.05,0 -26.67,-18.415 20.32,-7.62 20.32,-21.59 0,-11.43 -6.985,-19.685 -1.905,-0.635 -2.54,-6.35 l 0.635,0.635 q -12.065,-17.78 -12.065,-38.735 0,-14.605 7.62,-19.05 v -0.635 q 6.985,-6.985 6.985,-15.24 v -164.465 q -6.35,0 -17.78,-7.62 -12.7,-8.255 -15.24,-10.795 l -0.635,-0.635 -27.94,20.955 v 131.445 q 2.54,0.635 5.715,1.905 3.175,1.27 7.62,2.54 10.16,5.08 17.145,10.795 7.62,5.715 12.7,12.065 l -58.42,53.34 q -35.56,-34.29 -64.77,-34.29 h -3.175 q -1.27,0 -3.81,0.635 -2.54,0.635 -7.62,3.175 -3.175,1.27 -6.985,1.905 -3.81,0.635 -5.08,0.635 8.89,-34.925 40.005,-48.26 v -266.065 q 0,-12.065 -12.065,-38.1 18.415,0 36.83,-7.62 18.415,-7.62 38.735,-22.225 1.27,-0.635 13.97,-11.43 l -0.635,0.635 5.08,0.635 q -1.27,3.81 -3.175,8.255 -1.27,4.445 -1.905,6.35 l -1.905,3.81 q -2.54,5.08 -5.08,19.05 -0.635,0.635 -0.635,1.27 v 0.635 q -1.27,6.985 -1.905,11.43 -0.635,4.445 -0.635,6.35 v 119.38 l 80.01,-60.96 q 17.145,34.925 36.195,34.925 0.635,0.635 3.81,0.635 8.255,0 31.75,-14.605 v 8.89 q 0,1.905 -0.635,3.175 0,1.27 -0.635,3.175 -0.635,1.905 -0.635,4.445 z m 10.1604,211.455 q -1.27,1.905 -1.27,2.54 0.635,0 1.905,-1.905 z m 211.455,-26.67 v -189.23 q -53.34,-17.145 -105.41,-35.56 -49.53,29.21 -102.235,45.72 v 1.27 q 0,6.985 9.525,19.685 v 167.64 l -6.985,10.16 q -1.905,2.54 -3.81,4.445 l -1.905,3.175 q 52.705,6.35 111.125,63.5 l 42.545,-45.085 48.26,45.085 56.515,-64.135 -23.495,-3.175 q -17.145,-2.54 -24.13,-23.495 z m -74.295,18.415 q -22.225,-17.145 -53.34,-32.385 v -161.29 l -2.54,-1.905 v -0.635 q 3.81,0 55.88,22.86 z m 353.06,-194.945 q 1.905,0.635 1.905,3.81 0,5.08 -7.62,19.05 v 184.15 h 24.765 q -6.35,0 -57.785,59.055 -2.54,-10.795 -57.15,-62.865 h 14.605 v -176.53 l -24.765,-20.955 -32.385,24.765 v 173.99 h 27.305 q -41.91,24.765 -56.515,46.99 -11.43,16.51 -12.7,16.51 -0.635,0 -0.635,-0.635 l 0.635,-1.27 q -5.715,-25.4 -59.055,-56.515 l -1.27,-3.81 h 24.765 v -165.1 q -8.89,-34.925 -29.845,-36.195 l 55.88,-41.91 q 40.64,23.495 46.99,33.655 14.605,-1.27 65.405,-34.925 l 8.255,-6.35 q 43.18,34.29 69.215,45.085 z"
   id="text48"
   style="font-size:635px;font-family:Ancient;-inkscape-font-specification:'Ancient, Normal';dominant-baseline:middle;text-anchor:middle;fill:url(#linearGradient35);stroke-width:37.088"
   inkscape:label="reworked_LEVIATHAN_LOGO"
   aria-label="Leviathan" />
        
        
        
        
        
        
        
        
        
        
        
        
        
        
        
        
        
        
        
        
        
        <path
   d="m 291.73075,12119.152 q -24.5534,0 -41.20456,-7.337 -16.65115,-7.62 -25.68229,-19.474 -8.74891,-12.135 -9.31336,-25.682 0,-2.258 1.69334,-3.951 1.97556,-1.976 4.51557,-1.976 h 14.39337 q 3.38668,0 5.08002,1.694 1.69333,1.693 2.25778,3.951 1.41111,6.773 6.77335,13.546 5.64446,6.491 15.52227,11.007 10.16002,4.233 25.96451,4.233 24.27118,0 35.5601,-8.466 11.57114,-8.749 11.57114,-23.143 0,-9.877 -6.20891,-15.804 -5.92668,-6.209 -18.34449,-11.007 -12.41781,-4.798 -32.17342,-10.442 -20.60228,-5.927 -34.14898,-12.982 -13.54671,-7.056 -20.32006,-17.498 -6.49113,-10.442 -6.49113,-26.529 0,-15.24 8.18447,-27.093 8.18447,-12.136 23.42451,-19.192 15.52226,-7.055 37.53566,-7.055 17.49782,0 30.48008,4.798 13.26448,4.515 22.01339,12.417 8.74891,7.62 13.26448,16.652 4.51557,8.748 4.79779,17.215 0,1.976 -1.41111,3.951 -1.41112,1.694 -4.51557,1.694 h -14.95782 q -1.97556,0 -4.23334,-1.129 -1.97556,-1.129 -3.10446,-4.234 -1.69333,-11.571 -12.98225,-19.473 -11.28892,-7.902 -29.35119,-7.902 -18.3445,0 -29.91564,7.055 -11.28892,7.056 -11.28892,22.014 0,9.595 5.36224,16.086 5.36223,6.209 16.93338,11.007 11.57114,4.798 30.19786,10.16 22.57783,6.209 36.97121,13.265 14.39337,6.773 21.16672,17.215 7.05558,10.16 7.05558,26.247 0,17.78 -9.31336,30.48 -9.31336,12.418 -26.24674,19.191 -16.65116,6.491 -39.51122,6.491 z m 159.50883,-2.822 q -2.82223,0 -4.79779,-1.693 -1.69334,-1.976 -1.69334,-4.798 v -165.947 h -54.18682 q -2.82223,0 -4.79779,-1.693 -1.69333,-1.976 -1.69333,-4.798 v -11.854 q 0,-3.104 1.69333,-4.797 1.97556,-1.976 4.79779,-1.976 h 136.03149 q 3.10445,0 4.79779,1.976 1.97556,1.693 1.97556,4.797 v 11.854 q 0,2.822 -1.97556,4.798 -1.69334,1.693 -4.79779,1.693 h -53.9046 v 165.947 q 0,2.822 -1.97556,4.798 -1.69333,1.693 -4.79779,1.693 z m 120.22712,0 q -3.10445,0 -4.79779,-1.693 -1.69334,-1.976 -1.69334,-4.798 v -184.292 q 0,-3.104 1.69334,-4.797 1.69334,-1.976 4.79779,-1.976 h 116.5581 q 3.10445,0 4.79779,1.976 1.69334,1.693 1.69334,4.797 v 10.725 q 0,3.104 -1.69334,4.798 -1.69334,1.693 -4.79779,1.693 h -95.95582 v 61.807 h 89.74691 q 3.10445,0 4.79779,1.975 1.69334,1.694 1.69334,4.798 v 10.442 q 0,2.823 -1.69334,4.798 -1.69334,1.694 -4.79779,1.694 h -89.74691 v 64.064 h 98.2136 q 3.10445,0 4.79779,1.694 1.69334,1.693 1.69334,4.797 v 11.007 q 0,2.822 -1.69334,4.798 -1.69334,1.693 -4.79779,1.693 z m 171.02741,0 q -3.10446,0 -4.79779,-1.693 -1.69334,-1.976 -1.69334,-4.798 v -184.292 q 0,-3.104 1.69334,-4.797 1.69333,-1.976 4.79779,-1.976 h 71.68464 q 20.8845,0 36.12454,6.773 15.52226,6.774 23.98895,20.32 8.46669,13.265 8.46669,33.303 0,20.038 -8.46669,33.302 -8.46669,13.265 -23.98895,20.038 -15.24004,6.773 -36.12454,6.773 h -49.95347 v 70.556 q 0,2.822 -1.97556,4.798 -1.69334,1.693 -4.7978,1.693 z m 21.44894,-100.753 h 48.82458 q 20.8845,0 31.32675,-9.314 10.44225,-9.313 10.44225,-27.093 0,-17.498 -10.16002,-27.094 -10.16003,-9.595 -31.60898,-9.595 h -48.82458 z"
   id="text49"
   style="font-size:282.223px;font-family:Rubik;-inkscape-font-specification:'Rubik, @wght=400';font-variation-settings:'wght' 400;dominant-baseline:middle;text-anchor:middle;fill:#ffffff"
   aria-label="STEP" /><path
   d="m 1231.3912,12116.319 q -3.1045,0 -4.7978,-1.693 -1.6934,-1.976 -1.6934,-4.798 v -184.291 q 0,-3.105 1.6934,-4.798 1.6933,-1.976 4.7978,-1.976 h 68.8624 q 31.8912,0 50.5179,14.958 18.6267,14.958 18.6267,44.309 0,21.731 -11.0067,35.56 -10.7244,13.547 -29.3512,18.909 l 43.4624,75.071 q 0.8466,1.694 0.8466,3.105 0,2.258 -1.9755,3.951 -1.6934,1.693 -3.9511,1.693 h -13.5467 q -4.7978,0 -7.0556,-2.54 -2.2578,-2.54 -3.9511,-5.08 l -40.9224,-71.684 h -49.389 v 72.813 q 0,2.822 -1.9756,4.798 -1.6933,1.693 -4.7977,1.693 z m 21.1667,-103.293 h 46.5668 q 21.1667,0 31.609,-8.749 10.4422,-9.031 10.4422,-26.529 0,-17.216 -10.4422,-26.247 -10.1601,-9.031 -31.609,-9.031 h -46.5668 z m 163.6895,103.293 q -3.1044,0 -4.7978,-1.693 -1.6933,-1.976 -1.6933,-4.798 v -184.291 q 0,-3.105 1.6933,-4.798 1.6934,-1.976 4.7978,-1.976 h 116.5581 q 3.1045,0 4.7978,1.976 1.6933,1.693 1.6933,4.798 v 10.724 q 0,3.105 -1.6933,4.798 -1.6933,1.693 -4.7978,1.693 h -95.9558 v 61.807 h 89.7469 q 3.1045,0 4.7978,1.976 1.6933,1.693 1.6933,4.797 v 10.443 q 0,2.822 -1.6933,4.797 -1.6933,1.694 -4.7978,1.694 h -89.7469 v 64.064 h 98.2136 q 3.1045,0 4.7978,1.694 1.6933,1.693 1.6933,4.798 v 11.006 q 0,2.822 -1.6933,4.798 -1.6933,1.693 -4.7978,1.693 z m 228.0365,2.823 q -24.5534,0 -41.2046,-7.338 -16.6512,-7.62 -25.6823,-19.474 -8.7489,-12.135 -9.3133,-25.682 0,-2.258 1.6933,-3.951 1.9755,-1.976 4.5156,-1.976 h 14.3933 q 3.3867,0 5.08,1.694 1.6934,1.693 2.2578,3.951 1.4111,6.773 6.7734,13.547 5.6444,6.491 15.5222,11.006 10.1601,4.234 25.9646,4.234 24.2711,0 35.5601,-8.467 11.5711,-8.749 11.5711,-23.142 0,-9.878 -6.2089,-15.805 -5.9267,-6.209 -18.3445,-11.007 -12.4178,-4.797 -32.1734,-10.442 -20.6023,-5.926 -34.149,-12.982 -13.5467,-7.056 -20.3201,-17.498 -6.4911,-10.442 -6.4911,-26.529 0,-15.24 8.1845,-27.093 8.1844,-12.136 23.4245,-19.191 15.5223,-7.056 37.5356,-7.056 17.4979,0 30.4801,4.798 13.2645,4.515 22.0134,12.418 8.7489,7.62 13.2645,16.651 4.5156,8.749 4.7978,17.215 0,1.976 -1.4111,3.952 -1.4111,1.693 -4.5156,1.693 h -14.9578 q -1.9756,0 -4.2334,-1.129 -1.9755,-1.129 -3.1044,-4.233 -1.6933,-11.572 -12.9823,-19.474 -11.2889,-7.902 -29.3512,-7.902 -18.3445,0 -29.9156,7.056 -11.2889,7.055 -11.2889,22.013 0,9.596 5.3622,16.087 5.3623,6.209 16.9334,11.006 11.5711,4.798 30.1979,10.16 22.5778,6.209 36.9712,13.265 14.3933,6.773 21.1667,17.215 7.0556,10.161 7.0556,26.247 0,17.78 -9.3134,30.48 -9.3133,12.418 -26.2467,19.191 -16.6512,6.492 -39.5112,6.492 z m 118.5335,-2.823 q -3.1044,0 -4.7977,-1.693 -1.6934,-1.976 -1.6934,-4.798 v -184.291 q 0,-3.105 1.6934,-4.798 1.6933,-1.976 4.7977,-1.976 h 116.5581 q 3.1045,0 4.7978,1.976 1.6934,1.693 1.6934,4.798 v 10.724 q 0,3.105 -1.6934,4.798 -1.6933,1.693 -4.7978,1.693 h -95.9558 v 61.807 h 89.7469 q 3.1045,0 4.7978,1.976 1.6934,1.693 1.6934,4.797 v 10.443 q 0,2.822 -1.6934,4.797 -1.6933,1.694 -4.7978,1.694 h -89.7469 v 64.064 h 98.2136 q 3.1045,0 4.7978,1.694 1.6934,1.693 1.6934,4.798 v 11.006 q 0,2.822 -1.6934,4.798 -1.6933,1.693 -4.7978,1.693 z m 214.2076,0 q -2.8223,0 -4.7978,-1.693 -1.6934,-1.976 -1.6934,-4.798 v -165.947 h -54.1868 q -2.8222,0 -4.7978,-1.693 -1.6933,-1.976 -1.6933,-4.798 v -11.853 q 0,-3.105 1.6933,-4.798 1.9756,-1.976 4.7978,-1.976 h 136.0315 q 3.1045,0 4.7978,1.976 1.9756,1.693 1.9756,4.798 v 11.853 q 0,2.822 -1.9756,4.798 -1.6933,1.693 -4.7978,1.693 h -53.9046 v 165.947 q 0,2.822 -1.9755,4.798 -1.6934,1.693 -4.7978,1.693 z"
   id="text50"
   style="font-size:282.223px;font-family:Rubik;-inkscape-font-specification:'Rubik, @wght=400';font-variation-settings:'wght' 400;dominant-baseline:middle;text-anchor:middle;fill:#ffffff"
   aria-label="RESET" /><path
   d="m 2426.7816,12122.086 q -2.8223,0 -4.7978,-1.693 -1.6934,-1.976 -1.6934,-4.798 v -165.947 h -54.1868 q -2.8222,0 -4.7978,-1.694 -1.6933,-1.975 -1.6933,-4.797 v -11.854 q 0,-3.104 1.6933,-4.798 1.9756,-1.975 4.7978,-1.975 h 136.0315 q 3.1045,0 4.7978,1.975 1.9756,1.694 1.9756,4.798 v 11.854 q 0,2.822 -1.9756,4.797 -1.6933,1.694 -4.7978,1.694 h -53.9046 v 165.947 q 0,2.822 -1.9755,4.798 -1.6934,1.693 -4.7978,1.693 z m 120.2271,0 q -3.1045,0 -4.7978,-1.693 -1.6933,-1.976 -1.6933,-4.798 v -184.292 q 0,-3.104 1.6933,-4.798 1.6933,-1.975 4.7978,-1.975 h 68.8624 q 31.8912,0 50.5179,14.958 18.6267,14.958 18.6267,44.309 0,21.731 -11.0067,35.56 -10.7244,13.547 -29.3511,18.909 l 43.4623,75.071 q 0.8467,1.693 0.8467,3.105 0,2.257 -1.9756,3.951 -1.6933,1.693 -3.9511,1.693 h -13.5467 q -4.7978,0 -7.0556,-2.54 -2.2578,-2.54 -3.9511,-5.08 l -40.9224,-71.685 h -49.389 v 72.814 q 0,2.822 -1.9755,4.798 -1.6934,1.693 -4.7978,1.693 z m 21.1667,-103.294 h 46.5668 q 21.1667,0 31.609,-8.749 10.4422,-9.031 10.4422,-26.529 0,-17.215 -10.4422,-26.246 -10.16,-9.031 -31.609,-9.031 h -46.5668 z m 143.9339,103.294 q -2.2578,0 -3.9511,-1.693 -1.6933,-1.694 -1.6933,-3.951 0,-1.412 0.2822,-3.105 l 69.9913,-182.598 q 1.1289,-2.822 3.1045,-4.516 1.9755,-1.693 5.9266,-1.693 h 19.1912 q 3.6689,0 5.6445,1.693 2.2577,1.694 3.3866,4.516 l 69.7091,182.598 q 0.5645,1.693 0.5645,3.105 0,2.257 -1.6934,3.951 -1.6933,1.693 -3.9511,1.693 h -14.3934 q -3.3866,0 -5.08,-1.693 -1.4111,-1.694 -1.9755,-3.105 l -15.5223,-40.075 h -92.5692 l -15.5222,40.075 q -0.2822,1.411 -1.9756,3.105 -1.6933,1.693 -5.08,1.693 z m 45.1557,-69.145 h 76.2002 l -38.1001,-100.189 z m 163.6894,69.145 q -3.1045,0 -4.7978,-1.693 -1.6934,-1.976 -1.6934,-4.798 v -184.292 q 0,-3.104 1.6934,-4.798 1.6933,-1.975 4.7978,-1.975 h 12.9822 q 3.3867,0 5.08,1.693 1.6934,1.411 1.9756,2.258 l 93.698,143.934 v -141.112 q 0,-3.104 1.6934,-4.798 1.6933,-1.975 4.7978,-1.975 h 13.5467 q 3.1044,0 4.7977,1.975 1.9756,1.694 1.9756,4.798 v 184.01 q 0,2.822 -1.9756,4.797 -1.6933,1.976 -4.5155,1.976 h -13.5467 q -3.1045,0 -4.7978,-1.693 -1.4111,-1.694 -1.9756,-2.258 l -93.4158,-142.523 v 139.983 q 0,2.822 -1.9755,4.798 -1.6934,1.693 -4.7978,1.693 z m 253.1539,2.822 q -24.5534,0 -41.2046,-7.338 -16.6511,-7.62 -25.6822,-19.473 -8.749,-12.136 -9.3134,-25.682 0,-2.258 1.6933,-3.951 1.9756,-1.976 4.5156,-1.976 h 14.3934 q 3.3866,0 5.08,1.693 1.6933,1.694 2.2578,3.952 1.4111,6.773 6.7733,13.546 5.6445,6.491 15.5223,11.007 10.16,4.233 25.9645,4.233 24.2712,0 35.5601,-8.466 11.5711,-8.749 11.5711,-23.143 0,-9.878 -6.2089,-15.804 -5.9266,-6.209 -18.3445,-11.007 -12.4178,-4.798 -32.1734,-10.442 -20.6023,-5.927 -34.149,-12.982 -13.5467,-7.056 -20.32,-17.498 -6.4911,-10.442 -6.4911,-26.529 0,-15.24 8.1844,-27.094 8.1845,-12.135 23.4245,-19.191 15.5223,-7.055 37.5357,-7.055 17.4978,0 30.4801,4.797 13.2645,4.516 22.0134,12.418 8.7489,7.62 13.2644,16.651 4.5156,8.749 4.7978,17.216 0,1.976 -1.4111,3.951 -1.4111,1.693 -4.5155,1.693 h -14.9579 q -1.9755,0 -4.2333,-1.128 -1.9756,-1.129 -3.1045,-4.234 -1.6933,-11.571 -12.9822,-19.473 -11.2889,-7.902 -29.3512,-7.902 -18.3445,0 -29.9157,7.055 -11.2889,7.056 -11.2889,22.014 0,9.595 5.3623,16.086 5.3622,6.209 16.9333,11.007 11.5712,4.798 30.1979,10.16 22.5778,6.209 36.9712,13.264 14.3934,6.774 21.1667,17.216 7.0556,10.16 7.0556,26.247 0,17.78 -9.3133,30.48 -9.3134,12.418 -26.2468,19.191 -16.6511,6.491 -39.5112,6.491 z"
   id="text51"
   style="font-size:282.223px;font-family:Rubik;-inkscape-font-specification:'Rubik, @wght=400';font-variation-settings:'wght' 400;dominant-baseline:middle;text-anchor:middle;fill:#ffffff"
   aria-label="TRANS" /><path
   d="m 3584.1003,12122.121 q -3.1044,0 -4.7978,-1.693 -1.6933,-1.976 -1.6933,-4.798 v -184.292 q 0,-3.104 1.6933,-4.797 1.6934,-1.976 4.7978,-1.976 h 77.3291 q 21.1667,0 34.4312,7.056 13.5467,6.773 19.7556,18.626 6.4912,11.854 6.4912,26.529 0,11.571 -3.9512,20.038 -3.6689,8.185 -9.3133,13.547 -5.6445,5.08 -11.0067,7.902 11.0067,5.362 19.4734,17.498 8.7489,12.135 8.7489,29.351 0,15.522 -7.0556,28.505 -7.0556,12.982 -21.1667,20.884 -13.8289,7.62 -34.4312,7.62 z m 21.1667,-22.86 h 54.4691 q 18.3445,0 28.2223,-9.878 9.8778,-9.878 9.8778,-24.271 0,-14.958 -9.8778,-24.553 -9.8778,-9.878 -28.2223,-9.878 h -54.4691 z m 0,-91.158 h 51.9291 q 18.0623,0 27.3756,-8.184 9.3134,-8.467 9.3134,-22.86 0,-14.394 -9.3134,-22.014 -9.3133,-7.62 -27.3756,-7.62 h -51.9291 z m 167.3581,114.018 q -3.1045,0 -4.7978,-1.693 -1.6934,-1.976 -1.6934,-4.798 v -184.574 q 0,-2.822 1.6934,-4.515 1.6933,-1.976 4.7978,-1.976 h 14.9578 q 2.8222,0 4.5156,1.976 1.9755,1.693 1.9755,4.515 v 184.574 q 0,2.822 -1.9755,4.798 -1.6934,1.693 -4.5156,1.693 z m 57.2915,0 q -2.2578,0 -3.9512,-1.693 -1.6933,-1.694 -1.6933,-3.951 0,-1.411 0.2822,-3.105 l 69.9913,-182.598 q 1.1289,-2.822 3.1045,-4.516 1.9755,-1.693 5.9267,-1.693 h 19.1911 q 3.6689,0 5.6445,1.693 2.2578,1.694 3.3867,4.516 l 69.709,182.598 q 0.5645,1.694 0.5645,3.105 0,2.257 -1.6934,3.951 -1.6933,1.693 -3.9511,1.693 h -14.3934 q -3.3866,0 -5.08,-1.693 -1.4111,-1.694 -1.9755,-3.105 l -15.5223,-40.075 h -92.5691 l -15.5223,40.075 q -0.2822,1.411 -1.9756,3.105 -1.6933,1.693 -5.08,1.693 z m 45.1556,-69.144 h 76.2002 l -38.1001,-100.19 z m 217.8234,71.966 q -24.5534,0 -41.2046,-7.337 -16.6511,-7.62 -25.6823,-19.474 -8.7489,-12.135 -9.3133,-25.682 0,-2.258 1.6933,-3.951 1.9756,-1.976 4.5156,-1.976 h 14.3934 q 3.3866,0 5.08,1.694 1.6933,1.693 2.2578,3.951 1.4111,6.773 6.7733,13.546 5.6445,6.492 15.5223,11.007 10.16,4.233 25.9645,4.233 24.2712,0 35.5601,-8.466 11.5711,-8.749 11.5711,-23.143 0,-9.877 -6.2089,-15.804 -5.9267,-6.209 -18.3445,-11.007 -12.4178,-4.798 -32.1734,-10.442 -20.6023,-5.927 -34.149,-12.982 -13.5467,-7.056 -20.32,-17.498 -6.4912,-10.442 -6.4912,-26.529 0,-15.24 8.1845,-27.093 8.1845,-12.136 23.4245,-19.192 15.5223,-7.055 37.5357,-7.055 17.4978,0 30.4801,4.798 13.2644,4.515 22.0134,12.417 8.7489,7.62 13.2644,16.652 4.5156,8.748 4.7978,17.215 0,1.976 -1.4111,3.951 -1.4111,1.694 -4.5156,1.694 h -14.9578 q -1.9755,0 -4.2333,-1.129 -1.9756,-1.129 -3.1045,-4.234 -1.6933,-11.571 -12.9822,-19.473 -11.2889,-7.902 -29.3512,-7.902 -18.3445,0 -29.9157,7.055 -11.2889,7.056 -11.2889,22.014 0,9.595 5.3623,16.086 5.3622,6.209 16.9333,11.007 11.5712,4.798 30.1979,10.16 22.5778,6.209 36.9712,13.265 14.3934,6.773 21.1667,17.215 7.0556,10.16 7.0556,26.247 0,17.78 -9.3133,30.48 -9.3134,12.418 -26.2468,19.191 -16.6511,6.491 -39.5112,6.491 z"
   id="text52"
   style="font-size:282.223px;font-family:Rubik;-inkscape-font-specification:'Rubik, @wght=400';font-variation-settings:'wght' 400;dominant-baseline:middle;text-anchor:middle;fill:#ffffff"
   aria-label="BIAS" />
        
        
        
        
        
        
        <path
   d="m 5097.0643,12113.777 q -2.2578,0 -3.9511,-1.693 -1.6934,-1.693 -1.6934,-3.951 0,-1.411 0.2823,-3.105 l 69.9913,-182.598 q 1.1289,-2.822 3.1044,-4.515 1.9756,-1.694 5.9267,-1.694 h 19.1912 q 3.6689,0 5.6444,1.694 2.2578,1.693 3.3867,4.515 l 69.7091,182.598 q 0.5644,1.694 0.5644,3.105 0,2.258 -1.6933,3.951 -1.6933,1.693 -3.9511,1.693 h -14.3934 q -3.3867,0 -5.08,-1.693 -1.4111,-1.693 -1.9756,-3.104 l -15.5222,-40.076 h -92.5692 l -15.5222,40.076 q -0.2823,1.411 -1.9756,3.104 -1.6933,1.693 -5.08,1.693 z m 45.1557,-69.144 h 76.2002 l -38.1001,-100.189 z m 224.6671,71.967 q -25.9645,0 -43.1801,-9.596 -16.9334,-9.596 -25.6823,-26.811 -8.7489,-17.216 -9.5956,-40.076 -0.2822,-11.571 -0.2822,-24.835 0,-13.265 0.2822,-25.401 0.8467,-22.86 9.5956,-40.075 8.7489,-17.216 25.6823,-26.811 17.2156,-9.596 43.1801,-9.596 19.4734,0 34.149,5.362 14.6756,5.363 24.2712,14.394 9.8778,9.031 14.9578,20.32 5.08,11.006 5.6445,22.86 0.2822,2.54 -1.6934,4.233 -1.6933,1.693 -4.2333,1.693 h -15.5223 q -2.54,0 -4.5155,-1.411 -1.6934,-1.411 -2.54,-5.08 -4.7978,-22.013 -18.0623,-30.198 -12.9823,-8.184 -32.7379,-8.184 -22.5778,0 -35.8423,12.982 -13.2645,12.7 -14.3934,40.923 -0.8466,23.142 0,47.413 1.1289,28.222 14.3934,41.205 13.2645,12.7 35.8423,12.7 19.7556,0 32.7379,-8.185 13.2645,-8.184 18.0623,-30.198 0.8466,-3.669 2.54,-5.08 1.9755,-1.411 4.5155,-1.411 h 15.5223 q 2.54,0 4.2333,1.694 1.9756,1.693 1.6934,4.233 -0.5645,11.853 -5.6445,23.142 -5.08,11.007 -14.9578,20.038 -9.5956,9.031 -24.2712,14.393 -14.6756,5.363 -34.149,5.363 z m 187.9607,0 q -25.9646,0 -43.1802,-9.596 -16.9333,-9.596 -25.6823,-26.811 -8.7489,-17.216 -9.5955,-40.076 -0.2823,-11.571 -0.2823,-24.835 0,-13.265 0.2823,-25.401 0.8466,-22.86 9.5955,-40.075 8.749,-17.216 25.6823,-26.811 17.2156,-9.596 43.1802,-9.596 19.4733,0 34.1489,5.362 14.6756,5.363 24.2712,14.394 9.8778,9.031 14.9578,20.32 5.08,11.006 5.6445,22.86 0.2822,2.54 -1.6933,4.233 -1.6934,1.693 -4.2334,1.693 h -15.5223 q -2.54,0 -4.5155,-1.411 -1.6934,-1.411 -2.54,-5.08 -4.7978,-22.013 -18.0623,-30.198 -12.9823,-8.184 -32.7379,-8.184 -22.5778,0 -35.8423,12.982 -13.2645,12.7 -14.3934,40.923 -0.8466,23.142 0,47.413 1.1289,28.222 14.3934,41.205 13.2645,12.7 35.8423,12.7 19.7556,0 32.7379,-8.185 13.2645,-8.184 18.0623,-30.198 0.8466,-3.669 2.54,-5.08 1.9755,-1.411 4.5155,-1.411 h 15.5223 q 2.54,0 4.2334,1.694 1.9755,1.693 1.6933,4.233 -0.5645,11.853 -5.6445,23.142 -5.08,11.007 -14.9578,20.038 -9.5956,9.031 -24.2712,14.393 -14.6756,5.363 -34.1489,5.363 z"
   id="text53"
   style="font-size:282.223px;font-family:Rubik;-inkscape-font-specification:'Rubik, @wght=400';font-variation-settings:'wght' 400;dominant-baseline:middle;text-anchor:middle;fill:#ffffff"
   aria-label="ACC" /><path
   d="m 7160.7828,12142.777 q -3.1045,0 -4.7978,-1.693 -1.6933,-1.976 -1.6933,-4.798 v -184.291 q 0,-3.105 1.6933,-4.798 1.6933,-1.976 4.7978,-1.976 h 71.6846 q 20.8845,0 36.1246,6.774 15.5222,6.773 23.9889,20.32 8.4667,13.264 8.4667,33.302 0,20.038 -8.4667,33.302 -8.4667,13.265 -23.9889,20.038 -15.2401,6.774 -36.1246,6.774 h -49.9534 v 70.555 q 0,2.822 -1.9756,4.798 -1.6933,1.693 -4.7978,1.693 z m 21.4489,-100.753 h 48.8246 q 20.8845,0 31.3268,-9.314 10.4422,-9.313 10.4422,-27.093 0,-17.498 -10.16,-27.093 -10.16,-9.596 -31.609,-9.596 h -48.8246 z m 159.7383,100.753 q -3.1045,0 -4.7978,-1.693 -1.6933,-1.976 -1.6933,-4.798 v -184.574 q 0,-2.822 1.6933,-4.515 1.6933,-1.976 4.7978,-1.976 h 14.9578 q 2.8222,0 4.5156,1.976 1.9755,1.693 1.9755,4.515 v 184.574 q 0,2.822 -1.9755,4.798 -1.6934,1.693 -4.5156,1.693 z m 120.2272,0 q -2.8222,0 -4.7978,-1.693 -1.6933,-1.976 -1.6933,-4.798 v -165.947 h -54.1869 q -2.8222,0 -4.7977,-1.693 -1.6934,-1.976 -1.6934,-4.798 v -11.853 q 0,-3.105 1.6934,-4.798 1.9755,-1.976 4.7977,-1.976 h 136.0315 q 3.1045,0 4.7978,1.976 1.9756,1.693 1.9756,4.798 v 11.853 q 0,2.822 -1.9756,4.798 -1.6933,1.693 -4.7978,1.693 h -53.9046 v 165.947 q 0,2.822 -1.9755,4.798 -1.6934,1.693 -4.7978,1.693 z m 180.5875,2.823 q -25.9645,0 -43.1801,-9.596 -16.9334,-9.596 -25.6823,-26.811 -8.7489,-17.216 -9.5956,-40.076 -0.2822,-11.571 -0.2822,-24.835 0,-13.265 0.2822,-25.401 0.8467,-22.86 9.5956,-40.075 8.7489,-17.216 25.6823,-26.811 17.2156,-9.596 43.1801,-9.596 19.4734,0 34.149,5.362 14.6756,5.363 24.2711,14.394 9.8778,9.031 14.9579,20.32 5.08,11.006 5.6444,22.86 0.2822,2.54 -1.6933,4.233 -1.6934,1.693 -4.2334,1.693 h -15.5222 q -2.54,0 -4.5156,-1.411 -1.6933,-1.411 -2.54,-5.08 -4.7978,-22.013 -18.0623,-30.198 -12.9822,-8.184 -32.7378,-8.184 -22.5779,0 -35.8424,12.982 -13.2644,12.7 -14.3933,40.923 -0.8467,23.142 0,47.413 1.1289,28.222 14.3933,41.205 13.2645,12.7 35.8424,12.7 19.7556,0 32.7378,-8.185 13.2645,-8.184 18.0623,-30.198 0.8467,-3.669 2.54,-5.08 1.9756,-1.411 4.5156,-1.411 h 15.5222 q 2.54,0 4.2334,1.694 1.9755,1.693 1.6933,4.233 -0.5644,11.853 -5.6444,23.142 -5.0801,11.007 -14.9579,20.038 -9.5955,9.031 -24.2711,14.393 -14.6756,5.363 -34.149,5.363 z m 123.3315,-2.823 q -3.1044,0 -4.7978,-1.693 -1.6933,-1.976 -1.6933,-4.798 v -184.291 q 0,-3.105 1.6933,-4.798 1.6934,-1.976 4.7978,-1.976 h 14.3934 q 3.1044,0 4.7978,1.976 1.9755,1.693 1.9755,4.798 v 77.893 h 97.0848 v -77.893 q 0,-3.105 1.6933,-4.798 1.9756,-1.976 4.7978,-1.976 h 14.3934 q 3.1044,0 4.7977,1.976 1.9756,1.693 1.9756,4.798 v 184.291 q 0,2.822 -1.9756,4.798 -1.6933,1.693 -4.7977,1.693 h -14.3934 q -2.8222,0 -4.7978,-1.693 -1.6933,-1.976 -1.6933,-4.798 v -80.998 h -97.0848 v 80.998 q 0,2.822 -1.9755,4.798 -1.6934,1.693 -4.7978,1.693 z"
   id="text54"
   style="font-size:282.223px;font-family:Rubik;-inkscape-font-specification:'Rubik, @wght=400';font-variation-settings:'wght' 400;dominant-baseline:middle;text-anchor:middle;fill:#ffffff"
   aria-label="PITCH" /><path
   d="m 6866.5683,853.6677 q -2.3283,0 -3.5983,-1.27 -1.27,-1.48167 -1.27,-3.59834 V 710.5808 q 0,-2.32834 1.27,-3.59834 1.27,-1.48167 3.5983,-1.48167 h 9.7367 q 2.54,0 3.81,1.27 1.27,1.05834 1.4817,1.69334 l 70.2734,107.95017 V 710.5808 q 0,-2.32834 1.27,-3.59834 1.27,-1.48167 3.5983,-1.48167 h 10.1601 q 2.3283,0 3.5983,1.48167 1.4817,1.27 1.4817,3.59834 v 138.00689 q 0,2.11667 -1.4817,3.59834 -1.27,1.48167 -3.3867,1.48167 h -10.16 q -2.3283,0 -3.5983,-1.27 -1.0584,-1.27001 -1.4817,-1.69334 l -70.0618,-106.89184 v 104.98684 q 0,2.11667 -1.4816,3.59834 -1.27,1.27 -3.5984,1.27 z m 147.1085,0 q -2.3283,0 -3.5983,-1.27 -1.27,-1.48167 -1.27,-3.59834 V 710.5808 q 0,-2.32834 1.27,-3.59834 1.27,-1.48167 3.5983,-1.48167 h 87.4185 q 2.3283,0 3.5983,1.48167 1.27,1.27 1.27,3.59834 v 8.04335 q 0,2.32833 -1.27,3.59834 -1.27,1.27 -3.5983,1.27 h -71.9668 v 46.35507 h 67.3101 q 2.3283,0 3.5983,1.48167 1.27,1.27 1.27,3.59834 v 7.83168 q 0,2.11667 -1.27,3.59834 -1.27,1.27 -3.5983,1.27 h -67.3101 V 835.676 h 73.6601 q 2.3284,0 3.5984,1.27 1.27,1.27001 1.27,3.59834 v 8.25502 q 0,2.11667 -1.27,3.59834 -1.27,1.27 -3.5984,1.27 z m 148.3788,0 q -2.7517,0 -4.445,-1.48167 -1.4817,-1.48167 -2.1167,-4.23334 l -27.305,-135.89022 q -0.2117,-0.84667 -0.2117,-1.48167 0,-0.635 0,-0.84667 0,-1.69333 1.27,-2.96334 1.27,-1.27 2.9633,-1.27 h 11.0067 q 4.445,0 5.08,3.59834 l 21.5901,109.22018 22.86,-74.93012 q 0.635,-1.90501 2.1167,-3.38668 1.6933,-1.69333 4.6566,-1.69333 h 7.8317 q 3.175,0 4.6567,1.69333 1.4817,1.48167 1.905,3.38668 l 23.0717,74.93012 21.3784,-109.22018 q 0.635,-3.59834 5.2916,-3.59834 h 11.0067 q 1.6934,0 2.9634,1.27 1.27,1.27001 1.27,2.96334 0,0.21167 -0.2117,0.84667 0,0.635 0,1.48167 l -27.305,135.89022 q -0.635,2.75167 -2.3284,4.23334 -1.4817,1.48167 -4.2333,1.48167 h -8.255 q -2.9634,0 -4.6567,-1.48167 -1.6933,-1.48167 -2.3284,-3.81001 l -26.2467,-80.64513 -26.035,80.64513 q -0.8467,2.32834 -2.54,3.81001 -1.4817,1.48167 -4.445,1.48167 z m 246.751,2.11667 q -18.6267,0 -31.7501,-6.98501 -12.9117,-6.98501 -19.8967,-19.68503 -6.7733,-12.70003 -7.62,-29.84505 -0.2117,-9.31335 -0.2117,-19.68503 0,-10.58336 0.2117,-20.10837 0.8467,-17.14503 7.62,-29.63338 6.985,-12.48835 20.1084,-19.47337 13.1233,-6.98501 31.5384,-6.98501 15.0283,0 26.035,4.23334 11.0067,4.23334 17.9917,10.79502 7.1967,6.35001 10.5833,13.33502 3.5984,6.98501 3.81,12.27669 0.2117,1.905 -1.0583,3.175 -1.27,1.05834 -3.3867,1.05834 h -12.4883 q -2.1167,0 -3.175,-0.84667 -0.8467,-0.84667 -1.6934,-2.96334 -1.905,-5.50334 -6.35,-10.79502 -4.2333,-5.29167 -11.6417,-8.67834 -7.1966,-3.59834 -18.6266,-3.59834 -16.7217,0 -27.0934,9.10168 -10.16,9.10168 -11.0067,30.05671 -0.635,18.83837 0,37.67673 0.8467,21.1667 11.2183,30.48005 10.3717,9.10168 27.0934,9.10168 11.2184,0 19.8967,-4.02167 8.89,-4.23334 13.97,-12.91169 5.08,-8.67835 5.08,-22.01337 v -8.89001 h -31.75 q -2.1167,0 -3.5983,-1.27 -1.27,-1.48167 -1.27,-3.81001 v -6.77334 q 0,-2.32834 1.27,-3.59834 1.4816,-1.48167 3.5983,-1.48167 h 47.8367 q 2.3284,0 3.5984,1.48167 1.27,1.27 1.27,3.59834 v 20.32003 q 0,17.35669 -7.1967,30.26838 -6.985,12.91169 -20.5317,20.10837 -13.5467,6.98501 -32.385,6.98501 z m 77.523,-2.11667 q -1.6934,0 -2.9634,-1.27 -1.27,-1.27001 -1.27,-2.96334 0,-1.05834 0.2117,-2.32834 l 52.4934,-136.94855 q 0.8467,-2.11667 2.3283,-3.38668 1.4817,-1.27 4.445,-1.27 h 14.3934 q 2.7517,0 4.2333,1.27 1.6934,1.27001 2.54,3.38668 l 52.2818,136.94855 q 0.4233,1.27 0.4233,2.32834 0,1.69333 -1.27,2.96334 -1.27,1.27 -2.9633,1.27 h -10.795 q -2.54,0 -3.81,-1.27 -1.0584,-1.27001 -1.4817,-2.32834 l -11.6417,-30.05672 h -69.4268 l -11.6417,30.05672 q -0.2116,1.05833 -1.4816,2.32834 -1.27,1.27 -3.81,1.27 z m 33.8667,-51.85842 h 57.1501 l -28.5751,-75.14179 z m 122.7668,51.85842 q -2.1166,0 -3.5983,-1.27 -1.27,-1.48167 -1.27,-3.59834 V 710.5808 q 0,-2.32834 1.27,-3.59834 1.4817,-1.48167 3.5983,-1.48167 h 10.5834 q 2.54,0 3.81,1.27 1.27,1.27001 1.4817,2.11667 l 44.8734,85.51348 45.085,-85.51348 q 0.4234,-0.84666 1.4817,-2.11667 1.27,-1.27 3.81,-1.27 h 10.3717 q 2.3283,0 3.5983,1.48167 1.4817,1.27 1.4817,3.59834 v 138.21856 q 0,2.11667 -1.4817,3.59834 -1.27,1.27 -3.5983,1.27 h -10.3717 q -2.1167,0 -3.5983,-1.27 -1.27,-1.48167 -1.27,-3.59834 V 744.65919 l -35.3484,69.00344 q -0.8467,2.11667 -2.54,3.38668 -1.6934,1.05833 -4.2334,1.05833 h -6.5616 q -2.7517,0 -4.445,-1.05833 -1.4817,-1.27001 -2.54,-3.38668 l -35.3484,-69.00344 v 104.14017 q 0,2.11667 -1.4817,3.59834 -1.27,1.27 -3.3867,1.27 z m 168.0638,0 q -2.3284,0 -3.5984,-1.27 -1.27,-1.48167 -1.27,-3.59834 V 710.5808 q 0,-2.32834 1.27,-3.59834 1.27,-1.48167 3.5984,-1.48167 h 87.4184 q 2.3284,0 3.5984,1.48167 1.27,1.27 1.27,3.59834 v 8.04335 q 0,2.32833 -1.27,3.59834 -1.27,1.27 -3.5984,1.27 h -71.9667 v 46.35507 h 67.3101 q 2.3283,0 3.5983,1.48167 1.27,1.27 1.27,3.59834 v 7.83168 q 0,2.11667 -1.27,3.59834 -1.27,1.27 -3.5983,1.27 h -67.3101 V 835.676 h 73.6601 q 2.3283,0 3.5983,1.27 1.27,1.27001 1.27,3.59834 v 8.25502 q 0,2.11667 -1.27,3.59834 -1.27,1.27 -3.5983,1.27 z"
   id="text55"
   style="font-size:211.667px;font-family:Rubik;-inkscape-font-specification:'Rubik, @wght=400';font-variation-settings:'wght' 400;dominant-baseline:middle;text-anchor:middle;fill:#ffffff"
   aria-label="NEW GAME" /><path
   d="m 8355.6129,12116.319 q -2.8223,0 -4.7978,-1.693 -1.6934,-1.976 -1.6934,-4.798 v -184.291 q 0,-3.105 1.6934,-4.798 1.9755,-1.976 4.7978,-1.976 h 14.1111 q 3.3867,0 5.08,1.694 1.6934,1.693 1.9756,2.822 l 59.8313,114.018 60.1135,-114.018 q 0.5644,-1.129 1.9755,-2.822 1.6934,-1.694 5.08,-1.694 h 13.829 q 3.1044,0 4.7977,1.976 1.9756,1.693 1.9756,4.798 v 184.291 q 0,2.822 -1.9756,4.798 -1.6933,1.693 -4.7977,1.693 h -13.829 q -2.8222,0 -4.7978,-1.693 -1.6933,-1.976 -1.6933,-4.798 v -138.853 l -47.1312,92.004 q -1.1289,2.822 -3.3867,4.516 -2.2578,1.411 -5.6445,1.411 h -8.7489 q -3.6689,0 -5.9267,-1.411 -1.9755,-1.694 -3.3866,-4.516 l -47.1313,-92.004 v 138.853 q 0,2.822 -1.9755,4.798 -1.6934,1.693 -4.5156,1.693 z m 288.432,2.823 q -23.9889,0 -41.2045,-8.185 -17.2156,-8.467 -26.529,-25.682 -9.3133,-17.498 -10.4422,-43.745 -0.2823,-12.418 -0.2823,-23.706 0,-11.572 0.2823,-23.989 1.1289,-25.965 10.7244,-43.181 9.8778,-17.497 27.0934,-25.964 17.4979,-8.749 40.3579,-8.749 23.1423,0 40.3579,8.749 17.4979,8.467 27.3757,25.964 9.8778,17.216 10.7244,43.181 0.5645,12.417 0.5645,23.989 0,11.288 -0.5645,23.706 -0.8466,26.247 -10.4422,43.745 -9.3134,17.215 -26.529,25.682 -17.2156,8.185 -41.4868,8.185 z m 0,-23.989 q 21.7312,0 35.2779,-12.983 13.8289,-12.982 14.9578,-42.051 0.5645,-12.7 0.5645,-22.578 0,-10.16 -0.5645,-22.578 -0.5644,-19.473 -7.3378,-31.608 -6.4911,-12.136 -17.4978,-17.781 -11.0067,-5.644 -25.4001,-5.644 -13.8289,0 -24.8356,5.644 -11.0067,5.645 -17.78,17.781 -6.4912,12.135 -7.3378,31.608 -0.2823,12.418 -0.2823,22.578 0,9.878 0.2823,22.578 1.1289,29.069 14.9578,42.051 13.8289,12.983 34.9956,12.983 z m 126.7182,21.166 q -3.1045,0 -4.7978,-1.693 -1.6934,-1.976 -1.6934,-4.798 v -184.291 q 0,-3.105 1.6934,-4.798 1.6933,-1.976 4.7978,-1.976 h 64.0646 q 29.069,0 46.849,8.749 17.7801,8.749 25.9645,25.965 8.1845,16.933 8.4667,41.769 0.2822,12.7 0.2822,22.295 0,9.596 -0.2822,22.014 -0.5644,25.964 -8.7489,43.18 -7.9022,16.933 -25.4001,25.4 -17.2156,8.184 -45.7201,8.184 z m 21.1667,-23.989 h 42.8979 q 19.4734,0 31.0445,-5.362 11.5712,-5.362 16.6512,-17.215 5.3622,-11.854 5.6444,-31.327 0.5645,-8.467 0.5645,-14.676 0,-6.491 0,-12.7 0,-6.491 -0.5645,-14.675 -0.5644,-27.376 -12.9822,-40.358 -12.4178,-13.265 -41.769,-13.265 h -41.4868 z"
   id="text56"
   style="font-size:282.223px;font-family:Rubik;-inkscape-font-specification:'Rubik, @wght=400';font-variation-settings:'wght' 400;dominant-baseline:middle;text-anchor:middle;fill:#ffffff"
   aria-label="MOD" /><path
   d="m 6234.1379,12122.12 q -3.1044,0 -4.7978,-1.693 -1.6933,-1.976 -1.6933,-4.798 v -184.292 q 0,-3.104 1.6933,-4.797 1.6934,-1.976 4.7978,-1.976 h 116.5581 q 3.1045,0 4.7978,1.976 1.6934,1.693 1.6934,4.797 v 10.725 q 0,3.104 -1.6934,4.798 -1.6933,1.693 -4.7978,1.693 h -95.9558 v 61.807 h 89.7469 q 3.1045,0 4.7978,1.975 1.6933,1.694 1.6933,4.798 v 10.442 q 0,2.823 -1.6933,4.798 -1.6933,1.694 -4.7978,1.694 h -89.7469 v 64.064 h 98.2136 q 3.1045,0 4.7978,1.694 1.6933,1.693 1.6933,4.797 v 11.007 q 0,2.822 -1.6933,4.798 -1.6933,1.693 -4.7978,1.693 z m 219.3757,2.822 q -21.449,0 -35.8423,-8.184 -14.3934,-8.185 -22.0134,-22.578 -7.6201,-14.676 -8.4667,-33.302 -0.2822,-4.798 -0.2822,-12.136 0,-7.62 0.2822,-12.135 0.8466,-18.909 8.4667,-33.303 7.9022,-14.393 22.2956,-22.578 14.3934,-8.184 35.5601,-8.184 21.1667,0 35.5601,8.184 14.3933,8.185 22.0134,22.578 7.9022,14.394 8.7489,33.303 0.2822,4.515 0.2822,12.135 0,7.338 -0.2822,12.136 -0.8467,18.626 -8.4667,33.302 -7.62,14.393 -22.0134,22.578 -14.3934,8.184 -35.8423,8.184 z m 0,-21.731 q 17.4978,0 27.9401,-11.006 10.4422,-11.289 11.2889,-32.738 0.2822,-4.234 0.2822,-10.725 0,-6.491 -0.2822,-10.724 -0.8467,-21.449 -11.2889,-32.456 -10.4423,-11.289 -27.9401,-11.289 -17.4978,0 -28.2223,11.289 -10.4423,11.007 -11.0067,32.456 -0.2822,4.233 -0.2822,10.724 0,6.491 0.2822,10.725 0.5644,21.449 11.0067,32.738 10.7245,11.006 28.2223,11.006 z m 176.6714,21.731 q -25.9645,0 -43.1801,-9.595 -16.9334,-9.596 -25.6823,-26.811 -8.7489,-17.216 -9.5956,-40.076 -0.2822,-11.571 -0.2822,-24.836 0,-13.264 0.2822,-25.4 0.8467,-22.86 9.5956,-40.075 8.7489,-17.216 25.6823,-26.812 17.2156,-9.595 43.1801,-9.595 19.4734,0 34.149,5.362 14.6756,5.362 24.2712,14.393 9.8778,9.032 14.9578,20.321 5.08,11.006 5.6445,22.86 0.2822,2.54 -1.6934,4.233 -1.6933,1.693 -4.2333,1.693 h -15.5223 q -2.54,0 -4.5156,-1.411 -1.6933,-1.411 -2.54,-5.08 -4.7978,-22.013 -18.0622,-30.198 -12.9823,-8.184 -32.7379,-8.184 -22.5778,0 -35.8423,12.982 -13.2645,12.7 -14.3934,40.922 -0.8467,23.143 0,47.414 1.1289,28.222 14.3934,41.204 13.2645,12.7 35.8423,12.7 19.7556,0 32.7379,-8.184 13.2644,-8.184 18.0622,-30.198 0.8467,-3.669 2.54,-5.08 1.9756,-1.411 4.5156,-1.411 h 15.5223 q 2.54,0 4.2333,1.693 1.9756,1.694 1.6934,4.234 -0.5645,11.853 -5.6445,23.142 -5.08,11.007 -14.9578,20.038 -9.5956,9.031 -24.2712,14.393 -14.6756,5.362 -34.149,5.362 z"
   id="text57"
   style="font-size:282.223px;font-family:Rubik;-inkscape-font-specification:'Rubik, @wght=400';font-variation-settings:'wght' 400;dominant-baseline:middle;text-anchor:middle;fill:#ffffff"
   aria-label="EoC" />
        
        
        
        <path
   d="m 4101.2529,782.39081 q -11.8533,0 -20.32,-2.96333 -8.4667,-2.96334 -13.7584,-7.19668 -5.2916,-4.23334 -8.0433,-8.46668 -2.54,-4.23334 -2.7517,-6.77335 -0.2117,-2.32833 1.4817,-3.59834 1.6933,-1.27 3.3867,-1.27 h 9.3133 q 1.27,0 1.905,0.42334 0.8467,0.21166 2.1167,1.69333 2.7516,2.96334 6.1383,5.92668 3.3867,2.96334 8.255,4.86834 5.08,1.905 12.4884,1.905 10.795,0 17.78,-4.02167 6.985,-4.23334 6.985,-12.27669 0,-5.29167 -2.9633,-8.46668 -2.7517,-3.175 -10.16,-5.71501 -7.1967,-2.54 -19.8967,-5.29167 -12.7001,-2.96334 -20.1084,-7.19668 -7.4083,-4.44501 -10.5833,-10.37168 -3.1751,-6.13835 -3.1751,-13.75836 0,-7.83168 4.6567,-15.02836 4.6567,-7.40834 13.5467,-12.06502 9.1017,-4.65667 22.6484,-4.65667 11.0067,0 18.8383,2.75167 7.8317,2.75167 12.9117,6.98501 5.08,4.02167 7.62,8.04335 2.54,4.02167 2.7517,6.77334 0.2117,2.11667 -1.27,3.59834 -1.4817,1.27 -3.3867,1.27 h -8.89 q -1.4816,0 -2.54,-0.635 -0.8466,-0.635 -1.6933,-1.48167 -2.1167,-2.75167 -5.08,-5.50334 -2.7517,-2.75167 -7.4084,-4.44501 -4.445,-1.905 -11.8533,-1.905 -10.5834,0 -15.875,4.44501 -5.2917,4.44501 -5.2917,11.21835 0,4.02167 2.3283,7.19668 2.3284,3.175 8.89,5.71501 6.5617,2.54 19.4734,5.50334 13.97,2.75167 22.0134,7.40834 8.0433,4.65668 11.43,10.79502 3.3867,6.13834 3.3867,14.18169 0,8.89002 -5.2917,16.29836 -5.08,7.40835 -15.24,11.85335 -9.9484,4.23334 -24.7651,4.23334 z m 113.6652,0 q -21.8017,0 -34.7133,-13.33502 -12.9117,-13.54669 -14.1817,-36.83006 -0.2117,-2.75167 -0.2117,-6.98501 0,-4.44501 0.2117,-7.19668 0.8466,-15.02835 6.985,-26.24671 6.1383,-11.43001 16.7217,-17.56836 10.795,-6.13834 25.1883,-6.13834 16.0867,0 26.8818,6.77334 11.0066,6.77335 16.7217,19.2617 5.715,12.48835 5.715,29.21005 v 3.59834 q 0,2.32833 -1.4817,3.59834 -1.27,1.27 -3.3867,1.27 h -73.2368 q 0,0.21167 0,0.84667 0,0.635 0,1.05833 0.4234,8.67835 3.81,16.29836 3.3867,7.40835 9.7367,12.06502 6.35,4.65667 15.24,4.65667 7.6201,0 12.7001,-2.32833 5.08,-2.32834 8.255,-5.08001 3.175,-2.96334 4.2333,-4.44501 1.905,-2.75167 2.9634,-3.175 1.0583,-0.635 3.3866,-0.635 h 10.1601 q 2.1166,0 3.3866,1.27 1.4817,1.05833 1.27,3.175 -0.2116,3.17501 -3.3866,7.83168 -3.1751,4.44501 -9.1017,8.89002 -5.9267,4.445 -14.3934,7.40834 -8.4667,2.75167 -19.4734,2.75167 z m -28.7867,-65.19344 h 57.9968 v -0.635 q 0,-9.52501 -3.5983,-16.93336 -3.3867,-7.40834 -9.9484,-11.64168 -6.5617,-4.44501 -15.6634,-4.44501 -9.1016,0 -15.6633,4.44501 -6.35,4.23334 -9.7367,11.64168 -3.3867,7.40835 -3.3867,16.93336 z m 183.0919,103.2935 q -2.3283,0 -3.5983,-1.48166 -1.2701,-1.27001 -1.2701,-3.38668 v -49.10674 q -5.2916,6.77334 -13.7583,11.43002 -8.255,4.445 -20.5317,4.445 -11.6417,0 -20.1084,-4.02167 -8.4667,-4.23334 -13.97,-11.00668 -5.2917,-6.98502 -8.0433,-15.87503 -2.54,-9.10168 -2.9634,-19.05003 -0.2116,-3.38667 -0.2116,-7.19668 0,-3.81 0.2116,-7.19668 0.4234,-10.16001 2.9634,-19.05003 2.7516,-8.89001 8.0433,-15.87502 5.5033,-6.98501 13.97,-11.00669 8.4667,-4.02167 20.1084,-4.02167 12.7,0 21.1667,4.65667 8.4667,4.65668 13.5467,11.64169 v -9.31335 q 0,-2.11667 1.27,-3.38667 1.4817,-1.48167 3.5983,-1.48167 h 9.7367 q 2.1167,0 3.3867,1.48167 1.4816,1.27 1.4816,3.38667 v 140.54689 q 0,2.11667 -1.4816,3.38668 -1.27,1.48166 -3.3867,1.48166 z m -34.7134,-55.24508 q 10.16,0 16.51,-4.65668 6.5617,-4.65667 9.7367,-11.85335 3.3867,-7.19668 3.5983,-14.60502 0.2117,-3.59834 0.2117,-8.25502 0,-4.65667 -0.2117,-8.04334 -0.2116,-7.83168 -3.3866,-15.24003 -3.175,-7.62001 -9.7367,-12.48835 -6.35,-4.86834 -16.7217,-4.86834 -10.795,0 -17.145,4.86834 -6.35,4.65667 -9.1017,12.48835 -2.7517,7.62001 -3.175,16.51003 -0.2117,6.13834 0,12.27668 0.4233,8.89002 3.175,16.7217 2.7517,7.62001 9.1017,12.48835 6.35,4.65668 17.145,4.65668 z m 122.3437,17.14502 q -13.5467,0 -23.0717,-5.92667 -9.3134,-6.13835 -14.1817,-16.93336 -4.8684,-10.79502 -4.8684,-24.76504 v -59.6901 q 0,-2.11667 1.27,-3.38667 1.4817,-1.48167 3.5984,-1.48167 h 10.5833 q 2.1167,0 3.3867,1.48167 1.4817,1.27 1.4817,3.38667 v 58.63176 q 0,31.53839 27.5167,31.53839 13.1233,0 20.955,-8.25502 8.0434,-8.46668 8.0434,-23.28337 v -58.63176 q 0,-2.11667 1.27,-3.38667 1.4816,-1.48167 3.5983,-1.48167 h 10.3717 q 2.3283,0 3.5983,1.48167 1.27,1.27 1.27,3.38667 V 775.4058 q 0,2.11667 -1.27,3.59834 -1.27,1.27 -3.5983,1.27 h -9.7367 q -2.1167,0 -3.5983,-1.27 -1.27,-1.48167 -1.27,-3.59834 v -9.31335 q -5.715,7.40835 -13.9701,11.85336 -8.0433,4.445 -21.3783,4.445 z m 130.175,0 q -21.8017,0 -34.7134,-13.33502 -12.9117,-13.54669 -14.1817,-36.83006 -0.2116,-2.75167 -0.2116,-6.98501 0,-4.44501 0.2116,-7.19668 0.8467,-15.02835 6.9851,-26.24671 6.1383,-11.43001 16.7216,-17.56836 10.7951,-6.13834 25.1884,-6.13834 16.0867,0 26.8817,6.77334 11.0067,6.77335 16.7217,19.2617 5.715,12.48835 5.715,29.21005 v 3.59834 q 0,2.32833 -1.4816,3.59834 -1.27,1.27 -3.3867,1.27 h -73.2368 q 0,0.21167 0,0.84667 0,0.635 0,1.05833 0.4233,8.67835 3.81,16.29836 3.3867,7.40835 9.7367,12.06502 6.35,4.65667 15.24,4.65667 7.62,0 12.7,-2.32833 5.0801,-2.32834 8.2551,-5.08001 3.175,-2.96334 4.2333,-4.44501 1.905,-2.75167 2.9633,-3.175 1.0584,-0.635 3.3867,-0.635 h 10.16 q 2.1167,0 3.3867,1.27 1.4817,1.05833 1.27,3.175 -0.2117,3.17501 -3.3867,7.83168 -3.175,4.44501 -9.1017,8.89002 -5.9266,4.445 -14.3933,7.40834 -8.4667,2.75167 -19.4734,2.75167 z m -28.7867,-65.19344 h 57.9968 v -0.635 q 0,-9.52501 -3.5984,-16.93336 -3.3866,-7.40834 -9.9483,-11.64168 -6.5617,-4.44501 -15.6634,-4.44501 -9.1017,0 -15.6633,4.44501 -6.35,4.23334 -9.7367,11.64168 -3.3867,7.40835 -3.3867,16.93336 z m 108.3734,63.07677 q -2.1167,0 -3.5983,-1.27 -1.27,-1.48167 -1.27,-3.59834 V 675.07564 q 0,-2.11667 1.27,-3.38667 1.4816,-1.48167 3.5983,-1.48167 h 9.9484 q 2.1166,0 3.3866,1.48167 1.4817,1.27 1.4817,3.38667 v 9.31335 q 5.5033,-7.19668 13.7584,-11.64169 8.4666,-4.65667 21.59,-4.65667 13.7583,0 23.2834,6.13834 9.7366,5.92668 14.605,16.7217 4.8683,10.58335 4.8683,24.76504 v 59.69009 q 0,2.11667 -1.27,3.59834 -1.27,1.27 -3.3866,1.27 h -10.5834 q -2.1167,0 -3.5983,-1.27 -1.27,-1.48167 -1.27,-3.59834 v -58.63176 q 0,-14.81669 -7.1967,-23.0717 -7.1967,-8.46668 -21.1667,-8.46668 -13.1234,0 -21.1667,8.46668 -7.8317,8.25501 -7.8317,23.0717 v 58.63176 q 0,2.11667 -1.4817,3.59834 -1.27,1.27 -3.3866,1.27 z m 167.8521,2.11667 q -15.0283,0 -26.035,-5.71501 -10.795,-5.92667 -16.7217,-16.72169 -5.9267,-11.00668 -6.35,-26.24671 -0.2117,-3.175 -0.2117,-8.46668 0,-5.29167 0.2117,-8.46668 0.4233,-15.24002 6.35,-26.03504 5.9267,-11.00669 16.7217,-16.72169 11.0067,-5.92668 26.035,-5.92668 12.2767,0 20.9551,3.38667 8.89,3.38667 14.605,8.67835 5.715,5.29167 8.4667,11.43002 2.9633,6.13834 3.175,11.64168 0.2116,2.11667 -1.27,3.38667 -1.4817,1.27001 -3.5984,1.27001 h -10.16 q -2.1167,0 -3.175,-0.84667 -1.0583,-1.05834 -2.1167,-3.38667 -3.81,-10.37169 -10.3716,-14.60503 -6.5617,-4.23334 -16.2984,-4.23334 -12.7,0 -20.7434,7.83168 -7.8317,7.83168 -8.4667,25.18838 -0.2116,7.62001 0,14.81669 0.635,17.56836 8.4667,25.40004 8.0434,7.62001 20.7434,7.62001 9.7367,0 16.2984,-4.23334 6.5616,-4.23334 10.3716,-14.60502 1.0584,-2.32834 2.1167,-3.17501 1.0583,-1.05833 3.175,-1.05833 h 10.16 q 2.1167,0 3.5984,1.27 1.4816,1.27 1.27,3.38667 -0.2117,4.44501 -1.905,9.10168 -1.6934,4.65668 -5.5034,9.52502 -3.5983,4.65667 -9.1017,8.46668 -5.5033,3.59834 -13.335,5.92667 -7.62,2.11667 -17.3567,2.11667 z m 116.2052,0 q -21.8017,0 -34.7134,-13.33502 -12.9116,-13.54669 -14.1816,-36.83006 -0.2117,-2.75167 -0.2117,-6.98501 0,-4.44501 0.2117,-7.19668 0.8466,-15.02835 6.985,-26.24671 6.1383,-11.43001 16.7217,-17.56836 10.795,-6.13834 25.1883,-6.13834 16.0867,0 26.8817,6.77334 11.0067,6.77335 16.7217,19.2617 5.715,12.48835 5.715,29.21005 v 3.59834 q 0,2.32833 -1.4816,3.59834 -1.27,1.27 -3.3867,1.27 h -73.2368 q 0,0.21167 0,0.84667 0,0.635 0,1.05833 0.4234,8.67835 3.81,16.29836 3.3867,7.40835 9.7367,12.06502 6.35,4.65667 15.24,4.65667 7.62,0 12.7001,-2.32833 5.08,-2.32834 8.255,-5.08001 3.175,-2.96334 4.2333,-4.44501 1.905,-2.75167 2.9633,-3.175 1.0584,-0.635 3.3867,-0.635 h 10.16 q 2.1167,0 3.3867,1.27 1.4817,1.05833 1.27,3.175 -0.2117,3.17501 -3.3867,7.83168 -3.175,4.44501 -9.1016,8.89002 -5.9267,4.445 -14.3934,7.40834 -8.4667,2.75167 -19.4734,2.75167 z m -28.7867,-65.19344 h 57.9968 v -0.635 q 0,-9.52501 -3.5984,-16.93336 -3.3866,-7.40834 -9.9483,-11.64168 -6.5617,-4.44501 -15.6634,-4.44501 -9.1016,0 -15.6633,4.44501 -6.35,4.23334 -9.7367,11.64168 -3.3867,7.40835 -3.3867,16.93336 z m 108.3734,63.07677 q -2.1167,0 -3.5983,-1.27 -1.27,-1.48167 -1.27,-3.59834 V 675.28731 q 0,-2.11667 1.27,-3.59834 1.4816,-1.48167 3.5983,-1.48167 h 9.7367 q 2.1166,0 3.5983,1.48167 1.4817,1.48167 1.4817,3.59834 v 9.31335 q 4.2333,-7.19668 11.6417,-10.79502 7.4083,-3.59834 17.78,-3.59834 h 8.4667 q 2.1166,0 3.3866,1.48167 1.2701,1.27 1.2701,3.38667 v 8.67835 q 0,2.11667 -1.2701,3.38667 -1.27,1.27 -3.3866,1.27 h -12.7 q -11.4301,0 -17.9917,6.77335 -6.5617,6.56167 -6.5617,17.99169 v 62.2301 q 0,2.11667 -1.4817,3.59834 -1.4817,1.27 -3.5983,1.27 z"
   id="text58"
   style="font-size:211.667px;font-family:Rubik;-inkscape-font-specification:'Rubik, @wght=400';font-variation-settings:'wght' 400;dominant-baseline:middle;text-anchor:middle;fill:#ffffff"
   aria-label="sequencer" />
        
      </g></svg>
