<?xml version="1.0" encoding="UTF-8" standalone="no"?>
<svg
   version="1.2"
   width="91.440002mm"
   height="128.5mm"
   viewBox="0 0 9144.0004 12850"
   preserveAspectRatio="xMidYMid"
   fill-rule="evenodd"
   stroke-width="28.222"
   stroke-linejoin="round"
   xml:space="preserve"
   id="svg488"
   sodipodi:docname="crownstep.svg"
   inkscape:version="1.4.3 (0d15f75, 2025-12-25)"
   inkscape:label="Wave Art"
   xmlns:inkscape="http://www.inkscape.org/namespaces/inkscape"
   xmlns:sodipodi="http://sodipodi.sourceforge.net/DTD/sodipodi-0.dtd"
   xmlns:xlink="http://www.w3.org/1999/xlink"
   xmlns="http://www.w3.org/2000/svg"
   xmlns:svg="http://www.w3.org/2000/svg">
  <defs
   id="defs1"><linearGradient
   id="linearGradient22"
   inkscape:collect="always"><stop
     style="stop-color:#7a5cff;stop-opacity:1;"
     offset="0"
     id="stop22" /><stop
     style="stop-color:#1cccd9;stop-opacity:1;"
     offset="1"
     id="stop23" /></linearGradient><linearGradient
   id="linearGradient20"
   inkscape:collect="always"><stop
     style="stop-color:#795cff;stop-opacity:1;"
     offset="0"
     id="stop20" /><stop
     style="stop-color:#1cccd9;stop-opacity:1;"
     offset="1"
     id="stop21" /></linearGradient><linearGradient
   id="linearGradient16"
   x1="0"
   y1="0"
   x2="0"
   y2="1">
      <stop
   offset="0"
   stop-color="#1ccad8"
   stop-opacity="0.65"
   id="stop15"
   style="stop-color:#1ccad8;stop-opacity:1;" />
      <stop
   offset="1"
   stop-color="#7a5cff"
   stop-opacity="0.65"
   id="stop16"
   style="stop-color:#7a5cff;stop-opacity:1;" />
    </linearGradient><linearGradient
   id="linearGradient14"
   x1="0"
   y1="0"
   x2="0"
   y2="1">
      <stop
   offset="0"
   stop-color="#1ccad8"
   stop-opacity="0.65"
   id="stop13"
   style="stop-color:#1ccad8;stop-opacity:1;" />
      <stop
   offset="1"
   stop-color="#7a5cff"
   stop-opacity="0.65"
   id="stop14"
   style="stop-color:#7a5cff;stop-opacity:1;" />
    </linearGradient>
    <linearGradient
   id="linearGradient12"
   x1="0"
   y1="0"
   x2="0"
   y2="1">
      <stop
   offset="0"
   stop-color="#1ccad8"
   stop-opacity="0.65"
   id="stop11"
   style="stop-color:#6140bf;stop-opacity:1;" />
      <stop
   offset="1"
   stop-color="#7a5cff"
   stop-opacity="0.65"
   id="stop12" />
    </linearGradient>
    <linearGradient
   id="bgGrad"
   x1="1108.8855"
   y1="886.8808"
   x2="1108.8855"
   y2="12348.43"
   gradientTransform="matrix(0.00797815,0,0,1.1244228,977.33539,0)"
   gradientUnits="userSpaceOnUse">
      <stop
   offset="0%"
   stop-color="#0b0d10"
   id="stop1" />
      <stop
   offset="50%"
   stop-color="#10141a"
   id="stop2" />
      <stop
   offset="100%"
   stop-color="#07080a"
   id="stop3" />
    </linearGradient>
    <linearGradient
   id="panelSheen"
   x1="1258.4897"
   y1="999.76398"
   x2="1258.4897"
   y2="12199.481"
   gradientTransform="scale(0.88692179,1.1274951)"
   gradientUnits="userSpaceOnUse">
      <stop
   offset="0%"
   stop-color="#ffffff"
   stop-opacity="0.1"
   id="stop4" />
      <stop
   offset="15%"
   stop-color="#ffffff"
   stop-opacity="0.02"
   id="stop5" />
      <stop
   offset="50%"
   stop-color="#ffffff"
   stop-opacity="0.0"
   id="stop6" />
      <stop
   offset="85%"
   stop-color="#ffffff"
   stop-opacity="0.02"
   id="stop7" />
      <stop
   offset="100%"
   stop-color="#ffffff"
   stop-opacity="0.1"
   id="stop8" />
    </linearGradient>
    <linearGradient
   id="accentGrad"
   x1="0"
   y1="0"
   x2="0"
   y2="1">
      <stop
   offset="0%"
   stop-color="#1ccad8"
   stop-opacity="0.65"
   id="stop9" />
      <stop
   offset="100%"
   stop-color="#7a5cff"
   stop-opacity="0.65"
   id="stop10" />
    </linearGradient>
    <linearGradient
   id="oceanWaveGrad"
   x1="0"
   y1="0"
   x2="1"
   y2="1"
   gradientUnits="objectBoundingBox">
      <stop
   offset="0%"
   stop-color="#55dbff"
   id="stop_wave_1" />
      <stop
   offset="55%"
   stop-color="#1496df"
   id="stop_wave_2" />
      <stop
   offset="100%"
   stop-color="#182682"
   id="stop_wave_3" />
    </linearGradient>
    
    
    
    
    
    
    
    
    
    
  
    
    
    
    
    
    
  <linearGradient
   inkscape:collect="always"
   xlink:href="#oceanWaveGrad"
   id="linearGradient10"
   gradientUnits="userSpaceOnUse"
   x1="-323.57697"
   y1="-103.93273"
   x2="723.81177"
   y2="943.45605"
   gradientTransform="matrix(-1.435811,0,0,0.69647048,8750.0001,12953.568)" /><linearGradient
   inkscape:collect="always"
   xlink:href="#oceanWaveGrad"
   id="linearGradient11"
   gradientUnits="userSpaceOnUse"
   x1="-323.57697"
   y1="-103.93273"
   x2="723.81177"
   y2="943.45605"
   gradientTransform="matrix(1.435811,0,0,0.69647048,3420,12953.568)" /><linearGradient
   inkscape:collect="always"
   xlink:href="#linearGradient22"
   id="linearGradient15"
   gradientUnits="userSpaceOnUse"
   gradientTransform="matrix(0.99690805,0,0,0.99690805,-1526.0842,-888.26714)"
   x1="4506.2949"
   y1="1594.9027"
   x2="7746.5298"
   y2="1598.8362" /><linearGradient
   inkscape:collect="always"
   xlink:href="#linearGradient20"
   id="linearGradient17"
   gradientUnits="userSpaceOnUse"
   gradientTransform="matrix(1.3902179,0,0,1.3902178,-4174.4961,-5277.5491)"
   x1="5486.8237"
   y1="12735.478"
   x2="7088.8071"
   y2="12738.298"
   spreadMethod="pad" /><linearGradient
   id="bgGrad-9"
   x1="1108.8855"
   y1="886.8808"
   x2="1108.8855"
   y2="12348.43"
   gradientTransform="matrix(0.80041062,0,0,1.1244228,98.618211,-1.5464805e-4)"
   gradientUnits="userSpaceOnUse">
      <stop
   offset="0"
   stop-color="#0b0d10"
   id="stop1-2"
   style="stop-color:#0b0d10;stop-opacity:1;" />
      <stop
   offset="50%"
   stop-color="#10141a"
   id="stop2-9" />
      <stop
   offset="100%"
   stop-color="#07080a"
   id="stop3-3" />
    </linearGradient><linearGradient
   inkscape:collect="always"
   xlink:href="#bgGrad-9"
   id="linearGradient1"
   gradientUnits="userSpaceOnUse"
   gradientTransform="matrix(0.80041062,0,0,1.1244228,98.618211,-1.5464805e-4)"
   x1="1108.8855"
   y1="886.8808"
   x2="1108.8855"
   y2="12348.43" /></defs>
  <sodipodi:namedview
   id="namedview488"
   pagecolor="#ffffff"
   bordercolor="#000000"
   borderopacity="0.25"
   inkscape:showpageshadow="2"
   inkscape:pageopacity="0.0"
   inkscape:pagecheckerboard="true"
   inkscape:deskcolor="#d1d1d1"
   inkscape:document-units="mm"
   inkscape:zoom="3.3736828"
   inkscape:cx="169.54765"
   inkscape:cy="332.72245"
   inkscape:window-width="2560"
   inkscape:window-height="1377"
   inkscape:window-x="-8"
   inkscape:window-y="-8"
   inkscape:window-maximized="1"
   inkscape:current-layer="svg488"
   showgrid="false"
   inkscape:pageshadow="2" />
  
  <g
   id="panel_art"
   style="display:inline">
    <g
   id="Background_Rect"
   style="display:inline"
   transform="matrix(0.99673566,0,0,0.99708035,-982.96277,-994.31744)">
      
      <rect
   x="986.18201"
   y="997.229"
   width="9173.9473"
   height="12887.627"
   rx="0"
   ry="0"
   fill="url(#bgGrad)"
   id="black_background"
   style="display:inline;opacity:1;fill:url(#linearGradient1);stroke-width:26.7737"
   sodipodi:insensitive="true" /><g
   id="waves_layer"
   style="display:inline;opacity:0.5"
   transform="matrix(1.0032752,0,0,1.0029283,476.52107,1109.6544)"><g
     id="branding_wave_left"
     transform="matrix(1.72,0,0,1.72,2416.9188,11996.75)"
     style="display:inline">
        <path
   style="fill:#4995ec"
   d="m 0,413.249 c 0,0 99.571,-7.286 135.999,-84.999 36.428,-77.713 30.357,-229.499 207.642,-229.499 38.871,0 81.438,18.386 104.731,34.602 116.875,81.362 61.625,248.326 -75.589,205.523 0,0 49.786,-2.125 49.786,-67.697 0,-65.572 -82.091,-75.285 -94.714,-20.643 -8.992,38.927 -3.643,156.643 167.571,162.713"
   id="path149" />
        <path
   style="fill:#7a5cff"
   d="m 372.784,338.875 c 42.5,0 125.678,-65.875 75.213,-144.378 C 412.71,139.6 316.321,128.5 247.714,197.107 179.179,265.642 219.7,398.411 0.644,413.201 9.193,412.412 101.283,402.321 136,328.25 172.429,250.536 166.357,98.751 343.642,98.751 c 38.869,0 81.43,18.384 104.731,34.607 116.874,81.357 61.625,248.321 -75.589,205.517 z"
   id="path151" />
        
        <path
   style="fill:#1cccd9"
   d="M 495.426,413.249 H 268.433 C 242.935,402.664 232.851,365.455 246.5,310.035 c 15.166,-61.576 44.686,-94.762 88.642,-101.999 26.411,-4.347 46.895,4.299 59.973,12.945 -25.087,-13.418 -59.464,-4.238 -67.259,29.556 -8.998,38.929 -3.644,156.641 167.57,162.712 z"
   id="path155" />
      </g><g
     id="branding_wave_right"
     transform="matrix(-1.72,0,0,1.72,7743.0744,11996.75)"
     style="display:inline">
        <path
   style="fill:#4995ec"
   d="m 0,413.249 c 0,0 99.571,-7.286 135.999,-84.999 36.428,-77.713 30.357,-229.499 207.642,-229.499 38.871,0 81.438,18.386 104.731,34.602 116.875,81.362 61.625,248.326 -75.589,205.523 0,0 49.786,-2.125 49.786,-67.697 0,-65.572 -82.091,-75.285 -94.714,-20.643 -8.992,38.927 -3.643,156.643 167.571,162.713"
   id="path158" />
        <path
   style="fill:#7a5cff"
   d="m 372.784,338.875 c 42.5,0 125.678,-65.875 75.213,-144.378 C 412.71,139.6 316.321,128.5 247.714,197.107 179.179,265.642 219.7,398.411 0.644,413.201 9.193,412.412 101.283,402.321 136,328.25 172.429,250.536 166.357,98.751 343.642,98.751 c 38.869,0 81.43,18.384 104.731,34.607 116.874,81.357 61.625,248.321 -75.589,205.517 z"
   id="path160" />
        
        <path
   style="fill:#1cccd9"
   d="M 495.426,413.249 H 268.433 C 242.935,402.664 232.851,365.455 246.5,310.035 c 15.166,-61.576 44.686,-94.762 88.642,-101.999 26.411,-4.347 46.895,4.299 59.973,12.945 -25.087,-13.418 -59.464,-4.238 -67.259,29.556 -8.998,38.929 -3.644,156.641 167.57,162.712 z"
   id="path164" />
      </g></g><rect
   x="1096.182"
   y="1107.229"
   width="9973.2734"
   height="12667.627"
   rx="210"
   ry="210"
   fill="none"
   stroke="#ffffff"
   stroke-opacity="0.1"
   stroke-width="60"
   id="gray_outline"
   style="display:none;stroke:#3c3f42;stroke-opacity:1" />
      
    </g>
    
    
    
    <g
   id="panel_graphics"
   style="display:inline"
   transform="matrix(0.99673566,0,0,0.99708035,-982.96277,-994.31744)">
      <g
   id="grp_frame"
   inkscape:label="Frame"
   style="display:inline">
        <rect
   x="1107.2235"
   y="10831.58"
   width="3538.4043"
   height="2208.5784"
   rx="181.74057"
   ry="181.74057"
   fill="#000000"
   opacity="0.1"
   stroke="#ffffff"
   stroke-opacity="0.06"
   stroke-width="45.4351"
   id="frame_left"
   style="opacity:0.33;fill:#5740bf;fill-opacity:1" />
        
        <rect
   x="6327.8511"
   y="10852.833"
   width="3709.1392"
   height="2173.2686"
   rx="182.51744"
   ry="183.18156"
   fill="#000000"
   opacity="0.1"
   stroke="#ffffff"
   stroke-opacity="0.06"
   stroke-width="45.7123"
   id="outputs"
   style="opacity:0.33;fill:#1cccd9;fill-opacity:0.5" />
        
      </g>
      
    </g>
    
    
  <g
   id="ring_guides"
   style="display:none"
   transform="matrix(0.99673566,0,0,0.99708035,-982.96277,-994.31744)"><g
     id="GenA_Guide_Rings"
     style="display:inline"
     transform="translate(1.0410941e-5)"><circle
       cx="2000"
       cy="2550"
       r="454.70001"
       fill="none"
       stroke="#ffffff"
       stroke-opacity="0.15"
       stroke-width="70"
       id="ring_in1_o"
       style="display:inline"
       transform="translate(1.0410941e-5)" /><circle
       cx="3100"
       cy="2550"
       r="454.70001"
       fill="none"
       stroke="#ffffff"
       stroke-opacity="0.15"
       stroke-width="70"
       id="ring_trig1_o"
       style="display:inline"
       transform="translate(1.0410941e-5)" /><circle
       cx="4179.918"
       cy="3100"
       r="360"
       fill="none"
       stroke="#ffffff"
       stroke-opacity="0.15"
       stroke-width="70"
       id="ring_loopbtn1_o"
       style="display:inline"
       transform="translate(1.0410941e-5)" /><circle
       cx="5000"
       cy="3100"
       r="300"
       fill="none"
       stroke="#ffffff"
       stroke-opacity="0.15"
       stroke-width="70"
       id="ring_loopA_cv_o"
       style="display:inline"
       transform="translate(1.0410941e-5)" /><circle
       cx="3257.6777"
       cy="4682.3936"
       r="300"
       fill="none"
       stroke="#ffffff"
       stroke-opacity="0.15"
       stroke-width="70"
       id="ring_surgeA_cv_o" /><circle
       cx="4388.54"
       cy="4650"
       r="520"
       fill="none"
       stroke="#ffffff"
       stroke-opacity="0.15"
       stroke-width="70"
       id="ring_surgeA_o" /><circle
       cx="4283.1519"
       cy="7354.9507"
       r="300"
       fill="none"
       stroke="#ffffff"
       stroke-opacity="0.15"
       stroke-width="70"
       id="ring_sinkA_cv_o" /><circle
       cx="5216.54"
       cy="6333.5591"
       r="520"
       fill="none"
       stroke="#ffffff"
       stroke-opacity="0.15"
       stroke-width="70"
       id="ring_sinkA_o" /><ellipse
       cx="2370.1685"
       cy="6072.2539"
       fill="none"
       stroke="#ffffff"
       stroke-opacity="0.15"
       stroke-width="71.5728"
       id="ring_curveA_o-4"
       rx="544.07501"
       ry="519.57361"
       style="display:inline" /></g><g
     id="GenB_Guide_Rings"
     style="display:inline"
     transform="translate(1.0410941e-5)"><circle
       cx="7960"
       cy="3100"
       r="360"
       fill="none"
       stroke="#ffffff"
       stroke-opacity="0.15"
       stroke-width="70"
       id="ring_loopbtn4_o"
       style="display:inline"
       transform="translate(1.0410941e-5)" /><circle
       cx="9050"
       cy="2550"
       r="454.70001"
       fill="none"
       stroke="#ffffff"
       stroke-opacity="0.15"
       stroke-width="70"
       id="ring_trig4_o"
       style="display:inline"
       transform="translate(1.0410941e-5)" /><circle
       cx="10150"
       cy="2550"
       r="454.70001"
       fill="none"
       stroke="#ffffff"
       stroke-opacity="0.15"
       stroke-width="70"
       id="ring_in4_o"
       style="display:inline"
       transform="translate(1.0410941e-5)" /><circle
       cx="7160"
       cy="3100"
       r="300"
       fill="none"
       stroke="#ffffff"
       stroke-opacity="0.15"
       stroke-width="70"
       id="ring_loopB_cv_o"
       style="display:inline"
       transform="translate(1.0410941e-5)" /><circle
       cx="8918.8623"
       cy="4682.3936"
       r="300"
       fill="none"
       stroke="#ffffff"
       stroke-opacity="0.15"
       stroke-width="70"
       id="ring_surgeB_cv_o" /><circle
       cx="7788"
       cy="4650"
       r="520"
       fill="none"
       stroke="#ffffff"
       stroke-opacity="0.15"
       stroke-width="70"
       id="ring_surgeB_o" /><circle
       cx="7893.3882"
       cy="7354.9507"
       r="300"
       fill="none"
       stroke="#ffffff"
       stroke-opacity="0.15"
       stroke-width="70"
       id="ring_sinkB_cv_o" /><circle
       cx="6960"
       cy="6333.5591"
       r="520"
       fill="none"
       stroke="#ffffff"
       stroke-opacity="0.15"
       stroke-width="70"
       id="ring_sinkB_o" /><ellipse
       cx="10179.104"
       cy="6072.0962"
       fill="none"
       stroke="#ffffff"
       stroke-opacity="0.15"
       stroke-width="71.5728"
       id="ring_curveA_o-4-7"
       rx="544.07513"
       ry="519.57373"
       style="display:inline" /></g><g
     id="output_ring_guides"
     style="display:inline"
     transform="translate(1.0410941e-5)"><circle
       cx="2000"
       cy="10730"
       r="454.70001"
       fill="none"
       stroke="#ffffff"
       stroke-opacity="0.15"
       stroke-width="70"
       id="ring_eor_o"
       style="display:inline"
       transform="translate(1.0410941e-5)" /><circle
       cx="10150"
       cy="10730"
       r="454.70001"
       fill="none"
       stroke="#ffffff"
       stroke-opacity="0.15"
       stroke-width="70"
       id="ring_eoc_o"
       style="display:inline"
       transform="translate(1.0410941e-5)" /><circle
       cx="3529.7866"
       cy="10730"
       r="454.70001"
       fill="none"
       stroke="#ffffff"
       stroke-opacity="0.15"
       stroke-width="70"
       id="ring_out1_o"
       style="display:inline" /><circle
       cx="5240.1309"
       cy="10730"
       r="454.70001"
       fill="none"
       stroke="#ffffff"
       stroke-opacity="0.15"
       stroke-width="70"
       id="ring_out2_o"
       style="display:inline" /><circle
       cx="6960"
       cy="10730"
       r="454.70001"
       fill="none"
       stroke="#ffffff"
       stroke-opacity="0.15"
       stroke-width="70"
       id="ring_out3_o"
       style="display:inline"
       transform="translate(1.0410941e-5)" /><circle
       cx="8600"
       cy="10730"
       r="454.70001"
       fill="none"
       stroke="#ffffff"
       stroke-opacity="0.15"
       stroke-width="70"
       id="ring_out4_o"
       style="display:inline"
       transform="translate(1.0410941e-5)" /><circle
       cx="2000"
       cy="12110.747"
       r="454.70001"
       fill="none"
       stroke="#ffffff"
       stroke-opacity="0.15"
       stroke-width="70"
       id="ring_s1_o" /><circle
       cx="4368.2236"
       cy="12130.806"
       r="454.70001"
       fill="none"
       stroke="#ffffff"
       stroke-opacity="0.15"
       stroke-width="70"
       id="ring_or_o" /><circle
       cx="6080"
       cy="12130.806"
       r="454.70001"
       fill="none"
       stroke="#ffffff"
       stroke-opacity="0.15"
       stroke-width="70"
       id="ring_sum_o" /><circle
       cx="7811.7646"
       cy="12130.806"
       r="454.70001"
       fill="none"
       stroke="#ffffff"
       stroke-opacity="0.15"
       stroke-width="70"
       id="ring_inv_o" /><circle
       cx="10150"
       cy="12110.747"
       r="454.70001"
       fill="none"
       stroke="#ffffff"
       stroke-opacity="0.15"
       stroke-width="70"
       id="ring_s4_o" /></g><g
     id="middle_ring_guides"
     style="display:inline"
     transform="translate(1.0410941e-5)"><circle
       cx="5200"
       cy="8600"
       r="300"
       fill="none"
       stroke="#ffffff"
       stroke-opacity="0.15"
       stroke-width="70"
       id="ring_in2_o"
       style="display:inline"
       transform="translate(1.0410941e-5)" /><circle
       cx="6960"
       cy="8600"
       r="300"
       fill="none"
       stroke="#ffffff"
       stroke-opacity="0.15"
       stroke-width="70"
       id="ring_in3_o"
       style="display:inline"
       transform="translate(1.0410941e-5)" /><circle
       cx="3529.7866"
       cy="9680"
       r="454.70001"
       fill="none"
       stroke="#ffffff"
       stroke-opacity="0.15"
       stroke-width="70"
       id="ring_att1_o" /><circle
       cx="5240.1309"
       cy="9680"
       r="454.70001"
       fill="none"
       stroke="#ffffff"
       stroke-opacity="0.15"
       stroke-width="70"
       id="ring_att2_o" /><circle
       cx="6960"
       cy="9680"
       r="454.70001"
       fill="none"
       stroke="#ffffff"
       stroke-opacity="0.15"
       stroke-width="70"
       id="ring_att3_o" /><circle
       cx="8600"
       cy="9680"
       r="454.70001"
       fill="none"
       stroke="#ffffff"
       stroke-opacity="0.15"
       stroke-width="70"
       id="ring_att4_o" /></g></g><path
   d="M 427.73558,952.18282 H 8716.2649"
   stroke="url(#accentGrad)"
   stroke-width="46.999"
   stroke-linecap="round"
   opacity="0.55"
   fill="none"
   id="top_horizontal_line"
   style="display:inline;opacity:1;stroke:#5740bf;stroke-opacity:1" /></g>
  <g
   id="panel_labels_reworked"
   inkscape:groupmode="layer"
   inkscape:label="Labels Reworked"
   style="display:inline"><text
   id="reworked_module_title_text"
   x="4570.1479"
   y="447.27814"
   style="font-style:normal;font-variant:normal;font-weight:normal;font-stretch:normal;font-size:529.167px;font-family:Rubik;-inkscape-font-specification:'Rubik, @wght=600';font-variant-ligatures:normal;font-variant-caps:normal;font-variant-numeric:normal;font-variant-east-asian:normal;font-variation-settings:'wght' 600;dominant-baseline:middle;text-anchor:middle;display:inline;fill:url(#linearGradient15);stroke-width:28.1347"
   xml:space="preserve"><tspan
     sodipodi:role="line"
     id="tspan1"
     style="fill:url(#linearGradient15)"
     x="4570.1479"
     y="447.27814">Crownstep</tspan></text><text
   id="reworked_LEVIATHAN_LOGO"
   x="4570.0957"
   y="12482.232"
   style="font-style:normal;font-variant:normal;font-weight:normal;font-stretch:normal;font-size:635px;font-family:Ancient;-inkscape-font-specification:'Ancient, Normal';font-variant-ligatures:normal;font-variant-caps:normal;font-variant-numeric:normal;font-variant-east-asian:normal;dominant-baseline:middle;text-anchor:middle;display:inline;fill:url(#linearGradient17);fill-rule:evenodd;stroke-width:37.088"
   xml:space="preserve"
   inkscape:label="reworked_LEVIATHAN_LOGO">Leviathan</text>
        
        
        
        
        
        
        
        
        
        
        
        
        
        
        
        
        
        
        
        
        
        <text
   id="reworked_lbl_eor"
   x="1014.0171"
   y="10341.131"
   style="font-style:normal;font-variant:normal;font-weight:normal;font-stretch:normal;font-size:282.223px;font-family:Rubik;-inkscape-font-specification:'Rubik, @wght=400';font-variant-ligatures:normal;font-variant-caps:normal;font-variant-numeric:normal;font-variant-east-asian:normal;font-variation-settings:'wght' 400;dominant-baseline:middle;text-anchor:middle;fill:#ffffff"
   xml:space="preserve">EoR</text>
        
        <text
   id="reworked_lbl_out1"
   x="2531.5142"
   y="10341.1"
   style="font-style:normal;font-variant:normal;font-weight:normal;font-stretch:normal;font-size:282.223px;font-family:Rubik;-inkscape-font-specification:'Rubik, @wght=400';font-variant-ligatures:normal;font-variant-caps:normal;font-variant-numeric:normal;font-variant-east-asian:normal;font-variation-settings:'wght' 400;dominant-baseline:middle;text-anchor:middle;fill:#ffffff"
   xml:space="preserve">1</text>
        
        <text
   id="reworked_lbl_out3"
   x="5952.8721"
   y="10341.1"
   style="font-style:normal;font-variant:normal;font-weight:normal;font-stretch:normal;font-size:282.223px;font-family:Rubik;-inkscape-font-specification:'Rubik, @wght=400';font-variant-ligatures:normal;font-variant-caps:normal;font-variant-numeric:normal;font-variant-east-asian:normal;font-variation-settings:'wght' 400;dominant-baseline:middle;text-anchor:middle;fill:#ffffff"
   xml:space="preserve">3</text>
        <text
   id="reworked_lbl_out4"
   x="7588.1367"
   y="10341.1"
   style="font-style:normal;font-variant:normal;font-weight:normal;font-stretch:normal;font-size:282.223px;font-family:Rubik;-inkscape-font-specification:'Rubik, @wght=400';font-variant-ligatures:normal;font-variant-caps:normal;font-variant-numeric:normal;font-variant-east-asian:normal;font-variation-settings:'wght' 400;dominant-baseline:middle;text-anchor:middle;fill:#ffffff"
   xml:space="preserve">4</text>
        
        <text
   id="reworked_text29-7"
   x="6803.3994"
   y="11737.7"
   style="font-style:normal;font-variant:normal;font-weight:normal;font-stretch:normal;font-size:282.223px;font-family:Rubik;-inkscape-font-specification:'Rubik, @wght=400';font-variant-ligatures:normal;font-variant-caps:normal;font-variant-numeric:normal;font-variant-east-asian:normal;font-variation-settings:'wght' 400;dominant-baseline:middle;text-anchor:middle;fill:#ffffff"
   xml:space="preserve">INV</text>
        
        <text
   id="reworked_lbl_s1"
   x="993.21527"
   y="11741.934"
   style="font-style:normal;font-variant:normal;font-weight:normal;font-stretch:normal;font-size:282.223px;font-family:Rubik;-inkscape-font-specification:'Rubik, @wght=400';font-variant-ligatures:normal;font-variant-caps:normal;font-variant-numeric:normal;font-variant-east-asian:normal;font-variation-settings:'wght' 400;dominant-baseline:middle;text-anchor:middle;fill:#ffffff"
   xml:space="preserve"><tspan
     sodipodi:role="line"
     id="tspan101"
     x="993.21527"
     y="11741.934">∫ 1</tspan></text>
        
        <text
   id="reworked_module_description"
   x="4568.8252"
   y="815.19421"
   style="font-style:normal;font-variant:normal;font-weight:normal;font-stretch:normal;font-size:211.667px;font-family:Rubik;-inkscape-font-specification:'Rubik, @wght=400';font-variant-ligatures:normal;font-variant-caps:normal;font-variant-numeric:normal;font-variant-east-asian:normal;font-variation-settings:'wght' 400;dominant-baseline:middle;text-anchor:middle;display:inline;fill:#ffffff"
   xml:space="preserve"><tspan
     sodipodi:role="line"
     id="tspan2"
     x="4568.8252"
     y="815.19421">sequencer</tspan></text>
        
      </g><g
   id="g14"
   inkscape:groupmode="layer"
   inkscape:label="Labels Reworked copy"
   style="display:inline"><path
   d="m 3336.9117,590.15323 q -49.7417,0 -84.6667,-16.40418 -34.3959,-16.93334 -53.4459,-48.68336 -19.05,-32.27919 -21.1666,-78.31672 -0.5292,-21.69584 -0.5292,-46.56669 0,-24.87085 0.5292,-47.62503 2.1166,-45.50836 21.1666,-77.25838 19.5792,-32.27919 54.5042,-49.21253 34.9251,-16.93335 83.6084,-16.93335 35.4542,0 64.5584,8.99584 29.1042,8.99584 50.2709,25.92918 21.1666,16.93335 32.8083,39.68753 11.6417,22.75418 12.7,50.80003 0,4.7625 -3.7042,7.9375 -3.175,3.17501 -7.9375,3.17501 h -60.325 q -6.35,0 -10.0542,-3.17501 -3.7041,-3.175 -5.8208,-10.58334 -7.9375,-31.22085 -26.4584,-42.86252 -18.5208,-11.64168 -46.0375,-11.64168 -32.8083,0 -51.8583,17.99168 -19.0501,17.99168 -20.6376,59.79587 -1.5875,43.3917 0,88.90006 1.5875,41.80419 20.6376,59.79587 19.05,17.99167 51.8583,17.99167 27.5167,0 46.0375,-11.64167 19.0501,-12.17084 26.4584,-42.86253 2.1167,-7.9375 5.8208,-10.58334 3.7042,-3.175 10.0542,-3.175 h 60.325 q 4.7625,0 7.9375,3.175 3.7042,3.17501 3.7042,7.93751 -1.0583,28.04585 -12.7,50.80003 -11.6417,22.75418 -32.8083,39.68753 -21.1667,16.93334 -50.2709,25.92918 -29.1042,8.99584 -64.5584,8.99584 z m 226.4839,-5.29167 q -5.2917,0 -8.9958,-3.70417 -3.7042,-3.70417 -3.7042,-9.52501 V 322.9239 q 0,-5.29167 3.7042,-8.99584 3.7041,-4.23334 8.9958,-4.23334 h 51.8584 q 5.2916,0 8.9958,4.23334 4.2333,3.70417 4.2333,8.99584 v 21.16668 q 13.2292,-16.40418 32.2792,-25.40002 19.5792,-8.99584 44.9792,-8.99584 h 22.7542 q 5.2917,0 8.9958,3.70417 3.7042,3.70417 3.7042,9.52501 v 45.50836 q 0,5.82083 -3.7042,9.525 -3.7041,3.70417 -8.9958,3.70417 h -46.5667 q -23.2833,0 -36.5125,13.22918 -13.2292,12.7 -13.2292,36.51252 v 140.22925 q 0,5.82084 -3.7042,9.52501 -3.7041,3.70417 -9.525,3.70417 z m 340.3335,5.29167 q -43.9208,0 -73.5542,-14.28751 -29.6333,-14.81668 -45.5083,-41.80419 -15.3459,-26.98752 -16.9334,-62.97088 -0.5292,-10.58334 -0.5292,-23.81251 0,-13.75834 0.5292,-23.81252 1.5875,-36.51252 17.9917,-62.97087 16.4042,-26.98751 46.0375,-41.27502 29.6334,-14.81668 71.9667,-14.81668 41.8042,0 71.4376,14.81668 29.6333,14.28751 46.0375,41.27502 16.4042,26.45835 17.9917,62.97087 1.0583,10.05418 1.0583,23.81252 0,13.22917 -1.0583,23.81251 -1.5875,35.98336 -17.4625,62.97088 -15.3459,26.98751 -44.9792,41.80419 -29.6334,14.28751 -73.0251,14.28751 z m 0,-58.20837 q 25.9292,0 39.1584,-15.87501 13.2292,-16.40418 14.2875,-47.62503 0.5292,-7.93751 0.5292,-21.16668 0,-13.22918 -0.5292,-21.16668 -1.0583,-30.69169 -14.2875,-47.09586 -13.2292,-16.40418 -39.1584,-16.40418 -25.9291,0 -39.6875,16.40418 -13.2292,16.40417 -14.2875,47.09586 -0.5292,7.9375 -0.5292,21.16668 0,13.22917 0.5292,21.16668 1.0583,31.22085 14.2875,47.62503 13.7584,15.87501 39.6875,15.87501 z m 259.794,52.9167 q -7.4083,0 -11.6416,-3.70417 -3.7042,-3.70417 -5.8209,-9.52501 l -75.6708,-245.00432 q -1.0584,-2.64583 -1.0584,-5.29167 0,-4.7625 3.175,-7.9375 3.7042,-3.70417 8.4667,-3.70417 h 46.5667 q 6.8792,0 10.5833,3.70417 3.7042,3.70417 4.7625,6.87917 l 48.1542,163.5126 51.3292,-162.45427 q 1.0584,-3.70416 4.7625,-7.40833 4.2334,-4.23334 11.6417,-4.23334 h 30.1625 q 7.4084,0 11.1125,4.23334 4.2334,3.70417 5.2917,7.40833 l 51.3292,162.45427 48.1542,-163.5126 q 0.5292,-3.175 4.2333,-6.87917 4.2334,-3.70417 10.5834,-3.70417 h 46.5667 q 4.7625,0 7.9375,3.70417 3.7041,3.175 3.7041,7.9375 0,2.64584 -0.5291,5.29167 l -76.2001,245.00432 q -1.5875,5.82084 -5.8208,9.52501 -3.7042,3.70417 -11.1125,3.70417 h -40.7459 q -7.4083,0 -11.6416,-3.70417 -4.2334,-3.70417 -6.3501,-9.52501 l -51.3291,-156.63343 -52.3876,156.63343 q -1.5875,5.82084 -5.8208,9.52501 -4.2334,3.70417 -11.6417,3.70417 z m 375.7088,0 q -5.2917,0 -8.9958,-3.70417 -3.7042,-3.70417 -3.7042,-9.52501 V 322.9239 q 0,-5.82084 3.7042,-9.52501 3.7041,-3.70417 8.9958,-3.70417 h 51.8584 q 5.8208,0 9.525,3.70417 3.7041,3.70417 3.7041,9.52501 v 20.63751 q 13.7584,-16.93335 35.4542,-28.04585 21.6959,-11.11251 52.9167,-11.11251 31.2209,0 54.5042,14.28751 23.8125,13.75834 37.0417,40.74586 13.7584,26.45835 13.7584,64.55837 v 147.63759 q 0,5.82084 -4.2334,9.52501 -3.7041,3.70417 -8.9958,3.70417 h -56.0917 q -5.8209,0 -9.525,-3.70417 -3.7042,-3.70417 -3.7042,-9.52501 V 427.16979 q 0,-28.04585 -13.7583,-43.39169 -13.2292,-15.87501 -39.1584,-15.87501 -24.8708,0 -39.6875,15.87501 -14.8167,15.34584 -14.8167,43.39169 v 144.46259 q 0,5.82084 -3.7042,9.52501 -3.7041,3.70417 -8.9958,3.70417 z m 430.7416,5.29167 q -32.8083,0 -56.6208,-7.40834 -23.2834,-7.93751 -38.1001,-19.05001 -14.2875,-11.11251 -21.6958,-22.22502 -6.8792,-11.64167 -7.4083,-19.57918 -0.5292,-5.82083 3.7041,-9.525 4.2334,-3.70417 8.4667,-3.70417 h 51.3292 q 1.5875,0 3.175,0.52917 1.5875,0.52916 3.175,2.64583 6.8792,4.76251 14.2875,11.11251 7.4083,5.82084 16.9334,10.05417 10.0541,4.23334 24.8708,4.23334 17.4625,0 29.6334,-6.87917 12.1708,-7.40834 12.1708,-20.63752 0,-9.525 -5.8208,-15.87501 -5.2917,-6.35 -20.6376,-11.64167 -15.3458,-5.29167 -45.5083,-11.64167 -28.575,-6.35001 -48.6834,-16.93335 -20.1083,-10.58334 -30.1625,-26.45835 -10.0542,-16.40417 -10.0542,-39.15835 0,-20.63752 12.7,-39.68753 13.2292,-19.05001 38.6292,-31.22085 25.4,-12.70001 63.5001,-12.70001 29.1041,0 50.8,7.40834 22.225,6.87917 37.0417,17.99168 14.8167,10.58334 22.225,22.22501 7.9375,11.11251 8.4667,19.57918 0.5291,5.29167 -3.175,8.99584 -3.7042,3.70417 -8.4667,3.70417 h -47.0959 q -2.6458,0 -4.7625,-0.52917 -2.1166,-1.05833 -3.7041,-2.64583 -6.35,-4.23334 -13.2292,-9.52501 -6.35,-5.82084 -15.3459,-10.05417 -8.9958,-4.23334 -23.2833,-4.23334 -17.4625,0 -26.9875,7.93751 -8.9959,7.40833 -8.9959,19.05001 0,7.40833 4.7625,13.75834 4.7625,6.35 19.5792,11.64167 14.8167,5.29167 44.9792,11.11251 35.9834,6.35 57.1501,19.05001 21.1666,12.70001 30.1625,29.63335 9.525,16.40418 9.525,35.45419 0,24.87085 -14.8167,44.45003 -14.8167,19.05001 -43.3917,30.16252 -28.0458,10.58334 -69.3209,10.58334 z m 309.5361,-5.29167 q -32.8084,0 -56.0917,-10.58334 -23.2834,-11.11251 -35.4542,-33.86669 -11.6417,-22.75418 -11.6417,-57.15004 V 372.13643 h -41.275 q -5.8209,0 -9.525,-3.70417 -3.7042,-3.70417 -3.7042,-9.52501 V 322.9239 q 0,-5.82084 3.7042,-9.52501 3.7041,-3.70417 9.525,-3.70417 h 41.275 v -87.31255 q 0,-5.82084 3.7042,-9.52501 4.2333,-3.70417 9.525,-3.70417 h 51.8583 q 5.8209,0 9.525,3.70417 3.7042,3.70417 3.7042,9.52501 v 87.31255 h 66.1459 q 5.2917,0 8.9958,3.70417 3.7042,3.70417 3.7042,9.52501 v 35.98335 q 0,5.82084 -3.7042,9.52501 -3.7041,3.70417 -8.9958,3.70417 h -66.1459 v 104.77506 q 0,20.10835 6.8792,31.75002 7.4083,11.11251 25.4,11.11251 h 38.6292 q 5.2917,0 8.9958,3.70417 3.7042,3.70416 3.7042,8.99583 v 39.15836 q 0,5.82084 -3.7042,9.52501 -3.7041,3.70417 -8.9958,3.70417 z m 227.5416,5.29167 q -60.8542,0 -96.8376,-33.86669 -35.4541,-33.86669 -37.5708,-98.42506 0,-4.23334 0,-11.11251 0,-7.40834 0,-11.64167 2.1167,-40.74586 18.5208,-69.85004 16.4042,-29.63336 46.0376,-44.9792 29.6333,-15.87501 69.3208,-15.87501 44.4501,0 74.0834,18.52085 30.1625,17.99167 44.9792,49.74169 15.3459,31.22086 15.3459,71.96671 v 12.17084 q 0,5.29167 -4.2334,8.99584 -3.7042,3.70417 -8.9958,3.70417 h -173.0376 q 0,0.52917 0,2.11667 0,1.05833 0,2.11667 0.5291,16.93334 6.35,31.22085 6.35,13.75834 17.4625,22.22501 11.6417,8.46668 27.5167,8.46668 13.2291,0 21.6958,-3.70417 8.4667,-3.70417 13.7584,-8.99584 5.8208,-5.29167 8.4666,-8.99584 4.7625,-5.29167 7.4084,-6.35 3.175,-1.5875 9.525,-1.5875 h 55.0333 q 5.2917,0 8.4667,3.175 3.7042,2.64583 3.175,7.9375 -0.5292,8.46667 -8.9958,21.16668 -7.9375,12.17084 -23.8125,24.34168 -15.8751,11.64168 -39.6876,19.57918 -23.2833,7.93751 -53.975,7.93751 z m -52.3875,-168.80427 h 103.7167 v -1.05834 q 0,-19.05001 -6.35,-32.80835 -5.8208,-14.28751 -17.4625,-22.22501 -11.6417,-7.93751 -28.0459,-7.93751 -16.4041,0 -28.0458,7.93751 -11.6417,7.9375 -17.9917,22.22501 -5.8208,13.75834 -5.8208,32.80835 z m 252.4122,264.05433 q -5.8208,0 -9.525,-3.70417 -3.7042,-3.70417 -3.7042,-9.52501 V 322.9239 q 0,-5.82084 3.7042,-9.52501 3.7042,-3.70417 9.525,-3.70417 h 50.2709 q 5.8208,0 9.525,3.70417 3.7041,3.70417 3.7041,9.52501 v 20.10834 q 12.7,-16.93334 32.8084,-27.51668 20.1083,-11.11251 50.2708,-11.11251 27.5167,0 47.6251,8.99584 20.6375,8.46667 34.3958,24.87085 14.2875,15.87501 21.6959,38.62919 7.9375,22.75418 8.9958,51.3292 0.5292,10.05417 0.5292,19.05001 0,8.99584 -0.5292,19.57918 -0.5292,26.98751 -8.4667,49.7417 -7.4083,22.75418 -21.6958,39.15835 -14.2875,16.40418 -34.925,25.40002 -20.1084,8.99584 -47.6251,8.99584 -26.9875,0 -47.0958,-9.52501 -19.5792,-10.05417 -32.2792,-26.98752 v 118.53341 q 0,5.82084 -3.7042,9.52501 -3.7041,3.70417 -8.9958,3.70417 z m 122.7667,-158.7501 q 20.1084,0 31.7501,-8.46667 11.6416,-8.99584 16.4041,-23.28335 5.2917,-14.28751 6.35,-31.22085 1.0584,-16.40418 0,-32.80836 -1.0583,-16.93334 -6.35,-31.22085 -4.7625,-14.28751 -16.4041,-22.75418 -11.6417,-8.99584 -31.7501,-8.99584 -19.5791,0 -31.75,8.99584 -12.1708,8.99584 -17.4625,22.75418 -5.2917,13.75834 -6.35,29.63335 -0.5292,9.52501 -0.5292,19.57918 0,10.05417 0.5292,20.10835 0.5292,14.81667 6.35,28.04585 6.35,12.7 17.9917,21.16668 12.1708,8.46667 31.2208,8.46667 z"
   id="text3"
   style="font-size:529.167px;font-family:Rubik;-inkscape-font-specification:'Rubik, @wght=600';font-variation-settings:'wght' 600;dominant-baseline:middle;text-anchor:middle;fill:url(#linearGradient15);stroke-width:28.1347"
   aria-label="Crownstep" /><path
   d="m 3774.4406,12319.99 -16.51,-15.24 10.795,-12.7 q -1.27,-1.27 -2.54,-1.905 -0.635,-0.635 -1.27,-1.905 l -3.81,-3.81 q -1.905,-1.27 -5.08,-2.54 -2.54,-1.905 -7.62,-6.35 -3.81,-1.905 -8.255,-4.445 -4.445,-3.175 -9.525,-6.985 h -1.905 l -1.27,-0.635 h -3.81 l -0.635,-0.635 q -21.59,0 -28.575,12.065 -6.35,8.255 -6.35,12.7 v 193.04 q 0,8.89 -4.445,19.05 -3.81,9.525 -10.795,18.415 -6.35,8.255 -14.605,15.24 -8.255,6.985 -17.145,10.795 v -0.635 q -3.175,2.54 -7.62,3.81 -4.445,0.635 -12.7,3.81 h 0.635 q -1.27,0.635 -2.54,0.635 -0.635,0 -1.27,0.635 -1.27,0 -2.54,0.635 -1.27,0 -2.54,0 -1.905,0.635 -5.08,0.635 h -9.525 q 8.89,-8.89 13.97,-18.415 5.08,-9.525 6.35,-20.955 v -3.175 q 0,-2.54 0.635,-5.715 0,-1.27 0,-1.905 0.635,-0.635 0.635,-1.905 v -176.53 q 0,-34.29 55.245,-69.85 50.8,-33.02 86.995,-33.02 h 2.54 q 10.795,0 41.275,12.065 19.05,9.525 26.035,21.59 z m 4.445,323.215 q -70.485,-29.845 -143.51,-29.845 -62.865,0 -110.49,21.59 -4.445,1.27 -10.795,4.445 -5.715,3.81 -12.7,6.985 13.97,-26.67 36.195,-45.72 22.225,-19.05 54.61,-31.75 55.245,-22.225 113.03,-22.225 38.1,0 66.675,9.525 v -117.475 q -10.795,-3.81 -10.795,-19.05 0,-8.89 6.985,-15.875 6.985,-7.62 15.875,-7.62 8.89,0 15.24,7.62 6.985,6.985 6.985,15.875 0,15.24 -11.43,20.32 v 122.555 q 1.27,1.27 6.985,2.54 l 2.54,1.905 h -1.27 q 2.54,1.27 3.175,1.905 v -0.635 l 1.27,0.635 0.635,0.635 2.54,1.27 8.89,-10.795 17.78,13.97 z m -175.26,-338.455 4.445,1.27 q -7.62,22.86 -7.62,24.765 l -1.27,178.435 v 1.27 q 0,9.525 -10.16,25.4 -27.305,43.815 -73.025,48.26 15.24,-24.765 15.24,-48.26 v -64.77 q -1.27,-1.27 -4.445,-1.905 -2.54,-1.27 -5.715,-3.81 h -1.905 q -6.985,0 -12.7,4.445 -5.715,4.445 -6.35,11.43 l 0.635,0.635 v 4.445 h -3.175 l -0.635,0.635 h -2.54 q -10.795,0 -19.685,-9.525 -8.255,-10.16 -8.89,-20.955 -0.635,-1.27 -0.635,-6.985 0,-34.925 38.1,-49.53 6.35,-1.27 12.7,-1.905 6.985,-1.27 15.24,-2.54 v -23.495 q 0,-8.89 0.635,-12.065 2.54,-17.78 29.21,-36.195 25.4,-19.685 43.815,-19.685 z m 55.245,-62.23 q -3.175,26.67 -30.48,43.815 -24.13,17.145 -50.8,17.145 -15.875,0 -34.925,-7.62 -4.445,0 -5.08,-1.27 -2.54,-1.27 -4.445,-1.905 -2.54,0 -3.81,-0.635 -3.81,-1.27 -9.525,-1.905 -5.715,-1.27 -7.62,-1.27 l -0.635,0.635 q -6.985,0 -9.525,1.905 -3.81,0 -8.255,4.445 -2.54,0.635 -7.62,4.445 -4.445,3.175 -11.43,8.89 v -6.35 q 0,-35.56 19.685,-57.15 19.685,-22.225 53.975,-22.225 10.795,0 22.86,3.175 12.7,2.54 27.305,7.62 29.21,10.795 41.91,10.795 1.905,0 4.445,-0.635 2.54,-0.635 6.35,-1.905 1.27,-1.27 4.445,-2.54 z m 391.1606,209.55 q -7.62,3.81 -30.48,17.145 -22.225,12.7 -60.96,35.56 -5.715,3.175 -12.7,8.255 v 47.625 q 19.685,3.175 36.195,8.255 17.145,5.08 31.75,12.065 l 15.24,-15.875 15.875,14.605 -57.785,63.5 -6.35,-3.175 q -13.335,-6.985 -26.035,-13.335 -12.7,-5.715 -29.21,-8.89 -27.94,-5.715 -48.26,-5.715 -7.62,0 -15.24,1.27 -7.62,0.635 -15.24,1.905 1.27,-3.175 2.54,-5.08 1.27,-2.54 2.54,-3.81 v 0.635 q 4.445,-6.985 6.985,-11.43 3.175,-4.445 3.81,-5.08 4.445,-5.715 17.145,-15.24 v -153.67 q 0,-9.525 -10.16,-31.75 v -8.89 l 5.715,5.715 h 3.81 l 0.635,0.635 h 1.905 l 1.905,0.635 h 2.54 q 50.165,0 113.03,-41.91 3.175,11.43 8.255,24.765 5.08,13.335 13.97,29.845 8.255,14.605 15.24,27.305 7.62,12.065 13.97,20.955 z m -99.06,-50.165 -5.08,1.27 v 81.28 l 34.29,-22.225 q -2.54,-3.81 -6.35,-9.525 -3.175,-6.35 -7.62,-15.875 -4.445,-8.255 -8.255,-17.145 -3.81,-8.89 -6.985,-17.78 z m 366.3946,-8.255 v 3.81 l -0.635,1.27 q 0,7.62 -6.35,15.24 -5.715,6.985 -16.51,15.24 v 155.575 q 0,5.715 1.905,8.255 l 8.255,20.32 -1.27,-0.635 v 3.81 q -15.24,0 -17.78,-0.635 h -3.81 q -13.335,0 -32.385,3.81 -19.05,4.445 -45.085,12.7 -36.195,11.43 -52.705,11.43 -17.78,0 -27.305,-3.81 -25.4,-9.525 -25.4,-48.26 v -161.29 q 0,-5.08 -7.62,-11.43 -7.62,-6.985 -13.335,-6.985 h -1.27 l -1.905,-0.635 h -4.445 l -1.27,-0.635 h -3.81 v -4.445 l 66.675,-53.34 q 20.32,4.445 31.75,27.305 3.175,5.715 3.175,13.97 v 175.895 q 0,13.97 10.795,22.225 10.795,7.62 26.67,7.62 22.225,0 22.225,-13.97 v -153.035 q -12.7,-3.81 -19.685,-14.605 l -8.89,5.715 -10.16,-15.875 68.58,-52.07 q 25.4,33.655 46.99,33.655 6.35,0 15.24,-5.715 v 8.255 z m 104.7747,248.92 q -10.16,-0.635 -20.32,-4.445 -10.16,-3.175 -19.05,-10.795 -19.05,-15.24 -19.05,-34.925 v -160.02 q -9.525,-0.635 -14.605,-11.43 l -8.89,5.08 -8.89,-12.7 1.905,-3.175 0.635,0.635 1.27,-1.27 1.27,-0.635 q 6.35,-5.715 13.97,-12.7 7.62,-7.62 20.32,-18.415 6.985,-4.445 17.145,-13.97 l 2.54,-1.905 q 1.905,-1.905 3.81,-3.81 v -7.62 q 26.035,36.83 45.72,36.83 4.445,0 20.32,-8.89 v 7.62 q -1.27,3.81 -1.27,8.89 -5.08,14.605 -13.335,24.13 -8.255,8.89 -17.145,12.7 v 135.255 q 0,3.81 3.175,10.16 5.715,12.065 26.035,12.065 6.985,0 16.51,-3.81 l 2.54,4.445 z m -17.145,-297.815 h -5.08 v -0.635 h -6.35 l -1.27,-0.635 q -24.13,0 -29.845,-19.685 l -10.16,5.08 -8.255,-13.97 q 5.08,-5.08 10.795,-7.62 5.715,-3.175 10.795,-5.715 l -1.27,1.27 q 1.905,-1.27 5.08,-3.81 3.81,-3.175 6.985,-5.715 4.445,-3.175 10.16,-7.62 6.35,-4.445 13.335,-9.525 16.51,24.13 34.29,24.13 3.175,-1.27 5.08,-1.27 2.54,-0.635 5.715,-1.905 h -0.635 l 1.27,-1.27 h 0.635 l 0.635,-0.635 h 0.635 l 0.635,-0.635 h 4.445 v 5.715 q 0,8.89 -4.445,17.145 -3.81,7.62 -10.795,13.97 -6.35,5.715 -15.24,9.525 -8.255,3.81 -17.145,3.81 z m 79.3745,247.015 q -1.27,1.905 -1.27,2.54 0.635,0 1.905,-1.905 z m 211.455,-26.67 v -189.23 q -53.34,-17.145 -105.41,-35.56 -49.53,29.21 -102.235,45.72 v 1.27 q 0,6.985 9.525,19.685 v 167.64 l -6.985,10.16 q -1.905,2.54 -3.81,4.445 l -1.905,3.175 q 52.705,6.35 111.125,63.5 l 42.545,-45.085 48.26,45.085 56.515,-64.135 -23.495,-3.175 q -17.145,-2.54 -24.13,-23.495 z m -74.295,18.415 q -22.225,-17.145 -53.34,-32.385 v -161.29 l -2.54,-1.905 v -0.635 q 3.81,0 55.88,22.86 z m 210.8199,46.99 q -33.02,-31.115 -64.135,-31.115 -14.605,0 -21.59,10.795 v -8.89 q 0,-1.905 5.08,-14.605 8.89,-19.05 24.13,-27.305 v -153.67 h -10.795 q -4.445,2.54 -10.16,3.81 -0.635,0.635 -5.715,1.905 l -0.635,1.27 h -1.27 l -6.985,3.81 v -4.445 q 0,-2.54 0.635,-3.81 v -1.905 l 0.635,-1.27 q 0,-2.54 0.635,-3.81 v -4.445 q 0,-1.905 0,-3.81 0.635,-1.905 1.27,-4.445 v -3.81 l -0.635,-1.905 v -5.715 q -2.54,-6.985 -2.54,-22.86 8.255,4.445 13.335,6.35 5.715,1.905 8.89,2.54 1.27,-0.635 8.255,-0.635 h 5.08 v -28.575 l -0.635,-1.27 v -6.985 q -0.635,-0.635 -1.27,-1.905 -0.635,-1.27 -1.27,-2.54 0,-1.905 -0.635,-3.175 v -0.635 q -1.27,-1.27 -1.27,-5.08 l 4.445,-1.27 0.635,1.27 h 3.175 v 0.635 q 35.56,0 67.31,-39.37 v 8.255 l -0.635,0.635 q -0.635,1.27 -1.27,3.81 0,2.54 -1.27,6.35 v 0.635 q 0,1.905 -0.635,3.175 -2.54,10.16 -2.54,15.24 v 50.8 h 19.685 l 1.27,0.635 q 10.16,0 22.225,-8.89 v 6.985 q -0.635,1.27 -0.635,3.81 -1.905,3.175 -1.905,15.875 h 0.635 q 0,13.335 3.175,35.56 l -6.985,-3.81 -0.635,-0.635 h -0.635 q -6.985,-2.54 -15.875,-3.81 -8.89,-1.905 -20.32,-2.54 v 146.05 q 4.445,4.445 10.16,4.445 l 1.905,0.635 q 1.905,0.635 2.54,1.27 1.905,1.905 3.81,1.905 0.635,0.635 1.27,1.27 1.27,0 1.905,0.635 h -0.635 q 1.905,1.27 4.445,3.81 3.175,1.905 6.985,3.81 l 6.35,-6.35 12.7,14.605 z m 327.025,-250.19 q 0,1.905 -0.635,5.08 -6.985,24.13 -22.225,33.02 l 0.635,165.1 v -0.635 q 5.08,14.605 13.97,26.035 v -0.635 l 1.27,1.27 v 0.635 l 1.27,1.27 -3.175,4.445 q -12.065,-6.35 -33.02,-6.35 -33.02,0 -34.925,10.795 l 4.445,4.445 h -3.81 q 1.27,1.905 4.445,5.08 3.81,3.175 8.89,7.62 31.115,25.4 31.115,51.435 0,24.13 -22.86,38.1 -8.89,5.715 -12.7,5.715 l -1.27,0.635 h -3.81 l -0.635,0.635 h -2.54 q -19.05,0 -26.67,-18.415 20.32,-7.62 20.32,-21.59 0,-11.43 -6.985,-19.685 -1.905,-0.635 -2.54,-6.35 l 0.635,0.635 q -12.065,-17.78 -12.065,-38.735 0,-14.605 7.62,-19.05 v -0.635 q 6.985,-6.985 6.985,-15.24 v -164.465 q -6.35,0 -17.78,-7.62 -12.7,-8.255 -15.24,-10.795 l -0.635,-0.635 -27.94,20.955 v 131.445 q 2.54,0.635 5.715,1.905 3.175,1.27 7.62,2.54 10.16,5.08 17.145,10.795 7.62,5.715 12.7,12.065 l -58.42,53.34 q -35.56,-34.29 -64.77,-34.29 h -3.175 q -1.27,0 -3.81,0.635 -2.54,0.635 -7.62,3.175 -3.175,1.27 -6.985,1.905 -3.81,0.635 -5.08,0.635 8.89,-34.925 40.005,-48.26 v -266.065 q 0,-12.065 -12.065,-38.1 18.415,0 36.83,-7.62 18.415,-7.62 38.735,-22.225 1.27,-0.635 13.97,-11.43 l -0.635,0.635 5.08,0.635 q -1.27,3.81 -3.175,8.255 -1.27,4.445 -1.905,6.35 l -1.905,3.81 q -2.54,5.08 -5.08,19.05 -0.635,0.635 -0.635,1.27 v 0.635 q -1.27,6.985 -1.905,11.43 -0.635,4.445 -0.635,6.35 v 119.38 l 80.01,-60.96 q 17.145,34.925 36.195,34.925 0.635,0.635 3.81,0.635 8.255,0 31.75,-14.605 v 8.89 q 0,1.905 -0.635,3.175 0,1.27 -0.635,3.175 -0.635,1.905 -0.635,4.445 z m 10.1604,211.455 q -1.27,1.905 -1.27,2.54 0.635,0 1.905,-1.905 z m 211.455,-26.67 v -189.23 q -53.34,-17.145 -105.41,-35.56 -49.53,29.21 -102.235,45.72 v 1.27 q 0,6.985 9.525,19.685 v 167.64 l -6.985,10.16 q -1.905,2.54 -3.81,4.445 l -1.905,3.175 q 52.705,6.35 111.125,63.5 l 42.545,-45.085 48.26,45.085 56.515,-64.135 -23.495,-3.175 q -17.145,-2.54 -24.13,-23.495 z m -74.295,18.415 q -22.225,-17.145 -53.34,-32.385 v -161.29 l -2.54,-1.905 v -0.635 q 3.81,0 55.88,22.86 z m 353.06,-194.945 q 1.905,0.635 1.905,3.81 0,5.08 -7.62,19.05 v 184.15 h 24.765 q -6.35,0 -57.785,59.055 -2.54,-10.795 -57.15,-62.865 h 14.605 v -176.53 l -24.765,-20.955 -32.385,24.765 v 173.99 h 27.305 q -41.91,24.765 -56.515,46.99 -11.43,16.51 -12.7,16.51 -0.635,0 -0.635,-0.635 l 0.635,-1.27 q -5.715,-25.4 -59.055,-56.515 l -1.27,-3.81 h 24.765 v -165.1 q -8.89,-34.925 -29.845,-36.195 l 55.88,-41.91 q 40.64,23.495 46.99,33.655 14.605,-1.27 65.405,-34.925 l 8.255,-6.35 q 43.18,34.29 69.215,45.085 z"
   id="text4"
   style="font-size:635px;font-family:Ancient;-inkscape-font-specification:'Ancient, Normal';dominant-baseline:middle;text-anchor:middle;fill:url(#linearGradient17);stroke-width:37.088"
   inkscape:label="reworked_LEVIATHAN_LOGO"
   aria-label="Leviathan" />
        
        
        
        
        
        
        
        
        
        
        
        
        
        
        
        
        
        
        
        
        
        
        
        
        
        
        
        
        
        
        
        
        <path
   d="m 4101.2529,872.3443 q -11.8533,0 -20.32,-2.96333 -8.4667,-2.96334 -13.7584,-7.19668 -5.2916,-4.23334 -8.0433,-8.46668 -2.54,-4.23334 -2.7517,-6.77335 -0.2117,-2.32833 1.4817,-3.59834 1.6933,-1.27 3.3867,-1.27 h 9.3133 q 1.27,0 1.905,0.42334 0.8467,0.21166 2.1167,1.69333 2.7516,2.96334 6.1383,5.92668 3.3867,2.96334 8.255,4.86834 5.08,1.905 12.4884,1.905 10.795,0 17.78,-4.02167 6.985,-4.23334 6.985,-12.27669 0,-5.29167 -2.9633,-8.46668 -2.7517,-3.175 -10.16,-5.71501 -7.1967,-2.54 -19.8967,-5.29167 -12.7001,-2.96334 -20.1084,-7.19668 -7.4083,-4.44501 -10.5833,-10.37168 -3.1751,-6.13835 -3.1751,-13.75836 0,-7.83168 4.6567,-15.02836 4.6567,-7.40834 13.5467,-12.06502 9.1017,-4.65667 22.6484,-4.65667 11.0067,0 18.8383,2.75167 7.8317,2.75167 12.9117,6.98501 5.08,4.02168 7.62,8.04335 2.54,4.02167 2.7517,6.77334 0.2117,2.11667 -1.27,3.59834 -1.4817,1.27 -3.3867,1.27 h -8.89 q -1.4816,0 -2.54,-0.635 -0.8466,-0.635 -1.6933,-1.48167 -2.1167,-2.75167 -5.08,-5.50334 -2.7517,-2.75167 -7.4084,-4.445 -4.445,-1.90501 -11.8533,-1.90501 -10.5834,0 -15.875,4.44501 -5.2917,4.44501 -5.2917,11.21835 0,4.02167 2.3283,7.19668 2.3284,3.175 8.89,5.71501 6.5617,2.54 19.4734,5.50334 13.97,2.75167 22.0134,7.40835 8.0433,4.65667 11.43,10.79501 3.3867,6.13835 3.3867,14.18169 0,8.89002 -5.2917,16.29836 -5.08,7.40835 -15.24,11.85335 -9.9484,4.23334 -24.7651,4.23334 z m 113.6652,0 q -21.8017,0 -34.7133,-13.33502 -12.9117,-13.54669 -14.1817,-36.83006 -0.2117,-2.75167 -0.2117,-6.98501 0,-4.445 0.2117,-7.19668 0.8466,-15.02835 6.985,-26.2467 6.1383,-11.43002 16.7217,-17.56837 10.795,-6.13834 25.1883,-6.13834 16.0867,0 26.8818,6.77334 11.0066,6.77335 16.7217,19.2617 5.715,12.48836 5.715,29.21005 v 3.59834 q 0,2.32834 -1.4817,3.59834 -1.27,1.27 -3.3867,1.27 h -73.2368 q 0,0.21167 0,0.84667 0,0.635 0,1.05833 0.4234,8.67835 3.81,16.29836 3.3867,7.40835 9.7367,12.06502 6.35,4.65668 15.24,4.65668 7.6201,0 12.7001,-2.32834 5.08,-2.32834 8.255,-5.08001 3.175,-2.96334 4.2333,-4.44501 1.905,-2.75167 2.9634,-3.175 1.0583,-0.635 3.3866,-0.635 h 10.1601 q 2.1166,0 3.3866,1.27 1.4817,1.05833 1.27,3.175 -0.2116,3.17501 -3.3866,7.83168 -3.1751,4.44501 -9.1017,8.89002 -5.9267,4.44501 -14.3934,7.40834 -8.4667,2.75167 -19.4734,2.75167 z m -28.7867,-65.19343 h 57.9968 v -0.635 q 0,-9.52502 -3.5983,-16.93337 -3.3867,-7.40834 -9.9484,-11.64168 -6.5617,-4.44501 -15.6634,-4.44501 -9.1016,0 -15.6633,4.44501 -6.35,4.23334 -9.7367,11.64168 -3.3867,7.40835 -3.3867,16.93337 z m 183.0919,103.2935 q -2.3283,0 -3.5983,-1.48167 -1.2701,-1.27001 -1.2701,-3.38668 v -49.10674 q -5.2916,6.77334 -13.7583,11.43002 -8.255,4.445 -20.5317,4.445 -11.6417,0 -20.1084,-4.02167 -8.4667,-4.23334 -13.97,-11.00668 -5.2917,-6.98501 -8.0433,-15.87503 -2.54,-9.10168 -2.9634,-19.05003 -0.2116,-3.38667 -0.2116,-7.19668 0,-3.81 0.2116,-7.19668 0.4234,-10.16001 2.9634,-19.05003 2.7516,-8.89001 8.0433,-15.87502 5.5033,-6.98501 13.97,-11.00669 8.4667,-4.02167 20.1084,-4.02167 12.7,0 21.1667,4.65667 8.4667,4.65668 13.5467,11.64169 v -9.31335 q 0,-2.11667 1.27,-3.38667 1.4817,-1.48167 3.5983,-1.48167 h 9.7367 q 2.1167,0 3.3867,1.48167 1.4816,1.27 1.4816,3.38667 v 140.54689 q 0,2.11667 -1.4816,3.38668 -1.27,1.48167 -3.3867,1.48167 z m -34.7134,-55.24509 q 10.16,0 16.51,-4.65668 6.5617,-4.65667 9.7367,-11.85335 3.3867,-7.19668 3.5983,-14.60502 0.2117,-3.59834 0.2117,-8.25502 0,-4.65667 -0.2117,-8.04334 -0.2116,-7.83168 -3.3866,-15.24003 -3.175,-7.62001 -9.7367,-12.48835 -6.35,-4.86834 -16.7217,-4.86834 -10.795,0 -17.145,4.86834 -6.35,4.65667 -9.1017,12.48835 -2.7517,7.62001 -3.175,16.51003 -0.2117,6.13834 0,12.27669 0.4233,8.89001 3.175,16.72169 2.7517,7.62001 9.1017,12.48835 6.35,4.65668 17.145,4.65668 z m 122.3437,17.14502 q -13.5467,0 -23.0717,-5.92667 -9.3134,-6.13834 -14.1817,-16.93336 -4.8684,-10.79502 -4.8684,-24.76504 v -59.6901 q 0,-2.11667 1.27,-3.38667 1.4817,-1.48167 3.5984,-1.48167 h 10.5833 q 2.1167,0 3.3867,1.48167 1.4817,1.27 1.4817,3.38667 v 58.63176 q 0,31.53839 27.5167,31.53839 13.1233,0 20.955,-8.25502 8.0434,-8.46668 8.0434,-23.28337 v -58.63176 q 0,-2.11667 1.27,-3.38667 1.4816,-1.48167 3.5983,-1.48167 h 10.3717 q 2.3283,0 3.5983,1.48167 1.27,1.27 1.27,3.38667 v 100.33016 q 0,2.11667 -1.27,3.59834 -1.27,1.27 -3.5983,1.27 h -9.7367 q -2.1167,0 -3.5983,-1.27 -1.27,-1.48167 -1.27,-3.59834 v -9.31335 q -5.715,7.40835 -13.9701,11.85336 -8.0433,4.445 -21.3783,4.445 z m 130.175,0 q -21.8017,0 -34.7134,-13.33502 -12.9117,-13.54669 -14.1817,-36.83006 -0.2116,-2.75167 -0.2116,-6.98501 0,-4.445 0.2116,-7.19668 0.8467,-15.02835 6.9851,-26.2467 6.1383,-11.43002 16.7216,-17.56837 10.7951,-6.13834 25.1884,-6.13834 16.0867,0 26.8817,6.77334 11.0067,6.77335 16.7217,19.2617 5.715,12.48836 5.715,29.21005 v 3.59834 q 0,2.32834 -1.4816,3.59834 -1.27,1.27 -3.3867,1.27 h -73.2368 q 0,0.21167 0,0.84667 0,0.635 0,1.05833 0.4233,8.67835 3.81,16.29836 3.3867,7.40835 9.7367,12.06502 6.35,4.65668 15.24,4.65668 7.62,0 12.7,-2.32834 5.0801,-2.32834 8.2551,-5.08001 3.175,-2.96334 4.2333,-4.44501 1.905,-2.75167 2.9633,-3.175 1.0584,-0.635 3.3867,-0.635 h 10.16 q 2.1167,0 3.3867,1.27 1.4817,1.05833 1.27,3.175 -0.2117,3.17501 -3.3867,7.83168 -3.175,4.44501 -9.1017,8.89002 -5.9266,4.44501 -14.3933,7.40834 -8.4667,2.75167 -19.4734,2.75167 z m -28.7867,-65.19343 h 57.9968 v -0.635 q 0,-9.52502 -3.5984,-16.93337 -3.3866,-7.40834 -9.9483,-11.64168 -6.5617,-4.44501 -15.6634,-4.44501 -9.1017,0 -15.6633,4.44501 -6.35,4.23334 -9.7367,11.64168 -3.3867,7.40835 -3.3867,16.93337 z m 108.3734,63.07676 q -2.1167,0 -3.5983,-1.27 -1.27,-1.48167 -1.27,-3.59834 V 765.02913 q 0,-2.11667 1.27,-3.38667 1.4816,-1.48167 3.5983,-1.48167 h 9.9484 q 2.1166,0 3.3866,1.48167 1.4817,1.27 1.4817,3.38667 v 9.31335 q 5.5033,-7.19668 13.7584,-11.64169 8.4666,-4.65667 21.59,-4.65667 13.7583,0 23.2834,6.13834 9.7366,5.92668 14.605,16.7217 4.8683,10.58335 4.8683,24.76504 v 59.69009 q 0,2.11667 -1.27,3.59834 -1.27,1.27 -3.3866,1.27 h -10.5834 q -2.1167,0 -3.5983,-1.27 -1.27,-1.48167 -1.27,-3.59834 v -58.63176 q 0,-14.81669 -7.1967,-23.0717 -7.1967,-8.46668 -21.1667,-8.46668 -13.1234,0 -21.1667,8.46668 -7.8317,8.25501 -7.8317,23.0717 v 58.63176 q 0,2.11667 -1.4817,3.59834 -1.27,1.27 -3.3866,1.27 z m 167.8521,2.11667 q -15.0283,0 -26.035,-5.715 -10.795,-5.92668 -16.7217,-16.7217 -5.9267,-11.00668 -6.35,-26.24671 -0.2117,-3.175 -0.2117,-8.46668 0,-5.29167 0.2117,-8.46668 0.4233,-15.24002 6.35,-26.03504 5.9267,-11.00668 16.7217,-16.72169 11.0067,-5.92668 26.035,-5.92668 12.2767,0 20.9551,3.38667 8.89,3.38667 14.605,8.67835 5.715,5.29168 8.4667,11.43002 2.9633,6.13834 3.175,11.64168 0.2116,2.11667 -1.27,3.38668 -1.4817,1.27 -3.5984,1.27 h -10.16 q -2.1167,0 -3.175,-0.84667 -1.0583,-1.05834 -2.1167,-3.38667 -3.81,-10.37169 -10.3716,-14.60503 -6.5617,-4.23334 -16.2984,-4.23334 -12.7,0 -20.7434,7.83168 -7.8317,7.83168 -8.4667,25.18838 -0.2116,7.62001 0,14.81669 0.635,17.56836 8.4667,25.40004 8.0434,7.62001 20.7434,7.62001 9.7367,0 16.2984,-4.23334 6.5616,-4.23334 10.3716,-14.60502 1.0584,-2.32834 2.1167,-3.17501 1.0583,-1.05833 3.175,-1.05833 h 10.16 q 2.1167,0 3.5984,1.27 1.4816,1.27 1.27,3.38667 -0.2117,4.44501 -1.905,9.10168 -1.6934,4.65668 -5.5034,9.52502 -3.5983,4.65667 -9.1017,8.46668 -5.5033,3.59834 -13.335,5.92667 -7.62,2.11667 -17.3567,2.11667 z m 116.2052,0 q -21.8017,0 -34.7134,-13.33502 -12.9116,-13.54669 -14.1816,-36.83006 -0.2117,-2.75167 -0.2117,-6.98501 0,-4.445 0.2117,-7.19668 0.8466,-15.02835 6.985,-26.2467 6.1383,-11.43002 16.7217,-17.56837 10.795,-6.13834 25.1883,-6.13834 16.0867,0 26.8817,6.77334 11.0067,6.77335 16.7217,19.2617 5.715,12.48836 5.715,29.21005 v 3.59834 q 0,2.32834 -1.4816,3.59834 -1.27,1.27 -3.3867,1.27 h -73.2368 q 0,0.21167 0,0.84667 0,0.635 0,1.05833 0.4234,8.67835 3.81,16.29836 3.3867,7.40835 9.7367,12.06502 6.35,4.65668 15.24,4.65668 7.62,0 12.7001,-2.32834 5.08,-2.32834 8.255,-5.08001 3.175,-2.96334 4.2333,-4.44501 1.905,-2.75167 2.9633,-3.175 1.0584,-0.635 3.3867,-0.635 h 10.16 q 2.1167,0 3.3867,1.27 1.4817,1.05833 1.27,3.175 -0.2117,3.17501 -3.3867,7.83168 -3.175,4.44501 -9.1016,8.89002 -5.9267,4.44501 -14.3934,7.40834 -8.4667,2.75167 -19.4734,2.75167 z m -28.7867,-65.19343 h 57.9968 v -0.635 q 0,-9.52502 -3.5984,-16.93337 -3.3866,-7.40834 -9.9483,-11.64168 -6.5617,-4.44501 -15.6634,-4.44501 -9.1016,0 -15.6633,4.44501 -6.35,4.23334 -9.7367,11.64168 -3.3867,7.40835 -3.3867,16.93337 z m 108.3734,63.07676 q -2.1167,0 -3.5983,-1.27 -1.27,-1.48167 -1.27,-3.59834 V 765.2408 q 0,-2.11667 1.27,-3.59834 1.4816,-1.48167 3.5983,-1.48167 h 9.7367 q 2.1166,0 3.5983,1.48167 1.4817,1.48167 1.4817,3.59834 v 9.31335 q 4.2333,-7.19668 11.6417,-10.79502 7.4083,-3.59834 17.78,-3.59834 h 8.4667 q 2.1166,0 3.3866,1.48167 1.2701,1.27 1.2701,3.38667 v 8.67835 q 0,2.11667 -1.2701,3.38667 -1.27,1.27 -3.3866,1.27 h -12.7 q -11.4301,0 -17.9917,6.77335 -6.5617,6.56167 -6.5617,17.99169 v 62.2301 q 0,2.11667 -1.4817,3.59834 -1.4817,1.27 -3.5983,1.27 z"
   id="text14"
   style="font-size:211.667px;font-family:Rubik;-inkscape-font-specification:'Rubik, @wght=400';font-variation-settings:'wght' 400;dominant-baseline:middle;text-anchor:middle;fill:#ffffff"
   aria-label="sequencer" />
        
      </g><g
   id="components"
   style="display:none"><ellipse
     style="display:inline;fill:#ff0000;fill-opacity:1;fill-rule:evenodd;stroke-width:30.9013"
     id="LIN_LOG_1"
     cx="1397.5443"
     cy="5052.6074"
     rx="294.84427"
     ry="295.80988" /><ellipse
     style="display:inline;fill:#ff00ff;fill-opacity:1;fill-rule:evenodd;stroke-width:3.60597"
     id="EoR_CH_1"
     cx="1653.6869"
     cy="9676.0312"
     rx="114.98675"
     ry="120.83137" /><ellipse
     style="display:inline;fill:#ff00ff;fill-opacity:1;fill-rule:evenodd;stroke-width:3.60597"
     id="Light_Unity_1"
     cx="1654.6868"
     cy="11075.845"
     rx="114.98675"
     ry="120.83137" /><ellipse
     style="display:inline;fill:#0000ff;fill-opacity:1;fill-rule:evenodd;stroke-width:38.302"
     id="EOR_1"
     cx="1003.6987"
     cy="9694.5723"
     rx="398.39865"
     ry="405.17139" /><ellipse
     style="display:inline;fill:#0000ff;fill-opacity:1;fill-rule:evenodd;stroke-width:38.302"
     id="CH_1_Unity"
     cx="1004.7076"
     cy="11068.226"
     rx="398.39865"
     ry="405.17139" /><ellipse
     style="display:inline;fill:#00ff00;fill-opacity:1;fill-rule:evenodd;stroke-width:38.3021"
     id="CH1_BOTH_CV"
     cx="2663.2986"
     cy="5026.9717"
     rx="398.39865"
     ry="405.17142" /><ellipse
     style="display:inline;fill:#00ff00;fill-opacity:1;fill-rule:evenodd;stroke-width:38.3021"
     id="CH1_RISE_CV"
     cx="2168.2986"
     cy="3641.5715"
     rx="398.39865"
     ry="405.17142" /><ellipse
     style="display:inline;fill:#0000ff;fill-opacity:1;fill-rule:evenodd;stroke-width:38.302"
     id="SUM_OUT"
     cx="5071.3989"
     cy="11088.226"
     rx="398.39865"
     ry="405.17139" /><ellipse
     style="display:inline;fill:#0000ff;fill-opacity:1;fill-rule:evenodd;stroke-width:38.302"
     id="OR_OUT"
     cx="3365.1987"
     cy="11088.226"
     rx="398.39865"
     ry="405.17139" /><ellipse
     style="display:inline;fill:#ff00ff;fill-opacity:1;fill-rule:evenodd;stroke-width:3.60597"
     id="OR_LED"
     cx="4237.3867"
     cy="11075.831"
     rx="114.98675"
     ry="120.83137" /><ellipse
     style="display:inline;fill:#ff0000;fill-opacity:1;fill-rule:evenodd;stroke-width:30.9013"
     id="ATTENUATE_2"
     cx="4254.2441"
     cy="8644.5771"
     rx="294.84427"
     ry="295.80988" /></g><rect
   id="BOARD_AREA"
   x="222.00023"
   y="1030"
   width="8700"
   height="8700"
   style="display:inline;fill:#501e5c;fill-opacity:1;stroke:none;stroke-width:30.5027;stroke-opacity:1" />
</svg>
