<?xml version="1.0" encoding="utf-8" ?>
<svg baseProfile="full" height="128.5mm" version="1.1" viewBox="0 0 101.6 128.5" width="101.6mm" xmlns="http://www.w3.org/2000/svg" xmlns:ev="http://www.w3.org/2001/xml-events" xmlns:xlink="http://www.w3.org/1999/xlink"><defs /><g id="panel_art"><rect fill="#0e1016" height="128.5" rx="2.2" ry="2.2" stroke="#23283a" stroke-width="0.8" width="101.6" x="0" y="0" /><rect fill="none" height="125.3" rx="1.6" ry="1.6" stroke="#1a1f2a" stroke-width="0.4" width="98.39999999999999" x="1.6" y="1.6" /><text fill="#d8def3" font-family="Orbitron, Eurostile, sans-serif" font-size="4.6px" font-weight="700" letter-spacing="0.7px" text-anchor="middle" x="50.8" y="8.2">TEMPORAL DECK</text><text fill="#8e96b3" font-family="Orbitron, sans-serif" font-size="1.7px" letter-spacing="0.3px" text-anchor="middle" x="50.8" y="11.2">stereo time buffer / scratch instrument</text><rect fill="#241935" height="17.2" opacity="0.95" rx="2.4" ry="2.4" stroke="#7e50c7" stroke-width="0.5" width="88.6" x="6.5" y="12.8" /><circle cx="18" cy="18" fill="#171a23" r="7.1" stroke="#424863" stroke-width="0.35" /><circle cx="18" cy="18" fill="none" r="5.4" stroke="#2a2f43" stroke-width="0.25" /><line stroke="#f8e89a" stroke-linecap="round" stroke-width="0.5" x1="18" x2="20.409021032674396" y1="18" y2="14.559561413986234" /><text fill="#d8def3" font-family="Orbitron, sans-serif" font-size="2.2px" text-anchor="middle" x="18" y="28.5">BUFFER</text><circle cx="40" cy="18" fill="#171a23" r="7.1" stroke="#424863" stroke-width="0.35" /><circle cx="40" cy="18" fill="none" r="5.4" stroke="#2a2f43" stroke-width="0.25" /><line stroke="#f8e89a" stroke-linecap="round" stroke-width="0.5" x1="40" x2="42.409021032674396" y1="18" y2="14.559561413986234" /><text fill="#d8def3" font-family="Orbitron, sans-serif" font-size="2.2px" text-anchor="middle" x="40" y="28.5">RATE</text><circle cx="62" cy="18" fill="#171a23" r="7.1" stroke="#424863" stroke-width="0.35" /><circle cx="62" cy="18" fill="none" r="5.4" stroke="#2a2f43" stroke-width="0.25" /><line stroke="#f8e89a" stroke-linecap="round" stroke-width="0.5" x1="62" x2="64.40902103267439" y1="18" y2="14.559561413986234" /><text fill="#d8def3" font-family="Orbitron, sans-serif" font-size="2.2px" text-anchor="middle" x="62" y="28.5">MIX</text><circle cx="84" cy="18" fill="#171a23" r="7.1" stroke="#424863" stroke-width="0.35" /><circle cx="84" cy="18" fill="none" r="5.4" stroke="#2a2f43" stroke-width="0.25" /><line stroke="#f8e89a" stroke-linecap="round" stroke-width="0.5" x1="84" x2="86.40902103267439" y1="18" y2="14.559561413986234" /><text fill="#d8def3" font-family="Orbitron, sans-serif" font-size="2.2px" text-anchor="middle" x="84" y="28.5">FEEDBACK</text><path d="M 17.799999999999997,72.0 A 33.0,33.0 0 0 1 83.8,72.0" fill="none" opacity="0.75" stroke="#7e50c7" stroke-linecap="round" stroke-width="4.9" /><path d="M 17.799999999999997,72.0 A 33.0,33.0 0 0 1 83.8,72.0" fill="none" opacity="1.0" stroke="#f4d24b" stroke-linecap="round" stroke-width="3.7" /><circle cx="83.8" cy="72.0" fill="#f8e89a" r="1.65" stroke="#7e50c7" stroke-width="0.35" /><circle cx="25.520533377073725" cy="50.788008880344194" fill="#f4d24b" opacity="0.95" r="1.15" stroke="#7e50c7" stroke-width="0.3" /><circle cx="50.8" cy="72.0" fill="none" r="30.7" stroke="#2d3550" stroke-width="0.8" /><circle cx="50.8" cy="72.0" fill="#11131c" r="29.5" stroke="#3d4564" stroke-width="0.55" /><circle cx="50.8" cy="72.0" fill="none" opacity="0.35" r="24" stroke="#4c567d" stroke-width="0.35" /><circle cx="50.8" cy="72.0" fill="none" opacity="0.3" r="19" stroke="#4c567d" stroke-width="0.3" /><circle cx="50.8" cy="72.0" fill="none" opacity="0.25" r="14" stroke="#4c567d" stroke-width="0.25" /><circle cx="50.8" cy="72.0" fill="none" opacity="0.22" r="9" stroke="#4c567d" stroke-width="0.25" /><line opacity="0.9" stroke="#f8e89a" stroke-linecap="round" stroke-width="0.65" x1="50.8" x2="71.68837712936929" y1="72.0" y2="57.373800873048324" /><circle cx="50.8" cy="72.0" fill="#d6dae6" r="3.2" stroke="#505873" stroke-width="0.35" /><circle cx="50.8" cy="72.0" fill="#969db0" r="0.95" stroke="none" /><text fill="#7e86a5" font-family="Orbitron, sans-serif" font-size="3px" letter-spacing="0.4px" opacity="0.5" text-anchor="middle" x="50.8" y="84.0">TIME</text><rect fill="#241935" height="22.8" rx="2.4" ry="2.4" stroke="#7e50c7" stroke-width="0.45" width="16.4" x="3.8000000000000007" y="60.7" /><circle cx="12.0" cy="72.0" fill="#171a23" r="4.2" stroke="#4f5c80" stroke-width="0.35" /><text fill="#d8def3" font-family="Orbitron, sans-serif" font-size="2.05px" text-anchor="middle" x="12.0" y="81.5">POSITION CV</text><rect fill="#241935" height="22.8" rx="2.4" ry="2.4" stroke="#7e50c7" stroke-width="0.45" width="16.4" x="80.8" y="60.7" /><circle cx="89.0" cy="72.0" fill="#171a23" r="4.2" stroke="#4f5c80" stroke-width="0.35" /><text fill="#d8def3" font-family="Orbitron, sans-serif" font-size="2.05px" text-anchor="middle" x="89.0" y="81.5">RATE CV</text><rect fill="#241935" height="15.4" rx="2.6" ry="2.6" stroke="#7e50c7" stroke-width="0.45" width="60.6" x="20.5" y="91.0" /><circle cx="32.0" cy="94.2" fill="#f8e89a" r="1.35" stroke="#7e50c7" stroke-width="0.25" /><circle cx="32.0" cy="100.0" fill="#181b24" r="3.6" stroke="#515d82" stroke-width="0.35" /><text fill="#d8def3" font-family="Orbitron, sans-serif" font-size="1.9px" text-anchor="middle" x="32.0" y="105.0">FREEZE</text><circle cx="50.8" cy="94.2" fill="#f8e89a" r="1.35" stroke="#7e50c7" stroke-width="0.25" /><circle cx="50.8" cy="100.0" fill="#181b24" r="3.6" stroke="#515d82" stroke-width="0.35" /><text fill="#d8def3" font-family="Orbitron, sans-serif" font-size="1.9px" text-anchor="middle" x="50.8" y="105.0">REVERSE</text><circle cx="69.0" cy="94.2" fill="#f8e89a" r="1.35" stroke="#7e50c7" stroke-width="0.25" /><circle cx="69.0" cy="100.0" fill="#181b24" r="3.6" stroke="#515d82" stroke-width="0.35" /><text fill="#d8def3" font-family="Orbitron, sans-serif" font-size="1.9px" text-anchor="middle" x="69.0" y="105.0">SLIP</text><rect fill="#241935" height="16.0" rx="2.6" ry="2.6" stroke="#7e50c7" stroke-width="0.45" width="62.0" x="6.0" y="109.0" /><rect fill="#13233a" height="16.0" rx="2.6" ry="2.6" stroke="#47a0ff" stroke-width="0.45" width="24.6" x="71.0" y="109.0" /><circle cx="14" cy="118" fill="#171a23" r="4.15" stroke="#556189" stroke-width="0.35" /><circle cx="14" cy="118" fill="#6977a6" r="1.15" /><text fill="#d8def3" font-family="Orbitron, sans-serif" font-size="1.95px" text-anchor="middle" x="14" y="113.3">IN L</text><circle cx="30" cy="118" fill="#171a23" r="4.15" stroke="#556189" stroke-width="0.35" /><circle cx="30" cy="118" fill="#6977a6" r="1.15" /><text fill="#d8def3" font-family="Orbitron, sans-serif" font-size="1.95px" text-anchor="middle" x="30" y="113.3">IN R</text><circle cx="46" cy="118" fill="#171a23" r="4.15" stroke="#556189" stroke-width="0.35" /><circle cx="46" cy="118" fill="#6977a6" r="1.15" /><text fill="#d8def3" font-family="Orbitron, sans-serif" font-size="1.95px" text-anchor="middle" x="46" y="113.3">SCR</text><circle cx="62" cy="118" fill="#171a23" r="4.15" stroke="#556189" stroke-width="0.35" /><circle cx="62" cy="118" fill="#6977a6" r="1.15" /><text fill="#d8def3" font-family="Orbitron, sans-serif" font-size="1.95px" text-anchor="middle" x="62" y="113.3">FRZ</text><circle cx="78" cy="118" fill="#171a23" r="4.15" stroke="#5d81b8" stroke-width="0.35" /><circle cx="78" cy="118" fill="#8fb9ff" r="1.15" /><text fill="#d8def3" font-family="Orbitron, sans-serif" font-size="1.95px" text-anchor="middle" x="78" y="113.3">OUT L</text><circle cx="94" cy="118" fill="#171a23" r="4.15" stroke="#5d81b8" stroke-width="0.35" /><circle cx="94" cy="118" fill="#8fb9ff" r="1.15" /><text fill="#d8def3" font-family="Orbitron, sans-serif" font-size="1.95px" text-anchor="middle" x="94" y="113.3">OUT R</text><text fill="#9e89c7" font-family="Orbitron, sans-serif" font-size="1.5px" letter-spacing="0.2px" opacity="0.55" text-anchor="middle" x="37" y="111.2">MODULATION / INPUTS</text><text fill="#86b7ff" font-family="Orbitron, sans-serif" font-size="1.5px" letter-spacing="0.2px" opacity="0.55" text-anchor="middle" x="83.4" y="111.2">OUTPUTS</text><circle cx="4.5" cy="4.5" fill="#131722" r="1.7" stroke="#4b5168" stroke-width="0.35" /><line stroke="#77809a" stroke-width="0.25" x1="3.7" x2="5.3" y1="4.5" y2="4.5" /><circle cx="97.1" cy="4.5" fill="#131722" r="1.7" stroke="#4b5168" stroke-width="0.35" /><line stroke="#77809a" stroke-width="0.25" x1="96.3" x2="97.89999999999999" y1="4.5" y2="4.5" /><circle cx="4.5" cy="124.0" fill="#131722" r="1.7" stroke="#4b5168" stroke-width="0.35" /><line stroke="#77809a" stroke-width="0.25" x1="3.7" x2="5.3" y1="124.0" y2="124.0" /><circle cx="97.1" cy="124.0" fill="#131722" r="1.7" stroke="#4b5168" stroke-width="0.35" /><line stroke="#77809a" stroke-width="0.25" x1="96.3" x2="97.89999999999999" y1="124.0" y2="124.0" /></g><g id="components" style="display:none"><circle cx="18" cy="18" fill="#ff3b30" id="BUFFER_PARAM" r="4.0" /><circle cx="40" cy="18" fill="#ff3b30" id="RATE_PARAM" r="4.0" /><circle cx="62" cy="18" fill="#ff3b30" id="MIX_PARAM" r="4.0" /><circle cx="84" cy="18" fill="#ff3b30" id="FEEDBACK_PARAM" r="4.0" /><circle cx="32" cy="100" fill="#ff3b30" id="FREEZE_PARAM" r="4.0" /><circle cx="50.8" cy="100" fill="#ff3b30" id="REVERSE_PARAM" r="4.0" /><circle cx="69" cy="100" fill="#ff3b30" id="SLIP_PARAM" r="4.0" /><circle cx="32" cy="94.2" fill="#ff4fc3" id="FREEZE_LIGHT" r="1.45" /><circle cx="50.8" cy="94.2" fill="#ff4fc3" id="REVERSE_LIGHT" r="1.45" /><circle cx="69" cy="94.2" fill="#ff4fc3" id="SLIP_LIGHT" r="1.45" /><circle cx="12" cy="72" fill="#00c853" id="POSITION_CV" r="4.15" /><circle cx="89" cy="72" fill="#00c853" id="RATE_CV" r="4.15" /><circle cx="14" cy="118" fill="#00c853" id="INPUT_L" r="4.15" /><circle cx="30" cy="118" fill="#00c853" id="INPUT_R" r="4.15" /><circle cx="46" cy="118" fill="#00c853" id="SCRATCH_GATE" r="4.15" /><circle cx="62" cy="118" fill="#00c853" id="FREEZE_GATE" r="4.15" /><circle cx="78" cy="118" fill="#1e88ff" id="OUTPUT_L" r="4.15" /><circle cx="94" cy="118" fill="#1e88ff" id="OUTPUT_R" r="4.15" /></g><g id="custom_anchors" style="display:none"><circle cx="50.8" cy="72.0" fill="none" id="PLATTER_AREA" r="29.5" stroke="#ffffff" stroke-width="0.2" /></g></svg>