<?xml version="1.0" encoding="UTF-8" standalone="no"?>
<svg
   height="128.5mm"
   version="1.1"
   viewBox="0 0 101.6 128.5"
   width="101.6mm"
   id="svg1713"
   sodipodi:docname="deck.svg"
   inkscape:version="1.4.3 (0d15f75, 2025-12-25)"
   inkscape:label="art"
   xmlns:inkscape="http://www.inkscape.org/namespaces/inkscape"
   xmlns:sodipodi="http://sodipodi.sourceforge.net/DTD/sodipodi-0.dtd"
   xmlns:xlink="http://www.w3.org/1999/xlink"
   xmlns="http://www.w3.org/2000/svg"
   xmlns:svg="http://www.w3.org/2000/svg">
  <sodipodi:namedview
     id="namedview1715"
     pagecolor="#ffffff"
     bordercolor="#666666"
     borderopacity="1.0"
     inkscape:pageshadow="2"
     inkscape:pageopacity="0.0"
     inkscape:pagecheckerboard="0"
     inkscape:document-units="mm"
     showgrid="false"
     inkscape:zoom="1.737808"
     inkscape:cx="231.61362"
     inkscape:cy="278.22406"
     inkscape:window-width="1830"
     inkscape:window-height="1211"
     inkscape:window-x="694"
     inkscape:window-y="30"
     inkscape:window-maximized="0"
     inkscape:current-layer="svg1713"
     inkscape:showpageshadow="2"
     inkscape:deskcolor="#d1d1d1" />
  <defs
     id="defs1527">
    <linearGradient
       id="linearGradient3"
       inkscape:collect="always">
      <stop
         style="stop-color:#7a5cff;stop-opacity:1;"
         offset="0"
         id="stop3" />
      <stop
         style="stop-color:#1cccd9;stop-opacity:1;"
         offset="1"
         id="stop4" />
    </linearGradient>
    <linearGradient
       inkscape:collect="always"
       xlink:href="#linearGradient3"
       id="linearGradient4"
       x1="34.296806"
       y1="9.2125835"
       x2="72.601418"
       y2="9.3648348"
       gradientUnits="userSpaceOnUse"
       gradientTransform="translate(-2.8903267,-2.2443574)" />
  </defs>
  <g
     id="panel_art"
     style="display:inline"
     inkscape:label="panel_art">
    <rect
       fill="#0e1016"
       height="128.5"
       rx="0"
       ry="0"
       stroke="#23283a"
       stroke-width="0.8"
       width="101.6"
       x="0"
       y="0"
       id="rect1529" />
    <rect
       fill="none"
       height="125.3"
       rx="1.6"
       ry="1.6"
       stroke="#1a1f2a"
       stroke-width="0.4"
       width="98.400002"
       x="1.6"
       y="1.6"
       id="gray_border_inner"
       style="display:none" />
    <rect
       fill="#241935"
       height="17.200001"
       opacity="0.95"
       rx="2.4000001"
       ry="2.4000001"
       stroke="#7e50c7"
       stroke-width="0.5"
       width="88.599998"
       x="6.5"
       y="10.6"
       id="rect1537" />
    <circle
       cx="83.800003"
       cy="77.525002"
       fill="#f8e89a"
       r="1.65"
       stroke="#7e50c7"
       stroke-width="0.35"
       id="circle1575" />
    <g
       id="platter">
      <path
         d="m 17.8,62.099986 a 33,33 0 0 1 66,0"
         fill="none"
         opacity="0.75"
         stroke="#7e50c7"
         stroke-linecap="round"
         stroke-width="4.9"
         id="path1571" />
      <path
         d="m 17.8,62.099986 c 0,-18.225409 14.774604,-32.999993 33,-32.999993 18.225396,0 33,14.774577 33,32.999986"
         fill="none"
         opacity="1"
         stroke="#f4d24b"
         stroke-linecap="round"
         stroke-width="3.7"
         id="path1573"
         sodipodi:nodetypes="csc"
         style="display:none" />
    </g>
    <rect
       fill="#241935"
       height="22.799999"
       rx="2.4000001"
       ry="2.4000001"
       stroke="#7e50c7"
       stroke-width="0.45"
       width="16.4"
       x="3.8"
       y="66.224998"
       id="rect1599" />
    <circle
       cx="12"
       cy="77.524994"
       fill="#171a23"
       r="4.1999998"
       stroke="#4f5c80"
       stroke-width="0.35"
       id="circle1601" />
    <rect
       fill="#241935"
       height="22.799999"
       rx="2.4000001"
       ry="2.4000001"
       stroke="#7e50c7"
       stroke-width="0.45"
       width="16.4"
       x="80.800003"
       y="66.224998"
       id="rect1605" />
    <circle
       cx="89"
       cy="77.525002"
       fill="#171a23"
       r="4.1999998"
       stroke="#4f5c80"
       stroke-width="0.35"
       id="circle1607" />
    <rect
       fill="#241935"
       height="15.4"
       rx="2.5999999"
       ry="2.5999999"
       stroke="#7e50c7"
       stroke-width="0.45"
       width="60.599998"
       x="20.5"
       y="91"
       id="rect1611" />
    <circle
       cx="32"
       cy="94.199997"
       fill="#f8e89a"
       r="1.35"
       stroke="#7e50c7"
       stroke-width="0.25"
       id="circle1613" />
    <circle
       cx="32"
       cy="100"
       fill="#181b24"
       r="3.5999999"
       stroke="#515d82"
       stroke-width="0.35"
       id="circle1615" />
    <circle
       cx="50.799999"
       cy="94.199997"
       fill="#f8e89a"
       r="1.35"
       stroke="#7e50c7"
       stroke-width="0.25"
       id="circle1619" />
    <circle
       cx="50.799999"
       cy="100"
       fill="#181b24"
       r="3.5999999"
       stroke="#515d82"
       stroke-width="0.35"
       id="circle1621" />
    <circle
       cx="69"
       cy="94.199997"
       fill="#f8e89a"
       r="1.35"
       stroke="#7e50c7"
       stroke-width="0.25"
       id="circle1625" />
    <circle
       cx="69"
       cy="100"
       fill="#181b24"
       r="3.5999999"
       stroke="#515d82"
       stroke-width="0.35"
       id="circle1627" />
    <rect
       fill="#241935"
       height="16"
       rx="2.5999999"
       ry="2.5999999"
       stroke="#7e50c7"
       stroke-width="0.45"
       width="62"
       x="6"
       y="109"
       id="rect1631" />
    <rect
       fill="#13233a"
       height="27.647217"
       rx="2.5999999"
       ry="2.5999999"
       stroke="#47a0ff"
       stroke-width="0.45"
       width="12.648288"
       x="87.452003"
       y="97.352997"
       id="rect1633"
       style="opacity:0.33;fill:#1dcbd8;fill-opacity:0.5;stroke:none;stroke-opacity:1" />
    <circle
       cx="14"
       cy="118"
       fill="#171a23"
       r="4.1500001"
       stroke="#556189"
       stroke-width="0.35"
       id="circle1635" />
    <circle
       cx="14"
       cy="118"
       fill="#6977a6"
       r="1.15"
       id="circle1637" />
    <circle
       cx="30"
       cy="118"
       fill="#171a23"
       r="4.1500001"
       stroke="#556189"
       stroke-width="0.35"
       id="circle1641" />
    <circle
       cx="30"
       cy="118"
       fill="#6977a6"
       r="1.15"
       id="circle1643" />
    <circle
       cx="46"
       cy="118"
       fill="#171a23"
       r="4.1500001"
       stroke="#556189"
       stroke-width="0.35"
       id="circle1647" />
    <circle
       cx="46"
       cy="118"
       fill="#6977a6"
       r="1.15"
       id="circle1649" />
    <circle
       cx="62"
       cy="118"
       fill="#171a23"
       r="4.1500001"
       stroke="#556189"
       stroke-width="0.35"
       id="circle1653" />
    <circle
       cx="62"
       cy="118"
       fill="#6977a6"
       r="1.15"
       id="circle1655" />
    <circle
       cx="94.0625"
       cy="103.859"
       fill="#171a23"
       r="4.1500001"
       stroke="#5d81b8"
       stroke-width="0.35"
       id="circle1659" />
    <circle
       cx="94"
       cy="116.80033"
       fill="#171a23"
       r="4.1500001"
       stroke="#5d81b8"
       stroke-width="0.35"
       id="circle1665" />
    <path
       d="M 4.186227,9.522227 H 97.413935"
       stroke="url(#accentGrad)"
       stroke-width="0.498454"
       stroke-linecap="round"
       opacity="0.55"
       fill="none"
       id="top_horizontal_line"
       style="display:inline;opacity:1;stroke:#5740bf;stroke-opacity:1" />
  </g>
  <g
     id="components"
     style="display:inline">
    <circle
       cx="18"
       cy="18"
       id="BUFFER_PARAM"
       r="4"
       style="display:inline;fill:#ff0000;fill-opacity:1" />
    <circle
       cx="40"
       cy="18"
       id="RATE_PARAM"
       r="4"
       style="fill:#ff0000;fill-opacity:1" />
    <circle
       cx="62"
       cy="18"
       id="MIX_PARAM"
       r="4"
       style="fill:#ff0000;fill-opacity:1" />
    <circle
       cx="84"
       cy="18"
       id="FEEDBACK_PARAM"
       r="4"
       style="fill:#ff0000;fill-opacity:1" />
    <circle
       cx="32"
       cy="100"
       id="FREEZE_PARAM"
       r="4"
       style="fill:#ff0000;fill-opacity:1" />
    <circle
       cx="50.799999"
       cy="100"
       id="REVERSE_PARAM"
       r="4"
       style="fill:#ff0000;fill-opacity:1" />
    <circle
       cx="69"
       cy="100"
       id="SLIP_PARAM"
       r="4"
       style="fill:#ff0000;fill-opacity:1" />
    <circle
       cx="32"
       cy="94.199997"
       id="FREEZE_LIGHT"
       r="1.45"
       style="fill:#ff00ff;fill-opacity:1" />
    <circle
       cx="50.799999"
       cy="94.199997"
       id="REVERSE_LIGHT"
       r="1.45"
       style="fill:#ff00ff;fill-opacity:1" />
    <circle
       cx="69"
       cy="94.199997"
       id="SLIP_LIGHT"
       r="1.45"
       style="fill:#ff00ff;fill-opacity:1" />
    <circle
       cx="12"
       cy="77.524994"
       id="POSITION_CV"
       r="4.1500001"
       style="fill:#00ff00;fill-opacity:1" />
    <circle
       cx="89"
       cy="77.525002"
       id="RATE_CV"
       r="4.1500001"
       style="fill:#00ff00;fill-opacity:1" />
    <circle
       cx="14"
       cy="118"
       id="INPUT_L"
       r="4.1500001"
       style="fill:#00ff00;fill-opacity:1" />
    <circle
       cx="30"
       cy="118"
       id="INPUT_R"
       r="4.1500001"
       style="fill:#00ff00;fill-opacity:1" />
    <circle
       cx="46"
       cy="118"
       id="SCRATCH_GATE"
       r="4.1500001"
       style="fill:#00ff00;fill-opacity:1" />
    <circle
       cx="62"
       cy="118"
       id="FREEZE_GATE"
       r="4.1500001"
       style="fill:#00ff00;fill-opacity:1" />
    <circle
       cx="94.041016"
       cy="103.89682"
       id="OUTPUT_L"
       r="4.1500001"
       style="fill:#0000ff;fill-opacity:1" />
    <circle
       cx="94"
       cy="116.8"
       id="OUTPUT_R"
       r="4.1500001"
       style="fill:#0000ff;fill-opacity:1;stroke:none" />
  </g>
  <g
     id="custom_anchors"
     style="display:inline;fill:#807955;fill-opacity:1;stroke:none;stroke-opacity:1">
    <circle
       cx="50.799999"
       cy="62.200001"
       fill="none"
       id="PLATTER_AREA"
       r="29.5"
       stroke="#ffffff"
       stroke-width="0.2"
       style="fill:#807955;fill-opacity:1;stroke:none;stroke-opacity:1" />
  </g>
  <g
     id="labels"
     style="display:none"
     inkscape:highlight-color="#00cd22">
    <text
       fill="#d8def3"
       font-family="Orbitron, sans-serif"
       font-size="2.2px"
       text-anchor="middle"
       x="18"
       y="28.5"
       id="text1545">BUFFER</text>
    <text
       fill="#d8def3"
       font-family="Orbitron, sans-serif"
       font-size="2.2px"
       text-anchor="middle"
       x="40"
       y="28.5"
       id="text1553">RATE</text>
    <text
       fill="#d8def3"
       font-family="Orbitron, sans-serif"
       font-size="2.2px"
       text-anchor="middle"
       x="62"
       y="28.5"
       id="text1561">MIX</text>
    <text
       fill="#d8def3"
       font-family="Orbitron, sans-serif"
       font-size="2.2px"
       text-anchor="middle"
       x="84"
       y="28.5"
       id="text1569">FEEDBACK</text>
    <text
       fill="#d8def3"
       font-family="Orbitron, sans-serif"
       font-size="2.05px"
       text-anchor="middle"
       x="12"
       y="87.024994"
       id="text1603">POSITION CV</text>
    <text
       fill="#d8def3"
       font-family="Orbitron, sans-serif"
       font-size="2.05px"
       text-anchor="middle"
       x="89"
       y="87.025002"
       id="text1609">RATE CV</text>
    <text
       fill="#d8def3"
       font-family="Orbitron, sans-serif"
       font-size="1.9px"
       text-anchor="middle"
       x="69"
       y="105"
       id="text1629"
       style="display:inline">SLIP</text>
    <text
       fill="#d8def3"
       font-family="Orbitron, sans-serif"
       font-size="1.95px"
       text-anchor="middle"
       x="14"
       y="113.3"
       id="text1639"
       style="display:inline">IN L</text>
    <text
       fill="#d8def3"
       font-family="Orbitron, sans-serif"
       font-size="1.95px"
       text-anchor="middle"
       x="30"
       y="113.3"
       id="text1645"
       style="display:inline">IN R</text>
    <text
       fill="#d8def3"
       font-family="Orbitron, sans-serif"
       font-size="1.95px"
       text-anchor="middle"
       x="46"
       y="113.3"
       id="text1651"
       style="display:inline">SCR</text>
    <text
       fill="#d8def3"
       font-family="Orbitron, sans-serif"
       font-size="1.95px"
       text-anchor="middle"
       x="62"
       y="113.3"
       id="text1657"
       style="display:inline">FRZ</text>
    <text
       fill="#d8def3"
       font-family="Orbitron, sans-serif"
       font-size="1.9px"
       text-anchor="middle"
       x="32"
       y="105"
       id="text1617"
       style="display:inline">FREEZE</text>
    <text
       fill="#d8def3"
       font-family="Orbitron, sans-serif"
       font-size="1.9px"
       text-anchor="middle"
       x="50.799999"
       y="105"
       id="text1623"
       style="display:inline">REVERSE</text>
    <text
       fill="#d8def3"
       font-family="Orbitron, sans-serif"
       font-size="1.95px"
       text-anchor="middle"
       x="94.0625"
       y="110.12107"
       id="text1663"
       style="display:inline">OUT L</text>
    <text
       fill="#d8def3"
       font-family="Orbitron, sans-serif"
       font-size="1.95px"
       text-anchor="middle"
       x="94.076126"
       y="123.21469"
       id="text1669"
       style="display:inline">OUT R</text>
    <text
       xml:space="preserve"
       style="font-style:normal;font-variant:normal;font-weight:normal;font-stretch:normal;font-size:5.29167px;font-family:Rubik;-inkscape-font-specification:'Rubik, @wght=600';font-variant-ligatures:normal;font-variant-caps:normal;font-variant-numeric:normal;font-variant-east-asian:normal;font-variation-settings:'wght' 600;writing-mode:lr-tb;direction:ltr;display:inline;opacity:1;fill:url(#linearGradient4);fill-opacity:1;fill-rule:evenodd;stroke-width:0.370999;stroke-linecap:round;stroke-linejoin:round"
       x="31.746822"
       y="5.9010806"
       id="module_title"><tspan
         sodipodi:role="line"
         id="tspan4"
         style="fill:url(#linearGradient4)"
         x="31.746822"
         y="5.9010806">Temporal Deck</tspan></text>
  </g>
  <g
     id="text_layer_duplicate"
     style="display:inline">
    <path
       d="m 14.256702,26.9292 h 0.4488 q 0.2926,0 0.4444,0.088 0.1518,0.088 0.1518,0.3014 0,0.1386 -0.077,0.231 -0.077,0.0902 -0.2222,0.1166 v 0.011 q 0.099,0.0176 0.1782,0.0594 0.0814,0.0418 0.1276,0.1188 0.0462,0.077 0.0462,0.198 0,0.2134 -0.1474,0.33 -0.1452,0.1166 -0.3982,0.1166 h -0.5522 z m 0.198,0.6688 h 0.2904 q 0.2002,0 0.275,-0.0638 0.077,-0.066 0.077,-0.1936 0,-0.1298 -0.0924,-0.1848 -0.0902,-0.0572 -0.2904,-0.0572 h -0.2596 z m 0,0.165 v 0.5698 h 0.3168 q 0.209,0 0.2904,-0.0814 0.0814,-0.0814 0.0814,-0.2134 0,-0.1232 -0.0858,-0.198 -0.0836,-0.077 -0.3014,-0.077 z m 2.426599,-0.8338 v 1.0164 q 0,0.1628 -0.066,0.2948 -0.066,0.1298 -0.2024,0.2068 -0.1364,0.0748 -0.3432,0.0748 -0.2948,0 -0.4466,-0.1584 -0.1518,-0.1606 -0.1518,-0.4224 v -1.012 h 0.198 v 1.0186 q 0,0.1914 0.1012,0.297 0.1034,0.1056 0.3102,0.1056 0.2134,0 0.308,-0.1122 0.0968,-0.1144 0.0968,-0.2926 V 26.9292 Z M 17.492903,28.5 h -0.198 v -1.5708 h 0.8778 v 0.1738 h -0.6798 v 0.5566 h 0.638 v 0.1738 h -0.638 z m 1.141798,0 h -0.198 v -1.5708 h 0.8778 v 0.1738 h -0.6798 v 0.5566 h 0.638 v 0.1738 h -0.638 z m 1.821598,0 h -0.8778 v -1.5708 h 0.8778 v 0.1738 h -0.6798 v 0.4906 h 0.6402 v 0.1716 h -0.6402 v 0.561 h 0.6798 z m 0.7788,-1.5708 q 0.2926,0 0.4312,0.1122 0.1408,0.11 0.1408,0.3344 0,0.1254 -0.0462,0.209 -0.0462,0.0836 -0.1188,0.1342 -0.0704,0.0506 -0.1496,0.077 l 0.4312,0.704 h -0.231 l -0.3806,-0.649 h -0.3124 V 28.5 h -0.198 v -1.5708 z m -0.011,0.1716 h -0.2244 v 0.583 h 0.2354 q 0.1914,0 0.2794,-0.0748 0.088,-0.077 0.088,-0.2244 0,-0.154 -0.0924,-0.2178 -0.0924,-0.066 -0.286,-0.066 z"
       id="text7"
       style="font-size:2.2px;font-family:Orbitron, sans-serif;text-anchor:middle;fill:#d8def3"
       aria-label="BUFFER" />
    <path
       d="m 38.113501,26.9292 q 0.2926,0 0.4312,0.1122 0.1408,0.11 0.1408,0.3344 0,0.1254 -0.0462,0.209 -0.0462,0.0836 -0.1188,0.1342 -0.0704,0.0506 -0.1496,0.077 l 0.4312,0.704 h -0.231 l -0.3806,-0.649 h -0.3124 V 28.5 h -0.198 v -1.5708 z m -0.011,0.1716 h -0.2244 v 0.583 h 0.2354 q 0.1914,0 0.2794,-0.0748 0.088,-0.077 0.088,-0.2244 0,-0.154 -0.0924,-0.2178 -0.0924,-0.066 -0.286,-0.066 z M 40.0341,28.5 39.8449,28.0138 H 39.2223 L 39.0353,28.5 h -0.2002 l 0.6138,-1.5774 h 0.1782 L 40.2387,28.5 Z m -0.2486,-0.6622 -0.176,-0.4752 q -0.0066,-0.0176 -0.022,-0.0638 -0.0154,-0.0462 -0.0308,-0.0946 -0.0132,-0.0506 -0.022,-0.077 -0.0176,0.0682 -0.0374,0.1342 -0.0176,0.0638 -0.0308,0.1012 l -0.1782,0.4752 z M 40.797501,28.5 h -0.198 v -1.397 h -0.4906 v -0.1738 h 1.177 v 0.1738 h -0.4884 z m 1.603799,0 h -0.8778 v -1.5708 h 0.8778 v 0.1738 h -0.6798 v 0.4906 h 0.6402 v 0.1716 h -0.6402 v 0.561 h 0.6798 z"
       id="text8"
       style="font-size:2.2px;font-family:Orbitron, sans-serif;text-anchor:middle;fill:#d8def3"
       aria-label="RATE" />
    <path
       d="m 60.891199,28.5 -0.517,-1.3772 h -0.0088 q 0.0066,0.0682 0.011,0.1848 0.0044,0.1144 0.0044,0.2398 V 28.5 h -0.1826 v -1.5708 h 0.2926 l 0.484,1.287 h 0.0088 l 0.4928,-1.287 h 0.2904 V 28.5 h -0.1958 v -0.9658 q 0,-0.1144 0.0044,-0.2266 0.0066,-0.1122 0.011,-0.1826 h -0.0088 l -0.5236,1.375 z m 1.744599,0 h -0.5676 v -0.1144 l 0.1848,-0.0418 v -1.2562 l -0.1848,-0.044 v -0.1144 h 0.5676 v 0.1144 l -0.1848,0.044 v 1.2562 l 0.1848,0.0418 z m 1.370602,0 H 63.782 L 63.3662,27.818 62.9438,28.5 h -0.209 l 0.5214,-0.8184 -0.4884,-0.7524 h 0.22 l 0.385,0.616 0.3872,-0.616 h 0.209 l -0.4862,0.748 z"
       id="text9"
       style="font-size:2.2px;font-family:Orbitron, sans-serif;text-anchor:middle;fill:#d8def3"
       aria-label="MIX" />
    <path
       d="m 79.042304,28.5 h -0.198 v -1.5708 h 0.8778 v 0.1738 h -0.6798 v 0.5566 h 0.638 v 0.1738 h -0.638 z m 1.821598,0 h -0.8778 v -1.5708 h 0.8778 v 0.1738 h -0.6798 v 0.4906 h 0.6402 v 0.1716 h -0.6402 v 0.561 h 0.6798 z m 1.223199,0 h -0.8778 v -1.5708 h 0.8778 v 0.1738 h -0.6798 v 0.4906 h 0.6402 v 0.1716 h -0.6402 v 0.561 h 0.6798 z m 1.6038,-0.8008 q 0,0.3982 -0.2178,0.6006 -0.2156,0.2002 -0.6028,0.2002 h -0.4378 v -1.5708 h 0.484 q 0.2354,0 0.4092,0.088 0.176,0.088 0.2706,0.2596 0.0946,0.1716 0.0946,0.4224 z m -0.209,0.0066 q 0,-0.3146 -0.1562,-0.4598 -0.154,-0.1474 -0.4378,-0.1474 h -0.2574 v 1.232 h 0.2134 q 0.638,0 0.638,-0.6248 z m 0.556598,-0.7766 h 0.4488 q 0.2926,0 0.4444,0.088 0.1518,0.088 0.1518,0.3014 0,0.1386 -0.077,0.231 -0.077,0.0902 -0.2222,0.1166 v 0.011 q 0.099,0.0176 0.1782,0.0594 0.0814,0.0418 0.1276,0.1188 0.0462,0.077 0.0462,0.198 0,0.2134 -0.1474,0.33 -0.1452,0.1166 -0.3982,0.1166 h -0.5522 z m 0.198,0.6688 h 0.2904 q 0.2002,0 0.275,-0.0638 0.077,-0.066 0.077,-0.1936 0,-0.1298 -0.0924,-0.1848 -0.0902,-0.0572 -0.2904,-0.0572 h -0.2596 z m 0,0.165 v 0.5698 h 0.3168 q 0.209,0 0.2904,-0.0814 0.0814,-0.0814 0.0814,-0.2134 0,-0.1232 -0.0858,-0.198 -0.0836,-0.077 -0.3014,-0.077 z m 2.2176,0.737 -0.1892,-0.4862 h -0.6226 l -0.187,0.4862 h -0.2002 l 0.6138,-1.5774 h 0.1782 l 0.6116,1.5774 z m -0.2486,-0.6622 -0.176,-0.4752 q -0.0066,-0.0176 -0.022,-0.0638 -0.0154,-0.0462 -0.0308,-0.0946 -0.0132,-0.0506 -0.022,-0.077 -0.0176,0.0682 -0.0374,0.1342 -0.0176,0.0638 -0.0308,0.1012 l -0.1782,0.4752 z m 1.297999,-0.7568 q -0.253,0 -0.3982,0.1694 -0.1452,0.1694 -0.1452,0.4642 0,0.2926 0.1342,0.4642 0.1364,0.1694 0.407,0.1694 0.1012,0 0.1936,-0.0176 0.0924,-0.0176 0.1826,-0.044 v 0.1716 q -0.088,0.033 -0.1826,0.0484 -0.0924,0.0154 -0.2222,0.0154 -0.2398,0 -0.4004,-0.099 -0.1606,-0.099 -0.242,-0.2816 -0.0792,-0.1826 -0.0792,-0.429 0,-0.2376 0.0858,-0.418 0.088,-0.1826 0.2574,-0.2838 0.1694,-0.1034 0.4114,-0.1034 0.2486,0 0.4334,0.0924 l -0.0792,0.1672 q -0.0726,-0.033 -0.1628,-0.0594 -0.088,-0.0264 -0.1936,-0.0264 z m 1.8656,1.419 h -0.2332 l -0.5566,-0.7502 -0.1606,0.1408 V 28.5 h -0.198 v -1.5708 h 0.198 v 0.7744 q 0.066,-0.0748 0.1342,-0.1496 0.0682,-0.0748 0.1364,-0.1496 l 0.4246,-0.4752 h 0.231 l -0.6226,0.6842 z"
       id="text10"
       style="font-size:2.2px;font-family:Orbitron, sans-serif;text-anchor:middle;fill:#d8def3"
       aria-label="FEEDBACK" />
    <path
       d="m 6.2292485,85.561294 q 0.287,0 0.4182,0.11275 0.1312,0.11275 0.1312,0.31775 0,0.12095 -0.05535,0.22755 -0.0533,0.10455 -0.18245,0.17015 -0.1271,0.0656 -0.34645,0.0656 h -0.1681 v 0.5699 h -0.1845 v -1.4637 z m -0.0164,0.15785 h -0.18655 v 0.5781 h 0.1476 q 0.2091,0 0.3116,-0.06765 0.1025,-0.06765 0.1025,-0.2296 0,-0.14145 -0.09225,-0.21115 -0.0902,-0.0697 -0.2829,-0.0697 z m 2.146349,0.57195 q 0,0.22755 -0.0779,0.3977 -0.07585,0.1681 -0.22755,0.2624 -0.1496499,0.0943 -0.3689999,0.0943 -0.22755,0 -0.37925,-0.0943 -0.14965,-0.0943 -0.22345,-0.26445 -0.0738,-0.17015 -0.0738,-0.3977 0,-0.22345 0.0738,-0.39155 0.0738,-0.17015 0.22345,-0.26445 0.1517,-0.0943 0.3813,-0.0943 0.21935,0 0.3689999,0.0943 0.14965,0.09225 0.2255,0.2624 0.0779,0.1681 0.0779,0.39565 z m -1.1561999,0 q 0,0.27675 0.11685,0.43665 0.11685,0.15785 0.3649,0.15785 0.24805,0 0.3628499,-0.15785 0.11685,-0.1599 0.11685,-0.43665 0,-0.27675 -0.1148,-0.43255 -0.1147999,-0.15785 -0.3628499,-0.15785 -0.2501,0 -0.36695,0.15785 -0.11685,0.1558 -0.11685,0.43255 z m 2.3103502,0.34235 q 0,0.19475 -0.14145,0.3034 -0.14145,0.10865 -0.3813,0.10865 -0.123,0 -0.22755,-0.01845 -0.10455,-0.01845 -0.17425,-0.05125 v -0.1763 q 0.0738,0.0328 0.18245,0.05945 0.1107,0.02665 0.22755,0.02665 0.16195,0 0.246,-0.06355 0.08405,-0.06355 0.08405,-0.1722 0,-0.07175 -0.03075,-0.12095 -0.03075,-0.0492 -0.1066,-0.0902 -0.07585,-0.041 -0.20705,-0.0902 -0.1886,-0.06765 -0.2829,-0.16605 -0.0943,-0.0984 -0.0943,-0.26855 0,-0.1148 0.05945,-0.19885 0.05945,-0.08405 0.164,-0.12915 0.10455,-0.0451 0.24395,-0.0451 0.1189,0 0.21935,0.02255 0.10045,0.02255 0.1845,0.05945 l -0.0574,0.15785 q -0.07585,-0.0328 -0.16605,-0.05535 -0.0902,-0.02255 -0.1845,-0.02255 -0.13735,0 -0.20705,0.05945 -0.0697,0.0574 -0.0697,0.15375 0,0.0738 0.03075,0.123 0.03075,0.0492 0.10045,0.0902 0.0697,0.03895 0.1886,0.082 0.12915,0.04715 0.2173,0.1025 0.0902,0.0533 0.1353,0.12915 0.04715,0.07585 0.04715,0.19065 z m 0.7072492,0.39155 H 9.6916972 v -0.1066 l 0.1722,-0.03895 v -1.17055 l -0.1722,-0.041 v -0.1066 h 0.5288998 v 0.1066 l -0.1722,0.041 v 1.17055 l 0.1722,0.03895 z m 0.746202,0 h -0.1845 v -1.30175 h -0.45715 v -0.16195 h 1.09675 v 0.16195 h -0.4551 z m 1.088549,0 h -0.5289 v -0.1066 l 0.1722,-0.03895 v -1.17055 l -0.1722,-0.041 v -0.1066 h 0.5289 v 0.1066 l -0.1722,0.041 v 1.17055 l 0.1722,0.03895 z m 1.560052,-0.7339 q 0,0.22755 -0.0779,0.3977 -0.07585,0.1681 -0.22755,0.2624 -0.14965,0.0943 -0.369,0.0943 -0.22755,0 -0.37925,-0.0943 -0.14965,-0.0943 -0.22345,-0.26445 -0.0738,-0.17015 -0.0738,-0.3977 0,-0.22345 0.0738,-0.39155 0.0738,-0.17015 0.22345,-0.26445 0.1517,-0.0943 0.3813,-0.0943 0.21935,0 0.369,0.0943 0.14965,0.09225 0.2255,0.2624 0.0779,0.1681 0.0779,0.39565 z m -1.1562,0 q 0,0.27675 0.11685,0.43665 0.11685,0.15785 0.3649,0.15785 0.24805,0 0.36285,-0.15785 0.11685,-0.1599 0.11685,-0.43665 0,-0.27675 -0.1148,-0.43255 -0.1148,-0.15785 -0.36285,-0.15785 -0.2501,0 -0.36695,0.15785 -0.11685,0.1558 -0.11685,0.43255 z m 2.6404,0.7339 h -0.21525 l -0.7831,-1.21565 h -0.0082 q 0.0041,0.07175 0.01025,0.17835 0.0061,0.1066 0.0061,0.21935 v 0.81795 H 13.9393 v -1.4637 h 0.2132 l 0.78105,1.21155 h 0.0082 q -0.0021,-0.0328 -0.0061,-0.0984 -0.0021,-0.0656 -0.0062,-0.14145 -0.002,-0.0779 -0.002,-0.14555 v -0.82615 h 0.1722 z m 1.558001,-1.32225 q -0.23575,0 -0.37105,0.15785 -0.1353,0.15785 -0.1353,0.43255 0,0.27265 0.12505,0.43255 0.1271,0.15785 0.37925,0.15785 0.0943,0 0.1804,-0.0164 0.0861,-0.0164 0.17015,-0.041 v 0.1599 q -0.082,0.03075 -0.17015,0.0451 -0.0861,0.01435 -0.20705,0.01435 -0.22345,0 -0.3731,-0.09225 -0.14965,-0.09225 -0.2255,-0.2624 -0.0738,-0.17015 -0.0738,-0.39975 0,-0.2214 0.07995,-0.3895 0.082,-0.17015 0.23985,-0.26445 0.15785,-0.09635 0.38335,-0.09635 0.23165,0 0.40385,0.0861 l -0.0738,0.1558 q -0.06765,-0.03075 -0.1517,-0.05535 -0.082,-0.0246 -0.1804,-0.0246 z m 1.69945,-0.14145 -0.52275,1.4637 h -0.1845 l -0.52275,-1.4637 h 0.1927 l 0.33005,0.9389 q 0.0328,0.0902 0.0533,0.17015 0.02255,0.0779 0.03895,0.14965 0.01435,-0.07175 0.0369,-0.1517 0.02255,-0.07995 0.05535,-0.1722 l 0.328,-0.9348 z"
       id="text11"
       style="font-size:2.05px;font-family:Orbitron, sans-serif;text-anchor:middle;fill:#d8def3"
       aria-label="POSITION CV" />
    <path
       d="m 85.712825,85.561302 q 0.27265,0 0.4018,0.10455 0.1312,0.1025 0.1312,0.3116 0,0.11685 -0.04305,0.19475 -0.04305,0.0779 -0.1107,0.12505 -0.0656,0.04715 -0.1394,0.07175 l 0.4018,0.656 h -0.21525 l -0.35465,-0.60475 h -0.2911 v 0.60475 h -0.1845 v -1.4637 z m -0.01025,0.1599 h -0.2091 v 0.54325 h 0.21935 q 0.17835,0 0.26035,-0.0697 0.082,-0.07175 0.082,-0.2091 0,-0.1435 -0.0861,-0.20295 -0.0861,-0.0615 -0.2665,-0.0615 z m 1.799899,1.3038 -0.1763,-0.45305 h -0.58015 l -0.17425,0.45305 h -0.18655 l 0.57195,-1.46985 h 0.16605 l 0.5699,1.46985 z m -0.23165,-0.61705 -0.164,-0.4428 q -0.0062,-0.0164 -0.0205,-0.05945 -0.01435,-0.04305 -0.0287,-0.08815 -0.0123,-0.04715 -0.0205,-0.07175 -0.0164,0.06355 -0.03485,0.12505 -0.0164,0.05945 -0.0287,0.0943 l -0.16605,0.4428 z m 0.943001,0.61705 h -0.1845 v -1.30175 h -0.45715 v -0.16195 h 1.09675 v 0.16195 h -0.4551 z m 1.494449,0 h -0.81795 v -1.4637 h 0.81795 v 0.16195 h -0.63345 v 0.45715 h 0.59655 v 0.1599 h -0.59655 v 0.52275 h 0.63345 z m 1.48215,-1.32225 q -0.23575,0 -0.37105,0.15785 -0.1353,0.15785 -0.1353,0.43255 0,0.27265 0.12505,0.43255 0.1271,0.15785 0.37925,0.15785 0.0943,0 0.1804,-0.0164 0.0861,-0.0164 0.17015,-0.041 v 0.1599 q -0.082,0.03075 -0.17015,0.0451 -0.0861,0.01435 -0.20705,0.01435 -0.22345,0 -0.3731,-0.09225 -0.14965,-0.09225 -0.2255,-0.2624 -0.0738,-0.17015 -0.0738,-0.39975 0,-0.2214 0.07995,-0.3895 0.082,-0.17015 0.23985,-0.26445 0.15785,-0.09635 0.38335,-0.09635 0.23165,0 0.40385,0.0861 l -0.0738,0.1558 q -0.06765,-0.03075 -0.1517,-0.05535 -0.082,-0.0246 -0.1804,-0.0246 z m 1.69945,-0.14145 -0.52275,1.4637 h -0.1845 l -0.52275,-1.4637 h 0.1927 l 0.33005,0.9389 q 0.0328,0.0902 0.0533,0.17015 0.02255,0.0779 0.03895,0.14965 0.01435,-0.07175 0.0369,-0.1517 0.02255,-0.07995 0.05535,-0.1722 l 0.328,-0.9348 z"
       id="text12"
       style="font-size:2.05px;font-family:Orbitron, sans-serif;text-anchor:middle;fill:#d8def3"
       aria-label="RATE CV" />
    <path
       d="m 68.03765,104.6371 q 0,0.1805 -0.1311,0.2812 -0.1311,0.1007 -0.3534,0.1007 -0.114,0 -0.2109,-0.0171 -0.0969,-0.0171 -0.1615,-0.0475 v -0.1634 q 0.0684,0.0304 0.1691,0.0551 0.1026,0.0247 0.2109,0.0247 0.1501,0 0.228,-0.0589 0.0779,-0.0589 0.0779,-0.1596 0,-0.0665 -0.0285,-0.1121 -0.0285,-0.0456 -0.0988,-0.0836 -0.0703,-0.038 -0.1919,-0.0836 -0.1748,-0.0627 -0.2622,-0.1539 -0.0874,-0.0912 -0.0874,-0.2489 0,-0.1064 0.0551,-0.1843 0.0551,-0.0779 0.152,-0.1197 0.0969,-0.0418 0.2261,-0.0418 0.1102,0 0.2033,0.0209 0.0931,0.0209 0.171,0.0551 l -0.0532,0.1463 q -0.0703,-0.0304 -0.1539,-0.0513 -0.0836,-0.0209 -0.171,-0.0209 -0.1273,0 -0.1919,0.0551 -0.0646,0.0532 -0.0646,0.1425 0,0.0684 0.0285,0.114 0.0285,0.0456 0.0931,0.0836 0.0646,0.0361 0.1748,0.076 0.1197,0.0437 0.2014,0.095 0.0836,0.0494 0.1254,0.1197 0.0437,0.0703 0.0437,0.1767 z M 68.311249,105 v -1.3566 h 0.171 v 1.2046 h 0.5928 V 105 Z m 1.377501,0 h -0.4902 v -0.0988 l 0.1596,-0.0361 v -1.0849 l -0.1596,-0.038 v -0.0988 h 0.4902 v 0.0988 l -0.1596,0.038 v 1.0849 l 0.1596,0.0361 z m 0.621301,-1.3566 q 0.266,0 0.3876,0.1045 0.1216,0.1045 0.1216,0.2945 0,0.1121 -0.0513,0.2109 -0.0494,0.0969 -0.1691,0.1577 -0.1178,0.0608 -0.3211,0.0608 h -0.1558 V 105 h -0.171 v -1.3566 z m -0.0152,0.1463 h -0.1729 v 0.5358 h 0.1368 q 0.1938,0 0.2888,-0.0627 0.095,-0.0627 0.095,-0.2128 0,-0.1311 -0.0855,-0.1957 -0.0836,-0.0646 -0.2622,-0.0646 z"
       id="text13"
       style="font-size:1.9px;font-family:Orbitron, sans-serif;text-anchor:middle;fill:#d8def3"
       aria-label="SLIP" />
    <path
       d="m 12.745174,113.3 h -0.5031 v -0.1014 l 0.1638,-0.037 v -1.11345 l -0.1638,-0.039 v -0.1014 h 0.5031 v 0.1014 l -0.1638,0.039 v 1.11345 l 0.1638,0.037 z m 1.372801,0 h -0.20475 l -0.7449,-1.15635 h -0.0078 q 0.0039,0.0683 0.0098,0.16965 0.0059,0.1014 0.0059,0.20865 V 113.3 h -0.16185 v -1.3923 h 0.2028 l 0.74295,1.15245 h 0.0078 q -0.0019,-0.0312 -0.0058,-0.0936 -0.002,-0.0624 -0.0059,-0.13455 -0.002,-0.0741 -0.002,-0.13845 v -0.78585 h 0.1638 z m 0.885301,0 v -1.3923 h 0.1755 v 1.2363 h 0.6084 v 0.156 z"
       id="text14"
       style="font-size:1.95px;font-family:Orbitron, sans-serif;text-anchor:middle;fill:#d8def3"
       aria-label="IN L" />
    <path
       d="m 28.649624,113.3 h -0.5031 v -0.1014 l 0.1638,-0.037 v -1.11345 l -0.1638,-0.039 v -0.1014 h 0.5031 v 0.1014 l -0.1638,0.039 v 1.11345 l 0.1638,0.037 z m 1.372801,0 h -0.20475 l -0.7449,-1.15635 h -0.0078 q 0.0039,0.0683 0.0098,0.16965 0.0058,0.1014 0.0058,0.20865 V 113.3 h -0.16185 v -1.3923 h 0.2028 l 0.74295,1.15245 h 0.0078 q -0.0019,-0.0312 -0.0058,-0.0936 -0.002,-0.0624 -0.0058,-0.13455 -0.002,-0.0741 -0.002,-0.13845 v -0.78585 h 0.1638 z m 1.269451,-1.3923 q 0.25935,0 0.3822,0.0994 0.1248,0.0975 0.1248,0.2964 0,0.11115 -0.04095,0.18525 -0.04095,0.0741 -0.1053,0.11895 -0.0624,0.0449 -0.1326,0.0683 l 0.3822,0.624 h -0.20475 l -0.33735,-0.57525 h -0.2769 V 113.3 h -0.1755 v -1.3923 z m -0.0097,0.1521 h -0.1989 v 0.51675 h 0.20865 q 0.16965,0 0.24765,-0.0663 0.078,-0.0683 0.078,-0.1989 0,-0.1365 -0.0819,-0.19305 -0.0819,-0.0585 -0.2535,-0.0585 z"
       id="text15"
       style="font-size:1.95px;font-family:Orbitron, sans-serif;text-anchor:middle;fill:#d8def3"
       aria-label="IN R" />
    <path
       d="m 45.220975,112.92755 q 0,0.18525 -0.13455,0.2886 -0.13455,0.10335 -0.3627,0.10335 -0.117,0 -0.21645,-0.0175 -0.09945,-0.0175 -0.16575,-0.0487 v -0.1677 q 0.0702,0.0312 0.17355,0.0566 0.1053,0.0254 0.21645,0.0254 0.15405,0 0.234,-0.0605 0.07995,-0.0605 0.07995,-0.1638 0,-0.0683 -0.02925,-0.11505 -0.02925,-0.0468 -0.1014,-0.0858 -0.07215,-0.039 -0.19695,-0.0858 -0.1794,-0.0643 -0.2691,-0.15795 -0.0897,-0.0936 -0.0897,-0.25545 0,-0.1092 0.05655,-0.18915 0.05655,-0.0799 0.156,-0.12285 0.09945,-0.0429 0.23205,-0.0429 0.1131,0 0.20865,0.0215 0.09555,0.0215 0.1755,0.0566 l -0.0546,0.15015 q -0.07215,-0.0312 -0.15795,-0.0526 -0.0858,-0.0215 -0.1755,-0.0215 -0.13065,0 -0.19695,0.0566 -0.0663,0.0546 -0.0663,0.14625 0,0.0702 0.02925,0.117 0.02925,0.0468 0.09555,0.0858 0.0663,0.037 0.1794,0.078 0.12285,0.0448 0.2067,0.0975 0.0858,0.0507 0.1287,0.12285 0.04485,0.0721 0.04485,0.18135 z m 0.8775,-0.8853 q -0.22425,0 -0.35295,0.15015 -0.1287,0.15015 -0.1287,0.41145 0,0.25935 0.11895,0.41145 0.1209,0.15015 0.36075,0.15015 0.0897,0 0.1716,-0.0156 0.0819,-0.0156 0.16185,-0.039 v 0.1521 q -0.078,0.0292 -0.16185,0.0429 -0.0819,0.0136 -0.19695,0.0136 -0.21255,0 -0.3549,-0.0877 -0.14235,-0.0877 -0.2145,-0.2496 -0.0702,-0.16185 -0.0702,-0.38025 0,-0.2106 0.07605,-0.3705 0.078,-0.16185 0.22815,-0.25155 0.15015,-0.0917 0.36465,-0.0917 0.22035,0 0.38415,0.0819 l -0.0702,0.1482 q -0.06435,-0.0293 -0.1443,-0.0526 -0.078,-0.0234 -0.1716,-0.0234 z m 1.01985,-0.13455 q 0.25935,0 0.3822,0.0994 0.1248,0.0975 0.1248,0.2964 0,0.11115 -0.04095,0.18525 -0.04095,0.0741 -0.1053,0.11895 -0.0624,0.0449 -0.1326,0.0683 l 0.3822,0.624 h -0.20475 l -0.33735,-0.57525 h -0.2769 V 113.3 h -0.1755 v -1.3923 z m -0.0097,0.1521 h -0.1989 v 0.51675 h 0.20865 q 0.16965,0 0.24765,-0.0663 0.078,-0.0683 0.078,-0.1989 0,-0.1365 -0.0819,-0.19305 -0.0819,-0.0585 -0.2535,-0.0585 z"
       id="text16"
       style="font-size:1.95px;font-family:Orbitron, sans-serif;text-anchor:middle;fill:#d8def3"
       aria-label="SCR" />
    <path
       d="m 60.694476,113.3 h -0.1755 v -1.3923 h 0.77805 v 0.15405 h -0.60255 v 0.49335 h 0.5655 v 0.15405 h -0.5655 z m 1.220698,-1.3923 q 0.25935,0 0.3822,0.0994 0.1248,0.0975 0.1248,0.2964 0,0.11115 -0.04095,0.18525 -0.04095,0.0741 -0.1053,0.11895 -0.0624,0.0449 -0.1326,0.0683 l 0.3822,0.624 h -0.20475 l -0.33735,-0.57525 h -0.2769 V 113.3 h -0.1755 v -1.3923 z m -0.0098,0.1521 h -0.1989 v 0.51675 h 0.20865 q 0.16965,0 0.24765,-0.0663 0.078,-0.0683 0.078,-0.1989 0,-0.1365 -0.0819,-0.19305 -0.0819,-0.0585 -0.2535,-0.0585 z m 1.6887,1.2402 h -0.96525 v -0.1326 l 0.7332,-1.1037 h -0.7098 v -0.156 h 0.92235 v 0.1326 l -0.7332,1.1037 h 0.7527 z"
       id="text17"
       style="font-size:1.95px;font-family:Orbitron, sans-serif;text-anchor:middle;fill:#d8def3"
       aria-label="FRZ" />
    <path
       d="m 29.143351,105 h -0.171 v -1.3566 h 0.7581 v 0.1501 h -0.5871 v 0.4807 h 0.551 v 0.1501 h -0.551 z m 1.189399,-1.3566 q 0.2527,0 0.3724,0.0969 0.1216,0.095 0.1216,0.2888 0,0.1083 -0.0399,0.1805 -0.0399,0.0722 -0.1026,0.1159 -0.0608,0.0437 -0.1292,0.0665 l 0.3724,0.608 h -0.1995 l -0.3287,-0.5605 h -0.2698 V 105 h -0.171 v -1.3566 z m -0.0095,0.1482 h -0.1938 v 0.5035 h 0.2033 q 0.1653,0 0.2413,-0.0646 0.076,-0.0665 0.076,-0.1938 0,-0.133 -0.0798,-0.1881 -0.0798,-0.057 -0.247,-0.057 z M 31.898349,105 h -0.7581 v -1.3566 h 0.7581 v 0.1501 h -0.5871 v 0.4237 h 0.5529 v 0.1482 h -0.5529 v 0.4845 h 0.5871 z m 1.0564,0 h -0.7581 v -1.3566 h 0.7581 v 0.1501 h -0.5871 v 0.4237 h 0.5529 v 0.1482 h -0.5529 v 0.4845 h 0.5871 z m 1.126699,0 h -0.9405 v -0.1292 l 0.7144,-1.0754 h -0.6916 v -0.152 h 0.8987 v 0.1292 l -0.7144,1.0754 h 0.7334 z m 1.016501,0 h -0.7581 v -1.3566 h 0.7581 v 0.1501 h -0.5871 v 0.4237 h 0.5529 v 0.1482 h -0.5529 v 0.4845 h 0.5871 z"
       id="text18"
       style="font-size:1.9px;font-family:Orbitron, sans-serif;text-anchor:middle;fill:#d8def3"
       aria-label="FREEZE" />
    <path
       d="m 47.50065,103.6434 q 0.2527,0 0.3724,0.0969 0.1216,0.095 0.1216,0.2888 0,0.1083 -0.0399,0.1805 -0.0399,0.0722 -0.1026,0.1159 -0.0608,0.0437 -0.1292,0.0665 l 0.3724,0.608 h -0.1995 l -0.3287,-0.5605 h -0.2698 V 105 h -0.171 v -1.3566 z m -0.0095,0.1482 h -0.1938 v 0.5035 h 0.2033 q 0.1653,0 0.2413,-0.0646 0.076,-0.0665 0.076,-0.1938 0,-0.133 -0.0798,-0.1881 -0.0798,-0.057 -0.247,-0.057 z M 49.06625,105 h -0.7581 v -1.3566 h 0.7581 v 0.1501 h -0.5871 v 0.4237 h 0.5529 v 0.1482 h -0.5529 v 0.4845 h 0.5871 z m 1.253999,-1.3566 -0.4845,1.3566 h -0.171 l -0.4845,-1.3566 h 0.1786 l 0.3059,0.8702 q 0.0304,0.0836 0.0494,0.1577 0.0209,0.0722 0.0361,0.1387 0.0133,-0.0665 0.0342,-0.1406 0.0209,-0.0741 0.0513,-0.1596 l 0.304,-0.8664 z M 51.26265,105 h -0.7581 v -1.3566 h 0.7581 v 0.1501 h -0.5871 v 0.4237 h 0.5529 v 0.1482 h -0.5529 v 0.4845 h 0.5871 z m 0.672599,-1.3566 q 0.2527,0 0.3724,0.0969 0.1216,0.095 0.1216,0.2888 0,0.1083 -0.0399,0.1805 -0.0399,0.0722 -0.1026,0.1159 -0.0608,0.0437 -0.1292,0.0665 l 0.3724,0.608 h -0.1995 l -0.3287,-0.5605 h -0.2698 V 105 h -0.171 v -1.3566 z m -0.0095,0.1482 h -0.1938 v 0.5035 h 0.2033 q 0.1653,0 0.2413,-0.0646 0.076,-0.0665 0.076,-0.1938 0,-0.133 -0.0798,-0.1881 -0.0798,-0.057 -0.247,-0.057 z m 1.5865,0.8455 q 0,0.1805 -0.1311,0.2812 -0.1311,0.1007 -0.3534,0.1007 -0.114,0 -0.2109,-0.0171 -0.0969,-0.0171 -0.1615,-0.0475 v -0.1634 q 0.0684,0.0304 0.1691,0.0551 0.1026,0.0247 0.2109,0.0247 0.1501,0 0.228,-0.0589 0.0779,-0.0589 0.0779,-0.1596 0,-0.0665 -0.0285,-0.1121 -0.0285,-0.0456 -0.0988,-0.0836 -0.0703,-0.038 -0.1919,-0.0836 -0.1748,-0.0627 -0.2622,-0.1539 -0.0874,-0.0912 -0.0874,-0.2489 0,-0.1064 0.0551,-0.1843 0.0551,-0.0779 0.152,-0.1197 0.0969,-0.0418 0.2261,-0.0418 0.1102,0 0.2033,0.0209 0.0931,0.0209 0.171,0.0551 l -0.0532,0.1463 q -0.0703,-0.0304 -0.1539,-0.0513 -0.0836,-0.0209 -0.171,-0.0209 -0.1273,0 -0.1919,0.0551 -0.0646,0.0532 -0.0646,0.1425 0,0.0684 0.0285,0.114 0.0285,0.0456 0.0931,0.0836 0.0646,0.0361 0.1748,0.076 0.1197,0.0437 0.2014,0.095 0.0836,0.0494 0.1254,0.1197 0.0437,0.0703 0.0437,0.1767 z m 1.0317,0.3629 h -0.7581 v -1.3566 h 0.7581 v 0.1501 h -0.5871 v 0.4237 h 0.5529 v 0.1482 h -0.5529 v 0.4845 h 0.5871 z"
       id="text19"
       style="font-size:1.9px;font-family:Orbitron, sans-serif;text-anchor:middle;fill:#d8def3"
       aria-label="REVERSE" />
    <path
       d="m 92.685799,109.42297 q 0,0.21645 -0.0741,0.3783 -0.07215,0.1599 -0.21645,0.2496 -0.14235,0.0897 -0.351,0.0897 -0.21645,0 -0.36075,-0.0897 -0.14235,-0.0897 -0.21255,-0.25155 -0.0702,-0.16185 -0.0702,-0.3783 0,-0.21255 0.0702,-0.37245 0.0702,-0.16185 0.21255,-0.25155 0.1443,-0.0897 0.3627,-0.0897 0.20865,0 0.351,0.0897 0.14235,0.0877 0.2145,0.2496 0.0741,0.1599 0.0741,0.37635 z m -1.0998,0 q 0,0.26325 0.11115,0.41535 0.11115,0.15015 0.3471,0.15015 0.23595,0 0.34515,-0.15015 0.11115,-0.1521 0.11115,-0.41535 0,-0.26325 -0.1092,-0.41145 -0.1092,-0.15015 -0.34515,-0.15015 -0.2379,0 -0.34905,0.15015 -0.11115,0.1482 -0.11115,0.41145 z m 2.46675,-0.6942 v 0.9009 q 0,0.1443 -0.0585,0.2613 -0.0585,0.11505 -0.1794,0.1833 -0.1209,0.0663 -0.3042,0.0663 -0.2613,0 -0.39585,-0.1404 -0.13455,-0.14235 -0.13455,-0.3744 v -0.897 h 0.1755 v 0.90285 q 0,0.16965 0.0897,0.26325 0.09165,0.0936 0.27495,0.0936 0.18915,0 0.273,-0.0995 0.0858,-0.1014 0.0858,-0.25935 v -0.9009 z m 0.807302,1.3923 h -0.1755 v -1.23825 h -0.43485 v -0.15405 h 1.04325 v 0.15405 h -0.4329 z m 1.1505,0 v -1.3923 h 0.1755 v 1.2363 h 0.6084 v 0.156 z"
       id="text20"
       style="font-size:1.95px;font-family:Orbitron, sans-serif;text-anchor:middle;fill:#d8def3"
       aria-label="OUT L" />
    <path
       d="m 92.603875,122.51659 q 0,0.21645 -0.0741,0.3783 -0.07215,0.1599 -0.21645,0.2496 -0.14235,0.0897 -0.351,0.0897 -0.21645,0 -0.36075,-0.0897 -0.14235,-0.0897 -0.21255,-0.25155 -0.0702,-0.16185 -0.0702,-0.3783 0,-0.21255 0.0702,-0.37245 0.0702,-0.16185 0.21255,-0.25155 0.1443,-0.0897 0.3627,-0.0897 0.20865,0 0.351,0.0897 0.14235,0.0877 0.2145,0.2496 0.0741,0.1599 0.0741,0.37635 z m -1.0998,0 q 0,0.26325 0.11115,0.41535 0.11115,0.15015 0.3471,0.15015 0.23595,0 0.34515,-0.15015 0.11115,-0.1521 0.11115,-0.41535 0,-0.26325 -0.1092,-0.41145 -0.1092,-0.15015 -0.34515,-0.15015 -0.2379,0 -0.34905,0.15015 -0.11115,0.1482 -0.11115,0.41145 z m 2.466751,-0.6942 v 0.9009 q 0,0.1443 -0.0585,0.2613 -0.0585,0.11505 -0.1794,0.1833 -0.1209,0.0663 -0.3042,0.0663 -0.2613,0 -0.39585,-0.1404 -0.13455,-0.14235 -0.13455,-0.3744 v -0.897 h 0.1755 v 0.90285 q 0,0.16965 0.0897,0.26325 0.09165,0.0936 0.27495,0.0936 0.18915,0 0.273,-0.0994 0.0858,-0.1014 0.0858,-0.25935 v -0.9009 z m 0.807301,1.3923 h -0.1755 v -1.23825 h -0.43485 v -0.15405 h 1.04325 v 0.15405 h -0.4329 z m 1.534651,-1.3923 q 0.25935,0 0.3822,0.0995 0.1248,0.0975 0.1248,0.2964 0,0.11115 -0.04095,0.18525 -0.04095,0.0741 -0.1053,0.11895 -0.0624,0.0448 -0.1326,0.0682 l 0.3822,0.624 h -0.20475 l -0.33735,-0.57525 h -0.2769 v 0.57525 h -0.1755 v -1.3923 z m -0.0097,0.1521 h -0.1989 v 0.51675 h 0.20865 q 0.16965,0 0.24765,-0.0663 0.078,-0.0683 0.078,-0.1989 0,-0.1365 -0.0819,-0.19305 -0.0819,-0.0585 -0.2535,-0.0585 z"
       id="text21"
       style="font-size:1.95px;font-family:Orbitron, sans-serif;text-anchor:middle;fill:#d8def3"
       aria-label="OUT R" />
    <path
       d="m 33.085615,5.9010806 q -0.05821,0 -0.09525,-0.037042 -0.03704,-0.037042 -0.03704,-0.09525 V 2.9324538 h -0.963084 q -0.05292,0 -0.08996,-0.037042 -0.03704,-0.037042 -0.03704,-0.089958 V 2.3292035 q 0,-0.058208 0.03704,-0.09525 0.03704,-0.037042 0.08996,-0.037042 h 2.772835 q 0.05821,0 0.09525,0.037042 0.03704,0.037042 0.03704,0.09525 v 0.4762502 q 0,0.052917 -0.03704,0.089958 -0.03704,0.037042 -0.09525,0.037042 h -0.957792 v 2.8363351 q 0,0.058208 -0.03704,0.09525 -0.03704,0.037042 -0.09525,0.037042 z m 3.009438,0.052917 q -0.608542,0 -0.968375,-0.3386669 -0.354542,-0.3386668 -0.375709,-0.9842506 0,-0.042333 0,-0.111125 0,-0.074083 0,-0.1164168 0.02117,-0.4074585 0.185209,-0.6985004 0.164041,-0.2963335 0.460375,-0.4497919 0.296333,-0.1587501 0.693209,-0.1587501 0.4445,0 0.740833,0.1852084 0.301626,0.1799168 0.449792,0.497417 0.153459,0.3122085 0.153459,0.7196671 v 0.1217084 q 0,0.052917 -0.04233,0.089958 -0.03704,0.037042 -0.08996,0.037042 h -1.730376 q 0,0.00529 0,0.021167 0,0.010583 0,0.021167 0.0053,0.1693335 0.0635,0.3122086 0.0635,0.1375834 0.174625,0.2222501 0.116417,0.084667 0.275167,0.084667 0.132292,0 0.216958,-0.037042 0.08467,-0.037042 0.137584,-0.089958 0.05821,-0.052917 0.08467,-0.089958 0.04762,-0.052917 0.07408,-0.0635 0.03175,-0.015875 0.09525,-0.015875 h 0.550334 q 0.05292,0 0.08467,0.03175 0.03704,0.026458 0.03175,0.079375 -0.0053,0.084667 -0.08996,0.2116668 -0.07937,0.1217084 -0.238125,0.2434168 -0.15875,0.1164167 -0.396875,0.1957918 -0.232834,0.079375 -0.539751,0.079375 z M 35.571178,4.2659546 h 1.037167 v -0.010583 q 0,-0.1905001 -0.0635,-0.3280835 -0.05821,-0.1428751 -0.174625,-0.2222502 -0.116417,-0.079375 -0.280458,-0.079375 -0.164042,0 -0.280459,0.079375 -0.116417,0.079375 -0.179917,0.2222502 -0.05821,0.1375834 -0.05821,0.3280835 z m 2.51883,1.635126 q -0.05292,0 -0.08996,-0.037042 -0.03704,-0.037042 -0.03704,-0.09525 V 3.281704 q 0,-0.058208 0.03704,-0.09525 0.03704,-0.037042 0.08996,-0.037042 h 0.492126 q 0.05292,0 0.08996,0.037042 0.04233,0.037042 0.04233,0.09525 v 0.1799168 q 0.105834,-0.1481667 0.291042,-0.2540001 0.1905,-0.1058334 0.449792,-0.1111251 0.613834,-0.010583 0.841376,0.4656669 0.121708,-0.2063751 0.34925,-0.3333752 0.232833,-0.1322917 0.508,-0.1322917 0.275167,0 0.497417,0.1270001 0.22225,0.1217084 0.34925,0.3810002 0.132292,0.2540001 0.132292,0.6561671 v 1.5081259 q 0,0.058208 -0.03704,0.09525 -0.03704,0.037042 -0.08996,0.037042 h -0.523875 q -0.05292,0 -0.08996,-0.037042 -0.03704,-0.037042 -0.03704,-0.09525 V 4.3029963 q 0,-0.2169584 -0.0635,-0.3386669 -0.0635,-0.127 -0.169333,-0.1799167 -0.100542,-0.052917 -0.227542,-0.052917 -0.111125,0 -0.216958,0.052917 -0.100542,0.052917 -0.169334,0.1799167 -0.0635,0.1217085 -0.0635,0.3386669 v 1.4657926 q 0,0.058208 -0.03704,0.09525 -0.03704,0.037042 -0.09525,0.037042 h -0.518584 q -0.05821,0 -0.09525,-0.037042 -0.03704,-0.037042 -0.03704,-0.09525 V 4.3029963 q 0,-0.2169584 -0.0635,-0.3386669 -0.0635,-0.127 -0.169333,-0.1799167 -0.100542,-0.052917 -0.22225,-0.052917 -0.111126,0 -0.216959,0.058208 -0.105833,0.052917 -0.174625,0.1746251 -0.0635,0.1217085 -0.0635,0.3333752 v 1.4710843 q 0,0.058208 -0.03704,0.09525 -0.03704,0.037042 -0.08996,0.037042 z m 4.815422,1.0054173 q -0.05821,0 -0.09525,-0.037042 -0.03704,-0.037042 -0.03704,-0.09525 V 3.281704 q 0,-0.058208 0.03704,-0.09525 0.03704,-0.037042 0.09525,-0.037042 h 0.502709 q 0.05821,0 0.09525,0.037042 0.03704,0.037042 0.03704,0.09525 v 0.2010835 q 0.127,-0.1693334 0.328084,-0.2751668 0.201083,-0.1111251 0.502709,-0.1111251 0.275166,0 0.47625,0.089958 0.206375,0.084667 0.343958,0.2487085 0.142875,0.1587501 0.216959,0.3862919 0.07938,0.2275418 0.08996,0.5132919 0.0053,0.1005418 0.0053,0.1905001 0,0.089958 -0.0053,0.1957918 -0.0053,0.2698752 -0.08467,0.497417 -0.07408,0.2275418 -0.216959,0.3915836 -0.142875,0.1640417 -0.34925,0.2540001 -0.201084,0.089958 -0.47625,0.089958 -0.269876,0 -0.470959,-0.09525 -0.195792,-0.1005417 -0.322792,-0.2698751 v 1.185334 q 0,0.058208 -0.03704,0.09525 -0.03704,0.037042 -0.08996,0.037042 z m 1.227667,-1.587501 q 0.201084,0 0.317501,-0.084667 0.116416,-0.089958 0.164041,-0.2328335 0.05292,-0.1428751 0.0635,-0.3122085 0.01058,-0.1640418 0,-0.3280835 -0.01058,-0.1693335 -0.0635,-0.3122085 -0.04762,-0.1428751 -0.164041,-0.2275418 -0.116417,-0.089958 -0.317501,-0.089958 -0.195791,0 -0.3175,0.089958 -0.121708,0.089958 -0.174625,0.2275418 -0.05292,0.1375834 -0.0635,0.2963335 -0.0053,0.09525 -0.0053,0.1957918 0,0.1005417 0.0053,0.2010834 0.0053,0.1481668 0.0635,0.2804585 0.0635,0.1270001 0.179917,0.2116668 0.121708,0.084667 0.312208,0.084667 z m 3.190876,0.6350004 q -0.439209,0 -0.735542,-0.1428751 -0.296334,-0.1481667 -0.455084,-0.4180419 -0.153458,-0.2698752 -0.169333,-0.6297087 -0.0053,-0.1058334 -0.0053,-0.2381252 0,-0.1375834 0.0053,-0.2381251 0.01588,-0.3651252 0.179916,-0.6297087 0.164042,-0.2698752 0.460376,-0.4127503 0.296333,-0.1481667 0.719667,-0.1481667 0.418042,0 0.714375,0.1481667 0.296334,0.1428751 0.460376,0.4127503 0.164041,0.2645835 0.179916,0.6297087 0.01058,0.1005417 0.01058,0.2381251 0,0.1322918 -0.01058,0.2381252 -0.01588,0.3598335 -0.174625,0.6297087 -0.153458,0.2698752 -0.449792,0.4180419 -0.296333,0.1428751 -0.73025,0.1428751 z m 0,-0.5820837 q 0.259292,0 0.391583,-0.1587501 0.132292,-0.1640417 0.142875,-0.4762503 0.0053,-0.079375 0.0053,-0.2116668 0,-0.1322917 -0.0053,-0.2116667 -0.01058,-0.3069169 -0.142875,-0.4709587 -0.132291,-0.1640417 -0.391583,-0.1640417 -0.259292,0 -0.396875,0.1640417 -0.132292,0.1640418 -0.142876,0.4709587 -0.0053,0.079375 -0.0053,0.2116667 0,0.1322918 0.0053,0.2116668 0.01058,0.3122086 0.142876,0.4762503 0.137583,0.1587501 0.396875,0.1587501 z m 2.047875,0.529167 q -0.05292,0 -0.08996,-0.037042 -0.03704,-0.037042 -0.03704,-0.09525 V 3.281704 q 0,-0.052917 0.03704,-0.089958 0.03704,-0.042333 0.08996,-0.042333 h 0.518583 q 0.05292,0 0.08996,0.042333 0.04233,0.037042 0.04233,0.089958 v 0.2116668 q 0.132292,-0.1640417 0.322792,-0.2540001 0.195792,-0.089958 0.449792,-0.089958 h 0.227542 q 0.05292,0 0.08996,0.037042 0.03704,0.037042 0.03704,0.09525 v 0.4550836 q 0,0.058208 -0.03704,0.09525 -0.03704,0.037042 -0.08996,0.037042 h -0.465667 q -0.232834,0 -0.365126,0.1322917 -0.132291,0.1270001 -0.132291,0.3651253 v 1.4022925 q 0,0.058208 -0.03704,0.09525 -0.03704,0.037042 -0.09525,0.037042 z m 2.939453,0.052917 q -0.280458,0 -0.502708,-0.1058334 -0.22225,-0.1111251 -0.354542,-0.2963335 -0.132292,-0.1852084 -0.132292,-0.4127502 0,-0.3757086 0.301625,-0.5926671 0.306917,-0.2169584 0.804334,-0.2963335 l 0.693209,-0.1005417 v -0.09525 q 0,-0.2063751 -0.09525,-0.3175002 -0.09525,-0.111125 -0.333375,-0.111125 -0.174626,0 -0.280459,0.068792 -0.105833,0.068792 -0.164042,0.1799168 -0.04233,0.068792 -0.121708,0.068792 h -0.502709 q -0.05821,0 -0.08996,-0.03175 -0.03175,-0.037042 -0.02646,-0.084667 0,-0.089958 0.06879,-0.2116668 0.06879,-0.1217084 0.211667,-0.2381251 0.142875,-0.1217084 0.365125,-0.2010835 0.22225,-0.079375 0.545042,-0.079375 0.333375,0 0.571501,0.079375 0.238125,0.079375 0.381,0.2222502 0.142875,0.1428751 0.211667,0.3333752 0.06879,0.1852084 0.06879,0.4021669 v 1.635126 q 0,0.058208 -0.03704,0.09525 -0.03704,0.037042 -0.09525,0.037042 h -0.518584 q -0.05292,0 -0.08996,-0.037042 -0.03704,-0.037042 -0.03704,-0.09525 V 5.5729971 q -0.06879,0.1005417 -0.185209,0.1905001 -0.116416,0.084667 -0.280458,0.1375834 -0.15875,0.052917 -0.375709,0.052917 z m 0.211667,-0.5503337 q 0.174625,0 0.312209,-0.074083 0.137583,-0.074083 0.216958,-0.2275418 0.07937,-0.1534585 0.07937,-0.3862919 v -0.089958 l -0.492125,0.079375 q -0.28575,0.047625 -0.418042,0.1428751 -0.132292,0.09525 -0.132292,0.2328335 0,0.1005417 0.05821,0.1746251 0.0635,0.074083 0.164041,0.1111251 0.100542,0.037042 0.211667,0.037042 z m 2.180168,0.497417 q -0.05821,0 -0.09525,-0.037042 -0.03704,-0.037042 -0.03704,-0.09525 V 2.2762868 q 0,-0.058208 0.03704,-0.09525 0.03704,-0.037042 0.09525,-0.037042 h 0.529167 q 0.05292,0 0.08996,0.037042 0.03704,0.037042 0.03704,0.09525 v 3.4925021 q 0,0.058208 -0.03704,0.09525 -0.03704,0.037042 -0.08996,0.037042 z m 2.682878,0 q -0.05821,0 -0.09525,-0.037042 -0.03704,-0.037042 -0.03704,-0.09525 V 2.3292035 q 0,-0.058208 0.03704,-0.09525 0.03704,-0.037042 0.09525,-0.037042 h 1.328209 q 0.529167,0 0.883709,0.1693335 0.354542,0.1640417 0.53975,0.4868336 0.1905,0.3175002 0.201084,0.7884588 0.0053,0.2328335 0.0053,0.4074586 0,0.1746251 -0.0053,0.4021669 -0.01588,0.4921253 -0.195792,0.8149171 -0.179917,0.3227919 -0.529167,0.481542 -0.34925,0.1534584 -0.873125,0.1534584 z m 0.709084,-0.6826254 h 0.619125 q 0.264584,0 0.433917,-0.079375 0.169334,-0.079375 0.248709,-0.2487085 0.08467,-0.1746251 0.08996,-0.449792 0.0053,-0.1534584 0.0053,-0.2751668 0.0053,-0.1217084 0,-0.2434168 0,-0.1217084 -0.0053,-0.2698752 -0.01058,-0.3968752 -0.206375,-0.5820837 -0.1905,-0.1905001 -0.592667,-0.1905001 h -0.592667 z m 4.079876,0.7355421 q -0.608542,0 -0.968375,-0.3386669 -0.354542,-0.3386668 -0.375709,-0.9842506 0,-0.042333 0,-0.111125 0,-0.074083 0,-0.1164168 0.02117,-0.4074585 0.185209,-0.6985004 0.164041,-0.2963335 0.460375,-0.4497919 0.296333,-0.1587501 0.693209,-0.1587501 0.4445,0 0.740833,0.1852084 0.301626,0.1799168 0.449792,0.497417 0.153459,0.3122085 0.153459,0.7196671 v 0.1217084 q 0,0.052917 -0.04233,0.089958 -0.03704,0.037042 -0.08996,0.037042 h -1.730376 q 0,0.00529 0,0.021167 0,0.010583 0,0.021167 0.0053,0.1693335 0.0635,0.3122086 0.0635,0.1375834 0.174625,0.2222501 0.116417,0.084667 0.275167,0.084667 0.132292,0 0.216958,-0.037042 0.08467,-0.037042 0.137584,-0.089958 0.05821,-0.052917 0.08467,-0.089958 0.04762,-0.052917 0.07408,-0.0635 0.03175,-0.015875 0.09525,-0.015875 h 0.550334 q 0.05292,0 0.08467,0.03175 0.03704,0.026458 0.03175,0.079375 -0.0053,0.084667 -0.08996,0.2116668 -0.07937,0.1217084 -0.238125,0.2434168 -0.15875,0.1164167 -0.396875,0.1957918 -0.232834,0.079375 -0.539751,0.079375 z M 61.651099,4.2659546 h 1.037167 v -0.010583 q 0,-0.1905001 -0.0635,-0.3280835 -0.05821,-0.1428751 -0.174625,-0.2222502 -0.116417,-0.079375 -0.280458,-0.079375 -0.164042,0 -0.280459,0.079375 -0.116417,0.079375 -0.179917,0.2222502 -0.05821,0.1375834 -0.05821,0.3280835 z m 3.614205,1.6880427 q -0.386292,0 -0.682626,-0.1428751 Q 64.291636,5.6682471 64.122303,5.398372 63.95297,5.1232051 63.937095,4.7422049 q -0.0053,-0.084667 -0.0053,-0.2116668 0,-0.1322917 0.0053,-0.2169584 0.01588,-0.3862919 0.179916,-0.6561671 0.169334,-0.2751668 0.465667,-0.4180419 0.296334,-0.1428751 0.682626,-0.1428751 0.354542,0 0.60325,0.1005417 0.248709,0.09525 0.407459,0.2434168 0.15875,0.1481668 0.232833,0.3122086 0.07937,0.15875 0.08467,0.2804585 0.0053,0.052917 -0.03704,0.09525 -0.03704,0.037042 -0.08996,0.037042 h -0.566209 q -0.05292,0 -0.08467,-0.026458 -0.02646,-0.03175 -0.05292,-0.084667 -0.07408,-0.1852084 -0.1905,-0.2645835 -0.116417,-0.079375 -0.291042,-0.079375 -0.238125,0 -0.375709,0.1534584 -0.137583,0.1534584 -0.148167,0.4762503 -0.0053,0.2063751 0,0.3757086 0.01588,0.3280835 0.148167,0.4762502 0.137584,0.1481668 0.375709,0.1481668 0.185208,0 0.296333,-0.079375 0.111125,-0.079375 0.185209,-0.2645835 0.02117,-0.052917 0.05292,-0.079375 0.03175,-0.03175 0.08467,-0.03175 h 0.566209 q 0.05292,0 0.08996,0.042333 0.04233,0.037042 0.03704,0.089958 -0.0053,0.089958 -0.05292,0.2116668 -0.04233,0.1217084 -0.142875,0.2487085 -0.09525,0.1270001 -0.248708,0.2381252 -0.153459,0.1058334 -0.375709,0.1746251 -0.216958,0.0635 -0.508,0.0635 z m 1.979084,-0.052917 q -0.05821,0 -0.09525,-0.037042 -0.03704,-0.037042 -0.03704,-0.09525 V 2.2762868 q 0,-0.058208 0.03704,-0.09525 0.03704,-0.037042 0.09525,-0.037042 h 0.518583 q 0.05292,0 0.08996,0.037042 0.03704,0.037042 0.03704,0.09525 v 1.7885844 l 0.814917,-0.8255005 q 0.04233,-0.037042 0.07408,-0.0635 0.03704,-0.026458 0.111125,-0.026458 h 0.597959 q 0.05292,0 0.08467,0.037042 0.03175,0.03175 0.03175,0.079375 0,0.021167 -0.01058,0.047625 -0.01058,0.026458 -0.03704,0.042333 l -1.021293,1.026584 1.153584,1.3176258 q 0.04762,0.042333 0.04762,0.084667 0,0.047625 -0.03704,0.084667 -0.03175,0.03175 -0.07937,0.03175 h -0.613834 q -0.07937,0 -0.116417,-0.026458 -0.03175,-0.026458 -0.07408,-0.0635 L 67.889972,4.7739549 v 0.994834 q 0,0.058208 -0.03704,0.09525 -0.03704,0.037042 -0.08996,0.037042 z"
       id="text22"
       style="font-size:5.29167px;font-family:Rubik;-inkscape-font-specification:'Rubik, @wght=600';font-variation-settings:'wght' 600;fill:url(#linearGradient4);fill-rule:evenodd;stroke-width:0.370999;stroke-linecap:round;stroke-linejoin:round"
       aria-label="Temporal Deck" />
  </g>
</svg>
