<?xml version='1.0' encoding='utf-8'?>
<svg xmlns="http://www.w3.org/2000/svg" xmlns:xlink="http://www.w3.org/1999/xlink" width="20.32mm" height="128.5mm" viewBox="0 0 2032 12850" version="1.1" id="Deepcache-labels">
  <defs id="defs5">
    <linearGradient id="linearGradient16">
      <stop style="stop-color:#7a5cff;stop-opacity:1;" offset="0" id="stop16" />
      <stop style="stop-color:#1cccd9;stop-opacity:1;" offset="1" id="stop17" />
    </linearGradient>
    <linearGradient id="linearGradient14">
      <stop style="stop-color:#7a5cff;stop-opacity:1;" offset="0" id="stop14" />
      <stop style="stop-color:#1cccd9;stop-opacity:1;" offset="1" id="stop15" />
    </linearGradient>
    <linearGradient id="panel" x1="0" y1="0" x2="0" y2="1">
      <stop offset="0" stop-color="#090d16" id="stop1" />
      <stop offset="0.55" stop-color="#111a29" id="stop2" />
      <stop offset="1" stop-color="#080b13" id="stop3" />
    </linearGradient>
    <linearGradient id="trace" x1="1.8468709" y1="41.992205" x2="11.685836" y2="41.992205" gradientTransform="matrix(1.5004763,0,0,0.66645503,0,-14.899916)" gradientUnits="userSpaceOnUse">
      <stop offset="0" stop-color="#21d7df" id="stop4" />
      <stop offset="1" stop-color="#8d62ff" id="stop5" />
    </linearGradient>
    <linearGradient xlink:href="#linearGradient14" id="linearGradient15" x1="3.4660004" y1="3.9960867" x2="17.086756" y2="3.9960867" gradientUnits="userSpaceOnUse" />
    <linearGradient xlink:href="#linearGradient16" id="linearGradient17" x1="1.2018647" y1="8.3479995" x2="19.134012" y2="8.3479995" gradientUnits="userSpaceOnUse" />
    <linearGradient xlink:href="#linearGradient20" id="linearGradient1" gradientUnits="userSpaceOnUse" x1="5496.8262" y1="12956.067" x2="7087.4873" y2="12956.067" gradientTransform="matrix(0.01390218,0,0,0.01390218,-77.301789,-51.195959)" />
    <linearGradient id="linearGradient20">
      <stop style="stop-color:#795cff;stop-opacity:1" offset="0" id="stop20" />
      <stop style="stop-color:#1cccd9;stop-opacity:1;" offset="1" id="stop21" />
    </linearGradient>
  </defs>
  <g id="labels" transform="scale(100)">
    <g id="title" style="stroke:none;stroke-opacity:1">
      <path d="m 3.9554821,5.8481731 q -0.058208,0 -0.09525,-0.037042 -0.037042,-0.037042 -0.037042,-0.09525 V 2.276296 q 0,-0.058208 0.037042,-0.09525 0.037042,-0.037042 0.09525,-0.037042 h 1.3758341 q 0.5185837,0 0.8837089,0.1693335 0.3651252,0.1640417 0.560917,0.4868336 0.1957918,0.3175002 0.2116668,0.7884588 0.00529,0.2328335 0.00529,0.4074586 0,0.1746251 -0.00529,0.4021669 Q 6.9664422,4.8903809 6.7759421,5.2131728 6.5907337,5.5359646 6.2309001,5.6947147 5.8763582,5.8481731 5.3577746,5.8481731 Z M 4.7703992,5.0861727 h 0.560917 q 0.2275418,0 0.3757086,-0.068792 0.1534584,-0.074083 0.2275418,-0.2275418 0.079375,-0.1534585 0.084667,-0.4021669 0.010583,-0.1534585 0.010583,-0.2751669 0.00529,-0.1217084 0,-0.2434168 0,-0.1217084 -0.010583,-0.2698751 Q 6.00865,3.2393799 5.8287332,3.0753381 5.6541081,2.9060047 5.3048579,2.9060047 H 4.7703992 Z m 4.0534171,0.8149171 q -0.624417,0 -0.9948339,-0.3386668 -0.3704169,-0.3386669 -0.3862919,-1.0054173 0,-0.037042 0,-0.09525 0,-0.058208 0,-0.089958 Q 7.4585655,3.9537553 7.627899,3.6574218 7.8025241,3.3557966 8.1041492,3.2023382 8.4110661,3.0435881 8.8185247,3.0435881 q 0.4656669,0 0.7672921,0.1852085 0.3069168,0.1852084 0.4603752,0.5027086 0.153458,0.3175002 0.153458,0.7249588 v 0.127 q 0,0.058208 -0.04233,0.09525 -0.03704,0.037042 -0.08996,0.037042 H 8.3740244 q 0,0.00529 0,0.015875 0,0.010583 0,0.021167 0.00529,0.1534584 0.052917,0.2804585 0.047625,0.1270001 0.1481668,0.2010834 0.1005417,0.074083 0.2434168,0.074083 0.1058334,0 0.1746251,-0.03175 0.074083,-0.037042 0.1217084,-0.079375 0.047625,-0.047625 0.074083,-0.079375 0.047625,-0.052917 0.074083,-0.0635 0.03175,-0.015875 0.09525,-0.015875 h 0.656167 q 0.05292,0 0.08467,0.03175 0.03704,0.026458 0.03175,0.079375 -0.0053,0.089958 -0.08996,0.2169585 Q 9.9562337,5.4936313 9.7921919,5.6206313 9.6334418,5.7423397 9.390025,5.8217148 9.1466082,5.9010898 8.8238163,5.9010898 Z M 8.3740244,4.1918805 h 0.8942922 v -0.010583 q 0,-0.1693334 -0.052917,-0.2963335 -0.047625,-0.127 -0.1534584,-0.1957918 -0.1005417,-0.068792 -0.2434168,-0.068792 -0.1428751,0 -0.2434168,0.068792 -0.09525,0.068792 -0.1481668,0.1957918 -0.052917,0.1270001 -0.052917,0.2963335 z m 3.5930436,1.7092093 q -0.624417,0 -0.994834,-0.3386668 -0.370417,-0.3386669 -0.386292,-1.0054173 0,-0.037042 0,-0.09525 0,-0.058208 0,-0.089958 0.01588,-0.418042 0.185208,-0.7143755 0.174625,-0.3016252 0.476251,-0.4550836 0.306917,-0.1587501 0.714375,-0.1587501 0.465667,0 0.767292,0.1852085 0.306917,0.1852084 0.460375,0.5027086 0.153459,0.3175002 0.153459,0.7249588 v 0.127 q 0,0.058208 -0.04233,0.09525 -0.03704,0.037042 -0.08996,0.037042 h -1.693334 q 0,0.00529 0,0.015875 0,0.010583 0,0.021167 0.0053,0.1534584 0.05292,0.2804585 0.04763,0.1270001 0.148166,0.2010834 0.100542,0.074083 0.243417,0.074083 0.105833,0 0.174625,-0.03175 0.07408,-0.037042 0.121709,-0.079375 0.04763,-0.047625 0.07408,-0.079375 0.04763,-0.052917 0.07408,-0.0635 0.03175,-0.015875 0.09525,-0.015875 h 0.656167 q 0.05292,0 0.08467,0.03175 0.03704,0.026458 0.03175,0.079375 -0.0053,0.089958 -0.08996,0.2169585 -0.08467,0.1270001 -0.248709,0.2540001 -0.15875,0.1217084 -0.402167,0.2010835 -0.243416,0.079375 -0.566208,0.079375 z M 11.517276,4.1918805 h 0.894292 v -0.010583 q 0,-0.1693334 -0.05292,-0.2963335 -0.04763,-0.127 -0.153458,-0.1957918 -0.100542,-0.068792 -0.243417,-0.068792 -0.142875,0 -0.243417,0.068792 -0.09525,0.068792 -0.148166,0.1957918 -0.05292,0.1270001 -0.05292,0.2963335 z m 2.455334,2.6617099 q -0.05821,0 -0.09525,-0.037042 -0.03704,-0.037042 -0.03704,-0.09525 V 3.2287966 q 0,-0.058208 0.03704,-0.09525 0.03704,-0.037042 0.09525,-0.037042 h 0.597959 q 0.05292,0 0.08996,0.037042 0.04233,0.037042 0.04233,0.09525 v 0.1957918 q 0.121708,-0.1640418 0.322791,-0.2698752 0.201084,-0.1111251 0.497417,-0.1111251 0.264584,0 0.465667,0.084667 0.201084,0.079375 0.343959,0.2381252 0.142875,0.1587501 0.22225,0.3862919 0.08467,0.2275418 0.09525,0.5238753 0.0053,0.1058334 0.0053,0.1957918 0,0.089958 -0.0053,0.1957918 -0.01058,0.2857501 -0.08996,0.5132919 -0.07938,0.2275418 -0.22225,0.3862919 -0.142876,0.1587501 -0.349251,0.2487085 -0.201083,0.084667 -0.465667,0.084667 -0.259291,0 -0.455083,-0.089958 -0.1905,-0.09525 -0.3175,-0.2645835 v 1.1747507 q 0,0.058208 -0.03704,0.09525 -0.03704,0.037042 -0.09525,0.037042 z m 1.264709,-1.6615843 q 0.179917,0 0.280459,-0.074083 0.100541,-0.074083 0.142875,-0.2010835 0.04763,-0.127 0.05821,-0.2804585 0.01058,-0.1640417 0,-0.3280835 -0.01058,-0.1534584 -0.05821,-0.2804585 -0.04233,-0.1270001 -0.142875,-0.2010834 -0.100542,-0.074083 -0.280459,-0.074083 -0.174625,0 -0.280458,0.079375 -0.105834,0.074083 -0.153459,0.1957918 -0.04763,0.1217084 -0.05292,0.2645835 -0.0053,0.1005417 -0.0053,0.1957918 0,0.09525 0.0053,0.2010834 0.0053,0.1322918 0.05821,0.2487085 0.05292,0.1111251 0.15875,0.1852085 0.105833,0.068792 0.269875,0.068792 z" id="text6" style="font-size:5.29167px;font-family:Rubik;-inkscape-font-specification:'Rubik, @wght=700';font-variation-settings:'wght' 700;text-anchor:middle;fill:url(#linearGradient15)" aria-label="Deep" />
      <path d="m 3.7782475,10.252998 q -0.5027087,0 -0.8625422,-0.164042 Q 2.5611634,9.924914 2.3600799,9.6074138 2.1642882,9.2899137 2.1431215,8.818955 q -0.00529,-0.2169584 -0.00529,-0.4656669 0,-0.2487085 0.00529,-0.4762503 0.021167,-0.4603753 0.2222501,-0.7778755 0.2010835,-0.3227918 0.560917,-0.4868336 0.3598336,-0.1693334 0.8519589,-0.1693334 0.3492502,0 0.6455837,0.089958 0.2963335,0.084667 0.5185836,0.2540001 0.2222502,0.1640418 0.3439586,0.4021669 0.127,0.2328335 0.1322917,0.529167 0.00529,0.047625 -0.03175,0.079375 -0.03175,0.03175 -0.079375,0.03175 H 4.5931646 q -0.068792,0 -0.1058334,-0.026458 -0.037042,-0.03175 -0.0635,-0.111125 Q 4.3497478,7.4113709 4.1804144,7.3108291 4.0163726,7.2049957 3.7729558,7.2049957 q -0.2910418,0 -0.4603753,0.1640418 -0.1693334,0.1587501 -0.1852084,0.5344587 -0.015875,0.4339169 0,0.8890005 0.015875,0.3757086 0.1852084,0.5397503 0.1693335,0.1587501 0.4603753,0.1587501 0.2434168,0 0.4127502,-0.1058334 0.1693335,-0.1058334 0.2381252,-0.3810002 0.021167,-0.079375 0.058208,-0.1058334 0.042333,-0.03175 0.111125,-0.03175 h 0.7143755 q 0.047625,0 0.079375,0.03175 0.037042,0.03175 0.03175,0.079375 Q 5.4133734,9.2740386 5.2863734,9.5121638 5.164665,9.7449973 4.9424148,9.9143307 4.7201647,10.078372 4.4238312,10.168331 q -0.2963335,0.08467 -0.6455837,0.08467 z m 2.9633334,0 q -0.2857502,0 -0.513292,-0.105834 Q 6.0060388,10.036039 5.873747,9.8508307 5.7414553,9.6656222 5.7414553,9.4327887 q 0,-0.3757085 0.3069168,-0.592667 Q 6.355289,8.6178716 6.8632893,8.5384965 L 7.524748,8.4379548 v -0.074083 q 0,-0.1905001 -0.079375,-0.2910418 -0.079375,-0.1005417 -0.2910419,-0.1005417 -0.1481667,0 -0.2434168,0.058208 -0.089958,0.058208 -0.1428751,0.1587501 -0.047625,0.068792 -0.1322917,0.068792 h -0.592667 q -0.058208,0 -0.089958,-0.03175 -0.03175,-0.037042 -0.026458,-0.084667 0,-0.09525 0.068792,-0.2169585 0.074083,-0.127 0.2222502,-0.2487084 0.1481667,-0.1217085 0.3810002,-0.2010835 0.2328335,-0.079375 0.560917,-0.079375 0.3439585,0 0.5873753,0.079375 0.2434169,0.079375 0.3915836,0.2222501 0.1534584,0.1428751 0.2275418,0.3386669 0.074083,0.1905001 0.074083,0.4233336 v 1.6086675 q 0,0.05821 -0.042333,0.09525 -0.037042,0.03704 -0.089958,0.03704 H 7.6940814 q -0.058208,0 -0.09525,-0.03704 -0.037042,-0.03704 -0.037042,-0.09525 V 9.8825807 Q 7.492998,9.9831224 7.3765813,10.067789 7.2601645,10.152456 7.1014144,10.200081 6.947956,10.252998 6.7415809,10.252998 Z M 6.9902894,9.6497472 q 0.1534584,0 0.2751668,-0.0635 Q 7.3924563,9.5174555 7.461248,9.379872 7.5353314,9.236997 7.5353314,9.0253302 v -0.074083 l -0.449792,0.079375 Q 6.8368309,9.0729552 6.7204142,9.1629136 6.6092891,9.2475803 6.6092891,9.363997 q 0,0.089958 0.052917,0.1534585 0.052917,0.0635 0.1375834,0.1005417 0.084667,0.03175 0.1905002,0.03175 z m 3.3125866,0.6032508 q -0.3915838,0 -0.693209,-0.142876 Q 9.3080418,9.9672474 9.1281251,9.6973722 8.9535,9.4222054 8.9376249,9.0412052 q -0.00529,-0.084667 -0.00529,-0.2116668 0,-0.1322918 0.00529,-0.2169585 Q 8.9535,8.226288 9.1281251,7.9564129 9.3027502,7.681246 9.6043753,7.5383709 q 0.3069169,-0.142875 0.6985007,-0.142875 0.365125,0 0.624417,0.1058334 0.259292,0.1005417 0.423333,0.2540001 0.164042,0.1534584 0.243417,0.3175002 0.08467,0.1587501 0.08996,0.2804585 0.0053,0.052917 -0.03704,0.09525 -0.04233,0.037042 -0.09525,0.037042 h -0.672042 q -0.05821,0 -0.08996,-0.026458 -0.03175,-0.026458 -0.05821,-0.079375 -0.0635,-0.1640417 -0.164042,-0.2328334 -0.09525,-0.068792 -0.248708,-0.068792 -0.211667,0 -0.3280838,0.1375834 -0.111125,0.1375834 -0.1217084,0.4233336 -0.00529,0.2116668 0,0.3757085 0.010583,0.2910419 0.1217084,0.4233336 0.1164168,0.1322918 0.3280838,0.1322918 0.164042,0 0.259292,-0.068792 0.09525,-0.068792 0.153458,-0.2328335 0.02646,-0.052917 0.05821,-0.079375 0.03175,-0.026458 0.08996,-0.026458 h 0.672042 q 0.05292,0 0.09525,0.042333 0.04233,0.037042 0.03704,0.089958 -0.0053,0.089958 -0.05292,0.2116668 -0.04763,0.1164168 -0.148167,0.2487085 -0.100542,0.1322918 -0.264583,0.2487084 -0.15875,0.111125 -0.386292,0.179917 -0.227542,0.06879 -0.529167,0.06879 z m 1.989668,-0.05292 q -0.05821,0 -0.09525,-0.03704 -0.03704,-0.03704 -0.03704,-0.09525 V 6.575287 q 0,-0.058208 0.03704,-0.09525 0.03704,-0.037042 0.09525,-0.037042 h 0.677334 q 0.05821,0 0.09525,0.037042 0.03704,0.037042 0.03704,0.09525 v 1.1800424 q 0.142876,-0.1640418 0.349251,-0.2592918 0.211666,-0.1005417 0.486833,-0.1005417 0.306917,0 0.545042,0.1375834 0.243417,0.1375834 0.381001,0.4074585 0.137583,0.2645835 0.137583,0.6508754 v 1.4763758 q 0,0.05821 -0.03704,0.09525 -0.03704,0.03704 -0.09525,0.03704 h -0.682625 q -0.05292,0 -0.09525,-0.03704 -0.03704,-0.03704 -0.03704,-0.09525 V 8.6231633 q 0,-0.2487085 -0.121708,-0.3810003 -0.116417,-0.1375834 -0.349251,-0.1375834 -0.216958,0 -0.34925,0.1375834 -0.132292,0.1322918 -0.132292,0.3810003 v 1.4446257 q 0,0.05821 -0.03704,0.09525 -0.03704,0.03704 -0.09525,0.03704 z m 4.577293,0.05292 q -0.624417,0 -0.994834,-0.3386673 -0.370417,-0.3386669 -0.386292,-1.0054173 0,-0.037042 0,-0.09525 0,-0.058208 0,-0.089958 0.01587,-0.4180419 0.185208,-0.7143754 0.174626,-0.3016252 0.476251,-0.4550837 0.306917,-0.15875 0.714375,-0.15875 0.465667,0 0.767292,0.1852084 0.306917,0.1852084 0.460376,0.5027086 0.153458,0.3175002 0.153458,0.7249588 v 0.1270001 q 0,0.058208 -0.04233,0.09525 -0.03704,0.037042 -0.08996,0.037042 h -1.693334 q 0,0.00529 0,0.015875 0,0.010583 0,0.021167 0.0053,0.1534584 0.05292,0.2804585 0.04763,0.1270001 0.148166,0.2010835 0.100542,0.074083 0.243417,0.074083 0.105834,0 0.174625,-0.03175 0.07408,-0.037042 0.121709,-0.079375 0.04763,-0.047625 0.07408,-0.079375 0.04763,-0.052917 0.07408,-0.0635 0.03175,-0.015875 0.09525,-0.015875 h 0.656167 q 0.05292,0 0.08467,0.03175 0.03704,0.026458 0.03175,0.079375 -0.0053,0.089958 -0.08996,0.2169584 -0.08467,0.1270001 -0.248709,0.2540002 -0.15875,0.1217079 -0.402167,0.2010839 -0.243416,0.07938 -0.566208,0.07938 z M 16.420045,8.5437882 h 0.894292 v -0.010583 q 0,-0.1693335 -0.05292,-0.2963335 -0.04763,-0.1270001 -0.153458,-0.1957918 -0.100542,-0.068792 -0.243417,-0.068792 -0.142875,0 -0.243417,0.068792 -0.09525,0.068792 -0.148166,0.1957918 -0.05292,0.127 -0.05292,0.2963335 z" id="text7" style="font-size:5.29167px;font-family:Rubik;-inkscape-font-specification:'Rubik, @wght=700';font-variation-settings:'wght' 700;text-anchor:middle;fill:url(#linearGradient17)" aria-label="Cache" />
      <path d="m 3.5136659,125.04984 -0.1375834,-0.127 0.089958,-0.10583 q -0.010583,-0.0106 -0.021167,-0.0159 -0.00529,-0.005 -0.010583,-0.0159 l -0.03175,-0.0317 q -0.015875,-0.0106 -0.042333,-0.0212 -0.021167,-0.0159 -0.0635,-0.0529 -0.03175,-0.0159 -0.068792,-0.037 -0.037042,-0.0265 -0.079375,-0.0582 h -0.015875 l -0.010583,-0.005 h -0.03175 l -0.00529,-0.005 q -0.1799168,0 -0.2381251,0.10054 -0.052917,0.0688 -0.052917,0.10584 v 1.60866 q 0,0.0741 -0.037042,0.15875 -0.03175,0.0794 -0.089958,0.15346 -0.052917,0.0688 -0.1217084,0.127 -0.068792,0.0582 -0.1428751,0.09 v -0.005 q -0.026458,0.0212 -0.0635,0.0318 -0.037042,0.005 -0.1058334,0.0318 h 0.00529 q -0.010583,0.005 -0.021167,0.005 -0.00529,0 -0.010583,0.005 -0.010583,0 -0.021167,0.005 -0.010583,0 -0.021167,0 -0.015875,0.005 -0.042333,0.005 h -0.079375 q 0.074083,-0.0741 0.1164167,-0.15346 0.042333,-0.0794 0.052917,-0.17463 v -0.0265 q 0,-0.0212 0.00529,-0.0476 0,-0.0106 0,-0.0159 0.00529,-0.005 0.00529,-0.0159 v -1.47109 q 0,-0.28575 0.4603753,-0.58208 0.4233336,-0.27517 0.7249588,-0.27517 h 0.021167 q 0.089958,0 0.3439585,0.10055 0.1587501,0.0794 0.2169585,0.17991 z m 0.037042,2.69346 q -0.5873754,-0.24871 -1.1959174,-0.24871 -0.5238753,0 -0.9207506,0.17992 -0.037042,0.0106 -0.089958,0.037 -0.047625,0.0318 -0.1058334,0.0582 0.1164168,-0.22225 0.3016252,-0.381 0.1852085,-0.15875 0.4550836,-0.26458 0.4603753,-0.18521 0.9419173,-0.18521 0.3175002,0 0.5556253,0.0794 v -0.97896 q -0.089958,-0.0317 -0.089958,-0.15875 0,-0.0741 0.058208,-0.13229 0.058208,-0.0635 0.1322917,-0.0635 0.074083,0 0.1270001,0.0635 0.058208,0.0582 0.058208,0.13229 0,0.127 -0.09525,0.16934 v 1.02129 q 0.010583,0.0106 0.058208,0.0212 l 0.021167,0.0159 H 3.751791 q 0.021167,0.0106 0.026458,0.0159 v -0.005 l 0.010583,0.005 0.00529,0.005 0.021167,0.0106 0.074083,-0.09 0.1481668,0.11642 z m -1.4605009,-2.82046 0.037042,0.0106 q -0.0635,0.1905 -0.0635,0.20638 l -0.010583,1.48696 v 0.0106 q 0,0.0794 -0.084667,0.21167 -0.2275418,0.36512 -0.608542,0.40217 0.127,-0.20638 0.127,-0.40217 v -0.53975 q -0.010583,-0.0106 -0.037042,-0.0159 -0.021167,-0.0106 -0.047625,-0.0318 h -0.015875 q -0.058208,0 -0.1058334,0.0371 -0.047625,0.037 -0.052917,0.0952 l 0.00529,0.005 v 0.037 h -0.026458 l -0.00529,0.005 h -0.021167 q -0.089958,0 -0.1640418,-0.0794 -0.0687917,-0.0847 -0.0740834,-0.17463 -0.005292,-0.0106 -0.005292,-0.0582 0,-0.29104 0.31750024,-0.41275 0.052917,-0.0106 0.1058334,-0.0159 0.058208,-0.0106 0.127,-0.0212 v -0.19579 q 0,-0.0741 0.00529,-0.10054 0.021167,-0.14817 0.2434168,-0.30163 0.2116668,-0.16404 0.3651252,-0.16404 z m 0.4603753,-0.51858 q -0.026458,0.22225 -0.2540002,0.36512 -0.2010834,0.14288 -0.4233336,0.14288 -0.1322917,0 -0.2910418,-0.0635 -0.037042,0 -0.042333,-0.0106 -0.021167,-0.0106 -0.037042,-0.0159 -0.021167,0 -0.03175,-0.005 -0.03175,-0.0106 -0.079375,-0.0159 -0.047625,-0.0106 -0.0635,-0.0106 l -0.00529,0.005 q -0.058208,0 -0.079375,0.0159 -0.03175,0 -0.068792,0.037 -0.021167,0.005 -0.0635,0.037 -0.037042,0.0265 -0.09525,0.0741 v -0.0529 q 0,-0.29634 0.1640418,-0.47625 0.1640417,-0.18521 0.4497919,-0.18521 0.089958,0 0.1905001,0.0265 0.1058334,0.0212 0.2275418,0.0635 0.2434168,0.09 0.3492502,0.09 0.015875,0 0.037042,-0.005 0.021167,-0.005 0.052917,-0.0159 0.010583,-0.0106 0.037042,-0.0212 z m 3.2596733,1.74625 q -0.0635,0.0318 -0.2540002,0.14287 -0.1852084,0.10584 -0.5080003,0.29634 -0.047625,0.0265 -0.1058334,0.0688 v 0.39687 q 0.1640418,0.0265 0.3016252,0.0688 0.1428751,0.0423 0.2645835,0.10054 l 0.1270001,-0.13229 0.1322917,0.1217 -0.481542,0.52917 -0.052917,-0.0265 q -0.111125,-0.0582 -0.2169584,-0.11112 -0.1058334,-0.0476 -0.2434168,-0.0741 -0.2328335,-0.0476 -0.4021669,-0.0476 -0.0635,0 -0.1270001,0.0106 -0.0635,0.005 -0.1270001,0.0159 0.010583,-0.0265 0.021167,-0.0423 0.010583,-0.0212 0.021167,-0.0318 v 0.005 q 0.037042,-0.0582 0.058208,-0.0953 0.026458,-0.037 0.03175,-0.0423 0.037042,-0.0476 0.142875,-0.127 v -1.28058 q 0,-0.0794 -0.084667,-0.26458 v -0.0741 l 0.047625,0.0476 h 0.03175 l 0.00529,0.005 h 0.015875 l 0.015875,0.005 h 0.021167 q 0.418042,0 0.9419173,-0.34925 0.026458,0.0952 0.068792,0.20638 0.042333,0.11112 0.1164167,0.2487 0.068792,0.12171 0.1270001,0.22755 0.0635,0.10054 0.1164167,0.17462 z m -0.8255005,-0.41804 -0.042333,0.0106 v 0.67733 l 0.2857502,-0.1852 q -0.021167,-0.0318 -0.052917,-0.0794 -0.026458,-0.0529 -0.0635,-0.13229 -0.037042,-0.0688 -0.068792,-0.14288 -0.03175,-0.0741 -0.058208,-0.14816 z m 3.0532899,-0.0688 v 0.0318 l -0.00529,0.0106 q 0,0.0635 -0.052917,0.127 -0.047625,0.0582 -0.1375834,0.127 v 1.29646 q 0,0.0476 0.015875,0.0688 l 0.068792,0.16933 -0.010583,-0.005 v 0.0318 q -0.127,0 -0.1481667,-0.005 h -0.03175 q -0.1111251,0 -0.2698752,0.0318 -0.1587501,0.037 -0.3757086,0.10583 -0.3016251,0.0952 -0.4392086,0.0952 -0.1481667,0 -0.2275418,-0.0317 -0.2116667,-0.0794 -0.2116667,-0.40216 v -1.34409 q 0,-0.0423 -0.0635,-0.0953 -0.0635,-0.0582 -0.1111251,-0.0582 h -0.010583 l -0.015875,-0.005 h -0.037042 l -0.010583,-0.005 h -0.03175 v -0.037 l 0.5556254,-0.4445 q 0.1693334,0.037 0.2645835,0.22754 0.026458,0.0476 0.026458,0.11642 v 1.46579 q 0,0.11642 0.089958,0.18521 0.089958,0.0635 0.2222501,0.0635 0.1852085,0 0.1852085,-0.11642 v -1.27529 q -0.1058334,-0.0318 -0.1640418,-0.12171 l -0.074083,0.0476 -0.084667,-0.1323 0.5715004,-0.43391 q 0.2116668,0.28046 0.3915835,0.28046 0.052917,0 0.1270001,-0.0476 v 0.0688 z m 0.8731234,2.07433 q -0.084667,-0.005 -0.1693334,-0.037 -0.084667,-0.0265 -0.1587501,-0.09 -0.1587501,-0.127 -0.1587501,-0.29104 v -1.3335 q -0.079375,-0.005 -0.1217084,-0.0952 l -0.074083,0.0423 -0.074083,-0.10583 0.015875,-0.0265 0.00529,0.005 0.010583,-0.0106 0.010583,-0.005 q 0.052917,-0.0476 0.1164167,-0.10584 0.0635,-0.0635 0.1693334,-0.15346 0.058208,-0.037 0.1428751,-0.11641 l 0.021167,-0.0159 q 0.015875,-0.0159 0.03175,-0.0318 v -0.0635 q 0.2169585,0.30692 0.3810003,0.30692 0.037042,0 0.1693334,-0.0741 v 0.0635 q -0.010583,0.0318 -0.010583,0.0741 -0.042333,0.12171 -0.1111251,0.20108 -0.068792,0.0741 -0.1428751,0.10584 v 1.12712 q 0,0.0318 0.026458,0.0847 0.047625,0.10054 0.2169585,0.10054 0.058208,0 0.1375834,-0.0318 l 0.021167,0.037 z M 8.768293,125.25622 h -0.042333 v -0.005 H 8.673043 l -0.010583,-0.005 q -0.2010834,0 -0.2487085,-0.16404 l -0.084667,0.0423 -0.068792,-0.11641 q 0.042333,-0.0423 0.089958,-0.0635 0.047625,-0.0265 0.089958,-0.0476 l -0.010583,0.0106 q 0.015875,-0.0106 0.042333,-0.0318 0.03175,-0.0265 0.058208,-0.0476 0.037042,-0.0265 0.084667,-0.0635 0.052917,-0.037 0.1111251,-0.0794 0.1375834,0.20108 0.2857501,0.20108 0.026458,-0.0106 0.042333,-0.0106 0.021167,-0.005 0.047625,-0.0159 h -0.00529 l 0.010583,-0.0106 h 0.00529 l 0.00529,-0.005 h 0.00529 l 0.00529,-0.005 h 0.037042 v 0.0476 q 0,0.0741 -0.037042,0.14287 -0.03175,0.0635 -0.089958,0.11642 -0.052917,0.0476 -0.1270001,0.0794 -0.068792,0.0318 -0.1428751,0.0318 z m 0.6614539,2.05846 q -0.010583,0.0159 -0.010583,0.0212 0.00529,0 0.015875,-0.0159 z m 1.7621261,-0.22225 v -1.57692 q -0.4445,-0.14288 -0.878417,-0.29634 -0.4127505,0.24342 -0.8519591,0.38101 v 0.0106 q 0,0.0582 0.079375,0.16404 v 1.397 l -0.058208,0.0847 q -0.015875,0.0212 -0.03175,0.037 l -0.015875,0.0265 q 0.4392086,0.0529 0.9260424,0.52916 l 0.354542,-0.3757 0.402167,0.3757 0.470958,-0.53445 -0.195792,-0.0265 q -0.142875,-0.0212 -0.201083,-0.19579 z m -0.619125,0.15345 q -0.185209,-0.14287 -0.444501,-0.26987 v -1.34408 l -0.02117,-0.0159 v -0.005 q 0.03175,0 0.465667,0.1905 z m 1.756834,0.39159 q -0.275167,-0.25929 -0.534459,-0.25929 -0.121708,0 -0.179917,0.09 v -0.0741 q 0,-0.0159 0.04233,-0.12171 0.07408,-0.15875 0.201083,-0.22754 v -1.28058 h -0.08996 q -0.03704,0.0212 -0.08467,0.0318 -0.0053,0.005 -0.04763,0.0159 l -0.0053,0.0106 h -0.01058 l -0.05821,0.0318 v -0.037 q 0,-0.0212 0.0053,-0.0318 v -0.0159 l 0.0053,-0.0106 q 0,-0.0212 0.0053,-0.0318 v -0.0371 q 0,-0.0159 0,-0.0318 0.0053,-0.0159 0.01058,-0.037 v -0.0318 l -0.0053,-0.0159 v -0.0476 q -0.02117,-0.0582 -0.02117,-0.1905 0.06879,0.037 0.111125,0.0529 0.04763,0.0159 0.07408,0.0212 0.01058,-0.005 0.06879,-0.005 h 0.04233 v -0.23812 l -0.0053,-0.0106 v -0.0582 q -0.0053,-0.005 -0.01058,-0.0159 -0.0053,-0.0106 -0.01058,-0.0212 0,-0.0159 -0.0053,-0.0264 v -0.005 q -0.01058,-0.0106 -0.01058,-0.0423 l 0.03704,-0.0106 0.0053,0.0106 h 0.02646 v 0.005 q 0.296334,0 0.560917,-0.32808 v 0.0688 l -0.0053,0.005 q -0.0053,0.0106 -0.01058,0.0318 0,0.0212 -0.01058,0.0529 v 0.005 q 0,0.0159 -0.0053,0.0265 -0.02117,0.0847 -0.02117,0.127 v 0.42333 h 0.164041 l 0.01058,0.005 q 0.08467,0 0.185208,-0.0741 v 0.0582 q -0.0053,0.0106 -0.0053,0.0318 -0.01587,0.0265 -0.01587,0.13229 h 0.0053 q 0,0.11113 0.02646,0.29634 l -0.05821,-0.0318 -0.0053,-0.005 h -0.0053 q -0.05821,-0.0212 -0.132292,-0.0318 -0.07408,-0.0159 -0.169333,-0.0212 v 1.21708 q 0.03704,0.037 0.08467,0.037 l 0.01587,0.005 q 0.01588,0.005 0.02117,0.0106 0.01588,0.0159 0.03175,0.0159 0.0053,0.005 0.01058,0.0106 0.01058,0 0.01587,0.005 h -0.0053 q 0.01587,0.0106 0.03704,0.0318 0.02646,0.0159 0.05821,0.0318 l 0.05292,-0.0529 0.105833,0.12171 z m 2.725209,-2.08492 q 0,0.0159 -0.0053,0.0423 -0.05821,0.20109 -0.185208,0.27517 l 0.0053,1.37583 v -0.005 q 0.04233,0.12171 0.116416,0.21696 v -0.005 l 0.01058,0.0106 v 0.005 l 0.01058,0.0106 -0.02646,0.037 q -0.100542,-0.0529 -0.275167,-0.0529 -0.275167,0 -0.291042,0.09 l 0.03704,0.037 h -0.03175 q 0.01058,0.0159 0.03704,0.0423 0.03175,0.0264 0.07408,0.0635 0.259292,0.21166 0.259292,0.42862 0,0.20109 -0.1905,0.3175 -0.07408,0.0476 -0.105834,0.0476 l -0.01058,0.005 h -0.03175 l -0.0053,0.005 h -0.02117 q -0.15875,0 -0.22225,-0.15346 0.169334,-0.0635 0.169334,-0.17991 0,-0.0953 -0.05821,-0.16405 -0.01587,-0.005 -0.02117,-0.0529 l 0.0053,0.005 q -0.100541,-0.14817 -0.100541,-0.32279 0,-0.12171 0.0635,-0.15875 v -0.005 q 0.05821,-0.0582 0.05821,-0.127 v -1.37054 q -0.05292,0 -0.148167,-0.0635 -0.105833,-0.0688 -0.127,-0.09 l -0.0053,-0.005 -0.232834,0.17463 v 1.09537 q 0.02117,0.005 0.04763,0.0159 0.02646,0.0106 0.0635,0.0212 0.08467,0.0423 0.142875,0.09 0.0635,0.0476 0.105834,0.10054 l -0.486834,0.4445 q -0.296334,-0.28575 -0.53975,-0.28575 h -0.02646 q -0.01058,0 -0.03175,0.005 -0.02117,0.005 -0.0635,0.0265 -0.02646,0.0106 -0.05821,0.0159 -0.03175,0.005 -0.04233,0.005 0.07408,-0.29104 0.333375,-0.40217 v -2.21721 q 0,-0.10054 -0.100542,-0.3175 0.153458,0 0.306917,-0.0635 0.153458,-0.0635 0.322792,-0.1852 0.01058,-0.005 0.116416,-0.0953 l -0.0053,0.005 0.04233,0.005 q -0.01058,0.0318 -0.02646,0.0688 -0.01058,0.037 -0.01587,0.0529 l -0.01588,0.0317 q -0.02117,0.0423 -0.04233,0.15875 -0.0053,0.005 -0.0053,0.0106 v 0.005 q -0.01058,0.0582 -0.01587,0.0953 -0.0053,0.037 -0.0053,0.0529 v 0.99483 l 0.66675,-0.508 q 0.142876,0.29105 0.301626,0.29105 0.0053,0.005 0.03175,0.005 0.06879,0 0.264583,-0.12171 v 0.0741 q 0,0.0159 -0.0053,0.0265 0,0.0106 -0.0053,0.0265 -0.0053,0.0159 -0.0053,0.037 z m 0.08467,1.76213 q -0.01058,0.0159 -0.01058,0.0212 0.0053,0 0.01587,-0.0159 z m 1.762126,-0.22225 v -1.57692 q -0.4445,-0.14288 -0.878417,-0.29634 -0.412751,0.24342 -0.851959,0.38101 v 0.0106 q 0,0.0582 0.07937,0.16404 v 1.397 l -0.05821,0.0847 q -0.01588,0.0212 -0.03175,0.037 l -0.01588,0.0265 q 0.439209,0.0529 0.926043,0.52916 l 0.354542,-0.3757 0.402166,0.3757 0.470959,-0.53445 -0.195792,-0.0265 q -0.142875,-0.0212 -0.201083,-0.19579 z m -0.619126,0.15345 q -0.185208,-0.14287 -0.4445,-0.26987 v -1.34408 l -0.02117,-0.0159 v -0.005 q 0.03175,0 0.465666,0.1905 z m 2.942169,-1.62454 q 0.01588,0.005 0.01588,0.0318 0,0.0423 -0.0635,0.15875 v 1.53459 h 0.206375 q -0.05292,0 -0.481542,0.49212 -0.02117,-0.09 -0.476251,-0.52387 h 0.121709 v -1.47109 l -0.206375,-0.17462 -0.269875,0.20637 v 1.44992 h 0.227541 q -0.34925,0.20637 -0.470958,0.39158 -0.09525,0.13759 -0.105834,0.13759 -0.0053,0 -0.0053,-0.005 l 0.0053,-0.0106 q -0.04763,-0.21167 -0.492125,-0.47096 l -0.01058,-0.0318 h 0.206375 v -1.37583 q -0.07408,-0.29104 -0.248709,-0.30163 l 0.465667,-0.34925 q 0.338667,0.1958 0.391584,0.28046 0.121708,-0.0106 0.545042,-0.29104 l 0.06879,-0.0529 q 0.359833,0.28575 0.576792,0.37571 z" id="reworked_LEVIATHAN_LOGO" style="font-size:5.29167px;font-family:Ancient;-inkscape-font-specification:'Ancient, Normal';dominant-baseline:middle;text-anchor:middle;fill:url(#linearGradient1);stroke-width:0.371" aria-label="Leviathan" />
    </g>
    <path d="m 5.0589828,25.099775 q -0.031045,0 -0.047978,-0.01693 -0.016933,-0.01976 -0.016933,-0.04798 v -1.842909 q 0,-0.03104 0.016933,-0.04798 0.016933,-0.01976 0.047978,-0.01976 h 0.7732883 q 0.2116665,0 0.3443108,0.07056 0.1354666,0.06773 0.1975554,0.186266 0.064911,0.118534 0.064911,0.265289 0,0.115711 -0.039511,0.200378 -0.036689,0.08184 -0.093133,0.135466 -0.056444,0.0508 -0.1100665,0.07902 0.1100665,0.05362 0.1947331,0.174978 0.087489,0.121355 0.087489,0.293511 0,0.155222 -0.070556,0.285044 -0.070556,0.129822 -0.2116665,0.208844 -0.1382888,0.0762 -0.3443109,0.0762 z m 0.2116665,-0.2286 h 0.5446884 q 0.1834444,0 0.2822221,-0.09878 0.098778,-0.09878 0.098778,-0.242711 0,-0.149578 -0.098778,-0.245533 -0.098778,-0.09878 -0.2822221,-0.09878 H 5.2706493 Z m 0,-0.911577 h 0.5192885 q 0.1806221,0 0.2737553,-0.08184 0.093133,-0.08467 0.093133,-0.2286 0,-0.143933 -0.093133,-0.220133 -0.093133,-0.0762 -0.2737553,-0.0762 H 5.2706493 Z m 2.5337294,1.1684 q -0.2370665,0 -0.4092219,-0.08467 -0.1693333,-0.08467 -0.2624665,-0.256822 -0.090311,-0.174978 -0.090311,-0.448733 v -1.145821 q 0,-0.03104 0.016933,-0.04798 0.016933,-0.01976 0.047978,-0.01976 h 0.1439332 q 0.031044,0 0.047978,0.01976 0.019755,0.01693 0.019755,0.04798 v 1.151465 q 0,0.276578 0.1298221,0.409222 0.1298222,0.132645 0.3555998,0.132645 0.2229554,0 0.3527775,-0.132645 0.1326443,-0.132644 0.1326443,-0.409222 v -1.151465 q 0,-0.03104 0.016933,-0.04798 0.019756,-0.01976 0.047978,-0.01976 H 8.501467 q 0.028222,0 0.045155,0.01976 0.019756,0.01693 0.019756,0.04798 v 1.145821 q 0,0.273755 -0.093133,0.448733 -0.090311,0.172155 -0.2596442,0.256822 -0.1693332,0.08467 -0.4092219,0.08467 z m 1.4782216,-0.02822 q -0.031044,0 -0.047978,-0.01693 -0.016933,-0.01976 -0.016933,-0.04798 v -1.845732 q 0,-0.02822 0.016933,-0.04516 0.016933,-0.01976 0.047978,-0.01976 H 9.432178 q 0.028222,0 0.045155,0.01976 0.019756,0.01693 0.019756,0.04516 v 1.845732 q 0,0.02822 -0.019756,0.04798 -0.016933,0.01693 -0.045155,0.01693 z m 0.9504687,0 q -0.03105,0 -0.04798,-0.01693 -0.01693,-0.01976 -0.01693,-0.04798 v -1.845732 q 0,-0.02822 0.01693,-0.04516 0.01693,-0.01976 0.04798,-0.01976 h 0.149578 q 0.02822,0 0.04515,0.01976 0.01693,0.01693 0.01693,0.04516 v 1.66511 h 0.9398 q 0.03104,0 0.04798,0.01976 0.01693,0.01693 0.01693,0.04798 v 0.112889 q 0,0.02822 -0.01693,0.04798 -0.01693,0.01693 -0.04798,0.01693 z m 1.768909,0 q -0.03104,0 -0.04798,-0.01693 -0.01693,-0.01976 -0.01693,-0.04798 v -1.842909 q 0,-0.03104 0.01693,-0.04798 0.01693,-0.01976 0.04798,-0.01976 h 0.640644 q 0.290688,0 0.468488,0.08749 0.1778,0.08749 0.259645,0.259644 0.08184,0.169334 0.08467,0.417689 0.0028,0.127 0.0028,0.222955 0,0.09596 -0.0028,0.220133 -0.0056,0.259645 -0.08749,0.4318 -0.07902,0.169333 -0.253999,0.254 -0.172156,0.08184 -0.4572,0.08184 z m 0.211666,-0.239888 h 0.428978 q 0.194733,0 0.310444,-0.05362 0.115711,-0.05362 0.166511,-0.172155 0.05362,-0.118533 0.05644,-0.313266 0.0056,-0.08467 0.0056,-0.146756 0,-0.06491 0,-0.127 0,-0.06491 -0.0056,-0.146755 -0.0056,-0.273756 -0.129822,-0.403578 -0.124177,-0.132644 -0.417688,-0.132644 h -0.414867 z m 2.482929,0.268111 q -0.245533,0 -0.412044,-0.07338 -0.166511,-0.0762 -0.256822,-0.194733 -0.08749,-0.121356 -0.09313,-0.256822 0,-0.02258 0.01693,-0.03951 0.01976,-0.01975 0.04516,-0.01975 h 0.143933 q 0.03387,0 0.0508,0.01693 0.01693,0.01693 0.02258,0.03951 0.01411,0.06773 0.06773,0.135467 0.05644,0.06491 0.155222,0.110067 0.1016,0.04233 0.259644,0.04233 0.242711,0 0.3556,-0.08467 0.115711,-0.08749 0.115711,-0.231422 0,-0.09878 -0.06209,-0.158044 -0.05927,-0.06209 -0.183444,-0.110067 -0.124178,-0.04798 -0.321733,-0.104422 -0.206022,-0.05927 -0.341489,-0.129822 -0.135466,-0.07056 -0.2032,-0.174978 -0.06491,-0.104422 -0.06491,-0.265288 0,-0.1524 0.08184,-0.270933 0.08184,-0.121356 0.234244,-0.191911 0.155222,-0.07056 0.375355,-0.07056 0.174978,0 0.3048,0.04798 0.132644,0.04516 0.220133,0.124177 0.08749,0.0762 0.132644,0.166511 0.04516,0.08749 0.04798,0.172156 0,0.01975 -0.01411,0.03951 -0.01411,0.01693 -0.04515,0.01693 h -0.149578 q -0.01976,0 -0.04233,-0.01129 -0.01976,-0.01129 -0.03104,-0.04233 -0.01693,-0.115711 -0.129822,-0.194733 -0.112889,-0.07902 -0.293511,-0.07902 -0.183444,0 -0.299155,0.07055 -0.112889,0.07056 -0.112889,0.220133 0,0.09596 0.05362,0.160867 0.05362,0.06209 0.169333,0.110067 0.115711,0.04798 0.301978,0.101599 0.225778,0.06209 0.369711,0.132645 0.143933,0.06773 0.211666,0.172155 0.07056,0.1016 0.07056,0.262467 0,0.1778 -0.09313,0.304799 -0.09313,0.124178 -0.262467,0.191911 -0.166511,0.06491 -0.395111,0.06491 z" id="text8" style="font-size:2.82222px;font-family:Rubik;-inkscape-font-specification:'Rubik, @wght=400';font-variation-settings:'wght' 400;letter-spacing:0.18;text-anchor:middle;fill:#a98cff" aria-label="BUILDS" />
    <path d="m 3.7342561,47.199776 q -0.031044,0 -0.047978,-0.01693 -0.016933,-0.01976 -0.016933,-0.04798 v -1.84291 q 0,-0.03104 0.016933,-0.04798 0.016933,-0.01976 0.047978,-0.01976 h 0.6886217 q 0.3189109,0 0.5051774,0.149577 0.1862665,0.149578 0.1862665,0.443089 0,0.217311 -0.1100666,0.3556 -0.1072443,0.135466 -0.2935109,0.189088 l 0.4346219,0.750711 q 0.00847,0.01693 0.00847,0.03104 0,0.02258 -0.019755,0.03951 -0.016933,0.01693 -0.039511,0.01693 H 4.9590996 q -0.047978,0 -0.070556,-0.0254 -0.022578,-0.0254 -0.039511,-0.0508 L 4.4398111,46.406732 H 3.9459226 v 0.728133 q 0,0.02822 -0.019756,0.04798 -0.016933,0.01693 -0.047978,0.01693 z m 0.2116665,-1.032933 h 0.4656663 q 0.2116665,0 0.3160887,-0.08749 0.1044221,-0.09031 0.1044221,-0.265288 0,-0.172156 -0.1044221,-0.262467 -0.1016,-0.09031 -0.3160887,-0.09031 H 3.9459226 Z m 1.6193342,1.032933 q -0.022578,0 -0.039511,-0.01693 -0.016933,-0.01693 -0.016933,-0.03951 0,-0.01411 0.00282,-0.03104 L 6.2115452,45.28631 q 0.011289,-0.02822 0.031044,-0.04516 0.019756,-0.01693 0.059267,-0.01693 h 0.191911 q 0.036689,0 0.056444,0.01693 0.022578,0.01693 0.033867,0.04516 l 0.6970884,1.825977 q 0.00564,0.01693 0.00564,0.03104 0,0.02258 -0.016933,0.03951 -0.016933,0.01693 -0.039511,0.01693 H 7.0864334 q -0.033867,0 -0.0508,-0.01693 -0.014111,-0.01693 -0.019756,-0.03104 L 6.8606558,46.751043 H 5.9349676 l -0.1552221,0.400755 q -0.00282,0.01411 -0.019755,0.03104 -0.016933,0.01693 -0.0508,0.01693 z M 6.016812,46.508332 H 6.7788114 L 6.3978117,45.506444 Z m 2.358226,0.719666 q -0.2455331,0 -0.4120441,-0.07338 -0.166511,-0.0762 -0.256822,-0.194733 -0.087489,-0.121355 -0.093133,-0.256822 0,-0.02258 0.016933,-0.03951 0.019756,-0.01976 0.045156,-0.01976 h 0.1439332 q 0.033867,0 0.0508,0.01693 0.016933,0.01693 0.022578,0.03951 0.014111,0.06773 0.067733,0.135466 0.056444,0.06491 0.1552221,0.110067 0.1015999,0.04233 0.2596442,0.04233 0.242711,0 0.3555998,-0.08467 0.115711,-0.08749 0.115711,-0.231422 0,-0.09878 -0.062089,-0.158045 Q 8.7249933,46.451887 8.6008156,46.40391 8.476638,46.355932 8.2790826,46.299487 8.0730605,46.240221 7.9375939,46.169665 7.8021274,46.09911 7.7343941,45.994688 7.669483,45.890266 7.669483,45.729399 q 0,-0.1524 0.081844,-0.270933 0.081844,-0.121356 0.2342443,-0.191911 0.1552221,-0.07056 0.3753552,-0.07056 0.1749777,0 0.3047998,0.04798 0.1326444,0.04516 0.2201332,0.124178 0.087489,0.0762 0.1326443,0.166511 0.045155,0.08749 0.047978,0.172155 0,0.01976 -0.014111,0.03951 -0.014111,0.01693 -0.045156,0.01693 H 8.8576377 q -0.019756,0 -0.042333,-0.01129 -0.019756,-0.01129 -0.031044,-0.04233 -0.016933,-0.115711 -0.1298222,-0.194733 -0.1128888,-0.07902 -0.2935109,-0.07902 -0.1834443,0 -0.2991553,0.07056 -0.1128888,0.07055 -0.1128888,0.220133 0,0.09596 0.053622,0.160866 0.053622,0.06209 0.1693332,0.110067 0.115711,0.04798 0.3019775,0.1016 0.2257776,0.06209 0.3697109,0.132644 0.1439332,0.06773 0.2116665,0.172156 0.070555,0.1016 0.070555,0.262466 0,0.1778 -0.093133,0.3048 -0.093133,0.124178 -0.2624664,0.191911 -0.166511,0.06491 -0.3951109,0.06491 z m 1.775083,-0.02822 q -0.02822,0 -0.04798,-0.01693 -0.01693,-0.01976 -0.01693,-0.04798 V 45.475399 H 9.5433435 q -0.028222,0 -0.047978,-0.01693 -0.016933,-0.01976 -0.016933,-0.04798 v -0.118533 q 0,-0.03104 0.016933,-0.04798 0.019756,-0.01976 0.047978,-0.01976 h 1.3603105 q 0.03104,0 0.04798,0.01976 0.01976,0.01693 0.01976,0.04798 v 0.118533 q 0,0.02822 -0.01976,0.04798 -0.01693,0.01693 -0.04798,0.01693 H 10.36461 v 1.659466 q 0,0.02822 -0.01976,0.04798 -0.01693,0.01693 -0.04798,0.01693 z m 1.382267,0 q -0.03104,0 -0.04798,-0.01693 -0.01693,-0.01976 -0.01693,-0.04798 v -1.84291 q 0,-0.03104 0.01693,-0.04798 0.01693,-0.01976 0.04798,-0.01976 h 1.165577 q 0.03104,0 0.04798,0.01976 0.01693,0.01693 0.01693,0.04798 v 0.107244 q 0,0.03104 -0.01693,0.04798 -0.01693,0.01693 -0.04798,0.01693 H 11.73841 v 0.618067 h 0.897466 q 0.03105,0 0.04798,0.01975 0.01693,0.01693 0.01693,0.04798 v 0.104422 q 0,0.02822 -0.01693,0.04798 -0.01693,0.01693 -0.04798,0.01693 H 11.73841 v 0.640644 h 0.982133 q 0.03104,0 0.04798,0.01693 0.01693,0.01693 0.01693,0.04798 v 0.110067 q 0,0.02822 -0.01693,0.04798 -0.01693,0.01693 -0.04798,0.01693 z m 1.890267,0 q -0.03104,0 -0.04798,-0.01693 -0.01693,-0.01976 -0.01693,-0.04798 v -1.84291 q 0,-0.03104 0.01693,-0.04798 0.01693,-0.01976 0.04798,-0.01976 h 0.688622 q 0.318911,0 0.505177,0.149577 0.186267,0.149578 0.186267,0.443089 0,0.217311 -0.110067,0.3556 -0.107244,0.135466 -0.29351,0.189088 l 0.434621,0.750711 q 0.0085,0.01693 0.0085,0.03104 0,0.02258 -0.01975,0.03951 -0.01693,0.01693 -0.03951,0.01693 h -0.135466 q -0.04798,0 -0.07056,-0.0254 -0.02258,-0.0254 -0.03951,-0.0508 L 14.12821,46.406732 h -0.493888 v 0.728133 q 0,0.02822 -0.01976,0.04798 -0.01693,0.01693 -0.04798,0.01693 z m 0.211667,-1.032933 h 0.465666 q 0.211667,0 0.316089,-0.08749 0.104422,-0.09031 0.104422,-0.265288 0,-0.172156 -0.104422,-0.262467 -0.1016,-0.09031 -0.316089,-0.09031 h -0.465666 z m 2.386979,1.061155 q -0.245533,0 -0.412044,-0.07338 -0.166511,-0.0762 -0.256822,-0.194733 -0.08749,-0.121355 -0.09313,-0.256822 0,-0.02258 0.01693,-0.03951 0.01975,-0.01976 0.04515,-0.01976 h 0.143933 q 0.03387,0 0.0508,0.01693 0.01693,0.01693 0.02258,0.03951 0.01411,0.06773 0.06773,0.135466 0.05645,0.06491 0.155222,0.110067 0.1016,0.04233 0.259645,0.04233 0.242711,0 0.355599,-0.08467 0.115711,-0.08749 0.115711,-0.231422 0,-0.09878 -0.06209,-0.158045 -0.05927,-0.06209 -0.183445,-0.110066 -0.124177,-0.04798 -0.321733,-0.104423 -0.206022,-0.05927 -0.341488,-0.129822 -0.135467,-0.07055 -0.2032,-0.174977 -0.06491,-0.104422 -0.06491,-0.265289 0,-0.1524 0.08184,-0.270933 0.08184,-0.121356 0.234244,-0.191911 0.155222,-0.07056 0.375356,-0.07056 0.174977,0 0.304799,0.04798 0.132645,0.04516 0.220134,0.124178 0.08749,0.0762 0.132644,0.166511 0.04515,0.08749 0.04798,0.172155 0,0.01976 -0.01411,0.03951 -0.01411,0.01693 -0.04516,0.01693 H 16.5039 q -0.01975,0 -0.04233,-0.01129 -0.01976,-0.01129 -0.03104,-0.04233 -0.01693,-0.115711 -0.129823,-0.194733 -0.112888,-0.07902 -0.29351,-0.07902 -0.183445,0 -0.299156,0.07056 -0.112889,0.07055 -0.112889,0.220133 0,0.09596 0.05362,0.160866 0.05362,0.06209 0.169333,0.110067 0.115711,0.04798 0.301977,0.1016 0.225778,0.06209 0.369711,0.132644 0.143933,0.06773 0.211667,0.172156 0.07055,0.1016 0.07055,0.262466 0,0.1778 -0.09313,0.3048 -0.09313,0.124178 -0.262467,0.191911 -0.16651,0.06491 -0.39511,0.06491 z" id="text9" style="font-size:2.82222px;font-family:Rubik;-inkscape-font-specification:'Rubik, @wght=400';font-variation-settings:'wght' 400;letter-spacing:0.18;text-anchor:middle;fill:#70dce7" aria-label="RASTERS" />
    <defs id="defs1">
      </defs>
    <g id="database_icon" fill="none" stroke="#ffffff" stroke-width="0.55" stroke-linecap="round" stroke-linejoin="round" transform="translate(0,2.6000033)">
      <ellipse cx="10.16" cy="61.799999" rx="4" ry="1.4" id="ellipse1" />
      <path d="m 6.16,61.8 v 5.6 c 0,0.773 1.791,1.4 4,1.4 2.209,0 4,-0.627 4,-1.4 v -5.6" id="path1" />
      <path d="m 6.16,64.6 c 0,0.773 1.791,1.4 4,1.4 2.209,0 4,-0.627 4,-1.4" id="path2" />
      <path d="m 6.16,67.4 c 0,0.773 1.791,1.4 4,1.4 2.209,0 4,-0.627 4,-1.4" id="path3" />
    </g>
    <g fill="#73869c" font-family="sans-serif" font-size="1.05px" text-anchor="middle" id="led_labels">
      <path d="m 8.4338918,94.599564 q -0.031044,0 -0.047978,-0.01693 -0.016933,-0.01975 -0.016933,-0.04798 v -1.84291 q 0,-0.03105 0.016933,-0.04798 0.016933,-0.01976 0.047978,-0.01976 h 0.7168439 q 0.2088443,0 0.3612442,0.06773 0.1552221,0.06773 0.2398887,0.2032 0.084667,0.132644 0.084667,0.333022 0,0.200377 -0.084667,0.333022 -0.084667,0.132644 -0.2398887,0.200377 -0.1523999,0.06773 -0.3612442,0.06773 H 8.6512028 v 0.705555 q 0,0.02822 -0.019756,0.04798 -0.016933,0.01693 -0.047978,0.01693 z m 0.2144888,-1.007533 h 0.488244 q 0.2088443,0 0.3132665,-0.09313 0.1044221,-0.09313 0.1044221,-0.270933 0,-0.174978 -0.1015999,-0.270933 -0.1015999,-0.09596 -0.3160887,-0.09596 h -0.488244 z m 1.5973774,1.007533 q -0.03105,0 -0.04798,-0.01693 -0.01693,-0.01975 -0.01693,-0.04798 v -1.845732 q 0,-0.02822 0.01693,-0.04516 0.01693,-0.01976 0.04798,-0.01976 h 0.149577 q 0.02822,0 0.04516,0.01976 0.01693,0.01693 0.01693,0.04516 v 1.665109 h 0.939799 q 0.03104,0 0.04798,0.01976 0.01693,0.01693 0.01693,0.04798 v 0.112889 q 0,0.02822 -0.01693,0.04798 -0.01693,0.01693 -0.04798,0.01693 z m 1.391353,0 q -0.02258,0 -0.03951,-0.01693 -0.01693,-0.01693 -0.01693,-0.03951 0,-0.01411 0.0028,-0.03104 L 12.2834,92.686098 q 0.01129,-0.02822 0.03104,-0.04516 0.01976,-0.01693 0.05927,-0.01693 h 0.191911 q 0.03669,0 0.05644,0.01693 0.02258,0.01693 0.03387,0.04516 l 0.697088,1.825977 q 0.0056,0.01693 0.0056,0.03104 0,0.02258 -0.01693,0.03951 -0.01693,0.01693 -0.03951,0.01693 h -0.143933 q -0.03387,0 -0.0508,-0.01693 -0.01411,-0.01693 -0.01975,-0.03104 L 12.93251,94.150831 H 12.006822 L 11.8516,94.551586 q -0.0028,0.01411 -0.01975,0.03104 -0.01693,0.01693 -0.0508,0.01693 z m 0.451556,-0.691444 h 0.761999 l -0.381,-1.001888 z m 1.636888,0.691444 q -0.03105,0 -0.04798,-0.01693 -0.01693,-0.01975 -0.01693,-0.04798 v -1.84291 q 0,-0.03105 0.01693,-0.04798 0.01693,-0.01976 0.04798,-0.01976 h 0.129822 q 0.03387,0 0.0508,0.01693 0.01693,0.01411 0.01975,0.02258 l 0.936977,1.439332 v -1.41111 q 0,-0.03105 0.01693,-0.04798 0.01693,-0.01976 0.04798,-0.01976 h 0.135467 q 0.03104,0 0.04798,0.01976 0.01975,0.01693 0.01975,0.04798 v 1.840087 q 0,0.02822 -0.01975,0.04798 -0.01693,0.01976 -0.04516,0.01976 h -0.135467 q -0.03104,0 -0.04798,-0.01693 -0.01411,-0.01693 -0.01976,-0.02258 l -0.934155,-1.425222 v 1.399822 q 0,0.02822 -0.01975,0.04798 -0.01693,0.01693 -0.04798,0.01693 z" id="text11" style="font-size:2.82222px;font-family:Rubik;-inkscape-font-specification:'Rubik, @wght=400';font-variation-settings:'wght' 400;fill:#ffffff" aria-label="PLAN" />
      <path d="m 8.2458563,101.59956 q -0.036689,0 -0.059267,-0.0198 -0.019756,-0.0198 -0.028222,-0.0564 L 7.7943011,99.711498 q -0.00282,-0.01129 -0.00282,-0.01976 0,-0.0085 0,-0.01129 0,-0.02258 0.016933,-0.03951 0.016933,-0.01693 0.039511,-0.01693 h 0.1467554 q 0.059267,0 0.067733,0.04798 l 0.2878664,1.456263 0.3047998,-0.99906 q 0.00847,-0.0254 0.028222,-0.0452 0.022578,-0.0226 0.062089,-0.0226 h 0.1044222 q 0.042333,0 0.062089,0.0226 0.019756,0.0198 0.0254,0.0452 l 0.307622,0.99906 0.2850442,-1.456263 q 0.00847,-0.04798 0.070556,-0.04798 h 0.1467555 q 0.022578,0 0.039511,0.01693 0.016933,0.01693 0.016933,0.03951 0,0.0028 -0.00282,0.01129 0,0.0085 0,0.01976 l -0.3640664,1.811862 q -0.00847,0.0367 -0.031045,0.0564 -0.019756,0.0198 -0.056444,0.0198 H 9.2392778 q -0.039511,0 -0.062089,-0.0198 -0.022578,-0.0198 -0.031044,-0.0508 l -0.3499553,-1.07527 -0.3471331,1.07527 q -0.011289,0.031 -0.033867,0.0508 -0.019756,0.0198 -0.059267,0.0198 z m 1.7194431,0 q -0.022578,0 -0.039511,-0.0169 -0.016933,-0.0169 -0.016933,-0.0395 0,-0.0141 0.00282,-0.0311 l 0.6999108,-1.825972 q 0.01129,-0.02822 0.03104,-0.04516 0.01976,-0.01693 0.05927,-0.01693 h 0.191911 q 0.03669,0 0.05644,0.01693 0.02258,0.01693 0.03387,0.04516 l 0.697088,1.825972 q 0.0056,0.0169 0.0056,0.0311 0,0.0226 -0.01693,0.0395 -0.01693,0.0169 -0.03951,0.0169 h -0.143933 q -0.03387,0 -0.0508,-0.0169 -0.01411,-0.0169 -0.01976,-0.031 l -0.155222,-0.40076 H 10.33501 l -0.155222,0.40076 q -0.0028,0.0141 -0.01975,0.031 -0.01693,0.0169 -0.0508,0.0169 z m 0.4515556,-0.69144 h 0.761999 l -0.381,-1.001888 z m 1.636887,0.69144 q -0.03104,0 -0.04798,-0.0169 -0.01693,-0.0198 -0.01693,-0.048 v -1.842907 q 0,-0.03105 0.01693,-0.04798 0.01693,-0.01976 0.04798,-0.01976 h 0.688622 q 0.318911,0 0.505177,0.149577 0.186267,0.149578 0.186267,0.443093 0,0.21731 -0.110067,0.3556 -0.107244,0.13546 -0.293511,0.18908 l 0.434622,0.75071 q 0.0085,0.0169 0.0085,0.0311 0,0.0226 -0.01976,0.0395 -0.01693,0.0169 -0.03951,0.0169 h -0.135466 q -0.04798,0 -0.07056,-0.0254 -0.02258,-0.0254 -0.03951,-0.0508 l -0.409222,-0.71684 h -0.493888 v 0.72813 q 0,0.0282 -0.01976,0.048 -0.01693,0.0169 -0.04798,0.0169 z m 0.211667,-1.03293 h 0.465666 q 0.211667,0 0.316089,-0.0875 0.104422,-0.0903 0.104422,-0.26529 0,-0.17215 -0.104422,-0.262463 -0.1016,-0.09031 -0.316089,-0.09031 h -0.465666 z m 1.636889,1.03293 q -0.02822,0 -0.04798,-0.0169 -0.01693,-0.0198 -0.01693,-0.048 v -1.842907 q 0,-0.03105 0.01693,-0.04798 0.01975,-0.01976 0.04798,-0.01976 h 0.141111 q 0.03387,0 0.0508,0.01693 0.01693,0.01693 0.01976,0.02822 l 0.59831,1.140175 0.601133,-1.140175 q 0.0056,-0.01129 0.01976,-0.02822 0.01693,-0.01693 0.0508,-0.01693 h 0.138289 q 0.03104,0 0.04798,0.01976 0.01976,0.01693 0.01976,0.04798 v 1.842907 q 0,0.0282 -0.01976,0.048 -0.01693,0.0169 -0.04798,0.0169 h -0.138289 q -0.02822,0 -0.04798,-0.0169 -0.01693,-0.0198 -0.01693,-0.048 v -1.38853 l -0.471311,0.92004 q -0.01129,0.0282 -0.03387,0.0452 -0.02258,0.0141 -0.05644,0.0141 h -0.08749 q -0.03669,0 -0.05927,-0.0141 -0.01976,-0.0169 -0.03387,-0.0452 l -0.471311,-0.92004 v 1.38853 q 0,0.0282 -0.01975,0.048 -0.01693,0.0169 -0.04516,0.0169 z" id="text12" style="font-size:2.82222px;font-family:Rubik;-inkscape-font-specification:'Rubik, Normal';fill:#ffffff" aria-label="WARM" />
      <path d="m 7.4919738,108.59959 q -0.031044,0 -0.047978,-0.0169 -0.016933,-0.0198 -0.016933,-0.048 v -1.84291 q 0,-0.0311 0.016933,-0.048 0.016933,-0.0198 0.047978,-0.0198 h 0.6886217 q 0.3189109,0 0.5051774,0.14958 0.1862666,0.14958 0.1862666,0.44309 0,0.21731 -0.1100666,0.3556 -0.1072444,0.13546 -0.2935109,0.18909 l 0.4346219,0.75071 q 0.00847,0.0169 0.00847,0.031 0,0.0226 -0.019756,0.0395 -0.016933,0.0169 -0.039511,0.0169 H 8.7168173 q -0.047978,0 -0.070556,-0.0254 -0.022578,-0.0254 -0.039511,-0.0508 L 8.1975289,107.80654 H 7.7036403 v 0.72814 q 0,0.0282 -0.019755,0.048 -0.016933,0.0169 -0.047978,0.0169 z m 0.2116665,-1.03294 h 0.4656663 q 0.2116666,0 0.3160887,-0.0875 0.1044221,-0.0903 0.1044221,-0.26529 0,-0.17216 -0.1044221,-0.26247 -0.1015999,-0.0903 -0.3160887,-0.0903 H 7.7036403 Z m 1.6368896,1.03294 q -0.031045,0 -0.047978,-0.0169 -0.016933,-0.0198 -0.016933,-0.048 v -1.84291 q 0,-0.0311 0.016933,-0.048 0.016933,-0.0198 0.047978,-0.0198 h 1.1655771 q 0.03104,0 0.04798,0.0198 0.01693,0.0169 0.01693,0.048 v 0.10724 q 0,0.031 -0.01693,0.048 -0.01693,0.0169 -0.04798,0.0169 H 9.5465519 v 0.61807 h 0.8974661 q 0.03104,0 0.04798,0.0198 0.01693,0.0169 0.01693,0.048 v 0.10442 q 0,0.0282 -0.01693,0.048 -0.01693,0.0169 -0.04798,0.0169 H 9.5465519 v 0.64065 h 0.9821331 q 0.03104,0 0.04798,0.0169 0.01693,0.0169 0.01693,0.048 v 0.11007 q 0,0.0282 -0.01693,0.048 -0.01693,0.0169 -0.04798,0.0169 z m 1.5127121,0 q -0.02258,0 -0.03951,-0.0169 -0.01693,-0.0169 -0.01693,-0.0395 0,-0.0141 0.0028,-0.031 l 0.699911,-1.82598 q 0.01129,-0.0282 0.03104,-0.0452 0.01976,-0.0169 0.05927,-0.0169 h 0.191911 q 0.03669,0 0.05644,0.0169 0.02258,0.0169 0.03387,0.0452 l 0.697088,1.82598 q 0.0056,0.0169 0.0056,0.031 0,0.0226 -0.01693,0.0395 -0.01693,0.0169 -0.03951,0.0169 h -0.143933 q -0.03387,0 -0.0508,-0.0169 -0.01411,-0.0169 -0.01975,-0.031 l -0.155222,-0.40076 h -0.925689 l -0.155222,0.40076 q -0.0028,0.0141 -0.01975,0.031 -0.01693,0.0169 -0.0508,0.0169 z m 0.451556,-0.69145 h 0.761999 l -0.381,-1.00189 z m 1.636888,0.69145 q -0.03105,0 -0.04798,-0.0169 -0.01693,-0.0198 -0.01693,-0.048 v -1.84291 q 0,-0.0311 0.01693,-0.048 0.01693,-0.0198 0.04798,-0.0198 h 0.640644 q 0.290688,0 0.468488,0.0875 0.1778,0.0875 0.259644,0.25965 0.08185,0.16933 0.08467,0.41768 0.0028,0.127 0.0028,0.22296 0,0.0959 -0.0028,0.22013 -0.0056,0.25965 -0.08749,0.4318 -0.07902,0.16934 -0.254,0.254 -0.172155,0.0819 -0.457199,0.0819 z m 0.211666,-0.23989 h 0.428978 q 0.194733,0 0.310444,-0.0536 0.115711,-0.0536 0.166511,-0.17216 0.05362,-0.11853 0.05644,-0.31327 0.0056,-0.0847 0.0056,-0.14675 0,-0.0649 0,-0.127 0,-0.0649 -0.0056,-0.14676 -0.0056,-0.27375 -0.129822,-0.40357 -0.124178,-0.13265 -0.417689,-0.13265 h -0.414866 z m 2.177343,0.23989 q -0.02822,0 -0.04798,-0.0169 -0.01693,-0.0198 -0.01693,-0.048 v -0.66605 l -0.680155,-1.15146 q -0.0028,-0.008 -0.0056,-0.0169 -0.0028,-0.008 -0.0028,-0.0198 0,-0.0226 0.01693,-0.0395 0.01693,-0.0169 0.03951,-0.0169 h 0.146755 q 0.0254,0 0.04516,0.0141 0.01975,0.0113 0.02822,0.0339 l 0.550333,0.9144 0.550333,-0.9144 q 0.01411,-0.0226 0.03104,-0.0339 0.01976,-0.0141 0.04516,-0.0141 h 0.143933 q 0.0254,0 0.04233,0.0169 0.01693,0.0169 0.01693,0.0395 0,0.0113 -0.0028,0.0198 -0.0028,0.008 -0.0085,0.0169 l -0.677333,1.15146 v 0.66605 q 0,0.0282 -0.01976,0.048 -0.01693,0.0169 -0.04798,0.0169 z" id="text13" style="font-size:2.82222px;font-family:Rubik;-inkscape-font-specification:'Rubik, Normal';fill:#ffffff" aria-label="READY" />
      <path d="m 9.3567542,115.59959 q -0.031044,0 -0.047978,-0.0169 -0.016933,-0.0198 -0.016933,-0.048 v -1.84291 q 0,-0.0311 0.016933,-0.048 0.016933,-0.0198 0.047978,-0.0198 h 1.1655768 q 0.03104,0 0.04798,0.0198 0.01693,0.0169 0.01693,0.048 v 0.10724 q 0,0.031 -0.01693,0.048 -0.01693,0.0169 -0.04798,0.0169 H 9.5627762 v 0.61807 h 0.8974658 q 0.03105,0 0.04798,0.0198 0.01693,0.0169 0.01693,0.048 v 0.10442 q 0,0.0282 -0.01693,0.048 -0.01693,0.0169 -0.04798,0.0169 H 9.5627762 v 0.64065 h 0.9821328 q 0.03104,0 0.04798,0.0169 0.01693,0.0169 0.01693,0.048 v 0.11007 q 0,0.0282 -0.01693,0.048 -0.01693,0.0169 -0.04798,0.0169 z m 1.7102678,0 q -0.03104,0 -0.04798,-0.0169 -0.01693,-0.0198 -0.01693,-0.048 v -1.84291 q 0,-0.0311 0.01693,-0.048 0.01693,-0.0198 0.04798,-0.0198 h 0.688622 q 0.318911,0 0.505177,0.14958 0.186267,0.14958 0.186267,0.44309 0,0.21731 -0.110067,0.3556 -0.107244,0.13546 -0.293511,0.18909 l 0.434622,0.75071 q 0.0085,0.0169 0.0085,0.031 0,0.0226 -0.01976,0.0395 -0.01693,0.0169 -0.03951,0.0169 h -0.135466 q -0.04798,0 -0.07056,-0.0254 -0.02258,-0.0254 -0.03951,-0.0508 l -0.409222,-0.71685 h -0.493888 v 0.72814 q 0,0.0282 -0.01976,0.048 -0.01693,0.0169 -0.04798,0.0169 z m 0.211667,-1.03294 h 0.465666 q 0.211666,0 0.316089,-0.0875 0.104422,-0.0903 0.104422,-0.26529 0,-0.17216 -0.104422,-0.26247 -0.1016,-0.0903 -0.316089,-0.0903 h -0.465666 z m 1.636889,1.03294 q -0.03104,0 -0.04798,-0.0169 -0.01693,-0.0198 -0.01693,-0.048 v -1.84291 q 0,-0.0311 0.01693,-0.048 0.01693,-0.0198 0.04798,-0.0198 H 13.6042 q 0.318911,0 0.505177,0.14958 0.186267,0.14958 0.186267,0.44309 0,0.21731 -0.110067,0.3556 -0.107244,0.13546 -0.293511,0.18909 l 0.434622,0.75071 q 0.0085,0.0169 0.0085,0.031 0,0.0226 -0.01976,0.0395 -0.01693,0.0169 -0.03951,0.0169 h -0.135466 q -0.04798,0 -0.07056,-0.0254 -0.02258,-0.0254 -0.03951,-0.0508 l -0.409222,-0.71685 h -0.493888 v 0.72814 q 0,0.0282 -0.01976,0.048 -0.01693,0.0169 -0.04798,0.0169 z m 0.211667,-1.03294 h 0.465666 q 0.211667,0 0.316089,-0.0875 0.104422,-0.0903 0.104422,-0.26529 0,-0.17216 -0.104422,-0.26247 -0.1016,-0.0903 -0.316089,-0.0903 h -0.465666 z" id="text14" style="font-size:2.82222px;font-family:Rubik;-inkscape-font-specification:'Rubik, Normal';fill:#ffffff" aria-label="ERR" />
    </g>
  </g>
</svg>