<?xml version="1.0" encoding="UTF-8" standalone="no"?>
<svg
   version="1.2"
   width="101.6mm"
   height="128.5mm"
   viewBox="0 0 10160 12850"
   preserveAspectRatio="xMidYMid"
   fill-rule="evenodd"
   stroke-width="28.222"
   stroke-linejoin="round"
   xml:space="preserve"
   id="svg488"
   sodipodi:docname="flux.svg"
   inkscape:version="1.4.3 (0d15f75, 2025-12-25)"
   inkscape:label="components"
   xmlns:inkscape="http://www.inkscape.org/namespaces/inkscape"
   xmlns:sodipodi="http://sodipodi.sourceforge.net/DTD/sodipodi-0.dtd"
   xmlns:xlink="http://www.w3.org/1999/xlink"
   xmlns="http://www.w3.org/2000/svg"
   xmlns:svg="http://www.w3.org/2000/svg">
  <defs
   id="defs1">
    <linearGradient
   id="linearGradient12"
   x1="0"
   y1="0"
   x2="0"
   y2="1">
      <stop
   offset="0"
   stop-color="#1ccad8"
   stop-opacity="0.65"
   id="stop11"
   style="stop-color:#6140bf;stop-opacity:1;" />
      <stop
   offset="1"
   stop-color="#7a5cff"
   stop-opacity="0.65"
   id="stop12" />
    </linearGradient>
    <linearGradient
   id="bgGrad"
   x1="1108.8855"
   y1="886.8808"
   x2="1108.8855"
   y2="12348.43"
   gradientTransform="scale(0.88934519,1.1244228)"
   gradientUnits="userSpaceOnUse">
      <stop
   offset="0%"
   stop-color="#0b0d10"
   id="stop1" />
      <stop
   offset="50%"
   stop-color="#10141a"
   id="stop2" />
      <stop
   offset="100%"
   stop-color="#07080a"
   id="stop3" />
    </linearGradient>
    <linearGradient
   id="panelSheen"
   x1="1258.4897"
   y1="999.76398"
   x2="1258.4897"
   y2="12199.481"
   gradientTransform="scale(0.88692179,1.1274951)"
   gradientUnits="userSpaceOnUse">
      <stop
   offset="0%"
   stop-color="#ffffff"
   stop-opacity="0.1"
   id="stop4" />
      <stop
   offset="15%"
   stop-color="#ffffff"
   stop-opacity="0.02"
   id="stop5" />
      <stop
   offset="50%"
   stop-color="#ffffff"
   stop-opacity="0.0"
   id="stop6" />
      <stop
   offset="85%"
   stop-color="#ffffff"
   stop-opacity="0.02"
   id="stop7" />
      <stop
   offset="100%"
   stop-color="#ffffff"
   stop-opacity="0.1"
   id="stop8" />
    </linearGradient>
    <linearGradient
   id="accentGrad"
   x1="0"
   y1="0"
   x2="0"
   y2="1">
      <stop
   offset="0%"
   stop-color="#1ccad8"
   stop-opacity="0.65"
   id="stop9" />
      <stop
   offset="100%"
   stop-color="#7a5cff"
   stop-opacity="0.65"
   id="stop10" />
    </linearGradient>
    <linearGradient
   inkscape:collect="always"
   xlink:href="#accentGrad"
   id="linearGradient5"
   x1="7682.791"
   y1="2750.0239"
   x2="7682.791"
   y2="4081.8435"
   gradientTransform="scale(0.72799063,1.3736441)"
   gradientUnits="userSpaceOnUse" />
    <linearGradient
   inkscape:collect="always"
   xlink:href="#accentGrad"
   id="linearGradient6"
   x1="7675.1646"
   y1="2750.0239"
   x2="7675.1646"
   y2="4081.8435"
   gradientTransform="scale(0.72799063,1.3736441)"
   gradientUnits="userSpaceOnUse" />
    <linearGradient
   inkscape:collect="always"
   xlink:href="#accentGrad"
   id="linearGradient7"
   x1="7337.5"
   y1="12057.5"
   x2="7337.5"
   y2="12302.5"
   gradientUnits="userSpaceOnUse"
   gradientTransform="translate(463.9818,852.48081)" />
    <linearGradient
   inkscape:collect="always"
   xlink:href="#accentGrad"
   id="linearGradient8"
   x1="4577.5"
   y1="12057.5"
   x2="4577.5"
   y2="12302.5"
   gradientUnits="userSpaceOnUse"
   gradientTransform="translate(-456.24877,852.49839)" />
    <linearGradient
   inkscape:collect="always"
   xlink:href="#accentGrad"
   id="linearGradient2"
   x1="4067.5"
   y1="2067.5"
   x2="4067.5"
   y2="2332.5"
   gradientUnits="userSpaceOnUse" />
    <linearGradient
   inkscape:collect="always"
   xlink:href="#accentGrad"
   id="linearGradient3"
   x1="7827.5"
   y1="2067.5"
   x2="7827.5"
   y2="2332.5"
   gradientUnits="userSpaceOnUse" />
    <linearGradient
   inkscape:collect="always"
   xlink:href="#accentGrad"
   id="linearGradient4"
   x1="2182.5"
   y1="9062.5"
   x2="2182.5"
   y2="9297.5"
   gradientUnits="userSpaceOnUse" />
    <linearGradient
   inkscape:collect="always"
   xlink:href="#accentGrad"
   id="linearGradient9"
   x1="9782.5"
   y1="9062.5"
   x2="9782.5"
   y2="9297.5"
   gradientUnits="userSpaceOnUse" />
    <linearGradient
   inkscape:collect="always"
   xlink:href="#accentGrad"
   id="linearGradient10"
   x1="1877.5"
   y1="11137.5"
   x2="1877.5"
   y2="11382.5"
   gradientUnits="userSpaceOnUse" />
    <linearGradient
   inkscape:collect="always"
   xlink:href="#accentGrad"
   id="linearGradient11"
   x1="10027.5"
   y1="11137.5"
   x2="10027.5"
   y2="11382.5"
   gradientUnits="userSpaceOnUse" />
  
    
    
    
    
    
    
  </defs>
  <sodipodi:namedview
   id="namedview488"
   pagecolor="#ffffff"
   bordercolor="#000000"
   borderopacity="0.25"
   inkscape:showpageshadow="2"
   inkscape:pageopacity="0.0"
   inkscape:pagecheckerboard="true"
   inkscape:deskcolor="#d1d1d1"
   inkscape:document-units="mm"
   inkscape:zoom="2.385554"
   inkscape:cx="201.00153"
   inkscape:cy="248.78917"
   inkscape:window-width="2560"
   inkscape:window-height="1377"
   inkscape:window-x="-8"
   inkscape:window-y="-8"
   inkscape:window-maximized="1"
   inkscape:current-layer="panel_art"
   showgrid="false"
   inkscape:pageshadow="2" />
  
  <g
   id="panel_art"
   style="display:inline"
   transform="matrix(0.99673566,0,0,0.99708035,-982.96277,-994.31744)">
    <g
   id="Background_Rect"
   style="display:inline">
      <rect
   x="986.18201"
   y="997.229"
   width="10193.273"
   height="12887.627"
   rx="260"
   ry="260"
   fill="url(#bgGrad)"
   id="rect10"
   style="display:inline;fill:url(#bgGrad)" />
      <rect
   x="1096.182"
   y="1107.229"
   width="9973.2734"
   height="12667.627"
   rx="210"
   ry="210"
   fill="none"
   stroke="#ffffff"
   stroke-opacity="0.1"
   stroke-width="60"
   id="rect11"
   style="display:inline" />
      <rect
   x="1116.182"
   y="1127.229"
   width="9933.2734"
   height="12627.627"
   rx="200"
   ry="200"
   fill="url(#panelSheen)"
   opacity="0.3"
   id="rect12"
   style="display:inline;fill:url(#panelSheen)" />
    </g>
    <g
   id="panel-mounting-holes">
      <circle
   cx="1346.1801"
   cy="1357.23"
   r="200"
   fill="none"
   stroke="#ffffff"
   stroke-opacity="0.18"
   stroke-width="70"
   id="circle12" />
      <circle
   cx="1346.1801"
   cy="1357.23"
   r="110"
   fill="#050607"
   stroke="#000000"
   stroke-opacity="0.55"
   stroke-width="40"
   id="circle13" />
      <circle
   cx="10819.46"
   cy="1357.23"
   r="200"
   fill="none"
   stroke="#ffffff"
   stroke-opacity="0.18"
   stroke-width="70"
   id="circle14" />
      <circle
   cx="10819.46"
   cy="1357.23"
   r="110"
   fill="#050607"
   stroke="#000000"
   stroke-opacity="0.55"
   stroke-width="40"
   id="circle15" />
      <circle
   cx="1346.1801"
   cy="13524.86"
   r="200"
   fill="none"
   stroke="#ffffff"
   stroke-opacity="0.18"
   stroke-width="70"
   id="circle16" />
      <circle
   cx="1346.1801"
   cy="13524.86"
   r="110"
   fill="#050607"
   stroke="#000000"
   stroke-opacity="0.55"
   stroke-width="40"
   id="circle17" />
      <circle
   cx="10819.46"
   cy="13524.86"
   r="200"
   fill="none"
   stroke="#ffffff"
   stroke-opacity="0.18"
   stroke-width="70"
   id="circle18" />
      <circle
   cx="10819.46"
   cy="13524.86"
   r="110"
   fill="#050607"
   stroke="#000000"
   stroke-opacity="0.55"
   stroke-width="40"
   id="circle19" />
    </g>
    <rect
   x="1136.182"
   y="1167.229"
   width="9893.2734"
   height="820"
   rx="160"
   ry="160"
   fill="#000000"
   opacity="0.22"
   id="rect19" />
    <text
   x="6082.8198"
   y="1587.23"
   text-anchor="middle"
   font-family="Orbitron, 'Bank Gothic', 'DejaVu Sans', sans-serif"
   font-size="520px"
   font-weight="700"
   letter-spacing="18"
   fill="#f1f6ff"
   fill-opacity="0.92"
   id="text19"
   style="font-style:normal;font-variant:normal;font-weight:normal;font-stretch:normal;font-size:520px;font-family:Consolas;-inkscape-font-specification:'Consolas, Normal';font-variant-ligatures:normal;font-variant-caps:normal;font-variant-numeric:normal;font-variant-east-asian:normal;letter-spacing:18;text-anchor:middle;fill:#f1f6ff;fill-opacity:0.92;stroke-width:28.2418;stroke-dasharray:none">FLUX²</text>
    <text
   x="6082.8198"
   y="1867.23"
   text-anchor="middle"
   font-family="Montserrat, 'DejaVu Sans', sans-serif"
   font-size="190px"
   font-weight="500"
   letter-spacing="3"
   fill="#d7deea"
   fill-opacity="0.7"
   id="text20">generator • attenuverters • mix/logic</text>
    <g
   id="panel_graphics"
   style="display:inline">
      <g
   id="grp_frame"
   inkscape:label="Frame"
   style="display:inline">
        <rect
   x="1166.1801"
   y="2100"
   width="4700"
   height="7250"
   rx="180"
   ry="180"
   fill="#000000"
   opacity="0.1"
   stroke="#ffffff"
   stroke-opacity="0.06"
   stroke-width="45"
   id="frame_left" />
        <rect
   x="6390"
   y="2100"
   width="4700"
   height="7250"
   rx="180"
   ry="180"
   fill="#000000"
   opacity="0.1"
   stroke="#ffffff"
   stroke-opacity="0.06"
   stroke-width="45"
   id="frame_right" />
        <rect
   x="2000"
   y="8650.0371"
   width="8400"
   height="2750"
   rx="180"
   ry="180"
   fill="#000000"
   opacity="0.1"
   stroke="#ffffff"
   stroke-opacity="0.06"
   stroke-width="45"
   id="frame_outputs" />
        <rect
   x="1166.1801"
   y="11520"
   width="9833.2695"
   height="1500"
   rx="180"
   ry="180"
   fill="#000000"
   opacity="0.1"
   stroke="#ffffff"
   stroke-opacity="0.06"
   stroke-width="45"
   id="frame_bottom" />
      </g>
      <g
   id="grp_genA"
   inkscape:label="Gen A + Loop">
        <circle
   cx="2000"
   cy="2550"
   r="454.70001"
   fill="none"
   stroke="#ffffff"
   stroke-opacity="0.15"
   stroke-width="70"
   id="ring_in1_o" />
        
        <text
   x="2000"
   y="3250.251"
   text-anchor="middle"
   font-family="Montserrat, 'DejaVu Sans', sans-serif"
   font-size="210px"
   font-weight="700"
   letter-spacing="4"
   fill="#eaf1ff"
   fill-opacity="0.78"
   id="lbl_in1">IN 1</text>
        <circle
   cx="3100"
   cy="2550"
   r="454.70001"
   fill="none"
   stroke="#ffffff"
   stroke-opacity="0.15"
   stroke-width="70"
   id="ring_trig1_o" />
        
        <text
   x="3100"
   y="3250.251"
   text-anchor="middle"
   font-family="Montserrat, 'DejaVu Sans', sans-serif"
   font-size="200px"
   font-weight="700"
   letter-spacing="4"
   fill="#eaf1ff"
   fill-opacity="0.68"
   id="lbl_trig1">TRIG</text>
        <circle
   cx="4200"
   cy="2500"
   r="115"
   fill="url(#accentGrad)"
   opacity="0.95"
   stroke="#ffffff"
   stroke-opacity="0.25"
   stroke-width="35"
   id="led_loop1"
   style="fill:url(#linearGradient2)" />
        <text
   x="4200"
   y="3690.1956"
   text-anchor="middle"
   font-family="Montserrat, 'DejaVu Sans', sans-serif"
   font-size="190px"
   font-weight="700"
   letter-spacing="3"
   fill="#eaf1ff"
   fill-opacity="0.62"
   id="lbl_loop1">LOOP</text>
        <circle
   cx="4200"
   cy="3100"
   r="360"
   fill="none"
   stroke="#ffffff"
   stroke-opacity="0.15"
   stroke-width="70"
   id="ring_loopbtn1_o" />
        
        <circle
   cx="5000"
   cy="3100"
   r="300"
   fill="none"
   stroke="#ffffff"
   stroke-opacity="0.15"
   stroke-width="70"
   id="ring_loopA_cv_o" />
        
      </g>
      <g
   id="grp_genB"
   inkscape:label="Gen B + Loop">
        <circle
   cx="7960"
   cy="2500"
   r="115"
   fill="url(#accentGrad)"
   opacity="0.95"
   stroke="#ffffff"
   stroke-opacity="0.25"
   stroke-width="35"
   id="led_loop4"
   style="fill:url(#linearGradient3)" />
        <circle
   cx="7960"
   cy="3100"
   r="360"
   fill="none"
   stroke="#ffffff"
   stroke-opacity="0.15"
   stroke-width="70"
   id="ring_loopbtn4_o" />
        
        <text
   x="7960"
   y="3690.1956"
   text-anchor="middle"
   font-family="Montserrat, 'DejaVu Sans', sans-serif"
   font-size="190px"
   font-weight="700"
   letter-spacing="3"
   fill="#eaf1ff"
   fill-opacity="0.62"
   id="lbl_loop4">LOOP</text>
        <circle
   cx="9050"
   cy="2550"
   r="454.70001"
   fill="none"
   stroke="#ffffff"
   stroke-opacity="0.15"
   stroke-width="70"
   id="ring_trig4_o" />
        
        <text
   x="9050"
   y="3250.251"
   text-anchor="middle"
   font-family="Montserrat, 'DejaVu Sans', sans-serif"
   font-size="200px"
   font-weight="700"
   letter-spacing="4"
   fill="#eaf1ff"
   fill-opacity="0.68"
   id="lbl_trig4">TRIG</text>
        <circle
   cx="10150"
   cy="2550"
   r="454.70001"
   fill="none"
   stroke="#ffffff"
   stroke-opacity="0.15"
   stroke-width="70"
   id="ring_in4_o" />
        
        <text
   x="10150"
   y="3250.251"
   text-anchor="middle"
   font-family="Montserrat, 'DejaVu Sans', sans-serif"
   font-size="210px"
   font-weight="700"
   letter-spacing="4"
   fill="#eaf1ff"
   fill-opacity="0.78"
   id="lbl_in4">IN 4</text>
        <circle
   cx="7160"
   cy="3100"
   r="300"
   fill="none"
   stroke="#ffffff"
   stroke-opacity="0.15"
   stroke-width="70"
   id="ring_loopB_cv_o" />
        
      </g>
      <g
   id="grp_slewA"
   inkscape:label="Slew A">
        <circle
   cx="3257.6777"
   cy="4682.3936"
   r="300"
   fill="none"
   stroke="#ffffff"
   stroke-opacity="0.15"
   stroke-width="70"
   id="ring_surgeA_cv_o" />
        
        <circle
   cx="4388.54"
   cy="4650"
   r="520"
   fill="none"
   stroke="#ffffff"
   stroke-opacity="0.15"
   stroke-width="70"
   id="ring_surgeA_o" />
        
        <text
   x="4388.54"
   y="5527.0972"
   text-anchor="middle"
   font-family="Montserrat, 'DejaVu Sans', sans-serif"
   font-size="240px"
   font-weight="800"
   letter-spacing="5"
   fill="#eaf1ff"
   fill-opacity="0.72"
   id="lbl_surgeA">SURGE</text>
        <circle
   cx="4283.1519"
   cy="7354.9507"
   r="300"
   fill="none"
   stroke="#ffffff"
   stroke-opacity="0.15"
   stroke-width="70"
   id="ring_sinkA_cv_o" />
        
        <circle
   cx="5216.54"
   cy="6333.5591"
   r="520"
   fill="none"
   stroke="#ffffff"
   stroke-opacity="0.15"
   stroke-width="70"
   id="ring_sinkA_o" />
        
        <text
   x="5216.54"
   y="7270"
   text-anchor="middle"
   font-family="Montserrat, 'DejaVu Sans', sans-serif"
   font-size="240px"
   font-weight="800"
   letter-spacing="5"
   fill="#eaf1ff"
   fill-opacity="0.72"
   id="lbl_sinkA">SINK</text>
        <circle
   cx="3844.623"
   cy="6172.1733"
   r="300"
   fill="none"
   stroke="#ffffff"
   stroke-opacity="0.15"
   stroke-width="70"
   id="ring_bothA_cv_o" />
        
        <text
   x="3853.4072"
   y="6729.5371"
   text-anchor="middle"
   font-family="Montserrat, 'DejaVu Sans', sans-serif"
   font-size="165px"
   font-weight="700"
   letter-spacing="2"
   fill="#eaf1ff"
   fill-opacity="0.52"
   id="lbl_bothA">BOTH</text>
        <ellipse
   cx="2391.7258"
   cy="6744.7744"
   fill="none"
   stroke="#ffffff"
   stroke-opacity="0.15"
   stroke-width="71.5728"
   id="ring_curveA_o"
   rx="544.07501"
   ry="519.57361" />
        
        <text
   x="2337.252"
   y="7768.4551"
   text-anchor="middle"
   font-family="Montserrat, 'DejaVu Sans', sans-serif"
   font-size="224.942px"
   font-weight="800"
   letter-spacing="5"
   fill="#eaf1ff"
   fill-opacity="0.58"
   id="lbl_curveA"
   transform="scale(1.0233068,0.97722402)"
   style="stroke-width:28.856">CURVE</text>
      </g>
      <g
   id="grp_slewB"
   inkscape:label="Slew B">
        <circle
   cx="8918.8623"
   cy="4682.3936"
   r="300"
   fill="none"
   stroke="#ffffff"
   stroke-opacity="0.15"
   stroke-width="70"
   id="ring_surgeB_cv_o" />
        
        <circle
   cx="7788"
   cy="4650"
   r="520"
   fill="none"
   stroke="#ffffff"
   stroke-opacity="0.15"
   stroke-width="70"
   id="ring_surgeB_o" />
        
        <text
   x="7788"
   y="5527.0972"
   text-anchor="middle"
   font-family="Montserrat, 'DejaVu Sans', sans-serif"
   font-size="240px"
   font-weight="800"
   letter-spacing="5"
   fill="#eaf1ff"
   fill-opacity="0.72"
   id="lbl_surgeB">SURGE</text>
        <circle
   cx="7893.3882"
   cy="7354.9507"
   r="300"
   fill="none"
   stroke="#ffffff"
   stroke-opacity="0.15"
   stroke-width="70"
   id="ring_sinkB_cv_o" />
        
        <circle
   cx="6960"
   cy="6333.5591"
   r="520"
   fill="none"
   stroke="#ffffff"
   stroke-opacity="0.15"
   stroke-width="70"
   id="ring_sinkB_o" />
        
        <text
   x="6960"
   y="7270"
   text-anchor="middle"
   font-family="Montserrat, 'DejaVu Sans', sans-serif"
   font-size="240px"
   font-weight="800"
   letter-spacing="5"
   fill="#eaf1ff"
   fill-opacity="0.72"
   id="lbl_sinkB">SINK</text>
        <ellipse
   cx="9807.0693"
   cy="6744.7744"
   fill="none"
   stroke="#ffffff"
   stroke-opacity="0.15"
   stroke-width="71.5728"
   id="ring_curveB_o"
   rx="544.07501"
   ry="519.57361" />
        
        <text
   x="9583.7031"
   y="7768.4551"
   text-anchor="middle"
   font-family="Montserrat, 'DejaVu Sans', sans-serif"
   font-size="224.942px"
   font-weight="800"
   letter-spacing="5"
   fill="#eaf1ff"
   fill-opacity="0.58"
   id="lbl_curveB"
   transform="scale(1.0233068,0.97722402)"
   style="stroke-width:28.856">CURVE</text>
        <circle
   cx="8331.917"
   cy="6172.1733"
   r="300"
   fill="none"
   stroke="#ffffff"
   stroke-opacity="0.15"
   stroke-width="70"
   id="ring_bothB_cv_o" />
        
        <text
   x="8323.1328"
   y="6729.5371"
   text-anchor="middle"
   font-family="Montserrat, 'DejaVu Sans', sans-serif"
   font-size="165px"
   font-weight="700"
   letter-spacing="2"
   fill="#eaf1ff"
   fill-opacity="0.52"
   id="lbl_bothB">BOTH</text>
      </g>
      <g
   id="grp_mid"
   inkscape:label="Mid Inputs">
        <circle
   cx="5200"
   cy="8600"
   r="300"
   fill="none"
   stroke="#ffffff"
   stroke-opacity="0.15"
   stroke-width="70"
   id="ring_in2_o" />
        
        <text
   x="5204.854"
   y="8062.667"
   text-anchor="middle"
   font-family="Montserrat, 'DejaVu Sans', sans-serif"
   font-size="200px"
   font-weight="700"
   letter-spacing="3"
   fill="#eaf1ff"
   fill-opacity="0.62"
   id="lbl_in2">IN 2</text>
        <circle
   cx="6960"
   cy="8600"
   r="300"
   fill="none"
   stroke="#ffffff"
   stroke-opacity="0.15"
   stroke-width="70"
   id="ring_in3_o" />
        
        <text
   x="6959.894"
   y="8062.667"
   text-anchor="middle"
   font-family="Montserrat, 'DejaVu Sans', sans-serif"
   font-size="200px"
   font-weight="700"
   letter-spacing="3"
   fill="#eaf1ff"
   fill-opacity="0.62"
   id="lbl_in3">IN 3</text>
      </g>
      <g
   id="grp_outputs"
   inkscape:label="Outputs + EoR/EoC"
   style="display:inline">
        <circle
   cx="2660"
   cy="10710"
   r="100"
   fill="url(#accentGrad)"
   opacity="0.95"
   stroke="#ffffff"
   stroke-opacity="0.25"
   stroke-width="35"
   id="led_eor"
   style="fill:url(#linearGradient4)" />
        <text
   x="2000"
   y="10158.882"
   text-anchor="middle"
   font-family="Montserrat, 'DejaVu Sans', sans-serif"
   font-size="200px"
   font-weight="700"
   letter-spacing="4"
   fill="#eaf1ff"
   fill-opacity="0.65"
   id="lbl_eor">EoR</text>
        <circle
   cx="2000"
   cy="10730"
   r="454.70001"
   fill="none"
   stroke="#ffffff"
   stroke-opacity="0.15"
   stroke-width="70"
   id="ring_eor_o" />
        
        <circle
   cx="9490"
   cy="10710"
   r="100"
   fill="url(#accentGrad)"
   opacity="0.95"
   stroke="#ffffff"
   stroke-opacity="0.25"
   stroke-width="35"
   id="led_eoc"
   style="fill:url(#linearGradient9)" />
        <text
   x="10150"
   y="10158.882"
   text-anchor="middle"
   font-family="Montserrat, 'DejaVu Sans', sans-serif"
   font-size="200px"
   font-weight="700"
   letter-spacing="4"
   fill="#eaf1ff"
   fill-opacity="0.65"
   id="lbl_eoc">EoC</text>
        <circle
   cx="10150"
   cy="10730"
   r="454.70001"
   fill="none"
   stroke="#ffffff"
   stroke-opacity="0.15"
   stroke-width="70"
   id="ring_eoc_o" />
        
        <circle
   cx="3600"
   cy="9680"
   r="454.70001"
   fill="none"
   stroke="#ffffff"
   stroke-opacity="0.15"
   stroke-width="70"
   id="ring_att1_o" />
        
        <circle
   cx="5200"
   cy="9680"
   r="454.70001"
   fill="none"
   stroke="#ffffff"
   stroke-opacity="0.15"
   stroke-width="70"
   id="ring_att2_o" />
        
        <circle
   cx="6960"
   cy="9680"
   r="454.70001"
   fill="none"
   stroke="#ffffff"
   stroke-opacity="0.15"
   stroke-width="70"
   id="ring_att3_o" />
        
        <circle
   cx="8600"
   cy="9680"
   r="454.70001"
   fill="none"
   stroke="#ffffff"
   stroke-opacity="0.15"
   stroke-width="70"
   id="ring_att4_o" />
        
        <circle
   cx="3600"
   cy="10730"
   r="454.70001"
   fill="none"
   stroke="#ffffff"
   stroke-opacity="0.15"
   stroke-width="70"
   id="ring_out1_o" />
        
        <text
   x="3600"
   y="11350"
   text-anchor="middle"
   font-family="Montserrat, 'DejaVu Sans', sans-serif"
   font-size="210px"
   font-weight="700"
   letter-spacing="4"
   fill="#eaf1ff"
   fill-opacity="0.62"
   id="lbl_out1">OUT 1</text>
        <circle
   cx="5200"
   cy="10730"
   r="454.70001"
   fill="none"
   stroke="#ffffff"
   stroke-opacity="0.15"
   stroke-width="70"
   id="ring_out2_o" />
        
        <text
   x="5200"
   y="11350"
   text-anchor="middle"
   font-family="Montserrat, 'DejaVu Sans', sans-serif"
   font-size="210px"
   font-weight="700"
   letter-spacing="4"
   fill="#eaf1ff"
   fill-opacity="0.62"
   id="lbl_out2">OUT 2</text>
        <circle
   cx="6960"
   cy="10730"
   r="454.70001"
   fill="none"
   stroke="#ffffff"
   stroke-opacity="0.15"
   stroke-width="70"
   id="ring_out3_o" />
        
        <text
   x="6960"
   y="11350"
   text-anchor="middle"
   font-family="Montserrat, 'DejaVu Sans', sans-serif"
   font-size="210px"
   font-weight="700"
   letter-spacing="4"
   fill="#eaf1ff"
   fill-opacity="0.62"
   id="lbl_out3">OUT 3</text>
        <circle
   cx="8600"
   cy="10730"
   r="454.70001"
   fill="none"
   stroke="#ffffff"
   stroke-opacity="0.15"
   stroke-width="70"
   id="ring_out4_o" />
        
        <text
   x="8600"
   y="11350"
   text-anchor="middle"
   font-family="Montserrat, 'DejaVu Sans', sans-serif"
   font-size="210px"
   font-weight="700"
   letter-spacing="4"
   fill="#eaf1ff"
   fill-opacity="0.62"
   id="lbl_out4">OUT 4</text>      </g>
      <g
   id="grp_logic"
   inkscape:label="Mix/Logic + S1/S4">
        <circle
   cx="2000"
   cy="11860"
   r="454.70001"
   fill="none"
   stroke="#ffffff"
   stroke-opacity="0.15"
   stroke-width="70"
   id="ring_s1_o" />
        
        <text
   x="2000"
   y="12590.281"
   text-anchor="middle"
   font-family="Montserrat, 'DejaVu Sans', sans-serif"
   font-size="220px"
   font-weight="800"
   letter-spacing="6"
   fill="#eaf1ff"
   fill-opacity="0.7"
   id="lbl_s1">S1</text>
        <circle
   cx="2660"
   cy="11840"
   r="105"
   fill="url(#accentGrad)"
   opacity="0.95"
   stroke="#ffffff"
   stroke-opacity="0.25"
   stroke-width="35"
   id="led_s1"
   style="fill:url(#linearGradient10)" />
        <circle
   cx="4900"
   cy="12130.806"
   r="454.70001"
   fill="none"
   stroke="#ffffff"
   stroke-opacity="0.15"
   stroke-width="70"
   id="ring_or_o" />
        
        <path
   d="m 4812.2021,12687.645 q -18.9062,0 -29.3261,13.964 -10.4199,13.965 -10.4199,39.317 0,25.244 10.4199,39.209 10.4199,13.965 29.3261,13.965 19.0137,0 29.4336,-13.965 10.42,-13.965 10.42,-39.209 0,-25.352 -10.42,-39.317 -10.4199,-13.964 -29.4336,-13.964 z m 0,-29.971 q 38.6719,0 60.586,22.129 21.914,22.129 21.914,61.123 0,38.887 -21.914,61.015 -21.9141,22.129 -60.586,22.129 -38.5644,0 -60.5859,-22.129 -21.9141,-22.128 -21.9141,-61.015 0,-38.994 21.9141,-61.123 22.0215,-22.129 60.5859,-22.129 z m 178.5196,74.014 q 12.998,0 18.584,-4.834 5.6933,-4.834 5.6933,-15.899 0,-10.957 -5.6933,-15.684 -5.586,-4.726 -18.584,-4.726 h -17.4024 v 41.143 z m -17.4024,28.574 v 60.693 h -41.3574 v -160.381 h 63.1641 q 31.6894,0 46.4062,10.635 14.8242,10.635 14.8242,33.623 0,15.898 -7.7343,26.104 -7.627,10.205 -23.0957,15.039 8.4863,1.933 15.1465,8.808 6.7675,6.768 13.6425,20.625 l 22.4512,45.547 h -44.043 l -19.5507,-39.853 q -5.9083,-12.032 -12.0313,-16.436 -6.0156,-4.404 -16.1133,-4.404 z"
   id="lbl_or"
   style="font-weight:800;font-size:220px;font-family:Montserrat, 'DejaVu Sans', sans-serif;letter-spacing:6;text-anchor:middle;fill:#eaf1ff;fill-opacity:0.72"
   aria-label="OR" />
        <circle
   cx="4240"
   cy="12110.806"
   r="105"
   fill="url(#accentGrad)"
   opacity="0.95"
   stroke="#ffffff"
   stroke-opacity="0.25"
   stroke-width="35"
   id="led_or"
   style="fill:url(#linearGradient8)" />
        <circle
   cx="6080"
   cy="12130.806"
   r="454.70001"
   fill="none"
   stroke="#ffffff"
   stroke-opacity="0.15"
   stroke-width="70"
   id="ring_sum_o" />
        
        <path
   d="m 5927.7568,12665.623 v 33.945 q -13.2129,-5.908 -25.7812,-8.916 -12.5684,-3.007 -23.7402,-3.007 -14.8243,0 -21.9141,4.082 -7.0899,4.082 -7.0899,12.675 0,6.446 4.7266,10.098 4.834,3.545 17.4024,6.123 l 17.6171,3.545 q 26.7481,5.371 38.0274,16.328 11.2793,10.957 11.2793,31.152 0,26.534 -15.791,39.532 -15.6836,12.89 -48.0176,12.89 -15.2539,0 -30.6152,-2.9 -15.3614,-2.9 -30.7227,-8.594 v -34.912 q 15.3613,8.164 29.6484,12.354 14.3946,4.082 27.7149,4.082 13.5351,0 20.7324,-4.512 7.1973,-4.512 7.1973,-12.891 0,-7.519 -4.9414,-11.601 -4.834,-4.082 -19.4434,-7.305 l -16.0059,-3.545 q -24.0625,-5.156 -35.2343,-16.435 -11.0645,-11.28 -11.0645,-30.401 0,-23.955 15.4688,-36.846 15.4687,-12.89 44.4726,-12.89 13.2129,0 27.1778,2.041 13.9648,1.933 28.8964,5.908 z m 52.836,-5.049 h 41.3574 v 96.143 q 0,19.873 6.4453,28.467 6.5527,8.486 21.2695,8.486 14.8243,0 21.2696,-8.486 6.5527,-8.594 6.5527,-28.467 v -96.143 h 41.3574 v 96.143 q 0,34.053 -17.0801,50.703 -17.08,16.65 -52.0996,16.65 -34.9121,0 -51.9921,-16.65 -17.0801,-16.65 -17.0801,-50.703 z m 184.6426,0 h 52.6367 l 36.5234,85.83 36.7383,-85.83 h 52.5293 v 160.381 h -39.1016 v -117.305 l -36.9531,86.475 h -26.2109 l -36.9532,-86.475 v 117.305 h -39.2089 z"
   id="lbl_sum"
   style="font-weight:800;font-size:220px;font-family:Montserrat, 'DejaVu Sans', sans-serif;letter-spacing:6;text-anchor:middle;fill:#eaf1ff;fill-opacity:0.72"
   aria-label="SUM" />
        <circle
   cx="7260"
   cy="12130.806"
   r="454.70001"
   fill="none"
   stroke="#ffffff"
   stroke-opacity="0.15"
   stroke-width="70"
   id="ring_inv_o" />
        
        <path
   d="m 7056.0332,12660.574 h 41.3574 v 160.381 h -41.3574 z m 87.8555,0 h 46.1914 l 58.3301,110 v -110 h 39.2089 v 160.381 h -46.1914 l -58.33,-110 v 110 h -39.209 z m 171,0 h 41.5722 l 42.5391,118.379 42.4316,-118.379 h 41.5723 l -59.4043,160.381 h -49.3066 z"
   id="lbl_inv"
   style="font-weight:800;font-size:220px;font-family:Montserrat, 'DejaVu Sans', sans-serif;letter-spacing:6;text-anchor:middle;fill:#eaf1ff;fill-opacity:0.72"
   aria-label="INV" />
        <circle
   fill="url(#accentGrad)"
   opacity="0.95"
   stroke="#ffffff"
   stroke-opacity="0.25"
   stroke-width="35"
   id="led_inv"
   style="display:inline;fill:url(#linearGradient7)"
   r="105"
   cy="12110.806"
   cx="7920" />
        <circle
   cx="10150"
   cy="11860"
   r="454.70001"
   fill="none"
   stroke="#ffffff"
   stroke-opacity="0.15"
   stroke-width="70"
   id="ring_s4_o" />
        
        <text
   x="10150"
   y="12590.281"
   text-anchor="middle"
   font-family="Montserrat, 'DejaVu Sans', sans-serif"
   font-size="220px"
   font-weight="800"
   letter-spacing="6"
   fill="#eaf1ff"
   fill-opacity="0.7"
   id="lbl_s4">S4</text>
        <circle
   cx="9490"
   cy="11840"
   r="105"
   fill="url(#accentGrad)"
   opacity="0.95"
   stroke="#ffffff"
   stroke-opacity="0.25"
   stroke-width="35"
   id="led_s4"
   style="fill:url(#linearGradient11)" />
      </g>
      <g
   id="grp_brand"
   inkscape:label="Branding"
   transform="translate(0,110.35431)">
        <path
   d="m 5204.6964,13132.535 -16.5612,-15.287 10.8284,-12.74 q -1.2739,-1.274 -2.5478,-1.911 -0.637,-0.637 -1.274,-1.91 l -3.8218,-3.822 q -1.9109,-1.274 -5.0958,-2.548 -2.5478,-1.911 -7.6436,-6.37 -3.8218,-1.911 -8.2806,-4.459 -4.4588,-3.185 -9.5545,-7.006 h -1.911 l -1.2739,-0.637 h -3.8218 l -0.637,-0.637 q -21.657,0 -28.6636,12.102 -6.3697,8.281 -6.3697,12.74 v 193.638 q 0,8.918 -4.4588,19.11 -3.8218,9.554 -10.8285,18.472 -6.3697,8.28 -14.6503,15.287 -8.2806,7.007 -17.1982,10.828 v -0.637 q -3.1849,2.548 -7.6437,3.822 -4.4587,0.637 -12.7394,3.822 h 0.637 q -1.2739,0.637 -2.5479,0.637 -0.6369,0 -1.2739,0.637 -1.2739,0 -2.5479,0.637 -1.2739,0 -2.5479,0 -1.9109,0.637 -5.0957,0.637 h -9.5546 q 8.9176,-8.918 14.0134,-18.472 5.0957,-9.555 6.3697,-21.02 v -3.185 q 0,-2.548 0.6369,-5.733 0,-1.274 0,-1.911 0.637,-0.637 0.637,-1.911 v -177.077 q 0,-34.397 55.4164,-70.067 50.9576,-33.122 87.2649,-33.122 h 2.5479 q 10.8284,0 41.403,12.102 19.1091,9.555 26.1158,21.657 z m 4.4588,324.218 q -70.7037,-29.938 -143.9552,-29.938 -63.0601,0 -110.8328,21.657 -4.4588,1.274 -10.8285,4.459 -5.7327,3.822 -12.7394,7.007 14.0133,-26.753 36.3073,-45.862 22.2939,-19.109 54.7794,-31.849 55.4164,-22.294 113.3807,-22.294 38.2181,0 66.8818,9.555 v -117.84 q -10.8285,-3.821 -10.8285,-19.109 0,-8.917 7.0067,-15.924 7.0066,-7.644 15.9242,-7.644 8.9176,0 15.2873,7.644 7.0067,7.007 7.0067,15.924 0,15.288 -11.4655,20.383 v 122.936 q 1.274,1.273 7.0067,2.547 l 2.5479,1.911 h -1.274 q 2.5479,1.274 3.1849,1.911 v -0.637 l 1.2739,0.637 0.637,0.637 2.5479,1.274 8.9175,-10.828 17.8352,14.013 z m -175.8037,-339.505 4.4587,1.274 q -7.6436,22.931 -7.6436,24.842 l -1.2739,178.988 v 1.274 q 0,9.555 -10.1916,25.479 -27.3897,43.951 -73.2515,48.41 15.2873,-24.842 15.2873,-48.41 v -64.971 q -1.274,-1.274 -4.4588,-1.911 -2.5479,-1.274 -5.7327,-3.822 h -1.911 q -7.0066,0 -12.7393,4.459 -5.7328,4.459 -6.3697,11.465 l 0.6369,0.637 v 4.459 h -3.1848 l -0.637,0.637 h -2.5479 q -10.8285,0 -19.746,-9.554 -8.2807,-10.192 -8.9176,-21.02 -0.637,-1.274 -0.637,-7.007 0,-35.033 38.2182,-49.684 6.3697,-1.274 12.7394,-1.911 7.0067,-1.274 15.2873,-2.548 v -23.567 q 0,-8.918 0.6369,-12.103 2.5479,-17.835 29.3007,-36.307 25.4788,-19.746 43.9509,-19.746 z m 55.4163,-62.423 q -3.1848,26.752 -30.5745,43.951 -24.2049,17.198 -50.9576,17.198 -15.9243,0 -35.0334,-7.644 -4.4588,0 -5.0957,-1.274 -2.5479,-1.274 -4.4588,-1.911 -2.5479,0 -3.8218,-0.637 -3.8219,-1.274 -9.5546,-1.911 -5.7327,-1.274 -7.6436,-1.274 l -0.637,0.637 q -7.0067,0 -9.5545,1.911 -3.8219,0 -8.2806,4.459 -2.5479,0.637 -7.6437,4.459 -4.4588,3.185 -11.4654,8.918 v -6.37 q 0,-35.67 19.746,-57.327 19.7461,-22.294 54.1425,-22.294 10.8285,0 22.9309,3.184 12.7394,2.548 27.3897,7.644 29.3006,10.829 42.04,10.829 1.9109,0 4.4588,-0.637 2.5479,-0.637 6.3697,-1.911 1.2739,-1.274 4.4588,-2.548 z m 412.3741,210.2 q -7.6436,3.822 -30.5746,17.198 -22.2939,12.739 -61.1491,35.67 -5.7327,3.185 -12.7394,8.281 v 47.773 q 19.7461,3.184 36.3073,8.28 17.1982,5.096 31.8485,12.103 l 15.2873,-15.925 15.9242,14.651 -57.9642,63.697 -6.3697,-3.185 q -13.3764,-7.007 -26.1158,-13.376 -12.7394,-5.733 -29.3006,-8.918 -28.0267,-5.733 -48.4097,-5.733 -7.6437,0 -15.2873,1.274 -7.6436,0.637 -15.2873,1.911 1.274,-3.185 2.5479,-5.096 1.2739,-2.548 2.5479,-3.822 v 0.637 q 4.4588,-7.006 7.0066,-11.465 3.1849,-4.459 3.8219,-5.096 4.4588,-5.732 17.1982,-15.287 v -154.147 q 0,-9.554 -10.1916,-31.848 v -8.918 l 5.7328,5.733 h 3.8218 l 0.637,0.637 h 1.9109 l 1.9109,0.637 h 2.5479 q 50.3206,0 113.3806,-42.04 3.1849,11.465 8.2806,24.842 5.0958,13.376 14.0134,29.937 8.2806,14.651 15.2872,27.39 7.6437,12.102 14.0134,21.02 z m -99.3673,-50.321 -5.0958,1.274 v 81.532 l 34.3964,-22.294 q -2.5479,-3.822 -6.3697,-9.554 -3.1848,-6.37 -7.6436,-15.925 -4.4588,-8.28 -8.2806,-17.198 -3.8219,-8.917 -7.0067,-17.835 z m 387.5313,-8.28 v 3.821 l -0.637,1.274 q 0,7.644 -6.3697,15.288 -5.7327,7.006 -16.5612,15.287 v 156.058 q 0,5.732 1.9109,8.28 l 8.2806,20.383 -1.274,-0.637 v 3.822 q -15.2872,0 -17.8351,-0.637 h -3.8218 q -13.3764,0 -32.4855,3.822 -19.1091,4.459 -45.2249,12.739 -36.3073,11.466 -52.8685,11.466 -17.8351,0 -27.3897,-3.822 -25.4788,-9.555 -25.4788,-48.41 v -161.79 q 0,-5.096 -7.6436,-11.466 -7.6437,-7.006 -13.3764,-7.006 h -1.2739 l -1.9109,-0.637 h -4.4588 l -1.274,-0.637 h -3.8218 v -4.459 l 66.8819,-53.506 q 20.383,4.459 31.8485,27.39 3.1848,5.733 3.1848,14.014 v 176.44 q 0,14.014 10.8285,22.294 10.8285,7.644 26.7527,7.644 22.294,0 22.294,-14.014 v -153.509 q -12.7394,-3.822 -19.7461,-14.651 l -8.9176,5.733 -10.1915,-15.924 68.7928,-52.232 q 25.4788,33.76 47.1357,33.76 6.3697,0 15.2873,-5.733 v 8.281 z m 125.0997,249.692 q -10.1915,-0.637 -20.383,-4.459 -10.1916,-3.185 -19.1091,-10.829 -19.1091,-15.287 -19.1091,-35.033 v -160.516 q -9.5546,-0.637 -14.6503,-11.466 l -8.9176,5.096 -8.9176,-12.739 1.9109,-3.185 0.637,0.637 1.2739,-1.274 1.274,-0.637 q 6.3697,-5.733 14.0133,-12.74 7.6436,-7.643 20.383,-18.472 7.0067,-4.458 17.1982,-14.013 l 2.5479,-1.911 q 1.9109,-1.911 3.8218,-3.822 v -7.643 q 26.1158,36.944 45.8619,36.944 4.4588,0 20.383,-8.918 v 7.644 q -1.2739,3.822 -1.2739,8.917 -5.0958,14.651 -13.3764,24.205 -8.2806,8.918 -17.1982,12.74 v 135.674 q 0,3.822 3.1849,10.192 5.7327,12.102 26.1157,12.102 7.0067,0 16.5612,-3.822 l 2.5479,4.459 z m -17.1982,-298.739 h -5.0957 v -0.637 h -6.3697 l -1.274,-0.637 q -24.2048,0 -29.9376,-19.746 l -10.1915,5.096 -8.2806,-14.014 q 5.0958,-5.095 10.8285,-7.643 5.7327,-3.185 10.8285,-5.733 l -1.274,1.274 q 1.9109,-1.274 5.0958,-3.822 3.8218,-3.185 7.0067,-5.733 4.4588,-3.185 10.1915,-7.643 6.3697,-4.459 13.3764,-9.555 16.5612,24.205 34.3963,24.205 3.1849,-1.274 5.0958,-1.274 2.5479,-0.637 5.7327,-1.911 h -0.6369 l 1.2739,-1.274 h 0.637 l 0.6369,-0.637 h 0.637 l 0.637,-0.637 h 4.4588 v 5.733 q 0,8.918 -4.4588,17.198 -3.8218,7.644 -10.8285,14.013 -6.3697,5.733 -15.2873,9.555 -8.2806,3.822 -17.1982,3.822 z m 99.6207,247.781 q -1.2739,1.911 -1.2739,2.548 0.637,0 1.9109,-1.911 z m 212.111,-26.753 v -189.817 q -53.5054,-17.198 -105.737,-35.67 -49.6836,29.301 -102.5522,45.862 v 1.274 q 0,7.007 9.5546,19.746 v 168.16 l -7.0067,10.192 q -1.9109,2.547 -3.8218,4.458 l -1.9109,3.185 q 52.8685,6.37 111.4697,63.697 l 42.677,-45.225 48.4097,45.225 56.6904,-64.334 -23.5679,-3.185 q -17.1982,-2.548 -24.2049,-23.568 z m -74.5255,18.473 q -22.2939,-17.199 -53.5054,-32.486 v -161.79 l -2.5479,-1.911 v -0.637 q 3.8218,0 56.0533,22.931 z m 231.474,47.135 q -33.1225,-31.211 -64.334,-31.211 -14.6503,0 -21.657,10.828 v -8.917 q 0,-1.911 5.0958,-14.651 8.9175,-19.109 24.2048,-27.389 v -154.147 h -10.8285 q -4.4588,2.548 -10.1915,3.822 -0.637,0.637 -5.7327,1.911 l -0.637,1.274 h -1.2739 l -7.0067,3.821 v -4.458 q 0,-2.548 0.637,-3.822 v -1.911 l 0.6369,-1.274 q 0,-2.548 0.637,-3.822 v -4.459 q 0,-1.911 0,-3.821 0.637,-1.911 1.274,-4.459 v -3.822 l -0.637,-1.911 v -5.733 q -2.5479,-7.006 -2.5479,-22.931 8.2806,4.459 13.3764,6.37 5.7327,1.911 8.9176,2.548 1.2739,-0.637 8.2806,-0.637 h 5.0957 v -28.664 l -0.6369,-1.274 v -7.006 q -0.637,-0.637 -1.274,-1.911 -0.637,-1.274 -1.2739,-2.548 0,-1.911 -0.637,-3.185 v -0.637 q -1.2739,-1.274 -1.2739,-5.096 l 4.4588,-1.274 0.6369,1.274 h 3.1849 v 0.637 q 35.6703,0 67.5188,-39.492 v 8.281 l -0.637,0.637 q -0.6369,1.274 -1.2739,3.822 0,2.547 -1.274,6.369 v 0.637 q 0,1.911 -0.6369,3.185 -2.5479,10.192 -2.5479,15.287 v 50.958 h 19.7461 l 1.2739,0.637 q 10.1915,0 22.294,-8.918 v 7.007 q -0.637,1.274 -0.637,3.822 -1.9109,3.185 -1.9109,15.924 h 0.6369 q 0,13.377 3.1849,35.67 l -7.0067,-3.821 -0.6369,-0.637 h -0.637 q -7.0067,-2.548 -15.9243,-3.822 -8.9175,-1.911 -20.383,-2.548 v 146.503 q 4.4588,4.459 10.1915,4.459 l 1.9109,0.637 q 1.9109,0.637 2.5479,1.274 1.9109,1.911 3.8218,1.911 0.637,0.637 1.274,1.274 1.2739,0 1.9109,0.637 h -0.637 q 1.9109,1.274 4.4588,3.821 3.1848,1.911 7.0067,3.822 l 6.3697,-6.369 12.7394,14.65 z m 348.0395,-250.966 q 0,1.911 -0.637,5.096 -7.0066,24.205 -22.2939,33.122 l 0.637,165.613 v -0.637 q 5.0957,14.65 14.0133,26.115 v -0.637 l 1.2739,1.274 v 0.637 l 1.274,1.274 -3.1849,4.459 q -12.1024,-6.37 -33.1224,-6.37 -33.1225,0 -35.0334,10.829 l 4.4588,4.459 h -3.8218 q 1.2739,1.911 4.4588,5.095 3.8218,3.185 8.9176,7.644 31.2115,25.479 31.2115,51.595 0,24.204 -22.9309,38.218 -8.9176,5.733 -12.7394,5.733 l -1.274,0.636 h -3.8218 l -0.6369,0.637 h -2.5479 q -19.1091,0 -26.7528,-18.472 20.3831,-7.643 20.3831,-21.657 0,-11.465 -7.0067,-19.746 -1.9109,-0.637 -2.5479,-6.369 l 0.637,0.637 q -12.1024,-17.836 -12.1024,-38.856 0,-14.65 7.6436,-19.109 v -0.637 q 7.0067,-7.006 7.0067,-15.287 v -164.975 q -6.3697,0 -17.8352,-7.644 -12.7394,-8.28 -15.2873,-10.828 l -0.6369,-0.637 -28.0267,21.02 v 131.852 q 2.5479,0.637 5.7327,1.911 3.1849,1.274 7.6437,2.548 10.1915,5.096 17.1981,10.829 7.6437,5.733 12.7394,12.102 l -58.6012,53.506 q -35.6703,-34.397 -64.9709,-34.397 h -3.1849 q -1.2739,0 -3.8218,0.637 -2.5479,0.637 -7.6436,3.185 -3.1849,1.274 -7.0067,1.911 -3.8218,0.637 -5.0958,0.637 8.9176,-35.033 40.1291,-48.41 v -266.89 q 0,-12.103 -12.1024,-38.218 18.4721,0 36.9443,-7.644 18.4721,-7.644 38.8551,-22.294 1.274,-0.637 14.0134,-11.465 l -0.637,0.637 5.0958,0.637 q -1.274,3.821 -3.1849,8.28 -1.2739,4.459 -1.9109,6.37 l -1.9109,3.822 q -2.5479,5.095 -5.0958,19.109 -0.6369,0.637 -0.6369,1.274 v 0.637 q -1.274,7.006 -1.9109,11.465 -0.637,4.459 -0.637,6.37 v 119.75 l 80.2582,-61.149 q 17.1982,35.033 36.3073,35.033 0.637,0.637 3.8218,0.637 8.2806,0 31.8485,-14.65 v 8.918 q 0,1.911 -0.637,3.185 0,1.273 -0.6369,3.184 -0.637,1.911 -0.637,4.459 z m 30.1919,212.111 q -1.2739,1.911 -1.2739,2.548 0.637,0 1.9109,-1.911 z m 212.111,-26.753 v -189.817 q -53.5055,-17.198 -105.737,-35.67 -49.6837,29.301 -102.5522,45.862 v 1.274 q 0,7.007 9.5546,19.746 v 168.16 l -7.0067,10.192 q -1.9109,2.547 -3.8218,4.458 l -1.9109,3.185 q 52.8685,6.37 111.4697,63.697 l 42.677,-45.225 48.4097,45.225 56.6904,-64.334 -23.5679,-3.185 q -17.1982,-2.548 -24.2049,-23.568 z m -74.5255,18.473 q -22.2939,-17.199 -53.5054,-32.486 v -161.79 l -2.5479,-1.911 v -0.637 q 3.8218,0 56.0533,22.931 z m 374.1553,-195.55 q 1.911,0.637 1.911,3.822 0,5.095 -7.6437,19.109 v 184.721 h 24.8418 q -6.3697,0 -57.9642,59.238 -2.5479,-10.828 -57.3273,-63.06 h 14.6503 v -177.077 l -24.8418,-21.02 -32.4855,24.841 v 174.53 h 27.3897 q -42.04,24.842 -56.6903,47.136 -11.4655,16.561 -12.7394,16.561 -0.637,0 -0.637,-0.637 l 0.637,-1.274 q -5.7328,-25.479 -59.2382,-56.69 l -1.274,-3.822 h 24.8419 v -165.612 q -8.9176,-35.033 -29.9376,-36.307 l 56.0533,-42.04 q 40.7661,23.567 47.1358,33.759 14.6503,-1.274 65.6079,-35.033 l 8.2806,-6.37 q 43.314,34.396 69.4297,45.225 z"
   id="LEVIATHAN_LOGO"
   style="font-weight:500;font-size:636.97px;font-family:Ancient;-inkscape-font-specification:'Ancient, Medium';letter-spacing:20;text-anchor:middle;fill:#eaf1ff;fill-opacity:0.68"
   aria-label="Leviathan" />
      </g>
    </g>
    <path
   d="m 1406.2,1952.2 h 9353.3"
   stroke="url(#accentGrad)"
   stroke-width="50"
   stroke-linecap="round"
   opacity="0.55"
   fill="none"
   id="top_horizontal_line"
   style="display:inline;opacity:1;stroke:#6240bf;stroke-opacity:1"
   transform="translate(9.6152563e-6)" />
    
  <path
   d="m 5600,5600 c 250,-400 300,-800 100,-1100 -200,-300 -100,-600 300,-700 500,-100 650,300 500,700 -150,350 -200,700 50,1100"
   fill="none"
   stroke="url(#accentGrad)"
   stroke-width="14"
   stroke-linecap="round"
   stroke-linejoin="round"
   id="path1"
   style="display:inline;opacity:1;fill:none;fill-opacity:0.72;fill-rule:nonzero;stroke:url(#linearGradient5)"
   transform="matrix(0.99576372,0,0,1.6711998,25.736595,-4088.1831)" /><path
   d="m 6550,5600 c -250,-400 -300,-800 -100,-1100 200,-300 100,-600 -300,-700 -500,-100 -650,300 -500,700 150,350 200,700 -50,1100"
   fill="none"
   stroke="url(#accentGrad)"
   stroke-width="14"
   stroke-linecap="round"
   stroke-linejoin="round"
   id="path2"
   style="display:inline;opacity:1;fill:none;fill-opacity:0.72;fill-rule:nonzero;stroke:url(#linearGradient6)"
   transform="matrix(0.99576372,0,0,1.6711998,25.736595,-4088.1831)" /></g>
  <g
   id="components"
   style="display:none"><ellipse
     style="display:inline;fill:#ff0000;fill-opacity:1;fill-rule:evenodd;stroke-width:30.9013"
     id="LIN_LOG_1"
     cx="1537.5907"
     cy="5717.8008"
     rx="294.84427"
     ry="295.80988" /><ellipse
     style="display:inline;fill:#ff0000;fill-opacity:1;fill-rule:evenodd;stroke-width:30.9013"
     id="FALL_1"
     cx="4200.748"
     cy="5307.9067"
     rx="294.84427"
     ry="295.80988" /><ellipse
     style="display:inline;fill:#ff0000;fill-opacity:1;fill-rule:evenodd;stroke-width:30.9013"
     id="CYCLE_1"
     cx="3187.5261"
     cy="2083.7886"
     rx="294.84427"
     ry="295.80988" /><ellipse
     style="display:inline;fill:#ff0000;fill-opacity:1;fill-rule:evenodd;stroke-width:30.9013"
     id="RISE_1"
     cx="3375.4507"
     cy="3629.2629"
     rx="294.84427"
     ry="295.80988" /><ellipse
     style="display:inline;fill:#ff00ff;fill-opacity:1;fill-rule:evenodd;stroke-width:3.60597"
     id="EoR_CH_1"
     cx="1653.6869"
     cy="9676.0312"
     rx="114.98675"
     ry="120.83137" /><ellipse
     style="display:inline;fill:#ff00ff;fill-opacity:1;fill-rule:evenodd;stroke-width:3.60597"
     id="Light_Unity_1"
     cx="1654.6868"
     cy="10799.932"
     rx="114.98675"
     ry="120.83137" /><ellipse
     style="display:inline;fill:#0000ff;fill-opacity:1;fill-rule:evenodd;stroke-width:38.302"
     id="EOR_1"
     cx="993.69861"
     cy="9694.5723"
     rx="398.39865"
     ry="405.17139" /><ellipse
     style="display:inline;fill:#0000ff;fill-opacity:1;fill-rule:evenodd;stroke-width:38.302"
     id="CH_1_Unity"
     cx="994.70752"
     cy="10818.212"
     rx="398.39865"
     ry="405.17139" /><ellipse
     style="display:inline;fill:#00ff00;fill-opacity:1;fill-rule:evenodd;stroke-width:38.302"
     id="INPUT_1_TRIG"
     cx="2091.1169"
     cy="1535.3943"
     rx="398.39865"
     ry="405.17139" /><ellipse
     style="display:inline;fill:#00ff00;fill-opacity:1;fill-rule:evenodd;stroke-width:38.3021"
     id="CH1_CYCLE_CV"
     cx="3984.9148"
     cy="2083.7886"
     rx="398.39865"
     ry="405.17142" /><ellipse
     style="display:inline;fill:#00ff00;fill-opacity:1;fill-rule:evenodd;stroke-width:38.3021"
     id="CH1_FALL_CV"
     cx="3270.4065"
     cy="6326.3164"
     rx="398.39865"
     ry="405.17142" /><ellipse
     style="display:inline;fill:#00ff00;fill-opacity:1;fill-rule:evenodd;stroke-width:38.3021"
     id="CH1_BOTH_CV"
     cx="2833.3093"
     cy="5146.9922"
     rx="398.39865"
     ry="405.17142" /><ellipse
     style="display:inline;fill:#00ff00;fill-opacity:1;fill-rule:evenodd;stroke-width:38.3021"
     id="CH1_RISE_CV"
     cx="2248.2798"
     cy="3661.562"
     rx="398.39865"
     ry="405.17142" /><ellipse
     style="display:inline;fill:#00ff00;fill-opacity:1;fill-rule:evenodd;stroke-width:38.3021"
     id="INPUT_1"
     cx="994.70752"
     cy="1535.3943"
     rx="398.39865"
     ry="405.17142" /><ellipse
     style="display:inline;fill:#ff00ff;fill-opacity:1;fill-rule:evenodd;stroke-width:3.60597"
     id="CYCLE_1_LED"
     cx="3187.5261"
     cy="1485.5403"
     rx="114.98675"
     ry="120.83137" /><ellipse
     style="display:inline;fill:#ff00ff;fill-opacity:1;fill-rule:evenodd;stroke-width:3.60597"
     id="EoC_CH_4"
     cx="8460.2588"
     cy="9671.5703"
     rx="114.98675"
     ry="120.83137" /><ellipse
     style="display:inline;fill:#ff00ff;fill-opacity:1;fill-rule:evenodd;stroke-width:3.68373"
     id="Light_Unity_4"
     cx="8473.0996"
     cy="10809.932"
     rx="120"
     ry="120.83137" /><ellipse
     style="display:inline;fill:#ff00ff;fill-opacity:1;fill-rule:evenodd;stroke-width:3.60597"
     id="CYCLE_4_LED"
     cx="6935.2524"
     cy="1485.5403"
     rx="114.98675"
     ry="120.83137" /><ellipse
     style="display:inline;fill:#ff0000;fill-opacity:1;fill-rule:evenodd;stroke-width:30.9013"
     id="CYCLE_4"
     cx="6935.2524"
     cy="2083.7886"
     rx="294.84427"
     ry="295.80988" /><ellipse
     style="display:inline;fill:#0000ff;fill-opacity:1;fill-rule:evenodd;stroke-width:38.302"
     id="EOC_4"
     cx="9118.1035"
     cy="9691.5117"
     rx="398.39865"
     ry="405.17139" /><ellipse
     style="display:inline;fill:#0000ff;fill-opacity:1;fill-rule:evenodd;stroke-width:38.302"
     id="CH_4_Unity"
     cx="9118.1035"
     cy="10818.212"
     rx="398.39865"
     ry="405.17139" /><ellipse
     style="display:inline;fill:#00ff00;fill-opacity:1;fill-rule:evenodd;stroke-width:38.3021"
     id="CH4_CYCLE_CV"
     cx="6137.8643"
     cy="2083.7886"
     rx="398.39865"
     ry="405.17142" /><ellipse
     style="display:inline;fill:#00ff00;fill-opacity:1;fill-rule:evenodd;stroke-width:38.3021"
     id="CH4_FALL_CV"
     cx="6868.8584"
     cy="6326.3164"
     rx="398.39865"
     ry="405.17142" /><ellipse
     style="display:inline;fill:#00ff00;fill-opacity:1;fill-rule:evenodd;stroke-width:38.3021"
     id="CH4_BOTH_CV"
     cx="7305.9556"
     cy="5146.9922"
     rx="398.39865"
     ry="405.17142" /><ellipse
     style="display:inline;fill:#00ff00;fill-opacity:1;fill-rule:evenodd;stroke-width:38.3021"
     id="CH4_RISE_CV"
     cx="7890.9849"
     cy="3661.562"
     rx="398.39865"
     ry="405.17142" /><ellipse
     style="display:inline;fill:#00ff00;fill-opacity:1;fill-rule:evenodd;stroke-width:38.3021"
     id="INPUT_4"
     cx="9118.1035"
     cy="1535.3943"
     rx="398.39865"
     ry="405.17142" /><ellipse
     style="display:inline;fill:#00ff00;fill-opacity:1;fill-rule:evenodd;stroke-width:38.302"
     id="INPUT_4_TRIG"
     cx="8021.6948"
     cy="1535.3943"
     rx="398.39865"
     ry="405.17139" /><ellipse
     style="display:inline;fill:#ff0000;fill-opacity:1;fill-rule:evenodd;stroke-width:30.9013"
     id="LIN_LOG_4"
     cx="8601.6738"
     cy="5717.8008"
     rx="294.84427"
     ry="295.80988" /><ellipse
     style="display:inline;fill:#ff0000;fill-opacity:1;fill-rule:evenodd;stroke-width:30.9013"
     id="FALL_4"
     cx="5938.5171"
     cy="5307.9067"
     rx="294.84427"
     ry="295.80988" /><ellipse
     style="display:inline;fill:#ff0000;fill-opacity:1;fill-rule:evenodd;stroke-width:30.9013"
     id="RISE_4"
     cx="6763.814"
     cy="3629.2629"
     rx="294.84427"
     ry="295.80988" /><ellipse
     style="display:inline;fill:#00ff00;fill-opacity:1;fill-rule:evenodd;stroke-width:38.3021"
     id="INPUT_3"
     cx="5938.5171"
     cy="7567.7305"
     rx="398.39865"
     ry="405.17142" /><ellipse
     style="display:inline;fill:#00ff00;fill-opacity:1;fill-rule:evenodd;stroke-width:38.3021"
     id="INPUT_2"
     cx="4184.2617"
     cy="7567.7305"
     rx="398.39865"
     ry="405.17142" /><ellipse
     style="display:inline;fill:#ff00ff;fill-opacity:1;fill-rule:evenodd;stroke-width:3.60597"
     id="INV_LED"
     cx="6895.3833"
     cy="11068.285"
     rx="114.98675"
     ry="120.83137" /><ellipse
     style="display:inline;fill:#0000ff;fill-opacity:1;fill-rule:evenodd;stroke-width:38.302"
     id="INV_OUT"
     cx="6237.5376"
     cy="11088.226"
     rx="398.39865"
     ry="405.17139" /><ellipse
     style="display:inline;fill:#0000ff;fill-opacity:1;fill-rule:evenodd;stroke-width:38.302"
     id="SUM_OUT"
     cx="5061.3892"
     cy="11088.226"
     rx="398.39865"
     ry="405.17139" /><ellipse
     style="display:inline;fill:#0000ff;fill-opacity:1;fill-rule:evenodd;stroke-width:38.302"
     id="OR_OUT"
     cx="3885.2412"
     cy="11088.226"
     rx="398.39865"
     ry="405.17139" /><ellipse
     style="display:inline;fill:#ff00ff;fill-opacity:1;fill-rule:evenodd;stroke-width:3.60597"
     id="OR_LED"
     cx="3227.3955"
     cy="11068.285"
     rx="114.98675"
     ry="120.83137" /><ellipse
     style="display:inline;fill:#ff0000;fill-opacity:1;fill-rule:evenodd;stroke-width:30.9013"
     id="ATTENUATE_4"
     cx="7593.1445"
     cy="8644.5771"
     rx="294.84427"
     ry="295.80988" /><ellipse
     style="display:inline;fill:#ff0000;fill-opacity:1;fill-rule:evenodd;stroke-width:30.9013"
     id="ATTENUATE_3"
     cx="5958.5444"
     cy="8644.5771"
     rx="294.84427"
     ry="295.80988" /><ellipse
     style="display:inline;fill:#ff0000;fill-opacity:1;fill-rule:evenodd;stroke-width:30.9013"
     id="ATTENUATE_2"
     cx="4204.2441"
     cy="8644.5771"
     rx="294.84427"
     ry="295.80988" /><ellipse
     style="display:inline;fill:#ff0000;fill-opacity:1;fill-rule:evenodd;stroke-width:30.9013"
     id="ATTENUATE_1"
     cx="2609.4443"
     cy="8644.5771"
     rx="294.84427"
     ry="295.80988" /><ellipse
     style="display:inline;fill:#0000ff;fill-opacity:1;fill-rule:evenodd;stroke-width:38.302"
     id="OUT_4"
     cx="7573.1636"
     cy="9691.5117"
     rx="398.39865"
     ry="405.17139" /><ellipse
     style="display:inline;fill:#0000ff;fill-opacity:1;fill-rule:evenodd;stroke-width:38.302"
     id="OUT_3"
     cx="5938.5171"
     cy="9691.5117"
     rx="398.39865"
     ry="405.17139" /><ellipse
     style="display:inline;fill:#0000ff;fill-opacity:1;fill-rule:evenodd;stroke-width:38.302"
     id="OUT_2"
     cx="4184.2617"
     cy="9691.5117"
     rx="398.39865"
     ry="405.17139" /><ellipse
     style="display:inline;fill:#0000ff;fill-opacity:1;fill-rule:evenodd;stroke-width:43.9097"
     id="OUT_1"
     cx="2589.4846"
     cy="9691.5117"
     rx="387.49817"
     ry="405.17139" /></g>
</svg>
