<?xml version="1.0" encoding="UTF-8" standalone="no"?>
<svg
   version="1.2"
   width="101.6mm"
   height="128.5mm"
   viewBox="0 0 10160 12850"
   preserveAspectRatio="xMidYMid"
   fill-rule="evenodd"
   stroke-width="28.222"
   stroke-linejoin="round"
   xml:space="preserve"
   id="svg488"
   sodipodi:docname="flux.svg"
   inkscape:version="1.4.3 (0d15f75, 2025-12-25)"
   inkscape:label="components"
   xmlns:inkscape="http://www.inkscape.org/namespaces/inkscape"
   xmlns:sodipodi="http://sodipodi.sourceforge.net/DTD/sodipodi-0.dtd"
   xmlns:xlink="http://www.w3.org/1999/xlink"
   xmlns="http://www.w3.org/2000/svg"
   xmlns:svg="http://www.w3.org/2000/svg">
  <defs
   id="defs1"><linearGradient
   id="linearGradient22"
   inkscape:collect="always"><stop
     style="stop-color:#7a5cff;stop-opacity:1;"
     offset="0"
     id="stop22" /><stop
     style="stop-color:#1cccd9;stop-opacity:1;"
     offset="1"
     id="stop23" /></linearGradient><linearGradient
   id="linearGradient20"
   inkscape:collect="always"><stop
     style="stop-color:#795cff;stop-opacity:1;"
     offset="0"
     id="stop20" /><stop
     style="stop-color:#1cccd9;stop-opacity:1;"
     offset="1"
     id="stop21" /></linearGradient><linearGradient
   id="linearGradient16"
   x1="0"
   y1="0"
   x2="0"
   y2="1">
      <stop
   offset="0"
   stop-color="#1ccad8"
   stop-opacity="0.65"
   id="stop15"
   style="stop-color:#1ccad8;stop-opacity:1;" />
      <stop
   offset="1"
   stop-color="#7a5cff"
   stop-opacity="0.65"
   id="stop16"
   style="stop-color:#7a5cff;stop-opacity:1;" />
    </linearGradient><linearGradient
   id="linearGradient14"
   x1="0"
   y1="0"
   x2="0"
   y2="1">
      <stop
   offset="0"
   stop-color="#1ccad8"
   stop-opacity="0.65"
   id="stop13"
   style="stop-color:#1ccad8;stop-opacity:1;" />
      <stop
   offset="1"
   stop-color="#7a5cff"
   stop-opacity="0.65"
   id="stop14"
   style="stop-color:#7a5cff;stop-opacity:1;" />
    </linearGradient>
    <linearGradient
   id="linearGradient12"
   x1="0"
   y1="0"
   x2="0"
   y2="1">
      <stop
   offset="0"
   stop-color="#1ccad8"
   stop-opacity="0.65"
   id="stop11"
   style="stop-color:#6140bf;stop-opacity:1;" />
      <stop
   offset="1"
   stop-color="#7a5cff"
   stop-opacity="0.65"
   id="stop12" />
    </linearGradient>
    <linearGradient
   id="bgGrad"
   x1="1108.8855"
   y1="886.8808"
   x2="1108.8855"
   y2="12348.43"
   gradientTransform="scale(0.88934519,1.1244228)"
   gradientUnits="userSpaceOnUse">
      <stop
   offset="0%"
   stop-color="#0b0d10"
   id="stop1" />
      <stop
   offset="50%"
   stop-color="#10141a"
   id="stop2" />
      <stop
   offset="100%"
   stop-color="#07080a"
   id="stop3" />
    </linearGradient>
    <linearGradient
   id="panelSheen"
   x1="1258.4897"
   y1="999.76398"
   x2="1258.4897"
   y2="12199.481"
   gradientTransform="scale(0.88692179,1.1274951)"
   gradientUnits="userSpaceOnUse">
      <stop
   offset="0%"
   stop-color="#ffffff"
   stop-opacity="0.1"
   id="stop4" />
      <stop
   offset="15%"
   stop-color="#ffffff"
   stop-opacity="0.02"
   id="stop5" />
      <stop
   offset="50%"
   stop-color="#ffffff"
   stop-opacity="0.0"
   id="stop6" />
      <stop
   offset="85%"
   stop-color="#ffffff"
   stop-opacity="0.02"
   id="stop7" />
      <stop
   offset="100%"
   stop-color="#ffffff"
   stop-opacity="0.1"
   id="stop8" />
    </linearGradient>
    <linearGradient
   id="accentGrad"
   x1="0"
   y1="0"
   x2="0"
   y2="1">
      <stop
   offset="0%"
   stop-color="#1ccad8"
   stop-opacity="0.65"
   id="stop9" />
      <stop
   offset="100%"
   stop-color="#7a5cff"
   stop-opacity="0.65"
   id="stop10" />
    </linearGradient>
    
    
    
    
    <linearGradient
   inkscape:collect="always"
   xlink:href="#accentGrad"
   id="linearGradient2"
   x1="4067.5"
   y1="2067.5"
   x2="4067.5"
   y2="2332.5"
   gradientUnits="userSpaceOnUse" />
    <linearGradient
   inkscape:collect="always"
   xlink:href="#accentGrad"
   id="linearGradient3"
   x1="7827.5"
   y1="2067.5"
   x2="7827.5"
   y2="2332.5"
   gradientUnits="userSpaceOnUse" />
    <linearGradient
   inkscape:collect="always"
   xlink:href="#accentGrad"
   id="linearGradient4"
   x1="2182.5"
   y1="9062.5"
   x2="2182.5"
   y2="9297.5"
   gradientUnits="userSpaceOnUse" />
    <linearGradient
   inkscape:collect="always"
   xlink:href="#accentGrad"
   id="linearGradient9"
   x1="9782.5"
   y1="9062.5"
   x2="9782.5"
   y2="9297.5"
   gradientUnits="userSpaceOnUse" />
    <linearGradient
   inkscape:collect="always"
   xlink:href="#accentGrad"
   id="linearGradient10"
   x1="1877.5"
   y1="11137.5"
   x2="1877.5"
   y2="11382.5"
   gradientUnits="userSpaceOnUse" />
    <linearGradient
   inkscape:collect="always"
   xlink:href="#accentGrad"
   id="linearGradient11"
   x1="10027.5"
   y1="11137.5"
   x2="10027.5"
   y2="11382.5"
   gradientUnits="userSpaceOnUse" />
  
    
    
    
    
    
    
  <linearGradient
   inkscape:collect="always"
   xlink:href="#linearGradient20"
   id="linearGradient21"
   x1="4894.492"
   y1="13291.141"
   x2="7274.9689"
   y2="13291.141"
   gradientUnits="userSpaceOnUse" /><linearGradient
   inkscape:collect="always"
   xlink:href="#linearGradient22"
   id="linearGradient23"
   x1="4160.1519"
   y1="1461.1655"
   x2="8033.6714"
   y2="1461.1655"
   gradientUnits="userSpaceOnUse" /></defs>
  <sodipodi:namedview
   id="namedview488"
   pagecolor="#ffffff"
   bordercolor="#000000"
   borderopacity="0.25"
   inkscape:showpageshadow="2"
   inkscape:pageopacity="0.0"
   inkscape:pagecheckerboard="true"
   inkscape:deskcolor="#d1d1d1"
   inkscape:document-units="mm"
   inkscape:zoom="2.385554"
   inkscape:cx="83.209184"
   inkscape:cy="219.44588"
   inkscape:window-width="2560"
   inkscape:window-height="1377"
   inkscape:window-x="-8"
   inkscape:window-y="-8"
   inkscape:window-maximized="1"
   inkscape:current-layer="svg488"
   showgrid="false"
   inkscape:pageshadow="2" />
  
  <g
   id="panel_art"
   style="display:inline"
   transform="matrix(0.99673566,0,0,0.99708035,-982.96277,-994.31744)">
    <g
   id="Background_Rect"
   style="display:inline">
      <rect
   x="986.18201"
   y="997.229"
   width="10193.273"
   height="12887.627"
   rx="260"
   ry="260"
   fill="url(#bgGrad)"
   id="rect10"
   style="display:inline;fill:url(#bgGrad)" />
      <rect
   x="1096.182"
   y="1107.229"
   width="9973.2734"
   height="12667.627"
   rx="210"
   ry="210"
   fill="none"
   stroke="#ffffff"
   stroke-opacity="0.1"
   stroke-width="60"
   id="rect11"
   style="display:inline" />
      <rect
   x="1116.182"
   y="1127.229"
   width="9933.2734"
   height="12627.627"
   rx="200"
   ry="200"
   fill="url(#panelSheen)"
   opacity="0.3"
   id="rect12"
   style="display:inline;fill:url(#panelSheen)" />
    </g>
    <g
   id="panel-mounting-holes">
      
      
      
      
      
      
      
      
    </g>
    <rect
   x="1136.182"
   y="1167.229"
   width="9893.2734"
   height="820"
   rx="160"
   ry="160"
   fill="#000000"
   opacity="0.22"
   id="rect19"
   style="display:none" />
    <path
   style="font-size:566.195px;font-family:Consolas;-inkscape-font-specification:'Consolas, Normal';letter-spacing:18;text-anchor:middle;fill:url(#linearGradient23);stroke-width:28.2418"
   d="m 4082.1578,1267.3629 h -83.2152 v -41.4694 h 216.1936 v 41.4694 h -83.2152 v 277.8448 h 83.2152 v 42.0223 h -216.1936 v -42.0223 h 83.2152 z m 242.764,42.2988 h 42.8516 l 1.9353,44.7869 q 12.1643,-14.3761 23.4993,-23.7758 11.3349,-9.6762 22.117,-15.4819 11.0585,-5.8057 22.3934,-8.0174 11.335,-2.4882 23.4994,-2.4882 42.8516,0 64.6922,25.4346 22.117,25.1581 22.117,76.0272 V 1587.23 h -48.1045 v -177.2125 q 0,-32.6225 -12.1644,-48.1044 -12.1643,-15.7584 -36.2165,-15.7584 -8.8468,0 -17.4172,2.7646 -8.2938,2.4882 -17.4171,9.1233 -9.1233,6.3586 -19.9053,17.4171 -10.5056,11.0585 -23.7758,27.6463 v 184.124 h -48.1044 z m 552.9548,273.6978 q -16.3113,4.1469 -33.7284,5.8057 -17.4171,1.9353 -35.3872,1.9353 -52.2514,0 -77.9624,-23.4994 -25.711,-23.7757 -25.711,-72.7096 v -144.8663 h -77.686 v -40.3635 h 77.686 v -76.3037 l 48.1044,-12.4408 v 88.7445 h 124.6846 v 40.3635 H 4753.192 v 140.9958 q 0,29.858 15.7584,44.787 16.0348,14.6525 46.9986,14.6525 13.2702,0 29.0286,-1.9353 15.7583,-2.2117 32.899,-6.6351 z m 340.0787,-149.5662 q 0,10.2291 -0.2764,17.1407 -0.2765,6.9115 -0.8294,12.9937 h -194.906 q 0,42.5752 23.7757,65.5216 23.7758,22.6699 68.5627,22.6699 12.1644,0 24.3287,-0.8293 12.1644,-1.1059 23.4993,-2.7647 11.335,-1.6587 21.5641,-3.594 10.5056,-2.2117 19.3524,-4.6998 v 39.5341 q -19.6289,5.5292 -44.5105,8.8468 -24.6051,3.594 -51.1455,3.594 -35.6637,0 -61.3747,-9.6762 -25.711,-9.6762 -42.2988,-27.9227 -16.3113,-18.523 -24.3287,-45.0634 -7.7409,-26.8168 -7.7409,-60.5453 0,-29.305 8.2939,-55.2924 8.5703,-26.264 24.6051,-45.8928 16.3113,-19.9053 39.8106,-31.5167 23.4993,-11.6115 53.3573,-11.6115 29.0285,0 51.422,9.1233 22.3934,9.1233 37.5989,25.9875 15.4819,16.5877 23.2228,40.64 8.0174,23.7757 8.0174,53.3572 z m -50.0397,-6.9115 q 0.8294,-18.523 -3.594,-33.7285 -4.4234,-15.4819 -13.8231,-26.5404 -9.1233,-11.0585 -22.9464,-17.1406 -13.8231,-6.3587 -32.0696,-6.3587 -15.7584,0 -28.7521,6.0822 -12.9938,6.0822 -22.3935,17.1407 -9.3997,11.0585 -15.2054,26.5404 -5.8057,15.4819 -7.188,34.0049 z m 344.7787,-77.9625 q 7.7409,9.6762 11.8879,22.67 4.4234,12.7172 4.4234,27.6462 0,21.5641 -8.0174,39.5341 -7.741,17.6936 -22.117,30.4109 -14.3761,12.7173 -34.5578,19.9053 -19.9053,6.9116 -43.9576,6.9116 -17.4171,0 -32.6225,-3.594 -15.2055,-3.8705 -24.0523,-9.3998 -5.2528,7.741 -8.8468,14.6525 -3.594,6.9116 -3.594,15.4819 0,10.5056 9.9527,17.4172 10.2291,6.9115 26.8168,7.4645 l 72.9861,2.7646 q 20.7347,0.5529 38.1518,5.2528 17.6936,4.6998 30.1344,13.5466 12.7173,8.8468 19.6289,21.8406 7.188,12.9937 7.188,30.1344 0,18.523 -8.0174,35.1107 -8.0174,16.5878 -24.8816,29.0286 -16.5878,12.7172 -42.2988,20.1817 -25.711,7.4645 -61.0982,7.4645 -33.7284,0 -57.5042,-5.5292 -23.4993,-5.2528 -38.7047,-14.929 -15.2055,-9.3997 -22.117,-22.6699 -6.9116,-12.9938 -6.9116,-28.7521 0,-20.1818 9.3997,-35.3872 9.3997,-15.2055 29.0286,-29.305 -7.188,-3.3176 -12.4408,-8.2939 -5.2528,-4.9763 -8.5704,-10.7821 -3.3175,-6.0821 -4.9763,-12.7172 -1.6588,-6.6351 -1.6588,-12.9938 0,-17.97 8.2939,-32.899 8.5703,-14.929 20.1818,-28.1992 -5.2528,-6.3586 -9.3998,-12.4408 -3.8704,-6.0822 -6.9115,-12.9937 -2.7646,-7.188 -4.4234,-15.2054 -1.3823,-8.2939 -1.3823,-18.7995 0,-21.5641 7.7409,-39.2577 8.0174,-17.97 22.117,-30.6873 14.3761,-12.7173 34.2814,-19.6288 20.1817,-7.1881 44.5104,-7.1881 10.2291,0 19.6289,1.3824 9.3997,1.3823 16.5877,3.594 h 100.6323 v 39.2576 z M 5345.711,1627.317 q 0,19.6289 20.4582,28.4757 20.4582,9.1232 56.9512,9.1232 22.9464,0 38.4283,-4.1469 15.7584,-4.1469 25.1581,-11.0585 9.6762,-6.6351 13.8231,-15.4819 4.147,-8.5703 4.147,-17.6936 0,-16.8642 -13.8231,-24.8816 -13.8232,-8.0174 -42.2988,-9.3997 l -72.4332,-2.4882 q -9.1232,6.0822 -15.2054,11.8879 -5.8057,5.8057 -9.1233,11.6114 -3.3175,6.0822 -4.6998,11.8879 -1.3823,6.0822 -1.3823,12.1643 z m 14.6525,-226.9756 q 0,13.2702 4.4234,24.3287 4.4234,11.0584 12.4408,18.7994 8.0174,7.7409 18.7994,12.1643 11.0585,4.147 24.3287,4.147 14.3761,0 25.4346,-4.6999 11.3349,-4.9763 18.7994,-13.2702 7.741,-8.2939 11.6114,-19.0759 4.147,-10.782 4.147,-22.3934 0,-13.2702 -4.4234,-24.3287 -4.4234,-11.0585 -12.4408,-18.7995 -8.0174,-7.7409 -19.0759,-11.8879 -10.7821,-4.4234 -24.0523,-4.4234 -14.376,0 -25.711,4.9763 -11.0585,4.9764 -18.7994,13.2702 -7.4645,8.0175 -11.6115,18.7995 -3.8704,10.782 -3.8704,22.3935 z m 293.0801,-90.6797 h 43.9576 l 1.3823,51.1455 q 24.6051,-29.5815 48.3809,-42.8517 24.0522,-13.2702 48.3809,-13.2702 43.1282,0 65.2452,27.9227 22.3934,27.9228 20.7347,82.9388 h -48.6574 q 0.8294,-36.4931 -10.7821,-52.8043 -11.3349,-16.5878 -33.4519,-16.5878 -9.6762,0 -19.6289,3.594 -9.6761,3.3176 -20.1817,11.0585 -10.2291,7.4645 -21.8405,19.3524 -11.6115,11.8879 -24.8817,28.7521 V 1587.23 h -48.6574 z m 496.28,277.5683 -1.1059,-37.3225 q -22.6699,22.3935 -46.1692,32.3462 -23.2228,9.9526 -48.9338,9.9526 -23.7758,0 -40.64,-6.0822 -16.8642,-6.0821 -27.9227,-16.5877 -10.7821,-10.7821 -16.0349,-25.1581 -4.9763,-14.376 -4.9763,-31.2403 0,-41.7458 30.9638,-65.2451 31.2403,-23.7758 92.062,-23.7758 h 57.5042 v -24.3287 q 0,-24.6051 -15.7584,-39.2576 -15.7583,-14.929 -48.1044,-14.929 -23.4993,0 -46.4457,5.2528 -22.6699,5.2528 -46.9986,14.9289 v -43.4046 q 9.1232,-3.3175 20.1817,-6.3586 11.335,-3.3175 23.7758,-5.8057 12.4408,-2.4882 25.9875,-3.8705 13.5466,-1.6588 27.3698,-1.6588 25.158,0 45.3398,5.5293 20.1818,5.5292 34.0049,16.8642 14.0996,11.335 21.5641,28.4756 7.4644,17.1407 7.4644,40.3636 v 191.312 z m -5.2528,-126.3434 h -61.0982 q -17.9701,0 -30.9638,3.594 -12.9937,3.5941 -21.2876,10.2292 -8.2939,6.6351 -12.4408,16.0348 -3.8705,9.1232 -3.8705,20.7347 0,8.0174 2.4882,15.4819 2.4881,7.188 8.0174,12.9937 5.5292,5.5292 14.376,8.8468 8.8468,3.3175 21.5641,3.3175 16.5878,0 37.8754,-9.9526 21.564,-10.2291 45.3398,-32.0696 z m 250.7815,-224.764 h -82.1093 v -39.5341 h 130.7667 v 350.5544 h 82.6623 v 40.0871 h -222.5523 v -40.0871 h 91.2326 z m 780.2368,31.7932 h -153.4367 v 117.2201 h 145.4193 v 41.1929 H 7022.0524 V 1587.23 h -50.3161 v -361.3365 h 203.7528 z m 207.6534,-31.7932 h -82.1094 v -39.5341 h 130.7668 v 350.5544 h 82.6623 v 40.0871 h -222.5523 v -40.0871 h 91.2326 z m 457.8517,351.1074 h -43.1282 l -1.6588,-44.7869 q -12.4408,14.376 -23.7757,24.0522 -11.0585,9.3997 -22.117,15.2054 -11.0585,5.8057 -22.3935,8.0174 -11.0585,2.4882 -23.4993,2.4882 -42.8517,0 -64.6922,-25.1581 -21.8406,-25.1581 -21.8406,-76.0272 v -181.3593 h 48.1045 v 177.4889 q 0,63.8628 48.1045,63.8628 8.8468,0 17.1407,-2.4882 8.5703,-2.7646 17.6936,-9.1232 9.3997,-6.6351 19.9053,-17.6936 10.782,-11.0585 24.0522,-27.9227 v -184.124 h 48.1045 z m 356.3899,0 h -63.8628 L 8058.6,1481.3449 7984.508,1587.23 h -62.204 l 107.5439,-139.3371 -102.5676,-138.2312 h 61.6511 l 72.9861,106.7145 71.6038,-106.7145 h 59.4394 l -104.2263,139.337 z"
   id="text19"
   aria-label="Integral Flux" />
    <path
   d="m 4332.9678,1814.0708 q 0,-18.5547 -7.7002,-28.7598 -7.6074,-10.205 -21.4307,-10.205 -13.7305,0 -21.4307,10.205 -7.6074,10.2051 -7.6074,28.7598 0,18.4619 7.6074,28.667 7.7002,10.2051 21.4307,10.2051 13.8233,0 21.4307,-10.2051 7.7002,-10.2051 7.7002,-28.667 z m 17.0703,40.2637 q 0,26.5332 -11.7822,39.4287 -11.7823,12.9883 -36.0889,12.9883 -8.999,0 -16.9775,-1.3916 -7.9786,-1.2989 -15.4932,-4.0821 v -16.6064 q 7.5146,4.082 14.8437,6.0303 7.3291,1.9482 14.9366,1.9482 16.792,0 25.1416,-8.8135 8.3496,-8.7207 8.3496,-26.4404 v -8.4424 q -5.2881,9.1846 -13.5449,13.7305 -8.2569,4.5459 -19.7608,4.5459 -19.1113,0 -30.8008,-14.5654 -11.6894,-14.5655 -11.6894,-38.5938 0,-24.1211 11.6894,-38.6865 11.6895,-14.5655 30.8008,-14.5655 11.5039,0 19.7608,4.5459 8.2568,4.5459 13.5449,13.7305 v -15.7715 h 17.0703 z m 127.0381,-43.3252 v 8.3496 h -78.4864 q 1.1133,17.6269 10.5762,26.9043 9.5557,9.1846 26.5332,9.1846 9.834,0 19.0186,-2.4122 9.2773,-2.4121 18.3691,-7.2363 v 16.1426 q -9.1846,3.8965 -18.833,5.9375 -9.6484,2.041 -19.5752,2.041 -24.8633,0 -39.4287,-14.4726 -14.4727,-14.4727 -14.4727,-39.1504 0,-25.5127 13.7305,-40.4493 13.8233,-15.0293 37.2022,-15.0293 20.9668,0 33.1201,13.545 12.2461,13.4521 12.2461,36.6455 z m -17.0703,-5.0098 q -0.1856,-14.0088 -7.8858,-22.3584 -7.6074,-8.3496 -20.2246,-8.3496 -14.2871,0 -22.915,8.0713 -8.5352,8.0713 -9.834,22.7295 z m 134.4599,-1.4844 v 62.7149 h -17.0703 v -62.1582 q 0,-14.751 -5.7519,-22.0801 -5.752,-7.3291 -17.2559,-7.3291 -13.8232,0 -21.8018,8.8135 -7.9785,8.8135 -7.9785,24.0283 v 58.7256 h -17.1631 v -103.9063 h 17.1631 v 16.1426 q 6.1231,-9.3701 14.3799,-14.0088 8.3496,-4.6387 19.2041,-4.6387 17.9053,0 27.0898,11.1329 9.1846,11.04 9.1846,32.5634 z m 125.9248,6.4942 v 8.3496 h -78.4863 q 1.1133,17.6269 10.5762,26.9043 9.5556,9.1846 26.5332,9.1846 9.834,0 19.0185,-2.4122 9.2774,-2.4121 18.3692,-7.2363 v 16.1426 q -9.1846,3.8965 -18.833,5.9375 -9.6485,2.041 -19.5752,2.041 -24.8633,0 -39.4287,-14.4726 -14.4727,-14.4727 -14.4727,-39.1504 0,-25.5127 13.7305,-40.4493 13.8232,-15.0293 37.2021,-15.0293 20.9668,0 33.1201,13.545 12.2461,13.4521 12.2461,36.6455 z m -17.0703,-5.0098 q -0.1855,-14.0088 -7.8857,-22.3584 -7.6075,-8.3496 -20.2246,-8.3496 -14.2871,0 -22.9151,8.0713 -8.5351,8.0713 -9.834,22.7295 z m 108.2979,-26.7187 q -2.876,-1.67 -6.3086,-2.4121 -3.3399,-0.835 -7.4219,-0.835 -14.4727,0 -22.2656,9.4629 -7.7002,9.3701 -7.7002,26.9971 v 54.7363 h -17.1631 v -103.9063 h 17.1631 v 16.1426 q 5.3808,-9.4629 14.0088,-14.0088 8.6279,-4.6387 20.9668,-4.6387 1.7627,0 3.8964,0.2784 2.1338,0.1855 4.7315,0.6494 z m 68.1269,35.7177 q -20.6885,0 -28.667,4.7315 -7.9785,4.7314 -7.9785,16.1426 0,9.0918 5.9375,14.4726 6.0303,5.2881 16.3281,5.2881 14.1944,0 22.7295,-10.0195 8.628,-10.1123 8.628,-26.8116 v -3.8037 z m 34.0479,-7.0507 v 59.2822 h -17.0703 v -15.7715 q -5.8448,9.4629 -14.5655,14.0088 -8.7207,4.4531 -21.3379,4.4531 -15.957,0 -25.4199,-8.9062 -9.3701,-8.9991 -9.3701,-24.0284 0,-17.5341 11.6894,-26.4404 11.7823,-8.9062 35.0684,-8.9062 h 23.9356 v -1.67 q 0,-11.7822 -7.793,-18.1836 -7.7002,-6.4941 -21.709,-6.4941 -8.9062,0 -17.3486,2.1338 -8.4424,2.1338 -16.2354,6.4014 v -15.7715 q 9.3701,-3.6182 18.1836,-5.3809 8.8135,-1.8555 17.1631,-1.8555 22.5439,0 33.6768,11.6895 11.1328,11.6895 11.1328,35.4395 z m 55.0459,-74.126 v 29.5019 H 5004 v 13.2666 h -35.1611 v 56.4063 q 0,12.7099 3.4326,16.3281 3.5254,3.6182 14.1943,3.6182 H 5004 v 14.2871 h -17.5342 q -19.7607,0 -27.2754,-7.3291 -7.5146,-7.4219 -7.5146,-26.9043 v -56.4063 h -12.5244 v -13.2666 h 12.5244 v -29.5019 z m 100.8759,41.4697 q -13.7304,0 -21.7089,10.7617 -7.9786,10.669 -7.9786,29.3164 0,18.6475 7.8858,29.4092 7.9785,10.669 21.8017,10.669 13.6377,0 21.6163,-10.7618 7.9785,-10.7617 7.9785,-29.3164 0,-18.4619 -7.9785,-29.2236 -7.9786,-10.8545 -21.6163,-10.8545 z m 0,-14.4727 q 22.2657,0 34.9756,14.4727 12.71,14.4727 12.71,40.0781 0,25.5127 -12.71,40.0782 -12.7099,14.4726 -34.9756,14.4726 -22.3584,0 -35.0683,-14.4726 -12.6172,-14.5655 -12.6172,-40.0782 0,-25.6054 12.6172,-40.0781 12.7099,-14.4727 35.0683,-14.4727 z m 139.1914,18.462 q -2.8759,-1.67 -6.3085,-2.4121 -3.3399,-0.835 -7.4219,-0.835 -14.4727,0 -22.2656,9.4629 -7.7002,9.3701 -7.7002,26.9971 v 54.7363 h -17.1631 v -103.9063 h 17.1631 v 16.1426 q 5.3808,-9.4629 14.0087,-14.0088 8.628,-4.6387 20.9668,-4.6387 1.7627,0 3.8965,0.2784 2.1338,0.1855 4.7315,0.6494 z m 94.877,17.2558 q 0,-11.5039 7.9785,-19.3896 8.0713,-7.9785 19.7608,-7.9785 11.5039,0 19.3896,7.9785 7.9785,7.8857 7.9785,19.3896 0,11.5967 -7.9785,19.5752 -7.9785,7.9785 -19.5752,7.9785 -11.5967,0 -19.5752,-7.9785 -7.9785,-7.9785 -7.9785,-19.5752 z m 215.1113,18.4619 q -20.6884,0 -28.667,4.7315 -7.9785,4.7314 -7.9785,16.1426 0,9.0918 5.9375,14.4726 6.0303,5.2881 16.3281,5.2881 14.1944,0 22.7295,-10.0195 8.628,-10.1123 8.628,-26.8116 v -3.8037 z m 34.0479,-7.0507 v 59.2822 h -17.0703 v -15.7715 q -5.8448,9.4629 -14.5655,14.0088 -8.7207,4.4531 -21.3379,4.4531 -15.957,0 -25.4199,-8.9062 -9.3701,-8.9991 -9.3701,-24.0284 0,-17.5341 11.6895,-26.4404 11.7822,-8.9062 35.0683,-8.9062 h 23.9356 v -1.67 q 0,-11.7822 -7.793,-18.1836 -7.7002,-6.4941 -21.709,-6.4941 -8.9062,0 -17.3486,2.1338 -8.4424,2.1338 -16.2354,6.4014 v -15.7715 q 9.3701,-3.6182 18.1836,-5.3809 8.8135,-1.8555 17.1631,-1.8555 22.544,0 33.6768,11.6895 11.1328,11.6895 11.1328,35.4395 z m 55.0459,-74.126 v 29.5019 h 35.1611 v 13.2666 h -35.1611 v 56.4063 q 0,12.7099 3.4326,16.3281 3.5254,3.6182 14.1943,3.6182 h 17.5342 v 14.2871 h -17.5342 q -19.7607,0 -27.2754,-7.3291 -7.5146,-7.4219 -7.5146,-26.9043 v -56.4063 h -12.5244 v -13.2666 h 12.5244 v -29.5019 z m 77.4971,0 v 29.5019 h 35.1611 v 13.2666 h -35.1611 v 56.4063 q 0,12.7099 3.4326,16.3281 3.5254,3.6182 14.1943,3.6182 h 17.5342 v 14.2871 h -17.5342 q -19.7607,0 -27.2754,-7.3291 -7.5146,-7.4219 -7.5146,-26.9043 v -56.4063 h -12.5244 v -13.2666 h 12.5244 v -29.5019 z m 149.4892,77.1875 v 8.3496 h -78.4863 q 1.1133,17.6269 10.5762,26.9043 9.5556,9.1846 26.5332,9.1846 9.8339,0 19.0185,-2.4122 9.2774,-2.4121 18.3692,-7.2363 v 16.1426 q -9.1846,3.8965 -18.8331,5.9375 -9.6484,2.041 -19.5752,2.041 -24.8632,0 -39.4287,-14.4726 -14.4726,-14.4727 -14.4726,-39.1504 0,-25.5127 13.7304,-40.4493 13.8233,-15.0293 37.2022,-15.0293 20.9668,0 33.1201,13.545 12.2461,13.4521 12.2461,36.6455 z m -17.0703,-5.0098 q -0.1856,-14.0088 -7.8857,-22.3584 -7.6075,-8.3496 -20.2247,-8.3496 -14.2871,0 -22.915,8.0713 -8.5352,8.0713 -9.834,22.7295 z m 134.46,-1.4844 v 62.7149 h -17.0704 v -62.1582 q 0,-14.751 -5.7519,-22.0801 -5.752,-7.3291 -17.2559,-7.3291 -13.8232,0 -21.8017,8.8135 -7.9785,8.8135 -7.9785,24.0283 v 58.7256 h -17.1631 v -103.9063 h 17.1631 v 16.1426 q 6.123,-9.3701 14.3798,-14.0088 8.3497,-4.6387 19.2041,-4.6387 17.9053,0 27.0899,11.1329 9.1846,11.04 9.1846,32.5634 z m 35.2851,21.709 v -62.9004 h 17.0703 v 62.251 q 0,14.751 5.752,22.1729 5.7519,7.3291 17.2558,7.3291 13.8233,0 21.8018,-8.8135 8.0713,-8.8135 8.0713,-24.0283 v -58.9112 h 17.0703 V 1867.23 h -17.0703 v -15.9571 q -6.2158,9.4629 -14.4727,14.1016 -8.164,4.5459 -19.0185,4.5459 -17.9053,0 -27.1826,-11.1328 -9.2774,-11.1328 -9.2774,-32.5635 z m 42.9541,-65.4053 z m 69.9824,2.5049 h 18.0909 l 32.4707,87.2071 32.4707,-87.2071 h 18.0908 l -38.9649,103.9063 h -23.1933 z m 216.5645,47.6856 v 8.3496 h -78.4863 q 1.1132,17.6269 10.5761,26.9043 9.5557,9.1846 26.5332,9.1846 9.834,0 19.0186,-2.4122 9.2773,-2.4121 18.3691,-7.2363 v 16.1426 q -9.1845,3.8965 -18.833,5.9375 -9.6484,2.041 -19.5752,2.041 -24.8633,0 -39.4287,-14.4726 -14.4726,-14.4727 -14.4726,-39.1504 0,-25.5127 13.7304,-40.4493 13.8233,-15.0293 37.2022,-15.0293 20.9668,0 33.1201,13.545 12.2461,13.4521 12.2461,36.6455 z m -17.0703,-5.0098 q -0.1856,-14.0088 -7.8858,-22.3584 -7.6074,-8.3496 -20.2246,-8.3496 -14.2871,0 -22.915,8.0713 -8.5352,8.0713 -9.834,22.7295 z m 108.2978,-26.7187 q -2.8759,-1.67 -6.3086,-2.4121 -3.3398,-0.835 -7.4218,-0.835 -14.4727,0 -22.2657,9.4629 -7.7002,9.3701 -7.7002,26.9971 v 54.7363 h -17.163 v -103.9063 h 17.163 v 16.1426 q 5.3809,-9.4629 14.0088,-14.0088 8.628,-4.6387 20.9668,-4.6387 1.7627,0 3.8965,0.2784 2.1338,0.1855 4.7315,0.6494 z m 37.7901,-45.459 v 29.5019 h 35.1611 v 13.2666 h -35.1611 v 56.4063 q 0,12.7099 3.4326,16.3281 3.5254,3.6182 14.1943,3.6182 h 17.5342 v 14.2871 h -17.5342 q -19.7607,0 -27.2754,-7.3291 -7.5146,-7.4219 -7.5146,-26.9043 v -56.4063 h -12.5244 v -13.2666 h 12.5244 v -29.5019 z m 149.4892,77.1875 v 8.3496 h -78.4863 q 1.1133,17.6269 10.5762,26.9043 9.5556,9.1846 26.5332,9.1846 9.834,0 19.0185,-2.4122 9.2774,-2.4121 18.3692,-7.2363 v 16.1426 q -9.1846,3.8965 -18.833,5.9375 -9.6485,2.041 -19.5752,2.041 -24.8633,0 -39.4287,-14.4726 -14.4727,-14.4727 -14.4727,-39.1504 0,-25.5127 13.7305,-40.4493 13.8232,-15.0293 37.2021,-15.0293 20.9668,0 33.1201,13.545 12.2461,13.4521 12.2461,36.6455 z m -17.0703,-5.0098 q -0.1855,-14.0088 -7.8857,-22.3584 -7.6075,-8.3496 -20.2246,-8.3496 -14.2871,0 -22.9151,8.0713 -8.5351,8.0713 -9.834,22.7295 z m 108.2979,-26.7187 q -2.876,-1.67 -6.3086,-2.4121 -3.3399,-0.835 -7.4219,-0.835 -14.4727,0 -22.2656,9.4629 -7.7002,9.3701 -7.7002,26.9971 v 54.7363 h -17.1631 v -103.9063 h 17.1631 v 16.1426 q 5.3808,-9.4629 14.0088,-14.0088 8.6279,-4.6387 20.9668,-4.6387 1.7627,0 3.8964,0.2784 2.1338,0.1855 4.7315,0.6494 z m 87.1455,-12.8955 v 16.1425 q -7.2364,-3.7109 -15.0293,-5.5664 -7.793,-1.8554 -16.1426,-1.8554 -12.71,0 -19.1113,3.8964 -6.3086,3.8965 -6.3086,11.6895 0,5.9375 4.5459,9.3701 4.5459,3.3399 18.2763,6.4014 l 5.8448,1.2988 q 18.1836,3.8965 25.791,11.04 7.7002,7.0508 7.7002,19.7608 0,14.4726 -11.5039,22.915 -11.4112,8.4424 -31.4502,8.4424 -8.3496,0 -17.4414,-1.6699 -8.9991,-1.5772 -19.0186,-4.8242 v -17.627 q 9.4629,4.917 18.6475,7.4219 9.1845,2.4121 18.1836,2.4121 12.0605,0 18.5547,-4.082 6.4941,-4.1748 6.4941,-11.6895 0,-6.958 -4.7314,-10.6689 -4.6387,-3.711 -20.503,-7.1436 l -5.9375,-1.3916 q -15.8642,-3.3398 -22.915,-10.2051 -7.0508,-6.958 -7.0508,-19.0185 0,-14.6582 10.3906,-22.6367 10.3907,-7.9786 29.502,-7.9786 9.4629,0 17.8125,1.3916 8.3496,1.3917 15.4004,4.1749 z m 109.7207,30.1513 q 0,-11.5039 7.9785,-19.3896 8.0713,-7.9785 19.7607,-7.9785 11.5039,0 19.3897,7.9785 7.9785,7.8857 7.9785,19.3896 0,11.5967 -7.9785,19.5752 -7.9785,7.9785 -19.5752,7.9785 -11.5967,0 -19.5752,-7.9785 -7.9785,-7.9785 -7.9785,-19.5752 z m 248.7881,-13.2666 q 6.4013,-11.5039 15.3076,-16.9775 8.9062,-5.4737 20.9668,-5.4737 16.2353,0 25.0488,11.4112 8.8135,11.3183 8.8135,32.2851 v 62.7149 h -17.1631 v -62.1582 q 0,-14.9365 -5.2881,-22.1729 -5.2881,-7.2363 -16.1426,-7.2363 -13.2666,0 -20.9668,8.8135 -7.7002,8.8135 -7.7002,24.0283 v 58.7256 h -17.163 v -62.1582 q 0,-15.0293 -5.2881,-22.1729 -5.2881,-7.2363 -16.3282,-7.2363 -13.081,0 -20.7812,8.9062 -7.7002,8.8135 -7.7002,23.9356 v 58.7256 h -17.1631 v -103.9063 h 17.1631 v 16.1426 q 5.8447,-9.5557 14.0088,-14.1016 8.164,-4.5459 19.3896,-4.5459 11.3184,0 19.2041,5.752 7.9786,5.752 11.7823,16.6992 z m 107.1845,-19.9463 h 17.0703 V 1867.23 h -17.0703 z m 0,-40.4492 h 17.0703 v 21.6162 h -17.0703 z m 142.1602,40.4492 -37.5733,50.5616 39.5215,53.3447 h -20.1318 l -30.2441,-40.8203 -30.2442,40.8203 h -20.1318 l 40.3564,-54.3653 -36.9238,-49.541 h 20.1318 l 27.5537,37.0166 27.5538,-37.0166 z m 59.4062,-34.6045 h 15.7715 l -48.2422,156.1377 h -15.7714 z m 36.6768,-5.8447 h 17.0703 V 1867.23 h -17.0703 z m 96.0518,52.417 q -13.7305,0 -21.709,10.7617 -7.9785,10.669 -7.9785,29.3164 0,18.6475 7.8857,29.4092 7.9785,10.669 21.8018,10.669 13.6376,0 21.6162,-10.7618 7.9785,-10.7617 7.9785,-29.3164 0,-18.4619 -7.9785,-29.2236 -7.9786,-10.8545 -21.6162,-10.8545 z m 0,-14.4727 q 22.2656,0 34.9755,14.4727 12.71,14.4727 12.71,40.0781 0,25.5127 -12.71,40.0782 -12.7099,14.4726 -34.9755,14.4726 -22.3584,0 -35.0684,-14.4726 -12.6172,-14.5655 -12.6172,-40.0782 0,-25.6054 12.6172,-40.0781 12.71,-14.4727 35.0684,-14.4727 z m 147.3554,53.252 q 0,-18.5547 -7.7002,-28.7598 -7.6074,-10.205 -21.4306,-10.205 -13.7305,0 -21.4307,10.205 -7.6074,10.2051 -7.6074,28.7598 0,18.4619 7.6074,28.667 7.7002,10.2051 21.4307,10.2051 13.8232,0 21.4306,-10.2051 7.7002,-10.2051 7.7002,-28.667 z m 17.0703,40.2637 q 0,26.5332 -11.7822,39.4287 -11.7822,12.9883 -36.0889,12.9883 -8.999,0 -16.9775,-1.3916 -7.9785,-1.2989 -15.4932,-4.0821 v -16.6064 q 7.5147,4.082 14.8438,6.0303 7.3291,1.9482 14.9365,1.9482 16.792,0 25.1416,-8.8135 8.3496,-8.7207 8.3496,-26.4404 v -8.4424 q -5.2881,9.1846 -13.5449,13.7305 -8.2568,4.5459 -19.7607,4.5459 -19.1114,0 -30.8008,-14.5654 -11.6895,-14.5655 -11.6895,-38.5938 0,-24.1211 11.6895,-38.6865 11.6894,-14.5655 30.8008,-14.5655 11.5039,0 19.7607,4.5459 8.2568,4.5459 13.5449,13.7305 v -15.7715 h 17.0703 z m 38.1612,-91.0108 h 17.0703 V 1867.23 h -17.0703 z m 0,-40.4492 h 17.0703 v 21.6162 h -17.0703 z m 130.5634,44.4385 v 15.957 q -7.2363,-3.9892 -14.5654,-5.9375 -7.2363,-2.041 -14.6582,-2.041 -16.6064,0 -25.791,10.5762 -9.1846,10.4834 -9.1846,29.5019 0,19.0186 9.1846,29.5948 9.1846,10.4834 25.791,10.4834 7.4219,0 14.6582,-1.9483 7.3291,-2.041 14.5654,-6.0303 v 15.7715 q -7.1435,3.3399 -14.8437,5.0098 -7.6074,1.6699 -16.2354,1.6699 -23.4716,0 -37.2949,-14.751 -13.8232,-14.7509 -13.8232,-39.7998 0,-25.4199 13.916,-39.9853 14.0088,-14.5655 38.3154,-14.5655 7.8858,0 15.4004,1.67 7.5147,1.5771 14.5654,4.8242 z"
   id="text20"
   style="font-weight:500;font-size:190px;font-family:Montserrat, 'DejaVu Sans', sans-serif;letter-spacing:3;text-anchor:middle;fill:#ffffff"
   aria-label="generator • attenuverters • mix/logic" />
    <g
   id="panel_graphics"
   style="display:inline">
      <g
   id="grp_frame"
   inkscape:label="Frame"
   style="display:inline">
        <rect
   x="1166.1801"
   y="2100"
   width="4700"
   height="7250"
   rx="180"
   ry="180"
   fill="#000000"
   opacity="0.1"
   stroke="#ffffff"
   stroke-opacity="0.06"
   stroke-width="45"
   id="frame_left" />
        <rect
   x="6390"
   y="2100"
   width="4700"
   height="7250"
   rx="180"
   ry="180"
   fill="#000000"
   opacity="0.1"
   stroke="#ffffff"
   stroke-opacity="0.06"
   stroke-width="45"
   id="frame_right" />
        <rect
   x="2000"
   y="8650.0371"
   width="8400"
   height="2750"
   rx="180"
   ry="180"
   fill="#000000"
   opacity="0.1"
   stroke="#ffffff"
   stroke-opacity="0.06"
   stroke-width="45"
   id="frame_outputs" />
        <rect
   x="1166.1801"
   y="11520"
   width="9833.2695"
   height="1500"
   rx="180"
   ry="180"
   fill="#000000"
   opacity="0.1"
   stroke="#ffffff"
   stroke-opacity="0.06"
   stroke-width="45"
   id="frame_bottom" />
      </g>
      <g
   id="grp_genA"
   inkscape:label="Gen A + Loop">
        <circle
   cx="2000"
   cy="2550"
   r="454.70001"
   fill="none"
   stroke="#ffffff"
   stroke-opacity="0.15"
   stroke-width="70"
   id="ring_in1_o" />
        
        <text
   x="2000"
   y="3250.251"
   text-anchor="middle"
   font-family="Montserrat, 'DejaVu Sans', sans-serif"
   font-size="210px"
   font-weight="700"
   letter-spacing="4"
   fill="#eaf1ff"
   fill-opacity="0.78"
   id="lbl_in1"
   style="-inkscape-font-specification:'Montserrat, DejaVu Sans, sans-serif, Bold';font-family:Montserrat, 'DejaVu Sans', sans-serif;font-weight:bold;font-style:normal;font-stretch:normal;font-variant:normal;font-size:212.323px;font-variant-ligatures:normal;font-variant-caps:normal;font-variant-numeric:normal;font-variant-east-asian:normal;fill:#ffffff;fill-opacity:1;letter-spacing:4;text-anchor:middle">IN 1</text>
        <circle
   cx="3100"
   cy="2550"
   r="454.70001"
   fill="none"
   stroke="#ffffff"
   stroke-opacity="0.15"
   stroke-width="70"
   id="ring_trig1_o" />
        
        <text
   x="3100"
   y="3250.251"
   text-anchor="middle"
   font-family="Montserrat, 'DejaVu Sans', sans-serif"
   font-size="200px"
   font-weight="700"
   letter-spacing="4"
   fill="#eaf1ff"
   fill-opacity="0.68"
   id="lbl_trig1"
   style="-inkscape-font-specification:'Montserrat, DejaVu Sans, sans-serif, Bold';font-family:Montserrat, 'DejaVu Sans', sans-serif;font-weight:bold;font-style:normal;font-stretch:normal;font-variant:normal;font-size:212.32317427px;font-variant-ligatures:normal;font-variant-caps:normal;font-variant-numeric:normal;font-variant-east-asian:normal;fill:#ffffff;fill-opacity:1">TRIG</text>
        <circle
   cx="4200"
   cy="2500"
   r="115"
   fill="url(#accentGrad)"
   opacity="0.95"
   stroke="#ffffff"
   stroke-opacity="0.25"
   stroke-width="35"
   id="led_loop1"
   style="fill:url(#linearGradient2)" />
        <path
   d="m 4295.886,3551.8469 h 38.0313 v 118.7367 h 66.7769 v 28.746 H 4295.886 Z m 192.2643,24.8933 q -17.386,0 -26.9678,12.8418 -9.5819,12.8417 -9.5819,36.1544 0,23.214 9.5819,36.0559 9.5818,12.8414 26.9678,12.8414 17.4844,0 27.0663,-12.8414 9.582,-12.8419 9.582,-36.0559 0,-23.3127 -9.582,-36.1544 -9.5819,-12.8418 -27.0663,-12.8418 z m 0,-27.5603 q 35.5617,0 55.7131,20.3493 20.1517,20.3493 20.1517,56.2072 0,35.7593 -20.1517,56.1086 -20.1514,20.3492 -55.7131,20.3492 -35.4633,0 -55.7135,-20.3492 -20.1514,-20.3493 -20.1514,-56.1086 0,-35.8579 20.1514,-56.2072 20.2502,-20.3493 55.7135,-20.3493 z m 175.1744,27.5603 q -17.3856,0 -26.9674,12.8418 -9.5819,12.8417 -9.5819,36.1544 0,23.214 9.5819,36.0559 9.5818,12.8414 26.9674,12.8414 17.4846,0 27.0664,-12.8414 9.5823,-12.8419 9.5823,-36.0559 0,-23.3127 -9.5823,-36.1544 -9.5818,-12.8418 -27.0664,-12.8418 z m 0,-27.5603 q 35.5616,0 55.7135,20.3493 20.1516,20.3493 20.1516,56.2072 0,35.7593 -20.1516,56.1086 -20.1519,20.3492 -55.7135,20.3492 -35.4629,0 -55.7134,-20.3492 -20.1512,-20.3493 -20.1512,-56.1086 0,-35.8579 20.1512,-56.2072 20.2505,-20.3493 55.7134,-20.3493 z m 107.8052,2.667 h 63.1218 q 28.1531,0 43.1681,12.5455 15.1139,12.4466 15.1139,35.5618 0,23.2137 -15.1139,35.7593 -15.015,12.4467 -43.1681,12.4467 h -25.0905 v 51.1694 h -38.0313 z m 38.0313,27.5606 v 41.1922 h 21.0405 q 11.0638,0 17.0895,-5.3341 6.0258,-5.4331 6.0258,-15.3114 0,-9.8783 -6.0258,-15.2125 -6.0257,-5.3342 -17.0895,-5.3342 z"
   id="lbl_loop1"
   style="font-weight:700;font-size:190px;font-family:Montserrat, 'DejaVu Sans', sans-serif;letter-spacing:3;text-anchor:middle;fill:#ffffff;stroke-width:30.0499"
   aria-label="LOOP" />
        <circle
   cx="4179.918"
   cy="3100"
   r="360"
   fill="none"
   stroke="#ffffff"
   stroke-opacity="0.15"
   stroke-width="70"
   id="ring_loopbtn1_o" />
        
        <circle
   cx="5000"
   cy="3100"
   r="300"
   fill="none"
   stroke="#ffffff"
   stroke-opacity="0.15"
   stroke-width="70"
   id="ring_loopA_cv_o" />
        
      </g>
      <g
   id="grp_genB"
   inkscape:label="Gen B + Loop">
        <circle
   cx="7960"
   cy="2500"
   r="115"
   fill="url(#accentGrad)"
   opacity="0.95"
   stroke="#ffffff"
   stroke-opacity="0.25"
   stroke-width="35"
   id="led_loop4"
   style="fill:url(#linearGradient3)" />
        <circle
   cx="7960"
   cy="3100"
   r="360"
   fill="none"
   stroke="#ffffff"
   stroke-opacity="0.15"
   stroke-width="70"
   id="ring_loopbtn4_o" />
        
        <path
   d="m 7247.0196,3551.8469 h 38.0311 v 118.7367 h 66.7772 v 28.746 h -104.8083 z m 192.264,24.8933 q -17.3857,0 -26.9676,12.8418 -9.5818,12.8417 -9.5818,36.1544 0,23.214 9.5818,36.0559 9.5819,12.8414 26.9676,12.8414 17.4846,0 27.0664,-12.8414 9.5818,-12.8419 9.5818,-36.0559 0,-23.3127 -9.5818,-36.1544 -9.5818,-12.8418 -27.0664,-12.8418 z m 0,-27.5603 q 35.5617,0 55.7133,20.3493 20.1518,20.3493 20.1518,56.2072 0,35.7593 -20.1518,56.1086 -20.1516,20.3492 -55.7133,20.3492 -35.4629,0 -55.7135,-20.3492 -20.1516,-20.3493 -20.1516,-56.1086 0,-35.8579 20.1516,-56.2072 20.2506,-20.3493 55.7135,-20.3493 z m 175.1749,27.5603 q -17.3858,0 -26.9678,12.8418 -9.5818,12.8417 -9.5818,36.1544 0,23.214 9.5818,36.0559 9.582,12.8414 26.9678,12.8414 17.4845,0 27.0663,-12.8414 9.5818,-12.8419 9.5818,-36.0559 0,-23.3127 -9.5818,-36.1544 -9.5818,-12.8418 -27.0663,-12.8418 z m 0,-27.5603 q 35.5616,0 55.7132,20.3493 20.1518,20.3493 20.1518,56.2072 0,35.7593 -20.1518,56.1086 -20.1516,20.3492 -55.7132,20.3492 -35.4631,0 -55.7135,-20.3492 -20.1517,-20.3493 -20.1517,-56.1086 0,-35.8579 20.1517,-56.2072 20.2504,-20.3493 55.7135,-20.3493 z m 107.805,2.667 h 63.122 q 28.153,0 43.1681,12.5455 15.1137,12.4466 15.1137,35.5618 0,23.2137 -15.1137,35.7593 -15.0151,12.4467 -43.1681,12.4467 h -25.0908 v 51.1694 h -38.0312 z m 38.0312,27.5606 v 41.1922 h 21.0408 q 11.0636,0 17.0894,-5.334 6.0257,-5.4332 6.0257,-15.3115 0,-9.8783 -6.0257,-15.2125 -6.0258,-5.3342 -17.0894,-5.3342 z"
   id="lbl_loop4"
   style="font-weight:700;font-size:190px;font-family:Montserrat, 'DejaVu Sans', sans-serif;letter-spacing:3;text-anchor:middle;fill:#ffffff;stroke-width:30.0499"
   aria-label="LOOP" />
        <circle
   cx="9050"
   cy="2550"
   r="454.70001"
   fill="none"
   stroke="#ffffff"
   stroke-opacity="0.15"
   stroke-width="70"
   id="ring_trig4_o" />
        
        <text
   x="9050"
   y="3250.251"
   text-anchor="middle"
   font-family="Montserrat, 'DejaVu Sans', sans-serif"
   font-size="200px"
   font-weight="700"
   letter-spacing="4"
   fill="#eaf1ff"
   fill-opacity="0.68"
   id="lbl_trig4"
   style="-inkscape-font-specification:'Montserrat, DejaVu Sans, sans-serif, Bold';font-family:Montserrat, 'DejaVu Sans', sans-serif;font-weight:bold;font-style:normal;font-stretch:normal;font-variant:normal;font-size:212.32317427px;font-variant-ligatures:normal;font-variant-caps:normal;font-variant-numeric:normal;font-variant-east-asian:normal;fill:#ffffff;fill-opacity:1">TRIG</text>
        <circle
   cx="10150"
   cy="2550"
   r="454.70001"
   fill="none"
   stroke="#ffffff"
   stroke-opacity="0.15"
   stroke-width="70"
   id="ring_in4_o" />
        
        <text
   x="10150"
   y="3250.251"
   text-anchor="middle"
   font-family="Montserrat, 'DejaVu Sans', sans-serif"
   font-size="210px"
   font-weight="700"
   letter-spacing="4"
   fill="#eaf1ff"
   fill-opacity="0.78"
   id="lbl_in4"
   style="-inkscape-font-specification:'Montserrat, DejaVu Sans, sans-serif, Bold';font-family:Montserrat, 'DejaVu Sans', sans-serif;font-weight:bold;font-style:normal;font-stretch:normal;font-variant:normal;font-size:212.32317427px;font-variant-ligatures:normal;font-variant-caps:normal;font-variant-numeric:normal;font-variant-east-asian:normal;fill:#ffffff;fill-opacity:1">IN 4</text>
        <circle
   cx="7160"
   cy="3100"
   r="300"
   fill="none"
   stroke="#ffffff"
   stroke-opacity="0.15"
   stroke-width="70"
   id="ring_loopB_cv_o" />
        
      </g>
      <g
   id="grp_slewA"
   inkscape:label="Slew A">
        <circle
   cx="3257.6777"
   cy="4682.3936"
   r="300"
   fill="none"
   stroke="#ffffff"
   stroke-opacity="0.15"
   stroke-width="70"
   id="ring_surgeA_cv_o" />
        
        <circle
   cx="4388.54"
   cy="4650"
   r="520"
   fill="none"
   stroke="#ffffff"
   stroke-opacity="0.15"
   stroke-width="70"
   id="ring_surgeA_o" />
        
        <text
   x="4388.54"
   y="5527.0972"
   text-anchor="middle"
   font-family="Montserrat, 'DejaVu Sans', sans-serif"
   font-size="240px"
   font-weight="800"
   letter-spacing="5"
   fill="#eaf1ff"
   fill-opacity="0.72"
   id="lbl_surgeA"
   style="fill:#ffffff;fill-opacity:1">SURGE</text>
        <circle
   cx="4283.1519"
   cy="7354.9507"
   r="300"
   fill="none"
   stroke="#ffffff"
   stroke-opacity="0.15"
   stroke-width="70"
   id="ring_sinkA_cv_o" />
        
        <circle
   cx="5216.54"
   cy="6333.5591"
   r="520"
   fill="none"
   stroke="#ffffff"
   stroke-opacity="0.15"
   stroke-width="70"
   id="ring_sinkA_o" />
        
        <text
   x="5216.54"
   y="7270"
   text-anchor="middle"
   font-family="Montserrat, 'DejaVu Sans', sans-serif"
   font-size="240px"
   font-weight="800"
   letter-spacing="5"
   fill="#eaf1ff"
   fill-opacity="0.72"
   id="lbl_sinkA"
   style="fill:#ffffff;fill-opacity:1">SINK</text>
        <circle
   cx="3844.623"
   cy="6172.1733"
   r="300"
   fill="none"
   stroke="#ffffff"
   stroke-opacity="0.15"
   stroke-width="70"
   id="ring_bothA_cv_o" />
        
        <text
   x="3853.4072"
   y="6749.5474"
   text-anchor="middle"
   font-family="Montserrat, 'DejaVu Sans', sans-serif"
   font-size="165px"
   font-weight="700"
   letter-spacing="2"
   fill="#eaf1ff"
   fill-opacity="0.52"
   id="lbl_bothA"
   style="font-style:normal;font-variant:normal;font-weight:bold;font-stretch:normal;font-size:212.323px;font-family:Montserrat, 'DejaVu Sans', sans-serif;-inkscape-font-specification:'Montserrat, DejaVu Sans, sans-serif, Bold';font-variant-ligatures:normal;font-variant-caps:normal;font-variant-numeric:normal;font-variant-east-asian:normal;letter-spacing:2;text-anchor:middle;fill:#ffffff;fill-opacity:1">BOTH</text>
        <ellipse
   cx="2370.1685"
   cy="6739.395"
   fill="none"
   stroke="#ffffff"
   stroke-opacity="0.15"
   stroke-width="71.5728"
   id="ring_curveA_o-4"
   rx="544.07501"
   ry="519.57361"
   style="display:inline" /><line
   x1="1942.9277"
   y1="6363.8149"
   x2="1851.4629"
   y2="6290.3999"
   stroke="#ffffff"
   stroke-width="54.7339"
   stroke-linecap="round"
   stroke-opacity="0.85"
   id="line1"
   style="display:inline;stroke:#ffffff;stroke-opacity:1" /><path
   d="m 1697.1125,6081.8906 h 33.8379 v 105.6446 h 59.4141 v 25.5761 h -93.252 z m 124.6973,0 h 33.8379 v 131.2207 h -33.8379 z m 76.9727,0 h 37.7929 l 47.7246,90 v -90 h 32.0801 v 131.2207 h -37.7929 l -47.7247,-90 v 90 h -32.08 z"
   id="text1"
   style="font-weight:800;font-size:180px;font-family:Montserrat, 'DejaVu Sans', sans-serif;letter-spacing:10;text-anchor:middle;fill:#ffffff"
   aria-label="LIN" />
        
        <path
   d="m 2068.9496,7759.9539 q -10.9894,5.702 -22.9118,8.6049 -11.9225,2.9028 -24.8816,2.9028 -38.6702,0 -61.271,-21.5641 -22.6008,-21.6677 -22.6008,-58.6791 0,-37.1151 22.6008,-58.6792 22.6008,-21.6677 61.271,-21.6677 12.9591,0 24.8816,2.9028 11.9224,2.9029 22.9118,8.6049 v 32.0351 q -11.0931,-7.5682 -21.8751,-11.093 -10.782,-3.5249 -22.7045,-3.5249 -21.3567,0 -33.5902,13.6848 -12.2334,13.6849 -12.2334,37.7372 0,23.9485 12.2334,37.6334 12.2335,13.6849 33.5902,13.6849 11.9225,0 22.7045,-3.5249 10.782,-3.5249 21.8751,-11.093 z m 38.0718,-146.2833 h 39.9143 v 92.7878 q 0,19.1796 6.2204,27.4734 6.3241,8.1902 20.5273,8.1902 14.307,0 20.5274,-8.1902 6.3241,-8.2938 6.3241,-27.4734 v -92.7878 h 39.9142 v 92.7878 q 0,32.8644 -16.484,48.9338 -16.4841,16.0694 -50.2817,16.0694 -33.6938,0 -50.1779,-16.0694 -16.4841,-16.0694 -16.4841,-48.9338 z m 234.1183,68.6319 q 12.5445,0 17.9355,-4.6653 5.4947,-4.6653 5.4947,-15.3437 0,-10.5747 -5.4947,-15.1363 -5.391,-4.5617 -17.9355,-4.5617 h -16.7951 v 39.707 z m -16.7951,27.5771 v 58.5755 h -39.9143 v -154.7845 h 60.96 q 30.5837,0 44.7869,10.2637 14.307,10.2637 14.307,32.4498 0,15.3437 -7.4645,25.1926 -7.3608,9.849 -22.2898,14.5143 8.1902,1.8661 14.6179,8.5012 6.5315,6.5315 13.1666,19.9053 l 21.6677,43.9576 h -42.5061 l -18.8685,-38.4629 q -5.7021,-11.6114 -11.6115,-15.862 -5.8057,-4.2506 -15.551,-4.2506 z m 110.1249,-96.209 h 40.1216 l 41.0547,114.2482 40.951,-114.2482 h 40.1216 l -57.3314,154.7845 h -47.5861 z m 187.7762,0 h 107.7167 v 30.169 H 2662.16 v 28.8212 h 63.7592 v 30.169 H 2662.16 v 35.4563 h 70.0832 v 30.169 h -109.9975 z"
   id="lbl_curveA"
   style="font-weight:800;font-size:212.323px;font-family:Montserrat, 'DejaVu Sans', sans-serif;-inkscape-font-specification:'Montserrat, DejaVu Sans, sans-serif, Ultra-Bold';letter-spacing:5;text-anchor:middle;fill:#ffffff;stroke-width:28.856"
   transform="scale(1.0233068,0.97722402)"
   aria-label="CURVE" />
      </g>
      <g
   id="grp_slewB"
   inkscape:label="Slew B">
        <circle
   cx="8918.8623"
   cy="4682.3936"
   r="300"
   fill="none"
   stroke="#ffffff"
   stroke-opacity="0.15"
   stroke-width="70"
   id="ring_surgeB_cv_o" />
        
        <circle
   cx="7788"
   cy="4650"
   r="520"
   fill="none"
   stroke="#ffffff"
   stroke-opacity="0.15"
   stroke-width="70"
   id="ring_surgeB_o" />
        
        <text
   x="7788"
   y="5527.0972"
   text-anchor="middle"
   font-family="Montserrat, 'DejaVu Sans', sans-serif"
   font-size="240px"
   font-weight="800"
   letter-spacing="5"
   fill="#eaf1ff"
   fill-opacity="0.72"
   id="lbl_surgeB"
   style="fill:#ffffff;fill-opacity:1">SURGE</text>
        <circle
   cx="7893.3882"
   cy="7354.9507"
   r="300"
   fill="none"
   stroke="#ffffff"
   stroke-opacity="0.15"
   stroke-width="70"
   id="ring_sinkB_cv_o" />
        
        <circle
   cx="6960"
   cy="6333.5591"
   r="520"
   fill="none"
   stroke="#ffffff"
   stroke-opacity="0.15"
   stroke-width="70"
   id="ring_sinkB_o" />
        
        <text
   x="6960"
   y="7270"
   text-anchor="middle"
   font-family="Montserrat, 'DejaVu Sans', sans-serif"
   font-size="240px"
   font-weight="800"
   letter-spacing="5"
   fill="#eaf1ff"
   fill-opacity="0.72"
   id="lbl_sinkB"
   style="fill:#ffffff;fill-opacity:1">SINK</text>
        
        
        <path
   d="m 9315.4008,7759.9539 q -10.9894,5.702 -22.9118,8.6049 -11.9225,2.9028 -24.8817,2.9028 -38.6702,0 -61.271,-21.5641 -22.6008,-21.6677 -22.6008,-58.6791 0,-37.1151 22.6008,-58.6792 22.6008,-21.6677 61.271,-21.6677 12.9592,0 24.8817,2.9028 11.9224,2.9029 22.9118,8.6049 v 32.0351 q -11.0931,-7.5682 -21.8751,-11.093 -10.7821,-3.5249 -22.7045,-3.5249 -21.3567,0 -33.5902,13.6848 -12.2335,13.6849 -12.2335,37.7372 0,23.9485 12.2335,37.6334 12.2335,13.6849 33.5902,13.6849 11.9224,0 22.7045,-3.5249 10.782,-3.5249 21.8751,-11.093 z m 38.0718,-146.2833 h 39.9143 v 92.7878 q 0,19.1796 6.2204,27.4734 6.3241,8.1902 20.5273,8.1902 14.307,0 20.5274,-8.1902 6.324,-8.2938 6.324,-27.4734 v -92.7878 h 39.9143 v 92.7878 q 0,32.8644 -16.4841,48.9338 -16.484,16.0694 -50.2816,16.0694 -33.6938,0 -50.1779,-16.0694 -16.4841,-16.0694 -16.4841,-48.9338 z m 234.1183,68.6319 q 12.5445,0 17.9355,-4.6653 5.4947,-4.6653 5.4947,-15.3437 0,-10.5747 -5.4947,-15.1363 -5.391,-4.5617 -17.9355,-4.5617 h -16.7951 v 39.707 z m -16.7951,27.5771 v 58.5755 h -39.9143 v -154.7845 h 60.96 q 30.5836,0 44.7869,10.2637 14.3069,10.2637 14.3069,32.4498 0,15.3437 -7.4644,25.1926 -7.3609,9.849 -22.2898,14.5143 8.1902,1.8661 14.6179,8.5012 6.5314,6.5315 13.1665,19.9053 l 21.6678,43.9576 h -42.5061 l -18.8686,-38.4629 q -5.702,-11.6114 -11.6114,-15.862 -5.8057,-4.2506 -15.551,-4.2506 z m 110.1249,-96.209 h 40.1216 l 41.0546,114.2482 40.9511,-114.2482 h 40.1216 l -57.3314,154.7845 h -47.5861 z m 187.7762,0 h 107.7167 v 30.169 h -67.8024 v 28.8212 h 63.7591 v 30.169 h -63.7591 v 35.4563 h 70.0832 v 30.169 h -109.9975 z"
   id="lbl_curveB"
   style="font-weight:800;font-size:212.323px;font-family:Montserrat, 'DejaVu Sans', sans-serif;-inkscape-font-specification:'Montserrat, DejaVu Sans, sans-serif, Ultra-Bold';letter-spacing:5;text-anchor:middle;fill:#ffffff;stroke-width:28.856"
   transform="scale(1.0233068,0.97722402)"
   aria-label="CURVE" />
        <circle
   cx="8331.917"
   cy="6172.1733"
   r="300"
   fill="none"
   stroke="#ffffff"
   stroke-opacity="0.15"
   stroke-width="70"
   id="ring_bothB_cv_o" />
        
        <text
   x="8323.1328"
   y="6749.5474"
   text-anchor="middle"
   font-family="Montserrat, 'DejaVu Sans', sans-serif"
   font-size="165px"
   font-weight="700"
   letter-spacing="2"
   fill="#eaf1ff"
   fill-opacity="0.52"
   id="lbl_bothB"
   style="font-style:normal;font-variant:normal;font-weight:bold;font-stretch:normal;font-size:212.323px;font-family:Montserrat, 'DejaVu Sans', sans-serif;-inkscape-font-specification:'Montserrat, DejaVu Sans, sans-serif, Bold';font-variant-ligatures:normal;font-variant-caps:normal;font-variant-numeric:normal;font-variant-east-asian:normal;letter-spacing:2;text-anchor:middle;fill:#ffffff;fill-opacity:1">BOTH</text>
      </g>
      <g
   id="grp_mid"
   inkscape:label="Mid Inputs">
        <circle
   cx="5200"
   cy="8600"
   r="300"
   fill="none"
   stroke="#ffffff"
   stroke-opacity="0.15"
   stroke-width="70"
   id="ring_in2_o" />
        
        <text
   x="5204.854"
   y="8062.667"
   text-anchor="middle"
   font-family="Montserrat, 'DejaVu Sans', sans-serif"
   font-size="200px"
   font-weight="700"
   letter-spacing="3"
   fill="#eaf1ff"
   fill-opacity="0.62"
   id="lbl_in2"
   style="-inkscape-font-specification:'Montserrat, DejaVu Sans, sans-serif, Bold';font-family:Montserrat, 'DejaVu Sans', sans-serif;font-weight:bold;font-style:normal;font-stretch:normal;font-variant:normal;font-size:212.32317427px;font-variant-ligatures:normal;font-variant-caps:normal;font-variant-numeric:normal;font-variant-east-asian:normal;fill:#ffffff;fill-opacity:1">IN 2</text>
        <circle
   cx="6960"
   cy="8600"
   r="300"
   fill="none"
   stroke="#ffffff"
   stroke-opacity="0.15"
   stroke-width="70"
   id="ring_in3_o" />
        
        <text
   x="6959.894"
   y="8062.667"
   text-anchor="middle"
   font-family="Montserrat, 'DejaVu Sans', sans-serif"
   font-size="200px"
   font-weight="700"
   letter-spacing="3"
   fill="#eaf1ff"
   fill-opacity="0.62"
   id="lbl_in3"
   style="-inkscape-font-specification:'Montserrat, DejaVu Sans, sans-serif, Bold';font-family:Montserrat, 'DejaVu Sans', sans-serif;font-weight:bold;font-style:normal;font-stretch:normal;font-variant:normal;font-size:212.32317427px;font-variant-ligatures:normal;font-variant-caps:normal;font-variant-numeric:normal;font-variant-east-asian:normal;fill:#ffffff;fill-opacity:1">IN 3</text>
      </g>
      <g
   id="grp_outputs"
   inkscape:label="Outputs + EoR/EoC"
   style="display:inline">
        <circle
   cx="2660"
   cy="10710"
   r="100"
   fill="url(#accentGrad)"
   opacity="0.95"
   stroke="#ffffff"
   stroke-opacity="0.25"
   stroke-width="35"
   id="led_eor"
   style="fill:url(#linearGradient4)" />
        <text
   x="2000"
   y="10158.882"
   text-anchor="middle"
   font-family="Montserrat, 'DejaVu Sans', sans-serif"
   font-size="200px"
   font-weight="700"
   letter-spacing="4"
   fill="#eaf1ff"
   fill-opacity="0.65"
   id="lbl_eor"
   style="-inkscape-font-specification:'Montserrat, DejaVu Sans, sans-serif, Ultra-Bold';font-family:Montserrat, 'DejaVu Sans', sans-serif;font-weight:800;font-style:normal;font-stretch:normal;font-variant:normal;font-size:212.32317427px;font-variant-ligatures:normal;font-variant-caps:normal;font-variant-numeric:normal;font-variant-east-asian:normal;fill:#ffffff;fill-opacity:1">EoR</text>
        <circle
   cx="2000"
   cy="10730"
   r="454.70001"
   fill="none"
   stroke="#ffffff"
   stroke-opacity="0.15"
   stroke-width="70"
   id="ring_eor_o" />
        
        <circle
   cx="9490"
   cy="10710"
   r="100"
   fill="url(#accentGrad)"
   opacity="0.95"
   stroke="#ffffff"
   stroke-opacity="0.25"
   stroke-width="35"
   id="led_eoc"
   style="fill:url(#linearGradient9)" />
        <text
   x="10150"
   y="10158.882"
   text-anchor="middle"
   font-family="Montserrat, 'DejaVu Sans', sans-serif"
   font-size="200px"
   font-weight="700"
   letter-spacing="4"
   fill="#eaf1ff"
   fill-opacity="0.65"
   id="lbl_eoc"
   style="-inkscape-font-specification:'Montserrat, DejaVu Sans, sans-serif, Ultra-Bold';font-family:Montserrat, 'DejaVu Sans', sans-serif;font-weight:800;font-style:normal;font-stretch:normal;font-variant:normal;font-size:212.32317427px;font-variant-ligatures:normal;font-variant-caps:normal;font-variant-numeric:normal;font-variant-east-asian:normal;fill:#ffffff;fill-opacity:1">EoC</text>
        <circle
   cx="10150"
   cy="10730"
   r="454.70001"
   fill="none"
   stroke="#ffffff"
   stroke-opacity="0.15"
   stroke-width="70"
   id="ring_eoc_o" />
        
        <circle
   cx="3600"
   cy="9680"
   r="454.70001"
   fill="none"
   stroke="#ffffff"
   stroke-opacity="0.15"
   stroke-width="70"
   id="ring_att1_o" />
        
        <circle
   cx="5200"
   cy="9680"
   r="454.70001"
   fill="none"
   stroke="#ffffff"
   stroke-opacity="0.15"
   stroke-width="70"
   id="ring_att2_o" />
        
        <circle
   cx="6960"
   cy="9680"
   r="454.70001"
   fill="none"
   stroke="#ffffff"
   stroke-opacity="0.15"
   stroke-width="70"
   id="ring_att3_o" />
        
        <circle
   cx="8600"
   cy="9680"
   r="454.70001"
   fill="none"
   stroke="#ffffff"
   stroke-opacity="0.15"
   stroke-width="70"
   id="ring_att4_o" />
        
        <circle
   cx="3600"
   cy="10730"
   r="454.70001"
   fill="none"
   stroke="#ffffff"
   stroke-opacity="0.15"
   stroke-width="70"
   id="ring_out1_o" />
        
        <text
   x="3600"
   y="11470.305"
   text-anchor="middle"
   font-family="Montserrat, 'DejaVu Sans', sans-serif"
   font-size="210px"
   font-weight="700"
   letter-spacing="4"
   fill="#eaf1ff"
   fill-opacity="0.62"
   id="lbl_out1"
   style="font-style:normal;font-variant:normal;font-weight:bold;font-stretch:normal;font-size:283.098px;font-family:Montserrat, 'DejaVu Sans', sans-serif;-inkscape-font-specification:'Montserrat, DejaVu Sans, sans-serif, Bold';font-variant-ligatures:normal;font-variant-caps:normal;font-variant-numeric:normal;font-variant-east-asian:normal;letter-spacing:4;text-anchor:middle;fill:#ffffff;fill-opacity:1"><tspan
     sodipodi:role="line"
     id="tspan16"
     x="3602"
     y="11470.305">1</tspan></text>
        <circle
   cx="5200"
   cy="10730"
   r="454.70001"
   fill="none"
   stroke="#ffffff"
   stroke-opacity="0.15"
   stroke-width="70"
   id="ring_out2_o" />
        
        <text
   x="5200"
   y="11470.305"
   text-anchor="middle"
   font-family="Montserrat, 'DejaVu Sans', sans-serif"
   font-size="210px"
   font-weight="700"
   letter-spacing="4"
   fill="#eaf1ff"
   fill-opacity="0.62"
   id="lbl_out2"
   style="font-style:normal;font-variant:normal;font-weight:bold;font-stretch:normal;font-size:283.098px;font-family:Montserrat, 'DejaVu Sans', sans-serif;-inkscape-font-specification:'Montserrat, DejaVu Sans, sans-serif, Bold';font-variant-ligatures:normal;font-variant-caps:normal;font-variant-numeric:normal;font-variant-east-asian:normal;letter-spacing:4;text-anchor:middle;fill:#ffffff;fill-opacity:1"><tspan
     sodipodi:role="line"
     id="tspan17"
     x="5202"
     y="11470.305">2</tspan></text>
        <circle
   cx="6960"
   cy="10730"
   r="454.70001"
   fill="none"
   stroke="#ffffff"
   stroke-opacity="0.15"
   stroke-width="70"
   id="ring_out3_o" />
        
        <text
   x="6960"
   y="11470.305"
   text-anchor="middle"
   font-family="Montserrat, 'DejaVu Sans', sans-serif"
   font-size="210px"
   font-weight="700"
   letter-spacing="4"
   fill="#eaf1ff"
   fill-opacity="0.62"
   id="lbl_out3"
   style="font-style:normal;font-variant:normal;font-weight:bold;font-stretch:normal;font-size:283.098px;font-family:Montserrat, 'DejaVu Sans', sans-serif;-inkscape-font-specification:'Montserrat, DejaVu Sans, sans-serif, Bold';font-variant-ligatures:normal;font-variant-caps:normal;font-variant-numeric:normal;font-variant-east-asian:normal;letter-spacing:4;text-anchor:middle;fill:#ffffff;fill-opacity:1"><tspan
     sodipodi:role="line"
     id="tspan18"
     x="6962"
     y="11470.305">3</tspan></text>
        <circle
   cx="8600"
   cy="10730"
   r="454.70001"
   fill="none"
   stroke="#ffffff"
   stroke-opacity="0.15"
   stroke-width="70"
   id="ring_out4_o" />
        
        <text
   x="8600"
   y="11470.305"
   text-anchor="middle"
   font-family="Montserrat, 'DejaVu Sans', sans-serif"
   font-size="210px"
   font-weight="700"
   letter-spacing="4"
   fill="#eaf1ff"
   fill-opacity="0.62"
   id="lbl_out4"
   style="font-style:normal;font-variant:normal;font-weight:bold;font-stretch:normal;font-size:283.098px;font-family:Montserrat, 'DejaVu Sans', sans-serif;-inkscape-font-specification:'Montserrat, DejaVu Sans, sans-serif, Bold';font-variant-ligatures:normal;font-variant-caps:normal;font-variant-numeric:normal;font-variant-east-asian:normal;letter-spacing:4;text-anchor:middle;fill:#ffffff;fill-opacity:1"><tspan
     sodipodi:role="line"
     id="tspan19"
     x="8602"
     y="11470.305">4</tspan></text>      </g>
      <g
   id="grp_logic"
   inkscape:label="Mix/Logic + S1/S4">
        <circle
   cx="2000"
   cy="11860"
   r="454.70001"
   fill="none"
   stroke="#ffffff"
   stroke-opacity="0.15"
   stroke-width="70"
   id="ring_s1_o" />
        
        <text
   x="2000"
   y="12590.281"
   text-anchor="middle"
   font-family="Montserrat, 'DejaVu Sans', sans-serif"
   font-size="220px"
   font-weight="800"
   letter-spacing="6"
   fill="#eaf1ff"
   fill-opacity="0.7"
   id="lbl_s1"
   style="-inkscape-font-specification:'Montserrat, DejaVu Sans, sans-serif, Ultra-Bold';font-family:Montserrat, 'DejaVu Sans', sans-serif;font-weight:800;font-style:normal;font-stretch:normal;font-variant:normal;font-size:212.32317427px;font-variant-ligatures:normal;font-variant-caps:normal;font-variant-numeric:normal;font-variant-east-asian:normal;fill:#ffffff;fill-opacity:1">S1</text>
        <circle
   cx="2660"
   cy="11840"
   r="105"
   fill="url(#accentGrad)"
   opacity="0.95"
   stroke="#ffffff"
   stroke-opacity="0.25"
   stroke-width="35"
   id="led_s1"
   style="fill:url(#linearGradient10)" />
        <circle
   cx="4900"
   cy="12130.806"
   r="454.70001"
   fill="none"
   stroke="#ffffff"
   stroke-opacity="0.15"
   stroke-width="70"
   id="ring_or_o" />
        
        <path
   d="m 4801.6687,12691.107 q -21.0908,0 -32.7145,15.578 -11.6238,15.579 -11.6238,43.861 0,28.158 11.6238,43.738 11.6237,15.579 32.7145,15.579 21.2104,0 32.8342,-15.579 11.6239,-15.58 11.6239,-43.738 0,-28.282 -11.6239,-43.861 -11.6238,-15.578 -32.8342,-15.578 z m 0,-33.433 q 43.14,0 67.5859,24.687 24.4459,24.683 24.4459,68.185 0,43.38 -24.4459,68.062 -24.4459,24.687 -67.5859,24.687 -43.02,0 -67.5859,-24.687 -24.4461,-24.682 -24.4461,-68.062 0,-43.502 24.4461,-68.185 24.5659,-24.687 67.5859,-24.687 z m 199.1454,82.567 q 14.4998,0 20.7312,-5.393 6.3511,-5.394 6.3511,-17.738 0,-12.223 -6.3511,-17.495 -6.2314,-5.273 -20.7312,-5.273 h -19.4131 v 45.899 z m -19.4131,31.875 v 67.704 h -46.1357 v -178.91 h 70.462 q 35.3508,0 51.7679,11.862 16.5369,11.865 16.5369,37.508 0,17.736 -8.6277,29.121 -8.5083,11.384 -25.7643,16.778 9.4668,2.153 16.8966,9.823 7.5493,7.551 15.2186,23.008 l 25.0452,50.81 h -49.1316 l -21.8095,-44.457 q -6.591,-13.423 -13.4214,-18.335 -6.7107,-4.912 -17.9751,-4.912 z"
   id="lbl_or"
   style="font-weight:800;font-size:220px;font-family:Montserrat, 'DejaVu Sans', sans-serif;letter-spacing:6;text-anchor:middle;fill:#eaf1ff;fill-opacity:1;stroke-width:31.4827"
   aria-label="OR" />
        
        <circle
   cx="6080"
   cy="12130.806"
   r="454.70001"
   fill="none"
   stroke="#ffffff"
   stroke-opacity="0.15"
   stroke-width="70"
   id="ring_sum_o" />
        
        <path
   d="m 5916.4474,12666.223 v 36.506 q -14.2101,-6.352 -27.7271,-9.588 -13.5168,-3.235 -25.5317,-3.235 -15.9431,0 -23.5682,4.39 -7.625,4.39 -7.625,13.632 0,6.933 5.0835,10.861 5.1986,3.813 18.7157,6.584 l 18.9468,3.813 q 28.7668,5.775 40.8973,17.56 12.1307,11.785 12.1307,33.505 0,28.535 -16.9829,42.514 -16.8673,13.862 -51.6414,13.862 -16.4055,0 -32.926,-3.117 -16.5207,-3.12 -33.0415,-9.242 v -37.549 q 16.5208,8.781 31.886,13.287 15.4811,4.39 29.8068,4.39 14.5567,0 22.297,-4.852 7.7406,-4.853 7.7406,-13.864 0,-8.087 -5.3143,-12.477 -5.1989,-4.39 -20.9109,-7.857 l -17.2138,-3.813 q -25.8787,-5.544 -37.8936,-17.675 -11.8996,-12.129 -11.8996,-32.695 0,-25.763 16.6364,-39.627 16.636,-13.862 47.829,-13.862 14.2101,0 29.229,2.197 15.0187,2.077 31.0772,6.352 z m 56.8238,-5.429 h 44.4786 v 103.398 q 0,21.373 6.9318,30.615 7.0473,9.127 22.8747,9.127 15.9433,0 22.8748,-9.127 7.0473,-9.242 7.0473,-30.615 v -103.398 h 44.4789 v 103.398 q 0,36.622 -18.3694,54.528 -18.3689,17.907 -56.0316,17.907 -37.5469,0 -55.9161,-17.907 -18.369,-17.906 -18.369,-54.528 z m 198.578,0 h 56.6092 l 39.2799,92.308 39.5112,-92.308 h 56.4937 v 172.485 h -42.0527 v -126.16 l -39.7421,93.002 h -28.189 l -39.7422,-93.002 v 126.16 h -42.168 z"
   id="lbl_sum"
   style="font-weight:800;font-size:220px;font-family:Montserrat, 'DejaVu Sans', sans-serif;letter-spacing:6;text-anchor:middle;fill:#eaf1ff;fill-opacity:1;stroke-width:30.352"
   aria-label="SUM" />
        <circle
   cx="7260"
   cy="12130.806"
   r="454.70001"
   fill="none"
   stroke="#ffffff"
   stroke-opacity="0.15"
   stroke-width="70"
   id="ring_inv_o" />
        
        <path
   d="m 7035.9678,12660.574 h 45.2468 v 175.465 h -45.2468 z m 96.1179,0 h 50.5354 l 63.8157,120.346 v -120.346 h 42.8963 v 175.465 h -50.5355 l -63.8156,-120.345 v 120.345 h -42.8963 z m 187.0815,0 h 45.4818 l 46.5397,129.513 46.422,-129.513 h 45.482 l -64.991,175.465 h -53.9436 z"
   id="lbl_inv"
   style="font-weight:800;font-size:220px;font-family:Montserrat, 'DejaVu Sans', sans-serif;letter-spacing:6;text-anchor:middle;fill:#eaf1ff;fill-opacity:1;stroke-width:30.876"
   aria-label="INV" />
        
        <circle
   cx="10150"
   cy="11860"
   r="454.70001"
   fill="none"
   stroke="#ffffff"
   stroke-opacity="0.15"
   stroke-width="70"
   id="ring_s4_o" />
        
        <text
   x="10150"
   y="12590.281"
   text-anchor="middle"
   font-family="Montserrat, 'DejaVu Sans', sans-serif"
   font-size="220px"
   font-weight="800"
   letter-spacing="6"
   fill="#eaf1ff"
   fill-opacity="0.7"
   id="lbl_s4"
   style="-inkscape-font-specification:'Montserrat, DejaVu Sans, sans-serif, Ultra-Bold';font-family:Montserrat, 'DejaVu Sans', sans-serif;font-weight:800;font-style:normal;font-stretch:normal;font-variant:normal;font-size:212.32317427px;font-variant-ligatures:normal;font-variant-caps:normal;font-variant-numeric:normal;font-variant-east-asian:normal;fill:#ffffff;fill-opacity:1">S4</text>
        <circle
   cx="9490"
   cy="11840"
   r="105"
   fill="url(#accentGrad)"
   opacity="0.95"
   stroke="#ffffff"
   stroke-opacity="0.25"
   stroke-width="35"
   id="led_s4"
   style="fill:url(#linearGradient11)" />
      </g>
      <g
   id="grp_brand"
   inkscape:label="Branding"
   transform="translate(0,110.35431)">
        <path
   d="m 5204.6964,13132.535 -16.5612,-15.287 10.8284,-12.74 q -1.2739,-1.274 -2.5478,-1.911 -0.637,-0.637 -1.274,-1.91 l -3.8218,-3.822 q -1.9109,-1.274 -5.0958,-2.548 -2.5478,-1.911 -7.6436,-6.37 -3.8218,-1.911 -8.2806,-4.459 -4.4588,-3.185 -9.5545,-7.006 h -1.911 l -1.2739,-0.637 h -3.8218 l -0.637,-0.637 q -21.657,0 -28.6636,12.102 -6.3697,8.281 -6.3697,12.74 v 193.638 q 0,8.918 -4.4588,19.11 -3.8218,9.554 -10.8285,18.472 -6.3697,8.28 -14.6503,15.287 -8.2806,7.007 -17.1982,10.828 v -0.637 q -3.1849,2.548 -7.6437,3.822 -4.4587,0.637 -12.7394,3.822 h 0.637 q -1.2739,0.637 -2.5479,0.637 -0.6369,0 -1.2739,0.637 -1.2739,0 -2.5479,0.637 -1.2739,0 -2.5479,0 -1.9109,0.637 -5.0957,0.637 h -9.5546 q 8.9176,-8.918 14.0134,-18.472 5.0957,-9.555 6.3697,-21.02 v -3.185 q 0,-2.548 0.6369,-5.733 0,-1.274 0,-1.911 0.637,-0.637 0.637,-1.911 v -177.077 q 0,-34.397 55.4164,-70.067 50.9576,-33.122 87.2649,-33.122 h 2.5479 q 10.8284,0 41.403,12.102 19.1091,9.555 26.1158,21.657 z m 4.4588,324.218 q -70.7037,-29.938 -143.9552,-29.938 -63.0601,0 -110.8328,21.657 -4.4588,1.274 -10.8285,4.459 -5.7327,3.822 -12.7394,7.007 14.0133,-26.753 36.3073,-45.862 22.2939,-19.109 54.7794,-31.849 55.4164,-22.294 113.3807,-22.294 38.2181,0 66.8818,9.555 v -117.84 q -10.8285,-3.821 -10.8285,-19.109 0,-8.917 7.0067,-15.924 7.0066,-7.644 15.9242,-7.644 8.9176,0 15.2873,7.644 7.0067,7.007 7.0067,15.924 0,15.288 -11.4655,20.383 v 122.936 q 1.274,1.273 7.0067,2.547 l 2.5479,1.911 h -1.274 q 2.5479,1.274 3.1849,1.911 v -0.637 l 1.2739,0.637 0.637,0.637 2.5479,1.274 8.9175,-10.828 17.8352,14.013 z m -175.8037,-339.505 4.4587,1.274 q -7.6436,22.931 -7.6436,24.842 l -1.2739,178.988 v 1.274 q 0,9.555 -10.1916,25.479 -27.3897,43.951 -73.2515,48.41 15.2873,-24.842 15.2873,-48.41 v -64.971 q -1.274,-1.274 -4.4588,-1.911 -2.5479,-1.274 -5.7327,-3.822 h -1.911 q -7.0066,0 -12.7393,4.459 -5.7328,4.459 -6.3697,11.465 l 0.6369,0.637 v 4.459 h -3.1848 l -0.637,0.637 h -2.5479 q -10.8285,0 -19.746,-9.554 -8.2807,-10.192 -8.9176,-21.02 -0.637,-1.274 -0.637,-7.007 0,-35.033 38.2182,-49.684 6.3697,-1.274 12.7394,-1.911 7.0067,-1.274 15.2873,-2.548 v -23.567 q 0,-8.918 0.6369,-12.103 2.5479,-17.835 29.3007,-36.307 25.4788,-19.746 43.9509,-19.746 z m 55.4163,-62.423 q -3.1848,26.752 -30.5745,43.951 -24.2049,17.198 -50.9576,17.198 -15.9243,0 -35.0334,-7.644 -4.4588,0 -5.0957,-1.274 -2.5479,-1.274 -4.4588,-1.911 -2.5479,0 -3.8218,-0.637 -3.8219,-1.274 -9.5546,-1.911 -5.7327,-1.274 -7.6436,-1.274 l -0.637,0.637 q -7.0067,0 -9.5545,1.911 -3.8219,0 -8.2806,4.459 -2.5479,0.637 -7.6437,4.459 -4.4588,3.185 -11.4654,8.918 v -6.37 q 0,-35.67 19.746,-57.327 19.7461,-22.294 54.1425,-22.294 10.8285,0 22.9309,3.184 12.7394,2.548 27.3897,7.644 29.3006,10.829 42.04,10.829 1.9109,0 4.4588,-0.637 2.5479,-0.637 6.3697,-1.911 1.2739,-1.274 4.4588,-2.548 z m 412.3741,210.2 q -7.6436,3.822 -30.5746,17.198 -22.2939,12.739 -61.1491,35.67 -5.7327,3.185 -12.7394,8.281 v 47.773 q 19.7461,3.184 36.3073,8.28 17.1982,5.096 31.8485,12.103 l 15.2873,-15.925 15.9242,14.651 -57.9642,63.697 -6.3697,-3.185 q -13.3764,-7.007 -26.1158,-13.376 -12.7394,-5.733 -29.3006,-8.918 -28.0267,-5.733 -48.4097,-5.733 -7.6437,0 -15.2873,1.274 -7.6436,0.637 -15.2873,1.911 1.274,-3.185 2.5479,-5.096 1.2739,-2.548 2.5479,-3.822 v 0.637 q 4.4588,-7.006 7.0066,-11.465 3.1849,-4.459 3.8219,-5.096 4.4588,-5.732 17.1982,-15.287 v -154.147 q 0,-9.554 -10.1916,-31.848 v -8.918 l 5.7328,5.733 h 3.8218 l 0.637,0.637 h 1.9109 l 1.9109,0.637 h 2.5479 q 50.3206,0 113.3806,-42.04 3.1849,11.465 8.2806,24.842 5.0958,13.376 14.0134,29.937 8.2806,14.651 15.2872,27.39 7.6437,12.102 14.0134,21.02 z m -99.3673,-50.321 -5.0958,1.274 v 81.532 l 34.3964,-22.294 q -2.5479,-3.822 -6.3697,-9.554 -3.1848,-6.37 -7.6436,-15.925 -4.4588,-8.28 -8.2806,-17.198 -3.8219,-8.917 -7.0067,-17.835 z m 387.5313,-8.28 v 3.821 l -0.637,1.274 q 0,7.644 -6.3697,15.288 -5.7327,7.006 -16.5612,15.287 v 156.058 q 0,5.732 1.9109,8.28 l 8.2806,20.383 -1.274,-0.637 v 3.822 q -15.2872,0 -17.8351,-0.637 h -3.8218 q -13.3764,0 -32.4855,3.822 -19.1091,4.459 -45.2249,12.739 -36.3073,11.466 -52.8685,11.466 -17.8351,0 -27.3897,-3.822 -25.4788,-9.555 -25.4788,-48.41 v -161.79 q 0,-5.096 -7.6436,-11.466 -7.6437,-7.006 -13.3764,-7.006 h -1.2739 l -1.9109,-0.637 h -4.4588 l -1.274,-0.637 h -3.8218 v -4.459 l 66.8819,-53.506 q 20.383,4.459 31.8485,27.39 3.1848,5.733 3.1848,14.014 v 176.44 q 0,14.014 10.8285,22.294 10.8285,7.644 26.7527,7.644 22.294,0 22.294,-14.014 v -153.509 q -12.7394,-3.822 -19.7461,-14.651 l -8.9176,5.733 -10.1915,-15.924 68.7928,-52.232 q 25.4788,33.76 47.1357,33.76 6.3697,0 15.2873,-5.733 v 8.281 z m 125.0997,249.692 q -10.1915,-0.637 -20.383,-4.459 -10.1916,-3.185 -19.1091,-10.829 -19.1091,-15.287 -19.1091,-35.033 v -160.516 q -9.5546,-0.637 -14.6503,-11.466 l -8.9176,5.096 -8.9176,-12.739 1.9109,-3.185 0.637,0.637 1.2739,-1.274 1.274,-0.637 q 6.3697,-5.733 14.0133,-12.74 7.6436,-7.643 20.383,-18.472 7.0067,-4.458 17.1982,-14.013 l 2.5479,-1.911 q 1.9109,-1.911 3.8218,-3.822 v -7.643 q 26.1158,36.944 45.8619,36.944 4.4588,0 20.383,-8.918 v 7.644 q -1.2739,3.822 -1.2739,8.917 -5.0958,14.651 -13.3764,24.205 -8.2806,8.918 -17.1982,12.74 v 135.674 q 0,3.822 3.1849,10.192 5.7327,12.102 26.1157,12.102 7.0067,0 16.5612,-3.822 l 2.5479,4.459 z m -17.1982,-298.739 h -5.0957 v -0.637 h -6.3697 l -1.274,-0.637 q -24.2048,0 -29.9376,-19.746 l -10.1915,5.096 -8.2806,-14.014 q 5.0958,-5.095 10.8285,-7.643 5.7327,-3.185 10.8285,-5.733 l -1.274,1.274 q 1.9109,-1.274 5.0958,-3.822 3.8218,-3.185 7.0067,-5.733 4.4588,-3.185 10.1915,-7.643 6.3697,-4.459 13.3764,-9.555 16.5612,24.205 34.3963,24.205 3.1849,-1.274 5.0958,-1.274 2.5479,-0.637 5.7327,-1.911 h -0.6369 l 1.2739,-1.274 h 0.637 l 0.6369,-0.637 h 0.637 l 0.637,-0.637 h 4.4588 v 5.733 q 0,8.918 -4.4588,17.198 -3.8218,7.644 -10.8285,14.013 -6.3697,5.733 -15.2873,9.555 -8.2806,3.822 -17.1982,3.822 z m 99.6207,247.781 q -1.2739,1.911 -1.2739,2.548 0.637,0 1.9109,-1.911 z m 212.111,-26.753 v -189.817 q -53.5054,-17.198 -105.737,-35.67 -49.6836,29.301 -102.5522,45.862 v 1.274 q 0,7.007 9.5546,19.746 v 168.16 l -7.0067,10.192 q -1.9109,2.547 -3.8218,4.458 l -1.9109,3.185 q 52.8685,6.37 111.4697,63.697 l 42.677,-45.225 48.4097,45.225 56.6904,-64.334 -23.5679,-3.185 q -17.1982,-2.548 -24.2049,-23.568 z m -74.5255,18.473 q -22.2939,-17.199 -53.5054,-32.486 v -161.79 l -2.5479,-1.911 v -0.637 q 3.8218,0 56.0533,22.931 z m 231.474,47.135 q -33.1225,-31.211 -64.334,-31.211 -14.6503,0 -21.657,10.828 v -8.917 q 0,-1.911 5.0958,-14.651 8.9175,-19.109 24.2048,-27.389 v -154.147 h -10.8285 q -4.4588,2.548 -10.1915,3.822 -0.637,0.637 -5.7327,1.911 l -0.637,1.274 h -1.2739 l -7.0067,3.821 v -4.458 q 0,-2.548 0.637,-3.822 v -1.911 l 0.6369,-1.274 q 0,-2.548 0.637,-3.822 v -4.459 q 0,-1.911 0,-3.821 0.637,-1.911 1.274,-4.459 v -3.822 l -0.637,-1.911 v -5.733 q -2.5479,-7.006 -2.5479,-22.931 8.2806,4.459 13.3764,6.37 5.7327,1.911 8.9176,2.548 1.2739,-0.637 8.2806,-0.637 h 5.0957 v -28.664 l -0.6369,-1.274 v -7.006 q -0.637,-0.637 -1.274,-1.911 -0.637,-1.274 -1.2739,-2.548 0,-1.911 -0.637,-3.185 v -0.637 q -1.2739,-1.274 -1.2739,-5.096 l 4.4588,-1.274 0.6369,1.274 h 3.1849 v 0.637 q 35.6703,0 67.5188,-39.492 v 8.281 l -0.637,0.637 q -0.6369,1.274 -1.2739,3.822 0,2.547 -1.274,6.369 v 0.637 q 0,1.911 -0.6369,3.185 -2.5479,10.192 -2.5479,15.287 v 50.958 h 19.7461 l 1.2739,0.637 q 10.1915,0 22.294,-8.918 v 7.007 q -0.637,1.274 -0.637,3.822 -1.9109,3.185 -1.9109,15.924 h 0.6369 q 0,13.377 3.1849,35.67 l -7.0067,-3.821 -0.6369,-0.637 h -0.637 q -7.0067,-2.548 -15.9243,-3.822 -8.9175,-1.911 -20.383,-2.548 v 146.503 q 4.4588,4.459 10.1915,4.459 l 1.9109,0.637 q 1.9109,0.637 2.5479,1.274 1.9109,1.911 3.8218,1.911 0.637,0.637 1.274,1.274 1.2739,0 1.9109,0.637 h -0.637 q 1.9109,1.274 4.4588,3.821 3.1848,1.911 7.0067,3.822 l 6.3697,-6.369 12.7394,14.65 z m 348.0395,-250.966 q 0,1.911 -0.637,5.096 -7.0066,24.205 -22.2939,33.122 l 0.637,165.613 v -0.637 q 5.0957,14.65 14.0133,26.115 v -0.637 l 1.2739,1.274 v 0.637 l 1.274,1.274 -3.1849,4.459 q -12.1024,-6.37 -33.1224,-6.37 -33.1225,0 -35.0334,10.829 l 4.4588,4.459 h -3.8218 q 1.2739,1.911 4.4588,5.095 3.8218,3.185 8.9176,7.644 31.2115,25.479 31.2115,51.595 0,24.204 -22.9309,38.218 -8.9176,5.733 -12.7394,5.733 l -1.274,0.636 h -3.8218 l -0.6369,0.637 h -2.5479 q -19.1091,0 -26.7528,-18.472 20.3831,-7.643 20.3831,-21.657 0,-11.465 -7.0067,-19.746 -1.9109,-0.637 -2.5479,-6.369 l 0.637,0.637 q -12.1024,-17.836 -12.1024,-38.856 0,-14.65 7.6436,-19.109 v -0.637 q 7.0067,-7.006 7.0067,-15.287 v -164.975 q -6.3697,0 -17.8352,-7.644 -12.7394,-8.28 -15.2873,-10.828 l -0.6369,-0.637 -28.0267,21.02 v 131.852 q 2.5479,0.637 5.7327,1.911 3.1849,1.274 7.6437,2.548 10.1915,5.096 17.1981,10.829 7.6437,5.733 12.7394,12.102 l -58.6012,53.506 q -35.6703,-34.397 -64.9709,-34.397 h -3.1849 q -1.2739,0 -3.8218,0.637 -2.5479,0.637 -7.6436,3.185 -3.1849,1.274 -7.0067,1.911 -3.8218,0.637 -5.0958,0.637 8.9176,-35.033 40.1291,-48.41 v -266.89 q 0,-12.103 -12.1024,-38.218 18.4721,0 36.9443,-7.644 18.4721,-7.644 38.8551,-22.294 1.274,-0.637 14.0134,-11.465 l -0.637,0.637 5.0958,0.637 q -1.274,3.821 -3.1849,8.28 -1.2739,4.459 -1.9109,6.37 l -1.9109,3.822 q -2.5479,5.095 -5.0958,19.109 -0.6369,0.637 -0.6369,1.274 v 0.637 q -1.274,7.006 -1.9109,11.465 -0.637,4.459 -0.637,6.37 v 119.75 l 80.2582,-61.149 q 17.1982,35.033 36.3073,35.033 0.637,0.637 3.8218,0.637 8.2806,0 31.8485,-14.65 v 8.918 q 0,1.911 -0.637,3.185 0,1.273 -0.6369,3.184 -0.637,1.911 -0.637,4.459 z m 30.1919,212.111 q -1.2739,1.911 -1.2739,2.548 0.637,0 1.9109,-1.911 z m 212.111,-26.753 v -189.817 q -53.5055,-17.198 -105.737,-35.67 -49.6837,29.301 -102.5522,45.862 v 1.274 q 0,7.007 9.5546,19.746 v 168.16 l -7.0067,10.192 q -1.9109,2.547 -3.8218,4.458 l -1.9109,3.185 q 52.8685,6.37 111.4697,63.697 l 42.677,-45.225 48.4097,45.225 56.6904,-64.334 -23.5679,-3.185 q -17.1982,-2.548 -24.2049,-23.568 z m -74.5255,18.473 q -22.2939,-17.199 -53.5054,-32.486 v -161.79 l -2.5479,-1.911 v -0.637 q 3.8218,0 56.0533,22.931 z m 374.1553,-195.55 q 1.911,0.637 1.911,3.822 0,5.095 -7.6437,19.109 v 184.721 h 24.8418 q -6.3697,0 -57.9642,59.238 -2.5479,-10.828 -57.3273,-63.06 h 14.6503 v -177.077 l -24.8418,-21.02 -32.4855,24.841 v 174.53 h 27.3897 q -42.04,24.842 -56.6903,47.136 -11.4655,16.561 -12.7394,16.561 -0.637,0 -0.637,-0.637 l 0.637,-1.274 q -5.7328,-25.479 -59.2382,-56.69 l -1.274,-3.822 h 24.8419 v -165.612 q -8.9176,-35.033 -29.9376,-36.307 l 56.0533,-42.04 q 40.7661,23.567 47.1358,33.759 14.6503,-1.274 65.6079,-35.033 l 8.2806,-6.37 q 43.314,34.396 69.4297,45.225 z"
   id="LEVIATHAN_LOGO"
   style="font-weight:500;font-size:636.97px;font-family:Ancient;-inkscape-font-specification:'Ancient, Medium';letter-spacing:20;text-anchor:middle;fill:url(#linearGradient21);fill-opacity:0.66010731"
   aria-label="Leviathan" />
      </g>
    </g>
    <path
   d="m 1406.2,1952.2 h 9353.3"
   stroke="url(#accentGrad)"
   stroke-width="50"
   stroke-linecap="round"
   opacity="0.55"
   fill="none"
   id="top_horizontal_line"
   style="display:inline;opacity:1;stroke:#6240bf;stroke-opacity:1"
   transform="translate(9.6152563e-6)" />
    
  <path
   d="m 6550,5600 c -250,-400 -300,-800 -100,-1100 200,-300 100,-600 -300,-700 -500,-100 -650,300 -500,700 150,350 200,700 -50,1100"
   fill="none"
   stroke="url(#accentGrad)"
   stroke-width="14"
   stroke-linecap="round"
   stroke-linejoin="round"
   id="path2"
   style="display:inline;opacity:1;fill:none;fill-opacity:0.68000001;fill-rule:nonzero;stroke:#7a5cff;stroke-opacity:1"
   transform="matrix(0.99576372,0,0,1.6711998,25.736595,-4088.1831)" /><path
   d="m 5600,5600 c 250,-400 300,-800 100,-1100 -200,-300 -100,-600 300,-700 500,-100 650,300 500,700 -150,350 -200,700 50,1100"
   fill="none"
   stroke="url(#accentGrad)"
   stroke-width="14"
   stroke-linecap="round"
   stroke-linejoin="round"
   id="path1"
   style="display:inline;opacity:1;fill:none;fill-opacity:0.72;fill-rule:nonzero;stroke:#1cccd9;stroke-opacity:1"
   transform="matrix(0.99576372,0,0,1.6711998,25.736595,-4088.1831)" /></g>
  <g
   id="components"
   style="display:inline"><ellipse
     style="display:inline;fill:#ff0000;fill-opacity:1;fill-rule:evenodd;stroke-width:30.9013"
     id="LIN_LOG_1"
     cx="1397.5443"
     cy="5717.8008"
     rx="294.84427"
     ry="295.80988" /><ellipse
     style="display:inline;fill:#ff0000;fill-opacity:1;fill-rule:evenodd;stroke-width:30.9013"
     id="FALL_1"
     cx="4200.748"
     cy="5307.9067"
     rx="294.84427"
     ry="295.80988" /><ellipse
     style="display:inline;fill:#ff0000;fill-opacity:1;fill-rule:evenodd;stroke-width:30.9013"
     id="CYCLE_1"
     cx="3187.5281"
     cy="2093.8098"
     rx="294.84427"
     ry="295.80988" /><ellipse
     style="display:inline;fill:#ff0000;fill-opacity:1;fill-rule:evenodd;stroke-width:30.9013"
     id="RISE_1"
     cx="3375.4507"
     cy="3629.2629"
     rx="294.84427"
     ry="295.80988" /><ellipse
     style="display:inline;fill:#ff00ff;fill-opacity:1;fill-rule:evenodd;stroke-width:3.60597"
     id="EoR_CH_1"
     cx="1653.6869"
     cy="9676.0312"
     rx="114.98675"
     ry="120.83137" /><ellipse
     style="display:inline;fill:#ff00ff;fill-opacity:1;fill-rule:evenodd;stroke-width:3.60597"
     id="Light_Unity_1"
     cx="1654.6868"
     cy="10799.932"
     rx="114.98675"
     ry="120.83137" /><ellipse
     style="display:inline;fill:#0000ff;fill-opacity:1;fill-rule:evenodd;stroke-width:38.302"
     id="EOR_1"
     cx="1003.6987"
     cy="9694.5723"
     rx="398.39865"
     ry="405.17139" /><ellipse
     style="display:inline;fill:#0000ff;fill-opacity:1;fill-rule:evenodd;stroke-width:38.302"
     id="CH_1_Unity"
     cx="1004.7076"
     cy="10818.212"
     rx="398.39865"
     ry="405.17139" /><ellipse
     style="display:inline;fill:#00ff00;fill-opacity:1;fill-rule:evenodd;stroke-width:38.302"
     id="INPUT_1_TRIG"
     cx="2091.1169"
     cy="1535.3943"
     rx="398.39865"
     ry="405.17139" /><ellipse
     style="display:inline;fill:#00ff00;fill-opacity:1;fill-rule:evenodd;stroke-width:38.3021"
     id="CH1_CYCLE_CV"
     cx="4004.8987"
     cy="2083.7886"
     rx="398.39865"
     ry="405.17142" /><ellipse
     style="display:inline;fill:#00ff00;fill-opacity:1;fill-rule:evenodd;stroke-width:38.3021"
     id="CH1_FALL_CV"
     cx="3270.4065"
     cy="6326.3164"
     rx="398.39865"
     ry="405.17142" /><ellipse
     style="display:inline;fill:#00ff00;fill-opacity:1;fill-rule:evenodd;stroke-width:38.3021"
     id="CH1_BOTH_CV"
     cx="2833.3093"
     cy="5146.9922"
     rx="398.39865"
     ry="405.17142" /><ellipse
     style="display:inline;fill:#00ff00;fill-opacity:1;fill-rule:evenodd;stroke-width:38.3021"
     id="CH1_RISE_CV"
     cx="2248.2798"
     cy="3661.562"
     rx="398.39865"
     ry="405.17142" /><ellipse
     style="display:inline;fill:#00ff00;fill-opacity:1;fill-rule:evenodd;stroke-width:38.3021"
     id="INPUT_1"
     cx="994.70752"
     cy="1535.3943"
     rx="398.39865"
     ry="405.17142" /><ellipse
     style="display:inline;fill:#ff00ff;fill-opacity:1;fill-rule:evenodd;stroke-width:3.60597"
     id="CYCLE_1_LED"
     cx="3187.5261"
     cy="1485.5403"
     rx="114.98675"
     ry="120.83137" /><ellipse
     style="display:inline;fill:#ff00ff;fill-opacity:1;fill-rule:evenodd;stroke-width:3.60597"
     id="EoC_CH_4"
     cx="8460.2588"
     cy="9671.5703"
     rx="114.98675"
     ry="120.83137" /><ellipse
     style="display:inline;fill:#ff00ff;fill-opacity:1;fill-rule:evenodd;stroke-width:3.68373"
     id="Light_Unity_4"
     cx="8473.0996"
     cy="10809.932"
     rx="120"
     ry="120.83137" /><ellipse
     style="display:inline;fill:#ff00ff;fill-opacity:1;fill-rule:evenodd;stroke-width:3.60597"
     id="CYCLE_4_LED"
     cx="6935.2524"
     cy="1485.5403"
     rx="114.98675"
     ry="120.83137" /><ellipse
     style="display:inline;fill:#ff0000;fill-opacity:1;fill-rule:evenodd;stroke-width:30.9013"
     id="CYCLE_4"
     cx="6955.2441"
     cy="2093.8098"
     rx="294.84427"
     ry="295.80988" /><ellipse
     style="display:inline;fill:#0000ff;fill-opacity:1;fill-rule:evenodd;stroke-width:38.302"
     id="EOC_4"
     cx="9128.1035"
     cy="9691.5117"
     rx="398.39865"
     ry="405.17139" /><ellipse
     style="display:inline;fill:#0000ff;fill-opacity:1;fill-rule:evenodd;stroke-width:38.302"
     id="CH_4_Unity"
     cx="9128.1035"
     cy="10818.212"
     rx="398.39865"
     ry="405.17139" /><ellipse
     style="display:inline;fill:#00ff00;fill-opacity:1;fill-rule:evenodd;stroke-width:38.3021"
     id="CH4_CYCLE_CV"
     cx="6117.8989"
     cy="2083.7886"
     rx="398.39865"
     ry="405.17142" /><ellipse
     style="display:inline;fill:#00ff00;fill-opacity:1;fill-rule:evenodd;stroke-width:38.3021"
     id="CH4_FALL_CV"
     cx="6868.8584"
     cy="6326.3164"
     rx="398.39865"
     ry="405.17142" /><ellipse
     style="display:inline;fill:#00ff00;fill-opacity:1;fill-rule:evenodd;stroke-width:38.3021"
     id="CH4_BOTH_CV"
     cx="7305.9556"
     cy="5146.9922"
     rx="398.39865"
     ry="405.17142" /><ellipse
     style="display:inline;fill:#00ff00;fill-opacity:1;fill-rule:evenodd;stroke-width:38.3021"
     id="CH4_RISE_CV"
     cx="7890.9849"
     cy="3661.562"
     rx="398.39865"
     ry="405.17142" /><ellipse
     style="display:inline;fill:#00ff00;fill-opacity:1;fill-rule:evenodd;stroke-width:38.3021"
     id="INPUT_4"
     cx="9118.1035"
     cy="1535.3943"
     rx="398.39865"
     ry="405.17142" /><ellipse
     style="display:inline;fill:#00ff00;fill-opacity:1;fill-rule:evenodd;stroke-width:38.302"
     id="INPUT_4_TRIG"
     cx="8021.6948"
     cy="1535.3943"
     rx="398.39865"
     ry="405.17139" /><ellipse
     style="display:inline;fill:#ff0000;fill-opacity:1;fill-rule:evenodd;stroke-width:30.9013"
     id="LIN_LOG_4"
     cx="8791.6445"
     cy="5717.8008"
     rx="294.84427"
     ry="295.80988" /><ellipse
     cx="8782.959"
     cy="5742.0845"
     fill="none"
     stroke="#ffffff"
     stroke-opacity="0.15"
     stroke-width="71.3515"
     id="ring_curveA_o-4-7"
     rx="542.29901"
     ry="518.0567"
     style="display:inline" /><line
     x1="8357.1133"
     y1="5367.6011"
     x2="8265.9463"
     y2="5294.4004"
     stroke="#ffffff"
     stroke-width="54.5647"
     stroke-linecap="round"
     stroke-opacity="0.85"
     id="line1-1"
     style="display:inline;stroke:#ffffff;stroke-opacity:1" /><path
     d="m 8112.1001,5086.5001 h 33.7275 v 105.3362 h 59.2201 v 25.5014 h -92.9476 z m 124.2903,0 h 33.7274 v 130.8376 h -33.7274 z m 76.7214,0 h 37.6695 l 47.5688,89.7372 v -89.7372 h 31.9754 v 130.8376 h -37.6695 l -47.5689,-89.7372 v 89.7372 h -31.9753 z"
     id="text1-1"
     style="font-weight:800;font-size:180px;font-family:Montserrat, 'DejaVu Sans', sans-serif;letter-spacing:10;text-anchor:middle;display:inline;fill:#ffffff;stroke-width:28.1347"
     aria-label="LIN" /><ellipse
     style="display:inline;fill:#ff0000;fill-opacity:1;fill-rule:evenodd;stroke-width:30.9013"
     id="FALL_4"
     cx="5938.5171"
     cy="5307.9067"
     rx="294.84427"
     ry="295.80988" /><ellipse
     style="display:inline;fill:#ff0000;fill-opacity:1;fill-rule:evenodd;stroke-width:30.9013"
     id="RISE_4"
     cx="6763.814"
     cy="3629.2629"
     rx="294.84427"
     ry="295.80988" /><ellipse
     style="display:inline;fill:#00ff00;fill-opacity:1;fill-rule:evenodd;stroke-width:38.3021"
     id="INPUT_3"
     cx="5938.5171"
     cy="7567.7305"
     rx="398.39865"
     ry="405.17142" /><ellipse
     style="display:inline;fill:#00ff00;fill-opacity:1;fill-rule:evenodd;stroke-width:38.3021"
     id="INPUT_2"
     cx="4184.2617"
     cy="7567.7305"
     rx="398.39865"
     ry="405.17142" /><ellipse
     style="display:inline;fill:#ff00ff;fill-opacity:1;fill-rule:evenodd;stroke-width:3.60597"
     id="INV_LED"
     cx="6935.3867"
     cy="11068.285"
     rx="114.98675"
     ry="120.83137" /><ellipse
     style="display:inline;fill:#0000ff;fill-opacity:1;fill-rule:evenodd;stroke-width:38.302"
     id="INV_OUT"
     cx="6237.5376"
     cy="11088.226"
     rx="398.39865"
     ry="405.17139" /><ellipse
     style="display:inline;fill:#0000ff;fill-opacity:1;fill-rule:evenodd;stroke-width:38.302"
     id="SUM_OUT"
     cx="5061.3892"
     cy="11088.226"
     rx="398.39865"
     ry="405.17139" /><ellipse
     style="display:inline;fill:#0000ff;fill-opacity:1;fill-rule:evenodd;stroke-width:38.302"
     id="OR_OUT"
     cx="3885.2412"
     cy="11088.226"
     rx="398.39865"
     ry="405.17139" /><ellipse
     style="display:inline;fill:#ff00ff;fill-opacity:1;fill-rule:evenodd;stroke-width:3.60597"
     id="OR_LED"
     cx="3187.3867"
     cy="11068.285"
     rx="114.98675"
     ry="120.83137" /><ellipse
     style="display:inline;fill:#ff0000;fill-opacity:1;fill-rule:evenodd;stroke-width:30.9013"
     id="ATTENUATE_4"
     cx="7593.1445"
     cy="8644.5771"
     rx="294.84427"
     ry="295.80988" /><ellipse
     style="display:inline;fill:#ff0000;fill-opacity:1;fill-rule:evenodd;stroke-width:30.9013"
     id="ATTENUATE_3"
     cx="5958.5444"
     cy="8644.5771"
     rx="294.84427"
     ry="295.80988" /><ellipse
     style="display:inline;fill:#ff0000;fill-opacity:1;fill-rule:evenodd;stroke-width:30.9013"
     id="ATTENUATE_2"
     cx="4204.2441"
     cy="8644.5771"
     rx="294.84427"
     ry="295.80988" /><ellipse
     style="display:inline;fill:#ff0000;fill-opacity:1;fill-rule:evenodd;stroke-width:30.9013"
     id="ATTENUATE_1"
     cx="2609.4443"
     cy="8644.5771"
     rx="294.84427"
     ry="295.80988" /><ellipse
     style="display:inline;fill:#0000ff;fill-opacity:1;fill-rule:evenodd;stroke-width:38.302"
     id="OUT_4"
     cx="7583.2007"
     cy="9691.5117"
     rx="398.39865"
     ry="405.17139" /><ellipse
     style="display:inline;fill:#0000ff;fill-opacity:1;fill-rule:evenodd;stroke-width:38.302"
     id="OUT_3"
     cx="5948.5542"
     cy="9691.5117"
     rx="398.39865"
     ry="405.17139" /><ellipse
     style="display:inline;fill:#0000ff;fill-opacity:1;fill-rule:evenodd;stroke-width:38.302"
     id="OUT_2"
     cx="4194.2988"
     cy="9691.5117"
     rx="398.39865"
     ry="405.17139" /><ellipse
     style="display:inline;fill:#0000ff;fill-opacity:1;fill-rule:evenodd;stroke-width:43.9097"
     id="OUT_1"
     cx="2599.4983"
     cy="9691.5117"
     rx="387.49817"
     ry="405.17139" /></g>
</svg>
