<?xml version="1.0" encoding="UTF-8" standalone="no"?>
<svg
   version="1.2"
   width="40.639999mm"
   height="128.5mm"
   viewBox="0 0 4064 12850"
   preserveAspectRatio="xMidYMid"
   fill-rule="evenodd"
   stroke-width="28.222"
   stroke-linejoin="round"
   xml:space="preserve"
   id="svg488"
   sodipodi:docname="proc.svg"
   inkscape:version="1.4.3 (0d15f75, 2025-12-25)"
   inkscape:label="Wave Art"
   xmlns:inkscape="http://www.inkscape.org/namespaces/inkscape"
   xmlns:sodipodi="http://sodipodi.sourceforge.net/DTD/sodipodi-0.dtd"
   xmlns:xlink="http://www.w3.org/1999/xlink"
   xmlns="http://www.w3.org/2000/svg"
   xmlns:svg="http://www.w3.org/2000/svg">
  <defs
   id="defs1"><linearGradient
   id="linearGradient22"
   inkscape:collect="always"><stop
     style="stop-color:#7a5cff;stop-opacity:1;"
     offset="0"
     id="stop22" /><stop
     style="stop-color:#1cccd9;stop-opacity:1;"
     offset="1"
     id="stop23" /></linearGradient><linearGradient
   id="linearGradient20"
   inkscape:collect="always"><stop
     style="stop-color:#795cff;stop-opacity:1"
     offset="0"
     id="stop20" /><stop
     style="stop-color:#1cccd9;stop-opacity:1;"
     offset="1"
     id="stop21" /></linearGradient><linearGradient
   id="linearGradient16"
   x1="0"
   y1="0"
   x2="0"
   y2="1">
      <stop
   offset="0"
   stop-color="#1ccad8"
   stop-opacity="0.65"
   id="stop15"
   style="stop-color:#1ccad8;stop-opacity:1;" />
      <stop
   offset="1"
   stop-color="#7a5cff"
   stop-opacity="0.65"
   id="stop16"
   style="stop-color:#7a5cff;stop-opacity:1;" />
    </linearGradient><linearGradient
   id="linearGradient14"
   x1="0"
   y1="0"
   x2="0"
   y2="1">
      <stop
   offset="0"
   stop-color="#1ccad8"
   stop-opacity="0.65"
   id="stop13"
   style="stop-color:#1ccad8;stop-opacity:1;" />
      <stop
   offset="1"
   stop-color="#7a5cff"
   stop-opacity="0.65"
   id="stop14"
   style="stop-color:#7a5cff;stop-opacity:1;" />
    </linearGradient>
    <linearGradient
   id="linearGradient12"
   x1="0"
   y1="0"
   x2="0"
   y2="1">
      <stop
   offset="0"
   stop-color="#1ccad8"
   stop-opacity="0.65"
   id="stop11"
   style="stop-color:#6140bf;stop-opacity:1;" />
      <stop
   offset="1"
   stop-color="#7a5cff"
   stop-opacity="0.65"
   id="stop12" />
    </linearGradient>
    <linearGradient
   id="bgGrad"
   x1="1108.8855"
   y1="886.8808"
   x2="1108.8855"
   y2="12348.43"
   gradientTransform="matrix(0.35573807,0,0,1.1244228,591.70921,0)"
   gradientUnits="userSpaceOnUse">
      <stop
   offset="0%"
   stop-color="#0b0d10"
   id="stop1" />
      <stop
   offset="50%"
   stop-color="#10141a"
   id="stop2" />
      <stop
   offset="100%"
   stop-color="#07080a"
   id="stop3" />
    </linearGradient>
    <linearGradient
   id="panelSheen"
   x1="1258.4897"
   y1="999.76398"
   x2="1258.4897"
   y2="12199.481"
   gradientTransform="scale(0.88692179,1.1274951)"
   gradientUnits="userSpaceOnUse">
      <stop
   offset="0%"
   stop-color="#ffffff"
   stop-opacity="0.1"
   id="stop4" />
      <stop
   offset="15%"
   stop-color="#ffffff"
   stop-opacity="0.02"
   id="stop5" />
      <stop
   offset="50%"
   stop-color="#ffffff"
   stop-opacity="0.0"
   id="stop6" />
      <stop
   offset="85%"
   stop-color="#ffffff"
   stop-opacity="0.02"
   id="stop7" />
      <stop
   offset="100%"
   stop-color="#ffffff"
   stop-opacity="0.1"
   id="stop8" />
    </linearGradient>
    <linearGradient
   id="accentGrad"
   x1="0"
   y1="0"
   x2="0"
   y2="1">
      <stop
   offset="0%"
   stop-color="#1ccad8"
   stop-opacity="0.65"
   id="stop9" />
      <stop
   offset="100%"
   stop-color="#7a5cff"
   stop-opacity="0.65"
   id="stop10" />
    </linearGradient>
    <linearGradient
   id="oceanWaveGrad"
   x1="0"
   y1="0"
   x2="1"
   y2="1"
   gradientUnits="objectBoundingBox">
      <stop
   offset="0%"
   stop-color="#55dbff"
   id="stop_wave_1" />
      <stop
   offset="55%"
   stop-color="#1496df"
   id="stop_wave_2" />
      <stop
   offset="100%"
   stop-color="#182682"
   id="stop_wave_3" />
    </linearGradient>
    
    
    
    
    
    
    
    
    
    
  
    
    
    
    
    
    
  <linearGradient
   inkscape:collect="always"
   xlink:href="#linearGradient20"
   id="linearGradient1"
   gradientUnits="userSpaceOnUse"
   x1="5496.8262"
   y1="12956.067"
   x2="7087.4873"
   y2="12956.067"
   gradientTransform="matrix(1.3902179,0,0,1.3902178,-6324.5914,-5311.8501)" /><linearGradient
   inkscape:collect="always"
   xlink:href="#oceanWaveGrad"
   id="linearGradient10"
   gradientUnits="userSpaceOnUse"
   x1="-323.57697"
   y1="-103.93273"
   x2="723.81177"
   y2="943.45605"
   gradientTransform="matrix(-1.435811,0,0,0.69647048,8750.0001,12953.568)" /><linearGradient
   inkscape:collect="always"
   xlink:href="#oceanWaveGrad"
   id="linearGradient11"
   gradientUnits="userSpaceOnUse"
   x1="-323.57697"
   y1="-103.93273"
   x2="723.81177"
   y2="943.45605"
   gradientTransform="matrix(1.435811,0,0,0.69647048,3420,12953.568)" /><linearGradient
   inkscape:collect="always"
   xlink:href="#linearGradient22"
   id="linearGradient67"
   gradientUnits="userSpaceOnUse"
   gradientTransform="matrix(0.99690805,0,0,0.99690805,-4074.8156,-888.26714)"
   x1="5546.3999"
   y1="1486.0581"
   x2="6703.7256"
   y2="1488.6417" /></defs>
  <sodipodi:namedview
   id="namedview488"
   pagecolor="#ffffff"
   bordercolor="#000000"
   borderopacity="0.25"
   inkscape:showpageshadow="2"
   inkscape:pageopacity="0.0"
   inkscape:pagecheckerboard="true"
   inkscape:deskcolor="#d1d1d1"
   inkscape:document-units="mm"
   inkscape:zoom="4.771108"
   inkscape:cx="28.504909"
   inkscape:cy="314.49718"
   inkscape:window-width="2560"
   inkscape:window-height="1377"
   inkscape:window-x="-8"
   inkscape:window-y="-8"
   inkscape:window-maximized="1"
   inkscape:current-layer="svg488"
   showgrid="false"
   inkscape:pageshadow="2" />
  
  <g
   id="panel_art"
   style="display:inline">
    <g
   id="Background_Rect"
   style="display:inline"
   transform="matrix(0.99673566,0,0,0.99708035,-982.96277,-994.31744)">
      <rect
   x="986.18201"
   y="997.229"
   width="4077.3096"
   height="12887.627"
   rx="0"
   ry="0"
   fill="url(#bgGrad)"
   id="black_background"
   style="display:inline;fill:url(#bgGrad);stroke-width:17.8492"
   sodipodi:insensitive="true" />
      <g
   id="waves_layer"
   style="display:inline;opacity:0.5"
   transform="matrix(1.0032752,0,0,1.0029283,-1170.8786,1007.2567)"><g
     id="branding_wave_left"
     transform="matrix(1.72,0,0,1.72,2150.0189,12130.149)"
     style="display:inline">
        <path
   style="fill:#4995ec"
   d="m 0,413.249 c 0,0 99.571,-7.286 135.999,-84.999 36.428,-77.713 30.357,-229.499 207.642,-229.499 38.871,0 81.438,18.386 104.731,34.602 116.875,81.362 61.625,248.326 -75.589,205.523 0,0 49.786,-2.125 49.786,-67.697 0,-65.572 -82.091,-75.285 -94.714,-20.643 -8.992,38.927 -3.643,156.643 167.571,162.713"
   id="path149" />
        <path
   style="fill:#7a5cff"
   d="m 372.784,338.875 c 42.5,0 125.678,-65.875 75.213,-144.378 C 412.71,139.6 316.321,128.5 247.714,197.107 179.179,265.642 219.7,398.411 0.644,413.201 9.193,412.412 101.283,402.321 136,328.25 172.429,250.536 166.357,98.751 343.642,98.751 c 38.869,0 81.43,18.384 104.731,34.607 116.874,81.357 61.625,248.321 -75.589,205.517 z"
   id="path151" />
        
        <path
   style="fill:#1cccd9"
   d="M 495.426,413.249 H 268.433 C 242.935,402.664 232.851,365.455 246.5,310.035 c 15.166,-61.576 44.686,-94.762 88.642,-101.999 26.411,-4.347 46.895,4.299 59.973,12.945 -25.087,-13.418 -59.464,-4.238 -67.259,29.556 -8.998,38.929 -3.644,156.641 167.57,162.712 z"
   id="path155" />
      </g><g
     id="branding_wave_right"
     transform="matrix(-1.72,0,0,1.72,7743.0744,11996.75)"
     style="display:none">
        <path
   style="fill:#4995ec"
   d="m 0,413.249 c 0,0 99.571,-7.286 135.999,-84.999 36.428,-77.713 30.357,-229.499 207.642,-229.499 38.871,0 81.438,18.386 104.731,34.602 116.875,81.362 61.625,248.326 -75.589,205.523 0,0 49.786,-2.125 49.786,-67.697 0,-65.572 -82.091,-75.285 -94.714,-20.643 -8.992,38.927 -3.643,156.643 167.571,162.713"
   id="path158" />
        <path
   style="fill:#7a5cff"
   d="m 372.784,338.875 c 42.5,0 125.678,-65.875 75.213,-144.378 C 412.71,139.6 316.321,128.5 247.714,197.107 179.179,265.642 219.7,398.411 0.644,413.201 9.193,412.412 101.283,402.321 136,328.25 172.429,250.536 166.357,98.751 343.642,98.751 c 38.869,0 81.43,18.384 104.731,34.607 116.874,81.357 61.625,248.321 -75.589,205.517 z"
   id="path160" />
        
        <path
   style="fill:#1cccd9"
   d="M 495.426,413.249 H 268.433 C 242.935,402.664 232.851,365.455 246.5,310.035 c 15.166,-61.576 44.686,-94.762 88.642,-101.999 26.411,-4.347 46.895,4.299 59.973,12.945 -25.087,-13.418 -59.464,-4.238 -67.259,29.556 -8.998,38.929 -3.644,156.641 167.57,162.712 z"
   id="path164" />
      </g></g><rect
   x="1084.9954"
   y="1096.0424"
   width="3915.2769"
   height="12690.001"
   rx="82.441162"
   ry="210.37091"
   fill="none"
   stroke="#ffffff"
   stroke-opacity="0.1"
   stroke-width="37.6267"
   id="gray_outline"
   style="display:none;stroke:#3c3f42;stroke-opacity:1" />
      
    </g>
    
    
    
    <g
   id="panel_graphics"
   style="display:inline"
   transform="matrix(0.99673566,0,0,0.99708035,-982.96277,-994.31744)">
      <g
   id="grp_frame"
   inkscape:label="Frame"
   style="display:inline">
        <rect
   x="1093.3964"
   y="2060.8857"
   width="3871.2363"
   height="5802.3491"
   rx="181.74057"
   ry="181.74057"
   fill="#000000"
   opacity="0.1"
   stroke="#ffffff"
   stroke-opacity="0.06"
   stroke-width="45.4351"
   id="frame_left"
   style="opacity:0.33;fill:#5740bf;fill-opacity:1" />
        
        <rect
   x="1216.6566"
   y="10178.752"
   width="3556.5652"
   height="2841.4749"
   rx="161.0098"
   ry="180.63446"
   fill="#000000"
   opacity="0.1"
   stroke="#ffffff"
   stroke-opacity="0.06"
   stroke-width="27.7351"
   id="outputs"
   style="opacity:0.33;fill:#1cccd9;fill-opacity:0.5" />
        
      </g>
      
    <g
   id="lines_gen1_side"><path
     style="display:inline;opacity:1;fill:#ffffff;fill-opacity:1;fill-rule:nonzero;stroke:#ffffff;stroke-width:50.155;stroke-linecap:round;stroke-dasharray:none;stroke-opacity:1"
     d="m 2161.9375,6802.2764 -657.9069,-539.492"
     id="linear_line"
     sodipodi:nodetypes="cc" /><path
     style="display:inline;opacity:1;fill:#6240bf;fill-opacity:1;fill-rule:nonzero;stroke:#5740bf;stroke-width:58.7818;stroke-dasharray:none;stroke-opacity:1"
     d="m 2982.8495,4254.2432 1317.5931,410.497"
     id="surge_connector"
     sodipodi:nodetypes="cc" /><path
     style="display:inline;fill:#6240bf;fill-opacity:1;fill-rule:nonzero;stroke:#5740bf;stroke-width:50.1551;stroke-dasharray:none;stroke-opacity:1"
     d="m 4300.8643,6337.2177 -928.561,1015.9775"
     id="sink_connector"
     sodipodi:nodetypes="cc" /></g></g>
    
    
  <g
   id="ring_guides"
   style="display:none"
   transform="matrix(0.99673566,0,0,0.99708035,-982.96277,-994.31744)"><g
     id="GenA_Guide_Rings"
     style="display:inline"
     transform="translate(1.0410941e-5)"><circle
       cx="1729.1086"
       cy="2680.4136"
       r="454.70001"
       fill="none"
       stroke="#ffffff"
       stroke-opacity="0.15"
       stroke-width="70"
       id="ring_in1_o"
       style="display:inline" /><circle
       cx="3069.8853"
       cy="2680.4136"
       r="454.70001"
       fill="none"
       stroke="#ffffff"
       stroke-opacity="0.15"
       stroke-width="70"
       id="ring_trig1_o"
       style="display:inline" /><circle
       cx="4280.2456"
       cy="2959.5808"
       r="360"
       fill="none"
       stroke="#ffffff"
       stroke-opacity="0.15"
       stroke-width="70"
       id="ring_loopbtn1_o"
       style="display:inline" /><circle
       cx="4207.9512"
       cy="4650"
       r="520"
       fill="none"
       stroke="#ffffff"
       stroke-opacity="0.15"
       stroke-width="70"
       id="ring_surgeA_o" /><circle
       cx="4303.5522"
       cy="6333.5591"
       r="520"
       fill="none"
       stroke="#ffffff"
       stroke-opacity="0.15"
       stroke-width="70"
       id="ring_sinkA_o" /><ellipse
       cx="2149.4373"
       cy="6814.4219"
       fill="none"
       stroke="#ffffff"
       stroke-opacity="0.15"
       stroke-width="71.5728"
       id="ring_curveA_o-4"
       rx="544.07501"
       ry="519.57361"
       style="display:inline" /></g><g
     id="GenB_Guide_Rings"
     style="display:inline"
     transform="translate(1.0410941e-5)" /><g
     id="output_ring_guides"
     style="display:inline"
     transform="translate(1.0410941e-5)"><circle
       cx="2000"
       cy="10730"
       r="454.70001"
       fill="none"
       stroke="#ffffff"
       stroke-opacity="0.15"
       stroke-width="70"
       id="ring_eor_o"
       style="display:inline"
       transform="translate(1.0410941e-5)" /><circle
       cx="3720.4089"
       cy="10730"
       r="454.70001"
       fill="none"
       stroke="#ffffff"
       stroke-opacity="0.15"
       stroke-width="70"
       id="ring_out1_o"
       style="display:inline" /><circle
       cx="2000"
       cy="12110.747"
       r="454.70001"
       fill="none"
       stroke="#ffffff"
       stroke-opacity="0.15"
       stroke-width="70"
       id="ring_s1_o" /><circle
       cx="3716.0947"
       cy="12130.806"
       r="454.70001"
       fill="none"
       stroke="#ffffff"
       stroke-opacity="0.15"
       stroke-width="70"
       id="ring_or_o" /></g><g
     id="middle_ring_guides"
     style="display:inline"
     transform="translate(1.0410941e-5)" /></g><path
   d="m 224.91839,952.22269 3600.46661,0.01"
   stroke="url(#accentGrad)"
   stroke-width="49.8454"
   stroke-linecap="round"
   opacity="0.55"
   fill="none"
   id="top_horizontal_line"
   style="display:inline;opacity:1;stroke:#5740bf;stroke-opacity:1"
   sodipodi:nodetypes="cc" /></g>
  <g
   id="panel_labels_reworked"
   inkscape:groupmode="layer"
   inkscape:label="Labels Reworked"
   style="display:none"><text
   id="reworked_module_title_text"
   x="2021.4169"
   y="447.27814"
   style="font-style:normal;font-variant:normal;font-weight:normal;font-stretch:normal;font-size:529.167px;font-family:Rubik;-inkscape-font-specification:'Rubik, @wght=600';font-variant-ligatures:normal;font-variant-caps:normal;font-variant-numeric:normal;font-variant-east-asian:normal;font-variation-settings:'wght' 600;dominant-baseline:middle;text-anchor:middle;display:inline;fill:url(#linearGradient67);stroke-width:28.1347"
   xml:space="preserve"><tspan
     sodipodi:role="line"
     id="tspan1"
     x="2021.4169"
     y="447.27814"
     style="fill:url(#linearGradient67)">Proc</tspan></text><text
   id="reworked_LEVIATHAN_LOGO"
   x="2420.0005"
   y="12447.933"
   style="font-style:normal;font-variant:normal;font-weight:normal;font-stretch:normal;font-size:635px;font-family:Ancient;-inkscape-font-specification:'Ancient, Normal';font-variant-ligatures:normal;font-variant-caps:normal;font-variant-numeric:normal;font-variant-east-asian:normal;dominant-baseline:middle;text-anchor:middle;display:inline;fill:url(#linearGradient1);stroke:none;stroke-width:37.1;stroke-dasharray:none"
   xml:space="preserve"
   inkscape:label="reworked_LEVIATHAN_LOGO">Leviathan</text>
        
        <text
   id="reworked_lbl_in1"
   x="722.86957"
   y="2324.4685"
   style="font-style:normal;font-variant:normal;font-weight:normal;font-stretch:normal;font-size:282.223px;font-family:Rubik;-inkscape-font-specification:'Rubik, @wght=400';font-variant-ligatures:normal;font-variant-caps:normal;font-variant-numeric:normal;font-variant-east-asian:normal;font-variation-settings:'wght' 400;dominant-baseline:middle;text-anchor:middle;fill:#ffffff"
   xml:space="preserve"><tspan
     sodipodi:role="line"
     id="tspan5"
     x="722.86957"
     y="2324.4685">INPUT</tspan></text>
        <text
   id="reworked_lbl_trig1"
   x="1987.7968"
   y="2322.9529"
   style="font-style:normal;font-variant:normal;font-weight:normal;font-stretch:normal;font-size:282.223px;font-family:Rubik;-inkscape-font-specification:'Rubik, @wght=400';font-variant-ligatures:normal;font-variant-caps:normal;font-variant-numeric:normal;font-variant-east-asian:normal;font-variation-settings:'wght' 400;dominant-baseline:middle;text-anchor:middle;fill:#ffffff"
   xml:space="preserve">TRIG</text>
        <text
   id="reworked_lbl_surgeA"
   x="3292.3435"
   y="4482.8999"
   style="font-style:normal;font-variant:normal;font-weight:normal;font-stretch:normal;font-size:282.223px;font-family:Rubik;-inkscape-font-specification:'Rubik, @wght=400';font-variant-ligatures:normal;font-variant-caps:normal;font-variant-numeric:normal;font-variant-east-asian:normal;font-variation-settings:'wght' 400;dominant-baseline:middle;text-anchor:middle;fill:#ffffff"
   xml:space="preserve">SURGE</text>
        <text
   id="reworked_lbl_sinkA"
   x="3307.5078"
   y="6175.1001"
   style="font-style:normal;font-variant:normal;font-weight:normal;font-stretch:normal;font-size:282.223px;font-family:Rubik;-inkscape-font-specification:'Rubik, @wght=400';font-variant-ligatures:normal;font-variant-caps:normal;font-variant-numeric:normal;font-variant-east-asian:normal;font-variation-settings:'wght' 400;dominant-baseline:middle;text-anchor:middle;fill:#ffffff"
   xml:space="preserve">SINK</text><text
   id="lbl_halt"
   x="725.45502"
   y="4271.0205"
   style="font-style:normal;font-variant:normal;font-weight:normal;font-stretch:normal;font-size:282.223px;font-family:Rubik;-inkscape-font-specification:'Rubik, @wght=400';font-variant-ligatures:normal;font-variant-caps:normal;font-variant-numeric:normal;font-variant-east-asian:normal;font-variation-settings:'wght' 400;dominant-baseline:middle;text-anchor:middle;display:inline;fill:#ffffff"
   xml:space="preserve"><tspan
     sodipodi:role="line"
     id="tspan6"
     x="725.45502"
     y="4271.0205">HALT</tspan></text>
        <text
   id="reworked_lbl_bothA"
   x="1993.2269"
   y="5111.6011"
   style="font-style:normal;font-variant:normal;font-weight:normal;font-stretch:normal;font-size:282.223px;font-family:Rubik;-inkscape-font-specification:'Rubik, @wght=400';font-variant-ligatures:normal;font-variant-caps:normal;font-variant-numeric:normal;font-variant-east-asian:normal;font-variation-settings:'wght' 400;dominant-baseline:middle;text-anchor:middle;fill:#ffffff"
   xml:space="preserve">BOTH</text>
        <text
   id="reworked_text36"
   x="3296.0046"
   y="2629.6912"
   style="font-style:normal;font-variant:normal;font-weight:normal;font-stretch:normal;font-size:282.223px;font-family:Rubik;-inkscape-font-specification:'Rubik, @wght=400';font-variant-ligatures:normal;font-variant-caps:normal;font-variant-numeric:normal;font-variant-east-asian:normal;font-variation-settings:'wght' 400;dominant-baseline:middle;text-anchor:middle;fill:#ffffff"
   xml:space="preserve">LOOP</text>
        <text
   id="reworked_text29-1"
   x="1199.9861"
   y="6662.2412"
   style="font-style:normal;font-variant:normal;font-weight:normal;font-stretch:normal;font-size:282.223px;font-family:Rubik;-inkscape-font-specification:'Rubik, @wght=400';font-variant-ligatures:normal;font-variant-caps:normal;font-variant-numeric:normal;font-variant-east-asian:normal;font-variation-settings:'wght' 400;dominant-baseline:middle;text-anchor:middle;fill:#ffffff"
   xml:space="preserve">CURVE</text>
        <text
   id="reworked_text27"
   x="377.88834"
   y="5064.1782"
   style="font-style:normal;font-variant:normal;font-weight:normal;font-stretch:normal;font-size:282.223px;font-family:Rubik;-inkscape-font-specification:'Rubik, @wght=400';font-variant-ligatures:normal;font-variant-caps:normal;font-variant-numeric:normal;font-variant-east-asian:normal;font-variation-settings:'wght' 400;dominant-baseline:middle;text-anchor:middle;fill:#ffffff"
   xml:space="preserve">LIN</text>
        
        
        
        
        
        
        
        
        
        
        
        
        <text
   id="reworked_lbl_eor"
   x="954.01709"
   y="10341.131"
   style="font-style:normal;font-variant:normal;font-weight:normal;font-stretch:normal;font-size:282.223px;font-family:Rubik;-inkscape-font-specification:'Rubik, @wght=400';font-variant-ligatures:normal;font-variant-caps:normal;font-variant-numeric:normal;font-variant-east-asian:normal;font-variation-settings:'wght' 400;dominant-baseline:middle;text-anchor:middle;fill:#ffffff"
   xml:space="preserve">EoR</text>
        <text
   id="reworked_lbl_eoc"
   x="2660.136"
   y="10344"
   style="font-style:normal;font-variant:normal;font-weight:normal;font-stretch:normal;font-size:282.223px;font-family:Rubik;-inkscape-font-specification:'Rubik, @wght=400';font-variant-ligatures:normal;font-variant-caps:normal;font-variant-numeric:normal;font-variant-east-asian:normal;font-variation-settings:'wght' 400;dominant-baseline:middle;text-anchor:middle;fill:#ffffff"
   xml:space="preserve">EoC</text>
        
        
        
        
        
        
        
        <text
   id="reworked_lbl_s1"
   x="963.19336"
   y="11741.934"
   style="font-style:normal;font-variant:normal;font-weight:normal;font-stretch:normal;font-size:282.223px;font-family:Rubik;-inkscape-font-specification:'Rubik, @wght=400';font-variant-ligatures:normal;font-variant-caps:normal;font-variant-numeric:normal;font-variant-east-asian:normal;font-variation-settings:'wght' 400;dominant-baseline:middle;text-anchor:middle;fill:#ffffff"
   xml:space="preserve"><tspan
     sodipodi:role="line"
     id="tspan112"
     x="963.19336"
     y="11741.934">OUT+</tspan></text><text
   id="reworked_lbl_s1-2"
   x="2660.6975"
   y="11741.9"
   style="font-style:normal;font-variant:normal;font-weight:normal;font-stretch:normal;font-size:282.223px;font-family:Rubik;-inkscape-font-specification:'Rubik, @wght=400';font-variant-ligatures:normal;font-variant-caps:normal;font-variant-numeric:normal;font-variant-east-asian:normal;font-variation-settings:'wght' 400;dominant-baseline:middle;text-anchor:middle;display:inline;fill:#ffffff"
   xml:space="preserve"><tspan
     sodipodi:role="line"
     id="tspan113"
     x="2660.6975"
     y="11741.9">OUT-</tspan></text>
        
        <text
   id="reworked_module_description"
   x="2027.8726"
   y="815.19421"
   style="font-style:normal;font-variant:normal;font-weight:normal;font-stretch:normal;font-size:211.667px;font-family:Rubik;-inkscape-font-specification:'Rubik, @wght=400';font-variant-ligatures:normal;font-variant-caps:normal;font-variant-numeric:normal;font-variant-east-asian:normal;font-variation-settings:'wght' 400;dominant-baseline:middle;text-anchor:middle;display:inline;fill:#ffffff"
   xml:space="preserve"><tspan
     sodipodi:role="line"
     id="tspan2"
     x="2027.8726"
     y="815.19421">generator • slew limiter</tspan></text>
        
      </g><g
   id="g129"
   inkscape:groupmode="layer"
   inkscape:label="Labels Reworked copy"
   style="display:inline"><path
   d="m 1471.3083,584.86156 q -5.8208,0 -9.525,-3.70417 -3.7042,-3.70417 -3.7042,-9.52501 V 227.67384 q 0,-5.82084 3.7042,-9.52501 3.7042,-3.70417 9.525,-3.70417 h 144.4626 q 42.8625,0 74.0834,13.22918 31.75,13.22917 49.2125,40.21669 17.9917,26.45835 17.9917,66.14587 0,40.21669 -17.9917,66.67504 -17.4625,25.92919 -49.2125,38.62919 -31.2209,12.70001 -74.0834,12.70001 h -70.9084 v 119.59174 q 0,5.82084 -3.7042,9.52501 -3.7041,3.70417 -9.525,3.70417 z m 71.9667,-198.43763 h 69.8501 q 26.9875,0 41.8042,-13.22917 15.3458,-13.22917 15.3458,-39.68752 0,-23.28335 -13.7583,-38.10003 -13.2292,-14.81667 -43.3917,-14.81667 h -69.8501 z m 274.6376,198.43763 q -5.2917,0 -8.9959,-3.70417 -3.7041,-3.70417 -3.7041,-9.52501 V 322.9239 q 0,-5.29167 3.7041,-8.99584 3.7042,-4.23334 8.9959,-4.23334 h 51.8584 q 5.2916,0 8.9958,4.23334 4.2333,3.70417 4.2333,8.99584 v 21.16668 q 13.2292,-16.40418 32.2792,-25.40002 19.5792,-8.99584 44.9792,-8.99584 h 22.7542 q 5.2917,0 8.9958,3.70417 3.7042,3.70417 3.7042,9.52501 v 45.50836 q 0,5.82083 -3.7042,9.525 -3.7041,3.70417 -8.9958,3.70417 h -46.5667 q -23.2834,0 -36.5125,13.22918 -13.2292,12.7 -13.2292,36.51252 v 140.22925 q 0,5.82084 -3.7042,9.52501 -3.7041,3.70417 -9.525,3.70417 z m 340.3335,5.29167 q -43.9208,0 -73.5542,-14.28751 -29.6333,-14.81668 -45.5084,-41.80419 -15.3458,-26.98752 -16.9333,-62.97088 -0.5292,-10.58334 -0.5292,-23.81251 0,-13.75834 0.5292,-23.81252 1.5875,-36.51252 17.9917,-62.97087 16.4042,-26.98751 46.0375,-41.27502 29.6334,-14.81668 71.9667,-14.81668 41.8042,0 71.4376,14.81668 29.6333,14.28751 46.0375,41.27502 16.4042,26.45835 17.9917,62.97087 1.0583,10.05418 1.0583,23.81252 0,13.22917 -1.0583,23.81251 -1.5875,35.98336 -17.4625,62.97088 -15.3459,26.98751 -44.9792,41.80419 -29.6334,14.28751 -73.0251,14.28751 z m 0,-58.20837 q 25.9292,0 39.1584,-15.87501 13.2292,-16.40418 14.2875,-47.62503 0.5292,-7.93751 0.5292,-21.16668 0,-13.22918 -0.5292,-21.16668 -1.0583,-30.69169 -14.2875,-47.09586 -13.2292,-16.40418 -39.1584,-16.40418 -25.9292,0 -39.6875,16.40418 -13.2292,16.40417 -14.2875,47.09586 -0.5292,7.9375 -0.5292,21.16668 0,13.22917 0.5292,21.16668 1.0583,31.22085 14.2875,47.62503 13.7583,15.87501 39.6875,15.87501 z m 314.3251,58.20837 q -38.6291,0 -68.2625,-14.28751 -29.1042,-14.28751 -46.0375,-41.27503 -16.9334,-27.51668 -18.5209,-65.6167 -0.5291,-8.46668 -0.5291,-21.16668 0,-13.22918 0.5291,-21.69585 1.5875,-38.62919 17.9917,-65.61671 16.9334,-27.51668 46.5667,-41.80419 29.6334,-14.28751 68.2625,-14.28751 35.4542,0 60.3251,10.05417 24.8708,9.52501 40.7458,24.34169 15.8751,14.81667 23.2834,31.22085 7.9375,15.87501 8.4667,28.04585 0.5291,5.29167 -3.7042,9.525 -3.7042,3.70417 -8.9958,3.70417 h -56.6209 q -5.2917,0 -8.4667,-2.64583 -2.6458,-3.175 -5.2917,-8.46667 -7.4083,-18.52085 -19.05,-26.45835 -11.6416,-7.93751 -29.1042,-7.93751 -23.8125,0 -37.5708,15.34585 -13.7583,15.34584 -14.8167,47.62502 -0.5292,20.63752 0,37.57086 1.5875,32.80835 14.8167,47.62503 13.7583,14.81668 37.5708,14.81668 18.5209,0 29.6334,-7.93751 11.1125,-7.9375 18.5208,-26.45835 2.1167,-5.29167 5.2917,-7.9375 3.175,-3.17501 8.4667,-3.17501 h 56.6209 q 5.2916,0 8.9958,4.23334 4.2333,3.70417 3.7042,8.99584 -0.5292,8.99584 -5.2917,21.16668 -4.2333,12.17084 -14.2875,24.87085 -9.525,12.70001 -24.8709,23.81251 -15.3458,10.58334 -37.5708,17.46251 -21.6959,6.35001 -50.8001,6.35001 z"
   id="text114"
   style="font-size:529.167px;font-family:Rubik;-inkscape-font-specification:'Rubik, @wght=600';font-variation-settings:'wght' 600;dominant-baseline:middle;text-anchor:middle;fill:url(#linearGradient67);stroke-width:28.1347"
   aria-label="Proc" /><path
   d="m 1624.3454,12285.69 -16.51,-15.24 10.795,-12.7 q -1.27,-1.27 -2.54,-1.905 -0.635,-0.635 -1.27,-1.905 l -3.81,-3.81 q -1.905,-1.27 -5.08,-2.54 -2.54,-1.905 -7.62,-6.35 -3.81,-1.905 -8.255,-4.445 -4.445,-3.175 -9.525,-6.985 h -1.905 l -1.27,-0.635 h -3.81 l -0.635,-0.635 q -21.59,0 -28.575,12.065 -6.35,8.255 -6.35,12.7 v 193.04 q 0,8.89 -4.445,19.05 -3.81,9.525 -10.795,18.415 -6.35,8.255 -14.605,15.24 -8.255,6.985 -17.145,10.795 v -0.635 q -3.175,2.54 -7.62,3.81 -4.445,0.635 -12.7,3.81 h 0.635 q -1.27,0.635 -2.54,0.635 -0.635,0 -1.27,0.635 -1.27,0 -2.54,0.635 -1.27,0 -2.54,0 -1.905,0.635 -5.08,0.635 h -9.525 q 8.89,-8.89 13.97,-18.415 5.08,-9.525 6.35,-20.955 v -3.175 q 0,-2.54 0.635,-5.715 0,-1.27 0,-1.905 0.635,-0.635 0.635,-1.905 v -176.53 q 0,-34.29 55.245,-69.85 50.8,-33.02 86.995,-33.02 h 2.54 q 10.795,0 41.275,12.065 19.05,9.525 26.035,21.59 z m 4.445,323.215 q -70.485,-29.845 -143.51,-29.845 -62.865,0 -110.49,21.59 -4.445,1.27 -10.795,4.445 -5.715,3.81 -12.7,6.985 13.97,-26.67 36.195,-45.72 22.225,-19.05 54.61,-31.75 55.245,-22.225 113.03,-22.225 38.1,0 66.675,9.525 v -117.475 q -10.795,-3.81 -10.795,-19.05 0,-8.89 6.985,-15.875 6.985,-7.62 15.875,-7.62 8.89,0 15.24,7.62 6.985,6.985 6.985,15.875 0,15.24 -11.43,20.32 v 122.555 q 1.27,1.27 6.985,2.54 l 2.54,1.905 h -1.27 q 2.54,1.27 3.175,1.905 v -0.635 l 1.27,0.635 0.635,0.635 2.54,1.27 8.89,-10.795 17.78,13.97 z m -175.26,-338.455 4.445,1.27 q -7.62,22.86 -7.62,24.765 l -1.27,178.435 v 1.27 q 0,9.525 -10.16,25.4 -27.305,43.815 -73.025,48.26 15.24,-24.765 15.24,-48.26 v -64.77 q -1.27,-1.27 -4.445,-1.905 -2.54,-1.27 -5.715,-3.81 h -1.905 q -6.985,0 -12.7,4.445 -5.715,4.445 -6.35,11.43 l 0.635,0.635 v 4.445 h -3.175 l -0.635,0.635 h -2.54 q -10.795,0 -19.685,-9.525 -8.255,-10.16 -8.89,-20.955 -0.635,-1.27 -0.635,-6.985 0,-34.925 38.1,-49.53 6.35,-1.27 12.7,-1.905 6.985,-1.27 15.24,-2.54 v -23.495 q 0,-8.89 0.635,-12.065 2.54,-17.78 29.21,-36.195 25.4,-19.685 43.815,-19.685 z m 55.245,-62.23 q -3.175,26.67 -30.48,43.815 -24.13,17.145 -50.8,17.145 -15.875,0 -34.925,-7.62 -4.445,0 -5.08,-1.27 -2.54,-1.27 -4.445,-1.905 -2.54,0 -3.81,-0.635 -3.81,-1.27 -9.525,-1.905 -5.715,-1.27 -7.62,-1.27 l -0.635,0.635 q -6.985,0 -9.525,1.905 -3.81,0 -8.255,4.445 -2.54,0.635 -7.62,4.445 -4.445,3.175 -11.43,8.89 v -6.35 q 0,-35.56 19.685,-57.15 19.685,-22.225 53.975,-22.225 10.795,0 22.86,3.175 12.7,2.54 27.305,7.62 29.21,10.795 41.91,10.795 1.905,0 4.445,-0.635 2.54,-0.635 6.35,-1.905 1.27,-1.27 4.445,-2.54 z m 391.1606,209.55 q -7.62,3.81 -30.48,17.145 -22.225,12.7 -60.96,35.56 -5.715,3.175 -12.7,8.255 v 47.625 q 19.685,3.175 36.195,8.255 17.145,5.08 31.75,12.065 l 15.24,-15.875 15.875,14.605 -57.785,63.5 -6.35,-3.175 q -13.335,-6.985 -26.035,-13.335 -12.7,-5.715 -29.21,-8.89 -27.94,-5.715 -48.26,-5.715 -7.62,0 -15.24,1.27 -7.62,0.635 -15.24,1.905 1.27,-3.175 2.54,-5.08 1.27,-2.54 2.54,-3.81 v 0.635 q 4.445,-6.985 6.985,-11.43 3.175,-4.445 3.81,-5.08 4.445,-5.715 17.145,-15.24 v -153.67 q 0,-9.525 -10.16,-31.75 v -8.89 l 5.715,5.715 h 3.81 l 0.635,0.635 h 1.905 l 1.905,0.635 h 2.54 q 50.165,0 113.03,-41.91 3.175,11.43 8.255,24.765 5.08,13.335 13.97,29.845 8.255,14.605 15.24,27.305 7.62,12.065 13.97,20.955 z m -99.06,-50.165 -5.08,1.27 v 81.28 l 34.29,-22.225 q -2.54,-3.81 -6.35,-9.525 -3.175,-6.35 -7.62,-15.875 -4.445,-8.255 -8.255,-17.145 -3.81,-8.89 -6.985,-17.78 z m 366.3946,-8.255 v 3.81 l -0.635,1.27 q 0,7.62 -6.35,15.24 -5.715,6.985 -16.51,15.24 v 155.575 q 0,5.715 1.905,8.255 l 8.255,20.32 -1.27,-0.635 v 3.81 q -15.24,0 -17.78,-0.635 h -3.81 q -13.335,0 -32.385,3.81 -19.05,4.445 -45.085,12.7 -36.195,11.43 -52.705,11.43 -17.78,0 -27.305,-3.81 -25.4,-9.525 -25.4,-48.26 v -161.29 q 0,-5.08 -7.62,-11.43 -7.62,-6.985 -13.335,-6.985 h -1.27 l -1.905,-0.635 h -4.445 l -1.27,-0.635 h -3.81 v -4.445 l 66.675,-53.34 q 20.32,4.445 31.75,27.305 3.175,5.715 3.175,13.97 v 175.895 q 0,13.97 10.795,22.225 10.795,7.62 26.67,7.62 22.225,0 22.225,-13.97 v -153.035 q -12.7,-3.81 -19.685,-14.605 l -8.89,5.715 -10.16,-15.875 68.58,-52.07 q 25.4,33.655 46.99,33.655 6.35,0 15.24,-5.715 v 8.255 z m 104.7747,248.92 q -10.16,-0.635 -20.32,-4.445 -10.16,-3.175 -19.05,-10.795 -19.05,-15.24 -19.05,-34.925 v -160.02 q -9.525,-0.635 -14.605,-11.43 l -8.89,5.08 -8.89,-12.7 1.905,-3.175 0.635,0.635 1.27,-1.27 1.27,-0.635 q 6.35,-5.715 13.97,-12.7 7.62,-7.62 20.32,-18.415 6.985,-4.445 17.145,-13.97 l 2.54,-1.905 q 1.905,-1.905 3.81,-3.81 v -7.62 q 26.035,36.83 45.72,36.83 4.445,0 20.32,-8.89 v 7.62 q -1.27,3.81 -1.27,8.89 -5.08,14.605 -13.335,24.13 -8.255,8.89 -17.145,12.7 v 135.255 q 0,3.81 3.175,10.16 5.715,12.065 26.035,12.065 6.985,0 16.51,-3.81 l 2.54,4.445 z m -17.145,-297.815 h -5.08 v -0.635 h -6.35 l -1.27,-0.635 q -24.13,0 -29.845,-19.685 l -10.16,5.08 -8.255,-13.97 q 5.08,-5.08 10.795,-7.62 5.715,-3.175 10.795,-5.715 l -1.27,1.27 q 1.905,-1.27 5.08,-3.81 3.81,-3.175 6.985,-5.715 4.445,-3.175 10.16,-7.62 6.35,-4.445 13.335,-9.525 16.51,24.13 34.29,24.13 3.175,-1.27 5.08,-1.27 2.54,-0.635 5.715,-1.905 h -0.635 l 1.27,-1.27 h 0.635 l 0.635,-0.635 h 0.635 l 0.635,-0.635 h 4.445 v 5.715 q 0,8.89 -4.445,17.145 -3.81,7.62 -10.795,13.97 -6.35,5.715 -15.24,9.525 -8.255,3.81 -17.145,3.81 z m 79.3745,247.015 q -1.27,1.905 -1.27,2.54 0.635,0 1.905,-1.905 z m 211.455,-26.67 v -189.23 q -53.34,-17.145 -105.41,-35.56 -49.53,29.21 -102.235,45.72 v 1.27 q 0,6.985 9.525,19.685 v 167.64 l -6.985,10.16 q -1.905,2.54 -3.81,4.445 l -1.905,3.175 q 52.705,6.35 111.125,63.5 l 42.545,-45.085 48.26,45.085 56.515,-64.135 -23.495,-3.175 q -17.145,-2.54 -24.13,-23.495 z m -74.295,18.415 q -22.225,-17.145 -53.34,-32.385 v -161.29 l -2.54,-1.905 V 12353 q 3.81,0 55.88,22.86 z m 210.8198,46.99 q -33.02,-31.115 -64.135,-31.115 -14.605,0 -21.59,10.795 v -8.89 q 0,-1.905 5.08,-14.605 8.89,-19.05 24.13,-27.305 v -153.67 h -10.795 q -4.445,2.54 -10.16,3.81 -0.635,0.635 -5.715,1.905 l -0.635,1.27 h -1.27 l -6.985,3.81 v -4.445 q 0,-2.54 0.635,-3.81 v -1.905 l 0.635,-1.27 q 0,-2.54 0.635,-3.81 v -4.445 q 0,-1.905 0,-3.81 0.635,-1.905 1.27,-4.445 v -3.81 l -0.635,-1.905 v -5.715 q -2.54,-6.985 -2.54,-22.86 8.255,4.445 13.335,6.35 5.715,1.905 8.89,2.54 1.27,-0.635 8.255,-0.635 h 5.08 v -28.575 l -0.635,-1.27 v -6.985 q -0.635,-0.635 -1.27,-1.905 -0.635,-1.27 -1.27,-2.54 0,-1.905 -0.635,-3.175 v -0.635 q -1.27,-1.27 -1.27,-5.08 l 4.445,-1.27 0.635,1.27 h 3.175 v 0.635 q 35.56,0 67.31,-39.37 v 8.255 l -0.635,0.635 q -0.635,1.27 -1.27,3.81 0,2.54 -1.27,6.35 v 0.635 q 0,1.905 -0.635,3.175 -2.54,10.16 -2.54,15.24 v 50.8 h 19.685 l 1.27,0.635 q 10.16,0 22.225,-8.89 v 6.985 q -0.635,1.27 -0.635,3.81 -1.905,3.175 -1.905,15.875 h 0.635 q 0,13.335 3.175,35.56 l -6.985,-3.81 -0.635,-0.635 h -0.635 q -6.985,-2.54 -15.875,-3.81 -8.89,-1.905 -20.32,-2.54 v 146.05 q 4.445,4.445 10.16,4.445 l 1.905,0.635 q 1.905,0.635 2.54,1.27 1.905,1.905 3.81,1.905 0.635,0.635 1.27,1.27 1.27,0 1.905,0.635 h -0.635 q 1.905,1.27 4.445,3.81 3.175,1.905 6.985,3.81 l 6.35,-6.35 12.7,14.605 z m 327.0251,-250.19 q 0,1.905 -0.635,5.08 -6.985,24.13 -22.225,33.02 l 0.635,165.1 v -0.635 q 5.08,14.605 13.97,26.035 v -0.635 l 1.27,1.27 v 0.635 l 1.27,1.27 -3.175,4.445 q -12.065,-6.35 -33.02,-6.35 -33.02,0 -34.925,10.795 l 4.445,4.445 h -3.81 q 1.27,1.905 4.445,5.08 3.81,3.175 8.89,7.62 31.115,25.4 31.115,51.435 0,24.13 -22.86,38.1 -8.89,5.715 -12.7,5.715 l -1.27,0.635 h -3.81 l -0.635,0.635 h -2.54 q -19.05,0 -26.67,-18.415 20.32,-7.62 20.32,-21.59 0,-11.43 -6.985,-19.685 -1.905,-0.635 -2.54,-6.35 l 0.635,0.635 q -12.065,-17.78 -12.065,-38.735 0,-14.605 7.62,-19.05 v -0.635 q 6.985,-6.985 6.985,-15.24 v -164.465 q -6.35,0 -17.78,-7.62 -12.7,-8.255 -15.24,-10.795 l -0.635,-0.635 -27.94,20.955 v 131.445 q 2.54,0.635 5.715,1.905 3.175,1.27 7.62,2.54 10.16,5.08 17.145,10.795 7.62,5.715 12.7,12.065 l -58.42,53.34 q -35.56,-34.29 -64.77,-34.29 h -3.175 q -1.27,0 -3.81,0.635 -2.54,0.635 -7.62,3.175 -3.175,1.27 -6.985,1.905 -3.81,0.635 -5.08,0.635 8.89,-34.925 40.005,-48.26 v -266.065 q 0,-12.065 -12.065,-38.1 18.415,0 36.83,-7.62 18.415,-7.62 38.735,-22.225 1.27,-0.635 13.97,-11.43 l -0.635,0.635 5.08,0.635 q -1.27,3.81 -3.175,8.255 -1.27,4.445 -1.905,6.35 l -1.905,3.81 q -2.54,5.08 -5.08,19.05 -0.635,0.635 -0.635,1.27 v 0.635 q -1.27,6.985 -1.905,11.43 -0.635,4.445 -0.635,6.35 v 119.38 l 80.01,-60.96 q 17.145,34.925 36.195,34.925 0.635,0.635 3.81,0.635 8.255,0 31.75,-14.605 v 8.89 q 0,1.905 -0.635,3.175 0,1.27 -0.635,3.175 -0.635,1.905 -0.635,4.445 z m 10.1604,211.455 q -1.27,1.905 -1.27,2.54 0.635,0 1.905,-1.905 z m 211.455,-26.67 v -189.23 q -53.34,-17.145 -105.41,-35.56 -49.53,29.21 -102.235,45.72 v 1.27 q 0,6.985 9.525,19.685 v 167.64 l -6.985,10.16 q -1.905,2.54 -3.81,4.445 l -1.905,3.175 q 52.705,6.35 111.125,63.5 l 42.545,-45.085 48.26,45.085 56.515,-64.135 -23.495,-3.175 q -17.145,-2.54 -24.13,-23.495 z m -74.295,18.415 q -22.225,-17.145 -53.34,-32.385 v -161.29 l -2.54,-1.905 V 12353 q 3.81,0 55.88,22.86 z m 353.06,-194.945 q 1.905,0.635 1.905,3.81 0,5.08 -7.62,19.05 v 184.15 h 24.765 q -6.35,0 -57.785,59.055 -2.54,-10.795 -57.15,-62.865 h 14.605 v -176.53 l -24.765,-20.955 -32.385,24.765 v 173.99 h 27.305 q -41.91,24.765 -56.515,46.99 -11.43,16.51 -12.7,16.51 -0.635,0 -0.635,-0.635 l 0.635,-1.27 q -5.715,-25.4 -59.055,-56.515 l -1.27,-3.81 h 24.765 v -165.1 q -8.89,-34.925 -29.845,-36.195 l 55.88,-41.91 q 40.64,23.495 46.99,33.655 14.605,-1.27 65.405,-34.925 l 8.255,-6.35 q 43.18,34.29 69.215,45.085 z"
   id="text115"
   style="font-size:635px;font-family:Ancient;-inkscape-font-specification:'Ancient, Normal';dominant-baseline:middle;text-anchor:middle;fill:url(#linearGradient1);stroke-width:37.1"
   inkscape:label="reworked_LEVIATHAN_LOGO"
   aria-label="Leviathan" />
        
        <path
   d="m 346.10169,2397.8465 q -3.10445,0 -4.79779,-1.6934 -1.69334,-1.9755 -1.69334,-4.7977 v -184.5739 q 0,-2.8222 1.69334,-4.5156 1.69334,-1.9755 4.79779,-1.9755 h 14.95782 q 2.82223,0 4.51557,1.9755 1.97556,1.6934 1.97556,4.5156 v 184.5739 q 0,2.8222 -1.97556,4.7977 -1.69334,1.6934 -4.51557,1.6934 z m 77.04708,0 q -3.10445,0 -4.79779,-1.6934 -1.69334,-1.9755 -1.69334,-4.7977 v -184.2917 q 0,-3.1044 1.69334,-4.7978 1.69334,-1.9755 4.79779,-1.9755 h 12.98226 q 3.38668,0 5.08001,1.6933 1.69334,1.4111 1.97556,2.2578 l 93.69804,143.9337 v -141.1115 q 0,-3.1044 1.69334,-4.7978 1.69333,-1.9755 4.79779,-1.9755 h 13.5467 q 3.10445,0 4.79779,1.9755 1.97556,1.6934 1.97556,4.7978 v 184.0094 q 0,2.8223 -1.97556,4.7978 -1.69334,1.9756 -4.51557,1.9756 h -13.5467 q -3.10445,0 -4.79779,-1.6934 -1.41112,-1.6933 -1.97556,-2.2577 l -93.41581,-142.5227 v 139.9827 q 0,2.8222 -1.97556,4.7977 -1.69334,1.6934 -4.79779,1.6934 z m 196.14491,0 q -3.10446,0 -4.79779,-1.6934 -1.69334,-1.9755 -1.69334,-4.7977 v -184.2917 q 0,-3.1044 1.69334,-4.7978 1.69333,-1.9755 4.79779,-1.9755 h 71.68464 q 20.8845,0 36.12454,6.7733 15.52226,6.7734 23.98895,20.3201 8.46669,13.2645 8.46669,33.3023 0,20.0378 -8.46669,33.3023 -8.46669,13.2645 -23.98895,20.0379 -15.24004,6.7733 -36.12454,6.7733 h -49.95347 v 70.5558 q 0,2.8222 -1.97556,4.7977 -1.69334,1.6934 -4.79779,1.6934 z m 21.44894,-100.7536 h 48.82458 q 20.8845,0 31.32675,-9.3134 10.44225,-9.3133 10.44225,-27.0934 0,-17.4978 -10.16002,-27.0934 -10.16003,-9.5956 -31.60898,-9.5956 h -48.82458 z m 227.75399,103.5758 q -23.70673,0 -40.92233,-8.4667 -16.93338,-8.4667 -26.24674,-25.6823 -9.03114,-17.4978 -9.03114,-44.8734 v -114.5826 q 0,-3.1044 1.69334,-4.7978 1.69334,-1.9755 4.79779,-1.9755 h 14.39338 q 3.10445,0 4.79779,1.9755 1.97556,1.6934 1.97556,4.7978 v 115.147 q 0,27.6579 12.98226,40.9224 12.98225,13.2644 35.56009,13.2644 22.29562,0 35.27788,-13.2644 13.26448,-13.2645 13.26448,-40.9224 v -115.147 q 0,-3.1044 1.69334,-4.7978 1.97556,-1.9755 4.79779,-1.9755 h 14.67559 q 2.82223,0 4.51557,1.9755 1.97556,1.6934 1.97556,4.7978 v 114.5826 q 0,27.3756 -9.31336,44.8734 -9.03113,17.2156 -25.96451,25.6823 -16.93338,8.4667 -40.92234,8.4667 z m 173.00279,-2.8222 q -2.8222,0 -4.7978,-1.6934 -1.6933,-1.9755 -1.6933,-4.7977 v -165.9472 h -54.18684 q -2.82223,0 -4.7978,-1.6933 -1.69333,-1.9756 -1.69333,-4.7978 v -11.8534 q 0,-3.1044 1.69333,-4.7978 1.97557,-1.9755 4.7978,-1.9755 h 136.03144 q 3.1045,0 4.7978,1.9755 1.9756,1.6934 1.9756,4.7978 v 11.8534 q 0,2.8222 -1.9756,4.7978 -1.6933,1.6933 -4.7978,1.6933 h -53.9046 v 165.9472 q 0,2.8222 -1.9755,4.7977 -1.6934,1.6934 -4.7978,1.6934 z"
   id="text116"
   style="font-size:282.223px;font-family:Rubik;-inkscape-font-specification:'Rubik, @wght=400';font-variation-settings:'wght' 400;dominant-baseline:middle;text-anchor:middle;fill:#ffffff"
   aria-label="INPUT" />
        <path
   d="m 1753.2692,2396.3309 q -2.8222,0 -4.7978,-1.6934 -1.6933,-1.9755 -1.6933,-4.7978 v -165.9471 h -54.1868 q -2.8223,0 -4.7978,-1.6933 -1.6934,-1.9756 -1.6934,-4.7978 v -11.8534 q 0,-3.1044 1.6934,-4.7978 1.9755,-1.9755 4.7978,-1.9755 h 136.0315 q 3.1044,0 4.7977,1.9755 1.9756,1.6934 1.9756,4.7978 v 11.8534 q 0,2.8222 -1.9756,4.7978 -1.6933,1.6933 -4.7977,1.6933 h -53.9046 v 165.9471 q 0,2.8223 -1.9756,4.7978 -1.6933,1.6934 -4.7978,1.6934 z m 120.2271,0 q -3.1044,0 -4.7978,-1.6934 -1.6933,-1.9755 -1.6933,-4.7978 v -184.2916 q 0,-3.1044 1.6933,-4.7978 1.6934,-1.9755 4.7978,-1.9755 h 68.8625 q 31.8911,0 50.5179,14.9578 18.6267,14.9578 18.6267,44.309 0,21.7312 -11.0067,35.5601 -10.7245,13.5467 -29.3512,18.9089 l 43.4623,75.0713 q 0.8467,1.6934 0.8467,3.1045 0,2.2578 -1.9756,3.9511 -1.6933,1.6934 -3.9511,1.6934 h -13.5467 q -4.7978,0 -7.0556,-2.5401 -2.2577,-2.54 -3.9511,-5.08 l -40.9223,-71.6846 h -49.389 v 72.8135 q 0,2.8223 -1.9756,4.7978 -1.6933,1.6934 -4.7978,1.6934 z m 21.1668,-103.2937 h 46.5668 q 21.1667,0 31.6089,-8.7489 10.4423,-9.0311 10.4423,-26.5289 0,-17.2156 -10.4423,-26.2468 -10.16,-9.0311 -31.6089,-9.0311 h -46.5668 z m 163.6895,103.2937 q -3.1045,0 -4.7978,-1.6934 -1.6933,-1.9755 -1.6933,-4.7978 v -184.5738 q 0,-2.8222 1.6933,-4.5156 1.6933,-1.9755 4.7978,-1.9755 h 14.9578 q 2.8222,0 4.5156,1.9755 1.9755,1.6934 1.9755,4.5156 v 184.5738 q 0,2.8223 -1.9755,4.7978 -1.6934,1.6934 -4.5156,1.6934 z m 142.2406,2.8222 q -24.8356,0 -42.3335,-9.3134 -17.2156,-9.3133 -26.5289,-26.2467 -9.0312,-16.9334 -10.1601,-39.7935 -0.2822,-12.4178 -0.2822,-26.2467 0,-14.1111 0.2822,-26.8112 1.1289,-22.86 10.1601,-39.5112 9.3133,-16.6512 26.8112,-25.9645 17.4978,-9.3134 42.0512,-9.3134 20.0378,0 34.7134,5.6445 14.6756,5.6445 23.989,14.3934 9.5956,8.4667 14.1111,17.78 4.7978,9.3134 5.08,16.3689 0.2823,2.5401 -1.4111,4.2334 -1.6933,1.4111 -4.5156,1.4111 h -16.6511 q -2.8222,0 -4.2334,-1.1289 -1.1288,-1.1289 -2.2577,-3.9511 -2.54,-7.3378 -8.4667,-14.3934 -5.6445,-7.0556 -15.5223,-11.5711 -9.5956,-4.7978 -24.8356,-4.7978 -22.2956,0 -36.1246,12.1356 -13.5467,12.1356 -14.6756,40.0756 -0.8466,25.1179 0,50.2357 1.1289,28.2223 14.9579,40.6401 13.8289,12.1356 36.1245,12.1356 14.9578,0 26.529,-5.3622 11.8533,-5.6445 18.6267,-17.2156 6.7733,-11.5712 6.7733,-29.3512 v -11.8534 h -42.3334 q -2.8222,0 -4.7978,-1.6933 -1.6933,-1.9756 -1.6933,-5.08 v -9.0312 q 0,-3.1044 1.6933,-4.7977 1.9756,-1.9756 4.7978,-1.9756 h 63.7824 q 3.1044,0 4.7978,1.9756 1.6933,1.6933 1.6933,4.7977 v 27.0935 q 0,23.1422 -9.5956,40.3578 -9.3133,17.2156 -27.3756,26.8112 -18.0623,9.3134 -43.1801,9.3134 z"
   id="text117"
   style="font-size:282.223px;font-family:Rubik;-inkscape-font-specification:'Rubik, @wght=400';font-variation-settings:'wght' 400;dominant-baseline:middle;text-anchor:middle;fill:#ffffff"
   aria-label="TRIG" />
        <path
   d="m 2919.8003,4559.1001 q -24.5534,0 -41.2046,-7.3378 -16.6511,-7.62 -25.6823,-19.4734 -8.7489,-12.1356 -9.3133,-25.6823 0,-2.2578 1.6933,-3.9511 1.9756,-1.9756 4.5156,-1.9756 h 14.3934 q 3.3866,0 5.08,1.6934 1.6933,1.6933 2.2578,3.9511 1.4111,6.7734 6.7733,13.5467 5.6445,6.4911 15.5223,11.0067 10.16,4.2334 25.9645,4.2334 24.2712,0 35.5601,-8.4667 11.5711,-8.7489 11.5711,-23.1423 0,-9.8778 -6.2089,-15.8045 -5.9267,-6.2089 -18.3445,-11.0067 -12.4178,-4.7978 -32.1734,-10.4423 -20.6023,-5.9266 -34.149,-12.9822 -13.5467,-7.0556 -20.32,-17.4978 -6.4912,-10.4423 -6.4912,-26.529 0,-15.24 8.1845,-27.0934 8.1845,-12.1356 23.4245,-19.1912 15.5223,-7.0555 37.5357,-7.0555 17.4978,0 30.4801,4.7977 13.2644,4.5156 22.0133,12.4179 8.749,7.62 13.2645,16.6511 4.5156,8.7489 4.7978,17.2156 0,1.9756 -1.4111,3.9511 -1.4111,1.6934 -4.5156,1.6934 h -14.9578 q -1.9755,0 -4.2333,-1.1289 -1.9756,-1.1289 -3.1045,-4.2334 -1.6933,-11.5711 -12.9822,-19.4733 -11.289,-7.9023 -29.3512,-7.9023 -18.3445,0 -29.9157,7.0556 -11.2889,7.0556 -11.2889,22.0134 0,9.5956 5.3622,16.0867 5.3623,6.2089 16.9334,11.0067 11.5712,4.7978 30.1979,10.16 22.5778,6.2089 36.9712,13.2645 14.3934,6.7733 21.1667,17.2156 7.0556,10.16 7.0556,26.2467 0,17.7801 -9.3134,30.4801 -9.3133,12.4178 -26.2467,19.1912 -16.6512,6.4911 -39.5112,6.4911 z m 186.5493,0 q -23.7067,0 -40.9223,-8.4667 -16.9334,-8.4667 -26.2468,-25.6823 -9.0311,-17.4978 -9.0311,-44.8734 v -114.5826 q 0,-3.1044 1.6933,-4.7978 1.6934,-1.9755 4.7978,-1.9755 h 14.3934 q 3.1045,0 4.7978,1.9755 1.9756,1.6934 1.9756,4.7978 v 115.147 q 0,27.6579 12.9822,40.9223 12.9823,13.2645 35.5601,13.2645 22.2956,0 35.2779,-13.2645 13.2645,-13.2644 13.2645,-40.9223 v -115.147 q 0,-3.1044 1.6933,-4.7978 1.9756,-1.9755 4.7978,-1.9755 h 14.6756 q 2.8222,0 4.5156,1.9755 1.9755,1.6934 1.9755,4.7978 v 114.5826 q 0,27.3756 -9.3133,44.8734 -9.0312,17.2156 -25.9646,25.6823 -16.9333,8.4667 -40.9223,8.4667 z m 129.8227,-2.8222 q -3.1045,0 -4.7978,-1.6934 -1.6934,-1.9755 -1.6934,-4.7978 v -184.2916 q 0,-3.1044 1.6934,-4.7978 1.6933,-1.9755 4.7978,-1.9755 h 68.8624 q 31.8912,0 50.5179,14.9578 18.6267,14.9578 18.6267,44.309 0,21.7312 -11.0067,35.5601 -10.7245,13.5467 -29.3512,18.9089 l 43.4623,75.0714 q 0.8467,1.6933 0.8467,3.1044 0,2.2578 -1.9755,3.9511 -1.6934,1.6934 -3.9512,1.6934 h -13.5467 q -4.7978,0 -7.0555,-2.54 -2.2578,-2.54 -3.9512,-5.08 l -40.9223,-71.6847 h -49.389 v 72.8135 q 0,2.8223 -1.9756,4.7978 -1.6933,1.6934 -4.7978,1.6934 z m 21.1667,-103.2936 h 46.5668 q 21.1667,0 31.6089,-8.7489 10.4423,-9.0312 10.4423,-26.529 0,-17.2156 -10.4423,-26.2467 -10.16,-9.0312 -31.6089,-9.0312 h -46.5668 z m 228.6182,106.1158 q -24.8357,0 -42.3335,-9.3134 -17.2156,-9.3133 -26.5289,-26.2467 -9.0312,-16.9334 -10.1601,-39.7934 -0.2822,-12.4178 -0.2822,-26.2468 0,-14.1111 0.2822,-26.8112 1.1289,-22.86 10.1601,-39.5112 9.3133,-16.6511 26.8111,-25.9645 17.4979,-9.3133 42.0513,-9.3133 20.0378,0 34.7134,5.6444 14.6756,5.6445 23.9889,14.3934 9.5956,8.4667 14.1112,17.78 4.7978,9.3134 5.08,16.369 0.2822,2.54 -1.4111,4.2333 -1.6933,1.4111 -4.5156,1.4111 h -16.6511 q -2.8223,0 -4.2334,-1.1289 -1.1289,-1.1289 -2.2578,-3.9511 -2.54,-7.3378 -8.4667,-14.3934 -5.6444,-7.0555 -15.5222,-11.5711 -9.5956,-4.7978 -24.8356,-4.7978 -22.2957,0 -36.1246,12.1356 -13.5467,12.1356 -14.6756,40.0757 -0.8466,25.1178 0,50.2357 1.1289,28.2223 14.9578,40.6401 13.829,12.1356 36.1246,12.1356 14.9578,0 26.5289,-5.3623 11.8534,-5.6444 18.6268,-17.2156 6.7733,-11.5711 6.7733,-29.3512 v -11.8533 h -42.3334 q -2.8223,0 -4.7978,-1.6934 -1.6934,-1.9755 -1.6934,-5.08 v -9.0311 q 0,-3.1045 1.6934,-4.7978 1.9755,-1.9756 4.7978,-1.9756 h 63.7824 q 3.1044,0 4.7978,1.9756 1.6933,1.6933 1.6933,4.7978 v 27.0934 q 0,23.1423 -9.5956,40.3579 -9.3133,17.2156 -27.3756,26.8111 -18.0623,9.3134 -43.1801,9.3134 z m 127.0002,-2.8222 q -3.1044,0 -4.7978,-1.6934 -1.6933,-1.9755 -1.6933,-4.7978 v -184.2916 q 0,-3.1044 1.6933,-4.7978 1.6934,-1.9755 4.7978,-1.9755 h 116.5581 q 3.1045,0 4.7978,1.9755 1.6934,1.6934 1.6934,4.7978 v 10.7245 q 0,3.1045 -1.6934,4.7978 -1.6933,1.6933 -4.7978,1.6933 h -95.9558 v 61.8069 h 89.7469 q 3.1045,0 4.7978,1.9755 1.6934,1.6934 1.6934,4.7978 v 10.4423 q 0,2.8222 -1.6934,4.7978 -1.6933,1.6933 -4.7978,1.6933 h -89.7469 v 64.0646 h 98.2136 q 3.1045,0 4.7978,1.6934 1.6933,1.6933 1.6933,4.7978 v 11.0066 q 0,2.8223 -1.6933,4.7978 -1.6933,1.6934 -4.7978,1.6934 z"
   id="text118"
   style="font-size:282.223px;font-family:Rubik;-inkscape-font-specification:'Rubik, @wght=400';font-variation-settings:'wght' 400;dominant-baseline:middle;text-anchor:middle;fill:#ffffff"
   aria-label="SURGE" />
        <path
   d="m 3086.3861,6251.3003 q -24.5534,0 -41.2046,-7.3378 -16.6511,-7.62 -25.6822,-19.4734 -8.749,-12.1356 -9.3134,-25.6823 0,-2.2578 1.6933,-3.9511 1.9756,-1.9756 4.5156,-1.9756 h 14.3934 q 3.3866,0 5.08,1.6934 1.6933,1.6933 2.2578,3.9511 1.4111,6.7734 6.7733,13.5467 5.6445,6.4911 15.5223,11.0067 10.16,4.2333 25.9645,4.2333 24.2712,0 35.5601,-8.4666 11.5711,-8.749 11.5711,-23.1423 0,-9.8778 -6.2089,-15.8045 -5.9266,-6.2089 -18.3445,-11.0067 -12.4178,-4.7978 -32.1734,-10.4423 -20.6023,-5.9266 -34.149,-12.9822 -13.5467,-7.0556 -20.32,-17.4978 -6.4911,-10.4423 -6.4911,-26.529 0,-15.24 8.1844,-27.0934 8.1845,-12.1356 23.4245,-19.1912 15.5223,-7.0556 37.5357,-7.0556 17.4978,0 30.4801,4.7978 13.2644,4.5156 22.0134,12.4179 8.7489,7.62 13.2644,16.6511 4.5156,8.7489 4.7978,17.2156 0,1.9756 -1.4111,3.9511 -1.4111,1.6934 -4.5155,1.6934 h -14.9579 q -1.9755,0 -4.2333,-1.1289 -1.9756,-1.1289 -3.1045,-4.2334 -1.6933,-11.5711 -12.9822,-19.4734 -11.2889,-7.9022 -29.3512,-7.9022 -18.3445,0 -29.9157,7.0556 -11.2889,7.0556 -11.2889,22.0134 0,9.5956 5.3623,16.0867 5.3622,6.2089 16.9333,11.0067 11.5712,4.7978 30.1979,10.16 22.5778,6.2089 36.9712,13.2645 14.3934,6.7733 21.1667,17.2156 7.0556,10.16 7.0556,26.2467 0,17.7801 -9.3133,30.4801 -9.3134,12.4178 -26.2468,19.1912 -16.6511,6.4911 -39.5112,6.4911 z m 118.5336,-2.8222 q -3.1045,0 -4.7978,-1.6934 -1.6933,-1.9755 -1.6933,-4.7978 v -184.5738 q 0,-2.8222 1.6933,-4.5156 1.6933,-1.9755 4.7978,-1.9755 h 14.9578 q 2.8222,0 4.5156,1.9755 1.9755,1.6934 1.9755,4.5156 v 184.5738 q 0,2.8223 -1.9755,4.7978 -1.6934,1.6934 -4.5156,1.6934 z m 77.0471,0 q -3.1045,0 -4.7978,-1.6934 -1.6934,-1.9755 -1.6934,-4.7978 v -184.2916 q 0,-3.1044 1.6934,-4.7978 1.6933,-1.9755 4.7978,-1.9755 h 12.9822 q 3.3867,0 5.08,1.6933 1.6934,1.4111 1.9756,2.2578 l 93.698,143.9337 v -141.1115 q 0,-3.1044 1.6934,-4.7978 1.6933,-1.9755 4.7978,-1.9755 h 13.5467 q 3.1044,0 4.7978,1.9755 1.9755,1.6934 1.9755,4.7978 v 184.0094 q 0,2.8223 -1.9755,4.7978 -1.6934,1.9756 -4.5156,1.9756 h -13.5467 q -3.1045,0 -4.7978,-1.6934 -1.4111,-1.6933 -1.9756,-2.2577 l -93.4158,-142.5227 v 139.9826 q 0,2.8223 -1.9755,4.7978 -1.6934,1.6934 -4.7978,1.6934 z m 196.1449,0 q -3.1045,0 -4.7978,-1.6934 -1.6934,-1.9755 -1.6934,-4.7978 v -184.2916 q 0,-3.1044 1.6934,-4.7978 1.6933,-1.9755 4.7978,-1.9755 h 14.1111 q 3.1045,0 4.7978,1.9755 1.9756,1.6934 1.9756,4.7978 v 69.9913 l 75.3535,-72.2491 q 1.1289,-1.1288 3.6689,-2.8222 2.8222,-1.6933 7.3378,-1.6933 h 15.2401 q 2.2577,0 3.9511,1.6933 1.6933,1.6934 1.6933,3.9511 0,2.2578 -1.1289,3.6689 l -87.2069,85.2314 92.8514,93.4158 q 1.4111,1.6933 1.4111,3.9511 0,2.2578 -1.6933,3.9511 -1.6934,1.6934 -3.9512,1.6934 h -15.8045 q -4.7977,0 -7.3377,-1.6934 -2.5401,-1.9755 -3.6689,-2.8222 l -80.7158,-79.5869 v 77.6113 q 0,2.8223 -1.9756,4.7978 -1.6933,1.6934 -4.7978,1.6934 z"
   id="text119"
   style="font-size:282.223px;font-family:Rubik;-inkscape-font-specification:'Rubik, @wght=400';font-variation-settings:'wght' 400;dominant-baseline:middle;text-anchor:middle;fill:#ffffff"
   aria-label="SINK" /><path
   d="m 416.83535,4344.3985 q -3.10445,0 -4.79779,-1.6934 -1.69334,-1.9755 -1.69334,-4.7977 v -184.2917 q 0,-3.1044 1.69334,-4.7978 1.69334,-1.9755 4.79779,-1.9755 h 14.39337 q 3.10446,0 4.7978,1.9755 1.97556,1.6934 1.97556,4.7978 v 77.8936 h 97.08471 v -77.8936 q 0,-3.1044 1.69333,-4.7978 1.97556,-1.9755 4.79779,-1.9755 h 14.39338 q 3.10445,0 4.79779,1.9755 1.97556,1.6934 1.97556,4.7978 v 184.2917 q 0,2.8222 -1.97556,4.7977 -1.69334,1.6934 -4.79779,1.6934 h -14.39338 q -2.82223,0 -4.79779,-1.6934 -1.69333,-1.9755 -1.69333,-4.7977 v -80.998 h -97.08471 v 80.998 q 0,2.8222 -1.97556,4.7977 -1.69334,1.6934 -4.7978,1.6934 z m 181.75181,0 q -2.25779,0 -3.95112,-1.6934 -1.69334,-1.6933 -1.69334,-3.9511 0,-1.4111 0.28222,-3.1044 l 69.9913,-182.5983 q 1.1289,-2.8222 3.10446,-4.5156 1.97556,-1.6933 5.92668,-1.6933 h 19.19116 q 3.6689,0 5.64446,1.6933 2.25779,1.6934 3.38668,4.5156 l 69.70908,182.5983 q 0.56444,1.6933 0.56444,3.1044 0,2.2578 -1.69333,3.9511 -1.69334,1.6934 -3.95113,1.6934 h -14.39337 q -3.38668,0 -5.08001,-1.6934 -1.41112,-1.6933 -1.97556,-3.1044 l -15.52227,-40.0757 h -92.56914 l -15.52226,40.0757 q -0.28223,1.4111 -1.97557,3.1044 -1.69333,1.6934 -5.08001,1.6934 z m 45.15568,-69.1446 h 76.2002 l -38.1001,-100.1892 z m 163.68937,69.1446 q -3.10445,0 -4.79779,-1.6934 -1.69333,-1.9755 -1.69333,-4.7977 v -184.5739 q 0,-2.8222 1.69333,-4.5156 1.69334,-1.9755 4.79779,-1.9755 h 14.95782 q 2.82223,0 4.51557,1.9755 1.69334,1.6934 1.69334,4.5156 v 166.5116 h 93.98026 q 3.10445,0 4.79779,1.9755 1.69333,1.6934 1.69333,4.7978 v 11.289 q 0,2.8222 -1.69333,4.7977 -1.69334,1.6934 -4.79779,1.6934 z m 168.5044,0 q -2.82223,0 -4.79779,-1.6934 -1.69334,-1.9755 -1.69334,-4.7977 v -165.9472 h -54.18681 q -2.82223,0 -4.79779,-1.6933 -1.69334,-1.9756 -1.69334,-4.7978 v -11.8534 q 0,-3.1044 1.69334,-4.7978 1.97556,-1.9755 4.79779,-1.9755 h 136.03153 q 3.1044,0 4.7977,1.9755 1.9756,1.6934 1.9756,4.7978 v 11.8534 q 0,2.8222 -1.9756,4.7978 -1.6933,1.6933 -4.7977,1.6933 h -53.90464 v 165.9472 q 0,2.8222 -1.97556,4.7977 -1.69334,1.6934 -4.79779,1.6934 z"
   id="text120"
   style="font-size:282.223px;font-family:Rubik;-inkscape-font-specification:'Rubik, @wght=400';font-variation-settings:'wght' 400;dominant-baseline:middle;text-anchor:middle;fill:#ffffff"
   aria-label="HALT" />
        <path
   d="m 1654.1536,5184.979 q -3.1044,0 -4.7978,-1.6933 -1.6933,-1.9755 -1.6933,-4.7978 v -184.2916 q 0,-3.1044 1.6933,-4.7978 1.6934,-1.9755 4.7978,-1.9755 h 77.3291 q 21.1667,0 34.4312,7.0555 13.5467,6.7734 19.7556,18.6267 6.4912,11.8534 6.4912,26.529 0,11.5712 -3.9512,20.0378 -3.6689,8.1845 -9.3133,13.5467 -5.6445,5.0801 -11.0067,7.9023 11.0067,5.3622 19.4734,17.4978 8.7489,12.1356 8.7489,29.3512 0,15.5223 -7.0556,28.5045 -7.0556,12.9823 -21.1667,20.8845 -13.8289,7.62 -34.4312,7.62 z m 21.1667,-22.86 h 54.4691 q 18.3445,0 28.2223,-9.8778 9.8778,-9.8778 9.8778,-24.2712 0,-14.9578 -9.8778,-24.5534 -9.8778,-9.8778 -28.2223,-9.8778 h -54.4691 z m 0,-91.158 h 51.9291 q 18.0622,0 27.3756,-8.1845 9.3134,-8.4667 9.3134,-22.8601 0,-14.3933 -9.3134,-22.0134 -9.3134,-7.62 -27.3756,-7.62 h -51.9291 z m 231.7049,116.8403 q -23.9889,0 -41.2046,-8.1845 -17.2156,-8.4667 -26.5289,-25.6823 -9.3134,-17.4978 -10.4423,-43.7445 -0.2822,-12.4179 -0.2822,-23.7068 0,-11.5711 0.2822,-23.9889 1.1289,-25.9645 10.7245,-43.1801 9.8778,-17.4979 27.0934,-25.9646 17.4978,-8.7489 40.3579,-8.7489 23.1423,0 40.3579,8.7489 17.4978,8.4667 27.3756,25.9646 9.8778,17.2156 10.7245,43.1801 0.5644,12.4178 0.5644,23.9889 0,11.2889 -0.5644,23.7068 -0.8467,26.2467 -10.4423,43.7445 -9.3133,17.2156 -26.5289,25.6823 -17.2156,8.1845 -41.4868,8.1845 z m 0,-23.989 q 21.7312,0 35.2779,-12.9822 13.8289,-12.9823 14.9578,-42.0513 0.5644,-12.7 0.5644,-22.5778 0,-10.16 -0.5644,-22.5778 -0.5644,-19.4734 -7.3378,-31.609 -6.4911,-12.1356 -17.4978,-17.7801 -11.0067,-5.6444 -25.4001,-5.6444 -13.8289,0 -24.8356,5.6444 -11.0067,5.6445 -17.7801,17.7801 -6.4911,12.1356 -7.3378,31.609 -0.2822,12.4178 -0.2822,22.5778 0,9.8778 0.2822,22.5778 1.1289,29.069 14.9579,42.0513 13.8289,12.9822 34.9956,12.9822 z m 165.6296,21.1667 q -2.8223,0 -4.7978,-1.6933 -1.6934,-1.9755 -1.6934,-4.7978 v -165.9471 h -54.1868 q -2.8222,0 -4.7978,-1.6933 -1.6933,-1.9756 -1.6933,-4.7978 v -11.8534 q 0,-3.1044 1.6933,-4.7978 1.9756,-1.9755 4.7978,-1.9755 h 136.0315 q 3.1045,0 4.7978,1.9755 1.9756,1.6934 1.9756,4.7978 v 11.8534 q 0,2.8222 -1.9756,4.7978 -1.6933,1.6933 -4.7978,1.6933 h -53.9046 v 165.9471 q 0,2.8223 -1.9755,4.7978 -1.6934,1.6933 -4.7978,1.6933 z m 120.2271,0 q -3.1045,0 -4.7978,-1.6933 -1.6933,-1.9755 -1.6933,-4.7978 v -184.2916 q 0,-3.1044 1.6933,-4.7978 1.6933,-1.9755 4.7978,-1.9755 h 14.3934 q 3.1044,0 4.7977,1.9755 1.9756,1.6934 1.9756,4.7978 v 77.8936 h 97.0847 v -77.8936 q 0,-3.1044 1.6934,-4.7978 1.9755,-1.9755 4.7977,-1.9755 h 14.3934 q 3.1045,0 4.7978,1.9755 1.9756,1.6934 1.9756,4.7978 v 184.2916 q 0,2.8223 -1.9756,4.7978 -1.6933,1.6933 -4.7978,1.6933 h -14.3934 q -2.8222,0 -4.7977,-1.6933 -1.6934,-1.9755 -1.6934,-4.7978 v -80.998 h -97.0847 v 80.998 q 0,2.8223 -1.9756,4.7978 -1.6933,1.6933 -4.7977,1.6933 z"
   id="text121"
   style="font-size:282.223px;font-family:Rubik;-inkscape-font-specification:'Rubik, @wght=400';font-variation-settings:'wght' 400;dominant-baseline:middle;text-anchor:middle;fill:#ffffff"
   aria-label="BOTH" />
        <path
   d="m 2967.3913,2703.0691 q -3.1045,0 -4.7978,-1.6933 -1.6934,-1.9756 -1.6934,-4.7978 v -184.5738 q 0,-2.8223 1.6934,-4.5156 1.6933,-1.9756 4.7978,-1.9756 h 14.9578 q 2.8222,0 4.5155,1.9756 1.6934,1.6933 1.6934,4.5156 v 166.5115 h 93.9802 q 3.1045,0 4.7978,1.9756 1.6934,1.6933 1.6934,4.7978 v 11.2889 q 0,2.8222 -1.6934,4.7978 -1.6933,1.6933 -4.7978,1.6933 z m 220.3455,2.8223 q -23.989,0 -41.2046,-8.1845 -17.2156,-8.4667 -26.529,-25.6823 -9.3133,-17.4978 -10.4422,-43.7446 -0.2822,-12.4178 -0.2822,-23.7067 0,-11.5711 0.2822,-23.9889 1.1289,-25.9646 10.7245,-43.1802 9.8778,-17.4978 27.0934,-25.9645 17.4978,-8.7489 40.3579,-8.7489 23.1422,0 40.3578,8.7489 17.4979,8.4667 27.3757,25.9645 9.8778,17.2156 10.7244,43.1802 0.5645,12.4178 0.5645,23.9889 0,11.2889 -0.5645,23.7067 -0.8466,26.2468 -10.4422,43.7446 -9.3134,17.2156 -26.529,25.6823 -17.2156,8.1845 -41.4867,8.1845 z m 0,-23.989 q 21.7311,0 35.2778,-12.9822 13.829,-12.9823 14.9578,-42.0513 0.5645,-12.7 0.5645,-22.5778 0,-10.16 -0.5645,-22.5778 -0.5644,-19.4734 -7.3378,-31.609 -6.4911,-12.1356 -17.4978,-17.7801 -11.0067,-5.6444 -25.4,-5.6444 -13.829,0 -24.8357,5.6444 -11.0067,5.6445 -17.78,17.7801 -6.4911,12.1356 -7.3378,31.609 -0.2822,12.4178 -0.2822,22.5778 0,9.8778 0.2822,22.5778 1.1289,29.069 14.9578,42.0513 13.8289,12.9822 34.9957,12.9822 z m 191.0649,23.989 q -23.9889,0 -41.2045,-8.1845 -17.2156,-8.4667 -26.529,-25.6823 -9.3134,-17.4978 -10.4422,-43.7446 -0.2823,-12.4178 -0.2823,-23.7067 0,-11.5711 0.2823,-23.9889 1.1288,-25.9646 10.7244,-43.1802 9.8778,-17.4978 27.0934,-25.9645 17.4979,-8.7489 40.3579,-8.7489 23.1423,0 40.3579,8.7489 17.4978,8.4667 27.3756,25.9645 9.8778,17.2156 10.7245,43.1802 0.5645,12.4178 0.5645,23.9889 0,11.2889 -0.5645,23.7067 -0.8467,26.2468 -10.4422,43.7446 -9.3134,17.2156 -26.529,25.6823 -17.2156,8.1845 -41.4868,8.1845 z m 0,-23.989 q 21.7312,0 35.2779,-12.9822 13.8289,-12.9823 14.9578,-42.0513 0.5645,-12.7 0.5645,-22.5778 0,-10.16 -0.5645,-22.5778 -0.5644,-19.4734 -7.3378,-31.609 -6.4911,-12.1356 -17.4978,-17.7801 -11.0067,-5.6444 -25.4001,-5.6444 -13.8289,0 -24.8356,5.6444 -11.0067,5.6445 -17.78,17.7801 -6.4912,12.1356 -7.3378,31.609 -0.2823,12.4178 -0.2823,22.5778 0,9.8778 0.2823,22.5778 1.1288,29.069 14.9578,42.0513 13.8289,12.9822 34.9956,12.9822 z m 126.7182,21.1667 q -3.1045,0 -4.7978,-1.6933 -1.6934,-1.9756 -1.6934,-4.7978 v -184.2916 q 0,-3.1045 1.6934,-4.7978 1.6933,-1.9756 4.7978,-1.9756 h 71.6846 q 20.8845,0 36.1245,6.7734 15.5223,6.7733 23.989,20.3201 8.4667,13.2644 8.4667,33.3023 0,20.0378 -8.4667,33.3023 -8.4667,13.2645 -23.989,20.0378 -15.24,6.7734 -36.1245,6.7734 h -49.9535 v 70.5557 q 0,2.8222 -1.9755,4.7978 -1.6934,1.6933 -4.7978,1.6933 z m 21.4489,-100.7536 h 48.8246 q 20.8845,0 31.3267,-9.3133 10.4423,-9.3134 10.4423,-27.0934 0,-17.4979 -10.16,-27.0934 -10.1601,-9.5956 -31.609,-9.5956 h -48.8246 z"
   id="text122"
   style="font-size:282.223px;font-family:Rubik;-inkscape-font-specification:'Rubik, @wght=400';font-variation-settings:'wght' 400;dominant-baseline:middle;text-anchor:middle;fill:#ffffff"
   aria-label="LOOP" />
        <path
   d="m 835.40659,6738.4414 q -25.96452,0 -43.18012,-9.5956 -16.93338,-9.5955 -25.68229,-26.8111 -8.74892,-17.2157 -9.59559,-40.0757 -0.28222,-11.5712 -0.28222,-24.8356 0,-13.2645 0.28222,-25.4001 0.84667,-22.8601 9.59559,-40.0757 8.74891,-17.2156 25.68229,-26.8112 17.2156,-9.5955 43.18012,-9.5955 19.47338,0 34.14898,5.3622 14.67559,5.3622 24.27117,14.3934 9.87781,9.0311 14.95782,20.32 5.08002,11.0067 5.64446,22.8601 0.28223,2.54 -1.69334,4.2333 -1.69333,1.6934 -4.23334,1.6934 h -15.52226 q -2.54001,0 -4.51557,-1.4111 -1.69334,-1.4112 -2.54001,-5.0801 -4.79779,-22.0134 -18.06227,-30.1978 -12.98226,-8.1845 -32.73787,-8.1845 -22.57784,0 -35.84232,12.9823 -13.26448,12.7 -14.39337,40.9223 -0.84667,23.1423 0,47.4135 1.12889,28.2223 14.39337,41.2045 13.26448,12.7001 35.84232,12.7001 19.75561,0 32.73787,-8.1845 13.26448,-8.1845 18.06227,-30.1979 0.84667,-3.6689 2.54001,-5.08 1.97556,-1.4111 4.51557,-1.4111 h 15.52226 q 2.54001,0 4.23334,1.6933 1.97557,1.6934 1.69334,4.2334 -0.56444,11.8534 -5.64446,23.1423 -5.08001,11.0067 -14.95782,20.0378 -9.59558,9.0311 -24.27117,14.3934 -14.6756,5.3622 -34.14898,5.3622 z m 191.34731,0 q -23.7068,0 -40.92236,-8.4667 -16.93338,-8.4667 -26.24673,-25.6823 -9.03114,-17.4978 -9.03114,-44.8734 v -114.5826 q 0,-3.1044 1.69334,-4.7977 1.69334,-1.9756 4.79779,-1.9756 h 14.39337 q 3.10445,0 4.79779,1.9756 1.97556,1.6933 1.97556,4.7977 v 115.147 q 0,27.6579 12.98226,40.9224 12.98222,13.2644 35.56012,13.2644 22.2956,0 35.2779,-13.2644 13.2644,-13.2645 13.2644,-40.9224 v -115.147 q 0,-3.1044 1.6934,-4.7977 1.9755,-1.9756 4.7978,-1.9756 h 14.6756 q 2.8222,0 4.5155,1.9756 1.9756,1.6933 1.9756,4.7977 v 114.5826 q 0,27.3756 -9.3134,44.8734 -9.0311,17.2156 -25.9645,25.6823 -16.9334,8.4667 -40.9223,8.4667 z m 129.8226,-2.8222 q -3.1044,0 -4.7978,-1.6934 -1.6933,-1.9755 -1.6933,-4.7977 v -184.2917 q 0,-3.1044 1.6933,-4.7977 1.6934,-1.9756 4.7978,-1.9756 h 68.8624 q 31.8912,0 50.518,14.9578 18.6267,14.9578 18.6267,44.309 0,21.7312 -11.0067,35.5601 -10.7245,13.5467 -29.3512,18.909 l 43.4623,75.0713 q 0.8467,1.6933 0.8467,3.1044 0,2.2578 -1.9756,3.9511 -1.6933,1.6934 -3.9511,1.6934 h -13.5467 q -4.7978,0 -7.0556,-2.54 -2.2577,-2.54 -3.9511,-5.08 l -40.9223,-71.6847 h -49.389 v 72.8136 q 0,2.8222 -1.9756,4.7977 -1.6933,1.6934 -4.7978,1.6934 z m 21.1668,-103.2936 h 46.5667 q 21.1668,0 31.609,-8.7489 10.4423,-9.0312 10.4423,-26.529 0,-17.2156 -10.4423,-26.2467 -10.16,-9.0312 -31.609,-9.0312 h -46.5667 z m 209.868,103.2936 q -4.2333,0 -6.7733,-1.9756 -2.2578,-1.9755 -3.6689,-5.3622 l -62.9357,-181.4694 q -0.5645,-1.6933 -0.5645,-3.1044 0,-2.2578 1.6933,-3.9512 1.6934,-1.6933 3.9512,-1.6933 h 14.6756 q 3.3866,0 5.08,1.9756 1.9755,1.6933 2.2578,3.1044 l 55.3157,160.0204 55.3157,-160.0204 q 0.5644,-1.4111 2.2578,-3.1044 1.6933,-1.9756 5.08,-1.9756 h 14.6756 q 2.2578,0 3.9511,1.6933 1.9756,1.6934 1.9756,3.9512 0,1.4111 -0.5645,3.1044 l -63.2179,181.4694 q -1.1289,3.3867 -3.6689,5.3622 -2.2578,1.9756 -6.4912,1.9756 z m 132.645,0 q -3.1045,0 -4.7978,-1.6934 -1.6933,-1.9755 -1.6933,-4.7977 v -184.2917 q 0,-3.1044 1.6933,-4.7977 1.6933,-1.9756 4.7978,-1.9756 h 116.5581 q 3.1044,0 4.7978,1.9756 1.6933,1.6933 1.6933,4.7977 v 10.7245 q 0,3.1045 -1.6933,4.7978 -1.6934,1.6933 -4.7978,1.6933 h -95.9558 v 61.8069 h 89.7469 q 3.1044,0 4.7978,1.9755 1.6933,1.6934 1.6933,4.7978 v 10.4423 q 0,2.8222 -1.6933,4.7978 -1.6934,1.6933 -4.7978,1.6933 h -89.7469 v 64.0646 h 98.2136 q 3.1044,0 4.7978,1.6934 1.6933,1.6933 1.6933,4.7978 v 11.0067 q 0,2.8222 -1.6933,4.7977 -1.6934,1.6934 -4.7978,1.6934 z"
   id="text123"
   style="font-size:282.223px;font-family:Rubik;-inkscape-font-specification:'Rubik, @wght=400';font-variation-settings:'wght' 400;dominant-baseline:middle;text-anchor:middle;fill:#ffffff"
   aria-label="CURVE" />
        <path
   d="m 192.89115,5137.5562 q -3.10446,0 -4.7978,-1.6933 -1.69333,-1.9756 -1.69333,-4.7978 v -184.5739 q 0,-2.8222 1.69333,-4.5155 1.69334,-1.9756 4.7978,-1.9756 h 14.95781 q 2.82223,0 4.51557,1.9756 1.69334,1.6933 1.69334,4.5155 v 166.5116 h 93.98026 q 3.10445,0 4.79779,1.9756 1.69334,1.6933 1.69334,4.7977 v 11.289 q 0,2.8222 -1.69334,4.7978 -1.69334,1.6933 -4.79779,1.6933 z m 158.89146,0 q -3.10445,0 -4.79779,-1.6933 -1.69334,-1.9756 -1.69334,-4.7978 v -184.5739 q 0,-2.8222 1.69334,-4.5155 1.69334,-1.9756 4.79779,-1.9756 h 14.95782 q 2.82223,0 4.51557,1.9756 1.97556,1.6933 1.97556,4.5155 v 184.5739 q 0,2.8222 -1.97556,4.7978 -1.69334,1.6933 -4.51557,1.6933 z m 77.04707,0 q -3.10445,0 -4.79779,-1.6933 -1.69334,-1.9756 -1.69334,-4.7978 v -184.2916 q 0,-3.1045 1.69334,-4.7978 1.69334,-1.9756 4.79779,-1.9756 h 12.98226 q 3.38668,0 5.08001,1.6933 1.69334,1.4112 1.97557,2.2578 l 93.69803,143.9338 v -141.1115 q 0,-3.1045 1.69334,-4.7978 1.69333,-1.9756 4.79779,-1.9756 h 13.5467 q 3.10445,0 4.79779,1.9756 1.97556,1.6933 1.97556,4.7978 v 184.0093 q 0,2.8223 -1.97556,4.7978 -1.69334,1.9756 -4.51557,1.9756 h -13.5467 q -3.10445,0 -4.79779,-1.6933 -1.41112,-1.6934 -1.97556,-2.2578 l -93.41581,-142.5226 v 139.9826 q 0,2.8222 -1.97556,4.7978 -1.69334,1.6933 -4.79779,1.6933 z"
   id="text124"
   style="font-size:282.223px;font-family:Rubik;-inkscape-font-specification:'Rubik, @wght=400';font-variation-settings:'wght' 400;dominant-baseline:middle;text-anchor:middle;fill:#ffffff"
   aria-label="LIN" />
        
        
        
        
        
        
        
        
        
        
        
        
        <path
   d="m 726.92449,10414.509 q -3.10446,0 -4.7978,-1.694 -1.69333,-1.975 -1.69333,-4.797 v -184.292 q 0,-3.104 1.69333,-4.798 1.69334,-1.975 4.7978,-1.975 h 116.55809 q 3.10445,0 4.79779,1.975 1.69334,1.694 1.69334,4.798 v 10.725 q 0,3.104 -1.69334,4.797 -1.69334,1.694 -4.79779,1.694 h -95.95582 v 61.807 h 89.74692 q 3.10445,0 4.79779,1.975 1.69333,1.693 1.69333,4.798 v 10.442 q 0,2.822 -1.69333,4.798 -1.69334,1.693 -4.79779,1.693 h -89.74692 v 64.065 h 98.21361 q 3.10445,0 4.79779,1.693 1.69333,1.694 1.69333,4.798 v 11.007 q 0,2.822 -1.69333,4.797 -1.69334,1.694 -4.79779,1.694 z m 219.37565,2.822 q -21.44895,0 -35.84232,-8.184 -14.39338,-8.185 -22.0134,-22.578 -7.62002,-14.676 -8.46669,-33.303 -0.28222,-4.797 -0.28222,-12.135 0,-7.62 0.28222,-12.136 0.84667,-18.909 8.46669,-33.302 7.90225,-14.393 22.29562,-22.578 14.39337,-8.184 35.5601,-8.184 21.16672,0 35.56009,8.184 14.39337,8.185 22.01337,22.578 7.9023,14.393 8.7489,33.302 0.2823,4.516 0.2823,12.136 0,7.338 -0.2823,12.135 -0.8466,18.627 -8.4667,33.303 -7.61997,14.393 -22.01334,22.578 -14.39338,8.184 -35.84232,8.184 z m 0,-21.731 q 17.49782,0 27.94007,-11.007 10.44225,-11.289 11.28892,-32.738 0.28222,-4.233 0.28222,-10.724 0,-6.491 -0.28222,-10.725 -0.84667,-21.449 -11.28892,-32.455 -10.44225,-11.289 -27.94007,-11.289 -17.49783,0 -28.2223,11.289 -10.44225,11.006 -11.0067,32.455 -0.28222,4.234 -0.28222,10.725 0,6.491 0.28222,10.724 0.56445,21.449 11.0067,32.738 10.72447,11.007 28.2223,11.007 z m 112.04236,18.909 q -3.1044,0 -4.7978,-1.694 -1.6933,-1.975 -1.6933,-4.797 v -184.292 q 0,-3.104 1.6933,-4.798 1.6934,-1.975 4.7978,-1.975 h 68.8624 q 31.8912,0 50.5179,14.958 18.6268,14.957 18.6268,44.309 0,21.731 -11.0067,35.56 -10.7245,13.546 -29.3512,18.909 l 43.4623,75.071 q 0.8467,1.693 0.8467,3.104 0,2.258 -1.9756,3.951 -1.6933,1.694 -3.9511,1.694 h -13.5467 q -4.7978,0 -7.0556,-2.54 -2.2578,-2.54 -3.9511,-5.08 l -40.9223,-71.685 h -49.3891 v 72.814 q 0,2.822 -1.9755,4.797 -1.6934,1.694 -4.7978,1.694 z m 21.1667,-103.294 h 46.5668 q 21.1668,0 31.609,-8.749 10.4423,-9.031 10.4423,-26.529 0,-17.215 -10.4423,-26.246 -10.16,-9.032 -31.609,-9.032 h -46.5668 z"
   id="text125"
   style="font-size:282.223px;font-family:Rubik;-inkscape-font-specification:'Rubik, @wght=400';font-variation-settings:'wght' 400;dominant-baseline:middle;text-anchor:middle;fill:#ffffff"
   aria-label="EoR" />
        <path
   d="m 2431.4912,10417.378 q -3.1045,0 -4.7978,-1.693 -1.6933,-1.976 -1.6933,-4.798 v -184.292 q 0,-3.104 1.6933,-4.798 1.6933,-1.975 4.7978,-1.975 h 116.5581 q 3.1044,0 4.7978,1.975 1.6933,1.694 1.6933,4.798 v 10.725 q 0,3.104 -1.6933,4.797 -1.6934,1.694 -4.7978,1.694 h -95.9558 v 61.807 h 89.7469 q 3.1044,0 4.7978,1.975 1.6933,1.694 1.6933,4.798 v 10.442 q 0,2.823 -1.6933,4.798 -1.6934,1.693 -4.7978,1.693 h -89.7469 v 64.065 h 98.2136 q 3.1044,0 4.7978,1.693 1.6933,1.694 1.6933,4.798 v 11.007 q 0,2.822 -1.6933,4.798 -1.6934,1.693 -4.7978,1.693 z m 219.3757,2.822 q -21.449,0 -35.8424,-8.184 -14.3933,-8.185 -22.0134,-22.578 -7.62,-14.676 -8.4667,-33.302 -0.2822,-4.798 -0.2822,-12.136 0,-7.62 0.2822,-12.136 0.8467,-18.909 8.4667,-33.302 7.9023,-14.393 22.2957,-22.578 14.3933,-8.184 35.5601,-8.184 21.1667,0 35.56,8.184 14.3934,8.185 22.0134,22.578 7.9023,14.393 8.749,33.302 0.2822,4.516 0.2822,12.136 0,7.338 -0.2822,12.136 -0.8467,18.626 -8.4667,33.302 -7.6201,14.393 -22.0134,22.578 -14.3934,8.184 -35.8423,8.184 z m 0,-21.731 q 17.4978,0 27.94,-11.007 10.4423,-11.289 11.2889,-32.738 0.2823,-4.233 0.2823,-10.724 0,-6.491 -0.2823,-10.724 -0.8466,-21.449 -11.2889,-32.456 -10.4422,-11.289 -27.94,-11.289 -17.4979,0 -28.2223,11.289 -10.4423,11.007 -11.0067,32.456 -0.2823,4.233 -0.2823,10.724 0,6.491 0.2823,10.724 0.5644,21.449 11.0067,32.738 10.7244,11.007 28.2223,11.007 z m 176.6714,21.731 q -25.9645,0 -43.1801,-9.595 -16.9334,-9.596 -25.6823,-26.812 -8.7489,-17.215 -9.5956,-40.075 -0.2822,-11.571 -0.2822,-24.836 0,-13.264 0.2822,-25.4 0.8467,-22.86 9.5956,-40.076 8.7489,-17.215 25.6823,-26.811 17.2156,-9.595 43.1801,-9.595 19.4734,0 34.149,5.362 14.6756,5.362 24.2712,14.393 9.8778,9.031 14.9578,20.32 5.08,11.007 5.6444,22.86 0.2823,2.54 -1.6933,4.234 -1.6933,1.693 -4.2333,1.693 h -15.5223 q -2.54,0 -4.5156,-1.411 -1.6933,-1.411 -2.54,-5.08 -4.7978,-22.013 -18.0623,-30.198 -12.9822,-8.184 -32.7378,-8.184 -22.5779,0 -35.8423,12.982 -13.2645,12.7 -14.3934,40.922 -0.8467,23.142 0,47.414 1.1289,28.222 14.3934,41.204 13.2644,12.7 35.8423,12.7 19.7556,0 32.7378,-8.184 13.2645,-8.185 18.0623,-30.198 0.8467,-3.669 2.54,-5.08 1.9756,-1.411 4.5156,-1.411 h 15.5223 q 2.54,0 4.2333,1.693 1.9756,1.693 1.6933,4.233 -0.5644,11.854 -5.6444,23.143 -5.08,11.006 -14.9578,20.038 -9.5956,9.031 -24.2712,14.393 -14.6756,5.362 -34.149,5.362 z"
   id="text126"
   style="font-size:282.223px;font-family:Rubik;-inkscape-font-specification:'Rubik, @wght=400';font-variation-settings:'wght' 400;dominant-baseline:middle;text-anchor:middle;fill:#ffffff"
   aria-label="EoC" />
        
        
        
        
        
        
        
        <path
   d="m 694.65812,11818.134 q -23.98896,0 -41.20456,-8.185 -17.2156,-8.466 -26.52896,-25.682 -9.31336,-17.498 -10.44225,-43.745 -0.28223,-12.417 -0.28223,-23.706 0,-11.571 0.28223,-23.989 1.12889,-25.965 10.72447,-43.18 9.87781,-17.498 27.09341,-25.965 17.49782,-8.749 40.35789,-8.749 23.14228,0 40.35788,8.749 17.49783,8.467 27.37563,25.965 9.87781,17.215 10.72448,43.18 0.56444,12.418 0.56444,23.989 0,11.289 -0.56444,23.706 -0.84667,26.247 -10.44225,43.745 -9.31336,17.216 -26.52896,25.682 -17.21561,8.185 -41.48678,8.185 z m 0,-23.989 q 21.73117,0 35.27787,-12.982 13.82893,-12.983 14.95782,-42.052 0.56444,-12.7 0.56444,-22.577 0,-10.161 -0.56444,-22.578 -0.56445,-19.474 -7.3378,-31.609 -6.49113,-12.136 -17.49782,-17.78 -11.0067,-5.645 -25.40007,-5.645 -13.82893,0 -24.83563,5.645 -11.00669,5.644 -17.78005,17.78 -6.49112,12.135 -7.33779,31.609 -0.28223,12.417 -0.28223,22.578 0,9.877 0.28223,22.577 1.12889,29.069 14.95781,42.052 13.82893,12.982 34.99566,12.982 z m 194.73387,23.989 q -23.70673,0 -40.92234,-8.467 -16.93338,-8.467 -26.24674,-25.682 -9.03113,-17.498 -9.03113,-44.874 v -114.582 q 0,-3.105 1.69334,-4.798 1.69333,-1.976 4.79779,-1.976 h 14.39337 q 3.10445,0 4.79779,1.976 1.97556,1.693 1.97556,4.798 v 115.147 q 0,27.658 12.98226,40.922 12.98226,13.265 35.5601,13.265 22.29561,0 35.27787,-13.265 13.26448,-13.264 13.26448,-40.922 v -115.147 q 0,-3.105 1.69334,-4.798 1.97556,-1.976 4.79779,-1.976 h 14.6756 q 2.82223,0 4.51556,1.976 1.97556,1.693 1.97556,4.798 v 114.582 q 0,27.376 -9.31335,44.874 -9.03114,17.215 -25.96452,25.682 -16.93338,8.467 -40.92233,8.467 z m 173.00271,-2.822 q -2.8222,0 -4.7977,-1.694 -1.6934,-1.975 -1.6934,-4.798 v -165.947 h -54.1868 q -2.82223,0 -4.79779,-1.693 -1.69334,-1.976 -1.69334,-4.798 v -11.853 q 0,-3.105 1.69334,-4.798 1.97556,-1.976 4.79779,-1.976 h 136.0315 q 3.1044,0 4.7978,1.976 1.9755,1.693 1.9755,4.798 v 11.853 q 0,2.822 -1.9755,4.798 -1.6934,1.693 -4.7978,1.693 h -53.9046 v 165.947 q 0,2.823 -1.9756,4.798 -1.6933,1.694 -4.7978,1.694 z m 171.874,-9.314 q -2.8222,0 -4.7978,-1.693 -1.6933,-1.976 -1.6933,-4.798 v -58.702 h -57.8558 q -2.8222,0 -4.7977,-1.694 -1.6934,-1.975 -1.6934,-4.797 v -9.032 q 0,-2.822 1.6934,-4.515 1.9755,-1.976 4.7977,-1.976 h 57.8558 v -57.009 q 0,-2.822 1.6933,-4.515 1.9756,-1.976 4.7978,-1.976 h 9.8778 q 2.8222,0 4.5156,1.976 1.9755,1.693 1.9755,4.515 v 57.009 h 58.138 q 2.8222,0 4.5155,1.976 1.9756,1.693 1.9756,4.515 v 9.032 q 0,2.822 -1.9756,4.797 -1.6933,1.694 -4.5155,1.694 h -58.138 v 58.702 q 0,2.822 -1.9755,4.798 -1.6934,1.693 -4.5156,1.693 z"
   id="text127"
   style="font-size:282.223px;font-family:Rubik;-inkscape-font-specification:'Rubik, @wght=400';font-variation-settings:'wght' 400;dominant-baseline:middle;text-anchor:middle;fill:#ffffff"
   aria-label="OUT+" /><path
   d="m 2420.6581,11818.101 q -23.9889,0 -41.2045,-8.185 -17.2156,-8.467 -26.529,-25.682 -9.3133,-17.498 -10.4422,-43.745 -0.2823,-12.418 -0.2823,-23.706 0,-11.572 0.2823,-23.989 1.1289,-25.965 10.7244,-43.181 9.8778,-17.497 27.0934,-25.964 17.4979,-8.749 40.3579,-8.749 23.1423,0 40.3579,8.749 17.4978,8.467 27.3756,25.964 9.8779,17.216 10.7245,43.181 0.5645,12.417 0.5645,23.989 0,11.288 -0.5645,23.706 -0.8466,26.247 -10.4422,43.745 -9.3134,17.215 -26.529,25.682 -17.2156,8.185 -41.4868,8.185 z m 0,-23.989 q 21.7312,0 35.2779,-12.983 13.8289,-12.982 14.9578,-42.051 0.5645,-12.7 0.5645,-22.578 0,-10.16 -0.5645,-22.578 -0.5644,-19.473 -7.3378,-31.608 -6.4911,-12.136 -17.4978,-17.781 -11.0067,-5.644 -25.4001,-5.644 -13.8289,0 -24.8356,5.644 -11.0067,5.645 -17.78,17.781 -6.4912,12.135 -7.3378,31.608 -0.2823,12.418 -0.2823,22.578 0,9.878 0.2823,22.578 1.1289,29.069 14.9578,42.051 13.8289,12.983 34.9956,12.983 z m 194.7339,23.989 q -23.7067,0 -40.9223,-8.467 -16.9334,-8.467 -26.2468,-25.682 -9.0311,-17.498 -9.0311,-44.874 v -114.582 q 0,-3.105 1.6933,-4.798 1.6934,-1.976 4.7978,-1.976 h 14.3934 q 3.1044,0 4.7978,1.976 1.9755,1.693 1.9755,4.798 v 115.147 q 0,27.657 12.9823,40.922 12.9823,13.264 35.5601,13.264 22.2956,0 35.2779,-13.264 13.2645,-13.265 13.2645,-40.922 v -115.147 q 0,-3.105 1.6933,-4.798 1.9756,-1.976 4.7978,-1.976 h 14.6756 q 2.8222,0 4.5155,1.976 1.9756,1.693 1.9756,4.798 v 114.582 q 0,27.376 -9.3134,44.874 -9.0311,17.215 -25.9645,25.682 -16.9333,8.467 -40.9223,8.467 z m 173.0028,-2.823 q -2.8223,0 -4.7978,-1.693 -1.6934,-1.976 -1.6934,-4.798 v -165.947 h -54.1868 q -2.8222,0 -4.7978,-1.693 -1.6933,-1.976 -1.6933,-4.798 v -11.853 q 0,-3.105 1.6933,-4.798 1.9756,-1.976 4.7978,-1.976 h 136.0315 q 3.1044,0 4.7978,1.976 1.9755,1.693 1.9755,4.798 v 11.853 q 0,2.822 -1.9755,4.798 -1.6934,1.693 -4.7978,1.693 h -53.9046 v 165.947 q 0,2.822 -1.9756,4.798 -1.6933,1.693 -4.7977,1.693 z m 97.1022,-72.813 q -2.8222,0 -4.7978,-1.694 -1.6933,-1.975 -1.6933,-4.797 v -10.725 q 0,-2.822 1.6933,-4.515 1.9756,-1.976 4.7978,-1.976 h 84.6669 q 2.8222,0 4.5156,1.976 1.9755,1.693 1.9755,4.515 v 10.725 q 0,2.822 -1.9755,4.797 -1.6934,1.694 -4.5156,1.694 z"
   id="text128"
   style="font-size:282.223px;font-family:Rubik;-inkscape-font-specification:'Rubik, @wght=400';font-variation-settings:'wght' 400;dominant-baseline:middle;text-anchor:middle;fill:#ffffff"
   aria-label="OUT-" />
        
        <path
   d="m 955.48803,916.79438 q -14.39335,0 -23.7067,-3.81001 -9.10168,-3.81001 -14.39336,-9.31335 -5.08001,-5.29167 -7.40834,-10.79502 -2.11667,-5.29167 -2.32834,-8.46668 -0.21167,-2.11667 1.27,-3.59834 1.69334,-1.48166 3.59834,-1.48166 h 10.16002 q 1.905,0 3.175,0.84666 1.27,0.84667 2.11667,3.59834 1.27,3.17501 3.81001,6.98501 2.54,4.02168 7.83168,6.77335 5.29167,2.96334 14.81669,2.96334 9.94835,0 16.72169,-2.75167 6.77334,-2.54001 10.16002,-9.31335 3.59834,-6.56168 3.59834,-18.20337 v -14.39335 q -5.08001,6.56168 -13.33503,11.00668 -8.25501,4.23334 -20.74336,4.23334 -11.85335,0 -20.32004,-4.02167 -8.46668,-4.23334 -13.97002,-11.21835 -5.29167,-7.19668 -8.04334,-16.29836 -2.54001,-9.10168 -2.96334,-19.05003 -0.21167,-5.92668 0,-11.64169 0.42333,-9.94835 2.96334,-19.05003 2.75167,-9.10168 8.04334,-16.29836 5.50334,-7.19668 13.97002,-11.21835 8.46669,-4.23334 20.32004,-4.23334 12.70002,0 20.95503,4.86834 8.46668,4.65668 13.75836,11.43002 v -9.10168 q 0,-2.11667 1.27,-3.59834 1.48167,-1.48167 3.59834,-1.48167 h 9.73671 q 2.1166,0 3.5983,1.48167 1.4817,1.48167 1.4817,3.59834 v 102.6585 q 0,14.18169 -4.8684,25.18837 -4.65664,11.00669 -15.66332,17.3567 -10.79502,6.35001 -29.21005,6.35001 z m -0.42333,-62.65344 q 10.58335,0 16.93336,-4.86834 6.56168,-4.86834 9.52501,-12.27669 3.17501,-7.40834 3.38668,-15.02835 0.21166,-2.96334 0.21166,-7.19668 0,-4.44501 -0.21166,-7.40835 -0.21167,-7.62001 -3.38668,-15.02835 -2.96333,-7.40835 -9.52501,-12.27669 -6.35001,-4.86834 -16.93336,-4.86834 -10.58335,0 -16.93336,4.86834 -6.35001,4.65667 -9.10168,12.48835 -2.75168,7.62001 -3.17501,16.51003 -0.21167,5.50334 0,11.21835 0.42333,8.89001 3.17501,16.72169 2.75167,7.62002 9.10168,12.48836 6.35001,4.65667 16.93336,4.65667 z m 125.5186,18.20336 q -21.8017,0 -34.7134,-13.33502 -12.9117,-13.54669 -14.1817,-36.83006 -0.2117,-2.75167 -0.2117,-6.98501 0,-4.445 0.2117,-7.19668 0.8466,-15.02835 6.985,-26.2467 6.1383,-11.43002 16.7217,-17.56837 10.795,-6.13834 25.1884,-6.13834 16.0866,0 26.8817,6.77334 11.0067,6.77335 16.7217,19.2617 5.715,12.48836 5.715,29.21005 v 3.59834 q 0,2.32834 -1.4817,3.59834 -1.27,1.27 -3.3867,1.27 h -73.2368 q 0,0.21167 0,0.84667 0,0.635 0,1.05833 0.4234,8.67835 3.81,16.29836 3.3867,7.40835 9.7367,12.06502 6.35,4.65668 15.2401,4.65668 7.62,0 12.7,-2.32834 5.08,-2.32834 8.255,-5.08001 3.175,-2.96334 4.2333,-4.44501 1.905,-2.75167 2.9634,-3.175 1.0583,-0.635 3.3866,-0.635 h 10.1601 q 2.1166,0 3.3866,1.27 1.4817,1.05833 1.27,3.175 -0.2116,3.17501 -3.3866,7.83168 -3.175,4.44501 -9.1017,8.89002 -5.9267,4.44501 -14.3934,7.40834 -8.4667,2.75167 -19.4733,2.75167 z m -28.7868,-65.19343 h 57.9968 v -0.635 q 0,-9.52502 -3.5983,-16.93337 -3.3867,-7.40834 -9.9484,-11.64168 -6.5617,-4.44501 -15.6633,-4.44501 -9.1017,0 -15.6634,4.44501 -6.35,4.23334 -9.7367,11.64168 -3.3867,7.40835 -3.3867,16.93337 z m 108.3734,63.07676 q -2.1166,0 -3.5983,-1.27 -1.27,-1.48167 -1.27,-3.59834 V 765.02913 q 0,-2.11667 1.27,-3.38667 1.4817,-1.48167 3.5983,-1.48167 h 9.9484 q 2.1167,0 3.3867,1.48167 1.4816,1.27 1.4816,3.38667 v 9.31335 q 5.5034,-7.19668 13.7584,-11.64169 8.4667,-4.65667 21.59,-4.65667 13.7584,0 23.2834,6.13834 9.7367,5.92668 14.605,16.7217 4.8684,10.58335 4.8684,24.76504 v 59.69009 q 0,2.11667 -1.27,3.59834 -1.2701,1.27 -3.3867,1.27 h -10.5834 q -2.1166,0 -3.5983,-1.27 -1.27,-1.48167 -1.27,-3.59834 v -58.63176 q 0,-14.81669 -7.1967,-23.0717 -7.1967,-8.46668 -21.1667,-8.46668 -13.1233,0 -21.1667,8.46668 -7.8317,8.25501 -7.8317,23.0717 v 58.63176 q 0,2.11667 -1.4816,3.59834 -1.27,1.27 -3.3867,1.27 z m 167.2172,2.11667 q -21.8017,0 -34.7134,-13.33502 -12.9117,-13.54669 -14.1817,-36.83006 -0.2117,-2.75167 -0.2117,-6.98501 0,-4.445 0.2117,-7.19668 0.8467,-15.02835 6.985,-26.2467 6.1383,-11.43002 16.7217,-17.56837 10.795,-6.13834 25.1884,-6.13834 16.0867,0 26.8817,6.77334 11.0067,6.77335 16.7217,19.2617 5.715,12.48836 5.715,29.21005 v 3.59834 q 0,2.32834 -1.4817,3.59834 -1.27,1.27 -3.3867,1.27 h -73.2367 q 0,0.21167 0,0.84667 0,0.635 0,1.05833 0.4233,8.67835 3.81,16.29836 3.3866,7.40835 9.7366,12.06502 6.3501,4.65668 15.2401,4.65668 7.62,0 12.7,-2.32834 5.08,-2.32834 8.255,-5.08001 3.175,-2.96334 4.2333,-4.44501 1.905,-2.75167 2.9634,-3.175 1.0583,-0.635 3.3867,-0.635 h 10.16 q 2.1166,0 3.3866,1.27 1.4817,1.05833 1.27,3.175 -0.2116,3.17501 -3.3866,7.83168 -3.175,4.44501 -9.1017,8.89002 -5.9267,4.44501 -14.3934,7.40834 -8.4666,2.75167 -19.4733,2.75167 z m -28.7867,-65.19343 h 57.9967 v -0.635 q 0,-9.52502 -3.5983,-16.93337 -3.3867,-7.40834 -9.9484,-11.64168 -6.5617,-4.44501 -15.6633,-4.44501 -9.1017,0 -15.6634,4.44501 -6.35,4.23334 -9.7367,11.64168 -3.3866,7.40835 -3.3866,16.93337 z m 108.3734,63.07676 q -2.1167,0 -3.5984,-1.27 -1.27,-1.48167 -1.27,-3.59834 V 765.2408 q 0,-2.11667 1.27,-3.59834 1.4817,-1.48167 3.5984,-1.48167 h 9.7366 q 2.1167,0 3.5984,1.48167 1.4816,1.48167 1.4816,3.59834 v 9.31335 q 4.2334,-7.19668 11.6417,-10.79502 7.4084,-3.59834 17.7801,-3.59834 h 8.4666 q 2.1167,0 3.3867,1.48167 1.27,1.27 1.27,3.38667 v 8.67835 q 0,2.11667 -1.27,3.38667 -1.27,1.27 -3.3867,1.27 h -12.7 q -11.43,0 -17.9917,6.77335 -6.5617,6.56167 -6.5617,17.99169 v 62.2301 q 0,2.11667 -1.4816,3.59834 -1.4817,1.27 -3.5984,1.27 z m 104.5238,2.11667 q -10.5833,0 -19.2617,-4.23334 -8.6783,-4.23334 -13.97,-11.43001 -5.2917,-7.19668 -5.2917,-16.29836 0,-14.60503 11.8534,-23.28337 11.8533,-8.67835 30.9034,-11.43002 l 31.5384,-4.44501 v -6.13834 q 0,-10.16002 -5.9267,-15.87503 -5.715,-5.71501 -18.8384,-5.71501 -9.525,0 -15.4517,3.81001 -5.715,3.81 -8.0433,9.73668 -1.27,3.17501 -4.445,3.17501 h -9.525 q -2.3284,0 -3.5984,-1.27001 -1.0583,-1.48167 -1.0583,-3.38667 0,-3.175 2.3283,-7.83168 2.54,-4.65667 7.62,-9.10168 5.08,-4.44501 12.9117,-7.40834 8.0434,-3.17501 19.4734,-3.17501 12.7,0 21.3783,3.38667 8.6784,3.17501 13.5467,8.67835 5.08,5.50334 7.1967,12.48835 2.3284,6.98501 2.3284,14.18169 v 68.58011 q 0,2.11667 -1.4817,3.59834 -1.27,1.27 -3.3867,1.27 h -9.7367 q -2.3283,0 -3.5983,-1.27 -1.27,-1.48167 -1.27,-3.59834 v -9.10168 q -2.7517,3.81001 -7.4084,7.62001 -4.6566,3.59834 -11.6416,6.13835 -6.9851,2.32833 -17.1451,2.32833 z m 4.445,-15.87502 q 8.6784,0 15.8751,-3.59834 7.1966,-3.81001 11.2183,-11.64169 4.2334,-7.83167 4.2334,-19.68503 v -5.92667 l -24.5534,3.59834 q -15.0284,2.11667 -22.6484,7.19667 -7.62,4.86835 -7.62,12.48836 0,5.92667 3.3867,9.94835 3.5983,3.81 8.89,5.71501 5.5033,1.905 11.2183,1.905 z m 123.6533,13.75835 q -11.8533,0 -19.2617,-4.445 -7.4083,-4.65668 -10.795,-12.91169 -3.3867,-8.46668 -3.3867,-19.8967 v -55.88009 h -16.51 q -2.1167,0 -3.5983,-1.27 -1.27,-1.48167 -1.27,-3.59834 v -7.19668 q 0,-2.11667 1.27,-3.38667 1.4816,-1.48167 3.5983,-1.48167 h 16.51 V 724.8124 q 0,-2.11667 1.27,-3.38667 1.4817,-1.48167 3.5984,-1.48167 h 9.9483 q 2.1167,0 3.3867,1.48167 1.4817,1.27 1.4817,3.38667 v 35.34839 h 26.2467 q 2.1166,0 3.3866,1.48167 1.4817,1.27 1.4817,3.38667 v 7.19668 q 0,2.11667 -1.4817,3.59834 -1.27,1.27 -3.3866,1.27 h -26.2467 v 54.39842 q 0,9.94835 3.3866,15.66336 3.3867,5.71501 12.065,5.71501 h 12.9117 q 2.1167,0 3.3867,1.48167 1.4817,1.27 1.4817,3.38667 v 7.62001 q 0,2.11667 -1.4817,3.59834 -1.27,1.27 -3.3867,1.27 z m 84.8786,2.11667 q -16.0866,0 -26.8817,-6.13834 -10.795,-6.13834 -16.51,-16.93336 -5.715,-11.00668 -6.35,-24.97671 -0.2117,-3.59834 -0.2117,-9.10168 0,-5.71501 0.2117,-9.10168 0.635,-14.18169 6.35,-24.97671 5.9267,-10.79501 16.7217,-16.93336 10.795,-6.13834 26.67,-6.13834 15.8751,0 26.6701,6.13834 10.795,6.13835 16.51,16.93336 5.9267,10.79502 6.5617,24.97671 0.2117,3.38667 0.2117,9.10168 0,5.50334 -0.2117,9.10168 -0.635,13.97003 -6.35,24.97671 -5.715,10.79502 -16.51,16.93336 -10.7951,6.13834 -26.8818,6.13834 z m 0,-16.29836 q 13.1234,0 20.9551,-8.25501 7.8317,-8.46668 8.4667,-24.55337 0.2116,-3.17501 0.2116,-8.04335 0,-4.86834 -0.2116,-8.04334 -0.635,-16.0867 -8.4667,-24.34171 -7.8317,-8.46668 -20.9551,-8.46668 -13.1233,0 -21.1667,8.46668 -7.8316,8.25501 -8.255,24.34171 -0.2116,3.175 -0.2116,8.04334 0,4.86834 0.2116,8.04335 0.4234,16.08669 8.255,24.55337 8.0434,8.25501 21.1667,8.25501 z m 81.2801,14.18169 q -2.1167,0 -3.5984,-1.27 -1.27,-1.48167 -1.27,-3.59834 V 765.2408 q 0,-2.11667 1.27,-3.59834 1.4817,-1.48167 3.5984,-1.48167 h 9.7367 q 2.1166,0 3.5983,1.48167 1.4817,1.48167 1.4817,3.59834 v 9.31335 q 4.2333,-7.19668 11.6417,-10.79502 7.4083,-3.59834 17.78,-3.59834 h 8.4667 q 2.1166,0 3.3866,1.48167 1.27,1.27 1.27,3.38667 v 8.67835 q 0,2.11667 -1.27,3.38667 -1.27,1.27 -3.3866,1.27 h -12.7001 q -11.43,0 -17.9917,6.77335 -6.5616,6.56167 -6.5616,17.99169 v 62.2301 q 0,2.11667 -1.4817,3.59834 -1.4817,1.27 -3.5983,1.27 z m 147.3862,-42.75673 q -6.1383,0 -11.43,-2.96334 -5.2917,-3.175 -8.4667,-8.25501 -2.9633,-5.29168 -2.9633,-11.43002 0,-6.35001 2.9633,-11.43002 3.175,-5.29167 8.4667,-8.25501 5.2917,-3.17501 11.43,-3.17501 6.35,0 11.4301,3.17501 5.08,2.96334 8.0433,8.25501 3.175,5.08001 3.175,11.43002 0,6.13834 -3.175,11.43002 -2.9633,5.08001 -8.0433,8.25501 -5.0801,2.96334 -11.4301,2.96334 z m 146.0505,44.8734 q -11.8534,0 -20.3201,-2.96333 -8.4667,-2.96334 -13.7583,-7.19668 -5.2917,-4.23334 -8.0434,-8.46668 -2.54,-4.23334 -2.7517,-6.77335 -0.2116,-2.32833 1.4817,-3.59834 1.6934,-1.27 3.3867,-1.27 h 9.3133 q 1.27,0 1.905,0.42334 0.8467,0.21166 2.1167,1.69333 2.7517,2.96334 6.1384,5.92668 3.3866,2.96334 8.255,4.86834 5.08,1.905 12.4883,1.905 10.795,0 17.78,-4.02167 6.9851,-4.23334 6.9851,-12.27669 0,-5.29167 -2.9634,-8.46668 -2.7516,-3.175 -10.16,-5.71501 -7.1967,-2.54 -19.8967,-5.29167 -12.7,-2.96334 -20.1084,-7.19668 -7.4083,-4.44501 -10.5833,-10.37168 -3.175,-6.13835 -3.175,-13.75836 0,-7.83168 4.6567,-15.02836 4.6566,-7.40834 13.5466,-12.06502 9.1017,-4.65667 22.6484,-4.65667 11.0067,0 18.8384,2.75167 7.8317,2.75167 12.9117,6.98501 5.08,4.02168 7.62,8.04335 2.54,4.02167 2.7517,6.77334 0.2116,2.11667 -1.27,3.59834 -1.4817,1.27 -3.3867,1.27 h -8.89 q -1.4817,0 -2.54,-0.635 -0.8467,-0.635 -1.6934,-1.48167 -2.1166,-2.75167 -5.08,-5.50334 -2.7517,-2.75167 -7.4083,-4.445 -4.445,-1.90501 -11.8534,-1.90501 -10.5833,0 -15.875,4.44501 -5.2917,4.44501 -5.2917,11.21835 0,4.02167 2.3284,7.19668 2.3283,3.175 8.89,5.71501 6.5616,2.54 19.4733,5.50334 13.9701,2.75167 22.0134,7.40835 8.0433,4.65667 11.43,10.79501 3.3867,6.13835 3.3867,14.18169 0,8.89002 -5.2917,16.29836 -5.08,7.40835 -15.24,11.85335 -9.9484,4.23334 -24.765,4.23334 z m 74.9301,-2.11667 q -2.1167,0 -3.5983,-1.27 -1.27,-1.48167 -1.27,-3.59834 V 724.8124 q 0,-2.11667 1.27,-3.38667 1.4816,-1.48167 3.5983,-1.48167 h 9.9483 q 2.3284,0 3.5984,1.48167 1.27,1.27 1.27,3.38667 v 140.54689 q 0,2.11667 -1.27,3.59834 -1.27,1.27 -3.5984,1.27 z m 90.1701,2.11667 q -21.8017,0 -34.7134,-13.33502 -12.9117,-13.54669 -14.1817,-36.83006 -0.2116,-2.75167 -0.2116,-6.98501 0,-4.445 0.2116,-7.19668 0.8467,-15.02835 6.985,-26.2467 6.1384,-11.43002 16.7217,-17.56837 10.7951,-6.13834 25.1884,-6.13834 16.0867,0 26.8817,6.77334 11.0067,6.77335 16.7217,19.2617 5.715,12.48836 5.715,29.21005 v 3.59834 q 0,2.32834 -1.4816,3.59834 -1.27,1.27 -3.3867,1.27 h -73.2368 q 0,0.21167 0,0.84667 0,0.635 0,1.05833 0.4233,8.67835 3.81,16.29836 3.3867,7.40835 9.7367,12.06502 6.35,4.65668 15.24,4.65668 7.62,0 12.7,-2.32834 5.08,-2.32834 8.255,-5.08001 3.1751,-2.96334 4.2334,-4.44501 1.905,-2.75167 2.9633,-3.175 1.0584,-0.635 3.3867,-0.635 h 10.16 q 2.1167,0 3.3867,1.27 1.4817,1.05833 1.27,3.175 -0.2117,3.17501 -3.3867,7.83168 -3.175,4.44501 -9.1017,8.89002 -5.9266,4.44501 -14.3933,7.40834 -8.4667,2.75167 -19.4734,2.75167 z m -28.7867,-65.19343 h 57.9968 v -0.635 q 0,-9.52502 -3.5984,-16.93337 -3.3866,-7.40834 -9.9483,-11.64168 -6.5617,-4.44501 -15.6634,-4.44501 -9.1017,0 -15.6633,4.44501 -6.3501,4.23334 -9.7367,11.64168 -3.3867,7.40835 -3.3867,16.93337 z m 129.7647,63.07676 q -2.7517,0 -4.2333,-1.27 -1.4817,-1.48167 -2.54,-4.02167 l -30.0568,-98.21349 q -0.4233,-1.05834 -0.4233,-2.11667 0,-1.90501 1.27,-3.17501 1.4817,-1.27 3.175,-1.27 h 9.3134 q 2.3283,0 3.5983,1.27 1.27,1.27 1.6933,2.32834 l 23.4951,79.79846 25.1883,-78.95179 q 0.4234,-1.48167 1.6934,-2.96334 1.4817,-1.48167 4.2333,-1.48167 h 7.1967 q 2.7517,0 4.2333,1.48167 1.4817,1.48167 1.6934,2.96334 l 25.1884,78.95179 23.495,-79.79846 q 0.2117,-1.05834 1.4817,-2.32834 1.27,-1.27 3.5983,-1.27 h 9.3133 q 1.9051,0 3.1751,1.27 1.27,1.27 1.27,3.17501 0,1.05833 -0.4234,2.11667 l -30.0567,98.21349 q -0.635,2.54 -2.3283,4.02167 -1.4817,1.27 -4.445,1.27 h -8.2551 q -2.7516,0 -4.6566,-1.27 -1.6934,-1.48167 -2.3284,-4.02167 l -24.5533,-75.77679 -24.5534,75.77679 q -0.8467,2.54 -2.54,4.02167 -1.6933,1.27 -4.6567,1.27 z m 192.6966,0 q -2.1166,0 -3.5983,-1.27 -1.27,-1.48167 -1.27,-3.59834 V 724.8124 q 0,-2.11667 1.27,-3.38667 1.4817,-1.48167 3.5983,-1.48167 h 9.9484 q 2.3283,0 3.5983,1.48167 1.27,1.27 1.27,3.38667 v 140.54689 q 0,2.11667 -1.27,3.59834 -1.27,1.27 -3.5983,1.27 z m 51.2234,0 q -2.1167,0 -3.5983,-1.27 -1.27,-1.48167 -1.27,-3.59834 V 765.02913 q 0,-2.11667 1.27,-3.38667 1.4816,-1.48167 3.5983,-1.48167 h 10.16 q 2.1167,0 3.3867,1.48167 1.27,1.27 1.27,3.38667 v 100.33016 q 0,2.11667 -1.27,3.59834 -1.27,1.27 -3.3867,1.27 z m -1.6933,-130.59854 q -2.1167,0 -3.5984,-1.27 -1.27,-1.48167 -1.27,-3.59834 v -11.43002 q 0,-2.11667 1.27,-3.38667 1.4817,-1.48167 3.5984,-1.48167 h 13.335 q 2.1167,0 3.3867,1.48167 1.4816,1.27 1.4816,3.38667 v 11.43002 q 0,2.11667 -1.4816,3.59834 -1.27,1.27 -3.3867,1.27 z m 52.9168,130.59854 q -2.1166,0 -3.5983,-1.27 -1.27,-1.48167 -1.27,-3.59834 V 765.02913 q 0,-2.11667 1.27,-3.38667 1.4817,-1.48167 3.5983,-1.48167 h 9.525 q 2.1167,0 3.3867,1.48167 1.4817,1.27 1.4817,3.38667 v 7.40835 q 4.8683,-6.56168 12.2767,-10.37169 7.4083,-4.02167 17.78,-4.02167 23.9184,-0.21167 33.8667,19.47337 4.8684,-8.89002 14.1817,-14.18169 9.3134,-5.29168 21.1667,-5.29168 11.0067,0 19.8967,5.08001 9.1017,5.08001 14.1817,15.45169 5.2917,10.16002 5.2917,25.61171 v 61.17176 q 0,2.11667 -1.4817,3.59834 -1.27,1.27 -3.3867,1.27 h -9.9483 q -2.1167,0 -3.5984,-1.27 -1.27,-1.48167 -1.27,-3.59834 v -59.26676 q 0,-11.85335 -3.3866,-18.6267 -3.3867,-6.77334 -9.1017,-9.52501 -5.715,-2.75167 -12.4884,-2.75167 -5.5033,0 -11.2183,2.75167 -5.715,2.75167 -9.525,9.52501 -3.5984,6.77335 -3.5984,18.6267 v 59.26676 q 0,2.11667 -1.4816,3.59834 -1.27,1.27 -3.3867,1.27 h -9.9484 q -2.1166,0 -3.5983,-1.27 -1.27,-1.48167 -1.27,-3.59834 v -59.26676 q 0,-11.85335 -3.5983,-18.6267 -3.5984,-6.77334 -9.3134,-9.52501 -5.715,-2.75167 -12.065,-2.75167 -5.5034,0 -11.2184,2.75167 -5.715,2.75167 -9.525,9.52501 -3.5983,6.77335 -3.5983,18.41503 v 59.47843 q 0,2.11667 -1.4817,3.59834 -1.27,1.27 -3.3867,1.27 z m 188.172,0 q -2.1166,0 -3.5983,-1.27 -1.27,-1.48167 -1.27,-3.59834 V 765.02913 q 0,-2.11667 1.27,-3.38667 1.4817,-1.48167 3.5983,-1.48167 h 10.16 q 2.1167,0 3.3867,1.48167 1.27,1.27 1.27,3.38667 v 100.33016 q 0,2.11667 -1.27,3.59834 -1.27,1.27 -3.3867,1.27 z m -1.6933,-130.59854 q -2.1167,0 -3.5984,-1.27 -1.27,-1.48167 -1.27,-3.59834 v -11.43002 q 0,-2.11667 1.27,-3.38667 1.4817,-1.48167 3.5984,-1.48167 h 13.335 q 2.1167,0 3.3867,1.48167 1.4816,1.27 1.4816,3.38667 v 11.43002 q 0,2.11667 -1.4816,3.59834 -1.27,1.27 -3.3867,1.27 z m 91.0169,130.59854 q -11.8534,0 -19.2617,-4.445 -7.4083,-4.65668 -10.795,-12.91169 -3.3867,-8.46668 -3.3867,-19.8967 v -55.88009 h -16.51 q -2.1167,0 -3.5984,-1.27 -1.27,-1.48167 -1.27,-3.59834 v -7.19668 q 0,-2.11667 1.27,-3.38667 1.4817,-1.48167 3.5984,-1.48167 h 16.51 V 724.8124 q 0,-2.11667 1.27,-3.38667 1.4817,-1.48167 3.5983,-1.48167 h 9.9484 q 2.1167,0 3.3867,1.48167 1.4816,1.27 1.4816,3.38667 v 35.34839 h 26.2467 q 2.1167,0 3.3867,1.48167 1.4817,1.27 1.4817,3.38667 v 7.19668 q 0,2.11667 -1.4817,3.59834 -1.27,1.27 -3.3867,1.27 h -26.2467 v 54.39842 q 0,9.94835 3.3867,15.66336 3.3867,5.71501 12.065,5.71501 h 12.9117 q 2.1167,0 3.3867,1.48167 1.4817,1.27 1.4817,3.38667 v 7.62001 q 0,2.11667 -1.4817,3.59834 -1.27,1.27 -3.3867,1.27 z m 83.6087,2.11667 q -21.8017,0 -34.7133,-13.33502 -12.9117,-13.54669 -14.1817,-36.83006 -0.2117,-2.75167 -0.2117,-6.98501 0,-4.445 0.2117,-7.19668 0.8466,-15.02835 6.985,-26.2467 6.1383,-11.43002 16.7217,-17.56837 10.795,-6.13834 25.1883,-6.13834 16.0867,0 26.8818,6.77334 11.0066,6.77335 16.7216,19.2617 5.7151,12.48836 5.7151,29.21005 v 3.59834 q 0,2.32834 -1.4817,3.59834 -1.27,1.27 -3.3867,1.27 h -73.2368 q 0,0.21167 0,0.84667 0,0.635 0,1.05833 0.4234,8.67835 3.81,16.29836 3.3867,7.40835 9.7367,12.06502 6.35,4.65668 15.24,4.65668 7.6201,0 12.7001,-2.32834 5.08,-2.32834 8.255,-5.08001 3.175,-2.96334 4.2333,-4.44501 1.905,-2.75167 2.9634,-3.175 1.0583,-0.635 3.3866,-0.635 h 10.16 q 2.1167,0 3.3867,1.27 1.4817,1.05833 1.27,3.175 -0.2116,3.17501 -3.3867,7.83168 -3.175,4.44501 -9.1016,8.89002 -5.9267,4.44501 -14.3934,7.40834 -8.4667,2.75167 -19.4734,2.75167 z m -28.7867,-65.19343 h 57.9968 v -0.635 q 0,-9.52502 -3.5983,-16.93337 -3.3867,-7.40834 -9.9484,-11.64168 -6.5617,-4.44501 -15.6634,-4.44501 -9.1016,0 -15.6633,4.44501 -6.35,4.23334 -9.7367,11.64168 -3.3867,7.40835 -3.3867,16.93337 z m 108.3732,63.07676 q -2.1167,0 -3.5983,-1.27 -1.27,-1.48167 -1.27,-3.59834 V 765.2408 q 0,-2.11667 1.27,-3.59834 1.4816,-1.48167 3.5983,-1.48167 h 9.7367 q 2.1167,0 3.5983,1.48167 1.4817,1.48167 1.4817,3.59834 v 9.31335 q 4.2334,-7.19668 11.6417,-10.79502 7.4083,-3.59834 17.78,-3.59834 h 8.4667 q 2.1167,0 3.3867,1.48167 1.27,1.27 1.27,3.38667 v 8.67835 q 0,2.11667 -1.27,3.38667 -1.27,1.27 -3.3867,1.27 h -12.7 q -11.43,0 -17.9917,6.77335 -6.5617,6.56167 -6.5617,17.99169 v 62.2301 q 0,2.11667 -1.4817,3.59834 -1.4816,1.27 -3.5983,1.27 z"
   id="text129"
   style="font-size:211.667px;font-family:Rubik;-inkscape-font-specification:'Rubik, @wght=400';font-variation-settings:'wght' 400;dominant-baseline:middle;text-anchor:middle;fill:#ffffff"
   aria-label="generator • slew limiter" />
        
      </g><g
   id="components"
   style="display:none"><ellipse
     style="display:inline;fill:#ff0000;fill-opacity:1;fill-rule:evenodd;stroke-width:30.9013"
     id="LIN_LOG_1"
     cx="1177.5327"
     cy="5792.6074"
     rx="294.84427"
     ry="295.80988" /><ellipse
     style="display:inline;fill:#ff0000;fill-opacity:1;fill-rule:evenodd;stroke-width:30.9013"
     id="FALL_1"
     cx="3290.7402"
     cy="5307.9067"
     rx="294.84427"
     ry="295.80988" /><ellipse
     style="display:inline;fill:#ff0000;fill-opacity:1;fill-rule:evenodd;stroke-width:30.9013"
     id="CYCLE_1"
     cx="3307.5281"
     cy="2013.8008"
     rx="294.84427"
     ry="295.80988" /><ellipse
     style="display:inline;fill:#ff0000;fill-opacity:1;fill-rule:evenodd;stroke-width:30.9013"
     id="RISE_1"
     cx="3290.7441"
     cy="3629.2629"
     rx="294.84427"
     ry="295.80988" /><ellipse
     style="display:inline;fill:#ff00ff;fill-opacity:1;fill-rule:evenodd;stroke-width:3.60597"
     id="EoR_LED"
     cx="1593.6866"
     cy="9676.0312"
     rx="114.98675"
     ry="120.83137" /><ellipse
     style="display:inline;fill:#ff00ff;fill-opacity:1;fill-rule:evenodd;stroke-width:3.60597"
     id="OUT_LED"
     cx="1594.6865"
     cy="11075.845"
     rx="114.98675"
     ry="120.83137" /><ellipse
     style="display:inline;fill:#0000ff;fill-opacity:1;fill-rule:evenodd;stroke-width:38.302"
     id="EoR"
     cx="943.69867"
     cy="9694.5723"
     rx="398.39865"
     ry="405.17139" /><ellipse
     style="display:inline;fill:#0000ff;fill-opacity:1;fill-rule:evenodd;stroke-width:38.302"
     id="OUT"
     cx="944.70752"
     cy="11068.226"
     rx="398.39865"
     ry="405.17139" /><ellipse
     style="display:inline;fill:#00ff00;fill-opacity:1;fill-rule:evenodd;stroke-width:38.302"
     id="INPUT_1_TRIG"
     cx="1994.2986"
     cy="1665.4272"
     rx="398.39865"
     ry="405.17139" /><ellipse
     style="display:inline;fill:#00ff00;fill-opacity:1;fill-rule:evenodd;stroke-width:38.3021"
     id="CH1_FALL_CV"
     cx="2360.3987"
     cy="6326.3164"
     rx="398.39865"
     ry="405.17142" /><ellipse
     style="display:inline;fill:#00ff00;fill-opacity:1;fill-rule:evenodd;stroke-width:38.3021"
     id="CH1_BOTH_CV"
     cx="1994.2557"
     cy="4489.7715"
     rx="398.39865"
     ry="405.17142" /><ellipse
     style="display:inline;fill:#00ff00;fill-opacity:1;fill-rule:evenodd;stroke-width:38.3021"
     id="CH1_RISE_CV"
     cx="1994.2986"
     cy="3241.5713"
     rx="398.39865"
     ry="405.17142" /><ellipse
     style="display:inline;fill:#00ff00;fill-opacity:1;fill-rule:evenodd;stroke-width:38.3021"
     id="CV_HALT"
     cx="720.69867"
     cy="3636.6714"
     rx="398.39865"
     ry="405.17142" /><ellipse
     style="display:inline;fill:#00ff00;fill-opacity:1;fill-rule:evenodd;stroke-width:38.3021"
     id="INPUT"
     cx="724.70056"
     cy="1665.4274"
     rx="398.39865"
     ry="405.17142" /><ellipse
     style="display:inline;fill:#ff00ff;fill-opacity:1;fill-rule:evenodd;stroke-width:3.60597"
     id="CYCLE_LED"
     cx="3307.5261"
     cy="1405.5314"
     rx="114.98675"
     ry="120.83137" /><ellipse
     style="display:inline;fill:#0000ff;fill-opacity:1;fill-rule:evenodd;stroke-width:38.302"
     id="OUT_NEG"
     cx="2655.1987"
     cy="11088.226"
     rx="398.39865"
     ry="405.17139" /><ellipse
     style="display:inline;fill:#ff00ff;fill-opacity:1;fill-rule:evenodd;stroke-width:3.60597"
     id="OUT_NEG_LED"
     cx="3357.8699"
     cy="11094.092"
     rx="114.98675"
     ry="120.83137" /><ellipse
     style="display:inline;fill:#ff00ff;fill-opacity:1;fill-rule:evenodd;stroke-width:3.60597"
     id="EoC_LED"
     cx="3364.5483"
     cy="9695.2383"
     rx="114.98675"
     ry="120.83137" /><ellipse
     style="display:inline;fill:#0000ff;fill-opacity:1;fill-rule:evenodd;stroke-width:43.9097"
     id="EoC"
     cx="2659.5144"
     cy="9691.5117"
     rx="387.49817"
     ry="405.17139" /></g>
<rect
   style="display:inline;opacity:1;fill:#000000;fill-opacity:1;fill-rule:nonzero;stroke:#1ccad8;stroke-width:23.3012;stroke-linecap:round;stroke-linejoin:round;stroke-dasharray:none;stroke-opacity:1"
   id="CH1_PREVIEW"
   width="3628.1987"
   height="1648.6146"
   x="197.65063"
   y="6991.6509" /></svg>
