<?xml version="1.0" encoding="UTF-8" standalone="no"?>
<svg
   width="71.12mm"
   height="128.5mm"
   viewBox="0 0 7112 12850"
   version="1.1"
   id="Sibyl-labels"
   xmlns="http://www.w3.org/2000/svg"
   xmlns:svg="http://www.w3.org/2000/svg">
  <defs
     id="defs11">
    <linearGradient
       id="sibyl-bg"
       x1="0"
       y1="0"
       x2="0"
       y2="1">
      <stop
         offset="0"
         stop-color="#0e1320"
         id="stop1" />
      <stop
         offset="0.5"
         stop-color="#080b14"
         id="stop2" />
      <stop
         offset="1"
         stop-color="#040508"
         id="stop3" />
    </linearGradient>
    <linearGradient
       id="sibyl-edge"
       x1="0"
       y1="0"
       x2="1"
       y2="0">
      <stop
         offset="0"
         stop-color="#7254d9"
         id="stop4" />
      <stop
         offset="0.5"
         stop-color="#30d7de"
         id="stop5" />
      <stop
         offset="1"
         stop-color="#7254d9"
         id="stop6" />
    </linearGradient>
    <linearGradient
       id="sibyl-title"
       gradientUnits="userSpaceOnUse"
       x1="2900"
       y1="447.27814"
       x2="4212"
       y2="447.27814">
      <stop
         offset="0"
         stop-color="#7a5cff"
         id="stop7" />
      <stop
         offset="1"
         stop-color="#1cccd9"
         id="stop8" />
    </linearGradient>
    <linearGradient
       id="sibyl-section"
       x1="0"
       y1="0"
       x2="0"
       y2="1">
      <stop
         offset="0"
         stop-color="#141c2e"
         stop-opacity="0.6"
         id="stop9" />
      <stop
         offset="1"
         stop-color="#0a0d17"
         stop-opacity="0.8"
         id="stop10" />
    </linearGradient>
    <radialGradient
       id="oracle-halo"
       cx="50%"
       cy="50%"
       r="50%">
      <stop
         offset="0"
         stop-color="#43e2e6"
         stop-opacity="0.18"
         id="stop11" />
      <stop
         offset="0.55"
         stop-color="#7358df"
         stop-opacity="0.08"
         id="stop12" />
      <stop
         offset="1"
         stop-color="#11172a"
         stop-opacity="0"
         id="stop13" />
    </radialGradient>
  </defs>
  <g
     id="labels"
     font-family="Rubik, sans-serif"
     text-anchor="middle"
     fill="#dce6f2">
    <path
       d="m 3096.961,590.15323 q -50.8,0 -85.1959,-14.81668 -33.8667,-14.81667 -51.3292,-38.62919 -17.4625,-23.81251 -18.5208,-50.80003 0,-4.23334 3.175,-7.40834 3.175,-3.70417 7.9375,-3.70417 h 56.6208 q 6.8792,0 10.5834,3.175 3.7041,2.64584 6.8791,6.87918 3.7042,8.99583 11.6417,17.46251 8.4667,8.46667 22.7542,14.28751 14.2875,5.29166 35.4542,5.29166 34.3958,0 51.3292,-11.1125 17.4625,-11.11251 17.4625,-30.16252 0,-13.75834 -9.525,-22.22501 -8.9959,-8.46668 -29.1042,-15.34585 -19.5792,-6.87917 -52.3875,-14.81667 -39.6876,-8.46667 -67.7334,-21.69585 -27.5167,-13.75834 -41.8042,-34.92502 -13.7583,-21.69585 -13.7583,-53.44587 0,-31.75002 17.4625,-56.0917 17.4625,-24.87085 49.2125,-38.62919 31.75,-14.28751 75.6709,-14.28751 35.4542,0 62.4417,9.52501 27.5167,9.525 45.5083,24.87085 18.5209,15.34584 28.0459,32.80835 9.525,17.46251 10.0542,33.86669 0,4.23333 -3.175,7.9375 -3.175,3.175 -7.9375,3.175 h -59.2667 q -5.2917,0 -9.525,-2.11666 -4.2334,-2.11667 -6.8792,-7.40834 -3.175,-13.75834 -19.05,-23.81252 -15.3459,-10.58334 -40.2167,-10.58334 -25.9292,0 -41.275,9.52501 -14.8167,9.52501 -14.8167,29.10418 0,12.70001 7.4083,21.69585 7.9375,8.46667 25.9292,15.34584 18.5208,6.35001 48.6834,14.28751 46.5667,9.52501 75.6708,22.75418 29.1042,13.22918 42.8626,34.39586 13.7583,20.63751 13.7583,52.38753 0,35.45419 -20.1083,60.8542 -19.5792,25.40002 -54.5042,39.15836 -34.3959,13.22918 -80.4334,13.22918 z m 218.5462,-5.29167 q -5.2917,0 -8.9959,-3.70417 -3.7041,-3.70417 -3.7041,-9.52501 V 322.9239 q 0,-5.82084 3.7041,-9.52501 3.7042,-3.70417 8.9959,-3.70417 h 52.9167 q 5.8208,0 9.525,3.70417 3.7041,3.70417 3.7041,9.52501 v 248.70848 q 0,5.82084 -3.7041,9.52501 -3.7042,3.70417 -9.525,3.70417 z m -1.5875,-317.5002 q -5.2917,0 -8.9959,-3.70417 -3.7041,-3.70417 -3.7041,-9.525 v -42.33336 q 0,-5.82084 3.7041,-9.52501 3.7042,-4.23333 8.9959,-4.23333 h 55.5625 q 5.8208,0 9.525,4.23333 4.2333,3.70417 4.2333,9.52501 v 42.33336 q 0,5.82083 -4.2333,9.525 -3.7042,3.70417 -9.525,3.70417 z m 293.6877,322.79187 q -30.1625,0 -50.2708,-10.05418 -20.1084,-10.58334 -32.8084,-26.45835 v 17.99168 q 0,5.82084 -3.7041,9.52501 -3.7042,3.70417 -9.5251,3.70417 h -50.2708 q -5.8209,0 -9.525,-3.70417 -3.7042,-3.70417 -3.7042,-9.52501 V 222.38217 q 0,-5.82084 3.7042,-9.52501 3.7041,-3.70417 9.525,-3.70417 h 54.5042 q 5.2917,0 8.9958,3.70417 3.7042,3.70417 3.7042,9.52501 v 115.3584 q 13.2292,-14.81667 32.8083,-23.81251 19.5792,-9.52501 46.5667,-9.52501 27.5167,0 47.6251,9.52501 20.6375,8.99584 34.925,25.92918 14.2875,16.40418 21.6958,39.15836 7.9375,22.75418 8.4667,50.27086 0.5292,9.52501 0.5292,17.99168 0,7.9375 -0.5292,17.99168 -1.0583,28.04585 -8.9958,51.3292 -7.4084,22.75418 -21.6959,39.68752 -13.7583,16.40418 -34.3958,25.40002 -20.1084,8.46667 -47.6251,8.46667 z m -23.8125,-63.50004 q 20.1084,0 31.75,-8.46667 11.6417,-8.99584 16.4042,-23.28335 5.2917,-14.28751 6.35,-31.22085 1.0584,-16.40418 0,-32.80836 -1.0583,-16.93334 -6.35,-31.22085 -4.7625,-14.28751 -16.4042,-22.75418 -11.6416,-8.99584 -31.75,-8.99584 -19.05,0 -31.2208,8.46667 -11.6417,8.46667 -17.9917,21.69585 -5.8208,12.70001 -6.35,27.51668 -0.5292,9.52501 -0.5292,19.57918 0,10.05417 0.5292,20.10835 1.0583,15.87501 6.35,29.63335 5.2917,13.75834 17.4625,22.75418 12.1708,8.99584 31.75,8.99584 z m 232.278,158.7501 q -4.2333,0 -7.9375,-3.17501 -3.175,-3.175 -3.175,-7.9375 0,-1.05834 0.5292,-3.175 0.5291,-1.5875 1.5875,-4.23334 l 41.275,-98.95423 -101.6001,-239.71264 q -1.5875,-4.23334 -1.5875,-6.87918 0.5292,-4.7625 3.7042,-7.9375 3.175,-3.70417 7.9375,-3.70417 h 51.3292 q 6.8792,0 10.0542,3.70417 3.175,3.175 4.7625,6.87917 l 65.6167,164.04177 67.2042,-164.04177 q 2.1166,-4.23334 5.2916,-7.40834 3.1751,-3.175 10.0542,-3.175 h 50.2709 q 4.7625,0 7.9375,3.70417 3.7042,3.175 3.7042,7.40834 0,2.64583 -2.1167,7.40834 l -149.7543,346.60438 q -1.5875,4.23333 -5.2916,7.40833 -3.175,3.17501 -10.0542,3.17501 z m 272.5206,-100.54173 q -5.8209,0 -9.525,-3.70417 -3.7042,-3.70417 -3.7042,-9.52501 V 222.38217 q 0,-5.82084 3.7042,-9.52501 3.7041,-3.70417 9.525,-3.70417 h 52.9167 q 5.2916,0 8.9958,3.70417 3.7042,3.70417 3.7042,9.52501 v 349.25021 q 0,5.82084 -3.7042,9.52501 -3.7042,3.70417 -8.9958,3.70417 z"
       id="reworked_module_title_text"
       style="font-size:529.167px;font-family:Rubik;-inkscape-font-specification:'Rubik, @wght=600';font-variation-settings:'wght' 600;dominant-baseline:middle;fill:url(#sibyl-title);stroke-width:28.1347"
       aria-label="Sibyl" />
    <path
       d="m 2704.4834,910.44437 q -2.1167,0 -3.5984,-1.48167 -1.27,-1.27001 -1.27,-3.38668 V 765.02913 q 0,-2.11667 1.27,-3.38667 1.4817,-1.48167 3.5984,-1.48167 h 9.7366 q 2.1167,0 3.3867,1.48167 1.4817,1.27 1.4817,3.38667 v 9.31335 q 5.08,-6.98501 13.5467,-11.64169 8.4666,-4.65667 21.1667,-4.65667 11.8533,0 20.1083,4.02167 8.4667,4.02168 13.7584,11.00669 5.5033,6.98501 8.255,15.87502 2.7517,8.89002 2.9633,19.05003 0.2117,3.38668 0.2117,7.19668 0,3.81001 -0.2117,7.19668 -0.2116,9.94835 -2.9633,19.05003 -2.7517,8.89002 -8.255,15.87503 -5.2917,6.77334 -13.7584,11.00668 -8.255,4.02167 -20.1083,4.02167 -12.2767,0 -20.7434,-4.445 -8.255,-4.65668 -13.5467,-11.43002 v 49.10674 q 0,2.11667 -1.27,3.38668 -1.27,1.48167 -3.5983,1.48167 z m 44.8734,-55.24509 q 11.0066,0 17.145,-4.65668 6.35,-4.86834 9.1017,-12.48835 2.7516,-7.83168 3.175,-16.72169 0.2116,-6.13835 0,-12.27669 -0.4234,-8.89002 -3.175,-16.51003 -2.7517,-7.83168 -9.1017,-12.48835 -6.1384,-4.86834 -17.145,-4.86834 -10.3717,0 -16.9334,4.86834 -6.35,4.86834 -9.525,12.48835 -2.9634,7.40835 -3.3867,15.24003 -0.2117,3.38667 -0.2117,8.04334 0,4.65668 0.2117,8.25502 0.2117,7.40834 3.3867,14.60502 3.3867,7.19668 9.9483,11.85335 6.5617,4.65668 16.5101,4.65668 z m 121.2853,17.14502 q -16.0867,0 -26.8817,-6.13834 -10.795,-6.13834 -16.51,-16.93336 -5.7151,-11.00668 -6.3501,-24.97671 -0.2116,-3.59834 -0.2116,-9.10168 0,-5.71501 0.2116,-9.10168 0.635,-14.18169 6.3501,-24.97671 5.9266,-10.79501 16.7217,-16.93336 10.795,-6.13834 26.67,-6.13834 15.875,0 26.67,6.13834 10.7951,6.13835 16.5101,16.93336 5.9266,10.79502 6.5616,24.97671 0.2117,3.38667 0.2117,9.10168 0,5.50334 -0.2117,9.10168 -0.635,13.97003 -6.35,24.97671 -5.715,10.79502 -16.51,16.93336 -10.795,6.13834 -26.8817,6.13834 z m 0,-16.29836 q 13.1233,0 20.955,-8.25501 7.8317,-8.46668 8.4667,-24.55337 0.2117,-3.17501 0.2117,-8.04335 0,-4.86834 -0.2117,-8.04334 -0.635,-16.0867 -8.4667,-24.34171 -7.8317,-8.46668 -20.955,-8.46668 -13.1234,0 -21.1667,8.46668 -7.8317,8.25501 -8.255,24.34171 -0.2117,3.175 -0.2117,8.04334 0,4.86834 0.2117,8.04335 0.4233,16.08669 8.255,24.55337 8.0433,8.25501 21.1667,8.25501 z m 81.4917,14.18169 q -2.1167,0 -3.5984,-1.27 -1.27,-1.48167 -1.27,-3.59834 V 724.8124 q 0,-2.11667 1.27,-3.38667 1.4817,-1.48167 3.5984,-1.48167 h 9.9483 q 2.3284,0 3.5984,1.48167 1.27,1.27 1.27,3.38667 v 140.54689 q 0,2.11667 -1.27,3.59834 -1.27,1.27 -3.5984,1.27 z m 65.6167,40.21674 q -1.6933,0 -2.9633,-1.27001 -1.27,-1.27 -1.27,-2.96333 0,-0.84667 0.2117,-1.69334 0.2116,-0.84667 0.8466,-2.11667 l 16.2984,-38.73506 -40.4284,-95.46182 q -1.0583,-2.54001 -1.0583,-3.59834 0,-1.90501 1.27,-3.17501 1.27,-1.27 3.175,-1.27 h 10.3717 q 2.1166,0 3.3866,1.05834 1.27,1.05833 1.6934,2.54 l 32.1734,77.04679 33.02,-77.04679 q 0.635,-1.48167 1.6933,-2.54 1.27,-1.05834 3.5984,-1.05834 h 9.9483 q 1.905,0 3.175,1.27 1.27,1.27 1.27,2.96334 0,1.05834 -1.0583,3.81001 l -60.1134,138.64189 q -0.635,1.48167 -1.905,2.54 -1.0584,1.05834 -3.3867,1.05834 z m 102.6585,0 q -2.1166,0 -3.5983,-1.48167 -1.27,-1.27001 -1.27,-3.38668 V 765.02913 q 0,-2.11667 1.27,-3.38667 1.4817,-1.48167 3.5983,-1.48167 h 9.7367 q 2.1167,0 3.3867,1.48167 1.4817,1.27 1.4817,3.38667 v 9.31335 q 5.08,-6.98501 13.5467,-11.64169 8.4666,-4.65667 21.1667,-4.65667 11.8533,0 20.1083,4.02167 8.4667,4.02168 13.7584,11.00669 5.5033,6.98501 8.255,15.87502 2.7517,8.89002 2.9633,19.05003 0.2117,3.38668 0.2117,7.19668 0,3.81001 -0.2117,7.19668 -0.2116,9.94835 -2.9633,19.05003 -2.7517,8.89002 -8.255,15.87503 -5.2917,6.77334 -13.7584,11.00668 -8.255,4.02167 -20.1083,4.02167 -12.2767,0 -20.7434,-4.445 -8.255,-4.65668 -13.5467,-11.43002 v 49.10674 q 0,2.11667 -1.27,3.38668 -1.27,1.48167 -3.5983,1.48167 z m 44.8734,-55.24509 q 11.0067,0 17.1451,-4.65668 6.35,-4.86834 9.1017,-12.48835 2.7516,-7.83168 3.175,-16.72169 0.2116,-6.13835 0,-12.27669 -0.4234,-8.89002 -3.175,-16.51003 -2.7517,-7.83168 -9.1017,-12.48835 -6.1384,-4.86834 -17.1451,-4.86834 -10.3716,0 -16.9333,4.86834 -6.35,4.86834 -9.525,12.48835 -2.9634,7.40835 -3.3867,15.24003 -0.2117,3.38667 -0.2117,8.04334 0,4.65668 0.2117,8.25502 0.2117,7.40834 3.3867,14.60502 3.3866,7.19668 9.9483,11.85335 6.5617,4.65668 16.51,4.65668 z m 81.2803,15.02835 q -2.1167,0 -3.5983,-1.27 -1.27,-1.48167 -1.27,-3.59834 V 724.8124 q 0,-2.11667 1.27,-3.38667 1.4816,-1.48167 3.5983,-1.48167 h 10.5833 q 2.3284,0 3.5984,1.48167 1.27,1.27 1.27,3.38667 v 49.31841 q 5.715,-7.19668 13.97,-11.64168 8.255,-4.44501 20.955,-4.44501 13.7584,0 23.2834,6.13834 9.7367,5.92668 14.605,16.7217 5.08,10.58335 5.08,24.76504 v 59.69009 q 0,2.11667 -1.27,3.59834 -1.27,1.27 -3.5983,1.27 h -10.5833 q -2.1167,0 -3.5984,-1.27 -1.27,-1.48167 -1.27,-3.59834 v -58.63176 q 0,-14.81669 -7.1967,-23.0717 -7.1966,-8.46668 -21.1667,-8.46668 -13.1233,0 -21.1667,8.46668 -8.0433,8.25501 -8.0433,23.0717 v 58.63176 q 0,2.11667 -1.27,3.59834 -1.27,1.27 -3.5984,1.27 z m 168.9102,2.11667 q -16.0867,0 -26.8818,-6.13834 -10.795,-6.13834 -16.51,-16.93336 -5.715,-11.00668 -6.35,-24.97671 -0.2117,-3.59834 -0.2117,-9.10168 0,-5.71501 0.2117,-9.10168 0.635,-14.18169 6.35,-24.97671 5.9267,-10.79501 16.7217,-16.93336 10.795,-6.13834 26.6701,-6.13834 15.875,0 26.67,6.13834 10.795,6.13835 16.51,16.93336 5.9267,10.79502 6.5617,24.97671 0.2117,3.38667 0.2117,9.10168 0,5.50334 -0.2117,9.10168 -0.635,13.97003 -6.35,24.97671 -5.715,10.79502 -16.51,16.93336 -10.7951,6.13834 -26.8817,6.13834 z m 0,-16.29836 q 13.1233,0 20.955,-8.25501 7.8317,-8.46668 8.4667,-24.55337 0.2116,-3.17501 0.2116,-8.04335 0,-4.86834 -0.2116,-8.04334 -0.635,-16.0867 -8.4667,-24.34171 -7.8317,-8.46668 -20.955,-8.46668 -13.1234,0 -21.1668,8.46668 -7.8316,8.25501 -8.255,24.34171 -0.2116,3.175 -0.2116,8.04334 0,4.86834 0.2116,8.04335 0.4234,16.08669 8.255,24.55337 8.0434,8.25501 21.1668,8.25501 z m 81.2799,14.18169 q -2.1166,0 -3.5983,-1.27 -1.27,-1.48167 -1.27,-3.59834 V 765.02913 q 0,-2.11667 1.27,-3.38667 1.4817,-1.48167 3.5983,-1.48167 h 9.9484 q 2.1166,0 3.3866,1.48167 1.4817,1.27 1.4817,3.38667 v 9.31335 q 5.5034,-7.19668 13.7584,-11.64169 8.4666,-4.65667 21.59,-4.65667 13.7584,0 23.2834,6.13834 9.7367,5.92668 14.605,16.7217 4.8683,10.58335 4.8683,24.76504 v 59.69009 q 0,2.11667 -1.27,3.59834 -1.27,1.27 -3.3866,1.27 h -10.5834 q -2.1167,0 -3.5983,-1.27 -1.27,-1.48167 -1.27,-3.59834 v -58.63176 q 0,-14.81669 -7.1967,-23.0717 -7.1967,-8.46668 -21.1667,-8.46668 -13.1234,0 -21.1667,8.46668 -7.8317,8.25501 -7.8317,23.0717 v 58.63176 q 0,2.11667 -1.4817,3.59834 -1.27,1.27 -3.3866,1.27 z m 128.2705,0 q -2.1167,0 -3.5984,-1.27 -1.27,-1.48167 -1.27,-3.59834 V 765.02913 q 0,-2.11667 1.27,-3.38667 1.4817,-1.48167 3.5984,-1.48167 h 10.16 q 2.1167,0 3.3867,1.48167 1.27,1.27 1.27,3.38667 v 100.33016 q 0,2.11667 -1.27,3.59834 -1.27,1.27 -3.3867,1.27 z m -1.6934,-130.59854 q -2.1166,0 -3.5983,-1.27 -1.27,-1.48167 -1.27,-3.59834 v -11.43002 q 0,-2.11667 1.27,-3.38667 1.4817,-1.48167 3.5983,-1.48167 h 13.3351 q 2.1166,0 3.3866,1.48167 1.4817,1.27 1.4817,3.38667 v 11.43002 q 0,2.11667 -1.4817,3.59834 -1.27,1.27 -3.3866,1.27 z m 92.4986,132.71521 q -15.0283,0 -26.035,-5.715 -10.795,-5.92668 -16.7217,-16.7217 -5.9267,-11.00668 -6.35,-26.24671 -0.2117,-3.175 -0.2117,-8.46668 0,-5.29167 0.2117,-8.46668 0.4233,-15.24002 6.35,-26.03504 5.9267,-11.00668 16.7217,-16.72169 11.0067,-5.92668 26.035,-5.92668 12.2767,0 20.955,3.38667 8.8901,3.38667 14.6051,8.67835 5.715,5.29168 8.4666,11.43002 2.9634,6.13834 3.1751,11.64168 0.2116,2.11667 -1.27,3.38668 -1.4817,1.27 -3.5984,1.27 h -10.16 q -2.1167,0 -3.175,-0.84667 -1.0583,-1.05834 -2.1167,-3.38667 -3.81,-10.37169 -10.3717,-14.60503 -6.5616,-4.23334 -16.2983,-4.23334 -12.7,0 -20.7434,7.83168 -7.8317,7.83168 -8.4667,25.18838 -0.2116,7.62001 0,14.81669 0.635,17.56836 8.4667,25.40004 8.0434,7.62001 20.7434,7.62001 9.7367,0 16.2983,-4.23334 6.5617,-4.23334 10.3717,-14.60502 1.0584,-2.32834 2.1167,-3.17501 1.0583,-1.05833 3.175,-1.05833 h 10.16 q 2.1167,0 3.5984,1.27 1.4816,1.27 1.27,3.38667 -0.2117,4.44501 -1.905,9.10168 -1.6934,4.65668 -5.5034,9.52502 -3.5983,4.65667 -9.1017,8.46668 -5.5033,3.59834 -13.335,5.92667 -7.62,2.11667 -17.3567,2.11667 z m 169.3337,0 q -16.0866,0 -26.8817,-6.13834 -10.795,-6.13834 -16.51,-16.93336 -5.715,-11.00668 -6.35,-24.97671 -0.2117,-3.59834 -0.2117,-9.10168 0,-5.71501 0.2117,-9.10168 0.635,-14.18169 6.35,-24.97671 5.9267,-10.79501 16.7217,-16.93336 10.795,-6.13834 26.67,-6.13834 15.8751,0 26.6701,6.13834 10.795,6.13835 16.51,16.93336 5.9267,10.79502 6.5617,24.97671 0.2117,3.38667 0.2117,9.10168 0,5.50334 -0.2117,9.10168 -0.635,13.97003 -6.35,24.97671 -5.715,10.79502 -16.51,16.93336 -10.7951,6.13834 -26.8818,6.13834 z m 0,-16.29836 q 13.1234,0 20.9551,-8.25501 7.8317,-8.46668 8.4667,-24.55337 0.2116,-3.17501 0.2116,-8.04335 0,-4.86834 -0.2116,-8.04334 -0.635,-16.0867 -8.4667,-24.34171 -7.8317,-8.46668 -20.9551,-8.46668 -13.1233,0 -21.1667,8.46668 -7.8316,8.25501 -8.255,24.34171 -0.2116,3.175 -0.2116,8.04334 0,4.86834 0.2116,8.04335 0.4234,16.08669 8.255,24.55337 8.0434,8.25501 21.1667,8.25501 z m 81.2801,14.18169 q -2.1166,0 -3.5983,-1.27 -1.27,-1.48167 -1.27,-3.59834 V 765.2408 q 0,-2.11667 1.27,-3.59834 1.4817,-1.48167 3.5983,-1.48167 h 9.7367 q 2.1167,0 3.5984,1.48167 1.4816,1.48167 1.4816,3.59834 v 9.31335 q 4.2334,-7.19668 11.6417,-10.79502 7.4084,-3.59834 17.78,-3.59834 h 8.4667 q 2.1167,0 3.3867,1.48167 1.27,1.27 1.27,3.38667 v 8.67835 q 0,2.11667 -1.27,3.38667 -1.27,1.27 -3.3867,1.27 h -12.7 q -11.43,0 -17.9917,6.77335 -6.5617,6.56167 -6.5617,17.99169 v 62.2301 q 0,2.11667 -1.4816,3.59834 -1.4817,1.27 -3.5984,1.27 z m 104.5239,2.11667 q -10.5834,0 -19.2617,-4.23334 -8.6784,-4.23334 -13.9701,-11.43001 -5.2916,-7.19668 -5.2916,-16.29836 0,-14.60503 11.8533,-23.28337 11.8534,-8.67835 30.9034,-11.43002 l 31.5384,-4.44501 v -6.13834 q 0,-10.16002 -5.9267,-15.87503 -5.715,-5.71501 -18.8384,-5.71501 -9.525,0 -15.4517,3.81001 -5.715,3.81 -8.0433,9.73668 -1.27,3.17501 -4.445,3.17501 h -9.525 q -2.3284,0 -3.5984,-1.27001 -1.0583,-1.48167 -1.0583,-3.38667 0,-3.175 2.3283,-7.83168 2.54,-4.65667 7.6201,-9.10168 5.08,-4.44501 12.9116,-7.40834 8.0434,-3.17501 19.4734,-3.17501 12.7,0 21.3784,3.38667 8.6783,3.17501 13.5467,8.67835 5.08,5.50334 7.1966,12.48835 2.3284,6.98501 2.3284,14.18169 v 68.58011 q 0,2.11667 -1.4817,3.59834 -1.27,1.27 -3.3867,1.27 h -9.7366 q -2.3284,0 -3.5984,-1.27 -1.27,-1.48167 -1.27,-3.59834 v -9.10168 q -2.7517,3.81001 -7.4083,7.62001 -4.6567,3.59834 -11.6417,6.13835 -6.985,2.32833 -17.145,2.32833 z m 4.445,-15.87502 q 8.6783,0 15.875,-3.59834 7.1967,-3.81001 11.2183,-11.64169 4.2334,-7.83167 4.2334,-19.68503 v -5.92667 l -24.5534,3.59834 q -15.0284,2.11667 -22.6484,7.19667 -7.62,4.86835 -7.62,12.48836 0,5.92667 3.3867,9.94835 3.5983,3.81 8.89,5.71501 5.5033,1.905 11.2184,1.905 z m 126.1535,15.87502 q -15.0283,0 -26.035,-5.715 -10.795,-5.92668 -16.7217,-16.7217 -5.9267,-11.00668 -6.35,-26.24671 -0.2117,-3.175 -0.2117,-8.46668 0,-5.29167 0.2117,-8.46668 0.4233,-15.24002 6.35,-26.03504 5.9267,-11.00668 16.7217,-16.72169 11.0067,-5.92668 26.035,-5.92668 12.2767,0 20.9551,3.38667 8.89,3.38667 14.605,8.67835 5.715,5.29168 8.4667,11.43002 2.9633,6.13834 3.175,11.64168 0.2116,2.11667 -1.27,3.38668 -1.4817,1.27 -3.5984,1.27 h -10.16 q -2.1167,0 -3.175,-0.84667 -1.0583,-1.05834 -2.1167,-3.38667 -3.81,-10.37169 -10.3717,-14.60503 -6.5616,-4.23334 -16.2983,-4.23334 -12.7,0 -20.7434,7.83168 -7.8317,7.83168 -8.4667,25.18838 -0.2116,7.62001 0,14.81669 0.635,17.56836 8.4667,25.40004 8.0434,7.62001 20.7434,7.62001 9.7367,0 16.2983,-4.23334 6.5617,-4.23334 10.3717,-14.60502 1.0584,-2.32834 2.1167,-3.17501 1.0583,-1.05833 3.175,-1.05833 h 10.16 q 2.1167,0 3.5984,1.27 1.4816,1.27 1.27,3.38667 -0.2117,4.44501 -1.905,9.10168 -1.6934,4.65668 -5.5034,9.52502 -3.5983,4.65667 -9.1017,8.46668 -5.5033,3.59834 -13.335,5.92667 -7.62,2.11667 -17.3567,2.11667 z m 77.4702,-2.11667 q -2.1167,0 -3.5984,-1.27 -1.27,-1.48167 -1.27,-3.59834 V 724.8124 q 0,-2.11667 1.27,-3.38667 1.4817,-1.48167 3.5984,-1.48167 h 9.9483 q 2.3284,0 3.5984,1.48167 1.27,1.27 1.27,3.38667 v 140.54689 q 0,2.11667 -1.27,3.59834 -1.27,1.27 -3.5984,1.27 z m 90.1701,2.11667 q -21.8017,0 -34.7134,-13.33502 -12.9117,-13.54669 -14.1817,-36.83006 -0.2117,-2.75167 -0.2117,-6.98501 0,-4.445 0.2117,-7.19668 0.8467,-15.02835 6.985,-26.2467 6.1384,-11.43002 16.7217,-17.56837 10.795,-6.13834 25.1884,-6.13834 16.0867,0 26.8817,6.77334 11.0067,6.77335 16.7217,19.2617 5.715,12.48836 5.715,29.21005 v 3.59834 q 0,2.32834 -1.4817,3.59834 -1.27,1.27 -3.3866,1.27 h -73.2368 q 0,0.21167 0,0.84667 0,0.635 0,1.05833 0.4233,8.67835 3.81,16.29836 3.3866,7.40835 9.7367,12.06502 6.35,4.65668 15.24,4.65668 7.62,0 12.7,-2.32834 5.08,-2.32834 8.255,-5.08001 3.175,-2.96334 4.2334,-4.44501 1.905,-2.75167 2.9633,-3.175 1.0583,-0.635 3.3867,-0.635 h 10.16 q 2.1167,0 3.3867,1.27 1.4816,1.05833 1.27,3.175 -0.2117,3.17501 -3.3867,7.83168 -3.175,4.44501 -9.1017,8.89002 -5.9267,4.44501 -14.3934,7.40834 -8.4666,2.75167 -19.4733,2.75167 z m -28.7867,-65.19343 h 57.9967 v -0.635 q 0,-9.52502 -3.5983,-16.93337 -3.3867,-7.40834 -9.9484,-11.64168 -6.5616,-4.44501 -15.6633,-4.44501 -9.1017,0 -15.6634,4.44501 -6.35,4.23334 -9.7367,11.64168 -3.3866,7.40835 -3.3866,16.93337 z"
       id="reworked_module_description"
       style="font-size:211.667px;font-family:Rubik;-inkscape-font-specification:'Rubik, @wght=400';font-variation-settings:'wght' 400;dominant-baseline:middle;fill:#ffffff"
       aria-label="polyphonic oracle" />
  </g>
</svg>
