<?xml version="1.0" encoding="UTF-8" standalone="no"?>
<svg
   version="1.2"
   width="40.639999mm"
   height="128.5mm"
   viewBox="0 0 4064 12850"
   preserveAspectRatio="xMidYMid"
   fill-rule="evenodd"
   stroke-width="28.222"
   stroke-linejoin="round"
   xml:space="preserve"
   id="svg488"
   sodipodi:docname="tdscope.svg"
   inkscape:version="1.4.3 (1:1.4.3+202512261034+0d15f75042)"
   inkscape:label="Wave Art"
   xmlns:inkscape="http://www.inkscape.org/namespaces/inkscape"
   xmlns:sodipodi="http://sodipodi.sourceforge.net/DTD/sodipodi-0.dtd"
   xmlns:xlink="http://www.w3.org/1999/xlink"
   xmlns="http://www.w3.org/2000/svg"
   xmlns:svg="http://www.w3.org/2000/svg">
  <defs
   id="defs1"><linearGradient
   id="linearGradient22"
   inkscape:collect="always"><stop
     style="stop-color:#7a5cff;stop-opacity:1;"
     offset="0"
     id="stop22" /><stop
     style="stop-color:#1cccd9;stop-opacity:1;"
     offset="1"
     id="stop23" /></linearGradient><linearGradient
   id="linearGradient20"
   inkscape:collect="always"><stop
     style="stop-color:#795cff;stop-opacity:1"
     offset="0"
     id="stop20" /><stop
     style="stop-color:#1cccd9;stop-opacity:1;"
     offset="1"
     id="stop21" /></linearGradient><linearGradient
   id="linearGradient16"
   x1="0"
   y1="0"
   x2="0"
   y2="1">
      <stop
   offset="0"
   stop-color="#1ccad8"
   stop-opacity="0.65"
   id="stop15"
   style="stop-color:#1ccad8;stop-opacity:1;" />
      <stop
   offset="1"
   stop-color="#7a5cff"
   stop-opacity="0.65"
   id="stop16"
   style="stop-color:#7a5cff;stop-opacity:1;" />
    </linearGradient><linearGradient
   id="linearGradient14"
   x1="0"
   y1="0"
   x2="0"
   y2="1">
      <stop
   offset="0"
   stop-color="#1ccad8"
   stop-opacity="0.65"
   id="stop13"
   style="stop-color:#1ccad8;stop-opacity:1;" />
      <stop
   offset="1"
   stop-color="#7a5cff"
   stop-opacity="0.65"
   id="stop14"
   style="stop-color:#7a5cff;stop-opacity:1;" />
    </linearGradient>
    <linearGradient
   id="linearGradient12"
   x1="0"
   y1="0"
   x2="0"
   y2="1">
      <stop
   offset="0"
   stop-color="#1ccad8"
   stop-opacity="0.65"
   id="stop11"
   style="stop-color:#6140bf;stop-opacity:1;" />
      <stop
   offset="1"
   stop-color="#7a5cff"
   stop-opacity="0.65"
   id="stop12" />
    </linearGradient>
    <linearGradient
   id="bgGrad"
   x1="1108.8855"
   y1="886.88062"
   x2="1108.8855"
   y2="12348.43"
   gradientTransform="matrix(0.35573807,0,0,1.1244228,591.70921,0)"
   gradientUnits="userSpaceOnUse">
      <stop
   offset="0"
   stop-color="#0b0d10"
   id="stop1"
   style="stop-color:#060709;stop-opacity:1;" />
      <stop
   offset="50%"
   stop-color="#10141a"
   id="stop2" />
      <stop
   offset="1"
   stop-color="#07080a"
   id="stop3"
   style="stop-color:#0a0c0f;stop-opacity:1;" />
    </linearGradient>
    <linearGradient
   id="panelSheen"
   x1="1258.4897"
   y1="999.76398"
   x2="1258.4897"
   y2="12199.481"
   gradientTransform="scale(0.88692179,1.1274951)"
   gradientUnits="userSpaceOnUse">
      <stop
   offset="0%"
   stop-color="#ffffff"
   stop-opacity="0.1"
   id="stop4" />
      <stop
   offset="15%"
   stop-color="#ffffff"
   stop-opacity="0.02"
   id="stop5" />
      <stop
   offset="50%"
   stop-color="#ffffff"
   stop-opacity="0.0"
   id="stop6" />
      <stop
   offset="85%"
   stop-color="#ffffff"
   stop-opacity="0.02"
   id="stop7" />
      <stop
   offset="100%"
   stop-color="#ffffff"
   stop-opacity="0.1"
   id="stop8" />
    </linearGradient>
    <linearGradient
   id="accentGrad"
   x1="0"
   y1="0"
   x2="0"
   y2="1">
      <stop
   offset="0%"
   stop-color="#1ccad8"
   stop-opacity="0.65"
   id="stop9" />
      <stop
   offset="100%"
   stop-color="#7a5cff"
   stop-opacity="0.65"
   id="stop10" />
    </linearGradient>
    <linearGradient
   id="oceanWaveGrad"
   x1="0"
   y1="0"
   x2="1"
   y2="1"
   gradientUnits="objectBoundingBox">
      <stop
   offset="0%"
   stop-color="#55dbff"
   id="stop_wave_1" />
      <stop
   offset="55%"
   stop-color="#1496df"
   id="stop_wave_2" />
      <stop
   offset="100%"
   stop-color="#182682"
   id="stop_wave_3" />
    </linearGradient>
    
    
    
    
    
    
    
    
    
    
  
    
    
    
    
    
    
  <linearGradient
   inkscape:collect="always"
   xlink:href="#linearGradient20"
   id="linearGradient1"
   gradientUnits="userSpaceOnUse"
   x1="5496.8262"
   y1="12956.067"
   x2="7087.4873"
   y2="12956.067"
   gradientTransform="matrix(1.3902179,0,0,1.3902178,-6324.5914,-5277.5495)" /><linearGradient
   inkscape:collect="always"
   xlink:href="#oceanWaveGrad"
   id="linearGradient10"
   gradientUnits="userSpaceOnUse"
   x1="-323.57697"
   y1="-103.93273"
   x2="723.81177"
   y2="943.45605"
   gradientTransform="matrix(-1.435811,0,0,0.69647048,8750.0001,12953.568)" /><linearGradient
   inkscape:collect="always"
   xlink:href="#oceanWaveGrad"
   id="linearGradient11"
   gradientUnits="userSpaceOnUse"
   x1="-323.57697"
   y1="-103.93273"
   x2="723.81177"
   y2="943.45605"
   gradientTransform="matrix(1.435811,0,0,0.69647048,3420,12953.568)" /><linearGradient
   inkscape:collect="always"
   xlink:href="#linearGradient22"
   id="linearGradient67"
   gradientUnits="userSpaceOnUse"
   gradientTransform="matrix(0.99690805,0,0,0.99690805,-4074.8156,-888.26714)"
   x1="4893.4478"
   y1="1478.1912"
   x2="7325.21"
   y2="1496.5087" /></defs>
  <sodipodi:namedview
   id="namedview488"
   pagecolor="#ffffff"
   bordercolor="#000000"
   borderopacity="0.25"
   inkscape:showpageshadow="2"
   inkscape:pageopacity="0.0"
   inkscape:pagecheckerboard="true"
   inkscape:deskcolor="#d1d1d1"
   inkscape:document-units="mm"
   inkscape:zoom="2.385554"
   inkscape:cx="-46.530072"
   inkscape:cy="44.643718"
   inkscape:window-width="1862"
   inkscape:window-height="1016"
   inkscape:window-x="1978"
   inkscape:window-y="27"
   inkscape:window-maximized="1"
   inkscape:current-layer="svg488"
   showgrid="false"
   inkscape:pageshadow="2" />
  
  <g
   id="panel_art"
   style="display:inline">
    <g
   id="Background_Rect"
   style="display:inline"
   transform="matrix(0.99673566,0,0,0.99708035,-982.96277,-994.31744)">
      <rect
   x="986.18201"
   y="997.229"
   width="4077.3096"
   height="12887.627"
   rx="0"
   ry="0"
   fill="url(#bgGrad)"
   id="black_background"
   style="display:inline;fill:url(#bgGrad);stroke-width:17.8492"
   sodipodi:insensitive="true"
   inkscape:label="black_background" />
      <g
   id="waves_layer"
   style="display:inline;opacity:0.5"
   transform="matrix(1.0032752,0,0,1.0029283,-1170.8786,975.86517)"><g
     id="branding_wave_left"
     transform="matrix(1.72,0,0,1.72,2150.0189,12130.149)"
     style="display:inline">
        <path
   style="fill:#4995ec"
   d="m 0,413.249 c 0,0 99.571,-7.286 135.999,-84.999 36.428,-77.713 30.357,-229.499 207.642,-229.499 38.871,0 81.438,18.386 104.731,34.602 116.875,81.362 61.625,248.326 -75.589,205.523 0,0 49.786,-2.125 49.786,-67.697 0,-65.572 -82.091,-75.285 -94.714,-20.643 -8.992,38.927 -3.643,156.643 167.571,162.713"
   id="path149" />
        <path
   style="fill:#7a5cff"
   d="m 372.784,338.875 c 42.5,0 125.678,-65.875 75.213,-144.378 C 412.71,139.6 316.321,128.5 247.714,197.107 179.179,265.642 219.7,398.411 0.644,413.201 9.193,412.412 101.283,402.321 136,328.25 172.429,250.536 166.357,98.751 343.642,98.751 c 38.869,0 81.43,18.384 104.731,34.607 116.874,81.357 61.625,248.321 -75.589,205.517 z"
   id="path151" />
        
        <path
   style="fill:#1cccd9"
   d="M 495.426,413.249 H 268.433 C 242.935,402.664 232.851,365.455 246.5,310.035 c 15.166,-61.576 44.686,-94.762 88.642,-101.999 26.411,-4.347 46.895,4.299 59.973,12.945 -25.087,-13.418 -59.464,-4.238 -67.259,29.556 -8.998,38.929 -3.644,156.641 167.57,162.712 z"
   id="path155" />
      </g><g
     id="branding_wave_right"
     transform="matrix(-1.72,0,0,1.72,7743.0744,11996.75)"
     style="display:none">
        <path
   style="fill:#4995ec"
   d="m 0,413.249 c 0,0 99.571,-7.286 135.999,-84.999 36.428,-77.713 30.357,-229.499 207.642,-229.499 38.871,0 81.438,18.386 104.731,34.602 116.875,81.362 61.625,248.326 -75.589,205.523 0,0 49.786,-2.125 49.786,-67.697 0,-65.572 -82.091,-75.285 -94.714,-20.643 -8.992,38.927 -3.643,156.643 167.571,162.713"
   id="path158" />
        <path
   style="fill:#7a5cff"
   d="m 372.784,338.875 c 42.5,0 125.678,-65.875 75.213,-144.378 C 412.71,139.6 316.321,128.5 247.714,197.107 179.179,265.642 219.7,398.411 0.644,413.201 9.193,412.412 101.283,402.321 136,328.25 172.429,250.536 166.357,98.751 343.642,98.751 c 38.869,0 81.43,18.384 104.731,34.607 116.874,81.357 61.625,248.321 -75.589,205.517 z"
   id="path160" />
        
        <path
   style="fill:#1cccd9"
   d="M 495.426,413.249 H 268.433 C 242.935,402.664 232.851,365.455 246.5,310.035 c 15.166,-61.576 44.686,-94.762 88.642,-101.999 26.411,-4.347 46.895,4.299 59.973,12.945 -25.087,-13.418 -59.464,-4.238 -67.259,29.556 -8.998,38.929 -3.644,156.641 167.57,162.712 z"
   id="path164" />
      </g></g><rect
   x="1084.9954"
   y="1096.0424"
   width="3915.2769"
   height="12690.001"
   rx="82.441162"
   ry="210.37091"
   fill="none"
   stroke="#ffffff"
   stroke-opacity="0.1"
   stroke-width="37.6267"
   id="gray_outline"
   style="display:none;stroke:#3c3f42;stroke-opacity:1" />
      
    </g>
    
    
    
    <g
   id="panel_graphics"
   style="display:inline"
   transform="matrix(0.99673566,0,0,0.99708035,-982.96277,-994.31744)">
      <g
   id="grp_frame"
   inkscape:label="Frame"
   style="display:inline">
        
        
        
        
      </g>
      
    <g
   id="lines_gen1_side" /></g>
    
    
  <g
   id="ring_guides"
   style="display:none"
   transform="matrix(0.99673566,0,0,0.99708035,-982.96277,-994.31744)"><g
     id="GenA_Guide_Rings"
     style="display:inline"
     transform="translate(1.0410941e-5)"><circle
       cx="1729.1086"
       cy="2680.4136"
       r="454.70001"
       fill="none"
       stroke="#ffffff"
       stroke-opacity="0.15"
       stroke-width="70"
       id="ring_in1_o"
       style="display:inline" /><circle
       cx="3069.8853"
       cy="2680.4136"
       r="454.70001"
       fill="none"
       stroke="#ffffff"
       stroke-opacity="0.15"
       stroke-width="70"
       id="ring_trig1_o"
       style="display:inline" /><circle
       cx="4280.2456"
       cy="2959.5808"
       r="360"
       fill="none"
       stroke="#ffffff"
       stroke-opacity="0.15"
       stroke-width="70"
       id="ring_loopbtn1_o"
       style="display:inline" /><circle
       cx="4207.9512"
       cy="4650"
       r="520"
       fill="none"
       stroke="#ffffff"
       stroke-opacity="0.15"
       stroke-width="70"
       id="ring_surgeA_o" /><circle
       cx="4303.5522"
       cy="6333.5591"
       r="520"
       fill="none"
       stroke="#ffffff"
       stroke-opacity="0.15"
       stroke-width="70"
       id="ring_sinkA_o" /><ellipse
       cx="2149.4373"
       cy="6814.4219"
       fill="none"
       stroke="#ffffff"
       stroke-opacity="0.15"
       stroke-width="71.5728"
       id="ring_curveA_o-4"
       rx="544.07501"
       ry="519.57361"
       style="display:inline" /></g><g
     id="GenB_Guide_Rings"
     style="display:inline"
     transform="translate(1.0410941e-5)" /><g
     id="output_ring_guides"
     style="display:inline"
     transform="translate(1.0410941e-5)"><circle
       cx="2000"
       cy="10730"
       r="454.70001"
       fill="none"
       stroke="#ffffff"
       stroke-opacity="0.15"
       stroke-width="70"
       id="ring_eor_o"
       style="display:inline"
       transform="translate(1.0410941e-5)" /><circle
       cx="3720.4089"
       cy="10730"
       r="454.70001"
       fill="none"
       stroke="#ffffff"
       stroke-opacity="0.15"
       stroke-width="70"
       id="ring_out1_o"
       style="display:inline" /><circle
       cx="2000"
       cy="12110.747"
       r="454.70001"
       fill="none"
       stroke="#ffffff"
       stroke-opacity="0.15"
       stroke-width="70"
       id="ring_s1_o" /><circle
       cx="3716.0947"
       cy="12130.806"
       r="454.70001"
       fill="none"
       stroke="#ffffff"
       stroke-opacity="0.15"
       stroke-width="70"
       id="ring_or_o" /></g><g
     id="middle_ring_guides"
     style="display:inline"
     transform="translate(1.0410941e-5)" /></g><path
   d="m 224.91839,952.22269 3600.46661,0.01"
   stroke="url(#accentGrad)"
   stroke-width="49.8454"
   stroke-linecap="round"
   opacity="0.55"
   fill="none"
   id="top_horizontal_line"
   style="display:inline;opacity:1;stroke:#5740bf;stroke-opacity:1"
   sodipodi:nodetypes="cc" /></g>
  <g
   id="panel_labels_reworked"
   inkscape:groupmode="layer"
   inkscape:label="Labels Reworked"
   style="display:none"><text
   id="reworked_module_title_text"
   x="2021.4169"
   y="447.27814"
   style="font-style:normal;font-variant:normal;font-weight:normal;font-stretch:normal;font-size:529.167px;font-family:Rubik;-inkscape-font-specification:'Rubik, @wght=600';font-variant-ligatures:normal;font-variant-caps:normal;font-variant-numeric:normal;font-variant-east-asian:normal;font-variation-settings:'wght' 600;dominant-baseline:middle;text-anchor:middle;display:inline;fill:url(#linearGradient67);stroke-width:28.1347"
   xml:space="preserve"><tspan
     sodipodi:role="line"
     id="tspan1"
     style="fill:url(#linearGradient67)"
     x="2021.4169"
     y="447.27814">TD.Scope</tspan></text><text
   id="reworked_LEVIATHAN_LOGO"
   x="2420.0005"
   y="12482.233"
   style="font-style:normal;font-variant:normal;font-weight:normal;font-stretch:normal;font-size:635px;font-family:Ancient;-inkscape-font-specification:'Ancient, Normal';font-variant-ligatures:normal;font-variant-caps:normal;font-variant-numeric:normal;font-variant-east-asian:normal;dominant-baseline:middle;text-anchor:middle;display:inline;fill:url(#linearGradient1);stroke:none;stroke-width:37.1;stroke-dasharray:none"
   xml:space="preserve"
   inkscape:label="reworked_LEVIATHAN_LOGO">Leviathan</text>
        
        
        
        
        
        
        
        
        <text
   id="reworked_text27"
   x="456.314"
   y="774.29388"
   style="font-style:normal;font-variant:normal;font-weight:normal;font-stretch:normal;font-size:282.223px;font-family:Rubik;-inkscape-font-specification:'Rubik, @wght=400';font-variant-ligatures:normal;font-variant-caps:normal;font-variant-numeric:normal;font-variant-east-asian:normal;font-variation-settings:'wght' 400;dominant-baseline:middle;text-anchor:middle;display:none;fill:#ffffff"
   xml:space="preserve">LIN</text>
        
        
        
        
        
        
        
        
        
        
        
        
        
        
        
        
        
        
        
        
        
        
        
        <text
   id="reworked_module_description"
   x="2027.8726"
   y="815.19421"
   style="font-style:normal;font-variant:normal;font-weight:normal;font-stretch:normal;font-size:211.667px;font-family:Rubik;-inkscape-font-specification:'Rubik, @wght=400';font-variant-ligatures:normal;font-variant-caps:normal;font-variant-numeric:normal;font-variant-east-asian:normal;font-variation-settings:'wght' 400;dominant-baseline:middle;text-anchor:middle;display:inline;fill:#ffffff"
   xml:space="preserve"><tspan
     sodipodi:role="line"
     id="tspan2"
     x="2027.8726"
     y="815.19421">visualizer</tspan></text>
        
      </g><g
   id="g6"
   inkscape:groupmode="layer"
   inkscape:label="Labels Reworked copy"
   style="display:inline"><path
   d="m 930.58209,584.86156 q -5.82084,0 -9.52501,-3.70417 -3.70417,-3.70417 -3.70417,-9.52501 V 287.99887 h -96.30839 q -5.29167,0 -8.99584,-3.70416 -3.70417,-3.70417 -3.70417,-8.99584 v -47.62503 q 0,-5.82084 3.70417,-9.52501 3.70417,-3.70417 8.99584,-3.70417 H 1098.328 q 5.8209,0 9.525,3.70417 3.7042,3.70417 3.7042,9.52501 v 47.62503 q 0,5.29167 -3.7042,8.99584 -3.7041,3.70416 -9.525,3.70416 h -95.7792 v 283.63351 q 0,5.82084 -3.70417,9.52501 -3.70417,3.70417 -9.52501,3.70417 z m 245.00461,0 q -5.8208,0 -9.525,-3.70417 -3.7042,-3.70417 -3.7042,-9.52501 V 227.67384 q 0,-5.82084 3.7042,-9.52501 3.7042,-3.70417 9.525,-3.70417 h 132.8209 q 52.9167,0 88.3709,16.93335 35.4542,16.40417 53.975,48.68336 19.0501,31.75002 20.1084,78.84588 0.5292,23.28335 0.5292,40.74586 0,17.46251 -0.5292,40.21669 -1.5875,49.21253 -19.5792,81.49172 -17.9917,32.27918 -52.9167,48.15419 -34.925,15.34585 -87.3125,15.34585 z m 70.9084,-68.26254 h 61.9125 q 26.4584,0 43.3917,-7.93751 16.9334,-7.9375 24.8709,-24.87085 8.4666,-17.46251 8.9958,-44.97919 0.5292,-15.34585 0.5292,-27.51669 0.5291,-12.17084 0,-24.34168 0,-12.17084 -0.5292,-26.98751 -1.0583,-39.68753 -20.6375,-58.20837 -19.05,-19.05002 -59.2667,-19.05002 h -59.2667 z m 290.3738,68.26254 q -5.8209,0 -9.525,-3.70417 -3.7042,-3.70417 -3.7042,-9.52501 v -59.2667 q 0,-5.82084 3.7042,-9.52501 3.7041,-3.70417 9.525,-3.70417 h 59.2667 q 5.8208,0 9.525,3.70417 3.7042,3.70417 3.7042,9.52501 v 59.2667 q 0,5.82084 -3.7042,9.52501 -3.7042,3.70417 -9.525,3.70417 z m 273.1033,5.29167 q -50.8,0 -85.1959,-14.81668 -33.8667,-14.81667 -51.3292,-38.62919 -17.4625,-23.81251 -18.5208,-50.80003 0,-4.23334 3.175,-7.40834 3.175,-3.70417 7.9375,-3.70417 h 56.6208 q 6.8792,0 10.5834,3.175 3.7042,2.64584 6.8792,6.87918 3.7041,8.99583 11.6416,17.46251 8.4667,8.46667 22.7542,14.28751 14.2875,5.29166 35.4542,5.29166 34.3959,0 51.3292,-11.1125 17.4625,-11.11251 17.4625,-30.16252 0,-13.75834 -9.525,-22.22501 -8.9958,-8.46668 -29.1042,-15.34585 -19.5792,-6.87917 -52.3875,-14.81667 -39.6875,-8.46667 -67.7334,-21.69585 -27.5167,-13.75834 -41.8042,-34.92502 -13.7583,-21.69585 -13.7583,-53.44587 0,-31.75002 17.4625,-56.0917 17.4625,-24.87085 49.2125,-38.62919 31.75,-14.28751 75.6709,-14.28751 35.4542,0 62.4417,9.52501 27.5167,9.525 45.5084,24.87085 18.5208,15.34584 28.0458,32.80835 9.525,17.46251 10.0542,33.86669 0,4.23333 -3.175,7.9375 -3.175,3.175 -7.9375,3.175 h -59.2667 q -5.2917,0 -9.525,-2.11666 -4.2334,-2.11667 -6.8792,-7.40834 -3.175,-13.75834 -19.05,-23.81252 -15.3458,-10.58334 -40.2167,-10.58334 -25.9292,0 -41.275,9.52501 -14.8167,9.52501 -14.8167,29.10418 0,12.70001 7.4083,21.69585 7.9375,8.46667 25.9292,15.34584 18.5209,6.35001 48.6834,14.28751 46.5667,9.52501 75.6709,22.75418 29.1041,13.22918 42.8625,34.39586 13.7583,20.63751 13.7583,52.38753 0,35.45419 -20.1083,60.8542 -19.5792,25.40002 -54.5042,39.15836 -34.3959,13.22918 -80.4334,13.22918 z m 328.0838,0 q -38.6292,0 -68.2625,-14.28751 -29.1042,-14.28751 -46.0376,-41.27503 -16.9333,-27.51668 -18.5208,-65.6167 -0.5292,-8.46668 -0.5292,-21.16668 0,-13.22918 0.5292,-21.69585 1.5875,-38.62919 17.9917,-65.61671 16.9333,-27.51668 46.5667,-41.80419 29.6333,-14.28751 68.2625,-14.28751 35.4542,0 60.325,10.05417 24.8709,9.52501 40.7459,24.34169 15.875,14.81667 23.2834,31.22085 7.9375,15.87501 8.4666,28.04585 0.5292,5.29167 -3.7041,9.525 -3.7042,3.70417 -8.9959,3.70417 h -56.6209 q -5.2916,0 -8.4666,-2.64583 -2.6459,-3.175 -5.2917,-8.46667 -7.4083,-18.52085 -19.05,-26.45835 -11.6417,-7.93751 -29.1042,-7.93751 -23.8125,0 -37.5708,15.34585 -13.7584,15.34584 -14.8167,47.62502 -0.5292,20.63752 0,37.57086 1.5875,32.80835 14.8167,47.62503 13.7583,14.81668 37.5708,14.81668 18.5209,0 29.6334,-7.93751 11.1125,-7.9375 18.5208,-26.45835 2.1167,-5.29167 5.2917,-7.9375 3.175,-3.17501 8.4666,-3.17501 h 56.6209 q 5.2917,0 8.9959,4.23334 4.2333,3.70417 3.7041,8.99584 -0.5291,8.99584 -5.2916,21.16668 -4.2334,12.17084 -14.2876,24.87085 -9.525,12.70001 -24.8708,23.81251 -15.3458,10.58334 -37.5709,17.46251 -21.6958,6.35001 -50.8,6.35001 z m 310.6209,0 q -43.9208,0 -73.5542,-14.28751 -29.6333,-14.81668 -45.5083,-41.80419 -15.3459,-26.98752 -16.9334,-62.97088 -0.5292,-10.58334 -0.5292,-23.81251 0,-13.75834 0.5292,-23.81252 1.5875,-36.51252 17.9917,-62.97087 16.4042,-26.98751 46.0375,-41.27502 29.6334,-14.81668 71.9667,-14.81668 41.8042,0 71.4376,14.81668 29.6333,14.28751 46.0375,41.27502 16.4042,26.45835 17.9917,62.97087 1.0583,10.05418 1.0583,23.81252 0,13.22917 -1.0583,23.81251 -1.5875,35.98336 -17.4625,62.97088 -15.3459,26.98751 -44.9792,41.80419 -29.6334,14.28751 -73.0251,14.28751 z m 0,-58.20837 q 25.9292,0 39.1584,-15.87501 13.2292,-16.40418 14.2875,-47.62503 0.5292,-7.93751 0.5292,-21.16668 0,-13.22918 -0.5292,-21.16668 -1.0583,-30.69169 -14.2875,-47.09586 -13.2292,-16.40418 -39.1584,-16.40418 -25.9292,0 -39.6875,16.40418 -13.2292,16.40417 -14.2875,47.09586 -0.5292,7.9375 -0.5292,21.16668 0,13.22917 0.5292,21.16668 1.0583,31.22085 14.2875,47.62503 13.7583,15.87501 39.6875,15.87501 z m 205.3168,153.45843 q -5.8209,0 -9.5251,-3.70417 -3.7041,-3.70417 -3.7041,-9.52501 V 322.9239 q 0,-5.82084 3.7041,-9.52501 3.7042,-3.70417 9.5251,-3.70417 h 50.2708 q 5.8209,0 9.525,3.70417 3.7042,3.70417 3.7042,9.52501 v 20.10834 q 12.7,-16.93334 32.8083,-27.51668 20.1084,-11.11251 50.2709,-11.11251 27.5167,0 47.625,8.99584 20.6376,8.46667 34.3959,24.87085 14.2875,15.87501 21.6958,38.62919 7.9375,22.75418 8.9959,51.3292 0.5291,10.05417 0.5291,19.05001 0,8.99584 -0.5291,19.57918 -0.5292,26.98751 -8.4667,49.7417 -7.4083,22.75418 -21.6958,39.15835 -14.2875,16.40418 -34.9251,25.40002 -20.1083,8.99584 -47.625,8.99584 -26.9875,0 -47.0959,-9.52501 -19.5791,-10.05417 -32.2791,-26.98752 v 118.53341 q 0,5.82084 -3.7042,9.52501 -3.7042,3.70417 -8.9958,3.70417 z m 122.7667,-158.7501 q 20.1083,0 31.75,-8.46667 11.6417,-8.99584 16.4042,-23.28335 5.2917,-14.28751 6.35,-31.22085 1.0583,-16.40418 0,-32.80836 -1.0583,-16.93334 -6.35,-31.22085 -4.7625,-14.28751 -16.4042,-22.75418 -11.6417,-8.99584 -31.75,-8.99584 -19.5792,0 -31.75,8.99584 -12.1709,8.99584 -17.4625,22.75418 -5.2917,13.75834 -6.35,29.63335 -0.5292,9.52501 -0.5292,19.57918 0,10.05417 0.5292,20.10835 0.5291,14.81667 6.35,28.04585 6.35,12.7 17.9916,21.16668 12.1709,8.46667 31.2209,8.46667 z m 315.9124,63.50004 q -60.8542,0 -96.8375,-33.86669 -35.4542,-33.86669 -37.5709,-98.42506 0,-4.23334 0,-11.11251 0,-7.40834 0,-11.64167 2.1167,-40.74586 18.5209,-69.85004 16.4041,-29.63336 46.0375,-44.9792 29.6333,-15.87501 69.3209,-15.87501 44.45,0 74.0833,18.52085 30.1626,17.99167 44.9792,49.74169 15.3459,31.22086 15.3459,71.96671 v 12.17084 q 0,5.29167 -4.2334,8.99584 -3.7041,3.70417 -8.9958,3.70417 h -173.0376 q 0,0.52917 0,2.11667 0,1.05833 0,2.11667 0.5292,16.93334 6.35,31.22085 6.35,13.75834 17.4625,22.22501 11.6417,8.46668 27.5167,8.46668 13.2292,0 21.6958,-3.70417 8.4667,-3.70417 13.7584,-8.99584 5.8208,-5.29167 8.4667,-8.99584 4.7625,-5.29167 7.4083,-6.35 3.175,-1.5875 9.525,-1.5875 h 55.0334 q 5.2916,0 8.4666,3.175 3.7042,2.64583 3.175,7.9375 -0.5291,8.46667 -8.9958,21.16668 -7.9375,12.17084 -23.8125,24.34168 -15.875,11.64168 -39.6875,19.57918 -23.2834,7.93751 -53.9751,7.93751 z m -52.3875,-168.80427 h 103.7167 v -1.05834 q 0,-19.05001 -6.35,-32.80835 -5.8208,-14.28751 -17.4625,-22.22501 -11.6417,-7.93751 -28.0458,-7.93751 -16.4042,0 -28.0459,7.93751 -11.6417,7.9375 -17.9917,22.22501 -5.8208,13.75834 -5.8208,32.80835 z"
   id="text3"
   style="font-size:529.167px;font-family:Rubik;-inkscape-font-specification:'Rubik, @wght=600';font-variation-settings:'wght' 600;dominant-baseline:middle;text-anchor:middle;fill:url(#linearGradient67);stroke-width:28.1347"
   aria-label="TD.Scope" /><path
   d="m 1624.3454,12319.991 -16.51,-15.24 10.795,-12.7 q -1.27,-1.27 -2.54,-1.905 -0.635,-0.635 -1.27,-1.905 l -3.81,-3.81 q -1.905,-1.27 -5.08,-2.54 -2.54,-1.905 -7.62,-6.35 -3.81,-1.905 -8.255,-4.445 -4.445,-3.175 -9.525,-6.985 h -1.905 l -1.27,-0.635 h -3.81 l -0.635,-0.635 q -21.59,0 -28.575,12.065 -6.35,8.255 -6.35,12.7 v 193.04 q 0,8.89 -4.445,19.05 -3.81,9.525 -10.795,18.415 -6.35,8.255 -14.605,15.24 -8.255,6.985 -17.145,10.795 v -0.635 q -3.175,2.54 -7.62,3.81 -4.445,0.635 -12.7,3.81 h 0.635 q -1.27,0.635 -2.54,0.635 -0.635,0 -1.27,0.635 -1.27,0 -2.54,0.635 -1.27,0 -2.54,0 -1.905,0.635 -5.08,0.635 h -9.525 q 8.89,-8.89 13.97,-18.415 5.08,-9.525 6.35,-20.955 v -3.175 q 0,-2.54 0.635,-5.715 0,-1.27 0,-1.905 0.635,-0.635 0.635,-1.905 v -176.53 q 0,-34.29 55.245,-69.85 50.8,-33.02 86.995,-33.02 h 2.54 q 10.795,0 41.275,12.065 19.05,9.525 26.035,21.59 z m 4.445,323.215 q -70.485,-29.845 -143.51,-29.845 -62.865,0 -110.49,21.59 -4.445,1.27 -10.795,4.445 -5.715,3.81 -12.7,6.985 13.97,-26.67 36.195,-45.72 22.225,-19.05 54.61,-31.75 55.245,-22.225 113.03,-22.225 38.1,0 66.675,9.525 v -117.475 q -10.795,-3.81 -10.795,-19.05 0,-8.89 6.985,-15.875 6.985,-7.62 15.875,-7.62 8.89,0 15.24,7.62 6.985,6.985 6.985,15.875 0,15.24 -11.43,20.32 v 122.555 q 1.27,1.27 6.985,2.54 l 2.54,1.905 h -1.27 q 2.54,1.27 3.175,1.905 v -0.635 l 1.27,0.635 0.635,0.635 2.54,1.27 8.89,-10.795 17.78,13.97 z m -175.26,-338.455 4.445,1.27 q -7.62,22.86 -7.62,24.765 l -1.27,178.435 v 1.27 q 0,9.525 -10.16,25.4 -27.305,43.815 -73.025,48.26 15.24,-24.765 15.24,-48.26 v -64.77 q -1.27,-1.27 -4.445,-1.905 -2.54,-1.27 -5.715,-3.81 h -1.905 q -6.985,0 -12.7,4.445 -5.715,4.445 -6.35,11.43 l 0.635,0.635 v 4.445 h -3.175 l -0.635,0.635 h -2.54 q -10.795,0 -19.685,-9.525 -8.255,-10.16 -8.89,-20.955 -0.635,-1.27 -0.635,-6.985 0,-34.925 38.1,-49.53 6.35,-1.27 12.7,-1.905 6.985,-1.27 15.24,-2.54 v -23.495 q 0,-8.89 0.635,-12.065 2.54,-17.78 29.21,-36.195 25.4,-19.685 43.815,-19.685 z m 55.245,-62.23 q -3.175,26.67 -30.48,43.815 -24.13,17.145 -50.8,17.145 -15.875,0 -34.925,-7.62 -4.445,0 -5.08,-1.27 -2.54,-1.27 -4.445,-1.905 -2.54,0 -3.81,-0.635 -3.81,-1.27 -9.525,-1.905 -5.715,-1.27 -7.62,-1.27 l -0.635,0.635 q -6.985,0 -9.525,1.905 -3.81,0 -8.255,4.445 -2.54,0.635 -7.62,4.445 -4.445,3.175 -11.43,8.89 v -6.35 q 0,-35.56 19.685,-57.15 19.685,-22.225 53.975,-22.225 10.795,0 22.86,3.175 12.7,2.54 27.305,7.62 29.21,10.795 41.91,10.795 1.905,0 4.445,-0.635 2.54,-0.635 6.35,-1.905 1.27,-1.27 4.445,-2.54 z m 391.1606,209.55 q -7.62,3.81 -30.48,17.145 -22.225,12.7 -60.96,35.56 -5.715,3.175 -12.7,8.255 v 47.625 q 19.685,3.175 36.195,8.255 17.145,5.08 31.75,12.065 l 15.24,-15.875 15.875,14.605 -57.785,63.5 -6.35,-3.175 q -13.335,-6.985 -26.035,-13.335 -12.7,-5.715 -29.21,-8.89 -27.94,-5.715 -48.26,-5.715 -7.62,0 -15.24,1.27 -7.62,0.635 -15.24,1.905 1.27,-3.175 2.54,-5.08 1.27,-2.54 2.54,-3.81 v 0.635 q 4.445,-6.985 6.985,-11.43 3.175,-4.445 3.81,-5.08 4.445,-5.715 17.145,-15.24 v -153.67 q 0,-9.525 -10.16,-31.75 v -8.89 l 5.715,5.715 h 3.81 l 0.635,0.635 h 1.905 l 1.905,0.635 h 2.54 q 50.165,0 113.03,-41.91 3.175,11.43 8.255,24.765 5.08,13.335 13.97,29.845 8.255,14.605 15.24,27.305 7.62,12.065 13.97,20.955 z m -99.06,-50.165 -5.08,1.27 v 81.28 l 34.29,-22.225 q -2.54,-3.81 -6.35,-9.525 -3.175,-6.35 -7.62,-15.875 -4.445,-8.255 -8.255,-17.145 -3.81,-8.89 -6.985,-17.78 z m 366.3946,-8.255 v 3.81 l -0.635,1.27 q 0,7.62 -6.35,15.24 -5.715,6.985 -16.51,15.24 v 155.575 q 0,5.715 1.905,8.255 l 8.255,20.32 -1.27,-0.635 v 3.81 q -15.24,0 -17.78,-0.635 h -3.81 q -13.335,0 -32.385,3.81 -19.05,4.445 -45.085,12.7 -36.195,11.43 -52.705,11.43 -17.78,0 -27.305,-3.81 -25.4,-9.525 -25.4,-48.26 v -161.29 q 0,-5.08 -7.62,-11.43 -7.62,-6.985 -13.335,-6.985 h -1.27 l -1.905,-0.635 h -4.445 l -1.27,-0.635 h -3.81 v -4.445 l 66.675,-53.34 q 20.32,4.445 31.75,27.305 3.175,5.715 3.175,13.97 v 175.895 q 0,13.97 10.795,22.225 10.795,7.62 26.67,7.62 22.225,0 22.225,-13.97 v -153.035 q -12.7,-3.81 -19.685,-14.605 l -8.89,5.715 -10.16,-15.875 68.58,-52.07 q 25.4,33.655 46.99,33.655 6.35,0 15.24,-5.715 v 8.255 z m 104.7747,248.92 q -10.16,-0.635 -20.32,-4.445 -10.16,-3.175 -19.05,-10.795 -19.05,-15.24 -19.05,-34.925 v -160.02 q -9.525,-0.635 -14.605,-11.43 l -8.89,5.08 -8.89,-12.7 1.905,-3.175 0.635,0.635 1.27,-1.27 1.27,-0.635 q 6.35,-5.715 13.97,-12.7 7.62,-7.62 20.32,-18.415 6.985,-4.445 17.145,-13.97 l 2.54,-1.905 q 1.905,-1.905 3.81,-3.81 v -7.62 q 26.035,36.83 45.72,36.83 4.445,0 20.32,-8.89 v 7.62 q -1.27,3.81 -1.27,8.89 -5.08,14.605 -13.335,24.13 -8.255,8.89 -17.145,12.7 v 135.255 q 0,3.81 3.175,10.16 5.715,12.065 26.035,12.065 6.985,0 16.51,-3.81 l 2.54,4.445 z m -17.145,-297.815 h -5.08 v -0.635 h -6.35 l -1.27,-0.635 q -24.13,0 -29.845,-19.685 l -10.16,5.08 -8.255,-13.97 q 5.08,-5.08 10.795,-7.62 5.715,-3.175 10.795,-5.715 l -1.27,1.27 q 1.905,-1.27 5.08,-3.81 3.81,-3.175 6.985,-5.715 4.445,-3.175 10.16,-7.62 6.35,-4.445 13.335,-9.525 16.51,24.13 34.29,24.13 3.175,-1.27 5.08,-1.27 2.54,-0.635 5.715,-1.905 h -0.635 l 1.27,-1.27 h 0.635 l 0.635,-0.635 h 0.635 l 0.635,-0.635 h 4.445 v 5.715 q 0,8.89 -4.445,17.145 -3.81,7.62 -10.795,13.97 -6.35,5.715 -15.24,9.525 -8.255,3.81 -17.145,3.81 z m 79.3745,247.015 q -1.27,1.905 -1.27,2.54 0.635,0 1.905,-1.905 z m 211.455,-26.67 v -189.23 q -53.34,-17.145 -105.41,-35.56 -49.53,29.21 -102.235,45.72 v 1.27 q 0,6.985 9.525,19.685 v 167.64 l -6.985,10.16 q -1.905,2.54 -3.81,4.445 l -1.905,3.175 q 52.705,6.35 111.125,63.5 l 42.545,-45.085 48.26,45.085 56.515,-64.135 -23.495,-3.175 q -17.145,-2.54 -24.13,-23.495 z m -74.295,18.415 q -22.225,-17.145 -53.34,-32.385 v -161.29 l -2.54,-1.905 v -0.635 q 3.81,0 55.88,22.86 z m 210.8198,46.99 q -33.02,-31.115 -64.135,-31.115 -14.605,0 -21.59,10.795 v -8.89 q 0,-1.905 5.08,-14.605 8.89,-19.05 24.13,-27.305 v -153.67 h -10.795 q -4.445,2.54 -10.16,3.81 -0.635,0.635 -5.715,1.905 l -0.635,1.27 h -1.27 l -6.985,3.81 v -4.445 q 0,-2.54 0.635,-3.81 v -1.905 l 0.635,-1.27 q 0,-2.54 0.635,-3.81 v -4.445 q 0,-1.905 0,-3.81 0.635,-1.905 1.27,-4.445 v -3.81 l -0.635,-1.905 v -5.715 q -2.54,-6.985 -2.54,-22.86 8.255,4.445 13.335,6.35 5.715,1.905 8.89,2.54 1.27,-0.635 8.255,-0.635 h 5.08 v -28.575 l -0.635,-1.27 v -6.985 q -0.635,-0.635 -1.27,-1.905 -0.635,-1.27 -1.27,-2.54 0,-1.905 -0.635,-3.175 v -0.635 q -1.27,-1.27 -1.27,-5.08 l 4.445,-1.27 0.635,1.27 h 3.175 v 0.635 q 35.56,0 67.31,-39.37 v 8.255 l -0.635,0.635 q -0.635,1.27 -1.27,3.81 0,2.54 -1.27,6.35 v 0.635 q 0,1.905 -0.635,3.175 -2.54,10.16 -2.54,15.24 v 50.8 h 19.685 l 1.27,0.635 q 10.16,0 22.225,-8.89 v 6.985 q -0.635,1.27 -0.635,3.81 -1.905,3.175 -1.905,15.875 h 0.635 q 0,13.335 3.175,35.56 l -6.985,-3.81 -0.635,-0.635 h -0.635 q -6.985,-2.54 -15.875,-3.81 -8.89,-1.905 -20.32,-2.54 v 146.05 q 4.445,4.445 10.16,4.445 l 1.905,0.635 q 1.905,0.635 2.54,1.27 1.905,1.905 3.81,1.905 0.635,0.635 1.27,1.27 1.27,0 1.905,0.635 h -0.635 q 1.905,1.27 4.445,3.81 3.175,1.905 6.985,3.81 l 6.35,-6.35 12.7,14.605 z m 327.0251,-250.19 q 0,1.905 -0.635,5.08 -6.985,24.13 -22.225,33.02 l 0.635,165.1 v -0.635 q 5.08,14.605 13.97,26.035 v -0.635 l 1.27,1.27 v 0.635 l 1.27,1.27 -3.175,4.445 q -12.065,-6.35 -33.02,-6.35 -33.02,0 -34.925,10.795 l 4.445,4.445 h -3.81 q 1.27,1.905 4.445,5.08 3.81,3.175 8.89,7.62 31.115,25.4 31.115,51.435 0,24.13 -22.86,38.1 -8.89,5.715 -12.7,5.715 l -1.27,0.635 h -3.81 l -0.635,0.635 h -2.54 q -19.05,0 -26.67,-18.415 20.32,-7.62 20.32,-21.59 0,-11.43 -6.985,-19.685 -1.905,-0.635 -2.54,-6.35 l 0.635,0.635 q -12.065,-17.78 -12.065,-38.735 0,-14.605 7.62,-19.05 v -0.635 q 6.985,-6.985 6.985,-15.24 v -164.465 q -6.35,0 -17.78,-7.62 -12.7,-8.255 -15.24,-10.795 l -0.635,-0.635 -27.94,20.955 v 131.445 q 2.54,0.635 5.715,1.905 3.175,1.27 7.62,2.54 10.16,5.08 17.145,10.795 7.62,5.715 12.7,12.065 l -58.42,53.34 q -35.56,-34.29 -64.77,-34.29 h -3.175 q -1.27,0 -3.81,0.635 -2.54,0.635 -7.62,3.175 -3.175,1.27 -6.985,1.905 -3.81,0.635 -5.08,0.635 8.89,-34.925 40.005,-48.26 v -266.065 q 0,-12.065 -12.065,-38.1 18.415,0 36.83,-7.62 18.415,-7.62 38.735,-22.225 1.27,-0.635 13.97,-11.43 l -0.635,0.635 5.08,0.635 q -1.27,3.81 -3.175,8.255 -1.27,4.445 -1.905,6.35 l -1.905,3.81 q -2.54,5.08 -5.08,19.05 -0.635,0.635 -0.635,1.27 v 0.635 q -1.27,6.985 -1.905,11.43 -0.635,4.445 -0.635,6.35 v 119.38 l 80.01,-60.96 q 17.145,34.925 36.195,34.925 0.635,0.635 3.81,0.635 8.255,0 31.75,-14.605 v 8.89 q 0,1.905 -0.635,3.175 0,1.27 -0.635,3.175 -0.635,1.905 -0.635,4.445 z m 10.1604,211.455 q -1.27,1.905 -1.27,2.54 0.635,0 1.905,-1.905 z m 211.455,-26.67 v -189.23 q -53.34,-17.145 -105.41,-35.56 -49.53,29.21 -102.235,45.72 v 1.27 q 0,6.985 9.525,19.685 v 167.64 l -6.985,10.16 q -1.905,2.54 -3.81,4.445 l -1.905,3.175 q 52.705,6.35 111.125,63.5 l 42.545,-45.085 48.26,45.085 56.515,-64.135 -23.495,-3.175 q -17.145,-2.54 -24.13,-23.495 z m -74.295,18.415 q -22.225,-17.145 -53.34,-32.385 v -161.29 l -2.54,-1.905 v -0.635 q 3.81,0 55.88,22.86 z m 353.06,-194.945 q 1.905,0.635 1.905,3.81 0,5.08 -7.62,19.05 v 184.15 h 24.765 q -6.35,0 -57.785,59.055 -2.54,-10.795 -57.15,-62.865 h 14.605 v -176.53 l -24.765,-20.955 -32.385,24.765 v 173.99 h 27.305 q -41.91,24.765 -56.515,46.99 -11.43,16.51 -12.7,16.51 -0.635,0 -0.635,-0.635 l 0.635,-1.27 q -5.715,-25.4 -59.055,-56.515 l -1.27,-3.81 h 24.765 v -165.1 q -8.89,-34.925 -29.845,-36.195 l 55.88,-41.91 q 40.64,23.495 46.99,33.655 14.605,-1.27 65.405,-34.925 l 8.255,-6.35 q 43.18,34.29 69.215,45.085 z"
   id="text4"
   style="font-size:635px;font-family:Ancient;-inkscape-font-specification:'Ancient, Normal';dominant-baseline:middle;text-anchor:middle;fill:url(#linearGradient1);stroke-width:37.1"
   inkscape:label="reworked_LEVIATHAN_LOGO"
   aria-label="Leviathan" />
        
        
        
        
        
        
        
        
        <text
   id="text5"
   x="456.314"
   y="774.29388"
   style="font-style:normal;font-variant:normal;font-weight:normal;font-stretch:normal;font-size:282.223px;font-family:Rubik;-inkscape-font-specification:'Rubik, @wght=400';font-variant-ligatures:normal;font-variant-caps:normal;font-variant-numeric:normal;font-variant-east-asian:normal;font-variation-settings:'wght' 400;dominant-baseline:middle;text-anchor:middle;display:none;fill:#ffffff"
   xml:space="preserve">LIN</text>
        
        
        
        
        
        
        
        
        
        
        
        
        
        
        
        
        
        
        
        
        
        
        
        <path
   d="m 1617.4964,870.22763 q -3.175,0 -5.08,-1.48166 -1.6933,-1.48167 -2.7517,-3.81001 l -39.1584,-98.21349 q -0.4233,-1.05834 -0.4233,-2.11667 0,-1.90501 1.27,-3.17501 1.27,-1.27 3.175,-1.27 h 10.16 q 2.3284,0 3.5984,1.27 1.27,1.27 1.4816,2.32834 l 32.3851,83.3968 32.1734,-83.3968 q 0.4233,-1.05834 1.4816,-2.32834 1.27,-1.27 3.5984,-1.27 h 10.3717 q 1.6933,0 2.9633,1.27 1.4817,1.27 1.4817,3.17501 0,1.05833 -0.4234,2.11667 l -39.37,98.21349 q -0.8467,2.32834 -2.7517,3.81001 -1.6933,1.48166 -5.08,1.48166 z m 83.8203,0 q -2.1166,0 -3.5983,-1.27 -1.27,-1.48167 -1.27,-3.59834 V 765.02913 q 0,-2.11667 1.27,-3.38667 1.4817,-1.48167 3.5983,-1.48167 h 10.16 q 2.1167,0 3.3867,1.48167 1.27,1.27 1.27,3.38667 v 100.33016 q 0,2.11667 -1.27,3.59834 -1.27,1.27 -3.3867,1.27 z m -1.6933,-130.59854 q -2.1167,0 -3.5984,-1.27 -1.27,-1.48167 -1.27,-3.59834 v -11.43002 q 0,-2.11667 1.27,-3.38667 1.4817,-1.48167 3.5984,-1.48167 h 13.335 q 2.1167,0 3.3867,1.48167 1.4816,1.27 1.4816,3.38667 v 11.43002 q 0,2.11667 -1.4816,3.59834 -1.27,1.27 -3.3867,1.27 z m 86.1486,132.71521 q -11.8534,0 -20.3201,-2.96333 -8.4666,-2.96334 -13.7583,-7.19668 -5.2917,-4.23334 -8.0434,-8.46668 -2.54,-4.23334 -2.7516,-6.77335 -0.2117,-2.32833 1.4816,-3.59834 1.6934,-1.27 3.3867,-1.27 h 9.3134 q 1.27,0 1.905,0.42334 0.8466,0.21166 2.1166,1.69333 2.7517,2.96334 6.1384,5.92668 3.3867,2.96334 8.255,4.86834 5.08,1.905 12.4883,1.905 10.7951,0 17.7801,-4.02167 6.985,-4.23334 6.985,-12.27669 0,-5.29167 -2.9633,-8.46668 -2.7517,-3.175 -10.1601,-5.71501 -7.1966,-2.54 -19.8967,-5.29167 -12.7,-2.96334 -20.1083,-7.19668 -7.4084,-4.44501 -10.5834,-10.37168 -3.175,-6.13835 -3.175,-13.75836 0,-7.83168 4.6567,-15.02836 4.6567,-7.40834 13.5467,-12.06502 9.1017,-4.65667 22.6483,-4.65667 11.0067,0 18.8384,2.75167 7.8317,2.75167 12.9117,6.98501 5.08,4.02168 7.62,8.04335 2.54,4.02167 2.7517,6.77334 0.2116,2.11667 -1.27,3.59834 -1.4817,1.27 -3.3867,1.27 h -8.89 q -1.4817,0 -2.54,-0.635 -0.8467,-0.635 -1.6933,-1.48167 -2.1167,-2.75167 -5.0801,-5.50334 -2.7516,-2.75167 -7.4083,-4.445 -4.445,-1.90501 -11.8534,-1.90501 -10.5833,0 -15.875,4.44501 -5.2917,4.44501 -5.2917,11.21835 0,4.02167 2.3284,7.19668 2.3283,3.175 8.89,5.71501 6.5617,2.54 19.4734,5.50334 13.97,2.75167 22.0133,7.40835 8.0434,4.65667 11.43,10.79501 3.3867,6.13835 3.3867,14.18169 0,8.89002 -5.2917,16.29836 -5.08,7.40835 -15.24,11.85335 -9.9483,4.23334 -24.765,4.23334 z m 110.9135,0 q -13.5466,0 -23.0717,-5.92667 -9.3133,-6.13834 -14.1816,-16.93336 -4.8684,-10.79502 -4.8684,-24.76504 v -59.6901 q 0,-2.11667 1.27,-3.38667 1.4817,-1.48167 3.5984,-1.48167 h 10.5833 q 2.1167,0 3.3867,1.48167 1.4816,1.27 1.4816,3.38667 v 58.63176 q 0,31.53839 27.5168,31.53839 13.1233,0 20.955,-8.25502 8.0433,-8.46668 8.0433,-23.28337 v -58.63176 q 0,-2.11667 1.27,-3.38667 1.4817,-1.48167 3.5984,-1.48167 h 10.3717 q 2.3283,0 3.5983,1.48167 1.27,1.27 1.27,3.38667 v 100.33016 q 0,2.11667 -1.27,3.59834 -1.27,1.27 -3.5983,1.27 h -9.7367 q -2.1167,0 -3.5984,-1.27 -1.27,-1.48167 -1.27,-3.59834 v -9.31335 q -5.715,7.40835 -13.97,11.85336 -8.0433,4.445 -21.3784,4.445 z m 117.0517,0 q -10.5833,0 -19.2617,-4.23334 -8.6783,-4.23334 -13.97,-11.43001 -5.2917,-7.19668 -5.2917,-16.29836 0,-14.60503 11.8534,-23.28337 11.8533,-8.67835 30.9034,-11.43002 l 31.5384,-4.44501 v -6.13834 q 0,-10.16002 -5.9267,-15.87503 -5.715,-5.71501 -18.8384,-5.71501 -9.525,0 -15.4517,3.81001 -5.715,3.81 -8.0433,9.73668 -1.27,3.17501 -4.445,3.17501 h -9.525 q -2.3284,0 -3.5984,-1.27001 -1.0583,-1.48167 -1.0583,-3.38667 0,-3.175 2.3283,-7.83168 2.54,-4.65667 7.62,-9.10168 5.08,-4.44501 12.9117,-7.40834 8.0434,-3.17501 19.4734,-3.17501 12.7,0 21.3784,3.38667 8.6783,3.17501 13.5466,8.67835 5.08,5.50334 7.1967,12.48835 2.3284,6.98501 2.3284,14.18169 v 68.58011 q 0,2.11667 -1.4817,3.59834 -1.27,1.27 -3.3867,1.27 h -9.7367 q -2.3283,0 -3.5983,-1.27 -1.27,-1.48167 -1.27,-3.59834 v -9.10168 q -2.7517,3.81001 -7.4084,7.62001 -4.6566,3.59834 -11.6416,6.13835 -6.9851,2.32833 -17.1451,2.32833 z m 4.445,-15.87502 q 8.6784,0 15.8751,-3.59834 7.1966,-3.81001 11.2183,-11.64169 4.2334,-7.83167 4.2334,-19.68503 v -5.92667 l -24.5534,3.59834 q -15.0284,2.11667 -22.6484,7.19667 -7.62,4.86835 -7.62,12.48836 0,5.92667 3.3867,9.94835 3.5983,3.81 8.89,5.71501 5.5033,1.905 11.2183,1.905 z m 86.7835,13.75835 q -2.1166,0 -3.5983,-1.27 -1.27,-1.48167 -1.27,-3.59834 V 724.8124 q 0,-2.11667 1.27,-3.38667 1.4817,-1.48167 3.5983,-1.48167 h 9.9484 q 2.3283,0 3.5983,1.48167 1.27,1.27 1.27,3.38667 v 140.54689 q 0,2.11667 -1.27,3.59834 -1.27,1.27 -3.5983,1.27 z m 51.2234,0 q -2.1166,0 -3.5983,-1.27 -1.27,-1.48167 -1.27,-3.59834 V 765.02913 q 0,-2.11667 1.27,-3.38667 1.4817,-1.48167 3.5983,-1.48167 h 10.16 q 2.1167,0 3.3867,1.48167 1.27,1.27 1.27,3.38667 v 100.33016 q 0,2.11667 -1.27,3.59834 -1.27,1.27 -3.3867,1.27 z m -1.6933,-130.59854 q -2.1167,0 -3.5983,-1.27 -1.2701,-1.48167 -1.2701,-3.59834 v -11.43002 q 0,-2.11667 1.2701,-3.38667 1.4816,-1.48167 3.5983,-1.48167 h 13.335 q 2.1167,0 3.3867,1.48167 1.4817,1.27 1.4817,3.38667 v 11.43002 q 0,2.11667 -1.4817,3.59834 -1.27,1.27 -3.3867,1.27 z m 45.9319,130.59854 q -2.1167,0 -3.5984,-1.27 -1.27,-1.48167 -1.27,-3.59834 v -7.40834 q 0,-1.90501 0.8467,-3.59834 1.0583,-1.69334 2.1167,-3.17501 l 58.4201,-74.29512 h -54.6101 q -2.1167,0 -3.5983,-1.27 -1.2701,-1.27 -1.2701,-3.59834 v -6.98501 q 0,-2.11667 1.2701,-3.38667 1.4816,-1.48167 3.5983,-1.48167 h 75.3534 q 2.1167,0 3.3867,1.48167 1.4817,1.27 1.4817,3.38667 v 7.83168 q 0,1.905 -1.0583,3.38667 -0.8467,1.48167 -1.9051,3.17501 l -57.785,74.08345 h 60.1134 q 2.1167,0 3.3867,1.27 1.4816,1.27 1.4816,3.59834 v 6.98501 q 0,2.11667 -1.4816,3.59834 -1.27,1.27 -3.3867,1.27 z m 152.3078,2.11667 q -21.8017,0 -34.7134,-13.33502 -12.9116,-13.54669 -14.1817,-36.83006 -0.2116,-2.75167 -0.2116,-6.98501 0,-4.445 0.2116,-7.19668 0.8467,-15.02835 6.9851,-26.2467 6.1383,-11.43002 16.7217,-17.56837 10.795,-6.13834 25.1883,-6.13834 16.0867,0 26.8817,6.77334 11.0067,6.77335 16.7217,19.2617 5.715,12.48836 5.715,29.21005 v 3.59834 q 0,2.32834 -1.4816,3.59834 -1.27,1.27 -3.3867,1.27 h -73.2368 q 0,0.21167 0,0.84667 0,0.635 0,1.05833 0.4233,8.67835 3.81,16.29836 3.3867,7.40835 9.7367,12.06502 6.35,4.65668 15.24,4.65668 7.62,0 12.7,-2.32834 5.0801,-2.32834 8.2551,-5.08001 3.175,-2.96334 4.2333,-4.44501 1.905,-2.75167 2.9633,-3.175 1.0584,-0.635 3.3867,-0.635 h 10.16 q 2.1167,0 3.3867,1.27 1.4817,1.05833 1.27,3.175 -0.2117,3.17501 -3.3867,7.83168 -3.175,4.44501 -9.1017,8.89002 -5.9266,4.44501 -14.3933,7.40834 -8.4667,2.75167 -19.4734,2.75167 z m -28.7867,-65.19343 h 57.9968 v -0.635 q 0,-9.52502 -3.5984,-16.93337 -3.3866,-7.40834 -9.9483,-11.64168 -6.5617,-4.44501 -15.6634,-4.44501 -9.1017,0 -15.6633,4.44501 -6.35,4.23334 -9.7367,11.64168 -3.3867,7.40835 -3.3867,16.93337 z m 108.3734,63.07676 q -2.1167,0 -3.5984,-1.27 -1.27,-1.48167 -1.27,-3.59834 V 765.2408 q 0,-2.11667 1.27,-3.59834 1.4817,-1.48167 3.5984,-1.48167 h 9.7367 q 2.1166,0 3.5983,1.48167 1.4817,1.48167 1.4817,3.59834 v 9.31335 q 4.2333,-7.19668 11.6417,-10.79502 7.4083,-3.59834 17.78,-3.59834 h 8.4667 q 2.1166,0 3.3866,1.48167 1.27,1.27 1.27,3.38667 v 8.67835 q 0,2.11667 -1.27,3.38667 -1.27,1.27 -3.3866,1.27 h -12.7001 q -11.43,0 -17.9916,6.77335 -6.5617,6.56167 -6.5617,17.99169 v 62.2301 q 0,2.11667 -1.4817,3.59834 -1.4817,1.27 -3.5983,1.27 z"
   id="text6"
   style="font-size:211.667px;font-family:Rubik;-inkscape-font-specification:'Rubik, @wght=400';font-variation-settings:'wght' 400;dominant-baseline:middle;text-anchor:middle;fill:#ffffff"
   aria-label="visualizer" />
        
      </g><g
   id="components"
   style="display:none"><ellipse
     style="display:inline;fill:#ff0000;fill-opacity:1;fill-rule:evenodd;stroke-width:30.9013"
     id="LIN_LOG_1"
     cx="1177.5327"
     cy="5792.6074"
     rx="294.84427"
     ry="295.80988" /><ellipse
     style="display:inline;fill:#ff0000;fill-opacity:1;fill-rule:evenodd;stroke-width:30.9013"
     id="AMP"
     cx="724.64429"
     cy="2871.01"
     rx="294.84427"
     ry="295.80988" /><ellipse
     style="display:inline;fill:#ff0000;fill-opacity:1;fill-rule:evenodd;stroke-width:30.9013"
     id="FALL_1"
     cx="3290.7402"
     cy="5307.9067"
     rx="294.84427"
     ry="295.80988" /><ellipse
     style="display:inline;fill:#ff0000;fill-opacity:1;fill-rule:evenodd;stroke-width:30.9013"
     id="CYCLE_1"
     cx="3307.5281"
     cy="2013.8008"
     rx="294.84427"
     ry="295.80988" /><ellipse
     style="display:inline;fill:#ff0000;fill-opacity:1;fill-rule:evenodd;stroke-width:30.9013"
     id="RISE_1"
     cx="3290.7441"
     cy="3629.2629"
     rx="294.84427"
     ry="295.80988" /><ellipse
     style="display:inline;fill:#ff00ff;fill-opacity:1;fill-rule:evenodd;stroke-width:3.60597"
     id="EoR_LED"
     cx="1593.6866"
     cy="9676.0312"
     rx="114.98675"
     ry="120.83137" /><ellipse
     style="display:inline;fill:#ff00ff;fill-opacity:1;fill-rule:evenodd;stroke-width:3.60597"
     id="OUT_LED"
     cx="1594.6865"
     cy="11075.845"
     rx="114.98675"
     ry="120.83137" /><ellipse
     style="display:inline;fill:#0000ff;fill-opacity:1;fill-rule:evenodd;stroke-width:38.302"
     id="EoR"
     cx="943.69867"
     cy="9694.5723"
     rx="398.39865"
     ry="405.17139" /><ellipse
     style="display:inline;fill:#0000ff;fill-opacity:1;fill-rule:evenodd;stroke-width:38.302"
     id="OUT"
     cx="944.70752"
     cy="11068.226"
     rx="398.39865"
     ry="405.17139" /><ellipse
     style="display:inline;fill:#00ff00;fill-opacity:1;fill-rule:evenodd;stroke-width:38.302"
     id="INPUT_1_TRIG"
     cx="1994.2986"
     cy="1665.4272"
     rx="398.39865"
     ry="405.17139" /><ellipse
     style="display:inline;fill:#00ff00;fill-opacity:1;fill-rule:evenodd;stroke-width:38.3021"
     id="CH1_FALL_CV"
     cx="2360.3987"
     cy="6326.3164"
     rx="398.39865"
     ry="405.17142" /><ellipse
     style="display:inline;fill:#00ff00;fill-opacity:1;fill-rule:evenodd;stroke-width:38.3021"
     id="CH1_BOTH_CV"
     cx="1994.2557"
     cy="4489.7715"
     rx="398.39865"
     ry="405.17142" /><ellipse
     style="display:inline;fill:#00ff00;fill-opacity:1;fill-rule:evenodd;stroke-width:38.3021"
     id="CH1_RISE_CV"
     cx="1994.2986"
     cy="3241.5713"
     rx="398.39865"
     ry="405.17142" /><ellipse
     style="display:inline;fill:#00ff00;fill-opacity:1;fill-rule:evenodd;stroke-width:38.3021"
     id="CV_HALT"
     cx="720.69867"
     cy="4036.6716"
     rx="398.39865"
     ry="405.17142" /><ellipse
     style="display:inline;fill:#00ff00;fill-opacity:1;fill-rule:evenodd;stroke-width:38.3021"
     id="INPUT"
     cx="724.70056"
     cy="1665.4274"
     rx="398.39865"
     ry="405.17142" /><ellipse
     style="display:inline;fill:#ff00ff;fill-opacity:1;fill-rule:evenodd;stroke-width:3.60597"
     id="CYCLE_LED"
     cx="3307.5261"
     cy="1405.5314"
     rx="114.98675"
     ry="120.83137" /><ellipse
     style="display:inline;fill:#0000ff;fill-opacity:1;fill-rule:evenodd;stroke-width:38.302"
     id="OUT_NEG"
     cx="2655.1987"
     cy="11088.226"
     rx="398.39865"
     ry="405.17139" /><ellipse
     style="display:inline;fill:#ff00ff;fill-opacity:1;fill-rule:evenodd;stroke-width:3.60597"
     id="OUT_NEG_LED"
     cx="3357.8699"
     cy="11094.092"
     rx="114.98675"
     ry="120.83137" /><ellipse
     style="display:inline;fill:#ff00ff;fill-opacity:1;fill-rule:evenodd;stroke-width:3.60597"
     id="EoC_LED"
     cx="3364.5483"
     cy="9695.2383"
     rx="114.98675"
     ry="120.83137" /><ellipse
     style="display:inline;fill:#0000ff;fill-opacity:1;fill-rule:evenodd;stroke-width:43.9097"
     id="EoC"
     cx="2659.5144"
     cy="9691.5117"
     rx="387.49817"
     ry="405.17139" /></g>
<rect
   style="display:inline;opacity:1;fill:#000000;fill-opacity:1;fill-rule:nonzero;stroke:#1ccad8;stroke-width:23.3012;stroke-linecap:round;stroke-linejoin:round;stroke-dasharray:none;stroke-opacity:1"
   id="scope"
   width="3855.6331"
   height="10942.057"
   x="111.38239"
   y="1094.0403" /><rect
   style="display:none;fill:#000000;fill-opacity:1;stroke-width:749.023"
   id="debug_fill"
   width="4072.624"
   height="1045.613"
   x="986.18201"
   y="997.229"
   transform="matrix(0.99673573,0,0,0.99708048,-982.96276,-994.31744)" /></svg>
