<?xml version="1.0" encoding="UTF-8" standalone="no"?>
<svg
   width="81.28mm"
   height="128.5mm"
   viewBox="0 0 8128 12850"
   version="1.1"
   id="Vessel-theme-text-input"
   xmlns:xlink="http://www.w3.org/1999/xlink"
   xmlns="http://www.w3.org/2000/svg"
   xmlns:svg="http://www.w3.org/2000/svg">
  <defs
     id="defs2">
    <linearGradient
       id="vessel-edge">
      <stop
         stop-color="#ad77e7"
         id="stop1" />
      <stop
         offset="1"
         stop-color="#54d7d4"
         id="stop2" />
    </linearGradient>
    <linearGradient
       xlink:href="#linearGradient22"
       id="linearGradient36"
       gradientUnits="userSpaceOnUse"
       gradientTransform="matrix(0.9969081,0,0,0.9969081,-2022.4432,-883.02087)"
       x1="5285.1714"
       y1="1485.2018"
       x2="6945.7134"
       y2="1489.1353" />
    <linearGradient
       id="linearGradient22">
      <stop
         style="stop-color:#7a5cff;stop-opacity:1;"
         offset="0"
         id="stop22" />
      <stop
         style="stop-color:#1cccd9;stop-opacity:1;"
         offset="1"
         id="stop23" />
    </linearGradient>
  </defs>
  <g
     id="labels"
     font-family="Rubik, sans-serif"
     text-anchor="middle"
     fill="#e9edf2">
    <g
       id="theme_text_input"
       font-size="282.222"
       font-weight="600">
      <path
         d="m 581.04442,7149.9775 q -3.10444,0 -4.79778,-1.6933 -1.69333,-1.9755 -1.69333,-4.7978 v -184.2909 q 0,-3.1045 1.69333,-4.7978 1.69334,-1.9756 4.79778,-1.9756 h 14.39332 q 3.10444,0 4.79777,1.9756 1.97556,1.6933 1.97556,4.7978 v 77.8932 h 97.08436 v -77.8932 q 0,-3.1045 1.69333,-4.7978 1.97556,-1.9756 4.79778,-1.9756 h 14.39332 q 3.10444,0 4.79777,1.9756 1.97555,1.6933 1.97555,4.7978 v 184.2909 q 0,2.8223 -1.97555,4.7978 -1.69333,1.6933 -4.79777,1.6933 h -14.39332 q -2.82222,0 -4.79778,-1.6933 -1.69333,-1.9755 -1.69333,-4.7978 v -80.9977 h -97.08436 v 80.9977 q 0,2.8223 -1.97556,4.7978 -1.69333,1.6933 -4.79777,1.6933 z m 201.5067,0 q -3.10444,0 -4.79778,-1.6933 -1.69333,-1.9755 -1.69333,-4.7978 v -184.5731 q 0,-2.8223 1.69333,-4.5156 1.69334,-1.9756 4.79778,-1.9756 h 14.95776 q 2.82222,0 4.51555,1.9756 1.97556,1.6933 1.97556,4.5156 v 184.5731 q 0,2.8223 -1.97556,4.7978 -1.69333,1.6933 -4.51555,1.6933 z m 120.22676,0 q -2.82222,0 -4.79777,-1.6933 -1.69334,-1.9755 -1.69334,-4.7978 v -165.9465 h -54.18662 q -2.82222,0 -4.79777,-1.6933 -1.69333,-1.9756 -1.69333,-4.7978 v -11.8533 q 0,-3.1045 1.69333,-4.7978 1.97555,-1.9756 4.79777,-1.9756 h 136.031 q 3.10444,0 4.79777,1.9756 1.97556,1.6933 1.97556,4.7978 v 11.8533 q 0,2.8222 -1.97556,4.7978 -1.69333,1.6933 -4.79777,1.6933 h -53.9044 v 165.9465 q 0,2.8223 -1.97555,4.7978 -1.69334,1.6933 -4.79778,1.6933 z"
         id="text5"
         style="font-weight:normal;-inkscape-font-specification:'Rubik, sans-serif, @wght=400';font-variation-settings:'wght' 400;text-anchor:start"
         aria-label="HIT" />
      <path
         d="m 7037.8271,7149.9775 q -3.1045,0 -4.7978,-1.6933 -1.6933,-1.9755 -1.6933,-4.7978 v -184.2909 q 0,-3.1045 1.6933,-4.7978 1.6933,-1.9756 4.7978,-1.9756 h 68.8621 q 31.8911,0 50.5178,14.9578 18.6266,14.9578 18.6266,44.3089 0,21.7311 -11.0066,35.5599 -10.7245,13.5467 -29.3511,18.9089 l 43.4622,75.0711 q 0.8466,1.6933 0.8466,3.1044 0,2.2578 -1.9755,3.9511 -1.6934,1.6933 -3.9511,1.6933 h -13.5467 q -4.7978,0 -7.0555,-2.54 -2.2578,-2.54 -3.9511,-5.08 l -40.9222,-71.6843 h -49.3889 v 72.8132 q 0,2.8223 -1.9755,4.7978 -1.6934,1.6933 -4.7978,1.6933 z m 21.1666,-103.2932 h 46.5666 q 21.1667,0 31.6089,-8.7489 10.4422,-9.0311 10.4422,-26.5289 0,-17.2155 -10.4422,-26.2466 -10.16,-9.0311 -31.6089,-9.0311 h -46.5666 z m 231.7045,106.1155 q -23.7067,0 -40.9222,-8.4667 -16.9333,-8.4667 -26.2467,-25.6822 -9.0311,-17.4978 -9.0311,-44.8733 v -114.5821 q 0,-3.1045 1.6934,-4.7978 1.6933,-1.9756 4.7977,-1.9756 h 14.3934 q 3.1044,0 4.7977,1.9756 1.9756,1.6933 1.9756,4.7978 v 115.1465 q 0,27.6578 12.9822,40.9222 12.9822,13.2645 35.56,13.2645 22.2955,0 35.2777,-13.2645 13.2644,-13.2644 13.2644,-40.9222 v -115.1465 q 0,-3.1045 1.6934,-4.7978 1.9755,-1.9756 4.7977,-1.9756 h 14.6756 q 2.8222,0 4.5155,1.9756 1.9756,1.6933 1.9756,4.7978 v 114.5821 q 0,27.3755 -9.3133,44.8733 -9.0311,17.2155 -25.9644,25.6822 -16.9334,8.4667 -40.9222,8.4667 z m 129.8221,-2.8223 q -3.1044,0 -4.7977,-1.6933 -1.6934,-1.9755 -1.6934,-4.7978 v -184.2909 q 0,-3.1045 1.6934,-4.7978 1.6933,-1.9756 4.7977,-1.9756 h 77.3289 q 21.1666,0 34.431,7.0556 13.5467,6.7733 19.7556,18.6267 6.4911,11.8533 6.4911,26.5288 0,11.5711 -3.9511,20.0378 -3.6689,8.1844 -9.3133,13.5466 -5.6445,5.08 -11.0067,7.9022 11.0067,5.3623 19.4733,17.4978 8.7489,12.1356 8.7489,29.3511 0,15.5222 -7.0555,28.5044 -7.0556,12.9822 -21.1667,20.8844 -13.8289,7.62 -34.4311,7.62 z m 21.1667,-22.8599 h 54.4688 q 18.3445,0 28.2222,-9.8778 9.8778,-9.8778 9.8778,-24.2711 0,-14.9578 -9.8778,-24.5533 -9.8777,-9.8778 -28.2222,-9.8778 h -54.4688 z m 0,-91.1577 h 51.9288 q 18.0622,0 27.3756,-8.1845 9.3133,-8.4666 9.3133,-22.86 0,-14.3933 -9.3133,-22.0133 -9.3134,-7.62 -27.3756,-7.62 h -51.9288 z"
         id="text6"
         style="font-weight:normal;-inkscape-font-specification:'Rubik, sans-serif, @wght=400';font-variation-settings:'wght' 400;text-anchor:end"
         aria-label="RUB" />
      <path
         d="m 742.37894,9118.471 63.78217,186.2666 v 15.2399 h -152.6821 v -15.5222 l 63.49995,-185.9843 z m 35.84219,179.211 -35.27775,-104.9866 q -4.23333,-12.7 -7.90221,-24.5533 -3.38667,-11.8533 -5.64444,-22.0133 -2.54,10.16 -5.92666,22.0133 -3.10445,11.5711 -7.05555,23.4244 l -35.84219,106.1155 z m 64.62866,22.2955 q -3.10444,0 -4.79778,-1.6933 -1.69333,-1.9755 -1.69333,-4.7978 v -184.2909 q 0,-3.1045 1.69333,-4.7978 1.69334,-1.9756 4.79778,-1.9756 h 14.39332 q 3.10444,0 4.79777,1.9756 1.97556,1.6933 1.97556,4.7978 v 77.8932 h 97.08436 v -77.8932 q 0,-3.1045 1.69333,-4.7978 1.97556,-1.9756 4.79778,-1.9756 h 14.39332 q 3.10444,0 4.79777,1.9756 1.97555,1.6933 1.97555,4.7978 v 184.2909 q 0,2.8223 -1.97555,4.7978 -1.69333,1.6933 -4.79777,1.6933 h -14.39332 q -2.82222,0 -4.79778,-1.6933 -1.69333,-1.9755 -1.69333,-4.7978 v -80.9977 h -97.08436 v 80.9977 q 0,2.8223 -1.97556,4.7978 -1.69333,1.6933 -4.79777,1.6933 z m 188.52451,0 q -2.8223,0 -4.7978,-1.6933 -1.6933,-1.9755 -1.6933,-4.7978 v -9.8777 q 0,-2.54 1.1288,-4.7978 1.4112,-2.2578 2.8223,-4.2333 l 77.8932,-99.06 h -72.8132 q -2.8223,0 -4.7978,-1.6933 -1.6933,-1.6933 -1.6933,-4.7978 v -9.3133 q 0,-2.8222 1.6933,-4.5155 1.9755,-1.9756 4.7978,-1.9756 h 100.471 q 2.8222,0 4.5155,1.9756 1.9756,1.6933 1.9756,4.5155 v 10.4422 q 0,2.54 -1.4111,4.5156 -1.1289,1.9755 -2.54,4.2333 l -77.0466,98.7777 h 80.151 q 2.8222,0 4.5156,1.6933 1.9755,1.6934 1.9755,4.7978 v 9.3133 q 0,2.8223 -1.9755,4.7978 -1.6934,1.6933 -4.5156,1.6933 z"
         id="text7"
         style="font-weight:normal;-inkscape-font-specification:'Rubik, sans-serif, @wght=400';font-variation-settings:'wght' 400"
         aria-label="ΔHz" />
      <path
         d="m 1898.2012,7969.978 q -2.8222,0 -4.7977,-1.6933 -1.6934,-1.9756 -1.6934,-4.7978 V 7779.196 q 0,-3.1045 1.6934,-4.7978 1.9755,-1.9756 4.7977,-1.9756 h 14.1111 q 3.3867,0 5.08,1.6934 1.6934,1.6933 1.9756,2.8222 l 59.8311,114.0177 60.1132,-114.0177 q 0.5645,-1.1289 1.9756,-2.8222 1.6933,-1.6934 5.08,-1.6934 h 13.8289 q 3.1044,0 4.7977,1.9756 1.9756,1.6933 1.9756,4.7978 v 184.2909 q 0,2.8222 -1.9756,4.7978 -1.6933,1.6933 -4.7977,1.6933 h -13.8289 q -2.8222,0 -4.7978,-1.6933 -1.6933,-1.9756 -1.6933,-4.7978 v -138.8532 l -47.1311,92.0044 q -1.1289,2.8222 -3.3867,4.5155 -2.2577,1.4111 -5.6444,1.4111 h -8.7489 q -3.6689,0 -5.9266,-1.4111 -1.9756,-1.6933 -3.3867,-4.5155 l -47.1311,-92.0044 v 138.8532 q 0,2.8222 -1.9755,4.7978 -1.6934,1.6933 -4.5156,1.6933 z m 224.0845,0 q -3.1045,0 -4.7978,-1.6933 -1.6933,-1.9756 -1.6933,-4.7978 V 7779.196 q 0,-3.1045 1.6933,-4.7978 1.6933,-1.9756 4.7978,-1.9756 h 116.5577 q 3.1044,0 4.7977,1.9756 1.6934,1.6933 1.6934,4.7978 v 10.7244 q 0,3.1044 -1.6934,4.7978 -1.6933,1.6933 -4.7977,1.6933 h -95.9555 v 61.8066 h 89.7466 q 3.1044,0 4.7977,1.9756 1.6934,1.6933 1.6934,4.7977 v 10.4423 q 0,2.8222 -1.6934,4.7977 -1.6933,1.6934 -4.7977,1.6934 h -89.7466 v 64.0644 h 98.2132 q 3.1045,0 4.7978,1.6933 1.6933,1.6933 1.6933,4.7978 v 11.0066 q 0,2.8222 -1.6933,4.7978 -1.6933,1.6933 -4.7978,1.6933 z m 214.2067,0 q -2.8222,0 -4.7978,-1.6933 -1.6933,-1.9756 -1.6933,-4.7978 v -165.9465 h -54.1866 q -2.8222,0 -4.7978,-1.6933 -1.6933,-1.9756 -1.6933,-4.7978 v -11.8533 q 0,-3.1045 1.6933,-4.7978 1.9756,-1.9756 4.7978,-1.9756 h 136.031 q 3.1044,0 4.7978,1.9756 1.9755,1.6933 1.9755,4.7978 v 11.8533 q 0,2.8222 -1.9755,4.7978 -1.6934,1.6933 -4.7978,1.6933 h -53.9044 v 165.9465 q 0,2.8222 -1.9756,4.7978 -1.6933,1.6933 -4.7977,1.6933 z m 79.6219,0 q -2.2578,0 -3.9511,-1.6933 -1.6934,-1.6933 -1.6934,-3.9511 0,-1.4111 0.2823,-3.1045 l 69.991,-182.5976 q 1.1289,-2.8222 3.1045,-4.5155 1.9755,-1.6934 5.9266,-1.6934 h 19.1911 q 3.6689,0 5.6445,1.6934 2.2577,1.6933 3.3866,4.5155 l 69.7089,182.5976 q 0.5644,1.6934 0.5644,3.1045 0,2.2578 -1.6933,3.9511 -1.6934,1.6933 -3.9511,1.6933 h -14.3934 q -3.3866,0 -5.08,-1.6933 -1.4111,-1.6933 -1.9755,-3.1044 l -15.5222,-40.0756 h -92.5688 l -15.5222,40.0756 q -0.2823,1.4111 -1.9756,3.1044 -1.6933,1.6933 -5.08,1.6933 z m 45.1555,-69.1444 h 76.1999 l -38.0999,-100.1888 z m 163.6888,69.1444 q -3.1045,0 -4.7978,-1.6933 -1.6933,-1.9756 -1.6933,-4.7978 v -184.5732 q 0,-2.8222 1.6933,-4.5155 1.6933,-1.9756 4.7978,-1.9756 h 14.9577 q 2.8223,0 4.5156,1.9756 1.6933,1.6933 1.6933,4.5155 v 166.511 h 93.9799 q 3.1045,0 4.7978,1.9756 1.6933,1.6933 1.6933,4.7977 v 11.2889 q 0,2.8222 -1.6933,4.7978 -1.6933,1.6933 -4.7978,1.6933 z"
         id="text8"
         style="font-weight:normal;-inkscape-font-specification:'Rubik, sans-serif, @wght=400';font-variation-settings:'wght' 400"
         aria-label="METAL" />
      <path
         d="m 1802.7401,9322.7783 q -25.9644,0 -43.1799,-9.5956 -16.9334,-9.5955 -25.6822,-26.8111 -8.7489,-17.2155 -9.5956,-40.0755 -0.2822,-11.5711 -0.2822,-24.8355 0,-13.2645 0.2822,-25.4 0.8467,-22.86 9.5956,-40.0755 8.7488,-17.2156 25.6822,-26.8111 17.2155,-9.5956 43.1799,-9.5956 19.4733,0 34.1489,5.3623 14.6755,5.3622 24.2711,14.3933 9.8777,9.0311 14.9577,20.32 5.08,11.0066 5.6445,22.8599 0.2822,2.54 -1.6933,4.2334 -1.6934,1.6933 -4.2334,1.6933 h -15.5222 q -2.54,0 -4.5155,-1.4111 -1.6934,-1.4111 -2.54,-5.08 -4.7978,-22.0133 -18.0622,-30.1977 -12.9823,-8.1845 -32.7378,-8.1845 -22.5778,0 -35.8422,12.9822 -13.2644,12.7 -14.3933,40.9222 -0.8467,23.1422 0,47.4133 1.1289,28.2222 14.3933,41.2044 13.2644,12.7 35.8422,12.7 19.7555,0 32.7378,-8.1844 13.2644,-8.1845 18.0622,-30.1978 0.8466,-3.6689 2.54,-5.08 1.9755,-1.4111 4.5155,-1.4111 h 15.5222 q 2.54,0 4.2334,1.6933 1.9755,1.6934 1.6933,4.2334 -0.5645,11.8533 -5.6445,23.1422 -5.08,11.0066 -14.9577,20.0377 -9.5956,9.0311 -24.2711,14.3934 -14.6756,5.3622 -34.1489,5.3622 z m 123.3311,-2.8222 q -3.1044,0 -4.7977,-1.6934 -1.6934,-1.9755 -1.6934,-4.7978 V 9129.174 q 0,-3.1044 1.6934,-4.7978 1.6933,-1.9755 4.7977,-1.9755 h 68.8622 q 31.8911,0 50.5177,14.9577 18.6267,14.9578 18.6267,44.3089 0,21.7311 -11.0067,35.56 -10.7244,13.5466 -29.3511,18.9088 l 43.4622,75.0711 q 0.8467,1.6933 0.8467,3.1044 0,2.2578 -1.9756,3.9511 -1.6933,1.6934 -3.9511,1.6934 h -13.5466 q -4.7978,0 -7.0556,-2.54 -2.2577,-2.54 -3.9511,-5.08 l -40.9222,-71.6844 h -49.3888 v 72.8132 q 0,2.8223 -1.9756,4.7978 -1.6933,1.6934 -4.7977,1.6934 z m 21.1667,-103.2933 h 46.5666 q 21.1667,0 31.6089,-8.7489 10.4422,-9.0311 10.4422,-26.5288 0,-17.2156 -10.4422,-26.2467 -10.16,-9.0311 -31.6089,-9.0311 h -46.5666 z m 209.6028,103.2933 q -2.8222,0 -4.7978,-1.6934 -1.6933,-1.9755 -1.6933,-4.7978 v -66.6043 l -68.0155,-115.1466 q -0.2822,-0.8467 -0.5645,-1.6933 -0.2822,-0.8467 -0.2822,-1.9756 0,-2.2578 1.6934,-3.9511 1.6933,-1.6933 3.9511,-1.6933 h 14.6755 q 2.54,0 4.5156,1.4111 1.9755,1.1289 2.8222,3.3866 l 55.0333,91.44 55.0333,-91.44 q 1.4111,-2.2577 3.1044,-3.3866 1.9755,-1.4111 4.5155,-1.4111 h 14.3934 q 2.54,0 4.2333,1.6933 1.6933,1.6933 1.6933,3.9511 0,1.1289 -0.2822,1.9756 -0.2822,0.8466 -0.8467,1.6933 l -67.7332,115.1466 v 66.6043 q 0,2.8223 -1.9756,4.7978 -1.6933,1.6934 -4.7978,1.6934 z m 180.2334,2.8222 q -24.5533,0 -41.2044,-7.3378 -16.6511,-7.62 -25.6822,-19.4733 -8.7489,-12.1356 -9.3133,-25.6822 0,-2.2578 1.6933,-3.9511 1.9756,-1.9756 4.5156,-1.9756 h 14.3933 q 3.3866,0 5.08,1.6934 1.6933,1.6933 2.2578,3.9511 1.4111,6.7733 6.7733,13.5466 5.6444,6.4911 15.5222,11.0067 10.16,4.2333 25.9644,4.2333 24.2711,0 35.56,-8.4667 11.5711,-8.7488 11.5711,-23.1422 0,-9.8777 -6.2089,-15.8044 -5.9267,-6.2089 -18.3444,-11.0066 -12.4178,-4.7978 -32.1733,-10.4423 -20.6022,-5.9266 -34.1489,-12.9822 -13.5466,-7.0555 -20.32,-17.4977 -6.4911,-10.4422 -6.4911,-26.5289 0,-15.24 8.1845,-27.0933 8.1844,-12.1356 23.4244,-19.1911 15.5222,-7.0556 37.5355,-7.0556 17.4978,0 30.48,4.7978 13.2644,4.5156 22.0133,12.4178 8.7489,7.62 13.2644,16.6511 4.5156,8.7489 4.7978,17.2155 0,1.9756 -1.4111,3.9511 -1.4111,1.6934 -4.5156,1.6934 h -14.9577 q -1.9756,0 -4.2334,-1.1289 -1.9755,-1.1289 -3.1044,-4.2334 -1.6933,-11.5711 -12.9822,-19.4733 -11.2889,-7.9022 -29.3511,-7.9022 -18.3444,0 -29.9155,7.0556 -11.2889,7.0555 -11.2889,22.0133 0,9.5955 5.3622,16.0866 5.3622,6.2089 16.9333,11.0067 11.5711,4.7978 30.1978,10.16 22.5777,6.2089 36.9711,13.2644 14.3933,6.7733 21.1666,17.2156 7.0556,10.1599 7.0556,26.2466 0,17.78 -9.3134,30.48 -9.3133,12.4177 -26.2466,19.1911 -16.6511,6.4911 -39.5111,6.4911 z m 159.5083,-2.8222 q -2.8222,0 -4.7978,-1.6934 -1.6933,-1.9755 -1.6933,-4.7978 v -165.9465 h -54.1866 q -2.8223,0 -4.7978,-1.6933 -1.6933,-1.9756 -1.6933,-4.7978 v -11.8533 q 0,-3.1044 1.6933,-4.7978 1.9755,-1.9755 4.7978,-1.9755 h 136.031 q 3.1044,0 4.7977,1.9755 1.9756,1.6934 1.9756,4.7978 v 11.8533 q 0,2.8222 -1.9756,4.7978 -1.6933,1.6933 -4.7977,1.6933 h -53.9044 v 165.9465 q 0,2.8223 -1.9756,4.7978 -1.6933,1.6934 -4.7978,1.6934 z m 79.6219,0 q -2.2578,0 -3.9511,-1.6934 -1.6934,-1.6933 -1.6934,-3.9511 0,-1.4111 0.2822,-3.1044 l 69.9911,-182.5977 q 1.1289,-2.8222 3.1044,-4.5155 1.9756,-1.6933 5.9267,-1.6933 h 19.1911 q 3.6689,0 5.6444,1.6933 2.2578,1.6933 3.3867,4.5155 l 69.7088,182.5977 q 0.5645,1.6933 0.5645,3.1044 0,2.2578 -1.6934,3.9511 -1.6933,1.6934 -3.9511,1.6934 h -14.3933 q -3.3866,0 -5.08,-1.6934 -1.4111,-1.6933 -1.9755,-3.1044 l -15.5222,-40.0755 h -92.5689 l -15.5222,40.0755 q -0.2822,1.4111 -1.9755,3.1044 -1.6933,1.6934 -5.08,1.6934 z m 45.1555,-69.1444 h 76.1999 l -38.0999,-100.1888 z m 163.6888,69.1444 q -3.1045,0 -4.7978,-1.6934 -1.6934,-1.9755 -1.6934,-4.7978 v -184.5731 q 0,-2.8222 1.6934,-4.5156 1.6933,-1.9755 4.7978,-1.9755 h 14.9577 q 2.8222,0 4.5156,1.9755 1.6933,1.6934 1.6933,4.5156 v 166.5109 h 93.9799 q 3.1045,0 4.7978,1.9756 1.6933,1.6933 1.6933,4.7978 v 11.2888 q 0,2.8223 -1.6933,4.7978 -1.6933,1.6934 -4.7978,1.6934 z"
         id="text9"
         style="font-weight:normal;-inkscape-font-specification:'Rubik, sans-serif, @wght=400';font-variation-settings:'wght' 400"
         aria-label="CRYSTAL" />
      <path
         d="m 3590.0912,9379.9551 q -3.1044,0 -4.7978,-1.6934 -1.6933,-1.9755 -1.6933,-4.7977 v -184.291 q 0,-3.1044 1.6933,-4.7978 1.6934,-1.9755 4.7978,-1.9755 h 115.1466 q 3.1044,0 4.7978,1.9755 1.6933,1.6934 1.6933,4.7978 v 11.2889 q 0,3.1044 -1.6933,4.7978 -1.6934,1.6933 -4.7978,1.6933 h -94.2622 v 65.7577 h 88.6177 q 3.1045,0 4.7978,1.9756 1.6933,1.6933 1.6933,4.7978 v 11.2888 q 0,2.8223 -1.6933,4.7978 -1.6933,1.6933 -4.7978,1.6933 h -88.6177 v 76.2 q 0,2.8222 -1.9755,4.7977 -1.6934,1.6934 -4.7978,1.6934 z m 164.8175,0 q -3.1044,0 -4.7977,-1.6934 -1.6934,-1.9755 -1.6934,-4.7977 v -184.291 q 0,-3.1044 1.6934,-4.7978 1.6933,-1.9755 4.7977,-1.9755 h 68.8622 q 31.8911,0 50.5177,14.9578 18.6267,14.9577 18.6267,44.3088 0,21.7311 -11.0067,35.56 -10.7244,13.5466 -29.351,18.9088 l 43.4621,75.0711 q 0.8467,1.6933 0.8467,3.1044 0,2.2578 -1.9756,3.9511 -1.6933,1.6934 -3.9511,1.6934 h -13.5466 q -4.7978,0 -7.0556,-2.54 -2.2577,-2.54 -3.9511,-5.08 l -40.9222,-71.6844 h -49.3888 v 72.8133 q 0,2.8222 -1.9756,4.7977 -1.6933,1.6934 -4.7977,1.6934 z m 21.1667,-103.2933 h 46.5666 q 21.1667,0 31.6089,-8.7488 10.4422,-9.0312 10.4422,-26.5289 0,-17.2156 -10.4422,-26.2467 -10.16,-9.0311 -31.6089,-9.0311 h -46.5666 z m 163.6889,103.2933 q -3.1044,0 -4.7977,-1.6934 -1.6934,-1.9755 -1.6934,-4.7977 v -184.291 q 0,-3.1044 1.6934,-4.7978 1.6933,-1.9755 4.7977,-1.9755 h 116.5577 q 3.1045,0 4.7978,1.9755 1.6933,1.6934 1.6933,4.7978 v 10.7245 q 0,3.1044 -1.6933,4.7977 -1.6933,1.6934 -4.7978,1.6934 h -95.9555 v 61.8066 h 89.7466 q 3.1045,0 4.7978,1.9755 1.6933,1.6934 1.6933,4.7978 v 10.4422 q 0,2.8222 -1.6933,4.7978 -1.6933,1.6933 -4.7978,1.6933 h -89.7466 v 64.0644 h 98.2133 q 3.1044,0 4.7978,1.6933 1.6933,1.6934 1.6933,4.7978 v 11.0067 q 0,2.8222 -1.6933,4.7977 -1.6934,1.6934 -4.7978,1.6934 z m 289.9483,18.3444 q -3.6689,0 -5.9267,-2.54 -2.2577,-2.2578 -3.6688,-3.9511 l -11.5711,-15.8044 q -15.24,6.7733 -35.2778,6.7733 -24.2711,0 -41.4866,-8.1844 -16.9333,-8.4667 -26.5289,-25.6822 -9.3133,-17.4978 -10.16,-43.7444 -0.2822,-12.4178 -0.2822,-23.7067 0,-11.5711 0.2822,-23.9889 0.8467,-25.9644 10.7244,-43.1799 9.8778,-17.4978 27.0934,-25.9644 17.4977,-8.7489 40.3577,-8.7489 23.1422,0 40.3577,8.7489 17.4978,8.4666 27.3756,25.9644 9.8777,17.2155 10.4422,43.1799 0.5644,12.4178 0.5644,23.9889 0,11.2889 -0.5644,23.7067 -1.4111,38.9466 -20.32,57.8555 l 18.6267,26.5288 q 0.2822,0.2822 0.5644,0.8467 0.2822,0.8467 0.2822,2.2578 0.2822,2.2577 -1.4111,3.9511 -1.6933,1.6933 -4.2333,1.6933 z m -56.4444,-39.5111 q 21.4489,0 35.2778,-12.9822 13.8288,-12.9822 14.9577,-42.0511 0.5645,-12.6999 0.5645,-22.5777 0,-10.16 -0.5645,-22.5778 -0.5644,-19.4733 -7.3378,-31.6088 -6.4911,-12.1356 -17.4977,-17.78 -11.0067,-5.6445 -25.4,-5.6445 -13.8289,0 -25.1178,5.6445 -11.0066,5.6444 -17.4977,17.78 -6.4911,12.1355 -7.3378,31.6088 -0.2822,12.4178 -0.2822,22.5778 0,9.8778 0.2822,22.5777 1.1289,29.0689 14.9578,42.0511 13.8289,12.9822 34.9955,12.9822 z"
         id="text10"
         style="font-weight:normal;-inkscape-font-specification:'Rubik, sans-serif, @wght=400';font-variation-settings:'wght' 400"
         aria-label="FREQ" />
      <path
         d="m 4981.4853,9319.9775 q -3.1045,0 -4.7978,-1.6933 -1.6933,-1.9755 -1.6933,-4.7978 v -184.2909 q 0,-3.1045 1.6933,-4.7978 1.6933,-1.9756 4.7978,-1.9756 h 115.1465 q 3.1045,0 4.7978,1.9756 1.6933,1.6933 1.6933,4.7978 v 11.2889 q 0,3.1044 -1.6933,4.7977 -1.6933,1.6934 -4.7978,1.6934 h -94.2621 v 65.7577 h 88.6177 q 3.1044,0 4.7978,1.9755 1.6933,1.6934 1.6933,4.7978 v 11.2889 q 0,2.8222 -1.6933,4.7978 -1.6934,1.6933 -4.7978,1.6933 h -88.6177 v 76.1999 q 0,2.8223 -1.9756,4.7978 -1.6933,1.6933 -4.7977,1.6933 z m 164.8175,0 q -3.1044,0 -4.7978,-1.6933 -1.6933,-1.9755 -1.6933,-4.7978 v -184.5731 q 0,-2.8223 1.6933,-4.5156 1.6934,-1.9756 4.7978,-1.9756 h 14.9578 q 2.8222,0 4.5155,1.9756 1.9756,1.6933 1.9756,4.5156 v 184.5731 q 0,2.8223 -1.9756,4.7978 -1.6933,1.6933 -4.5155,1.6933 z m 77.0468,0 q -3.1044,0 -4.7978,-1.6933 -1.6933,-1.9755 -1.6933,-4.7978 v -184.2909 q 0,-3.1045 1.6933,-4.7978 1.6934,-1.9756 4.7978,-1.9756 h 12.9822 q 3.3867,0 5.08,1.6934 1.6933,1.4111 1.9756,2.2578 l 93.6977,143.9332 v -141.111 q 0,-3.1045 1.6933,-4.7978 1.6933,-1.9756 4.7978,-1.9756 h 13.5466 q 3.1045,0 4.7978,1.9756 1.9756,1.6933 1.9756,4.7978 v 184.0087 q 0,2.8222 -1.9756,4.7978 -1.6933,1.9755 -4.5155,1.9755 h -13.5467 q -3.1044,0 -4.7978,-1.6933 -1.4111,-1.6933 -1.9755,-2.2578 l -93.4155,-142.5221 v 139.9821 q 0,2.8223 -1.9756,4.7978 -1.6933,1.6933 -4.7977,1.6933 z m 196.1442,0 q -3.1044,0 -4.7978,-1.6933 -1.6933,-1.9755 -1.6933,-4.7978 v -184.2909 q 0,-3.1045 1.6933,-4.7978 1.6934,-1.9756 4.7978,-1.9756 h 116.5577 q 3.1044,0 4.7978,1.9756 1.6933,1.6933 1.6933,4.7978 v 10.7244 q 0,3.1045 -1.6933,4.7978 -1.6934,1.6933 -4.7978,1.6933 h -95.9555 v 61.8066 h 89.7466 q 3.1044,0 4.7978,1.9756 1.6933,1.6933 1.6933,4.7978 v 10.4422 q 0,2.8222 -1.6933,4.7977 -1.6934,1.6934 -4.7978,1.6934 h -89.7466 v 64.0644 h 98.2133 q 3.1044,0 4.7977,1.6933 1.6934,1.6933 1.6934,4.7978 v 11.0066 q 0,2.8223 -1.6934,4.7978 -1.6933,1.6933 -4.7977,1.6933 z"
         id="text11"
         style="font-weight:normal;-inkscape-font-specification:'Rubik, sans-serif, @wght=400';font-variation-settings:'wght' 400"
         aria-label="FINE" />
      <path
         d="m 6381.6012,7969.978 q -2.8222,0 -4.7978,-1.6933 -1.6933,-1.9756 -1.6933,-4.7978 V 7779.196 q 0,-3.1045 1.6933,-4.7978 1.9756,-1.9756 4.7978,-1.9756 h 14.1111 q 3.3866,0 5.08,1.6934 1.6933,1.6933 1.9755,2.8222 l 59.8311,114.0177 60.1133,-114.0177 q 0.5644,-1.1289 1.9755,-2.8222 1.6934,-1.6934 5.08,-1.6934 h 13.8289 q 3.1044,0 4.7978,1.9756 1.9755,1.6933 1.9755,4.7978 v 184.2909 q 0,2.8222 -1.9755,4.7978 -1.6934,1.6933 -4.7978,1.6933 h -13.8289 q -2.8222,0 -4.7977,-1.6933 -1.6934,-1.9756 -1.6934,-4.7978 v -138.8532 l -47.1311,92.0044 q -1.1288,2.8222 -3.3866,4.5155 -2.2578,1.4111 -5.6445,1.4111 h -8.7488 q -3.6689,0 -5.9267,-1.4111 -1.9756,-1.6933 -3.3867,-4.5155 l -47.131,-92.0044 v 138.8532 q 0,2.8222 -1.9756,4.7978 -1.6933,1.6933 -4.5155,1.6933 z m 204.3289,0 q -2.2578,0 -3.9511,-1.6933 -1.6934,-1.6933 -1.6934,-3.9511 0,-1.4111 0.2823,-3.1045 l 69.991,-182.5976 q 1.1289,-2.8222 3.1044,-4.5155 1.9756,-1.6934 5.9267,-1.6934 h 19.1911 q 3.6689,0 5.6444,1.6934 2.2578,1.6933 3.3867,4.5155 l 69.7088,182.5976 q 0.5645,1.6934 0.5645,3.1045 0,2.2578 -1.6934,3.9511 -1.6933,1.6933 -3.9511,1.6933 h -14.3933 q -3.3866,0 -5.08,-1.6933 -1.4111,-1.6933 -1.9755,-3.1044 l -15.5222,-40.0756 h -92.5688 l -15.5223,40.0756 q -0.2822,1.4111 -1.9755,3.1044 -1.6933,1.6933 -5.08,1.6933 z m 45.1555,-69.1444 h 76.1999 l -38.0999,-100.1888 z m 163.6887,69.1444 q -3.1044,0 -4.7977,-1.6933 -1.6934,-1.9756 -1.6934,-4.7978 v -184.5732 q 0,-2.8222 1.6934,-4.5155 1.6933,-1.9756 4.7977,-1.9756 h 14.9578 q 2.8222,0 4.5156,1.9756 1.6933,1.6933 1.6933,4.5155 v 166.511 h 93.9799 q 3.1045,0 4.7978,1.9756 1.6933,1.6933 1.6933,4.7977 v 11.2889 q 0,2.8222 -1.6933,4.7978 -1.6933,1.6933 -4.7978,1.6933 z m 158.891,0 q -3.1045,0 -4.7978,-1.6933 -1.6933,-1.9756 -1.6933,-4.7978 v -184.5732 q 0,-2.8222 1.6933,-4.5155 1.6933,-1.9756 4.7978,-1.9756 h 14.9577 q 2.8223,0 4.5156,1.9756 1.6933,1.6933 1.6933,4.5155 v 166.511 h 93.9799 q 3.1045,0 4.7978,1.9756 1.6933,1.6933 1.6933,4.7977 v 11.2889 q 0,2.8222 -1.6933,4.7978 -1.6933,1.6933 -4.7978,1.6933 z m 158.8908,0 q -3.1044,0 -4.7977,-1.6933 -1.6934,-1.9756 -1.6934,-4.7978 V 7779.196 q 0,-3.1045 1.6934,-4.7978 1.6933,-1.9756 4.7977,-1.9756 h 116.5577 q 3.1045,0 4.7978,1.9756 1.6933,1.6933 1.6933,4.7978 v 10.7244 q 0,3.1044 -1.6933,4.7978 -1.6933,1.6933 -4.7978,1.6933 h -95.9555 v 61.8066 h 89.7466 q 3.1045,0 4.7978,1.9756 1.6933,1.6933 1.6933,4.7977 v 10.4423 q 0,2.8222 -1.6933,4.7977 -1.6933,1.6934 -4.7978,1.6934 h -89.7466 v 64.0644 h 98.2133 q 3.1044,0 4.7978,1.6933 1.6933,1.6933 1.6933,4.7978 v 11.0066 q 0,2.8222 -1.6933,4.7978 -1.6934,1.6933 -4.7978,1.6933 z m 214.2068,0 q -2.8222,0 -4.7978,-1.6933 -1.6933,-1.9756 -1.6933,-4.7978 v -165.9465 h -54.1866 q -2.8222,0 -4.7978,-1.6933 -1.6933,-1.9756 -1.6933,-4.7978 v -11.8533 q 0,-3.1045 1.6933,-4.7978 1.9756,-1.9756 4.7978,-1.9756 h 136.031 q 3.1044,0 4.7977,1.9756 1.9756,1.6933 1.9756,4.7978 v 11.8533 q 0,2.8222 -1.9756,4.7978 -1.6933,1.6933 -4.7977,1.6933 h -53.9044 v 165.9465 q 0,2.8222 -1.9756,4.7978 -1.6933,1.6933 -4.7978,1.6933 z"
         id="text12"
         style="font-weight:normal;-inkscape-font-specification:'Rubik, sans-serif, @wght=400';font-variation-settings:'wght' 400"
         aria-label="MALLET" />
      <path
         d="m 501.65158,10579.955 q -3.10444,0 -4.79778,-1.693 -1.69333,-1.976 -1.69333,-4.798 v -184.291 q 0,-3.104 1.69333,-4.798 1.69334,-1.975 4.79778,-1.975 h 14.39332 q 3.10444,0 4.79777,1.975 1.97556,1.694 1.97556,4.798 v 77.893 h 97.08436 v -77.893 q 0,-3.104 1.69333,-4.798 1.97555,-1.975 4.79777,-1.975 h 14.39333 q 3.10444,0 4.79777,1.975 1.97555,1.694 1.97555,4.798 v 184.291 q 0,2.822 -1.97555,4.798 -1.69333,1.693 -4.79777,1.693 h -14.39333 q -2.82222,0 -4.79777,-1.693 -1.69333,-1.976 -1.69333,-4.798 v -80.998 h -97.08436 v 80.998 q 0,2.822 -1.97556,4.798 -1.69333,1.693 -4.79777,1.693 z m 201.5067,0 q -3.10445,0 -4.79778,-1.693 -1.69333,-1.976 -1.69333,-4.798 v -184.573 q 0,-2.822 1.69333,-4.516 1.69333,-1.975 4.79778,-1.975 h 14.95776 q 2.82222,0 4.51555,1.975 1.97556,1.694 1.97556,4.516 v 184.573 q 0,2.822 -1.97556,4.798 -1.69333,1.693 -4.51555,1.693 z m 120.22676,0 q -2.82222,0 -4.79778,-1.693 -1.69333,-1.976 -1.69333,-4.798 v -165.947 h -54.18662 q -2.82222,0 -4.79777,-1.693 -1.69333,-1.975 -1.69333,-4.798 v -11.853 q 0,-3.104 1.69333,-4.798 1.97555,-1.975 4.79777,-1.975 h 136.031 q 3.10444,0 4.79777,1.975 1.97556,1.694 1.97556,4.798 v 11.853 q 0,2.823 -1.97556,4.798 -1.69333,1.693 -4.79777,1.693 h -53.9044 v 165.947 q 0,2.822 -1.97556,4.798 -1.69333,1.693 -4.79777,1.693 z m 233.38086,44.873 q -18.3444,0 -31.0444,-7.902 -12.7,-7.62 -20.32,-23.706 -7.62,-16.087 -11.28889,-40.923 -3.38666,-25.117 -3.38666,-59.549 0,-34.431 3.38666,-59.266 3.66889,-25.118 11.28889,-41.205 7.62,-16.086 20.32,-23.706 12.7,-7.62 31.0444,-7.62 2.54,0 4.5155,1.975 1.9756,1.976 1.9756,4.516 v 9.878 q 0,2.54 -1.9756,4.515 -1.6933,1.976 -3.6688,1.976 -11.8534,0.282 -20.0378,6.209 -7.9022,5.644 -12.9822,18.344 -4.7978,12.7 -7.0556,33.585 -1.9755,20.602 -1.9755,50.799 0,30.198 1.9755,51.083 2.2578,20.602 7.0556,33.584 5.08,12.7 12.9822,18.345 8.1844,5.926 20.0378,6.208 1.9755,0 3.6688,1.976 1.9756,1.976 1.9756,4.515 v 9.878 q 0,2.54 -1.9756,4.516 -1.9755,1.975 -4.5155,1.975 z m 87.7712,-44.873 q -2.8222,0 -4.7978,-1.693 -1.6933,-1.976 -1.6933,-4.798 v -165.947 h -54.1866 q -2.8222,0 -4.7978,-1.693 -1.6933,-1.975 -1.6933,-4.798 v -11.853 q 0,-3.104 1.6933,-4.798 1.9756,-1.975 4.7978,-1.975 h 136.031 q 3.1044,0 4.7978,1.975 1.9755,1.694 1.9755,4.798 v 11.853 q 0,2.823 -1.9755,4.798 -1.6934,1.693 -4.7978,1.693 h -53.9044 v 165.947 q 0,2.822 -1.9756,4.798 -1.6933,1.693 -4.7977,1.693 z m 102.4467,44.873 q -2.54,0 -4.5155,-1.975 -1.9756,-1.976 -1.9756,-4.516 v -9.878 q 0,-2.539 1.6934,-4.515 1.9755,-1.976 4.2333,-1.976 11.8533,-0.282 19.7555,-6.208 8.1845,-5.645 12.9822,-18.345 4.7978,-12.982 7.0556,-33.584 2.2578,-20.885 2.2578,-51.083 0,-30.197 -2.2578,-50.799 -2.2578,-20.885 -7.0556,-33.585 -4.7977,-12.7 -12.9822,-18.344 -7.9022,-5.927 -19.7555,-6.209 -2.2578,0 -4.2333,-1.976 -1.6934,-1.975 -1.6934,-4.515 v -9.878 q 0,-2.54 1.9756,-4.516 1.9755,-1.975 4.5155,-1.975 18.3445,0 31.0445,7.62 12.6999,7.62 20.3199,23.706 7.62,16.087 11.0067,41.205 3.6689,24.835 3.6689,59.266 0,34.432 -3.6689,59.549 -3.3867,24.836 -11.0067,40.923 -7.62,16.086 -20.3199,23.706 -12.7,7.902 -31.0445,7.902 z"
         id="text13"
         style="font-weight:normal;-inkscape-font-specification:'Rubik, sans-serif, @wght=400';font-variation-settings:'wght' 400"
         aria-label="HIT (T)" />
      <path
         d="m 2025.8689,10579.955 q -4.2334,0 -6.7734,-1.975 -2.2578,-1.976 -3.6689,-5.363 l -62.9355,-181.468 q -0.5644,-1.694 -0.5644,-3.105 0,-2.258 1.6933,-3.951 1.6934,-1.693 3.9511,-1.693 h 14.6756 q 3.3866,0 5.08,1.975 1.9755,1.694 2.2577,3.105 l 55.3156,160.02 55.3155,-160.02 q 0.5644,-1.411 2.2577,-3.105 1.6934,-1.975 5.08,-1.975 h 14.6756 q 2.2578,0 3.9511,1.693 1.9755,1.693 1.9755,3.951 0,1.411 -0.5644,3.105 l -63.2177,181.468 q -1.1289,3.387 -3.6689,5.363 -2.2578,1.975 -6.4911,1.975 z m 132.6445,0 q -3.1045,0 -4.7978,-1.693 -1.6933,-1.976 -1.6933,-4.798 v -184.291 q 0,-3.104 1.6933,-4.798 1.6933,-1.975 4.7978,-1.975 h 116.5577 q 3.1044,0 4.7977,1.975 1.6934,1.694 1.6934,4.798 v 10.724 q 0,3.105 -1.6934,4.798 -1.6933,1.694 -4.7977,1.694 h -95.9555 v 61.806 h 89.7466 q 3.1044,0 4.7977,1.976 1.6934,1.693 1.6934,4.797 v 10.443 q 0,2.822 -1.6934,4.797 -1.6933,1.694 -4.7977,1.694 h -89.7466 v 64.064 h 98.2132 q 3.1045,0 4.7978,1.694 1.6933,1.693 1.6933,4.797 v 11.007 q 0,2.822 -1.6933,4.798 -1.6933,1.693 -4.7978,1.693 z m 171.0268,0 q -3.1045,0 -4.7978,-1.693 -1.6933,-1.976 -1.6933,-4.798 v -184.573 q 0,-2.822 1.6933,-4.516 1.6933,-1.975 4.7978,-1.975 h 14.9577 q 2.8223,0 4.5156,1.975 1.6933,1.694 1.6933,4.516 v 166.511 h 93.9799 q 3.1045,0 4.7978,1.975 1.6933,1.694 1.6933,4.798 v 11.289 q 0,2.822 -1.6933,4.798 -1.6933,1.693 -4.7978,1.693 z"
         id="text14"
         style="font-weight:normal;-inkscape-font-specification:'Rubik, sans-serif, @wght=400';font-variation-settings:'wght' 400"
         aria-label="VEL" />
      <path
         d="m 4525.9035,10579.955 q -3.1044,0 -4.7977,-1.693 -1.6934,-1.976 -1.6934,-4.798 v -184.573 q 0,-2.822 1.6934,-4.516 1.6933,-1.975 4.7977,-1.975 h 14.9578 q 2.8222,0 4.5156,1.975 1.9755,1.694 1.9755,4.516 v 184.573 q 0,2.822 -1.9755,4.798 -1.6934,1.693 -4.5156,1.693 z m 77.0469,0 q -3.1045,0 -4.7978,-1.693 -1.6934,-1.976 -1.6934,-4.798 v -184.291 q 0,-3.104 1.6934,-4.798 1.6933,-1.975 4.7978,-1.975 h 12.9822 q 3.3866,0 5.08,1.693 1.6933,1.411 1.9755,2.258 l 93.6977,143.933 v -141.111 q 0,-3.104 1.6933,-4.798 1.6934,-1.975 4.7978,-1.975 h 13.5467 q 3.1044,0 4.7977,1.975 1.9756,1.694 1.9756,4.798 v 184.009 q 0,2.822 -1.9756,4.798 -1.6933,1.975 -4.5155,1.975 h -13.5467 q -3.1044,0 -4.7977,-1.693 -1.4111,-1.694 -1.9756,-2.258 l -93.4155,-142.522 v 139.982 q 0,2.822 -1.9755,4.798 -1.6934,1.693 -4.7978,1.693 z m 239.3241,0 q -2.8222,0 -4.7978,-1.693 -1.6933,-1.976 -1.6933,-4.798 v -165.947 h -54.1866 q -2.8222,0 -4.7978,-1.693 -1.6933,-1.975 -1.6933,-4.798 v -11.853 q 0,-3.104 1.6933,-4.798 1.9756,-1.975 4.7978,-1.975 h 136.031 q 3.1044,0 4.7978,1.975 1.9755,1.694 1.9755,4.798 v 11.853 q 0,2.823 -1.9755,4.798 -1.6934,1.693 -4.7978,1.693 h -53.9044 v 165.947 q 0,2.822 -1.9756,4.798 -1.6933,1.693 -4.7977,1.693 z m 120.2267,0 q -3.1044,0 -4.7978,-1.693 -1.6933,-1.976 -1.6933,-4.798 v -184.291 q 0,-3.104 1.6933,-4.798 1.6934,-1.975 4.7978,-1.975 h 116.5577 q 3.1044,0 4.7978,1.975 1.6933,1.694 1.6933,4.798 v 10.724 q 0,3.105 -1.6933,4.798 -1.6934,1.694 -4.7978,1.694 h -95.9555 v 61.806 h 89.7466 q 3.1044,0 4.7978,1.976 1.6933,1.693 1.6933,4.797 v 10.443 q 0,2.822 -1.6933,4.797 -1.6934,1.694 -4.7978,1.694 h -89.7466 v 64.064 h 98.2133 q 3.1044,0 4.7977,1.694 1.6934,1.693 1.6934,4.797 v 11.007 q 0,2.822 -1.6934,4.798 -1.6933,1.693 -4.7977,1.693 z m 171.0268,0 q -3.1044,0 -4.7978,-1.693 -1.6933,-1.976 -1.6933,-4.798 v -184.291 q 0,-3.104 1.6933,-4.798 1.6934,-1.975 4.7978,-1.975 h 12.9822 q 3.3867,0 5.08,1.693 1.6933,1.411 1.9756,2.258 l 93.6977,143.933 v -141.111 q 0,-3.104 1.6933,-4.798 1.6933,-1.975 4.7978,-1.975 h 13.5466 q 3.1045,0 4.7978,1.975 1.9755,1.694 1.9755,4.798 v 184.009 q 0,2.822 -1.9755,4.798 -1.6933,1.975 -4.5156,1.975 h -13.5466 q -3.1045,0 -4.7978,-1.693 -1.4111,-1.694 -1.9755,-2.258 l -93.4155,-142.522 v 139.982 q 0,2.822 -1.9756,4.798 -1.6933,1.693 -4.7977,1.693 z m 253.153,2.822 q -24.5533,0 -41.2044,-7.337 -16.6511,-7.62 -25.6822,-19.474 -8.7489,-12.135 -9.3133,-25.682 0,-2.258 1.6933,-3.951 1.9756,-1.976 4.5156,-1.976 h 14.3933 q 3.3866,0 5.08,1.694 1.6933,1.693 2.2577,3.951 1.4112,6.773 6.7734,13.546 5.6444,6.492 15.5222,11.007 10.16,4.233 25.9644,4.233 24.2711,0 35.56,-8.466 11.5711,-8.749 11.5711,-23.142 0,-9.878 -6.2089,-15.805 -5.9267,-6.209 -18.3444,-11.007 -12.4178,-4.797 -32.1733,-10.442 -20.6022,-5.926 -34.1489,-12.982 -13.5467,-7.055 -20.32,-17.498 -6.4911,-10.442 -6.4911,-26.529 0,-15.24 8.1844,-27.093 8.1845,-12.135 23.4245,-19.191 15.5222,-7.056 37.5355,-7.056 17.4978,0 30.48,4.798 13.2644,4.516 22.0133,12.418 8.7489,7.62 13.2644,16.651 4.5156,8.749 4.7978,17.216 0,1.975 -1.4111,3.951 -1.4111,1.693 -4.5156,1.693 h -14.9577 q -1.9756,0 -4.2334,-1.129 -1.9755,-1.129 -3.1044,-4.233 -1.6933,-11.571 -12.9822,-19.473 -11.2889,-7.903 -29.3511,-7.903 -18.3444,0 -29.9155,7.056 -11.2889,7.055 -11.2889,22.013 0,9.596 5.3622,16.087 5.3622,6.209 16.9333,11.007 11.5711,4.797 30.1978,10.16 22.5777,6.208 36.9711,13.264 14.3933,6.773 21.1666,17.215 7.0556,10.16 7.0556,26.247 0,17.78 -9.3134,30.48 -9.3133,12.418 -26.2466,19.191 -16.6511,6.491 -39.5111,6.491 z m 118.5332,-2.822 q -3.1044,0 -4.7978,-1.693 -1.6933,-1.976 -1.6933,-4.798 v -184.291 q 0,-3.104 1.6933,-4.798 1.6934,-1.975 4.7978,-1.975 h 116.5577 q 3.1044,0 4.7978,1.975 1.6933,1.694 1.6933,4.798 v 10.724 q 0,3.105 -1.6933,4.798 -1.6934,1.694 -4.7978,1.694 h -95.9555 v 61.806 h 89.7466 q 3.1045,0 4.7978,1.976 1.6933,1.693 1.6933,4.797 v 10.443 q 0,2.822 -1.6933,4.797 -1.6933,1.694 -4.7978,1.694 h -89.7466 v 64.064 h 98.2133 q 3.1044,0 4.7977,1.694 1.6934,1.693 1.6934,4.797 v 11.007 q 0,2.822 -1.6934,4.798 -1.6933,1.693 -4.7977,1.693 z"
         id="text15"
         style="font-weight:normal;-inkscape-font-specification:'Rubik, sans-serif, @wght=400';font-variation-settings:'wght' 400"
         aria-label="INTENSE" />
      <path
         d="m 3297.3053,10579.955 q -3.1045,0 -4.7978,-1.693 -1.6933,-1.976 -1.6933,-4.798 v -184.291 q 0,-3.104 1.6933,-4.798 1.6933,-1.975 4.7978,-1.975 h 68.8621 q 31.8911,0 50.5178,14.957 18.6266,14.958 18.6266,44.309 0,21.731 -11.0066,35.56 -10.7245,13.547 -29.3511,18.909 l 43.4622,75.071 q 0.8466,1.694 0.8466,3.105 0,2.257 -1.9755,3.951 -1.6934,1.693 -3.9511,1.693 h -13.5467 q -4.7978,0 -7.0555,-2.54 -2.2578,-2.54 -3.9511,-5.08 l -40.9222,-71.684 h -49.3889 v 72.813 q 0,2.822 -1.9755,4.798 -1.6934,1.693 -4.7978,1.693 z m 21.1666,-103.293 h 46.5666 q 21.1667,0 31.6089,-8.749 10.4422,-9.031 10.4422,-26.529 0,-17.215 -10.4422,-26.247 -10.16,-9.031 -31.6089,-9.031 h -46.5666 z m 231.7045,106.115 q -23.7067,0 -40.9222,-8.466 -16.9333,-8.467 -26.2467,-25.683 -9.0311,-17.497 -9.0311,-44.873 v -114.582 q 0,-3.104 1.6934,-4.798 1.6933,-1.975 4.7977,-1.975 h 14.3933 q 3.1045,0 4.7978,1.975 1.9756,1.694 1.9756,4.798 v 115.147 q 0,27.657 12.9822,40.922 12.9822,13.264 35.56,13.264 22.2955,0 35.2777,-13.264 13.2644,-13.265 13.2644,-40.922 v -115.147 q 0,-3.104 1.6934,-4.798 1.9755,-1.975 4.7977,-1.975 h 14.6756 q 2.8222,0 4.5155,1.975 1.9756,1.694 1.9756,4.798 v 114.582 q 0,27.376 -9.3133,44.873 -9.0311,17.216 -25.9645,25.683 -16.9333,8.466 -40.9221,8.466 z m 129.8221,-2.822 q -3.1044,0 -4.7977,-1.693 -1.6934,-1.976 -1.6934,-4.798 v -184.291 q 0,-3.104 1.6934,-4.798 1.6933,-1.975 4.7977,-1.975 h 77.3289 q 21.1666,0 34.431,7.055 13.5467,6.774 19.7556,18.627 6.4911,11.853 6.4911,26.529 0,11.571 -3.9511,20.038 -3.6689,8.184 -9.3133,13.546 -5.6445,5.08 -11.0067,7.902 11.0067,5.363 19.4733,17.498 8.7489,12.136 8.7489,29.351 0,15.522 -7.0556,28.505 -7.0555,12.982 -21.1666,20.884 -13.8289,7.62 -34.4311,7.62 z m 21.1667,-22.86 h 54.4688 q 18.3445,0 28.2222,-9.878 9.8778,-9.877 9.8778,-24.271 0,-14.958 -9.8778,-24.553 -9.8777,-9.878 -28.2222,-9.878 h -54.4688 z m 0,-91.158 h 51.9288 q 18.0622,0 27.3756,-8.184 9.3133,-8.467 9.3133,-22.86 0,-14.393 -9.3133,-22.013 -9.3134,-7.62 -27.3756,-7.62 h -51.9288 z m 287.5842,158.891 q -18.3444,0 -31.0444,-7.902 -12.7,-7.62 -20.32,-23.706 -7.62,-16.087 -11.2889,-40.923 -3.3867,-25.117 -3.3867,-59.549 0,-34.431 3.3867,-59.266 3.6689,-25.118 11.2889,-41.205 7.62,-16.086 20.32,-23.706 12.7,-7.62 31.0444,-7.62 2.54,0 4.5155,1.975 1.9756,1.976 1.9756,4.516 v 9.878 q 0,2.54 -1.9756,4.515 -1.6933,1.976 -3.6688,1.976 -11.8534,0.282 -20.0378,6.209 -7.9022,5.644 -12.9822,18.344 -4.7978,12.7 -7.0556,33.585 -1.9755,20.602 -1.9755,50.799 0,30.198 1.9755,51.083 2.2578,20.602 7.0556,33.584 5.08,12.7 12.9822,18.345 8.1844,5.926 20.0378,6.208 1.9755,0 3.6688,1.976 1.9756,1.976 1.9756,4.515 v 9.878 q 0,2.54 -1.9756,4.516 -1.9755,1.975 -4.5155,1.975 z m 101.1239,-42.051 q -24.8355,0 -42.3333,-9.313 -17.2155,-9.313 -26.5289,-26.247 -9.0311,-16.933 -10.16,-39.793 -0.2822,-12.418 -0.2822,-26.247 0,-14.111 0.2822,-26.811 1.1289,-22.86 10.16,-39.511 9.3134,-16.651 26.8111,-25.964 17.4978,-9.314 42.0511,-9.314 20.0378,0 34.7133,5.645 14.6755,5.644 23.9889,14.393 9.5955,8.467 14.1111,17.78 4.7977,9.314 5.08,16.369 0.2822,2.54 -1.4111,4.233 -1.6934,1.412 -4.5156,1.412 h -16.6511 q -2.8222,0 -4.2333,-1.129 -1.1289,-1.129 -2.2578,-3.951 -2.54,-7.338 -8.4667,-14.394 -5.6444,-7.055 -15.5222,-11.571 -9.5955,-4.798 -24.8355,-4.798 -22.2955,0 -36.1244,12.136 -13.5467,12.135 -14.6756,40.075 -0.8466,25.118 0,50.236 1.1289,28.222 14.9578,40.64 13.8289,12.135 36.1244,12.135 14.9578,0 26.5289,-5.362 11.8533,-5.644 18.6266,-17.215 6.7734,-11.571 6.7734,-29.351 v -11.854 h -42.3333 q -2.8222,0 -4.7978,-1.693 -1.6933,-1.976 -1.6933,-5.08 v -9.031 q 0,-3.105 1.6933,-4.798 1.9756,-1.975 4.7978,-1.975 h 63.7821 q 3.1045,0 4.7978,1.975 1.6933,1.693 1.6933,4.798 v 27.093 q 0,23.142 -9.5955,40.358 -9.3133,17.215 -27.3755,26.811 -18.0622,9.313 -43.18,9.313 z m 101.512,42.051 q -2.54,0 -4.5155,-1.975 -1.9756,-1.976 -1.9756,-4.516 v -9.878 q 0,-2.539 1.6934,-4.515 1.9755,-1.976 4.2333,-1.976 11.8533,-0.282 19.7555,-6.208 8.1845,-5.645 12.9822,-18.345 4.7978,-12.982 7.0556,-33.584 2.2578,-20.885 2.2578,-51.083 0,-30.197 -2.2578,-50.799 -2.2578,-20.885 -7.0556,-33.585 -4.7977,-12.7 -12.9822,-18.344 -7.9022,-5.927 -19.7555,-6.209 -2.2578,0 -4.2333,-1.976 -1.6934,-1.975 -1.6934,-4.515 v -9.878 q 0,-2.54 1.9756,-4.516 1.9755,-1.975 4.5155,-1.975 18.3445,0 31.0444,7.62 12.7,7.62 20.32,23.706 7.62,16.087 11.0067,41.205 3.6689,24.835 3.6689,59.266 0,34.432 -3.6689,59.549 -3.3867,24.836 -11.0067,40.923 -7.62,16.086 -20.32,23.706 -12.6999,7.902 -31.0444,7.902 z"
         id="text16"
         style="font-weight:normal;-inkscape-font-specification:'Rubik, sans-serif, @wght=400';font-variation-settings:'wght' 400"
         aria-label="RUB (G)" />
      <path
         d="m 564.49075,11889.955 q -4.23332,0 -6.77332,-1.975 -2.25778,-1.976 -3.66889,-5.363 l -62.9355,-181.468 q -0.56445,-1.694 -0.56445,-3.105 0,-2.258 1.69334,-3.951 1.69333,-1.693 3.9511,-1.693 h 14.67555 q 3.38666,0 5.07999,1.975 1.97556,1.694 2.25778,3.105 l 55.31551,160.02 55.31551,-160.02 q 0.56444,-1.411 2.25777,-3.105 1.69334,-1.975 5.08,-1.975 h 14.67554 q 2.25778,0 3.95111,1.693 1.97555,1.693 1.97555,3.951 0,1.411 -0.56444,3.105 l -63.21772,181.468 q -1.12889,3.387 -3.66889,5.363 -2.25778,1.975 -6.49111,1.975 z m 94.56203,23.707 q -2.25778,0 -3.95111,-1.694 -1.69333,-1.693 -1.69333,-3.951 0,-1.411 0.84666,-3.386 l 96.51992,-231.422 q 0.84667,-1.694 2.25778,-3.387 1.69333,-1.693 5.07999,-1.693 h 11.00666 q 2.25778,0 3.95111,1.693 1.69333,1.693 1.69333,3.951 0,1.129 -0.56444,3.387 l -96.80214,231.422 q -0.56445,1.411 -2.54,3.104 -1.69333,1.976 -4.79778,1.976 z m 212.67209,-20.885 q -23.98887,0 -41.20441,-8.184 -17.21554,-8.467 -26.52886,-25.682 -9.31333,-17.498 -10.44222,-43.745 -0.28222,-12.418 -0.28222,-23.706 0,-11.571 0.28222,-23.989 1.12889,-25.965 10.72444,-43.18 9.87777,-17.498 27.09331,-25.965 17.49776,-8.749 40.35774,-8.749 23.1422,0 40.35775,8.749 17.49776,8.467 27.37553,25.965 9.87777,17.215 10.72443,43.18 0.56445,12.418 0.56445,23.989 0,11.288 -0.56445,23.706 -0.84666,26.247 -10.44221,43.745 -9.31333,17.215 -26.52887,25.682 -17.21554,8.184 -41.48663,8.184 z m 0,-23.989 q 21.73109,0 35.27775,-12.982 13.82888,-12.982 14.95777,-42.051 0.56444,-12.7 0.56444,-22.578 0,-10.16 -0.56444,-22.577 -0.56445,-19.474 -7.33778,-31.609 -6.4911,-12.136 -17.49776,-17.78 -11.00666,-5.645 -25.39998,-5.645 -13.82888,0 -24.83553,5.645 -11.00666,5.644 -17.77999,17.78 -6.4911,12.135 -7.33777,31.609 -0.28222,12.417 -0.28222,22.577 0,9.878 0.28222,22.578 1.12889,29.069 14.95777,42.051 13.82887,12.982 34.99552,12.982 z m 191.34653,23.989 q -25.9645,0 -43.18,-9.595 -16.9333,-9.596 -25.6822,-26.811 -8.74888,-17.216 -9.59555,-40.076 -0.28222,-11.571 -0.28222,-24.835 0,-13.265 0.28222,-25.4 0.84667,-22.86 9.59555,-40.076 8.7489,-17.215 25.6822,-26.811 17.2155,-9.596 43.18,-9.596 19.4733,0 34.1488,5.363 14.6756,5.362 24.2711,14.393 9.8778,9.031 14.9578,20.32 5.08,11.007 5.6444,22.86 0.2822,2.54 -1.6933,4.233 -1.6933,1.694 -4.2333,1.694 h -15.5223 q -2.5399,0 -4.5155,-1.411 -1.6933,-1.412 -2.54,-5.08 -4.7978,-22.014 -18.0622,-30.198 -12.9822,-8.185 -32.7378,-8.185 -22.5777,0 -35.8422,12.983 -13.2644,12.7 -14.3933,40.922 -0.8466,23.142 0,47.413 1.1289,28.222 14.3933,41.204 13.2645,12.7 35.8422,12.7 19.7556,0 32.7378,-8.184 13.2644,-8.184 18.0622,-30.198 0.8467,-3.669 2.54,-5.08 1.9756,-1.411 4.5155,-1.411 h 15.5223 q 2.54,0 4.2333,1.693 1.9755,1.694 1.6933,4.234 -0.5644,11.853 -5.6444,23.142 -5.08,11.007 -14.9578,20.038 -9.5955,9.031 -24.2711,14.393 -14.6755,5.362 -34.1488,5.362 z m 166.5111,-2.822 q -2.8223,0 -4.7978,-1.693 -1.6934,-1.976 -1.6934,-4.798 v -165.947 h -54.1866 q -2.8222,0 -4.7977,-1.693 -1.6934,-1.975 -1.6934,-4.798 v -11.853 q 0,-3.104 1.6934,-4.798 1.9755,-1.975 4.7977,-1.975 h 136.031 q 3.1045,0 4.7978,1.975 1.9756,1.694 1.9756,4.798 v 11.853 q 0,2.823 -1.9756,4.798 -1.6933,1.693 -4.7978,1.693 h -53.9044 v 165.947 q 0,2.822 -1.9755,4.798 -1.6934,1.693 -4.7978,1.693 z"
         id="text17"
         style="font-weight:normal;-inkscape-font-specification:'Rubik, sans-serif, @wght=400';font-variation-settings:'wght' 400"
         aria-label="V/OCT" />
      <path
         d="m 1809.8455,11889.955 q -3.1044,0 -4.7978,-1.693 -1.6933,-1.976 -1.6933,-4.798 v -184.573 q 0,-2.822 1.6933,-4.516 1.6934,-1.975 4.7978,-1.975 h 14.9578 q 2.8222,0 4.5155,1.975 1.6934,1.694 1.6934,4.516 v 166.511 h 93.9799 q 3.1044,0 4.7978,1.975 1.6933,1.694 1.6933,4.798 v 11.289 q 0,2.822 -1.6933,4.798 -1.6934,1.693 -4.7978,1.693 z m 158.8909,0 q -3.1044,0 -4.7978,-1.693 -1.6933,-1.976 -1.6933,-4.798 v -184.291 q 0,-3.104 1.6933,-4.798 1.6934,-1.975 4.7978,-1.975 h 116.5577 q 3.1044,0 4.7978,1.975 1.6933,1.694 1.6933,4.798 v 10.724 q 0,3.105 -1.6933,4.798 -1.6934,1.694 -4.7978,1.694 h -95.9555 v 61.806 h 89.7466 q 3.1045,0 4.7978,1.976 1.6933,1.693 1.6933,4.797 v 10.443 q 0,2.822 -1.6933,4.797 -1.6933,1.694 -4.7978,1.694 h -89.7466 v 64.064 h 98.2133 q 3.1044,0 4.7977,1.694 1.6934,1.693 1.6934,4.797 v 11.007 q 0,2.822 -1.6934,4.798 -1.6933,1.693 -4.7977,1.693 z m 220.9447,0 q -4.2333,0 -6.7733,-1.975 -2.2578,-1.976 -3.6689,-5.363 l -62.9355,-181.468 q -0.5644,-1.694 -0.5644,-3.105 0,-2.258 1.6933,-3.951 1.6933,-1.693 3.9511,-1.693 h 14.6755 q 3.3867,0 5.08,1.975 1.9756,1.694 2.2578,3.105 l 55.3155,160.02 55.3155,-160.02 q 0.5645,-1.411 2.2578,-3.105 1.6933,-1.975 5.08,-1.975 h 14.6756 q 2.2577,0 3.9511,1.693 1.9755,1.693 1.9755,3.951 0,1.411 -0.5644,3.105 l -63.2178,181.468 q -1.1288,3.387 -3.6688,5.363 -2.2578,1.975 -6.4911,1.975 z m 132.6445,0 q -3.1044,0 -4.7978,-1.693 -1.6933,-1.976 -1.6933,-4.798 v -184.291 q 0,-3.104 1.6933,-4.798 1.6934,-1.975 4.7978,-1.975 h 116.5577 q 3.1044,0 4.7978,1.975 1.6933,1.694 1.6933,4.798 v 10.724 q 0,3.105 -1.6933,4.798 -1.6934,1.694 -4.7978,1.694 h -95.9555 v 61.806 h 89.7466 q 3.1045,0 4.7978,1.976 1.6933,1.693 1.6933,4.797 v 10.443 q 0,2.822 -1.6933,4.797 -1.6933,1.694 -4.7978,1.694 h -89.7466 v 64.064 h 98.2133 q 3.1044,0 4.7977,1.694 1.6934,1.693 1.6934,4.797 v 11.007 q 0,2.822 -1.6934,4.798 -1.6933,1.693 -4.7977,1.693 z m 171.0268,0 q -3.1044,0 -4.7978,-1.693 -1.6933,-1.976 -1.6933,-4.798 v -184.573 q 0,-2.822 1.6933,-4.516 1.6934,-1.975 4.7978,-1.975 h 14.9578 q 2.8222,0 4.5155,1.975 1.6934,1.694 1.6934,4.516 v 166.511 h 93.9799 q 3.1044,0 4.7978,1.975 1.6933,1.694 1.6933,4.798 v 11.289 q 0,2.822 -1.6933,4.798 -1.6934,1.693 -4.7978,1.693 z"
         id="text18"
         style="font-weight:normal;-inkscape-font-specification:'Rubik, sans-serif, @wght=400';font-variation-settings:'wght' 400"
         aria-label="LEVEL" />
    </g>
  </g>
</svg>
