<?xml version='1.0' encoding='utf-8'?>
<svg xmlns:svg="http://www.w3.org/2000/svg" version="1.1" width="314.191352" height="314.190352" viewBox="0 0 314.191352 314.190352" xmlns="http://www.w3.org/2000/svg">
  <g transform="translate(0.000176,-8.943824)">
    <path style="fill:#ACACB2" d="M309.444,183.052l-21.163-12.143c-1.393-0.799-2.247-2.287-2.235-3.892  c0.012-1.606,0.889-3.08,2.294-3.858l21.345-11.819c3.194-1.768,4.953-5.337,4.408-8.948c-0.544-3.61-3.274-6.502-6.849-7.252  l-23.88-5.008c-1.572-0.329-2.843-1.481-3.328-3.011s-0.107-3.203,0.989-4.377l16.648-17.837c2.491-2.669,3.061-6.606,1.428-9.872  c-1.633-3.267-5.124-5.173-8.755-4.781l-24.258,2.616c-1.596,0.172-3.161-0.529-4.095-1.835c-0.934-1.306-1.092-3.013-0.412-4.468  l10.321-22.108c1.545-3.309,0.87-7.229-1.693-9.83c-2.562-2.601-6.471-3.336-9.803-1.842l-22.262,9.984  c-1.465,0.658-3.17,0.474-4.462-0.48c-1.292-0.953-1.969-2.529-1.773-4.122l2.985-24.216c0.447-3.624-1.406-7.143-4.647-8.826  c-3.241-1.683-7.185-1.173-9.892,1.277L202.267,42.78c-1.191,1.077-2.869,1.43-4.392,0.922c-1.523-0.508-2.655-1.797-2.96-3.373  l-4.645-23.952c-0.695-3.585-3.545-6.36-7.148-6.958c-3.602-0.598-7.196,1.105-9.014,4.272l-12.143,21.163  c-0.799,1.393-2.287,2.246-3.892,2.235c-1.605-0.012-3.08-0.889-3.858-2.294L142.397,13.45c-1.768-3.194-5.337-4.953-8.948-4.408  s-6.502,3.274-7.252,6.849l-5.008,23.88c-0.33,1.572-1.481,2.843-3.011,3.328c-1.531,0.484-3.203,0.107-4.377-0.99L95.964,25.461  c-2.669-2.491-6.607-3.061-9.872-1.428c-3.266,1.633-5.173,5.124-4.781,8.754l2.616,24.258c0.172,1.597-0.53,3.162-1.835,4.095  c-1.306,0.934-3.015,1.092-4.468,0.412L55.515,51.232c-3.309-1.545-7.229-0.87-9.83,1.693s-3.336,6.472-1.842,9.803l9.984,22.262  c0.656,1.465,0.473,3.17-0.48,4.462c-0.953,1.292-2.529,1.969-4.123,1.773L25.008,88.24c-3.624-0.447-7.143,1.407-8.826,4.647  s-1.173,7.185,1.277,9.892l16.376,18.087c1.077,1.191,1.43,2.869,0.922,4.392c-0.508,1.524-1.797,2.655-3.373,2.96l-23.953,4.645  c-3.584,0.695-6.359,3.545-6.958,7.148c-0.599,3.602,1.105,7.196,4.272,9.014l21.163,12.143c1.393,0.799,2.247,2.287,2.235,3.892  c-0.012,1.605-0.889,3.079-2.294,3.858l-21.343,11.82c-3.194,1.769-4.953,5.337-4.408,8.948s3.274,6.502,6.849,7.252l23.88,5.008  c1.572,0.33,2.843,1.481,3.328,3.011s0.107,3.203-0.989,4.377L16.517,227.17c-2.491,2.669-3.061,6.607-1.427,9.872  c1.633,3.266,5.124,5.173,8.755,4.782l24.258-2.616c1.596-0.172,3.161,0.53,4.095,1.835c0.934,1.306,1.092,3.013,0.412,4.468  L42.289,267.62c-1.545,3.309-0.87,7.229,1.693,9.83c2.562,2.601,6.471,3.336,9.803,1.842l22.262-9.984  c1.465-0.656,3.17-0.473,4.462,0.48s1.969,2.529,1.773,4.123l-2.985,24.215c-0.447,3.624,1.406,7.144,4.647,8.826  c3.241,1.682,7.185,1.173,9.892-1.278l18.087-16.374c1.191-1.077,2.869-1.431,4.392-0.923s2.655,1.797,2.96,3.373l4.645,23.953  c0.695,3.584,3.545,6.359,7.148,6.958c3.602,0.599,7.196-1.105,9.014-4.273l12.143-21.163c0.799-1.393,2.287-2.247,3.892-2.235  c1.605,0.012,3.08,0.889,3.858,2.293l11.819,21.345c1.768,3.194,5.337,4.953,8.948,4.408c3.611-0.544,6.502-3.274,7.252-6.849  l5.008-23.88c0.33-1.572,1.481-2.843,3.011-3.328c1.531-0.485,3.203-0.107,4.377,0.989l17.837,16.648  c2.669,2.491,6.607,3.06,9.872,1.427c3.266-1.633,5.173-5.124,4.781-8.754l-2.616-24.258c-0.172-1.596,0.53-3.161,1.835-4.095  s3.015-1.091,4.468-0.412l22.108,10.321c3.309,1.545,7.229,0.87,9.83-1.693c2.601-2.562,3.336-6.471,1.842-9.803l-9.984-22.262  c-0.656-1.465-0.473-3.17,0.48-4.462c0.954-1.292,2.529-1.969,4.123-1.773l24.215,2.985c3.624,0.447,7.143-1.407,8.826-4.647  c1.683-3.241,1.173-7.186-1.277-9.893l-16.376-18.087c-1.077-1.19-1.431-2.869-0.922-4.392c0.508-1.523,1.797-2.655,3.373-2.96  l23.953-4.645c3.584-0.695,6.359-3.545,6.958-7.148C314.314,188.464,312.61,184.869,309.444,183.052z M157.096,187.625  c-11.921,0-21.586-9.664-21.586-21.586s9.664-21.586,21.586-21.586s21.586,9.664,21.586,21.586  C178.682,177.961,169.017,187.625,157.096,187.625z" id="path1" />
    <path style="display:inline;fill:#797882" d="m 157.096,90.139 c -41.918,0 -75.9,33.982 -75.9,75.9 0,41.918 33.982,75.9 75.9,75.9 41.918,0 75.9,-33.982 75.9,-75.9 0,-41.918 -33.982,-75.9 -75.9,-75.9 z m 0,97.486 c -11.921,0 -21.586,-9.664 -21.586,-21.586 0,-11.922 9.664,-21.586 21.586,-21.586 11.922,0 21.586,9.664 21.586,21.586 0,11.922 -9.665,21.586 -21.586,21.586 z" id="path4" />
  </g>
</svg>