<?xml version="1.0" encoding="UTF-8"?>
<svg xmlns="http://www.w3.org/2000/svg" width="222.688" height="222.688" viewBox="0 0 222.688 222.688">
  <defs>
    <radialGradient id="vinylGrad" gradientUnits="userSpaceOnUse" cx="102.597" cy="100.410" r="111.531" fx="102.597" fy="100.410">
      <stop offset="0%" stop-color="rgb(38,41,46)" stop-opacity="0.816"/>
      <stop offset="100%" stop-color="rgb(24,26,30)" stop-opacity="1"/>
    </radialGradient>
    <linearGradient id="spindleGrad" gradientUnits="userSpaceOnUse" x1="111.344" y1="107.014" x2="111.344" y2="115.674">
      <stop offset="0%" stop-color="rgb(218,223,229)"/>
      <stop offset="45%" stop-color="rgb(168,174,183)"/>
      <stop offset="100%" stop-color="rgb(92,98,107)"/>
    </linearGradient>
  </defs>
  <circle cx="111.344" cy="111.344" r="109.344" fill="url(#vinylGrad)"/>
  <g transform="translate(111.344 111.344) rotate(343.184)">
    <path d="M 26.243 0.000 L 26.326 2.593 L 26.120 5.196 L 25.599 7.765 L 24.753 10.253 L 23.592 12.610 L 22.143 14.796 L 20.449 16.782 L 18.556 18.556 L 16.515 20.123 L 14.364 21.497 L 12.131 22.696 L 9.832 23.737 L 7.470 24.626 L 5.044 25.357 L 2.552 25.907 L -0.000 26.243 L -2.593 26.326 L -5.196 26.120 L -7.765 25.599 L -10.253 24.753 L -12.610 23.592 L -14.796 22.143 L -16.782 20.449 L -18.556 18.556 L -20.123 16.515 L -21.497 14.364 L -22.696 12.131 L -23.737 9.832 L -24.626 7.470 L -25.357 5.044 L -25.907 2.552 L -26.243 -0.000 L -26.326 -2.593 L -26.120 -5.196 L -25.599 -7.765 L -24.753 -10.253 L -23.592 -12.610 L -22.143 -14.796 L -20.449 -16.782 L -18.556 -18.556 L -16.515 -20.123 L -14.364 -21.497 L -12.131 -22.696 L -9.832 -23.737 L -7.470 -24.626 L -5.044 -25.357 L -2.552 -25.907 L 0.000 -26.243 L 2.593 -26.326 L 5.196 -26.120 L 7.765 -25.599 L 10.253 -24.753 L 12.610 -23.592 L 14.796 -22.143 L 16.782 -20.449 L 18.556 -18.556 L 20.123 -16.515 L 21.497 -14.364 L 22.696 -12.131 L 23.737 -9.832 L 24.626 -7.470 L 25.357 -5.044 L 25.907 -2.552 Z" fill="none" stroke="rgb(210,218,228)" stroke-opacity="0.133" stroke-width="0.7" stroke-linejoin="round" stroke-linecap="round"/>
    <path d="M 30.028 7.126 L 28.985 9.966 L 27.569 12.622 L 25.908 15.094 L 24.117 17.426 L 22.258 19.675 L 20.327 21.875 L 18.268 24.001 L 16.010 25.972 L 13.508 27.665 L 10.771 28.962 L 7.857 29.791 L 4.858 30.160 L 1.857 30.146 L -1.095 29.870 L -3.994 29.446 L -6.866 28.934 L -9.738 28.322 L -12.605 27.531 L -15.412 26.454 L -18.065 25.002 L -20.460 23.146 L -22.517 20.924 L -24.220 18.434 L -25.614 15.789 L -26.790 13.081 L -27.837 10.353 L -28.805 7.597 L -29.669 4.779 L -30.339 1.869 L -30.689 -1.125 L -30.604 -4.151 L -30.028 -7.126 L -28.985 -9.966 L -27.569 -12.622 L -25.908 -15.094 L -24.117 -17.426 L -22.258 -19.675 L -20.327 -21.875 L -18.268 -24.001 L -16.010 -25.972 L -13.508 -27.665 L -10.771 -28.962 L -7.857 -29.791 L -4.858 -30.160 L -1.857 -30.146 L 1.095 -29.870 L 3.994 -29.446 L 6.866 -28.934 L 9.738 -28.322 L 12.605 -27.531 L 15.412 -26.454 L 18.065 -25.002 L 20.460 -23.146 L 22.517 -20.924 L 24.220 -18.434 L 25.614 -15.789 L 26.790 -13.081 L 27.837 -10.353 L 28.805 -7.597 L 29.669 -4.779 L 30.339 -1.869 L 30.689 1.125 L 30.604 4.151 Z" fill="none" stroke="rgb(210,218,228)" stroke-opacity="0.071" stroke-width="0.7" stroke-linejoin="round" stroke-linecap="round"/>
    <path d="M 29.419 18.118 L 27.351 20.800 L 25.042 23.252 L 22.528 25.465 L 19.840 27.435 L 17.005 29.162 L 14.045 30.645 L 10.976 31.882 L 7.813 32.866 L 4.569 33.585 L 1.261 34.023 L -2.091 34.162 L -5.459 33.980 L -8.811 33.461 L -12.105 32.590 L -15.298 31.363 L -18.342 29.783 L -21.191 27.865 L -23.802 25.634 L -26.140 23.124 L -28.177 20.377 L -29.898 17.434 L -31.295 14.343 L -32.370 11.144 L -33.131 7.876 L -33.591 4.570 L -33.763 1.251 L -33.658 -2.060 L -33.283 -5.347 L -32.642 -8.595 L -31.733 -11.787 L -30.551 -14.902 L -29.090 -17.915 L -27.344 -20.794 L -25.312 -23.503 L -23.001 -26.000 L -20.426 -28.245 L -17.609 -30.197 L -14.584 -31.821 L -11.392 -33.089 L -8.079 -33.985 L -4.694 -34.502 L -1.284 -34.644 L 2.107 -34.424 L 5.441 -33.864 L 8.686 -32.988 L 11.821 -31.824 L 14.827 -30.396 L 17.691 -28.726 L 20.404 -26.830 L 22.953 -24.721 L 25.326 -22.405 L 27.503 -19.889 L 29.461 -17.180 L 31.171 -14.286 L 32.601 -11.224 L 33.720 -8.016 L 34.496 -4.693 L 34.904 -1.294 L 34.928 2.138 L 34.561 5.553 L 33.807 8.902 L 32.681 12.139 L 31.207 15.222 Z" fill="none" stroke="rgb(210,218,228)" stroke-opacity="0.133" stroke-width="0.7" stroke-linejoin="round" stroke-linecap="round"/>
    <path d="M 22.305 31.657 L 19.222 33.916 L 15.856 35.750 L 12.263 37.094 L 8.525 37.928 L 4.729 38.280 L 0.946 38.220 L -2.783 37.832 L -6.446 37.196 L -10.054 36.360 L -13.618 35.326 L -17.135 34.060 L -20.570 32.499 L -23.856 30.581 L -26.901 28.267 L -29.612 25.554 L -31.915 22.487 L -33.773 19.141 L -35.197 15.611 L -36.237 11.979 L -36.965 8.309 L -37.448 4.626 L -37.727 0.934 L -37.803 -2.781 L -37.630 -6.522 L -37.137 -10.269 L -36.242 -13.972 L -34.886 -17.551 L -33.049 -20.918 L -30.757 -23.993 L -28.079 -26.723 L -25.111 -29.098 L -21.946 -31.148 L -18.660 -32.924 L -15.293 -34.481 L -11.852 -35.852 L -8.323 -37.030 L -4.691 -37.969 L -0.955 -38.586 L 2.853 -38.789 L 6.673 -38.504 L 10.422 -37.690 L 14.017 -36.360 L 17.394 -34.573 L 20.519 -32.418 L 23.399 -29.996 L 26.064 -27.387 L 28.553 -24.640 L 30.890 -21.765 L 33.067 -18.741 L 35.034 -15.538 L 36.709 -12.135 L 37.994 -8.540 L 38.801 -4.794 L 39.078 -0.967 L 38.819 2.855 L 38.070 6.598 L 36.913 10.207 L 35.444 13.664 L 33.746 16.978 L 31.869 20.171 L 29.821 23.263 L 27.575 26.242 L 25.083 29.067 Z" fill="none" stroke="rgb(210,218,228)" stroke-opacity="0.071" stroke-width="0.7" stroke-linejoin="round" stroke-linecap="round"/>
    <path d="M 5.230 42.377 L 1.058 42.952 L -3.160 42.891 L -7.315 42.177 L -11.320 40.917 L -15.152 39.288 L -18.849 37.453 L -22.465 35.482 L -26.008 33.332 L -29.405 30.890 L -32.511 28.049 L -35.168 24.772 L -37.279 21.122 L -38.859 17.229 L -40.023 13.225 L -40.921 9.192 L -41.655 5.141 L -42.216 1.040 L -42.481 -3.130 L -42.277 -7.332 L -41.464 -11.471 L -40.013 -15.431 L -38.018 -19.133 L -35.652 -22.572 L -33.079 -25.811 L -30.385 -28.924 L -27.554 -31.938 L -24.500 -34.781 L -21.135 -37.302 L -17.437 -39.328 L -13.466 -40.751 L -9.340 -41.578 L -5.174 -41.926 L -1.033 -41.966 L 3.082 -41.823 L 7.201 -41.517 L 11.329 -40.951 L 15.413 -39.965 L 19.337 -38.423 L 22.974 -36.286 L 26.246 -33.637 L 29.162 -30.634 L 31.804 -27.439 L 34.276 -24.144 L 36.625 -20.752 L 38.794 -17.200 L 40.631 -13.426 L 41.957 -9.425 L 42.649 -5.264 L 42.702 -1.052 L 42.232 3.112 L 41.417 7.183 L 40.404 11.178 L 39.241 15.133 L 37.858 19.053 L 36.116 22.867 L 33.890 26.444 L 31.139 29.643 L 27.933 32.378 L 24.417 34.663 L 20.739 36.603 L 16.992 38.325 L 13.185 39.903 L 9.278 41.300 Z" fill="none" stroke="rgb(210,218,228)" stroke-opacity="0.133" stroke-width="0.7" stroke-linejoin="round" stroke-linecap="round"/>
    <path d="M -20.268 41.511 L -24.352 39.508 L -28.249 37.117 L -31.899 34.328 L -35.234 31.146 L -38.190 27.596 L -40.712 23.720 L -42.760 19.578 L -44.317 15.239 L -45.387 10.772 L -45.992 6.240 L -46.166 1.694 L -45.944 -2.829 L -45.356 -7.305 L -44.421 -11.715 L -43.143 -16.044 L -41.511 -20.268 L -39.508 -24.352 L -37.117 -28.249 L -34.328 -31.899 L -31.146 -35.234 L -27.595 -38.190 L -23.720 -40.712 L -19.578 -42.760 L -15.239 -44.317 L -10.772 -45.387 L -6.240 -45.992 L -1.694 -46.166 L 2.829 -45.944 L 7.305 -45.356 L 11.715 -44.421 L 16.044 -43.143 L 20.268 -41.511 L 24.352 -39.508 L 28.249 -37.117 L 31.899 -34.328 L 35.234 -31.146 L 38.190 -27.595 L 40.712 -23.720 L 42.760 -19.578 L 44.317 -15.239 L 45.387 -10.772 L 45.992 -6.240 L 46.166 -1.694 L 45.944 2.829 L 45.356 7.305 L 44.421 11.715 L 43.143 16.044 L 41.511 20.268 L 39.508 24.352 L 37.117 28.249 L 34.328 31.899 L 31.146 35.234 L 27.596 38.190 L 23.720 40.712 L 19.578 42.760 L 15.239 44.317 L 10.772 45.387 L 6.240 45.992 L 1.694 46.166 L -2.829 45.944 L -7.305 45.356 L -11.715 44.421 L -16.044 43.143 Z" fill="none" stroke="rgb(210,218,228)" stroke-opacity="0.071" stroke-width="0.7" stroke-linejoin="round" stroke-linecap="round"/>
    <path d="M -45.909 22.380 L -47.580 17.661 L -48.717 12.816 L -49.437 7.931 L -49.845 3.039 L -49.990 -1.865 L -49.840 -6.793 L -49.297 -11.731 L -48.234 -16.619 L -46.553 -21.349 L -44.224 -25.802 L -41.303 -29.883 L -37.910 -33.553 L -34.189 -36.838 L -30.258 -39.808 L -26.179 -42.531 L -21.953 -45.033 L -17.545 -47.269 L -12.924 -49.126 L -8.095 -50.458 L -3.118 -51.140 L 1.906 -51.112 L 6.870 -50.405 L 11.691 -49.127 L 16.338 -47.420 L 20.825 -45.410 L 25.183 -43.162 L 29.421 -40.665 L 33.500 -37.850 L 37.318 -34.634 L 40.737 -30.965 L 43.628 -26.855 L 45.909 -22.380 L 47.580 -17.661 L 48.717 -12.816 L 49.437 -7.931 L 49.845 -3.039 L 49.990 1.865 L 49.840 6.793 L 49.297 11.731 L 48.234 16.619 L 46.553 21.349 L 44.224 25.802 L 41.303 29.883 L 37.910 33.553 L 34.189 36.838 L 30.258 39.808 L 26.179 42.531 L 21.953 45.033 L 17.545 47.269 L 12.924 49.126 L 8.095 50.458 L 3.118 51.140 L -1.906 51.112 L -6.870 50.405 L -11.691 49.127 L -16.338 47.420 L -20.825 45.410 L -25.183 43.162 L -29.422 40.665 L -33.500 37.850 L -37.318 34.634 L -40.737 30.965 L -43.628 26.855 Z" fill="none" stroke="rgb(210,218,228)" stroke-opacity="0.133" stroke-width="0.7" stroke-linejoin="round" stroke-linecap="round"/>
    <path d="M -51.759 -15.751 L -49.868 -20.708 L -47.554 -25.472 L -44.837 -30.016 L -41.732 -34.310 L -38.254 -38.322 L -34.418 -42.014 L -30.242 -45.347 L -25.748 -48.273 L -20.968 -50.749 L -15.944 -52.729 L -10.726 -54.173 L -5.373 -55.051 L 0.049 -55.343 L 5.470 -55.042 L 10.822 -54.155 L 16.038 -52.702 L 21.059 -50.714 L 25.834 -48.230 L 30.323 -45.295 L 34.494 -41.955 L 38.323 -38.255 L 41.793 -34.237 L 44.890 -29.937 L 47.599 -25.388 L 49.904 -20.619 L 51.786 -15.659 L 53.220 -10.537 L 54.182 -5.288 L 54.642 0.048 L 54.577 5.424 L 53.964 10.784 L 52.793 16.066 L 51.062 21.204 L 48.782 26.130 L 45.978 30.780 L 42.687 35.095 L 38.955 39.024 L 34.838 42.526 L 30.394 45.576 L 25.684 48.154 L 20.765 50.256 L 15.688 51.880 L 10.500 53.032 L 5.243 53.719 L -0.048 53.943 L -5.338 53.709 L -10.594 53.013 L -15.779 51.851 L -20.853 50.217 L -25.768 48.107 L -30.474 45.520 L -34.912 42.463 L -39.023 38.954 L -42.748 35.019 L -46.032 30.699 L -48.829 26.044 L -51.100 21.114 L -52.823 15.973 L -53.985 10.689 L -54.588 5.328 L -54.644 -0.048 L -54.174 -5.384 L -53.203 -10.632 Z" fill="none" stroke="rgb(210,218,228)" stroke-opacity="0.071" stroke-width="0.7" stroke-linejoin="round" stroke-linecap="round"/>
    <path d="M -24.864 -52.761 L -19.524 -54.807 L -14.052 -56.434 L -8.468 -57.645 L -2.787 -58.406 L 2.964 -58.660 L 8.737 -58.339 L 14.459 -57.382 L 20.039 -55.759 L 25.384 -53.476 L 30.414 -50.583 L 35.078 -47.159 L 39.352 -43.297 L 43.243 -39.084 L 46.767 -34.584 L 49.935 -29.835 L 52.736 -24.852 L 55.129 -19.639 L 57.047 -14.205 L 58.407 -8.580 L 59.134 -2.822 L 59.174 2.990 L 58.516 8.764 L 57.189 14.410 L 55.260 19.860 L 52.811 25.068 L 49.925 30.019 L 46.662 34.708 L 43.058 39.135 L 39.116 43.279 L 34.827 47.096 L 30.180 50.512 L 25.183 53.439 L 19.873 55.787 L 14.315 57.488 L 8.596 58.510 L 2.809 58.862 L -2.961 58.591 L -8.652 57.767 L -14.226 56.460 L -19.667 54.724 L -24.960 52.583 L -30.083 50.031 L -34.990 47.041 L -39.611 43.581 L -43.855 39.637 L -47.628 35.220 L -50.848 30.380 L -53.464 25.195 L -55.465 19.758 L -56.876 14.162 L -57.747 8.484 L -58.134 2.774 L -58.078 -2.935 L -57.590 -8.625 L -56.653 -14.275 L -55.223 -19.846 L -53.248 -25.276 L -50.689 -30.478 L -47.537 -35.359 L -43.820 -39.828 L -39.604 -43.819 L -34.977 -47.299 L -30.036 -50.270 Z" fill="none" stroke="rgb(210,218,228)" stroke-opacity="0.133" stroke-width="0.7" stroke-linejoin="round" stroke-linecap="round"/>
    <path d="M 29.292 -56.180 L 34.589 -52.934 L 39.398 -49.024 L 43.732 -44.639 L 47.682 -39.958 L 51.342 -35.073 L 54.735 -29.983 L 57.768 -24.626 L 60.257 -18.956 L 62.005 -12.997 L 62.895 -6.847 L 62.946 -0.646 L 62.304 5.491 L 61.163 11.515 L 59.671 17.434 L 57.858 23.273 L 55.632 29.006 L 52.843 34.529 L 49.374 39.679 L 45.214 44.295 L 40.467 48.290 L 35.312 51.692 L 29.916 54.613 L 24.375 57.180 L 18.702 59.448 L 12.859 61.347 L 6.826 62.705 L 0.650 63.323 L -5.559 63.074 L -11.666 61.968 L -17.573 60.145 L -23.251 57.805 L -28.737 55.116 L -34.069 52.138 L -39.228 48.813 L -44.105 45.020 L -48.520 40.660 L -52.299 35.727 L -55.347 30.318 L -57.694 24.594 L -59.473 18.710 L -60.841 12.752 L -61.883 6.737 L -62.563 0.642 L -62.727 -5.529 L -62.185 -11.707 L -60.807 -17.766 L -58.590 -23.567 L -55.665 -29.023 L -52.230 -34.129 L -48.463 -38.947 L -44.445 -43.542 L -40.150 -47.912 L -35.488 -51.950 L -30.385 -55.469 L -24.845 -58.282 L -18.964 -60.282 L -12.890 -61.499 L -6.758 -62.073 L -0.638 -62.186 L 5.461 -61.956 L 11.556 -61.380 L 17.628 -60.334 L 23.589 -58.643 Z" fill="none" stroke="rgb(210,218,228)" stroke-opacity="0.071" stroke-width="0.7" stroke-linejoin="round" stroke-linecap="round"/>
    <path d="M 66.025 -5.505 L 66.164 0.992 L 65.763 7.474 L 64.822 13.907 L 63.328 20.252 L 61.258 26.457 L 58.591 32.456 L 55.316 38.172 L 51.436 43.519 L 46.980 48.410 L 42.000 52.770 L 36.565 56.539 L 30.760 59.682 L 24.673 62.187 L 18.389 64.063 L 11.980 65.332 L 5.505 66.025 L -0.992 66.164 L -7.474 65.763 L -13.907 64.822 L -20.252 63.328 L -26.457 61.258 L -32.456 58.591 L -38.172 55.316 L -43.519 51.436 L -48.410 46.980 L -52.770 42.000 L -56.539 36.565 L -59.682 30.760 L -62.187 24.673 L -64.063 18.389 L -65.332 11.980 L -66.025 5.505 L -66.164 -0.992 L -65.763 -7.474 L -64.822 -13.907 L -63.328 -20.252 L -61.258 -26.457 L -58.591 -32.456 L -55.316 -38.172 L -51.436 -43.519 L -46.980 -48.410 L -42.000 -52.770 L -36.565 -56.539 L -30.760 -59.682 L -24.673 -62.187 L -18.389 -64.063 L -11.980 -65.332 L -5.505 -66.025 L 0.992 -66.164 L 7.474 -65.763 L 13.907 -64.822 L 20.252 -63.328 L 26.457 -61.258 L 32.456 -58.591 L 38.172 -55.316 L 43.519 -51.436 L 48.410 -46.980 L 52.770 -42.000 L 56.539 -36.565 L 59.682 -30.760 L 62.187 -24.673 L 64.063 -18.389 L 65.332 -11.980 Z" fill="none" stroke="rgb(210,218,228)" stroke-opacity="0.133" stroke-width="0.7" stroke-linejoin="round" stroke-linecap="round"/>
    <path d="M 37.617 59.869 L 31.749 63.631 L 25.475 66.740 L 18.846 69.046 L 11.971 70.461 L 4.985 70.993 L -1.986 70.738 L -8.864 69.839 L -15.620 68.432 L -22.260 66.593 L -28.780 64.313 L -35.135 61.515 L -41.223 58.096 L -46.897 53.981 L -52.004 49.163 L -56.433 43.722 L -60.151 37.794 L -63.202 31.535 L -65.685 25.072 L -67.697 18.478 L -69.281 11.770 L -70.403 4.944 L -70.951 -1.992 L -70.778 -8.983 L -69.758 -15.923 L -67.840 -22.677 L -65.068 -29.118 L -61.568 -35.165 L -57.504 -40.803 L -53.023 -46.065 L -48.213 -50.998 L -43.090 -55.617 L -37.617 -59.869 L -31.749 -63.631 L -25.475 -66.740 L -18.846 -69.046 L -11.971 -70.461 L -4.985 -70.993 L 1.986 -70.738 L 8.864 -69.839 L 15.620 -68.432 L 22.260 -66.593 L 28.780 -64.313 L 35.135 -61.515 L 41.223 -58.096 L 46.897 -53.981 L 52.004 -49.163 L 56.433 -43.722 L 60.151 -37.794 L 63.202 -31.535 L 65.685 -25.072 L 67.697 -18.478 L 69.281 -11.770 L 70.403 -4.944 L 70.951 1.992 L 70.778 8.983 L 69.758 15.923 L 67.840 22.677 L 65.068 29.117 L 61.568 35.165 L 57.504 40.803 L 53.023 46.065 L 48.213 50.998 L 43.090 55.617 Z" fill="none" stroke="rgb(210,218,228)" stroke-opacity="0.071" stroke-width="0.7" stroke-linejoin="round" stroke-linecap="round"/>
    <path d="M -43.684 61.447 L -49.427 56.789 L -54.656 51.577 L -59.325 45.876 L -63.399 39.755 L -66.854 33.281 L -69.671 26.521 L -71.840 19.539 L -73.353 12.394 L -74.203 5.143 L -74.386 -2.156 L -73.897 -9.447 L -72.729 -16.670 L -70.882 -23.765 L -68.357 -30.663 L -65.161 -37.295 L -61.312 -43.588 L -56.836 -49.467 L -51.772 -54.862 L -46.171 -59.706 L -40.094 -63.940 L -33.611 -67.516 L -26.798 -70.398 L -19.735 -72.562 L -12.503 -73.998 L -5.178 -74.707 L 2.165 -74.697 L 9.458 -73.987 L 16.640 -72.596 L 23.652 -70.547 L 30.442 -67.865 L 36.958 -64.572 L 43.148 -60.692 L 48.958 -56.251 L 54.336 -51.275 L 59.223 -45.798 L 63.564 -39.858 L 67.301 -33.504 L 70.384 -26.793 L 72.766 -19.791 L 74.412 -12.573 L 75.297 -5.219 L 75.410 2.185 L 74.753 9.556 L 73.342 16.811 L 71.204 23.873 L 68.376 30.672 L 64.901 37.146 L 60.828 43.244 L 56.204 48.918 L 51.080 54.129 L 45.503 58.842 L 39.519 63.023 L 33.174 66.639 L 26.516 69.657 L 19.594 72.044 L 12.464 73.767 L 5.184 74.794 L -2.176 75.099 L -9.544 74.663 L -16.841 73.476 L -23.985 71.539 L -30.893 68.868 L -37.484 65.490 Z" fill="none" stroke="rgb(210,218,228)" stroke-opacity="0.133" stroke-width="0.7" stroke-linejoin="round" stroke-linecap="round"/>
    <path d="M -75.604 -24.404 L -72.631 -31.602 L -68.932 -38.428 L -64.609 -44.844 L -59.755 -50.836 L -54.438 -56.400 L -48.694 -61.523 L -42.537 -66.167 L -35.973 -70.263 L -29.018 -73.719 L -21.716 -76.431 L -14.141 -78.310 L -6.396 -79.301 L 1.405 -79.393 L 9.151 -78.622 L 16.752 -77.062 L 24.144 -74.800 L 31.291 -71.917 L 38.171 -68.470 L 44.756 -64.482 L 51.003 -59.952 L 56.838 -54.861 L 62.162 -49.200 L 66.865 -42.986 L 70.840 -36.268 L 74.011 -29.133 L 76.339 -21.690 L 77.837 -14.055 L 78.549 -6.335 L 78.544 1.390 L 77.884 9.065 L 76.611 16.654 L 74.732 24.122 L 72.225 31.425 L 69.049 38.494 L 65.168 45.232 L 60.567 51.527 L 55.272 57.263 L 49.346 62.347 L 42.890 66.716 L 36.018 70.353 L 28.844 73.277 L 21.459 75.528 L 13.931 77.149 L 6.304 78.161 L -1.390 78.556 L -9.113 78.292 L -16.805 77.307 L -24.382 75.536 L -31.736 72.939 L -38.751 69.511 L -45.320 65.294 L -51.360 60.371 L -56.826 54.849 L -61.707 48.840 L -66.018 42.441 L -69.776 35.723 L -72.985 28.729 L -75.620 21.485 L -77.623 14.017 L -78.913 6.364 L -79.405 -1.406 L -79.030 -9.199 L -77.758 -16.903 Z" fill="none" stroke="rgb(210,218,228)" stroke-opacity="0.071" stroke-width="0.7" stroke-linejoin="round" stroke-linecap="round"/>
    <path d="M 7.721 -83.301 L 15.797 -81.874 L 23.624 -79.520 L 31.158 -76.462 L 38.422 -72.888 L 45.449 -68.874 L 52.209 -64.368 L 58.574 -59.251 L 64.340 -53.424 L 69.306 -46.887 L 73.357 -39.754 L 76.515 -32.210 L 78.916 -24.435 L 80.725 -16.540 L 82.038 -8.557 L 82.817 -0.476 L 82.901 7.684 L 82.084 15.838 L 80.223 23.833 L 77.313 31.505 L 73.496 38.743 L 68.994 45.529 L 64.007 51.917 L 58.638 57.967 L 52.869 63.672 L 46.618 68.908 L 39.814 73.468 L 32.472 77.137 L 24.707 79.793 L 16.690 81.454 L 8.581 82.269 L 0.474 82.433 L -7.608 82.078 L -15.668 81.206 L -23.674 79.691 L -31.518 77.346 L -39.028 74.036 L -46.029 69.752 L -52.416 64.623 L -58.191 58.864 L -63.440 52.677 L -68.259 46.179 L -72.667 39.380 L -76.562 32.230 L -79.741 24.691 L -81.983 16.798 L -83.154 8.673 L -83.268 0.479 L -82.478 -7.645 L -80.996 -15.628 L -78.988 -23.466 L -76.495 -31.171 L -73.428 -38.707 L -69.631 -45.949 L -64.984 -52.709 L -59.477 -58.798 L -53.232 -64.108 L -46.448 -68.657 L -39.320 -72.557 L -31.968 -75.940 L -24.419 -78.864 L -16.649 -81.254 L -8.649 -82.923 L -0.481 -83.652 Z" fill="none" stroke="rgb(210,218,228)" stroke-opacity="0.133" stroke-width="0.7" stroke-linejoin="round" stroke-linecap="round"/>
    <path d="M 87.714 -3.631 L 87.545 4.978 L 86.446 13.505 L 84.462 21.851 L 81.657 29.930 L 78.102 37.680 L 73.867 45.053 L 69.010 52.012 L 63.579 58.524 L 57.605 64.551 L 51.113 70.041 L 44.129 74.931 L 36.687 79.143 L 28.837 82.597 L 20.648 85.215 L 12.211 86.933 L 3.631 87.714 L -4.978 87.545 L -13.506 86.446 L -21.851 84.462 L -29.930 81.657 L -37.680 78.102 L -45.053 73.867 L -52.012 69.011 L -58.524 63.579 L -64.551 57.605 L -70.041 51.113 L -74.931 44.129 L -79.143 36.687 L -82.597 28.837 L -85.215 20.648 L -86.933 12.211 L -87.714 3.631 L -87.545 -4.978 L -86.446 -13.506 L -84.462 -21.851 L -81.657 -29.930 L -78.102 -37.680 L -73.867 -45.053 L -69.011 -52.012 L -63.579 -58.524 L -57.605 -64.551 L -51.113 -70.041 L -44.129 -74.931 L -36.687 -79.143 L -28.837 -82.597 L -20.648 -85.215 L -12.211 -86.933 L -3.631 -87.714 L 4.978 -87.545 L 13.506 -86.446 L 21.851 -84.462 L 29.930 -81.657 L 37.680 -78.102 L 45.053 -73.867 L 52.012 -69.010 L 58.524 -63.579 L 64.551 -57.604 L 70.041 -51.113 L 74.931 -44.129 L 79.143 -36.687 L 82.597 -28.837 L 85.215 -20.648 L 86.933 -12.211 Z" fill="none" stroke="rgb(210,218,228)" stroke-opacity="0.071" stroke-width="0.7" stroke-linejoin="round" stroke-linecap="round"/>
    <path d="M 8.146 91.110 L -0.826 91.667 L -9.809 91.169 L -18.666 89.616 L -27.275 87.083 L -35.556 83.698 L -43.472 79.597 L -51.016 74.882 L -58.174 69.597 L -64.894 63.736 L -71.077 57.268 L -76.581 50.178 L -81.258 42.497 L -84.997 34.313 L -87.752 25.758 L -89.552 16.976 L -90.483 8.090 L -90.642 -0.817 L -90.101 -9.695 L -88.870 -18.511 L -86.900 -27.218 L -84.105 -35.729 L -80.411 -43.917 L -75.791 -51.635 L -70.289 -58.752 L -64.016 -65.179 L -57.119 -70.892 L -49.743 -75.917 L -41.995 -80.299 L -33.936 -84.063 L -25.592 -87.184 L -16.980 -89.575 L -8.146 -91.110 L 0.826 -91.667 L 9.809 -91.169 L 18.666 -89.616 L 27.275 -87.083 L 35.556 -83.698 L 43.472 -79.597 L 51.016 -74.882 L 58.174 -69.597 L 64.894 -63.736 L 71.077 -57.268 L 76.581 -50.178 L 81.258 -42.497 L 84.997 -34.313 L 87.752 -25.758 L 89.552 -16.976 L 90.483 -8.089 L 90.642 0.817 L 90.101 9.695 L 88.870 18.511 L 86.900 27.218 L 84.105 35.728 L 80.411 43.916 L 75.791 51.635 L 70.289 58.752 L 64.016 65.179 L 57.119 70.892 L 49.743 75.917 L 41.995 80.299 L 33.936 84.063 L 25.592 87.184 L 16.980 89.575 Z" fill="none" stroke="rgb(210,218,228)" stroke-opacity="0.133" stroke-width="0.7" stroke-linejoin="round" stroke-linecap="round"/>
    <path d="M -94.896 4.840 L -94.758 -4.477 L -93.738 -13.725 L -91.859 -22.826 L -89.146 -31.708 L -85.622 -40.300 L -81.316 -48.532 L -76.257 -56.334 L -70.476 -63.635 L -64.012 -70.361 L -56.912 -76.437 L -49.233 -81.792 L -41.042 -86.357 L -32.419 -90.071 L -23.451 -92.882 L -14.237 -94.752 L -4.879 -95.658 L 4.517 -95.595 L 13.847 -94.570 L 23.012 -92.607 L 31.921 -89.743 L 40.489 -86.024 L 48.642 -81.501 L 56.315 -76.230 L 63.449 -70.269 L 69.992 -63.677 L 75.895 -56.508 L 81.110 -48.823 L 85.592 -40.679 L 89.294 -32.139 L 92.172 -23.272 L 94.182 -14.151 L 95.288 -4.861 L 95.462 4.510 L 94.684 13.864 L 92.952 23.098 L 90.274 32.110 L 86.678 40.797 L 82.206 49.063 L 76.912 56.818 L 70.865 63.986 L 64.139 70.500 L 56.814 76.306 L 48.974 81.362 L 40.700 85.638 L 32.072 89.108 L 23.167 91.756 L 14.059 93.566 L 4.822 94.526 L -4.471 94.625 L -13.742 93.853 L -22.912 92.204 L -31.897 89.676 L -40.608 86.277 L -48.953 82.021 L -56.838 76.939 L -64.172 71.071 L -70.868 64.474 L -76.848 57.218 L -82.044 49.385 L -86.403 41.064 L -89.885 32.352 L -92.466 23.346 L -94.136 14.144 Z" fill="none" stroke="rgb(210,218,228)" stroke-opacity="0.071" stroke-width="0.7" stroke-linejoin="round" stroke-linecap="round"/>
    <path d="M 7.310 -99.623 L 17.011 -98.261 L 26.487 -95.856 L 35.641 -92.504 L 44.410 -88.313 L 52.754 -83.380 L 60.649 -77.776 L 68.058 -71.539 L 74.923 -64.680 L 81.153 -57.202 L 86.634 -49.122 L 91.242 -40.487 L 94.866 -31.380 L 97.433 -21.919 L 98.920 -12.240 L 99.355 -2.478 L 98.805 7.250 L 97.356 16.854 L 95.084 26.273 L 92.043 35.464 L 88.250 44.378 L 83.693 52.952 L 78.346 61.093 L 72.195 68.682 L 65.251 75.584 L 57.568 81.673 L 49.245 86.850 L 40.407 91.060 L 31.192 94.298 L 21.731 96.597 L 12.128 98.014 L 2.459 98.602 L -7.219 98.391 L -16.857 97.375 L -26.393 95.518 L -35.742 92.766 L -44.790 89.068 L -53.402 84.404 L -61.442 78.794 L -68.792 72.311 L -75.368 65.064 L -81.131 57.186 L -86.080 48.808 L -90.240 40.043 L -93.635 30.973 L -96.272 21.658 L -98.123 12.141 L -99.129 2.472 L -99.208 -7.279 L -98.281 -17.014 L -96.291 -26.607 L -93.227 -35.920 L -89.131 -44.821 L -84.091 -53.204 L -78.224 -60.998 L -71.655 -68.168 L -64.493 -74.706 L -56.819 -80.611 L -48.686 -85.864 L -40.123 -90.421 L -31.161 -94.203 L -21.846 -97.108 L -12.253 -99.029 L -2.491 -99.882 Z" fill="none" stroke="rgb(210,218,228)" stroke-opacity="0.133" stroke-width="0.7" stroke-linejoin="round" stroke-linecap="round"/>
    <path d="M 99.878 29.093 L 96.420 38.693 L 91.816 47.776 L 86.297 56.289 L 80.104 64.268 L 73.385 71.776 L 66.164 78.824 L 58.374 85.302 L 49.942 90.995 L 40.870 95.657 L 31.270 99.116 L 21.329 101.348 L 11.241 102.481 L 1.138 102.724 L -8.928 102.249 L -18.948 101.099 L -28.888 99.172 L -38.638 96.283 L -48.010 92.265 L -56.798 87.077 L -64.851 80.831 L -72.134 73.750 L -78.714 66.072 L -84.698 57.961 L -90.128 49.466 L -94.925 40.557 L -98.884 31.197 L -101.760 21.416 L -103.370 11.339 L -103.685 1.149 L -102.838 -8.980 L -101.053 -18.939 L -98.536 -28.702 L -95.374 -38.273 L -91.511 -47.618 L -86.796 -56.615 L -81.090 -65.059 L -74.356 -72.727 L -66.702 -79.465 L -58.337 -85.248 L -49.491 -90.173 L -40.326 -94.384 L -30.908 -97.969 L -21.231 -100.883 L -11.292 -102.947 L -1.151 -103.923 L 9.048 -103.629 L 19.122 -102.025 L 28.908 -99.242 L 38.328 -95.511 L 47.384 -91.061 L 56.106 -86.016 L 64.475 -80.362 L 72.369 -73.991 L 79.574 -66.794 L 85.852 -58.750 L 91.040 -49.966 L 95.117 -40.639 L 98.201 -30.981 L 100.471 -21.145 L 102.058 -11.195 L 102.963 -1.141 L 103.039 8.997 L 102.071 19.130 Z" fill="none" stroke="rgb(210,218,228)" stroke-opacity="0.071" stroke-width="0.7" stroke-linejoin="round" stroke-linecap="round"/>
  </g>
  <circle cx="111.344" cy="111.344" r="36.084" fill="rgb(90,178,187)"/>
  <g transform="translate(111.344 111.344) rotate(343.184)">
    <circle cx="0" cy="0" r="26.702" fill="rgb(12,41,45)"/>
    <line x1="7.938" y1="0.000" x2="22.372" y2="0.000" stroke="rgb(90,178,187)" stroke-width="1.2"/>
    <line x1="-3.969" y1="6.875" x2="-11.186" y2="19.375" stroke="rgb(90,178,187)" stroke-width="1.2"/>
    <line x1="-3.969" y1="-6.875" x2="-11.186" y2="-19.375" stroke="rgb(90,178,187)" stroke-width="1.2"/>
    <rect x="-15.155" y="-1.985" width="30.310" height="3.969" rx="1.2" ry="1.2" fill="rgb(90,178,187)" fill-opacity="0.471"/>
  </g>
  <circle cx="111.344" cy="111.344" r="4.330" fill="url(#spindleGrad)" stroke="rgb(56,61,68)" stroke-opacity="0.863" stroke-width="0.9"/>
  <circle cx="111.344" cy="111.344" r="2.685" fill="rgb(236,241,246)" fill-opacity="0.361"/>
  <circle cx="109.959" cy="109.872" r="0.866" fill="rgb(255,255,255)" fill-opacity="0.518"/>
  <circle cx="111.344" cy="111.344" r="109.344" fill="none" stroke="rgb(255,255,255)" stroke-opacity="0.125" stroke-width="1.1"/>
</svg>
